<svg xmlns="http://www.w3.org/2000/svg" width="840" height="280" viewBox="0 0 840 280">
  <rect x="0" y="0" width="840" height="280" fill="#ffffff" />
  <rect x="36" y="36" width="768" height="208" fill="#f7fbff" stroke="#c8d9e6" />
  <polyline fill="none" stroke="#005f73" stroke-width="2" points="36.00,244.00 36.75,243.59 37.50,243.19 38.25,242.78 39.00,242.37 39.75,241.97 40.50,241.56 41.26,241.15 42.01,240.75 42.76,240.34 43.51,239.94 44.26,239.53 45.01,239.12 45.76,238.72 46.51,238.31 47.26,237.90 48.01,237.50 48.76,237.09 49.51,236.68 50.26,236.28 51.01,235.87 51.77,235.46 52.52,235.06 53.27,234.65 54.02,234.25 54.77,233.84 55.52,233.43 56.27,233.03 57.02,232.62 57.77,232.21 58.52,231.81 59.27,231.40 60.02,230.99 60.77,230.59 61.52,230.18 62.28,229.77 63.03,229.37 63.78,228.96 64.53,228.55 65.28,228.15 66.03,227.74 66.78,227.34 67.53,226.93 68.28,226.52 69.03,226.12 69.78,225.71 70.53,225.30 71.28,224.90 72.04,224.49 72.79,224.08 73.54,223.68 74.29,223.27 75.04,222.86 75.79,222.46 76.54,222.05 77.29,221.65 78.04,221.24 78.79,220.83 79.54,220.43 80.29,220.02 81.04,219.61 81.79,219.21 82.55,218.80 83.30,218.39 84.05,217.99 84.80,217.58 85.55,217.17 86.30,216.77 87.05,216.36 87.80,215.96 88.55,215.55 89.30,215.14 90.05,214.74 90.80,214.33 91.55,213.92 92.30,213.52 93.06,213.11 93.81,212.70 94.56,212.30 95.31,211.89 96.06,211.48 96.81,211.08 97.56,210.67 98.31,210.26 99.06,209.86 99.81,209.45 100.56,209.05 101.31,208.64 102.06,208.23 102.82,207.83 103.57,207.42 104.32,207.01 105.07,206.61 105.82,206.20 106.57,205.79 107.32,205.39 108.07,204.98 108.82,204.57 109.57,204.17 110.32,203.76 111.07,203.36 111.82,202.95 112.57,202.54 113.33,202.14 114.08,201.73 114.83,201.32 115.58,200.92 116.33,200.51 117.08,200.10 117.83,199.70 118.58,199.29 119.33,198.88 120.08,198.48 120.83,198.07 121.58,197.66 122.33,197.26 123.09,196.85 123.84,196.45 124.59,196.04 125.34,195.63 126.09,195.23 126.84,194.82 127.59,194.41 128.34,194.01 129.09,193.60 129.84,193.19 130.59,192.79 131.34,192.38 132.09,191.97 132.84,191.57 133.60,191.16 134.35,190.76 135.10,190.35 135.85,189.94 136.60,189.54 137.35,189.13 138.10,188.72 138.85,188.32 139.60,187.91 140.35,187.50 141.10,187.10 141.85,186.69 142.60,186.28 143.35,185.88 144.11,185.47 144.86,185.06 145.61,184.66 146.36,184.25 147.11,183.85 147.86,183.44 148.61,183.03 149.36,182.63 150.11,182.22 150.86,181.81 151.61,181.41 152.36,181.00 153.11,180.59 153.87,180.19 154.62,179.78 155.37,179.37 156.12,178.97 156.87,178.56 157.62,178.16 158.37,177.75 159.12,177.34 159.87,176.94 160.62,176.53 161.37,176.12 162.12,175.72 162.87,175.31 163.62,174.90 164.38,174.50 165.13,174.09 165.88,173.68 166.63,173.28 167.38,172.87 168.13,172.47 168.88,172.06 169.63,171.65 170.38,171.25 171.13,170.84 171.88,170.43 172.63,170.03 173.38,169.62 174.13,169.21 174.89,168.81 175.64,168.40 176.39,167.99 177.14,167.59 177.89,167.18 178.64,166.77 179.39,166.37 180.14,165.96 180.89,165.56 181.64,165.15 182.39,164.74 183.14,164.34 183.89,163.93 184.65,163.52 185.40,163.12 186.15,162.71 186.90,162.30 187.65,161.90 188.40,161.49 189.15,161.08 189.90,160.68 190.65,160.27 191.40,159.87 192.15,159.46 192.90,159.05 193.65,158.65 194.40,158.24 195.16,157.83 195.91,157.43 196.66,157.02 197.41,156.61 198.16,156.21 198.91,155.80 199.66,155.39 200.41,154.99 201.16,154.58 201.91,154.17 202.66,153.77 203.41,153.36 204.16,152.96 204.91,152.55 205.67,152.14 206.42,151.74 207.17,151.33 207.92,150.92 208.67,150.52 209.42,150.11 210.17,149.70 210.92,149.30 211.67,148.89 212.42,148.48 213.17,148.08 213.92,147.67 214.67,147.27 215.43,146.86 216.18,146.45 216.93,146.05 217.68,145.64 218.43,145.23 219.18,144.83 219.93,144.42 220.68,144.01 221.43,143.61 222.18,143.20 222.93,142.79 223.68,142.39 224.43,141.98 225.18,141.57 225.94,141.17 226.69,140.76 227.44,140.36 228.19,139.95 228.94,139.54 229.69,139.14 230.44,138.73 231.19,138.32 231.94,137.92 232.69,137.51 233.44,137.10 234.19,136.70 234.94,136.29 235.70,135.88 236.45,135.48 237.20,135.07 237.95,134.67 238.70,134.26 239.45,133.85 240.20,133.45 240.95,133.04 241.70,132.63 242.45,132.23 243.20,131.82 243.95,131.41 244.70,131.01 245.45,130.60 246.21,130.19 246.96,129.79 247.71,129.38 248.46,128.98 249.21,128.57 249.96,128.16 250.71,127.76 251.46,127.35 252.21,126.94 252.96,126.54 253.71,126.13 254.46,125.72 255.21,125.32 255.96,124.91 256.72,124.50 257.47,124.10 258.22,123.69 258.97,123.28 259.72,122.88 260.47,122.47 261.22,122.07 261.97,121.66 262.72,121.25 263.47,120.85 264.22,120.44 264.97,120.03 265.72,119.63 266.48,119.22 267.23,118.81 267.98,118.41 268.73,118.00 269.48,117.59 270.23,117.19 270.98,116.78 271.73,116.38 272.48,115.97 273.23,115.56 273.98,115.16 274.73,114.75 275.48,114.34 276.23,113.94 276.99,113.53 277.74,113.12 278.49,112.72 279.24,112.31 279.99,111.90 280.74,111.50 281.49,111.09 282.24,110.68 282.99,110.28 283.74,109.87 284.49,109.47 285.24,109.06 285.99,108.65 286.74,108.25 287.50,107.84 288.25,107.43 289.00,107.03 289.75,106.62 290.50,106.21 291.25,105.81 292.00,105.40 292.75,104.99 293.50,104.59 294.25,104.18 295.00,103.78 295.75,103.37 296.50,102.96 297.26,102.56 298.01,102.15 298.76,101.74 299.51,101.34 300.26,100.93 301.01,100.52 301.76,100.12 302.51,99.71 303.26,99.30 304.01,98.90 304.76,98.49 305.51,98.09 306.26,97.68 307.01,97.27 307.77,96.87 308.52,96.46 309.27,96.05 310.02,95.65 310.77,95.24 311.52,94.83 312.27,94.43 313.02,94.02 313.77,93.61 314.52,93.21 315.27,92.80 316.02,92.39 316.77,91.99 317.52,91.58 318.28,91.18 319.03,90.77 319.78,90.36 320.53,89.96 321.28,89.55 322.03,89.14 322.78,88.74 323.53,88.33 324.28,87.92 325.03,87.52 325.78,87.11 326.53,86.70 327.28,86.30 328.04,85.89 328.79,85.49 329.54,85.08 330.29,84.67 331.04,84.27 331.79,83.86 332.54,83.45 333.29,83.05 334.04,82.64 334.79,82.23 335.54,81.83 336.29,81.42 337.04,81.01 337.79,80.61 338.55,80.20 339.30,79.79 340.05,79.39 340.80,78.98 341.55,78.58 342.30,78.17 343.05,77.76 343.80,77.36 344.55,76.95 345.30,76.54 346.05,76.14 346.80,75.73 347.55,75.32 348.30,74.92 349.06,74.51 349.81,74.10 350.56,73.70 351.31,73.29 352.06,72.89 352.81,72.48 353.56,72.07 354.31,71.67 355.06,71.26 355.81,70.85 356.56,70.45 357.31,70.04 358.06,69.63 358.82,69.23 359.57,68.82 360.32,68.41 361.07,68.01 361.82,67.60 362.57,67.19 363.32,66.79 364.07,66.38 364.82,65.98 365.57,65.57 366.32,65.16 367.07,64.76 367.82,64.35 368.57,63.94 369.33,63.54 370.08,63.13 370.83,62.72 371.58,62.32 372.33,61.91 373.08,61.50 373.83,61.10 374.58,60.69 375.33,60.29 376.08,59.88 376.83,59.47 377.58,59.07 378.33,58.66 379.09,58.25 379.84,57.85 380.59,57.44 381.34,57.03 382.09,56.63 382.84,56.22 383.59,55.81 384.34,55.41 385.09,55.00 385.84,54.60 386.59,54.19 387.34,53.78 388.09,53.38 388.84,52.97 389.60,52.56 390.35,52.16 391.10,51.75 391.85,51.34 392.60,50.94 393.35,50.53 394.10,50.12 394.85,49.72 395.60,49.31 396.35,48.90 397.10,48.50 397.85,48.09 398.60,47.69 399.35,47.28 400.11,46.87 400.86,46.47 401.61,46.06 402.36,45.65 403.11,45.25 403.86,44.84 404.61,44.43 405.36,44.03 406.11,43.62 406.86,43.21 407.61,42.81 408.36,42.40 409.11,42.00 409.87,41.59 410.62,41.18 411.37,40.78 412.12,40.37 412.87,39.96 413.62,39.56 414.37,39.15 415.12,38.74 415.87,38.34 416.62,37.93 417.37,37.52 418.12,37.12 418.87,36.71 419.62,36.30 420.38,36.10 421.13,36.51 421.88,36.91 422.63,37.32 423.38,37.73 424.13,38.13 424.88,38.54 425.63,38.95 426.38,39.35 427.13,39.76 427.88,40.17 428.63,40.57 429.38,40.98 430.13,41.39 430.89,41.79 431.64,42.20 432.39,42.60 433.14,43.01 433.89,43.42 434.64,43.82 435.39,44.23 436.14,44.64 436.89,45.04 437.64,45.45 438.39,45.86 439.14,46.26 439.89,46.67 440.65,47.08 441.40,47.48 442.15,47.89 442.90,48.30 443.65,48.70 444.40,49.11 445.15,49.51 445.90,49.92 446.65,50.33 447.40,50.73 448.15,51.14 448.90,51.55 449.65,51.95 450.40,52.36 451.16,52.77 451.91,53.17 452.66,53.58 453.41,53.99 454.16,54.39 454.91,54.80 455.66,55.20 456.41,55.61 457.16,56.02 457.91,56.42 458.66,56.83 459.41,57.24 460.16,57.64 460.91,58.05 461.67,58.46 462.42,58.86 463.17,59.27 463.92,59.68 464.67,60.08 465.42,60.49 466.17,60.89 466.92,61.30 467.67,61.71 468.42,62.11 469.17,62.52 469.92,62.93 470.67,63.33 471.43,63.74 472.18,64.15 472.93,64.55 473.68,64.96 474.43,65.37 475.18,65.77 475.93,66.18 476.68,66.59 477.43,66.99 478.18,67.40 478.93,67.80 479.68,68.21 480.43,68.62 481.18,69.02 481.94,69.43 482.69,69.84 483.44,70.24 484.19,70.65 484.94,71.06 485.69,71.46 486.44,71.87 487.19,72.28 487.94,72.68 488.69,73.09 489.44,73.49 490.19,73.90 490.94,74.31 491.70,74.71 492.45,75.12 493.20,75.53 493.95,75.93 494.70,76.34 495.45,76.75 496.20,77.15 496.95,77.56 497.70,77.97 498.45,78.37 499.20,78.78 499.95,79.19 500.70,79.59 501.45,80.00 502.21,80.40 502.96,80.81 503.71,81.22 504.46,81.62 505.21,82.03 505.96,82.44 506.71,82.84 507.46,83.25 508.21,83.66 508.96,84.06 509.71,84.47 510.46,84.88 511.21,85.28 511.96,85.69 512.72,86.09 513.47,86.50 514.22,86.91 514.97,87.31 515.72,87.72 516.47,88.13 517.22,88.53 517.97,88.94 518.72,89.35 519.47,89.75 520.22,90.16 520.97,90.57 521.72,90.97 522.48,91.38 523.23,91.79 523.98,92.19 524.73,92.60 525.48,93.00 526.23,93.41 526.98,93.82 527.73,94.22 528.48,94.63 529.23,95.04 529.98,95.44 530.73,95.85 531.48,96.26 532.23,96.66 532.99,97.07 533.74,97.48 534.49,97.88 535.24,98.29 535.99,98.69 536.74,99.10 537.49,99.51 538.24,99.91 538.99,100.32 539.74,100.73 540.49,101.13 541.24,101.54 541.99,101.95 542.74,102.35 543.50,102.76 544.25,103.17 545.00,103.57 545.75,103.98 546.50,104.38 547.25,104.79 548.00,105.20 548.75,105.60 549.50,106.01 550.25,106.42 551.00,106.82 551.75,107.23 552.50,107.64 553.26,108.04 554.01,108.45 554.76,108.86 555.51,109.26 556.26,109.67 557.01,110.08 557.76,110.48 558.51,110.89 559.26,111.29 560.01,111.70 560.76,112.11 561.51,112.51 562.26,112.92 563.01,113.33 563.77,113.73 564.52,114.14 565.27,114.55 566.02,114.95 566.77,115.36 567.52,115.77 568.27,116.17 569.02,116.58 569.77,116.98 570.52,117.39 571.27,117.80 572.02,118.20 572.77,118.61 573.52,119.02 574.28,119.42 575.03,119.83 575.78,120.24 576.53,120.64 577.28,121.05 578.03,121.46 578.78,121.86 579.53,122.27 580.28,122.68 581.03,123.08 581.78,123.49 582.53,123.89 583.28,124.30 584.04,124.71 584.79,125.11 585.54,125.52 586.29,125.93 587.04,126.33 587.79,126.74 588.54,127.15 589.29,127.55 590.04,127.96 590.79,128.37 591.54,128.77 592.29,129.18 593.04,129.58 593.79,129.99 594.55,130.40 595.30,130.80 596.05,131.21 596.80,131.62 597.55,132.02 598.30,132.43 599.05,132.84 599.80,133.24 600.55,133.65 601.30,134.06 602.05,134.46 602.80,134.87 603.55,135.28 604.30,135.68 605.06,136.09 605.81,136.49 606.56,136.90 607.31,137.31 608.06,137.71 608.81,138.12 609.56,138.53 610.31,138.93 611.06,139.34 611.81,139.75 612.56,140.15 613.31,140.56 614.06,140.97 614.82,141.37 615.57,141.78 616.32,142.18 617.07,142.59 617.82,143.00 618.57,143.40 619.32,143.81 620.07,144.22 620.82,144.62 621.57,145.03 622.32,145.44 623.07,145.84 623.82,146.25 624.57,146.66 625.33,147.06 626.08,147.47 626.83,147.87 627.58,148.28 628.33,148.69 629.08,149.09 629.83,149.50 630.58,149.91 631.33,150.31 632.08,150.72 632.83,151.13 633.58,151.53 634.33,151.94 635.09,152.35 635.84,152.75 636.59,153.16 637.34,153.57 638.09,153.97 638.84,154.38 639.59,154.78 640.34,155.19 641.09,155.60 641.84,156.00 642.59,156.41 643.34,156.82 644.09,157.22 644.84,157.63 645.60,158.04 646.35,158.44 647.10,158.85 647.85,159.26 648.60,159.66 649.35,160.07 650.10,160.47 650.85,160.88 651.60,161.29 652.35,161.69 653.10,162.10 653.85,162.51 654.60,162.91 655.35,163.32 656.11,163.73 656.86,164.13 657.61,164.54 658.36,164.95 659.11,165.35 659.86,165.76 660.61,166.17 661.36,166.57 662.11,166.98 662.86,167.38 663.61,167.79 664.36,168.20 665.11,168.60 665.87,169.01 666.62,169.42 667.37,169.82 668.12,170.23 668.87,170.64 669.62,171.04 670.37,171.45 671.12,171.86 671.87,172.26 672.62,172.67 673.37,173.07 674.12,173.48 674.87,173.89 675.62,174.29 676.38,174.70 677.13,175.11 677.88,175.51 678.63,175.92 679.38,176.33 680.13,176.73 680.88,177.14 681.63,177.55 682.38,177.95 683.13,178.36 683.88,178.77 684.63,179.17 685.38,179.58 686.13,179.98 686.89,180.39 687.64,180.80 688.39,181.20 689.14,181.61 689.89,182.02 690.64,182.42 691.39,182.83 692.14,183.24 692.89,183.64 693.64,184.05 694.39,184.46 695.14,184.86 695.89,185.27 696.65,185.67 697.40,186.08 698.15,186.49 698.90,186.89 699.65,187.30 700.40,187.71 701.15,188.11 701.90,188.52 702.65,188.93 703.40,189.33 704.15,189.74 704.90,190.15 705.65,190.55 706.40,190.96 707.16,191.36 707.91,191.77 708.66,192.18 709.41,192.58 710.16,192.99 710.91,193.40 711.66,193.80 712.41,194.21 713.16,194.62 713.91,195.02 714.66,195.43 715.41,195.84 716.16,196.24 716.91,196.65 717.67,197.06 718.42,197.46 719.17,197.87 719.92,198.27 720.67,198.68 721.42,199.09 722.17,199.49 722.92,199.90 723.67,200.31 724.42,200.71 725.17,201.12 725.92,201.53 726.67,201.93 727.43,202.34 728.18,202.75 728.93,203.15 729.68,203.56 730.43,203.96 731.18,204.37 731.93,204.78 732.68,205.18 733.43,205.59 734.18,206.00 734.93,206.40 735.68,206.81 736.43,207.22 737.18,207.62 737.94,208.03 738.69,208.44 739.44,208.84 740.19,209.25 740.94,209.66 741.69,210.06 742.44,210.47 743.19,210.87 743.94,211.28 744.69,211.69 745.44,212.09 746.19,212.50 746.94,212.91 747.70,213.31 748.45,213.72 749.20,214.13 749.95,214.53 750.70,214.94 751.45,215.35 752.20,215.75 752.95,216.16 753.70,216.56 754.45,216.97 755.20,217.38 755.95,217.78 756.70,218.19 757.45,218.60 758.21,219.00 758.96,219.41 759.71,219.82 760.46,220.22 761.21,220.63 761.96,221.04 762.71,221.44 763.46,221.85 764.21,222.26 764.96,222.66 765.71,223.07 766.46,223.47 767.21,223.88 767.96,224.29 768.72,224.69 769.47,225.10 770.22,225.51 770.97,225.91 771.72,226.32 772.47,226.73 773.22,227.13 773.97,227.54 774.72,227.95 775.47,228.35 776.22,228.76 776.97,229.16 777.72,229.57 778.48,229.98 779.23,230.38 779.98,230.79 780.73,231.20 781.48,231.60 782.23,232.01 782.98,232.42 783.73,232.82 784.48,233.23 785.23,233.64 785.98,234.04 786.73,234.45 787.48,234.85 788.23,235.26 788.99,235.67 789.74,236.07 790.49,236.48 791.24,236.89 791.99,237.29 792.74,237.70 793.49,238.11 794.24,238.51 794.99,238.92 795.74,239.33 796.49,239.73 797.24,240.14 797.99,240.55 798.74,240.95 799.50,241.36 800.25,241.76 801.00,242.17 801.75,242.58 802.50,242.98 803.25,243.39 804.00,244.00" />
  <text x="420.0" y="22" text-anchor="middle" font-family="Arial, Helvetica, sans-serif" font-size="15" fill="#102a43">bartlett window (time domain)</text>
  <text x="420.0" y="272" text-anchor="middle" font-family="Arial, Helvetica, sans-serif" font-size="12" fill="#334e68">normalized sample index</text>
  <text x="14" y="140.0" transform="rotate(-90 14,140.0)" text-anchor="middle" font-family="Arial, Helvetica, sans-serif" font-size="12" fill="#334e68">amplitude</text>
  <text x="36" y="262" font-family="Arial, Helvetica, sans-serif" font-size="11" fill="#486581">0</text>
  <text x="804" y="262" text-anchor="end" font-family="Arial, Helvetica, sans-serif" font-size="11" fill="#486581">1</text>
  <text x="30" y="40" text-anchor="end" font-family="Arial, Helvetica, sans-serif" font-size="11" fill="#486581">1.0</text>
  <text x="30" y="248" text-anchor="end" font-family="Arial, Helvetica, sans-serif" font-size="11" fill="#486581">0.0</text>
</svg>
