<svg xmlns="http://www.w3.org/2000/svg" width="840" height="280" viewBox="0 0 840 280">
  <rect x="0" y="0" width="840" height="280" fill="#ffffff" />
  <rect x="36" y="36" width="768" height="208" fill="#f7fbff" stroke="#c8d9e6" />
  <polyline fill="none" stroke="#005f73" stroke-width="2" points="36.00,244.00 36.75,243.90 37.50,243.80 38.25,243.69 39.00,243.59 39.75,243.48 40.50,243.36 41.26,243.24 42.01,243.12 42.76,243.00 43.51,242.88 44.26,242.75 45.01,242.62 45.76,242.48 46.51,242.34 47.26,242.20 48.01,242.06 48.76,241.91 49.51,241.76 50.26,241.61 51.01,241.45 51.77,241.30 52.52,241.13 53.27,240.97 54.02,240.80 54.77,240.63 55.52,240.46 56.27,240.28 57.02,240.10 57.77,239.92 58.52,239.74 59.27,239.55 60.02,239.36 60.77,239.16 61.52,238.97 62.28,238.77 63.03,238.57 63.78,238.36 64.53,238.15 65.28,237.94 66.03,237.73 66.78,237.51 67.53,237.29 68.28,237.07 69.03,236.84 69.78,236.61 70.53,236.38 71.28,236.15 72.04,235.91 72.79,235.67 73.54,235.43 74.29,235.18 75.04,234.93 75.79,234.68 76.54,234.43 77.29,234.17 78.04,233.91 78.79,233.65 79.54,233.38 80.29,233.12 81.04,232.85 81.79,232.57 82.55,232.30 83.30,232.02 84.05,231.73 84.80,231.45 85.55,231.16 86.30,230.87 87.05,230.58 87.80,230.28 88.55,229.99 89.30,229.68 90.05,229.38 90.80,229.07 91.55,228.77 92.30,228.45 93.06,228.14 93.81,227.82 94.56,227.50 95.31,227.18 96.06,226.85 96.81,226.53 97.56,226.20 98.31,225.86 99.06,225.53 99.81,225.19 100.56,224.85 101.31,224.51 102.06,224.16 102.82,223.81 103.57,223.46 104.32,223.11 105.07,222.75 105.82,222.39 106.57,222.03 107.32,221.67 108.07,221.30 108.82,220.93 109.57,220.56 110.32,220.19 111.07,219.81 111.82,219.44 112.57,219.05 113.33,218.67 114.08,218.29 114.83,217.90 115.58,217.51 116.33,217.12 117.08,216.72 117.83,216.32 118.58,215.92 119.33,215.52 120.08,215.12 120.83,214.71 121.58,214.30 122.33,213.89 123.09,213.48 123.84,213.06 124.59,212.64 125.34,212.22 126.09,211.80 126.84,211.38 127.59,210.95 128.34,210.52 129.09,210.09 129.84,209.65 130.59,209.22 131.34,208.78 132.09,208.34 132.84,207.90 133.60,207.46 134.35,207.01 135.10,206.56 135.85,206.11 136.60,205.66 137.35,205.21 138.10,204.75 138.85,204.29 139.60,203.83 140.35,203.37 141.10,202.90 141.85,202.44 142.60,201.97 143.35,201.50 144.11,201.03 144.86,200.56 145.61,200.08 146.36,199.60 147.11,199.12 147.86,198.64 148.61,198.16 149.36,197.67 150.11,197.19 150.86,196.70 151.61,196.21 152.36,195.72 153.11,195.22 153.87,194.73 154.62,194.23 155.37,193.73 156.12,193.23 156.87,192.73 157.62,192.23 158.37,191.72 159.12,191.22 159.87,190.71 160.62,190.20 161.37,189.69 162.12,189.17 162.87,188.66 163.62,188.14 164.38,187.62 165.13,187.11 165.88,186.58 166.63,186.06 167.38,185.54 168.13,185.01 168.88,184.49 169.63,183.96 170.38,183.43 171.13,182.90 171.88,182.37 172.63,181.84 173.38,181.30 174.13,180.77 174.89,180.23 175.64,179.69 176.39,179.15 177.14,178.61 177.89,178.07 178.64,177.53 179.39,176.98 180.14,176.44 180.89,175.89 181.64,175.34 182.39,174.79 183.14,174.24 183.89,173.69 184.65,173.14 185.40,172.59 186.15,172.03 186.90,171.48 187.65,170.92 188.40,170.37 189.15,169.81 189.90,169.25 190.65,168.69 191.40,168.13 192.15,167.57 192.90,167.00 193.65,166.44 194.40,165.88 195.16,165.31 195.91,164.75 196.66,164.18 197.41,163.61 198.16,163.05 198.91,162.48 199.66,161.91 200.41,161.34 201.16,160.77 201.91,160.20 202.66,159.62 203.41,159.05 204.16,158.48 204.91,157.90 205.67,157.33 206.42,156.75 207.17,156.18 207.92,155.60 208.67,155.03 209.42,154.45 210.17,153.87 210.92,153.29 211.67,152.72 212.42,152.14 213.17,151.56 213.92,150.98 214.67,150.40 215.43,149.82 216.18,149.24 216.93,148.66 217.68,148.08 218.43,147.50 219.18,146.92 219.93,146.33 220.68,145.75 221.43,145.17 222.18,144.59 222.93,144.01 223.68,143.42 224.43,142.84 225.18,142.26 225.94,141.68 226.69,141.09 227.44,140.51 228.19,139.93 228.94,139.34 229.69,138.76 230.44,138.18 231.19,137.60 231.94,137.01 232.69,136.43 233.44,135.85 234.19,135.27 234.94,134.68 235.70,134.10 236.45,133.52 237.20,132.94 237.95,132.36 238.70,131.78 239.45,131.20 240.20,130.62 240.95,130.04 241.70,129.46 242.45,128.88 243.20,128.30 243.95,127.72 244.70,127.14 245.45,126.56 246.21,125.98 246.96,125.41 247.71,124.83 248.46,124.25 249.21,123.68 249.96,123.10 250.71,122.53 251.46,121.95 252.21,121.38 252.96,120.81 253.71,120.23 254.46,119.66 255.21,119.09 255.96,118.52 256.72,117.95 257.47,117.38 258.22,116.81 258.97,116.24 259.72,115.68 260.47,115.11 261.22,114.55 261.97,113.98 262.72,113.42 263.47,112.85 264.22,112.29 264.97,111.73 265.72,111.17 266.48,110.61 267.23,110.05 267.98,109.49 268.73,108.94 269.48,108.38 270.23,107.83 270.98,107.27 271.73,106.72 272.48,106.17 273.23,105.62 273.98,105.07 274.73,104.52 275.48,103.97 276.23,103.43 276.99,102.88 277.74,102.34 278.49,101.80 279.24,101.25 279.99,100.71 280.74,100.17 281.49,99.64 282.24,99.10 282.99,98.56 283.74,98.03 284.49,97.50 285.24,96.97 285.99,96.44 286.74,95.91 287.50,95.38 288.25,94.85 289.00,94.33 289.75,93.81 290.50,93.29 291.25,92.77 292.00,92.25 292.75,91.73 293.50,91.21 294.25,90.70 295.00,90.19 295.75,89.68 296.50,89.17 297.26,88.66 298.01,88.15 298.76,87.65 299.51,87.14 300.26,86.64 301.01,86.14 301.76,85.64 302.51,85.15 303.26,84.65 304.01,84.16 304.76,83.67 305.51,83.18 306.26,82.69 307.01,82.20 307.77,81.72 308.52,81.24 309.27,80.76 310.02,80.28 310.77,79.80 311.52,79.33 312.27,78.85 313.02,78.38 313.77,77.91 314.52,77.44 315.27,76.98 316.02,76.52 316.77,76.05 317.52,75.59 318.28,75.14 319.03,74.68 319.78,74.23 320.53,73.78 321.28,73.33 322.03,72.88 322.78,72.43 323.53,71.99 324.28,71.55 325.03,71.11 325.78,70.67 326.53,70.24 327.28,69.80 328.04,69.37 328.79,68.94 329.54,68.52 330.29,68.09 331.04,67.67 331.79,67.25 332.54,66.84 333.29,66.42 334.04,66.01 334.79,65.60 335.54,65.19 336.29,64.78 337.04,64.38 337.79,63.98 338.55,63.58 339.30,63.18 340.05,62.79 340.80,62.39 341.55,62.00 342.30,61.62 343.05,61.23 343.80,60.85 344.55,60.47 345.30,60.09 346.05,59.72 346.80,59.34 347.55,58.97 348.30,58.61 349.06,58.24 349.81,57.88 350.56,57.52 351.31,57.16 352.06,56.80 352.81,56.45 353.56,56.10 354.31,55.75 355.06,55.41 355.81,55.07 356.56,54.73 357.31,54.39 358.06,54.05 358.82,53.72 359.57,53.39 360.32,53.06 361.07,52.74 361.82,52.42 362.57,52.10 363.32,51.78 364.07,51.47 364.82,51.16 365.57,50.85 366.32,50.54 367.07,50.24 367.82,49.94 368.57,49.64 369.33,49.35 370.08,49.05 370.83,48.77 371.58,48.48 372.33,48.19 373.08,47.91 373.83,47.63 374.58,47.36 375.33,47.09 376.08,46.82 376.83,46.55 377.58,46.28 378.33,46.02 379.09,45.76 379.84,45.51 380.59,45.25 381.34,45.00 382.09,44.76 382.84,44.51 383.59,44.27 384.34,44.03 385.09,43.79 385.84,43.56 386.59,43.33 387.34,43.10 388.09,42.88 388.84,42.65 389.60,42.44 390.35,42.22 391.10,42.01 391.85,41.80 392.60,41.59 393.35,41.38 394.10,41.18 394.85,40.98 395.60,40.79 396.35,40.59 397.10,40.40 397.85,40.22 398.60,40.03 399.35,39.85 400.11,39.67 400.86,39.50 401.61,39.32 402.36,39.16 403.11,38.99 403.86,38.83 404.61,38.66 405.36,38.51 406.11,38.35 406.86,38.20 407.61,38.05 408.36,37.91 409.11,37.76 409.87,37.62 410.62,37.49 411.37,37.35 412.12,37.22 412.87,37.09 413.62,36.97 414.37,36.85 415.12,36.73 415.87,36.61 416.62,36.50 417.37,36.39 418.12,36.28 418.87,36.18 419.62,36.07 420.38,36.02 421.13,36.12 421.88,36.23 422.63,36.33 423.38,36.44 424.13,36.55 424.88,36.67 425.63,36.79 426.38,36.91 427.13,37.03 427.88,37.16 428.63,37.29 429.38,37.42 430.13,37.55 430.89,37.69 431.64,37.83 432.39,37.98 433.14,38.13 433.89,38.28 434.64,38.43 435.39,38.59 436.14,38.74 436.89,38.91 437.64,39.07 438.39,39.24 439.14,39.41 439.89,39.58 440.65,39.76 441.40,39.94 442.15,40.12 442.90,40.31 443.65,40.50 444.40,40.69 445.15,40.88 445.90,41.08 446.65,41.28 447.40,41.49 448.15,41.69 448.90,41.90 449.65,42.11 450.40,42.33 451.16,42.54 451.91,42.77 452.66,42.99 453.41,43.21 454.16,43.44 454.91,43.68 455.66,43.91 456.41,44.15 457.16,44.39 457.91,44.63 458.66,44.88 459.41,45.13 460.16,45.38 460.91,45.63 461.67,45.89 462.42,46.15 463.17,46.42 463.92,46.68 464.67,46.95 465.42,47.22 466.17,47.50 466.92,47.77 467.67,48.05 468.42,48.34 469.17,48.62 469.92,48.91 470.67,49.20 471.43,49.49 472.18,49.79 472.93,50.09 473.68,50.39 474.43,50.70 475.18,51.00 475.93,51.31 476.68,51.63 477.43,51.94 478.18,52.26 478.93,52.58 479.68,52.90 480.43,53.23 481.18,53.56 481.94,53.89 482.69,54.22 483.44,54.56 484.19,54.90 484.94,55.24 485.69,55.58 486.44,55.93 487.19,56.28 487.94,56.63 488.69,56.98 489.44,57.34 490.19,57.70 490.94,58.06 491.70,58.42 492.45,58.79 493.20,59.16 493.95,59.53 494.70,59.90 495.45,60.28 496.20,60.66 496.95,61.04 497.70,61.42 498.45,61.81 499.20,62.20 499.95,62.59 500.70,62.98 501.45,63.38 502.21,63.78 502.96,64.18 503.71,64.58 504.46,64.98 505.21,65.39 505.96,65.80 506.71,66.21 507.46,66.63 508.21,67.04 508.96,67.46 509.71,67.88 510.46,68.31 511.21,68.73 511.96,69.16 512.72,69.59 513.47,70.02 514.22,70.45 514.97,70.89 515.72,71.33 516.47,71.77 517.22,72.21 517.97,72.65 518.72,73.10 519.47,73.55 520.22,74.00 520.97,74.45 521.72,74.91 522.48,75.36 523.23,75.82 523.98,76.28 524.73,76.75 525.48,77.21 526.23,77.68 526.98,78.15 527.73,78.62 528.48,79.09 529.23,79.56 529.98,80.04 530.73,80.52 531.48,81.00 532.23,81.48 532.99,81.96 533.74,82.45 534.49,82.93 535.24,83.42 535.99,83.91 536.74,84.41 537.49,84.90 538.24,85.40 538.99,85.89 539.74,86.39 540.49,86.89 541.24,87.39 541.99,87.90 542.74,88.40 543.50,88.91 544.25,89.42 545.00,89.93 545.75,90.44 546.50,90.96 547.25,91.47 548.00,91.99 548.75,92.51 549.50,93.02 550.25,93.55 551.00,94.07 551.75,94.59 552.50,95.12 553.26,95.64 554.01,96.17 554.76,96.70 555.51,97.23 556.26,97.76 557.01,98.30 557.76,98.83 558.51,99.37 559.26,99.91 560.01,100.44 560.76,100.98 561.51,101.52 562.26,102.07 563.01,102.61 563.77,103.15 564.52,103.70 565.27,104.25 566.02,104.80 566.77,105.34 567.52,105.89 568.27,106.45 569.02,107.00 569.77,107.55 570.52,108.11 571.27,108.66 572.02,109.22 572.77,109.77 573.52,110.33 574.28,110.89 575.03,111.45 575.78,112.01 576.53,112.57 577.28,113.14 578.03,113.70 578.78,114.26 579.53,114.83 580.28,115.39 581.03,115.96 581.78,116.53 582.53,117.10 583.28,117.67 584.04,118.24 584.79,118.81 585.54,119.38 586.29,119.95 587.04,120.52 587.79,121.09 588.54,121.67 589.29,122.24 590.04,122.81 590.79,123.39 591.54,123.97 592.29,124.54 593.04,125.12 593.79,125.69 594.55,126.27 595.30,126.85 596.05,127.43 596.80,128.01 597.55,128.59 598.30,129.17 599.05,129.75 599.80,130.33 600.55,130.91 601.30,131.49 602.05,132.07 602.80,132.65 603.55,133.23 604.30,133.81 605.06,134.39 605.81,134.98 606.56,135.56 607.31,136.14 608.06,136.72 608.81,137.30 609.56,137.89 610.31,138.47 611.06,139.05 611.81,139.64 612.56,140.22 613.31,140.80 614.06,141.38 614.82,141.97 615.57,142.55 616.32,143.13 617.07,143.71 617.82,144.30 618.57,144.88 619.32,145.46 620.07,146.04 620.82,146.62 621.57,147.21 622.32,147.79 623.07,148.37 623.82,148.95 624.57,149.53 625.33,150.11 626.08,150.69 626.83,151.27 627.58,151.85 628.33,152.43 629.08,153.01 629.83,153.58 630.58,154.16 631.33,154.74 632.08,155.31 632.83,155.89 633.58,156.47 634.33,157.04 635.09,157.62 635.84,158.19 636.59,158.76 637.34,159.34 638.09,159.91 638.84,160.48 639.59,161.05 640.34,161.62 641.09,162.19 641.84,162.76 642.59,163.33 643.34,163.90 644.09,164.46 644.84,165.03 645.60,165.60 646.35,166.16 647.10,166.72 647.85,167.29 648.60,167.85 649.35,168.41 650.10,168.97 650.85,169.53 651.60,170.09 652.35,170.64 653.10,171.20 653.85,171.76 654.60,172.31 655.35,172.86 656.11,173.42 656.86,173.97 657.61,174.52 658.36,175.07 659.11,175.62 659.86,176.16 660.61,176.71 661.36,177.25 662.11,177.80 662.86,178.34 663.61,178.88 664.36,179.42 665.11,179.96 665.87,180.50 666.62,181.03 667.37,181.57 668.12,182.10 668.87,182.63 669.62,183.17 670.37,183.70 671.12,184.22 671.87,184.75 672.62,185.28 673.37,185.80 674.12,186.32 674.87,186.84 675.62,187.36 676.38,187.88 677.13,188.40 677.88,188.92 678.63,189.43 679.38,189.94 680.13,190.45 680.88,190.96 681.63,191.47 682.38,191.98 683.13,192.48 683.88,192.98 684.63,193.48 685.38,193.98 686.13,194.48 686.89,194.98 687.64,195.47 688.39,195.96 689.14,196.45 689.89,196.94 690.64,197.43 691.39,197.92 692.14,198.40 692.89,198.88 693.64,199.36 694.39,199.84 695.14,200.32 695.89,200.79 696.65,201.27 697.40,201.74 698.15,202.21 698.90,202.67 699.65,203.14 700.40,203.60 701.15,204.06 701.90,204.52 702.65,204.98 703.40,205.43 704.15,205.89 704.90,206.34 705.65,206.79 706.40,207.23 707.16,207.68 707.91,208.12 708.66,208.56 709.41,209.00 710.16,209.44 710.91,209.87 711.66,210.30 712.41,210.73 713.16,211.16 713.91,211.59 714.66,212.01 715.41,212.43 716.16,212.85 716.91,213.27 717.67,213.68 718.42,214.10 719.17,214.51 719.92,214.91 720.67,215.32 721.42,215.72 722.17,216.12 722.92,216.52 723.67,216.92 724.42,217.31 725.17,217.70 725.92,218.09 726.67,218.48 727.43,218.86 728.18,219.25 728.93,219.62 729.68,220.00 730.43,220.38 731.18,220.75 731.93,221.12 732.68,221.49 733.43,221.85 734.18,222.21 734.93,222.57 735.68,222.93 736.43,223.28 737.18,223.64 737.94,223.99 738.69,224.33 739.44,224.68 740.19,225.02 740.94,225.36 741.69,225.70 742.44,226.03 743.19,226.36 743.94,226.69 744.69,227.02 745.44,227.34 746.19,227.66 746.94,227.98 747.70,228.30 748.45,228.61 749.20,228.92 749.95,229.23 750.70,229.53 751.45,229.84 752.20,230.13 752.95,230.43 753.70,230.73 754.45,231.02 755.20,231.31 755.95,231.59 756.70,231.88 757.45,232.16 758.21,232.43 758.96,232.71 759.71,232.98 760.46,233.25 761.21,233.52 761.96,233.78 762.71,234.04 763.46,234.30 764.21,234.56 764.96,234.81 765.71,235.06 766.46,235.31 767.21,235.55 767.96,235.79 768.72,236.03 769.47,236.27 770.22,236.50 770.97,236.73 771.72,236.96 772.47,237.18 773.22,237.40 773.97,237.62 774.72,237.83 775.47,238.05 776.22,238.26 776.97,238.46 777.72,238.67 778.48,238.87 779.23,239.07 779.98,239.26 780.73,239.45 781.48,239.64 782.23,239.83 782.98,240.01 783.73,240.19 784.48,240.37 785.23,240.55 785.98,240.72 786.73,240.89 787.48,241.05 788.23,241.22 788.99,241.38 789.74,241.53 790.49,241.69 791.24,241.84 791.99,241.99 792.74,242.13 793.49,242.27 794.24,242.41 794.99,242.55 795.74,242.68 796.49,242.81 797.24,242.94 797.99,243.06 798.74,243.18 799.50,243.30 800.25,243.42 801.00,243.53 801.75,243.64 802.50,243.75 803.25,243.85 804.00,244.00" />
  <text x="420.0" y="22" text-anchor="middle" font-family="Arial, Helvetica, sans-serif" font-size="15" fill="#102a43">bartlett_hann window (time domain)</text>
  <text x="420.0" y="272" text-anchor="middle" font-family="Arial, Helvetica, sans-serif" font-size="12" fill="#334e68">normalized sample index</text>
  <text x="14" y="140.0" transform="rotate(-90 14,140.0)" text-anchor="middle" font-family="Arial, Helvetica, sans-serif" font-size="12" fill="#334e68">amplitude</text>
  <text x="36" y="262" font-family="Arial, Helvetica, sans-serif" font-size="11" fill="#486581">0</text>
  <text x="804" y="262" text-anchor="end" font-family="Arial, Helvetica, sans-serif" font-size="11" fill="#486581">1</text>
  <text x="30" y="40" text-anchor="end" font-family="Arial, Helvetica, sans-serif" font-size="11" fill="#486581">1.0</text>
  <text x="30" y="248" text-anchor="end" font-family="Arial, Helvetica, sans-serif" font-size="11" fill="#486581">0.0</text>
</svg>
