<svg xmlns="http://www.w3.org/2000/svg" width="840" height="280" viewBox="0 0 840 280">
  <rect x="0" y="0" width="840" height="280" fill="#ffffff" />
  <rect x="36" y="36" width="768" height="208" fill="#f7fbff" stroke="#c8d9e6" />
  <polyline fill="none" stroke="#005f73" stroke-width="2" points="36.00,36.00 36.75,46.19 37.50,244.00 38.25,71.00 39.00,244.00 39.75,82.53 40.50,244.00 41.26,90.13 42.01,244.00 42.76,95.81 43.51,244.00 44.26,100.34 45.01,244.00 45.76,104.11 46.51,244.00 47.26,107.34 48.01,244.00 48.76,110.19 49.51,218.59 50.26,112.70 51.01,213.19 51.77,114.96 52.52,210.78 53.27,117.01 54.02,209.50 54.77,118.89 55.52,208.79 56.27,120.63 57.02,208.40 57.77,122.24 58.52,208.22 59.27,123.75 60.02,244.00 60.77,125.18 61.52,225.04 62.28,126.50 63.03,218.59 63.78,127.75 64.53,215.26 65.28,128.94 66.03,213.18 66.78,130.07 67.53,211.77 68.28,131.14 69.03,210.77 69.78,132.17 70.53,210.03 71.28,133.15 72.04,244.00 72.79,134.11 73.54,229.08 74.29,135.01 75.04,222.27 75.79,135.88 76.54,218.58 77.29,136.71 78.04,216.17 78.79,137.51 79.54,214.46 80.29,138.29 81.04,213.17 81.79,139.04 82.55,212.17 83.30,139.77 84.05,244.00 84.80,140.50 85.55,232.01 86.30,141.18 87.05,225.02 87.80,141.84 88.55,221.16 89.30,142.48 90.05,218.57 90.80,143.11 91.55,216.68 92.30,143.72 93.06,215.23 93.81,144.31 94.56,214.09 95.31,144.88 96.06,244.00 96.81,145.48 97.56,234.29 98.31,146.02 99.06,227.22 99.81,146.56 100.56,223.24 101.31,147.08 102.06,220.55 102.82,147.59 103.57,218.55 104.32,148.09 105.07,217.00 105.82,148.58 106.57,215.75 107.32,149.06 108.07,244.00 108.82,149.56 109.57,236.16 110.32,150.02 111.07,229.04 111.82,150.47 112.57,225.00 113.33,150.90 114.08,222.22 114.83,151.34 115.58,220.16 116.33,151.76 117.08,218.53 117.83,152.17 118.58,217.22 119.33,152.58 120.08,244.00 120.83,153.02 121.58,237.74 122.33,153.42 123.09,230.60 123.84,153.80 124.59,226.50 125.34,154.18 126.09,223.68 126.84,154.55 127.59,221.56 128.34,154.92 129.09,219.88 129.84,155.28 130.59,218.51 131.34,155.63 132.09,244.00 132.84,156.03 133.60,239.10 134.35,156.37 135.10,231.95 135.85,156.71 136.60,227.82 137.35,157.04 138.10,224.96 138.85,157.37 139.60,222.79 140.35,157.69 141.10,221.08 141.85,158.01 142.60,219.67 143.35,158.32 144.11,244.00 144.86,158.69 145.61,240.28 146.36,159.00 147.11,233.14 147.86,159.29 148.61,228.98 149.36,159.59 150.11,226.09 150.86,159.88 151.61,223.90 152.36,160.17 153.11,222.16 153.87,160.46 154.62,220.72 155.37,160.74 156.12,244.00 156.87,161.08 157.62,241.34 158.37,161.35 159.12,234.20 159.87,161.62 160.62,230.03 161.37,161.89 162.12,227.12 162.87,162.15 163.62,224.90 164.38,162.41 165.13,223.13 165.88,162.67 166.63,221.67 167.38,162.92 168.13,244.00 168.88,163.24 169.63,242.28 170.38,163.49 171.13,235.16 171.88,163.73 172.63,230.98 173.38,163.98 174.13,228.05 174.89,164.21 175.64,225.81 176.39,164.45 177.14,224.02 177.89,164.68 178.64,222.54 179.39,164.92 180.14,244.00 180.89,165.22 181.64,243.14 182.39,165.45 183.14,236.03 183.89,165.67 184.65,231.84 185.40,165.89 186.15,228.90 186.90,166.11 187.65,226.65 188.40,166.33 189.15,224.84 189.90,166.54 190.65,223.34 191.40,166.76 192.15,244.00 192.90,167.05 193.65,243.91 194.40,167.26 195.16,236.83 195.91,167.47 196.66,232.63 197.41,167.67 198.16,229.68 198.91,167.87 199.66,227.42 200.41,168.07 201.16,225.60 201.91,168.27 202.66,224.08 203.41,168.46 204.16,244.00 204.91,168.75 205.67,244.00 206.42,168.94 207.17,237.56 207.92,169.13 208.67,233.37 209.42,169.32 210.17,230.40 210.92,169.51 211.67,228.13 212.42,169.69 213.17,226.30 213.92,169.88 214.67,224.77 215.43,170.06 216.18,244.00 216.93,170.34 217.68,244.00 218.43,170.52 219.18,238.23 219.93,170.69 220.68,234.04 221.43,170.87 222.18,231.07 222.93,171.04 223.68,228.79 224.43,171.21 225.18,226.95 225.94,171.39 226.69,225.41 227.44,171.55 228.19,244.00 228.94,171.83 229.69,244.00 230.44,172.00 231.19,238.86 231.94,172.16 232.69,234.67 233.44,172.32 234.19,231.70 234.94,172.49 235.70,229.41 236.45,172.65 237.20,227.55 237.95,172.81 238.70,226.00 239.45,172.96 240.20,244.00 240.95,173.24 241.70,244.00 242.45,173.39 243.20,239.44 243.95,173.55 244.70,235.26 245.45,173.70 246.21,232.28 246.96,173.85 247.71,229.98 248.46,174.00 249.21,228.12 249.96,174.15 250.71,226.57 251.46,174.30 252.21,244.00 252.96,174.57 253.71,244.00 254.46,174.71 255.21,239.99 255.96,174.86 256.72,235.80 257.47,175.00 258.22,232.83 258.97,175.14 259.72,230.52 260.47,175.29 261.22,228.66 261.97,175.43 262.72,227.09 263.47,175.57 264.22,244.00 264.97,175.84 265.72,244.00 266.48,175.97 267.23,240.50 267.98,176.11 268.73,236.32 269.48,176.24 270.23,233.34 270.98,176.38 271.73,231.03 272.48,176.51 273.23,229.16 273.98,176.64 274.73,227.59 275.48,176.77 276.23,244.00 276.99,177.04 277.74,244.00 278.49,177.17 279.24,240.98 279.99,177.30 280.74,236.80 281.49,177.43 282.24,233.82 282.99,177.55 283.74,231.51 284.49,177.68 285.24,229.63 285.99,177.80 286.74,228.06 287.50,177.93 288.25,244.00 289.00,178.20 289.75,244.00 290.50,178.32 291.25,241.42 292.00,178.44 292.75,237.25 293.50,178.56 294.25,234.27 295.00,178.68 295.75,231.96 296.50,178.80 297.26,230.08 298.01,178.92 298.76,228.50 299.51,179.03 300.26,244.00 301.01,179.31 301.76,244.00 302.51,179.42 303.26,241.85 304.01,179.54 304.76,237.68 305.51,179.65 306.26,234.70 307.01,179.76 307.77,232.39 308.52,179.88 309.27,230.50 310.02,179.99 310.77,228.92 311.52,180.10 312.27,244.00 313.02,180.38 313.77,244.00 314.52,180.49 315.27,242.24 316.02,180.59 316.77,238.09 317.52,180.70 318.28,235.11 319.03,180.81 319.78,232.79 320.53,180.91 321.28,230.90 322.03,181.02 322.78,229.31 323.53,181.12 324.28,244.00 325.03,181.41 325.78,244.00 326.53,181.51 327.28,242.62 328.04,181.61 328.79,238.47 329.54,181.71 330.29,235.49 331.04,181.81 331.79,233.17 332.54,181.92 333.29,231.28 334.04,182.02 334.79,229.69 335.54,182.12 336.29,244.00 337.04,182.40 337.79,244.00 338.55,182.50 339.30,242.97 340.05,182.60 340.80,238.83 341.55,182.69 342.30,235.85 343.05,182.79 343.80,233.53 344.55,182.88 345.30,231.64 346.05,182.98 346.80,230.04 347.55,183.07 348.30,244.00 349.06,183.37 349.81,244.00 350.56,183.46 351.31,243.30 352.06,183.55 352.81,239.17 353.56,183.64 354.31,236.19 355.06,183.73 355.81,233.87 356.56,183.83 357.31,231.98 358.06,183.92 358.82,230.38 359.57,184.01 360.32,244.00 361.07,184.30 361.82,244.00 362.57,184.39 363.32,243.62 364.07,184.48 364.82,239.49 365.57,184.57 366.32,236.52 367.07,184.65 367.82,234.20 368.57,184.74 369.33,232.30 370.08,184.83 370.83,230.70 371.58,184.91 372.33,244.00 373.08,185.21 373.83,244.00 374.58,185.30 375.33,243.92 376.08,185.38 376.83,239.80 377.58,185.47 378.33,236.82 379.09,185.55 379.84,234.51 380.59,185.63 381.34,232.61 382.09,185.71 382.84,231.00 383.59,185.79 384.34,244.00 385.09,186.10 385.84,244.00 386.59,186.18 387.34,244.00 388.09,186.26 388.84,240.09 389.60,186.34 390.35,237.12 391.10,186.42 391.85,234.80 392.60,186.50 393.35,232.90 394.10,186.58 394.85,231.29 395.60,186.66 396.35,244.00 397.10,186.97 397.85,244.00 398.60,187.05 399.35,244.00 400.11,187.13 400.86,240.36 401.61,187.20 402.36,237.39 403.11,187.28 403.86,235.07 404.61,187.35 405.36,233.17 406.11,187.43 406.86,231.57 407.61,187.50 408.36,244.00 409.11,187.83 409.87,244.00 410.62,187.90 411.37,244.00 412.12,187.97 412.87,240.62 413.62,188.04 414.37,237.66 415.12,188.11 415.87,235.34 416.62,188.18 417.37,233.44 418.12,188.26 418.87,231.83 419.62,188.33 420.38,244.00 421.13,188.66 421.88,244.00 422.63,188.73 423.38,244.00 424.13,188.80 424.88,240.87 425.63,188.87 426.38,237.91 427.13,188.94 427.88,235.59 428.63,189.00 429.38,233.69 430.13,189.07 430.89,232.08 431.64,189.14 432.39,244.00 433.14,189.49 433.89,244.00 434.64,189.55 435.39,244.00 436.14,189.62 436.89,241.10 437.64,189.68 438.39,238.14 439.14,189.75 439.89,235.82 440.65,189.81 441.40,233.92 442.15,189.88 442.90,232.31 443.65,189.94 444.40,244.00 445.15,190.30 445.90,244.00 446.65,190.36 447.40,244.00 448.15,190.42 448.90,241.32 449.65,190.48 450.40,238.37 451.16,190.55 451.91,236.05 452.66,190.61 453.41,234.15 454.16,190.67 454.91,232.54 455.66,190.73 456.41,244.00 457.16,191.10 457.91,244.00 458.66,191.16 459.41,244.00 460.16,191.22 460.91,241.53 461.67,191.28 462.42,238.58 463.17,191.34 463.92,236.26 464.67,191.39 465.42,234.36 466.17,191.45 466.92,232.75 467.67,191.51 468.42,244.00 469.17,191.89 469.92,244.00 470.67,191.95 471.43,244.00 472.18,192.01 472.93,241.73 473.68,192.06 474.43,238.78 475.18,192.12 475.93,236.46 476.68,192.17 477.43,234.56 478.18,192.23 478.93,232.95 479.68,192.28 480.43,244.00 481.18,192.68 481.94,244.00 482.69,192.74 483.44,244.00 484.19,192.79 484.94,241.91 485.69,192.84 486.44,238.97 487.19,192.90 487.94,236.65 488.69,192.95 489.44,234.75 490.19,193.00 490.94,233.14 491.70,193.05 492.45,244.00 493.20,193.47 493.95,244.00 494.70,193.52 495.45,244.00 496.20,193.57 496.95,242.09 497.70,193.62 498.45,239.15 499.20,193.67 499.95,236.84 500.70,193.72 501.45,234.93 502.21,193.77 502.96,233.32 503.71,193.82 504.46,244.00 505.21,194.25 505.96,244.00 506.71,194.30 507.46,244.00 508.21,194.35 508.96,242.25 509.71,194.39 510.46,239.32 511.21,194.44 511.96,237.01 512.72,194.49 513.47,235.10 514.22,194.54 514.97,233.49 515.72,194.58 516.47,244.00 517.22,195.03 517.97,244.00 518.72,195.08 519.47,244.00 520.22,195.12 520.97,242.41 521.72,195.17 522.48,239.48 523.23,195.21 523.98,237.17 524.73,195.26 525.48,235.26 526.23,195.30 526.98,233.65 527.73,195.35 528.48,244.00 529.23,195.82 529.98,244.00 530.73,195.86 531.48,244.00 532.23,195.90 532.99,242.56 533.74,195.95 534.49,239.63 535.24,195.99 535.99,237.32 536.74,196.03 537.49,235.42 538.24,196.07 538.99,233.80 539.74,196.12 540.49,244.00 541.24,196.61 541.99,244.00 542.74,196.65 543.50,244.00 544.25,196.69 545.00,242.69 545.75,196.73 546.50,239.77 547.25,196.77 548.00,237.46 548.75,196.81 549.50,235.56 550.25,196.85 551.00,233.94 551.75,196.89 552.50,244.00 553.26,197.40 554.01,244.00 554.76,197.44 555.51,244.00 556.26,197.48 557.01,242.82 557.76,197.52 558.51,239.90 559.26,197.56 560.01,237.59 560.76,197.60 561.51,235.69 562.26,197.63 563.01,234.07 563.77,197.67 564.52,244.00 565.27,198.21 566.02,244.00 566.77,198.25 567.52,244.00 568.27,198.28 569.02,242.94 569.77,198.32 570.52,240.02 571.27,198.36 572.02,237.72 572.77,198.39 573.52,235.82 574.28,198.43 575.03,234.20 575.78,198.46 576.53,244.00 577.28,199.03 578.03,244.00 578.78,199.07 579.53,244.00 580.28,199.10 581.03,243.05 581.78,199.13 582.53,240.14 583.28,199.17 584.04,237.83 584.79,199.20 585.54,235.93 586.29,199.24 587.04,234.32 587.79,199.27 588.54,244.00 589.29,199.87 590.04,244.00 590.79,199.90 591.54,244.00 592.29,199.93 593.04,243.15 593.79,199.96 594.55,240.24 595.30,200.00 596.05,237.94 596.80,200.03 597.55,236.04 598.30,200.06 599.05,234.42 599.80,200.09 600.55,244.00 601.30,200.72 602.05,244.00 602.80,200.76 603.55,244.00 604.30,200.79 605.06,243.25 605.81,200.82 606.56,240.34 607.31,200.85 608.06,238.04 608.81,200.88 609.56,236.14 610.31,200.91 611.06,234.52 611.81,200.94 612.56,244.00 613.31,201.61 614.06,244.00 614.82,201.64 615.57,244.00 616.32,201.66 617.07,243.33 617.82,201.69 618.57,240.43 619.32,201.72 620.07,238.13 620.82,201.75 621.57,236.23 622.32,201.78 623.07,234.62 623.82,201.80 624.57,244.00 625.33,202.52 626.08,244.00 626.83,202.55 627.58,244.00 628.33,202.57 629.08,243.41 629.83,202.60 630.58,240.51 631.33,202.63 632.08,238.22 632.83,202.65 633.58,236.32 634.33,202.68 635.09,234.70 635.84,202.70 636.59,244.00 637.34,203.47 638.09,244.00 638.84,203.50 639.59,244.00 640.34,203.52 641.09,243.48 641.84,203.55 642.59,240.59 643.34,203.57 644.09,238.29 644.84,203.59 645.60,236.40 646.35,203.62 647.10,234.78 647.85,203.64 648.60,244.00 649.35,204.47 650.10,244.00 650.85,204.49 651.60,244.00 652.35,204.51 653.10,243.55 653.85,204.53 654.60,240.65 655.35,204.56 656.11,238.36 656.86,204.58 657.61,236.47 658.36,204.60 659.11,234.85 659.86,204.62 660.61,244.00 661.36,205.52 662.11,244.00 662.86,205.54 663.61,244.00 664.36,205.56 665.11,243.60 665.87,205.58 666.62,240.71 667.37,205.60 668.12,238.42 668.87,205.62 669.62,236.53 670.37,205.64 671.12,234.91 671.87,205.66 672.62,244.00 673.37,206.63 674.12,244.00 674.87,206.65 675.62,244.00 676.38,206.67 677.13,243.65 677.88,206.69 678.63,240.77 679.38,206.71 680.13,238.48 680.88,206.73 681.63,236.58 682.38,206.74 683.13,234.97 683.88,206.76 684.63,244.00 685.38,207.83 686.13,244.00 686.89,207.85 687.64,244.00 688.39,207.86 689.14,243.69 689.89,207.88 690.64,240.81 691.39,207.90 692.14,238.53 692.89,207.91 693.64,236.63 694.39,207.93 695.14,235.01 695.89,207.95 696.65,244.00 697.40,209.13 698.15,244.00 698.90,209.14 699.65,244.00 700.40,209.16 701.15,243.72 701.90,209.17 702.65,240.85 703.40,209.19 704.15,238.57 704.90,209.20 705.65,236.67 706.40,209.22 707.16,235.05 707.91,209.23 708.66,244.00 709.41,210.55 710.16,244.00 710.91,210.57 711.66,244.00 712.41,210.58 713.16,243.75 713.91,210.59 714.66,240.88 715.41,210.61 716.16,238.60 716.91,210.62 717.67,236.71 718.42,210.63 719.17,235.09 719.92,210.65 720.67,244.00 721.42,212.15 722.17,244.00 722.92,212.16 723.67,244.00 724.42,212.17 725.17,243.77 725.92,212.18 726.67,240.91 727.43,212.19 728.18,238.63 728.93,212.20 729.68,236.73 730.43,212.22 731.18,235.11 731.93,212.23 732.68,244.00 733.43,213.96 734.18,244.00 734.93,213.97 735.68,244.00 736.43,213.98 737.18,243.78 737.94,213.99 738.69,240.92 739.44,214.00 740.19,238.64 740.94,214.01 741.69,236.75 742.44,214.02 743.19,235.13 743.94,214.03 744.69,244.00 745.44,216.08 746.19,244.00 746.94,216.09 747.70,244.00 748.45,216.10 749.20,243.79 749.95,216.10 750.70,240.93 751.45,216.11 752.20,238.66 752.95,216.12 753.70,236.76 754.45,216.13 755.20,235.15 755.95,216.14 756.70,244.00 757.45,218.65 758.21,244.00 758.96,218.65 759.71,244.00 760.46,218.66 761.21,243.79 761.96,218.67 762.71,240.94 763.46,218.67 764.21,238.66 764.96,218.68 765.71,236.77 766.46,218.69 767.21,235.15 767.96,218.69 768.72,244.00 769.47,221.93 770.22,244.00 770.97,221.94 771.72,244.00 772.47,221.94 773.22,243.78 773.97,221.95 774.72,240.93 775.47,221.95 776.22,238.66 776.97,221.96 777.72,236.77 778.48,221.96 779.23,235.15 779.98,221.97 780.73,244.00 781.48,226.54 782.23,244.00 782.98,226.54 783.73,244.00 784.48,226.55 785.23,243.77 785.98,226.55 786.73,240.92 787.48,226.55 788.23,238.65 788.99,226.56 789.74,236.76 790.49,226.56 791.24,235.15 791.99,226.56 792.74,244.00 793.49,234.38 794.24,244.00 794.99,234.38 795.74,244.00 796.49,234.39 797.24,243.75 797.99,234.39 798.74,240.91 799.50,234.39 800.25,238.64 801.00,234.39 801.75,236.75 802.50,234.39 803.25,235.13 804.00,244.00" />
  <text x="420.0" y="22" text-anchor="middle" font-family="Arial, Helvetica, sans-serif" font-size="15" fill="#102a43">bartlett window (magnitude spectrum)</text>
  <text x="420.0" y="272" text-anchor="middle" font-family="Arial, Helvetica, sans-serif" font-size="12" fill="#334e68">normalized frequency</text>
  <text x="14" y="140.0" transform="rotate(-90 14,140.0)" text-anchor="middle" font-family="Arial, Helvetica, sans-serif" font-size="12" fill="#334e68">magnitude (dB)</text>
  <text x="36" y="262" font-family="Arial, Helvetica, sans-serif" font-size="11" fill="#486581">0</text>
  <text x="804" y="262" text-anchor="end" font-family="Arial, Helvetica, sans-serif" font-size="11" fill="#486581">1</text>
  <text x="30" y="40" text-anchor="end" font-family="Arial, Helvetica, sans-serif" font-size="11" fill="#486581">0.0</text>
  <text x="30" y="248" text-anchor="end" font-family="Arial, Helvetica, sans-serif" font-size="11" fill="#486581">-160.0</text>
</svg>
