<svg xmlns="http://www.w3.org/2000/svg" width="840" height="280" viewBox="0 0 840 280">
  <rect x="0" y="0" width="840" height="280" fill="#ffffff" />
  <rect x="36" y="36" width="768" height="208" fill="#f7fbff" stroke="#c8d9e6" />
  <polyline fill="none" stroke="#005f73" stroke-width="2" points="36.00,36.00 36.75,44.34 37.50,137.58 38.25,87.16 39.00,155.75 39.75,98.69 40.50,165.32 41.26,106.29 42.01,171.96 42.76,111.97 43.51,177.06 44.26,116.50 45.01,181.22 45.76,120.27 46.51,184.72 47.26,123.50 48.01,187.79 48.76,126.27 49.51,193.01 50.26,128.79 51.01,197.89 51.77,131.05 52.52,202.52 53.27,133.11 54.02,206.97 54.77,135.00 55.52,211.32 56.27,136.74 57.02,215.61 57.77,138.35 58.52,219.92 59.27,139.86 60.02,203.48 60.77,141.25 61.52,205.76 62.28,142.58 63.03,207.88 63.78,143.84 64.53,209.83 65.28,145.03 66.03,211.64 66.78,146.16 67.53,213.30 68.28,147.24 69.03,214.82 69.78,148.26 70.53,216.22 71.28,149.25 72.04,212.64 72.79,150.18 73.54,213.79 74.29,151.09 75.04,214.84 75.79,151.96 76.54,215.80 77.29,152.79 78.04,216.67 78.79,153.60 79.54,217.46 80.29,154.38 81.04,218.17 81.79,155.13 82.55,218.82 83.30,155.86 84.05,219.13 84.80,156.57 85.55,219.61 86.30,157.25 87.05,220.04 87.80,157.92 88.55,220.42 89.30,158.56 90.05,220.76 90.80,159.19 91.55,221.06 92.30,159.80 93.06,221.33 93.81,160.39 94.56,221.57 95.31,160.97 96.06,224.16 96.81,161.55 97.56,224.17 98.31,162.10 99.06,224.16 99.81,162.64 100.56,224.14 101.31,163.16 102.06,224.11 102.82,163.67 103.57,224.08 104.32,164.17 105.07,224.05 105.82,164.66 106.57,224.02 107.32,165.14 108.07,228.28 108.82,165.63 109.57,227.89 110.32,166.09 111.07,227.54 111.82,166.54 112.57,227.21 113.33,166.98 114.08,226.92 114.83,167.41 115.58,226.65 116.33,167.84 117.08,226.40 117.83,168.25 118.58,226.18 119.33,168.66 120.08,231.75 120.83,169.10 121.58,231.03 122.33,169.49 123.09,230.39 123.84,169.88 124.59,229.83 125.34,170.26 126.09,229.32 126.84,170.63 127.59,228.86 128.34,171.00 129.09,228.44 129.84,171.36 130.59,228.07 131.34,171.71 132.09,234.76 132.84,172.10 133.60,233.74 134.35,172.45 135.10,232.86 135.85,172.79 136.60,232.09 137.35,173.12 138.10,231.40 138.85,173.45 139.60,230.79 140.35,173.77 141.10,230.23 141.85,174.09 142.60,229.74 143.35,174.41 144.11,237.41 144.86,174.76 145.61,236.12 146.36,175.07 147.11,235.02 147.86,175.37 148.61,234.07 149.36,175.67 150.11,233.23 150.86,175.96 151.61,232.49 152.36,176.25 153.11,231.83 153.87,176.53 154.62,231.23 155.37,176.82 156.12,239.77 156.87,177.15 157.62,238.24 158.37,177.42 159.12,236.94 159.87,177.69 160.62,235.83 161.37,177.96 162.12,234.86 162.87,178.23 163.62,234.01 164.38,178.49 165.13,233.25 165.88,178.74 166.63,232.57 167.38,179.00 168.13,241.91 168.88,179.31 169.63,240.14 170.38,179.56 171.13,238.66 171.88,179.81 172.63,237.41 173.38,180.05 174.13,236.33 174.89,180.29 175.64,235.38 176.39,180.53 177.14,234.54 177.89,180.76 178.64,233.79 179.39,180.99 180.14,243.87 180.89,181.30 181.64,241.86 182.39,181.52 183.14,240.22 183.89,181.75 184.65,238.84 185.40,181.97 186.15,237.66 186.90,182.19 187.65,236.62 188.40,182.41 189.15,235.71 189.90,182.62 190.65,234.89 191.40,182.83 192.15,244.00 192.90,183.12 193.65,243.44 194.40,183.33 195.16,241.64 195.91,183.54 196.66,240.14 197.41,183.74 198.16,238.87 198.91,183.95 199.66,237.76 200.41,184.15 201.16,236.78 201.91,184.35 202.66,235.91 203.41,184.54 204.16,244.00 204.91,184.82 205.67,244.00 206.42,185.02 207.17,242.94 207.92,185.21 208.67,241.34 209.42,185.40 210.17,239.98 210.92,185.58 211.67,238.80 212.42,185.77 213.17,237.76 213.92,185.95 214.67,236.85 215.43,186.14 216.18,244.00 216.93,186.41 217.68,244.00 218.43,186.59 219.18,244.00 219.93,186.77 220.68,242.44 221.43,186.94 222.18,241.00 222.93,187.12 223.68,239.76 224.43,187.29 225.18,238.67 225.94,187.46 226.69,237.71 227.44,187.63 228.19,244.00 228.94,187.90 229.69,244.00 230.44,188.07 231.19,244.00 231.94,188.23 232.69,243.45 233.44,188.40 234.19,241.94 234.94,188.56 235.70,240.65 236.45,188.72 237.20,239.52 237.95,188.88 238.70,238.52 239.45,189.04 240.20,244.00 240.95,189.31 241.70,244.00 242.45,189.46 243.20,244.00 243.95,189.62 244.70,244.00 245.45,189.77 246.21,242.82 246.96,189.92 247.71,241.48 248.46,190.08 249.21,240.30 249.96,190.23 250.71,239.27 251.46,190.37 252.21,244.00 252.96,190.64 253.71,244.00 254.46,190.79 255.21,244.00 255.96,190.93 256.72,244.00 257.47,191.08 258.22,243.64 258.97,191.22 259.72,242.25 260.47,191.36 261.22,241.04 261.97,191.50 262.72,239.97 263.47,191.64 264.22,244.00 264.97,191.91 265.72,244.00 266.48,192.05 267.23,244.00 267.98,192.18 268.73,244.00 269.48,192.32 270.23,244.00 270.98,192.45 271.73,242.97 272.48,192.58 273.23,241.72 273.98,192.72 274.73,240.63 275.48,192.85 276.23,244.00 276.99,193.12 277.74,244.00 278.49,193.25 279.24,244.00 279.99,193.37 280.74,244.00 281.49,193.50 282.24,244.00 282.99,193.63 283.74,243.65 284.49,193.75 285.24,242.37 285.99,193.88 286.74,241.24 287.50,194.00 288.25,244.00 289.00,194.27 289.75,244.00 290.50,194.39 291.25,244.00 292.00,194.52 292.75,244.00 293.50,194.64 294.25,244.00 295.00,194.76 295.75,244.00 296.50,194.87 297.26,242.98 298.01,194.99 298.76,241.83 299.51,195.11 300.26,244.00 301.01,195.38 301.76,244.00 302.51,195.50 303.26,244.00 304.01,195.61 304.76,244.00 305.51,195.73 306.26,244.00 307.01,195.84 307.77,244.00 308.52,195.95 309.27,243.55 310.02,196.06 310.77,242.37 311.52,196.17 312.27,244.00 313.02,196.45 313.77,244.00 314.52,196.56 315.27,244.00 316.02,196.67 316.77,244.00 317.52,196.77 318.28,244.00 319.03,196.88 319.78,244.00 320.53,196.99 321.28,244.00 322.03,197.09 322.78,242.89 323.53,197.20 324.28,244.00 325.03,197.48 325.78,244.00 326.53,197.58 327.28,244.00 328.04,197.68 328.79,244.00 329.54,197.79 330.29,244.00 331.04,197.89 331.79,244.00 332.54,197.99 333.29,244.00 334.04,198.09 334.79,243.38 335.54,198.19 336.29,244.00 337.04,198.47 337.79,244.00 338.55,198.57 339.30,244.00 340.05,198.67 340.80,244.00 341.55,198.77 342.30,244.00 343.05,198.86 343.80,244.00 344.55,198.96 345.30,244.00 346.05,199.05 346.80,243.85 347.55,199.15 348.30,244.00 349.06,199.44 349.81,244.00 350.56,199.53 351.31,244.00 352.06,199.62 352.81,244.00 353.56,199.72 354.31,244.00 355.06,199.81 355.81,244.00 356.56,199.90 357.31,244.00 358.06,199.99 358.82,244.00 359.57,200.08 360.32,244.00 361.07,200.37 361.82,244.00 362.57,200.46 363.32,244.00 364.07,200.55 364.82,244.00 365.57,200.64 366.32,244.00 367.07,200.73 367.82,244.00 368.57,200.81 369.33,244.00 370.08,200.90 370.83,244.00 371.58,200.99 372.33,244.00 373.08,201.29 373.83,244.00 374.58,201.37 375.33,244.00 376.08,201.46 376.83,244.00 377.58,201.54 378.33,244.00 379.09,201.62 379.84,244.00 380.59,201.70 381.34,244.00 382.09,201.79 382.84,244.00 383.59,201.87 384.34,244.00 385.09,202.18 385.84,244.00 386.59,202.26 387.34,244.00 388.09,202.34 388.84,244.00 389.60,202.42 390.35,244.00 391.10,202.50 391.85,244.00 392.60,202.57 393.35,244.00 394.10,202.65 394.85,244.00 395.60,202.73 396.35,244.00 397.10,203.05 397.85,244.00 398.60,203.12 399.35,244.00 400.11,203.20 400.86,244.00 401.61,203.27 402.36,244.00 403.11,203.35 403.86,244.00 404.61,203.42 405.36,244.00 406.11,203.50 406.86,244.00 407.61,203.57 408.36,244.00 409.11,203.90 409.87,244.00 410.62,203.97 411.37,244.00 412.12,204.04 412.87,244.00 413.62,204.12 414.37,244.00 415.12,204.19 415.87,244.00 416.62,204.26 417.37,244.00 418.12,204.33 418.87,244.00 419.62,204.40 420.38,244.00 421.13,204.73 421.88,244.00 422.63,204.80 423.38,244.00 424.13,204.87 424.88,244.00 425.63,204.94 426.38,244.00 427.13,205.01 427.88,244.00 428.63,205.08 429.38,244.00 430.13,205.15 430.89,244.00 431.64,205.21 432.39,244.00 433.14,205.56 433.89,244.00 434.64,205.62 435.39,244.00 436.14,205.69 436.89,244.00 437.64,205.75 438.39,244.00 439.14,205.82 439.89,244.00 440.65,205.88 441.40,244.00 442.15,205.95 442.90,244.00 443.65,206.01 444.40,244.00 445.15,206.37 445.90,244.00 446.65,206.43 447.40,244.00 448.15,206.49 448.90,244.00 449.65,206.56 450.40,244.00 451.16,206.62 451.91,244.00 452.66,206.68 453.41,244.00 454.16,206.74 454.91,244.00 455.66,206.80 456.41,244.00 457.16,207.17 457.91,244.00 458.66,207.23 459.41,244.00 460.16,207.29 460.91,244.00 461.67,207.35 462.42,244.00 463.17,207.41 463.92,244.00 464.67,207.47 465.42,244.00 466.17,207.53 466.92,244.00 467.67,207.58 468.42,244.00 469.17,207.97 469.92,244.00 470.67,208.02 471.43,244.00 472.18,208.08 472.93,244.00 473.68,208.14 474.43,244.00 475.18,208.19 475.93,244.00 476.68,208.25 477.43,244.00 478.18,208.30 478.93,244.00 479.68,208.36 480.43,244.00 481.18,208.75 481.94,244.00 482.69,208.81 483.44,244.00 484.19,208.86 484.94,244.00 485.69,208.91 486.44,244.00 487.19,208.97 487.94,244.00 488.69,209.02 489.44,244.00 490.19,209.07 490.94,244.00 491.70,209.13 492.45,244.00 493.20,209.54 493.95,244.00 494.70,209.59 495.45,244.00 496.20,209.64 496.95,244.00 497.70,209.69 498.45,244.00 499.20,209.74 499.95,244.00 500.70,209.79 501.45,244.00 502.21,209.84 502.96,244.00 503.71,209.89 504.46,244.00 505.21,210.32 505.96,244.00 506.71,210.37 507.46,244.00 508.21,210.42 508.96,244.00 509.71,210.47 510.46,244.00 511.21,210.51 511.96,244.00 512.72,210.56 513.47,244.00 514.22,210.61 514.97,244.00 515.72,210.66 516.47,244.00 517.22,211.10 517.97,244.00 518.72,211.15 519.47,244.00 520.22,211.20 520.97,244.00 521.72,211.24 522.48,244.00 523.23,211.29 523.98,244.00 524.73,211.33 525.48,244.00 526.23,211.38 526.98,244.00 527.73,211.42 528.48,244.00 529.23,211.89 529.98,244.00 530.73,211.93 531.48,244.00 532.23,211.98 532.99,244.00 533.74,212.02 534.49,244.00 535.24,212.06 535.99,244.00 536.74,212.11 537.49,244.00 538.24,212.15 538.99,244.00 539.74,212.19 540.49,244.00 541.24,212.68 541.99,244.00 542.74,212.72 543.50,244.00 544.25,212.76 545.00,244.00 545.75,212.80 546.50,244.00 547.25,212.84 548.00,244.00 548.75,212.88 549.50,244.00 550.25,212.92 551.00,244.00 551.75,212.97 552.50,244.00 553.26,213.47 554.01,244.00 554.76,213.51 555.51,244.00 556.26,213.55 557.01,244.00 557.76,213.59 558.51,244.00 559.26,213.63 560.01,244.00 560.76,213.67 561.51,244.00 562.26,213.71 563.01,244.00 563.77,213.75 564.52,244.00 565.27,214.28 566.02,244.00 566.77,214.32 567.52,244.00 568.27,214.36 569.02,244.00 569.77,214.39 570.52,244.00 571.27,214.43 572.02,244.00 572.77,214.47 573.52,244.00 574.28,214.50 575.03,244.00 575.78,214.54 576.53,244.00 577.28,215.10 578.03,244.00 578.78,215.14 579.53,244.00 580.28,215.17 581.03,244.00 581.78,215.21 582.53,244.00 583.28,215.24 584.04,244.00 584.79,215.28 585.54,244.00 586.29,215.31 587.04,244.00 587.79,215.34 588.54,244.00 589.29,215.94 590.04,244.00 590.79,215.97 591.54,244.00 592.29,216.00 593.04,244.00 593.79,216.04 594.55,244.00 595.30,216.07 596.05,244.00 596.80,216.10 597.55,244.00 598.30,216.13 599.05,244.00 599.80,216.17 600.55,244.00 601.30,216.80 602.05,244.00 602.80,216.83 603.55,244.00 604.30,216.86 605.06,244.00 605.81,216.89 606.56,244.00 607.31,216.92 608.06,244.00 608.81,216.95 609.56,244.00 610.31,216.98 611.06,244.00 611.81,217.01 612.56,244.00 613.31,217.68 614.06,244.00 614.82,217.71 615.57,244.00 616.32,217.74 617.07,244.00 617.82,217.77 618.57,244.00 619.32,217.79 620.07,244.00 620.82,217.82 621.57,244.00 622.32,217.85 623.07,244.00 623.82,217.88 624.57,244.00 625.33,218.59 626.08,244.00 626.83,218.62 627.58,244.00 628.33,218.65 629.08,244.00 629.83,218.67 630.58,244.00 631.33,218.70 632.08,244.00 632.83,218.73 633.58,244.00 634.33,218.75 635.09,244.00 635.84,218.78 636.59,244.00 637.34,219.54 638.09,244.00 638.84,219.57 639.59,244.00 640.34,219.59 641.09,244.00 641.84,219.62 642.59,244.00 643.34,219.64 644.09,244.00 644.84,219.67 645.60,244.00 646.35,219.69 647.10,244.00 647.85,219.72 648.60,244.00 649.35,220.54 650.10,244.00 650.85,220.56 651.60,244.00 652.35,220.58 653.10,244.00 653.85,220.61 654.60,244.00 655.35,220.63 656.11,244.00 656.86,220.65 657.61,244.00 658.36,220.68 659.11,244.00 659.86,220.70 660.61,244.00 661.36,221.59 662.11,244.00 662.86,221.61 663.61,244.00 664.36,221.63 665.11,244.00 665.87,221.65 666.62,244.00 667.37,221.67 668.12,244.00 668.87,221.69 669.62,244.00 670.37,221.71 671.12,244.00 671.87,221.73 672.62,244.00 673.37,222.70 674.12,244.00 674.87,222.72 675.62,244.00 676.38,222.74 677.13,244.00 677.88,222.76 678.63,244.00 679.38,222.78 680.13,244.00 680.88,222.80 681.63,244.00 682.38,222.82 683.13,244.00 683.88,222.84 684.63,244.00 685.38,223.90 686.13,244.00 686.89,223.92 687.64,244.00 688.39,223.94 689.14,244.00 689.89,223.95 690.64,244.00 691.39,223.97 692.14,244.00 692.89,223.99 693.64,244.00 694.39,224.01 695.14,244.00 695.89,224.02 696.65,244.00 697.40,225.20 698.15,244.00 698.90,225.21 699.65,244.00 700.40,225.23 701.15,244.00 701.90,225.25 702.65,244.00 703.40,225.26 704.15,244.00 704.90,225.28 705.65,244.00 706.40,225.29 707.16,244.00 707.91,225.31 708.66,244.00 709.41,226.63 710.16,244.00 710.91,226.64 711.66,244.00 712.41,226.65 713.16,244.00 713.91,226.67 714.66,244.00 715.41,226.68 716.16,244.00 716.91,226.70 717.67,244.00 718.42,226.71 719.17,244.00 719.92,226.72 720.67,244.00 721.42,228.22 722.17,244.00 722.92,228.23 723.67,244.00 724.42,228.24 725.17,244.00 725.92,228.26 726.67,244.00 727.43,228.27 728.18,244.00 728.93,228.28 729.68,244.00 730.43,228.29 731.18,244.00 731.93,228.30 732.68,244.00 733.43,230.03 734.18,244.00 734.93,230.04 735.68,244.00 736.43,230.05 737.18,244.00 737.94,230.06 738.69,244.00 739.44,230.07 740.19,244.00 740.94,230.09 741.69,244.00 742.44,230.10 743.19,244.00 743.94,230.11 744.69,244.00 745.44,232.15 746.19,244.00 746.94,232.16 747.70,244.00 748.45,232.17 749.20,244.00 749.95,232.18 750.70,244.00 751.45,232.19 752.20,244.00 752.95,232.20 753.70,244.00 754.45,232.21 755.20,244.00 755.95,232.22 756.70,244.00 757.45,234.72 758.21,244.00 758.96,234.73 759.71,244.00 760.46,234.74 761.21,244.00 761.96,234.74 762.71,244.00 763.46,234.75 764.21,244.00 764.96,234.76 765.71,244.00 766.46,234.77 767.21,244.00 767.96,234.77 768.72,244.00 769.47,238.01 770.22,244.00 770.97,238.01 771.72,244.00 772.47,238.02 773.22,244.00 773.97,238.03 774.72,244.00 775.47,238.03 776.22,244.00 776.97,238.04 777.72,244.00 778.48,238.05 779.23,244.00 779.98,238.05 780.73,244.00 781.48,242.61 782.23,244.00 782.98,242.62 783.73,244.00 784.48,242.63 785.23,244.00 785.98,242.63 786.73,244.00 787.48,242.64 788.23,244.00 788.99,242.64 789.74,244.00 790.49,242.65 791.24,244.00 791.99,242.65 792.74,244.00 793.49,244.00 794.24,244.00 794.99,244.00 795.74,244.00 796.49,244.00 797.24,244.00 797.99,244.00 798.74,244.00 799.50,244.00 800.25,244.00 801.00,244.00 801.75,244.00 802.50,244.00 803.25,244.00 804.00,244.00" />
  <text x="420.0" y="22" text-anchor="middle" font-family="Arial, Helvetica, sans-serif" font-size="15" fill="#102a43">bartlett_hann window (magnitude spectrum)</text>
  <text x="420.0" y="272" text-anchor="middle" font-family="Arial, Helvetica, sans-serif" font-size="12" fill="#334e68">normalized frequency</text>
  <text x="14" y="140.0" transform="rotate(-90 14,140.0)" text-anchor="middle" font-family="Arial, Helvetica, sans-serif" font-size="12" fill="#334e68">magnitude (dB)</text>
  <text x="36" y="262" font-family="Arial, Helvetica, sans-serif" font-size="11" fill="#486581">0</text>
  <text x="804" y="262" text-anchor="end" font-family="Arial, Helvetica, sans-serif" font-size="11" fill="#486581">1</text>
  <text x="30" y="40" text-anchor="end" font-family="Arial, Helvetica, sans-serif" font-size="11" fill="#486581">0.0</text>
  <text x="30" y="248" text-anchor="end" font-family="Arial, Helvetica, sans-serif" font-size="11" fill="#486581">-160.0</text>
</svg>
