<svg xmlns="http://www.w3.org/2000/svg" width="840" height="280" viewBox="0 0 840 280">
  <rect x="0" y="0" width="840" height="280" fill="#ffffff" />
  <rect x="36" y="36" width="768" height="208" fill="#f7fbff" stroke="#c8d9e6" />
  <polyline fill="none" stroke="#005f73" stroke-width="2" points="36.00,243.99 36.75,243.99 37.50,243.99 38.25,243.99 39.00,243.99 39.75,243.98 40.50,243.98 41.26,243.98 42.01,243.98 42.76,243.98 43.51,243.98 44.26,243.97 45.01,243.97 45.76,243.97 46.51,243.97 47.26,243.96 48.01,243.96 48.76,243.95 49.51,243.95 50.26,243.95 51.01,243.94 51.77,243.94 52.52,243.93 53.27,243.93 54.02,243.92 54.77,243.91 55.52,243.91 56.27,243.90 57.02,243.89 57.77,243.89 58.52,243.88 59.27,243.87 60.02,243.86 60.77,243.85 61.52,243.85 62.28,243.84 63.03,243.83 63.78,243.82 64.53,243.81 65.28,243.80 66.03,243.78 66.78,243.77 67.53,243.76 68.28,243.75 69.03,243.73 69.78,243.72 70.53,243.71 71.28,243.69 72.04,243.68 72.79,243.66 73.54,243.65 74.29,243.63 75.04,243.61 75.79,243.60 76.54,243.58 77.29,243.56 78.04,243.54 78.79,243.52 79.54,243.50 80.29,243.48 81.04,243.46 81.79,243.43 82.55,243.41 83.30,243.39 84.05,243.36 84.80,243.34 85.55,243.31 86.30,243.29 87.05,243.26 87.80,243.23 88.55,243.20 89.30,243.17 90.05,243.14 90.80,243.11 91.55,243.08 92.30,243.04 93.06,243.01 93.81,242.97 94.56,242.94 95.31,242.90 96.06,242.86 96.81,242.82 97.56,242.78 98.31,242.74 99.06,242.70 99.81,242.66 100.56,242.61 101.31,242.57 102.06,242.52 102.82,242.47 103.57,242.42 104.32,242.37 105.07,242.32 105.82,242.27 106.57,242.22 107.32,242.16 108.07,242.11 108.82,242.05 109.57,241.99 110.32,241.93 111.07,241.87 111.82,241.80 112.57,241.74 113.33,241.67 114.08,241.60 114.83,241.54 115.58,241.47 116.33,241.39 117.08,241.32 117.83,241.24 118.58,241.17 119.33,241.09 120.08,241.01 120.83,240.93 121.58,240.84 122.33,240.76 123.09,240.67 123.84,240.58 124.59,240.49 125.34,240.40 126.09,240.30 126.84,240.20 127.59,240.11 128.34,240.01 129.09,239.90 129.84,239.80 130.59,239.69 131.34,239.58 132.09,239.47 132.84,239.36 133.60,239.24 134.35,239.13 135.10,239.01 135.85,238.89 136.60,238.76 137.35,238.64 138.10,238.51 138.85,238.38 139.60,238.24 140.35,238.11 141.10,237.97 141.85,237.83 142.60,237.69 143.35,237.54 144.11,237.39 144.86,237.24 145.61,237.09 146.36,236.93 147.11,236.77 147.86,236.61 148.61,236.45 149.36,236.28 150.11,236.11 150.86,235.94 151.61,235.76 152.36,235.59 153.11,235.41 153.87,235.22 154.62,235.04 155.37,234.85 156.12,234.65 156.87,234.46 157.62,234.26 158.37,234.06 159.12,233.85 159.87,233.65 160.62,233.43 161.37,233.22 162.12,233.00 162.87,232.78 163.62,232.56 164.38,232.33 165.13,232.10 165.88,231.87 166.63,231.63 167.38,231.39 168.13,231.14 168.88,230.90 169.63,230.65 170.38,230.39 171.13,230.13 171.88,229.87 172.63,229.61 173.38,229.34 174.13,229.07 174.89,228.79 175.64,228.51 176.39,228.23 177.14,227.94 177.89,227.65 178.64,227.35 179.39,227.06 180.14,226.75 180.89,226.45 181.64,226.14 182.39,225.82 183.14,225.51 183.89,225.18 184.65,224.86 185.40,224.53 186.15,224.20 186.90,223.86 187.65,223.52 188.40,223.17 189.15,222.82 189.90,222.47 190.65,222.11 191.40,221.75 192.15,221.38 192.90,221.01 193.65,220.64 194.40,220.26 195.16,219.87 195.91,219.49 196.66,219.10 197.41,218.70 198.16,218.30 198.91,217.90 199.66,217.49 200.41,217.08 201.16,216.66 201.91,216.24 202.66,215.81 203.41,215.38 204.16,214.95 204.91,214.51 205.67,214.06 206.42,213.62 207.17,213.16 207.92,212.71 208.67,212.25 209.42,211.78 210.17,211.31 210.92,210.84 211.67,210.36 212.42,209.88 213.17,209.39 213.92,208.90 214.67,208.40 215.43,207.90 216.18,207.39 216.93,206.88 217.68,206.37 218.43,205.85 219.18,205.32 219.93,204.80 220.68,204.26 221.43,203.73 222.18,203.19 222.93,202.64 223.68,202.09 224.43,201.53 225.18,200.98 225.94,200.41 226.69,199.84 227.44,199.27 228.19,198.69 228.94,198.11 229.69,197.53 230.44,196.94 231.19,196.34 231.94,195.74 232.69,195.14 233.44,194.53 234.19,193.92 234.94,193.30 235.70,192.68 236.45,192.06 237.20,191.43 237.95,190.79 238.70,190.15 239.45,189.51 240.20,188.87 240.95,188.21 241.70,187.56 242.45,186.90 243.20,186.24 243.95,185.57 244.70,184.90 245.45,184.22 246.21,183.54 246.96,182.86 247.71,182.17 248.46,181.48 249.21,180.79 249.96,180.09 250.71,179.38 251.46,178.68 252.21,177.96 252.96,177.25 253.71,176.53 254.46,175.81 255.21,175.08 255.96,174.35 256.72,173.62 257.47,172.88 258.22,172.14 258.97,171.40 259.72,170.65 260.47,169.90 261.22,169.15 261.97,168.39 262.72,167.63 263.47,166.86 264.22,166.10 264.97,165.32 265.72,164.55 266.48,163.77 267.23,162.99 267.98,162.21 268.73,161.42 269.48,160.63 270.23,159.84 270.98,159.05 271.73,158.25 272.48,157.45 273.23,156.65 273.98,155.84 274.73,155.03 275.48,154.22 276.23,153.41 276.99,152.59 277.74,151.78 278.49,150.96 279.24,150.13 279.99,149.31 280.74,148.48 281.49,147.65 282.24,146.82 282.99,145.99 283.74,145.15 284.49,144.32 285.24,143.48 285.99,142.64 286.74,141.80 287.50,140.95 288.25,140.11 289.00,139.26 289.75,138.41 290.50,137.56 291.25,136.71 292.00,135.86 292.75,135.01 293.50,134.16 294.25,133.30 295.00,132.45 295.75,131.59 296.50,130.73 297.26,129.87 298.01,129.01 298.76,128.15 299.51,127.29 300.26,126.43 301.01,125.57 301.76,124.71 302.51,123.85 303.26,122.99 304.01,122.13 304.76,121.27 305.51,120.41 306.26,119.54 307.01,118.68 307.77,117.82 308.52,116.96 309.27,116.10 310.02,115.24 310.77,114.39 311.52,113.53 312.27,112.67 313.02,111.81 313.77,110.96 314.52,110.10 315.27,109.25 316.02,108.40 316.77,107.55 317.52,106.70 318.28,105.85 319.03,105.00 319.78,104.16 320.53,103.31 321.28,102.47 322.03,101.63 322.78,100.79 323.53,99.96 324.28,99.12 325.03,98.29 325.78,97.46 326.53,96.64 327.28,95.81 328.04,94.99 328.79,94.17 329.54,93.35 330.29,92.54 331.04,91.73 331.79,90.92 332.54,90.11 333.29,89.31 334.04,88.51 334.79,87.71 335.54,86.92 336.29,86.13 337.04,85.34 337.79,84.56 338.55,83.78 339.30,83.00 340.05,82.23 340.80,81.46 341.55,80.70 342.30,79.94 343.05,79.18 343.80,78.43 344.55,77.68 345.30,76.94 346.05,76.20 346.80,75.47 347.55,74.74 348.30,74.01 349.06,73.29 349.81,72.58 350.56,71.87 351.31,71.16 352.06,70.46 352.81,69.77 353.56,69.08 354.31,68.39 355.06,67.71 355.81,67.04 356.56,66.37 357.31,65.70 358.06,65.05 358.82,64.40 359.57,63.75 360.32,63.11 361.07,62.48 361.82,61.85 362.57,61.22 363.32,60.61 364.07,60.00 364.82,59.40 365.57,58.80 366.32,58.21 367.07,57.62 367.82,57.05 368.57,56.47 369.33,55.91 370.08,55.35 370.83,54.80 371.58,54.26 372.33,53.72 373.08,53.19 373.83,52.67 374.58,52.15 375.33,51.64 376.08,51.14 376.83,50.65 377.58,50.16 378.33,49.68 379.09,49.21 379.84,48.75 380.59,48.29 381.34,47.84 382.09,47.40 382.84,46.96 383.59,46.54 384.34,46.12 385.09,45.71 385.84,45.31 386.59,44.91 387.34,44.53 388.09,44.15 388.84,43.78 389.60,43.42 390.35,43.06 391.10,42.72 391.85,42.38 392.60,42.05 393.35,41.73 394.10,41.42 394.85,41.11 395.60,40.82 396.35,40.53 397.10,40.25 397.85,39.98 398.60,39.72 399.35,39.47 400.11,39.23 400.86,38.99 401.61,38.76 402.36,38.55 403.11,38.34 403.86,38.14 404.61,37.95 405.36,37.76 406.11,37.59 406.86,37.43 407.61,37.27 408.36,37.12 409.11,36.99 409.87,36.86 410.62,36.74 411.37,36.63 412.12,36.52 412.87,36.43 413.62,36.35 414.37,36.27 415.12,36.21 415.87,36.15 416.62,36.10 417.37,36.06 418.12,36.03 418.87,36.01 419.62,36.00 420.38,36.00 421.13,36.01 421.88,36.02 422.63,36.05 423.38,36.08 424.13,36.13 424.88,36.18 425.63,36.24 426.38,36.31 427.13,36.39 427.88,36.48 428.63,36.57 429.38,36.68 430.13,36.80 430.89,36.92 431.64,37.05 432.39,37.20 433.14,37.35 433.89,37.51 434.64,37.68 435.39,37.85 436.14,38.04 436.89,38.24 437.64,38.44 438.39,38.65 439.14,38.88 439.89,39.11 440.65,39.35 441.40,39.59 442.15,39.85 442.90,40.12 443.65,40.39 444.40,40.67 445.15,40.96 445.90,41.26 446.65,41.57 447.40,41.89 448.15,42.21 448.90,42.55 449.65,42.89 450.40,43.24 451.16,43.60 451.91,43.96 452.66,44.34 453.41,44.72 454.16,45.11 454.91,45.51 455.66,45.91 456.41,46.33 457.16,46.75 457.91,47.18 458.66,47.62 459.41,48.06 460.16,48.52 460.91,48.98 461.67,49.44 462.42,49.92 463.17,50.40 463.92,50.89 464.67,51.39 465.42,51.90 466.17,52.41 466.92,52.93 467.67,53.46 468.42,53.99 469.17,54.53 469.92,55.08 470.67,55.63 471.43,56.19 472.18,56.76 472.93,57.33 473.68,57.91 474.43,58.50 475.18,59.10 475.93,59.70 476.68,60.30 477.43,60.92 478.18,61.54 478.93,62.16 479.68,62.79 480.43,63.43 481.18,64.07 481.94,64.72 482.69,65.38 483.44,66.04 484.19,66.70 484.94,67.37 485.69,68.05 486.44,68.73 487.19,69.42 487.94,70.11 488.69,70.81 489.44,71.51 490.19,72.22 490.94,72.94 491.70,73.65 492.45,74.38 493.20,75.10 493.95,75.84 494.70,76.57 495.45,77.31 496.20,78.06 496.95,78.81 497.70,79.56 498.45,80.32 499.20,81.08 499.95,81.85 500.70,82.62 501.45,83.39 502.21,84.17 502.96,84.95 503.71,85.73 504.46,86.52 505.21,87.31 505.96,88.11 506.71,88.91 507.46,89.71 508.21,90.51 508.96,91.32 509.71,92.13 510.46,92.94 511.21,93.76 511.96,94.58 512.72,95.40 513.47,96.22 514.22,97.05 514.97,97.88 515.72,98.71 516.47,99.54 517.22,100.38 517.97,101.21 518.72,102.05 519.47,102.89 520.22,103.74 520.97,104.58 521.72,105.43 522.48,106.27 523.23,107.12 523.98,107.97 524.73,108.82 525.48,109.68 526.23,110.53 526.98,111.39 527.73,112.24 528.48,113.10 529.23,113.96 529.98,114.81 530.73,115.67 531.48,116.53 532.23,117.39 532.99,118.25 533.74,119.11 534.49,119.98 535.24,120.84 535.99,121.70 536.74,122.56 537.49,123.42 538.24,124.28 538.99,125.14 539.74,126.00 540.49,126.86 541.24,127.72 541.99,128.58 542.74,129.44 543.50,130.30 544.25,131.16 545.00,132.02 545.75,132.87 546.50,133.73 547.25,134.58 548.00,135.44 548.75,136.29 549.50,137.14 550.25,137.99 551.00,138.84 551.75,139.68 552.50,140.53 553.26,141.37 554.01,142.22 554.76,143.06 555.51,143.90 556.26,144.74 557.01,145.57 557.76,146.41 558.51,147.24 559.26,148.07 560.01,148.90 560.76,149.72 561.51,150.54 562.26,151.37 563.01,152.19 563.77,153.00 564.52,153.82 565.27,154.63 566.02,155.44 566.77,156.24 567.52,157.05 568.27,157.85 569.02,158.65 569.77,159.45 570.52,160.24 571.27,161.03 572.02,161.82 572.77,162.60 573.52,163.38 574.28,164.16 575.03,164.94 575.78,165.71 576.53,166.48 577.28,167.25 578.03,168.01 578.78,168.77 579.53,169.52 580.28,170.28 581.03,171.03 581.78,171.77 582.53,172.51 583.28,173.25 584.04,173.99 584.79,174.72 585.54,175.45 586.29,176.17 587.04,176.89 587.79,177.61 588.54,178.32 589.29,179.03 590.04,179.73 590.79,180.44 591.54,181.13 592.29,181.83 593.04,182.52 593.79,183.20 594.55,183.88 595.30,184.56 596.05,185.24 596.80,185.90 597.55,186.57 598.30,187.23 599.05,187.89 599.80,188.54 600.55,189.19 601.30,189.83 602.05,190.47 602.80,191.11 603.55,191.74 604.30,192.37 605.06,192.99 605.81,193.61 606.56,194.23 607.31,194.84 608.06,195.44 608.81,196.04 609.56,196.64 610.31,197.23 611.06,197.82 611.81,198.40 612.56,198.98 613.31,199.56 614.06,200.13 614.82,200.69 615.57,201.26 616.32,201.81 617.07,202.37 617.82,202.91 618.57,203.46 619.32,204.00 620.07,204.53 620.82,205.06 621.57,205.59 622.32,206.11 623.07,206.63 623.82,207.14 624.57,207.65 625.33,208.15 626.08,208.65 626.83,209.14 627.58,209.63 628.33,210.12 629.08,210.60 629.83,211.07 630.58,211.55 631.33,212.01 632.08,212.48 632.83,212.94 633.58,213.39 634.33,213.84 635.09,214.29 635.84,214.73 636.59,215.16 637.34,215.60 638.09,216.02 638.84,216.45 639.59,216.87 640.34,217.28 641.09,217.69 641.84,218.10 642.59,218.50 643.34,218.90 644.09,219.29 644.84,219.68 645.60,220.07 646.35,220.45 647.10,220.82 647.85,221.20 648.60,221.56 649.35,221.93 650.10,222.29 650.85,222.64 651.60,223.00 652.35,223.34 653.10,223.69 653.85,224.03 654.60,224.36 655.35,224.69 656.11,225.02 656.86,225.35 657.61,225.66 658.36,225.98 659.11,226.29 659.86,226.60 660.61,226.90 661.36,227.21 662.11,227.50 662.86,227.79 663.61,228.08 664.36,228.37 665.11,228.65 665.87,228.93 666.62,229.20 667.37,229.47 668.12,229.74 668.87,230.00 669.62,230.26 670.37,230.52 671.12,230.77 671.87,231.02 672.62,231.27 673.37,231.51 674.12,231.75 674.87,231.98 675.62,232.22 676.38,232.44 677.13,232.67 677.88,232.89 678.63,233.11 679.38,233.33 680.13,233.54 680.88,233.75 681.63,233.96 682.38,234.16 683.13,234.36 683.88,234.56 684.63,234.75 685.38,234.94 686.13,235.13 686.89,235.31 687.64,235.50 688.39,235.68 689.14,235.85 689.89,236.03 690.64,236.20 691.39,236.37 692.14,236.53 692.89,236.69 693.64,236.85 694.39,237.01 695.14,237.16 695.89,237.32 696.65,237.47 697.40,237.61 698.15,237.76 698.90,237.90 699.65,238.04 700.40,238.18 701.15,238.31 701.90,238.44 702.65,238.57 703.40,238.70 704.15,238.82 704.90,238.95 705.65,239.07 706.40,239.19 707.16,239.30 707.91,239.42 708.66,239.53 709.41,239.64 710.16,239.75 710.91,239.85 711.66,239.95 712.41,240.06 713.16,240.16 713.91,240.25 714.66,240.35 715.41,240.44 716.16,240.53 716.91,240.62 717.67,240.71 718.42,240.80 719.17,240.88 719.92,240.97 720.67,241.05 721.42,241.13 722.17,241.21 722.92,241.28 723.67,241.36 724.42,241.43 725.17,241.50 725.92,241.57 726.67,241.64 727.43,241.71 728.18,241.77 728.93,241.84 729.68,241.90 730.43,241.96 731.18,242.02 731.93,242.08 732.68,242.13 733.43,242.19 734.18,242.24 734.93,242.30 735.68,242.35 736.43,242.40 737.18,242.45 737.94,242.50 738.69,242.54 739.44,242.59 740.19,242.63 740.94,242.68 741.69,242.72 742.44,242.76 743.19,242.80 743.94,242.84 744.69,242.88 745.44,242.92 746.19,242.96 746.94,242.99 747.70,243.03 748.45,243.06 749.20,243.09 749.95,243.12 750.70,243.16 751.45,243.19 752.20,243.21 752.95,243.24 753.70,243.27 754.45,243.30 755.20,243.32 755.95,243.35 756.70,243.38 757.45,243.40 758.21,243.42 758.96,243.45 759.71,243.47 760.46,243.49 761.21,243.51 761.96,243.53 762.71,243.55 763.46,243.57 764.21,243.59 764.96,243.60 765.71,243.62 766.46,243.64 767.21,243.65 767.96,243.67 768.72,243.69 769.47,243.70 770.22,243.71 770.97,243.73 771.72,243.74 772.47,243.75 773.22,243.77 773.97,243.78 774.72,243.79 775.47,243.80 776.22,243.81 776.97,243.82 777.72,243.83 778.48,243.84 779.23,243.85 779.98,243.86 780.73,243.87 781.48,243.88 782.23,243.88 782.98,243.89 783.73,243.90 784.48,243.90 785.23,243.91 785.98,243.92 786.73,243.92 787.48,243.93 788.23,243.93 788.99,243.94 789.74,243.94 790.49,243.95 791.24,243.95 791.99,243.96 792.74,243.96 793.49,243.96 794.24,243.97 794.99,243.97 795.74,243.97 796.49,243.98 797.24,243.98 797.99,243.98 798.74,243.98 799.50,243.98 800.25,243.98 801.00,243.99 801.75,243.99 802.50,243.99 803.25,243.99 804.00,243.99" />
  <text x="420.0" y="22" text-anchor="middle" font-family="Arial, Helvetica, sans-serif" font-size="15" fill="#102a43">blackmanharris window (time domain)</text>
  <text x="420.0" y="272" text-anchor="middle" font-family="Arial, Helvetica, sans-serif" font-size="12" fill="#334e68">normalized sample index</text>
  <text x="14" y="140.0" transform="rotate(-90 14,140.0)" text-anchor="middle" font-family="Arial, Helvetica, sans-serif" font-size="12" fill="#334e68">amplitude</text>
  <text x="36" y="262" font-family="Arial, Helvetica, sans-serif" font-size="11" fill="#486581">0</text>
  <text x="804" y="262" text-anchor="end" font-family="Arial, Helvetica, sans-serif" font-size="11" fill="#486581">1</text>
  <text x="30" y="40" text-anchor="end" font-family="Arial, Helvetica, sans-serif" font-size="11" fill="#486581">1.0</text>
  <text x="30" y="248" text-anchor="end" font-family="Arial, Helvetica, sans-serif" font-size="11" fill="#486581">0.0</text>
</svg>
