<svg xmlns="http://www.w3.org/2000/svg" width="840" height="280" viewBox="0 0 840 280">
  <rect x="0" y="0" width="840" height="280" fill="#ffffff" />
  <rect x="36" y="36" width="768" height="208" fill="#f7fbff" stroke="#c8d9e6" />
  <polyline fill="none" stroke="#005f73" stroke-width="2" points="36.00,36.00 36.75,40.34 37.50,54.33 38.25,82.44 39.00,196.74 39.75,244.00 40.50,207.62 41.26,204.52 42.01,204.47 42.76,205.38 43.51,206.64 44.26,208.02 45.01,209.43 45.76,210.83 46.51,212.18 47.26,213.49 48.01,231.50 48.76,226.25 49.51,223.55 50.26,221.94 51.01,220.93 51.77,220.27 52.52,219.86 53.27,219.61 54.02,219.48 54.77,219.43 55.52,219.45 56.27,219.52 57.02,219.63 57.77,219.76 58.52,219.92 59.27,220.10 60.02,215.33 60.77,215.40 61.52,215.49 62.28,215.59 63.03,215.71 63.78,215.85 64.53,215.99 65.28,216.14 66.03,216.29 66.78,216.45 67.53,216.61 68.28,216.78 69.03,216.95 69.78,217.12 70.53,217.29 71.28,217.46 72.04,213.70 72.79,213.86 73.54,214.01 74.29,214.17 75.04,214.33 75.79,214.49 76.54,214.64 77.29,214.80 78.04,214.96 78.79,215.11 79.54,215.27 80.29,215.42 81.04,215.57 81.79,215.72 82.55,215.87 83.30,216.02 84.05,213.19 84.80,213.33 85.55,213.47 86.30,213.61 87.05,213.75 87.80,213.89 88.55,214.03 89.30,214.17 90.05,214.30 90.80,214.44 91.55,214.57 92.30,214.70 93.06,214.83 93.81,214.96 94.56,215.09 95.31,215.22 96.06,212.97 96.81,213.10 97.56,213.22 98.31,213.34 99.06,213.46 99.81,213.58 100.56,213.70 101.31,213.82 102.06,213.93 102.82,214.05 103.57,214.16 104.32,214.28 105.07,214.39 105.82,214.50 106.57,214.61 107.32,214.72 108.07,212.88 108.82,212.99 109.57,213.09 110.32,213.20 111.07,213.30 111.82,213.41 112.57,213.51 113.33,213.61 114.08,213.71 114.83,213.81 115.58,213.91 116.33,214.01 117.08,214.11 117.83,214.21 118.58,214.30 119.33,214.40 120.08,212.85 120.83,212.94 121.58,213.04 122.33,213.13 123.09,213.22 123.84,213.31 124.59,213.40 125.34,213.49 126.09,213.58 126.84,213.67 127.59,213.75 128.34,213.84 129.09,213.93 129.84,214.01 130.59,214.10 131.34,214.18 132.09,212.85 132.84,212.93 133.60,213.02 134.35,213.10 135.10,213.18 135.85,213.26 136.60,213.34 137.35,213.42 138.10,213.50 138.85,213.57 139.60,213.65 140.35,213.73 141.10,213.81 141.85,213.88 142.60,213.96 143.35,214.03 144.11,212.87 144.86,212.95 145.61,213.02 146.36,213.10 147.11,213.17 147.86,213.24 148.61,213.31 149.36,213.38 150.11,213.45 150.86,213.52 151.61,213.59 152.36,213.66 153.11,213.73 153.87,213.80 154.62,213.87 155.37,213.94 156.12,212.92 156.87,212.98 157.62,213.05 158.37,213.12 159.12,213.18 159.87,213.25 160.62,213.31 161.37,213.38 162.12,213.44 162.87,213.50 163.62,213.57 164.38,213.63 165.13,213.69 165.88,213.75 166.63,213.82 167.38,213.88 168.13,212.97 168.88,213.03 169.63,213.09 170.38,213.15 171.13,213.21 171.88,213.27 172.63,213.33 173.38,213.39 174.13,213.45 174.89,213.51 175.64,213.56 176.39,213.62 177.14,213.68 177.89,213.74 178.64,213.79 179.39,213.85 180.14,213.04 180.89,213.09 181.64,213.15 182.39,213.20 183.14,213.26 183.89,213.31 184.65,213.37 185.40,213.42 186.15,213.47 186.90,213.53 187.65,213.58 188.40,213.63 189.15,213.69 189.90,213.74 190.65,213.79 191.40,213.84 192.15,213.11 192.90,213.17 193.65,213.22 194.40,213.27 195.16,213.32 195.91,213.37 196.66,213.42 197.41,213.47 198.16,213.52 198.91,213.57 199.66,213.62 200.41,213.67 201.16,213.71 201.91,213.76 202.66,213.81 203.41,213.86 204.16,213.20 204.91,213.25 205.67,213.30 206.42,213.34 207.17,213.39 207.92,213.44 208.67,213.48 209.42,213.53 210.17,213.57 210.92,213.62 211.67,213.67 212.42,213.71 213.17,213.76 213.92,213.80 214.67,213.85 215.43,213.89 216.18,213.30 216.93,213.34 217.68,213.39 218.43,213.43 219.18,213.47 219.93,213.52 220.68,213.56 221.43,213.60 222.18,213.64 222.93,213.69 223.68,213.73 224.43,213.77 225.18,213.81 225.94,213.86 226.69,213.90 227.44,213.94 228.19,213.40 228.94,213.44 229.69,213.48 230.44,213.53 231.19,213.57 231.94,213.61 232.69,213.65 233.44,213.69 234.19,213.73 234.94,213.77 235.70,213.81 236.45,213.85 237.20,213.89 237.95,213.92 238.70,213.96 239.45,214.00 240.20,213.52 240.95,213.55 241.70,213.59 242.45,213.63 243.20,213.67 243.95,213.71 244.70,213.75 245.45,213.78 246.21,213.82 246.96,213.86 247.71,213.89 248.46,213.93 249.21,213.97 249.96,214.01 250.71,214.04 251.46,214.08 252.21,213.64 252.96,213.68 253.71,213.71 254.46,213.75 255.21,213.78 255.96,213.82 256.72,213.85 257.47,213.89 258.22,213.92 258.97,213.96 259.72,213.99 260.47,214.03 261.22,214.06 261.97,214.10 262.72,214.13 263.47,214.17 264.22,213.77 264.97,213.81 265.72,213.84 266.48,213.87 267.23,213.91 267.98,213.94 268.73,213.97 269.48,214.01 270.23,214.04 270.98,214.07 271.73,214.11 272.48,214.14 273.23,214.17 273.98,214.20 274.73,214.24 275.48,214.27 276.23,213.91 276.99,213.94 277.74,213.98 278.49,214.01 279.24,214.04 279.99,214.07 280.74,214.10 281.49,214.13 282.24,214.17 282.99,214.20 283.74,214.23 284.49,214.26 285.24,214.29 285.99,214.32 286.74,214.35 287.50,214.38 288.25,214.06 289.00,214.09 289.75,214.12 290.50,214.15 291.25,214.18 292.00,214.21 292.75,214.24 293.50,214.27 294.25,214.30 295.00,214.33 295.75,214.36 296.50,214.39 297.26,214.42 298.01,214.45 298.76,214.48 299.51,214.51 300.26,214.22 301.01,214.25 301.76,214.28 302.51,214.31 303.26,214.34 304.01,214.36 304.76,214.39 305.51,214.42 306.26,214.45 307.01,214.48 307.77,214.50 308.52,214.53 309.27,214.56 310.02,214.59 310.77,214.61 311.52,214.64 312.27,214.39 313.02,214.42 313.77,214.44 314.52,214.47 315.27,214.50 316.02,214.52 316.77,214.55 317.52,214.58 318.28,214.60 319.03,214.63 319.78,214.66 320.53,214.68 321.28,214.71 322.03,214.74 322.78,214.76 323.53,214.79 324.28,214.57 325.03,214.59 325.78,214.62 326.53,214.65 327.28,214.67 328.04,214.70 328.79,214.72 329.54,214.75 330.29,214.77 331.04,214.80 331.79,214.82 332.54,214.85 333.29,214.87 334.04,214.90 334.79,214.92 335.54,214.95 336.29,214.76 337.04,214.78 337.79,214.81 338.55,214.83 339.30,214.85 340.05,214.88 340.80,214.90 341.55,214.93 342.30,214.95 343.05,214.97 343.80,215.00 344.55,215.02 345.30,215.05 346.05,215.07 346.80,215.09 347.55,215.12 348.30,214.96 349.06,214.98 349.81,215.00 350.56,215.03 351.31,215.05 352.06,215.07 352.81,215.09 353.56,215.12 354.31,215.14 355.06,215.16 355.81,215.18 356.56,215.21 357.31,215.23 358.06,215.25 358.82,215.27 359.57,215.30 360.32,215.17 361.07,215.19 361.82,215.21 362.57,215.23 363.32,215.25 364.07,215.28 364.82,215.30 365.57,215.32 366.32,215.34 367.07,215.36 367.82,215.38 368.57,215.40 369.33,215.43 370.08,215.45 370.83,215.47 371.58,215.49 372.33,215.39 373.08,215.41 373.83,215.43 374.58,215.45 375.33,215.47 376.08,215.49 376.83,215.51 377.58,215.53 378.33,215.55 379.09,215.57 379.84,215.59 380.59,215.61 381.34,215.63 382.09,215.65 382.84,215.67 383.59,215.69 384.34,215.62 385.09,215.64 385.84,215.66 386.59,215.68 387.34,215.70 388.09,215.72 388.84,215.74 389.60,215.76 390.35,215.78 391.10,215.80 391.85,215.82 392.60,215.83 393.35,215.85 394.10,215.87 394.85,215.89 395.60,215.91 396.35,215.86 397.10,215.88 397.85,215.90 398.60,215.92 399.35,215.94 400.11,215.96 400.86,215.98 401.61,215.99 402.36,216.01 403.11,216.03 403.86,216.05 404.61,216.07 405.36,216.09 406.11,216.11 406.86,216.12 407.61,216.14 408.36,216.12 409.11,216.14 409.87,216.16 410.62,216.17 411.37,216.19 412.12,216.21 412.87,216.23 413.62,216.25 414.37,216.26 415.12,216.28 415.87,216.30 416.62,216.32 417.37,216.33 418.12,216.35 418.87,216.37 419.62,216.38 420.38,216.39 421.13,216.41 421.88,216.42 422.63,216.44 423.38,216.46 424.13,216.47 424.88,216.49 425.63,216.51 426.38,216.53 427.13,216.54 427.88,216.56 428.63,216.58 429.38,216.59 430.13,216.61 430.89,216.63 431.64,216.64 432.39,216.67 433.14,216.69 433.89,216.71 434.64,216.72 435.39,216.74 436.14,216.75 436.89,216.77 437.64,216.79 438.39,216.80 439.14,216.82 439.89,216.83 440.65,216.85 441.40,216.87 442.15,216.88 442.90,216.90 443.65,216.91 444.40,216.97 445.15,216.99 445.90,217.00 446.65,217.02 447.40,217.03 448.15,217.05 448.90,217.06 449.65,217.08 450.40,217.09 451.16,217.11 451.91,217.12 452.66,217.14 453.41,217.15 454.16,217.17 454.91,217.18 455.66,217.20 456.41,217.28 457.16,217.30 457.91,217.31 458.66,217.33 459.41,217.34 460.16,217.36 460.91,217.37 461.67,217.39 462.42,217.40 463.17,217.42 463.92,217.43 464.67,217.44 465.42,217.46 466.17,217.47 466.92,217.49 467.67,217.50 468.42,217.61 469.17,217.63 469.92,217.64 470.67,217.65 471.43,217.67 472.18,217.68 472.93,217.70 473.68,217.71 474.43,217.72 475.18,217.74 475.93,217.75 476.68,217.76 477.43,217.78 478.18,217.79 478.93,217.81 479.68,217.82 480.43,217.96 481.18,217.97 481.94,217.98 482.69,218.00 483.44,218.01 484.19,218.02 484.94,218.04 485.69,218.05 486.44,218.06 487.19,218.08 487.94,218.09 488.69,218.10 489.44,218.12 490.19,218.13 490.94,218.14 491.70,218.15 492.45,218.32 493.20,218.33 493.95,218.35 494.70,218.36 495.45,218.37 496.20,218.38 496.95,218.40 497.70,218.41 498.45,218.42 499.20,218.43 499.95,218.45 500.70,218.46 501.45,218.47 502.21,218.48 502.96,218.50 503.71,218.51 504.46,218.70 505.21,218.72 505.96,218.73 506.71,218.74 507.46,218.75 508.21,218.76 508.96,218.78 509.71,218.79 510.46,218.80 511.21,218.81 511.96,218.82 512.72,218.84 513.47,218.85 514.22,218.86 514.97,218.87 515.72,218.88 516.47,219.11 517.22,219.12 517.97,219.13 518.72,219.14 519.47,219.15 520.22,219.17 520.97,219.18 521.72,219.19 522.48,219.20 523.23,219.21 523.98,219.22 524.73,219.23 525.48,219.24 526.23,219.25 526.98,219.27 527.73,219.28 528.48,219.53 529.23,219.54 529.98,219.56 530.73,219.57 531.48,219.58 532.23,219.59 532.99,219.60 533.74,219.61 534.49,219.62 535.24,219.63 535.99,219.64 536.74,219.65 537.49,219.66 538.24,219.67 538.99,219.68 539.74,219.69 540.49,219.98 541.24,219.99 541.99,220.00 542.74,220.01 543.50,220.02 544.25,220.03 545.00,220.04 545.75,220.05 546.50,220.06 547.25,220.07 548.00,220.08 548.75,220.09 549.50,220.10 550.25,220.11 551.00,220.12 551.75,220.13 552.50,220.46 553.26,220.47 554.01,220.48 554.76,220.49 555.51,220.50 556.26,220.51 557.01,220.52 557.76,220.53 558.51,220.53 559.26,220.54 560.01,220.55 560.76,220.56 561.51,220.57 562.26,220.58 563.01,220.59 563.77,220.60 564.52,220.96 565.27,220.97 566.02,220.98 566.77,220.99 567.52,221.00 568.27,221.01 569.02,221.02 569.77,221.02 570.52,221.03 571.27,221.04 572.02,221.05 572.77,221.06 573.52,221.07 574.28,221.08 575.03,221.09 575.78,221.10 576.53,221.50 577.28,221.50 578.03,221.51 578.78,221.52 579.53,221.53 580.28,221.54 581.03,221.55 581.78,221.55 582.53,221.56 583.28,221.57 584.04,221.58 584.79,221.59 585.54,221.60 586.29,221.60 587.04,221.61 587.79,221.62 588.54,222.06 589.29,222.07 590.04,222.08 590.79,222.09 591.54,222.09 592.29,222.10 593.04,222.11 593.79,222.12 594.55,222.13 595.30,222.13 596.05,222.14 596.80,222.15 597.55,222.16 598.30,222.17 599.05,222.17 599.80,222.18 600.55,222.67 601.30,222.68 602.05,222.68 602.80,222.69 603.55,222.70 604.30,222.71 605.06,222.71 605.81,222.72 606.56,222.73 607.31,222.73 608.06,222.74 608.81,222.75 609.56,222.76 610.31,222.76 611.06,222.77 611.81,222.78 612.56,223.31 613.31,223.32 614.06,223.33 614.82,223.33 615.57,223.34 616.32,223.35 617.07,223.36 617.82,223.36 618.57,223.37 619.32,223.38 620.07,223.38 620.82,223.39 621.57,223.40 622.32,223.40 623.07,223.41 623.82,223.42 624.57,224.01 625.33,224.01 626.08,224.02 626.83,224.03 627.58,224.03 628.33,224.04 629.08,224.05 629.83,224.05 630.58,224.06 631.33,224.06 632.08,224.07 632.83,224.08 633.58,224.08 634.33,224.09 635.09,224.10 635.84,224.10 636.59,224.75 637.34,224.76 638.09,224.76 638.84,224.77 639.59,224.78 640.34,224.78 641.09,224.79 641.84,224.79 642.59,224.80 643.34,224.81 644.09,224.81 644.84,224.82 645.60,224.82 646.35,224.83 647.10,224.84 647.85,224.84 648.60,225.56 649.35,225.56 650.10,225.57 650.85,225.57 651.60,225.58 652.35,225.59 653.10,225.59 653.85,225.60 654.60,225.60 655.35,225.61 656.11,225.61 656.86,225.62 657.61,225.62 658.36,225.63 659.11,225.63 659.86,225.64 660.61,226.43 661.36,226.44 662.11,226.44 662.86,226.45 663.61,226.45 664.36,226.46 665.11,226.46 665.87,226.47 666.62,226.47 667.37,226.48 668.12,226.48 668.87,226.49 669.62,226.49 670.37,226.50 671.12,226.50 671.87,226.51 672.62,227.39 673.37,227.39 674.12,227.40 674.87,227.40 675.62,227.41 676.38,227.41 677.13,227.42 677.88,227.42 678.63,227.43 679.38,227.43 680.13,227.43 680.88,227.44 681.63,227.44 682.38,227.45 683.13,227.45 683.88,227.46 684.63,228.44 685.38,228.44 686.13,228.45 686.89,228.45 687.64,228.46 688.39,228.46 689.14,228.47 689.89,228.47 690.64,228.47 691.39,228.48 692.14,228.48 692.89,228.49 693.64,228.49 694.39,228.49 695.14,228.50 695.89,228.50 696.65,229.61 697.40,229.61 698.15,229.62 698.90,229.62 699.65,229.62 700.40,229.63 701.15,229.63 701.90,229.63 702.65,229.64 703.40,229.64 704.15,229.64 704.90,229.65 705.65,229.65 706.40,229.66 707.16,229.66 707.91,229.66 708.66,230.92 709.41,230.92 710.16,230.92 710.91,230.93 711.66,230.93 712.41,230.93 713.16,230.94 713.91,230.94 714.66,230.94 715.41,230.95 716.16,230.95 716.91,230.95 717.67,230.96 718.42,230.96 719.17,230.96 719.92,230.97 720.67,232.41 721.42,232.41 722.17,232.41 722.92,232.42 723.67,232.42 724.42,232.42 725.17,232.43 725.92,232.43 726.67,232.43 727.43,232.43 728.18,232.44 728.93,232.44 729.68,232.44 730.43,232.44 731.18,232.45 731.93,232.45 732.68,234.13 733.43,234.14 734.18,234.14 734.93,234.14 735.68,234.14 736.43,234.15 737.18,234.15 737.94,234.15 738.69,234.15 739.44,234.16 740.19,234.16 740.94,234.16 741.69,234.16 742.44,234.16 743.19,234.17 743.94,234.17 744.69,236.18 745.44,236.18 746.19,236.18 746.94,236.19 747.70,236.19 748.45,236.19 749.20,236.19 749.95,236.19 750.70,236.20 751.45,236.20 752.20,236.20 752.95,236.20 753.70,236.20 754.45,236.20 755.20,236.21 755.95,236.21 756.70,238.69 757.45,238.69 758.21,238.69 758.96,238.69 759.71,238.70 760.46,238.70 761.21,238.70 761.96,238.70 762.71,238.70 763.46,238.70 764.21,238.70 764.96,238.70 765.71,238.71 766.46,238.71 767.21,238.71 767.96,238.71 768.72,241.93 769.47,241.93 770.22,241.93 770.97,241.93 771.72,241.93 772.47,241.93 773.22,241.94 773.97,241.94 774.72,241.94 775.47,241.94 776.22,241.94 776.97,241.94 777.72,241.94 778.48,241.94 779.23,241.94 779.98,241.94 780.73,244.00 781.48,244.00 782.23,244.00 782.98,244.00 783.73,244.00 784.48,244.00 785.23,244.00 785.98,244.00 786.73,244.00 787.48,244.00 788.23,244.00 788.99,244.00 789.74,244.00 790.49,244.00 791.24,244.00 791.99,244.00 792.74,244.00 793.49,244.00 794.24,244.00 794.99,244.00 795.74,244.00 796.49,244.00 797.24,244.00 797.99,244.00 798.74,244.00 799.50,244.00 800.25,244.00 801.00,244.00 801.75,244.00 802.50,244.00 803.25,244.00 804.00,244.00" />
  <text x="420.0" y="22" text-anchor="middle" font-family="Arial, Helvetica, sans-serif" font-size="15" fill="#102a43">blackmanharris window (magnitude spectrum)</text>
  <text x="420.0" y="272" text-anchor="middle" font-family="Arial, Helvetica, sans-serif" font-size="12" fill="#334e68">normalized frequency</text>
  <text x="14" y="140.0" transform="rotate(-90 14,140.0)" text-anchor="middle" font-family="Arial, Helvetica, sans-serif" font-size="12" fill="#334e68">magnitude (dB)</text>
  <text x="36" y="262" font-family="Arial, Helvetica, sans-serif" font-size="11" fill="#486581">0</text>
  <text x="804" y="262" text-anchor="end" font-family="Arial, Helvetica, sans-serif" font-size="11" fill="#486581">1</text>
  <text x="30" y="40" text-anchor="end" font-family="Arial, Helvetica, sans-serif" font-size="11" fill="#486581">0.0</text>
  <text x="30" y="248" text-anchor="end" font-family="Arial, Helvetica, sans-serif" font-size="11" fill="#486581">-160.0</text>
</svg>
