<svg xmlns="http://www.w3.org/2000/svg" width="840" height="280" viewBox="0 0 840 280">
  <rect x="0" y="0" width="840" height="280" fill="#ffffff" />
  <rect x="36" y="36" width="768" height="208" fill="#f7fbff" stroke="#c8d9e6" />
  <polyline fill="none" stroke="#005f73" stroke-width="2" points="36.00,244.00 36.75,244.00 37.50,244.00 38.25,243.99 39.00,243.99 39.75,243.98 40.50,243.97 41.26,243.97 42.01,243.95 42.76,243.94 43.51,243.93 44.26,243.91 45.01,243.90 45.76,243.88 46.51,243.86 47.26,243.84 48.01,243.82 48.76,243.80 49.51,243.77 50.26,243.74 51.01,243.72 51.77,243.69 52.52,243.66 53.27,243.62 54.02,243.59 54.77,243.56 55.52,243.52 56.27,243.48 57.02,243.44 57.77,243.40 58.52,243.36 59.27,243.31 60.02,243.27 60.77,243.22 61.52,243.17 62.28,243.12 63.03,243.07 63.78,243.02 64.53,242.96 65.28,242.90 66.03,242.85 66.78,242.79 67.53,242.73 68.28,242.66 69.03,242.60 69.78,242.53 70.53,242.46 71.28,242.40 72.04,242.32 72.79,242.25 73.54,242.18 74.29,242.10 75.04,242.02 75.79,241.94 76.54,241.86 77.29,241.78 78.04,241.70 78.79,241.61 79.54,241.52 80.29,241.43 81.04,241.34 81.79,241.25 82.55,241.15 83.30,241.05 84.05,240.95 84.80,240.85 85.55,240.75 86.30,240.65 87.05,240.54 87.80,240.43 88.55,240.32 89.30,240.21 90.05,240.09 90.80,239.98 91.55,239.86 92.30,239.74 93.06,239.62 93.81,239.49 94.56,239.37 95.31,239.24 96.06,239.11 96.81,238.98 97.56,238.84 98.31,238.71 99.06,238.57 99.81,238.43 100.56,238.29 101.31,238.14 102.06,237.99 102.82,237.84 103.57,237.69 104.32,237.54 105.07,237.38 105.82,237.23 106.57,237.06 107.32,236.90 108.07,236.74 108.82,236.57 109.57,236.40 110.32,236.23 111.07,236.05 111.82,235.88 112.57,235.70 113.33,235.52 114.08,235.33 114.83,235.15 115.58,234.96 116.33,234.77 117.08,234.57 117.83,234.38 118.58,234.18 119.33,233.98 120.08,233.78 120.83,233.57 121.58,233.36 122.33,233.15 123.09,232.94 123.84,232.72 124.59,232.50 125.34,232.28 126.09,232.05 126.84,231.83 127.59,231.60 128.34,231.37 129.09,231.13 129.84,230.89 130.59,230.65 131.34,230.41 132.09,230.16 132.84,229.91 133.60,229.66 134.35,229.41 135.10,229.15 135.85,228.89 136.60,228.63 137.35,228.36 138.10,228.10 138.85,227.82 139.60,227.55 140.35,227.27 141.10,226.99 141.85,226.71 142.60,226.42 143.35,226.13 144.11,225.84 144.86,225.55 145.61,225.25 146.36,224.95 147.11,224.65 147.86,224.34 148.61,224.03 149.36,223.72 150.11,223.40 150.86,223.08 151.61,222.76 152.36,222.43 153.11,222.10 153.87,221.77 154.62,221.44 155.37,221.10 156.12,220.76 156.87,220.42 157.62,220.07 158.37,219.72 159.12,219.37 159.87,219.01 160.62,218.65 161.37,218.29 162.12,217.92 162.87,217.55 163.62,217.18 164.38,216.80 165.13,216.42 165.88,216.04 166.63,215.66 167.38,215.27 168.13,214.88 168.88,214.48 169.63,214.08 170.38,213.68 171.13,213.28 171.88,212.87 172.63,212.46 173.38,212.04 174.13,211.62 174.89,211.20 175.64,210.78 176.39,210.35 177.14,209.92 177.89,209.49 178.64,209.05 179.39,208.61 180.14,208.16 180.89,207.72 181.64,207.27 182.39,206.81 183.14,206.35 183.89,205.89 184.65,205.43 185.40,204.96 186.15,204.49 186.90,204.02 187.65,203.54 188.40,203.06 189.15,202.58 189.90,202.09 190.65,201.60 191.40,201.11 192.15,200.61 192.90,200.12 193.65,199.61 194.40,199.11 195.16,198.60 195.91,198.09 196.66,197.57 197.41,197.05 198.16,196.53 198.91,196.01 199.66,195.48 200.41,194.95 201.16,194.41 201.91,193.87 202.66,193.33 203.41,192.79 204.16,192.24 204.91,191.69 205.67,191.14 206.42,190.58 207.17,190.02 207.92,189.46 208.67,188.90 209.42,188.33 210.17,187.76 210.92,187.18 211.67,186.61 212.42,186.03 213.17,185.44 213.92,184.86 214.67,184.27 215.43,183.68 216.18,183.08 216.93,182.49 217.68,181.89 218.43,181.28 219.18,180.68 219.93,180.07 220.68,179.46 221.43,178.84 222.18,178.23 222.93,177.61 223.68,176.99 224.43,176.36 225.18,175.73 225.94,175.11 226.69,174.47 227.44,173.84 228.19,173.20 228.94,172.56 229.69,171.92 230.44,171.27 231.19,170.63 231.94,169.98 232.69,169.32 233.44,168.67 234.19,168.01 234.94,167.35 235.70,166.69 236.45,166.03 237.20,165.36 237.95,164.69 238.70,164.02 239.45,163.35 240.20,162.68 240.95,162.00 241.70,161.32 242.45,160.64 243.20,159.96 243.95,159.27 244.70,158.59 245.45,157.90 246.21,157.21 246.96,156.52 247.71,155.82 248.46,155.13 249.21,154.43 249.96,153.73 250.71,153.03 251.46,152.33 252.21,151.62 252.96,150.92 253.71,150.21 254.46,149.50 255.21,148.79 255.96,148.08 256.72,147.37 257.47,146.66 258.22,145.94 258.97,145.23 259.72,144.51 260.47,143.79 261.22,143.07 261.97,142.35 262.72,141.63 263.47,140.90 264.22,140.18 264.97,139.45 265.72,138.73 266.48,138.00 267.23,137.27 267.98,136.54 268.73,135.82 269.48,135.09 270.23,134.36 270.98,133.62 271.73,132.89 272.48,132.16 273.23,131.43 273.98,130.69 274.73,129.96 275.48,129.23 276.23,128.49 276.99,127.76 277.74,127.02 278.49,126.29 279.24,125.55 279.99,124.82 280.74,124.08 281.49,123.35 282.24,122.61 282.99,121.88 283.74,121.14 284.49,120.41 285.24,119.67 285.99,118.94 286.74,118.21 287.50,117.47 288.25,116.74 289.00,116.01 289.75,115.27 290.50,114.54 291.25,113.81 292.00,113.08 292.75,112.35 293.50,111.62 294.25,110.90 295.00,110.17 295.75,109.44 296.50,108.72 297.26,107.99 298.01,107.27 298.76,106.55 299.51,105.82 300.26,105.10 301.01,104.39 301.76,103.67 302.51,102.95 303.26,102.24 304.01,101.52 304.76,100.81 305.51,100.10 306.26,99.39 307.01,98.69 307.77,97.98 308.52,97.28 309.27,96.57 310.02,95.87 310.77,95.18 311.52,94.48 312.27,93.78 313.02,93.09 313.77,92.40 314.52,91.71 315.27,91.03 316.02,90.34 316.77,89.66 317.52,88.98 318.28,88.30 319.03,87.63 319.78,86.96 320.53,86.29 321.28,85.62 322.03,84.96 322.78,84.29 323.53,83.63 324.28,82.98 325.03,82.32 325.78,81.67 326.53,81.03 327.28,80.38 328.04,79.74 328.79,79.10 329.54,78.46 330.29,77.83 331.04,77.20 331.79,76.57 332.54,75.95 333.29,75.33 334.04,74.71 334.79,74.10 335.54,73.49 336.29,72.88 337.04,72.28 337.79,71.68 338.55,71.08 339.30,70.49 340.05,69.90 340.80,69.32 341.55,68.74 342.30,68.16 343.05,67.59 343.80,67.02 344.55,66.45 345.30,65.89 346.05,65.34 346.80,64.78 347.55,64.23 348.30,63.69 349.06,63.15 349.81,62.61 350.56,62.08 351.31,61.55 352.06,61.03 352.81,60.51 353.56,60.00 354.31,59.49 355.06,58.98 355.81,58.48 356.56,57.99 357.31,57.49 358.06,57.01 358.82,56.53 359.57,56.05 360.32,55.58 361.07,55.11 361.82,54.65 362.57,54.19 363.32,53.74 364.07,53.29 364.82,52.85 365.57,52.41 366.32,51.98 367.07,51.55 367.82,51.13 368.57,50.71 369.33,50.30 370.08,49.89 370.83,49.49 371.58,49.10 372.33,48.71 373.08,48.32 373.83,47.94 374.58,47.57 375.33,47.20 376.08,46.84 376.83,46.48 377.58,46.13 378.33,45.78 379.09,45.44 379.84,45.10 380.59,44.78 381.34,44.45 382.09,44.13 382.84,43.82 383.59,43.52 384.34,43.21 385.09,42.92 385.84,42.63 386.59,42.35 387.34,42.07 388.09,41.80 388.84,41.54 389.60,41.28 390.35,41.02 391.10,40.78 391.85,40.54 392.60,40.30 393.35,40.07 394.10,39.85 394.85,39.63 395.60,39.42 396.35,39.22 397.10,39.02 397.85,38.83 398.60,38.64 399.35,38.46 400.11,38.29 400.86,38.12 401.61,37.96 402.36,37.81 403.11,37.66 403.86,37.52 404.61,37.38 405.36,37.25 406.11,37.13 406.86,37.01 407.61,36.90 408.36,36.80 409.11,36.70 409.87,36.61 410.62,36.52 411.37,36.44 412.12,36.37 412.87,36.31 413.62,36.25 414.37,36.19 415.12,36.15 415.87,36.11 416.62,36.07 417.37,36.05 418.12,36.02 418.87,36.01 419.62,36.00 420.38,36.00 421.13,36.01 421.88,36.02 422.63,36.03 423.38,36.06 424.13,36.09 424.88,36.13 425.63,36.17 426.38,36.22 427.13,36.27 427.88,36.34 428.63,36.41 429.38,36.48 430.13,36.56 430.89,36.65 431.64,36.75 432.39,36.85 433.14,36.95 433.89,37.07 434.64,37.19 435.39,37.31 436.14,37.45 436.89,37.59 437.64,37.73 438.39,37.88 439.14,38.04 439.89,38.20 440.65,38.37 441.40,38.55 442.15,38.73 442.90,38.92 443.65,39.12 444.40,39.32 445.15,39.53 445.90,39.74 446.65,39.96 447.40,40.19 448.15,40.42 448.90,40.66 449.65,40.90 450.40,41.15 451.16,41.41 451.91,41.67 452.66,41.94 453.41,42.21 454.16,42.49 454.91,42.78 455.66,43.07 456.41,43.36 457.16,43.67 457.91,43.98 458.66,44.29 459.41,44.61 460.16,44.94 460.91,45.27 461.67,45.61 462.42,45.95 463.17,46.30 463.92,46.66 464.67,47.02 465.42,47.38 466.17,47.75 466.92,48.13 467.67,48.51 468.42,48.90 469.17,49.29 469.92,49.69 470.67,50.09 471.43,50.50 472.18,50.92 472.93,51.34 473.68,51.76 474.43,52.19 475.18,52.63 475.93,53.07 476.68,53.51 477.43,53.96 478.18,54.42 478.93,54.88 479.68,55.34 480.43,55.81 481.18,56.29 481.94,56.77 482.69,57.25 483.44,57.74 484.19,58.23 484.94,58.73 485.69,59.23 486.44,59.74 487.19,60.25 487.94,60.77 488.69,61.29 489.44,61.82 490.19,62.35 490.94,62.88 491.70,63.42 492.45,63.96 493.20,64.51 493.95,65.06 494.70,65.61 495.45,66.17 496.20,66.74 496.95,67.30 497.70,67.87 498.45,68.45 499.20,69.03 499.95,69.61 500.70,70.20 501.45,70.79 502.21,71.38 502.96,71.98 503.71,72.58 504.46,73.19 505.21,73.79 505.96,74.41 506.71,75.02 507.46,75.64 508.21,76.26 508.96,76.89 509.71,77.51 510.46,78.15 511.21,78.78 511.96,79.42 512.72,80.06 513.47,80.70 514.22,81.35 514.97,82.00 515.72,82.65 516.47,83.31 517.22,83.96 517.97,84.62 518.72,85.29 519.47,85.95 520.22,86.62 520.97,87.29 521.72,87.97 522.48,88.64 523.23,89.32 523.98,90.00 524.73,90.68 525.48,91.37 526.23,92.06 526.98,92.75 527.73,93.44 528.48,94.13 529.23,94.83 529.98,95.52 530.73,96.22 531.48,96.93 532.23,97.63 532.99,98.33 533.74,99.04 534.49,99.75 535.24,100.46 535.99,101.17 536.74,101.88 537.49,102.59 538.24,103.31 538.99,104.03 539.74,104.75 540.49,105.46 541.24,106.19 541.99,106.91 542.74,107.63 543.50,108.35 544.25,109.08 545.00,109.80 545.75,110.53 546.50,111.26 547.25,111.99 548.00,112.72 548.75,113.45 549.50,114.18 550.25,114.91 551.00,115.64 551.75,116.37 552.50,117.11 553.26,117.84 554.01,118.57 554.76,119.31 555.51,120.04 556.26,120.78 557.01,121.51 557.76,122.25 558.51,122.98 559.26,123.72 560.01,124.45 560.76,125.19 561.51,125.92 562.26,126.66 563.01,127.39 563.77,128.13 564.52,128.86 565.27,129.59 566.02,130.33 566.77,131.06 567.52,131.79 568.27,132.53 569.02,133.26 569.77,133.99 570.52,134.72 571.27,135.45 572.02,136.18 572.77,136.91 573.52,137.64 574.28,138.36 575.03,139.09 575.78,139.82 576.53,140.54 577.28,141.26 578.03,141.99 578.78,142.71 579.53,143.43 580.28,144.15 581.03,144.87 581.78,145.58 582.53,146.30 583.28,147.01 584.04,147.73 584.79,148.44 585.54,149.15 586.29,149.86 587.04,150.57 587.79,151.27 588.54,151.98 589.29,152.68 590.04,153.38 590.79,154.08 591.54,154.78 592.29,155.48 593.04,156.17 593.79,156.86 594.55,157.55 595.30,158.24 596.05,158.93 596.80,159.62 597.55,160.30 598.30,160.98 599.05,161.66 599.80,162.34 600.55,163.01 601.30,163.69 602.05,164.36 602.80,165.03 603.55,165.70 604.30,166.36 605.06,167.02 605.81,167.68 606.56,168.34 607.31,169.00 608.06,169.65 608.81,170.30 609.56,170.95 610.31,171.60 611.06,172.24 611.81,172.88 612.56,173.52 613.31,174.16 614.06,174.79 614.82,175.42 615.57,176.05 616.32,176.67 617.07,177.30 617.82,177.92 618.57,178.54 619.32,179.15 620.07,179.76 620.82,180.37 621.57,180.98 622.32,181.59 623.07,182.19 623.82,182.79 624.57,183.38 625.33,183.97 626.08,184.56 626.83,185.15 627.58,185.74 628.33,186.32 629.08,186.90 629.83,187.47 630.58,188.04 631.33,188.61 632.08,189.18 632.83,189.74 633.58,190.30 634.33,190.86 635.09,191.42 635.84,191.97 636.59,192.52 637.34,193.06 638.09,193.60 638.84,194.14 639.59,194.68 640.34,195.21 641.09,195.74 641.84,196.27 642.59,196.79 643.34,197.31 644.09,197.83 644.84,198.34 645.60,198.85 646.35,199.36 647.10,199.86 647.85,200.37 648.60,200.86 649.35,201.36 650.10,201.85 650.85,202.34 651.60,202.82 652.35,203.30 653.10,203.78 653.85,204.26 654.60,204.73 655.35,205.20 656.11,205.66 656.86,206.12 657.61,206.58 658.36,207.04 659.11,207.49 659.86,207.94 660.61,208.39 661.36,208.83 662.11,209.27 662.86,209.70 663.61,210.14 664.36,210.57 665.11,210.99 665.87,211.41 666.62,211.83 667.37,212.25 668.12,212.66 668.87,213.07 669.62,213.48 670.37,213.88 671.12,214.28 671.87,214.68 672.62,215.07 673.37,215.46 674.12,215.85 674.87,216.23 675.62,216.61 676.38,216.99 677.13,217.37 677.88,217.74 678.63,218.10 679.38,218.47 680.13,218.83 680.88,219.19 681.63,219.54 682.38,219.89 683.13,220.24 683.88,220.59 684.63,220.93 685.38,221.27 686.13,221.61 686.89,221.94 687.64,222.27 688.39,222.60 689.14,222.92 689.89,223.24 690.64,223.56 691.39,223.87 692.14,224.18 692.89,224.49 693.64,224.80 694.39,225.10 695.14,225.40 695.89,225.70 696.65,225.99 697.40,226.28 698.15,226.57 698.90,226.85 699.65,227.13 700.40,227.41 701.15,227.69 701.90,227.96 702.65,228.23 703.40,228.50 704.15,228.76 704.90,229.02 705.65,229.28 706.40,229.54 707.16,229.79 707.91,230.04 708.66,230.29 709.41,230.53 710.16,230.77 710.91,231.01 711.66,231.25 712.41,231.48 713.16,231.71 713.91,231.94 714.66,232.17 715.41,232.39 716.16,232.61 716.91,232.83 717.67,233.04 718.42,233.26 719.17,233.47 719.92,233.67 720.67,233.88 721.42,234.08 722.17,234.28 722.92,234.48 723.67,234.67 724.42,234.86 725.17,235.05 725.92,235.24 726.67,235.43 727.43,235.61 728.18,235.79 728.93,235.97 729.68,236.14 730.43,236.31 731.18,236.49 731.93,236.65 732.68,236.82 733.43,236.98 734.18,237.15 734.93,237.30 735.68,237.46 736.43,237.62 737.18,237.77 737.94,237.92 738.69,238.07 739.44,238.21 740.19,238.36 740.94,238.50 741.69,238.64 742.44,238.78 743.19,238.91 743.94,239.04 744.69,239.18 745.44,239.30 746.19,239.43 746.94,239.56 747.70,239.68 748.45,239.80 749.20,239.92 749.95,240.04 750.70,240.15 751.45,240.27 752.20,240.38 752.95,240.49 753.70,240.59 754.45,240.70 755.20,240.80 755.95,240.90 756.70,241.00 757.45,241.10 758.21,241.20 758.96,241.29 759.71,241.39 760.46,241.48 761.21,241.57 761.96,241.65 762.71,241.74 763.46,241.82 764.21,241.90 764.96,241.98 765.71,242.06 766.46,242.14 767.21,242.21 767.96,242.29 768.72,242.36 769.47,242.43 770.22,242.50 770.97,242.57 771.72,242.63 772.47,242.69 773.22,242.76 773.97,242.82 774.72,242.88 775.47,242.93 776.22,242.99 776.97,243.04 777.72,243.10 778.48,243.15 779.23,243.20 779.98,243.24 780.73,243.29 781.48,243.34 782.23,243.38 782.98,243.42 783.73,243.46 784.48,243.50 785.23,243.54 785.98,243.57 786.73,243.61 787.48,243.64 788.23,243.67 788.99,243.70 789.74,243.73 790.49,243.76 791.24,243.78 791.99,243.81 792.74,243.83 793.49,243.85 794.24,243.87 794.99,243.89 795.74,243.91 796.49,243.92 797.24,243.94 797.99,243.95 798.74,243.96 799.50,243.97 800.25,243.98 801.00,243.99 801.75,243.99 802.50,244.00 803.25,244.00 804.00,244.00" />
  <text x="420.0" y="22" text-anchor="middle" font-family="Arial, Helvetica, sans-serif" font-size="15" fill="#102a43">blackman window (time domain)</text>
  <text x="420.0" y="272" text-anchor="middle" font-family="Arial, Helvetica, sans-serif" font-size="12" fill="#334e68">normalized sample index</text>
  <text x="14" y="140.0" transform="rotate(-90 14,140.0)" text-anchor="middle" font-family="Arial, Helvetica, sans-serif" font-size="12" fill="#334e68">amplitude</text>
  <text x="36" y="262" font-family="Arial, Helvetica, sans-serif" font-size="11" fill="#486581">0</text>
  <text x="804" y="262" text-anchor="end" font-family="Arial, Helvetica, sans-serif" font-size="11" fill="#486581">1</text>
  <text x="30" y="40" text-anchor="end" font-family="Arial, Helvetica, sans-serif" font-size="11" fill="#486581">1.0</text>
  <text x="30" y="248" text-anchor="end" font-family="Arial, Helvetica, sans-serif" font-size="11" fill="#486581">0.0</text>
</svg>
