<svg xmlns="http://www.w3.org/2000/svg" width="840" height="280" viewBox="0 0 840 280">
  <rect x="0" y="0" width="840" height="280" fill="#ffffff" />
  <rect x="36" y="36" width="768" height="208" fill="#f7fbff" stroke="#c8d9e6" />
  <polyline fill="none" stroke="#005f73" stroke-width="2" points="36.00,244.00 36.75,244.00 37.50,244.00 38.25,244.00 39.00,244.00 39.75,244.00 40.50,244.00 41.26,244.00 42.01,244.00 42.76,244.00 43.51,243.99 44.26,243.99 45.01,243.99 45.76,243.99 46.51,243.99 47.26,243.98 48.01,243.98 48.76,243.97 49.51,243.97 50.26,243.97 51.01,243.96 51.77,243.95 52.52,243.95 53.27,243.94 54.02,243.93 54.77,243.92 55.52,243.91 56.27,243.90 57.02,243.89 57.77,243.88 58.52,243.86 59.27,243.85 60.02,243.83 60.77,243.82 61.52,243.80 62.28,243.78 63.03,243.76 63.78,243.74 64.53,243.72 65.28,243.70 66.03,243.68 66.78,243.65 67.53,243.62 68.28,243.60 69.03,243.57 69.78,243.54 70.53,243.51 71.28,243.47 72.04,243.44 72.79,243.40 73.54,243.37 74.29,243.33 75.04,243.29 75.79,243.25 76.54,243.20 77.29,243.16 78.04,243.11 78.79,243.07 79.54,243.02 80.29,242.97 81.04,242.91 81.79,242.86 82.55,242.80 83.30,242.74 84.05,242.68 84.80,242.62 85.55,242.56 86.30,242.49 87.05,242.42 87.80,242.35 88.55,242.28 89.30,242.21 90.05,242.13 90.80,242.05 91.55,241.97 92.30,241.89 93.06,241.81 93.81,241.72 94.56,241.63 95.31,241.54 96.06,241.45 96.81,241.35 97.56,241.26 98.31,241.16 99.06,241.05 99.81,240.95 100.56,240.84 101.31,240.73 102.06,240.62 102.82,240.51 103.57,240.39 104.32,240.27 105.07,240.15 105.82,240.03 106.57,239.90 107.32,239.77 108.07,239.64 108.82,239.50 109.57,239.37 110.32,239.23 111.07,239.08 111.82,238.94 112.57,238.79 113.33,238.64 114.08,238.49 114.83,238.33 115.58,238.17 116.33,238.01 117.08,237.85 117.83,237.68 118.58,237.51 119.33,237.34 120.08,237.16 120.83,236.98 121.58,236.80 122.33,236.61 123.09,236.43 123.84,236.24 124.59,236.04 125.34,235.85 126.09,235.65 126.84,235.44 127.59,235.24 128.34,235.03 129.09,234.82 129.84,234.60 130.59,234.38 131.34,234.16 132.09,233.94 132.84,233.71 133.60,233.48 134.35,233.25 135.10,233.01 135.85,232.77 136.60,232.53 137.35,232.28 138.10,232.03 138.85,231.78 139.60,231.52 140.35,231.26 141.10,231.00 141.85,230.73 142.60,230.46 143.35,230.19 144.11,229.91 144.86,229.63 145.61,229.35 146.36,229.06 147.11,228.77 147.86,228.48 148.61,228.19 149.36,227.89 150.11,227.58 150.86,227.28 151.61,226.97 152.36,226.65 153.11,226.34 153.87,226.02 154.62,225.69 155.37,225.37 156.12,225.04 156.87,224.70 157.62,224.36 158.37,224.02 159.12,223.68 159.87,223.33 160.62,222.98 161.37,222.63 162.12,222.27 162.87,221.91 163.62,221.54 164.38,221.17 165.13,220.80 165.88,220.43 166.63,220.05 167.38,219.67 168.13,219.28 168.88,218.89 169.63,218.50 170.38,218.10 171.13,217.70 171.88,217.30 172.63,216.89 173.38,216.48 174.13,216.07 174.89,215.65 175.64,215.23 176.39,214.81 177.14,214.38 177.89,213.95 178.64,213.52 179.39,213.08 180.14,212.64 180.89,212.19 181.64,211.75 182.39,211.30 183.14,210.84 183.89,210.38 184.65,209.92 185.40,209.46 186.15,208.99 186.90,208.52 187.65,208.04 188.40,207.56 189.15,207.08 189.90,206.60 190.65,206.11 191.40,205.62 192.15,205.12 192.90,204.62 193.65,204.12 194.40,203.62 195.16,203.11 195.91,202.60 196.66,202.08 197.41,201.56 198.16,201.04 198.91,200.52 199.66,199.99 200.41,199.46 201.16,198.92 201.91,198.39 202.66,197.85 203.41,197.30 204.16,196.76 204.91,196.21 205.67,195.65 206.42,195.10 207.17,194.54 207.92,193.98 208.67,193.41 209.42,192.84 210.17,192.27 210.92,191.70 211.67,191.12 212.42,190.54 213.17,189.96 213.92,189.37 214.67,188.78 215.43,188.19 216.18,187.60 216.93,187.00 217.68,186.40 218.43,185.80 219.18,185.19 219.93,184.58 220.68,183.97 221.43,183.36 222.18,182.74 222.93,182.12 223.68,181.50 224.43,180.87 225.18,180.25 225.94,179.62 226.69,178.98 227.44,178.35 228.19,177.71 228.94,177.07 229.69,176.43 230.44,175.78 231.19,175.14 231.94,174.49 232.69,173.84 233.44,173.18 234.19,172.52 234.94,171.86 235.70,171.20 236.45,170.54 237.20,169.87 237.95,169.21 238.70,168.54 239.45,167.86 240.20,167.19 240.95,166.51 241.70,165.83 242.45,165.15 243.20,164.47 243.95,163.79 244.70,163.10 245.45,162.41 246.21,161.72 246.96,161.03 247.71,160.34 248.46,159.64 249.21,158.94 249.96,158.25 250.71,157.55 251.46,156.84 252.21,156.14 252.96,155.43 253.71,154.73 254.46,154.02 255.21,153.31 255.96,152.60 256.72,151.88 257.47,151.17 258.22,150.45 258.97,149.74 259.72,149.02 260.47,148.30 261.22,147.58 261.97,146.86 262.72,146.13 263.47,145.41 264.22,144.68 264.97,143.96 265.72,143.23 266.48,142.50 267.23,141.77 267.98,141.04 268.73,140.31 269.48,139.58 270.23,138.85 270.98,138.12 271.73,137.38 272.48,136.65 273.23,135.91 273.98,135.18 274.73,134.44 275.48,133.70 276.23,132.97 276.99,132.23 277.74,131.49 278.49,130.75 279.24,130.01 279.99,129.28 280.74,128.54 281.49,127.80 282.24,127.06 282.99,126.32 283.74,125.58 284.49,124.84 285.24,124.10 285.99,123.36 286.74,122.62 287.50,121.88 288.25,121.14 289.00,120.40 289.75,119.67 290.50,118.93 291.25,118.19 292.00,117.45 292.75,116.71 293.50,115.98 294.25,115.24 295.00,114.51 295.75,113.77 296.50,113.04 297.26,112.30 298.01,111.57 298.76,110.84 299.51,110.11 300.26,109.38 301.01,108.65 301.76,107.92 302.51,107.19 303.26,106.47 304.01,105.74 304.76,105.02 305.51,104.29 306.26,103.57 307.01,102.85 307.77,102.13 308.52,101.42 309.27,100.70 310.02,99.99 310.77,99.27 311.52,98.56 312.27,97.85 313.02,97.14 313.77,96.44 314.52,95.73 315.27,95.03 316.02,94.33 316.77,93.63 317.52,92.93 318.28,92.23 319.03,91.54 319.78,90.85 320.53,90.16 321.28,89.47 322.03,88.79 322.78,88.11 323.53,87.43 324.28,86.75 325.03,86.07 325.78,85.40 326.53,84.73 327.28,84.06 328.04,83.40 328.79,82.73 329.54,82.07 330.29,81.42 331.04,80.76 331.79,80.11 332.54,79.46 333.29,78.81 334.04,78.17 334.79,77.53 335.54,76.89 336.29,76.26 337.04,75.63 337.79,75.00 338.55,74.38 339.30,73.76 340.05,73.14 340.80,72.53 341.55,71.91 342.30,71.31 343.05,70.70 343.80,70.10 344.55,69.51 345.30,68.91 346.05,68.33 346.80,67.74 347.55,67.16 348.30,66.58 349.06,66.01 349.81,65.44 350.56,64.87 351.31,64.31 352.06,63.75 352.81,63.20 353.56,62.65 354.31,62.11 355.06,61.57 355.81,61.03 356.56,60.50 357.31,59.97 358.06,59.45 358.82,58.93 359.57,58.41 360.32,57.91 361.07,57.40 361.82,56.90 362.57,56.41 363.32,55.92 364.07,55.43 364.82,54.95 365.57,54.47 366.32,54.00 367.07,53.54 367.82,53.08 368.57,52.62 369.33,52.17 370.08,51.73 370.83,51.29 371.58,50.85 372.33,50.42 373.08,50.00 373.83,49.58 374.58,49.17 375.33,48.76 376.08,48.36 376.83,47.96 377.58,47.57 378.33,47.19 379.09,46.81 379.84,46.44 380.59,46.07 381.34,45.71 382.09,45.35 382.84,45.00 383.59,44.66 384.34,44.32 385.09,43.99 385.84,43.66 386.59,43.35 387.34,43.03 388.09,42.73 388.84,42.43 389.60,42.13 390.35,41.84 391.10,41.56 391.85,41.29 392.60,41.02 393.35,40.76 394.10,40.50 394.85,40.25 395.60,40.01 396.35,39.78 397.10,39.55 397.85,39.33 398.60,39.11 399.35,38.90 400.11,38.70 400.86,38.51 401.61,38.32 402.36,38.14 403.11,37.97 403.86,37.80 404.61,37.64 405.36,37.49 406.11,37.34 406.86,37.21 407.61,37.07 408.36,36.95 409.11,36.84 409.87,36.73 410.62,36.63 411.37,36.53 412.12,36.45 412.87,36.37 413.62,36.30 414.37,36.23 415.12,36.18 415.87,36.13 416.62,36.09 417.37,36.05 418.12,36.03 418.87,36.01 419.62,36.00 420.38,36.00 421.13,36.01 421.88,36.02 422.63,36.04 423.38,36.07 424.13,36.11 424.88,36.15 425.63,36.20 426.38,36.26 427.13,36.33 427.88,36.41 428.63,36.49 429.38,36.58 430.13,36.68 430.89,36.78 431.64,36.89 432.39,37.01 433.14,37.14 433.89,37.27 434.64,37.41 435.39,37.56 436.14,37.72 436.89,37.88 437.64,38.05 438.39,38.23 439.14,38.41 439.89,38.60 440.65,38.80 441.40,39.01 442.15,39.22 442.90,39.44 443.65,39.66 444.40,39.89 445.15,40.13 445.90,40.38 446.65,40.63 447.40,40.89 448.15,41.15 448.90,41.42 449.65,41.70 450.40,41.99 451.16,42.28 451.91,42.57 452.66,42.88 453.41,43.19 454.16,43.50 454.91,43.83 455.66,44.15 456.41,44.49 457.16,44.83 457.91,45.18 458.66,45.53 459.41,45.89 460.16,46.25 460.91,46.62 461.67,47.00 462.42,47.38 463.17,47.77 463.92,48.16 464.67,48.56 465.42,48.96 466.17,49.37 466.92,49.79 467.67,50.21 468.42,50.64 469.17,51.07 469.92,51.51 470.67,51.95 471.43,52.40 472.18,52.85 472.93,53.31 473.68,53.77 474.43,54.24 475.18,54.71 475.93,55.19 476.68,55.67 477.43,56.16 478.18,56.65 478.93,57.15 479.68,57.65 480.43,58.16 481.18,58.67 481.94,59.19 482.69,59.71 483.44,60.23 484.19,60.76 484.94,61.30 485.69,61.84 486.44,62.38 487.19,62.92 487.94,63.48 488.69,64.03 489.44,64.59 490.19,65.15 490.94,65.72 491.70,66.29 492.45,66.87 493.20,67.45 493.95,68.03 494.70,68.62 495.45,69.21 496.20,69.80 496.95,70.40 497.70,71.01 498.45,71.61 499.20,72.22 499.95,72.83 500.70,73.45 501.45,74.07 502.21,74.69 502.96,75.32 503.71,75.94 504.46,76.58 505.21,77.21 505.96,77.85 506.71,78.49 507.46,79.14 508.21,79.78 508.96,80.43 509.71,81.09 510.46,81.74 511.21,82.40 511.96,83.06 512.72,83.73 513.47,84.39 514.22,85.06 514.97,85.74 515.72,86.41 516.47,87.09 517.22,87.77 517.97,88.45 518.72,89.13 519.47,89.82 520.22,90.50 520.97,91.20 521.72,91.89 522.48,92.58 523.23,93.28 523.98,93.98 524.73,94.68 525.48,95.38 526.23,96.08 526.98,96.79 527.73,97.50 528.48,98.21 529.23,98.92 529.98,99.63 530.73,100.34 531.48,101.06 532.23,101.77 532.99,102.49 533.74,103.21 534.49,103.93 535.24,104.66 535.99,105.38 536.74,106.10 537.49,106.83 538.24,107.56 538.99,108.28 539.74,109.01 540.49,109.74 541.24,110.47 541.99,111.20 542.74,111.94 543.50,112.67 544.25,113.40 545.00,114.14 545.75,114.87 546.50,115.61 547.25,116.35 548.00,117.08 548.75,117.82 549.50,118.56 550.25,119.30 551.00,120.03 551.75,120.77 552.50,121.51 553.26,122.25 554.01,122.99 554.76,123.73 555.51,124.47 556.26,125.21 557.01,125.95 557.76,126.69 558.51,127.43 559.26,128.17 560.01,128.91 560.76,129.65 561.51,130.38 562.26,131.12 563.01,131.86 563.77,132.60 564.52,133.34 565.27,134.07 566.02,134.81 566.77,135.55 567.52,136.28 568.27,137.02 569.02,137.75 569.77,138.48 570.52,139.22 571.27,139.95 572.02,140.68 572.77,141.41 573.52,142.14 574.28,142.87 575.03,143.59 575.78,144.32 576.53,145.05 577.28,145.77 578.03,146.50 578.78,147.22 579.53,147.94 580.28,148.66 581.03,149.38 581.78,150.10 582.53,150.81 583.28,151.53 584.04,152.24 584.79,152.95 585.54,153.66 586.29,154.37 587.04,155.08 587.79,155.79 588.54,156.49 589.29,157.19 590.04,157.90 590.79,158.60 591.54,159.29 592.29,159.99 593.04,160.68 593.79,161.38 594.55,162.07 595.30,162.76 596.05,163.44 596.80,164.13 597.55,164.81 598.30,165.49 599.05,166.17 599.80,166.85 600.55,167.53 601.30,168.20 602.05,168.87 602.80,169.54 603.55,170.21 604.30,170.87 605.06,171.53 605.81,172.19 606.56,172.85 607.31,173.51 608.06,174.16 608.81,174.81 609.56,175.46 610.31,176.11 611.06,176.75 611.81,177.39 612.56,178.03 613.31,178.67 614.06,179.30 614.82,179.93 615.57,180.56 616.32,181.19 617.07,181.81 617.82,182.43 618.57,183.05 619.32,183.66 620.07,184.28 620.82,184.89 621.57,185.49 622.32,186.10 623.07,186.70 623.82,187.30 624.57,187.89 625.33,188.49 626.08,189.08 626.83,189.67 627.58,190.25 628.33,190.83 629.08,191.41 629.83,191.99 630.58,192.56 631.33,193.13 632.08,193.69 632.83,194.26 633.58,194.82 634.33,195.38 635.09,195.93 635.84,196.48 636.59,197.03 637.34,197.58 638.09,198.12 638.84,198.66 639.59,199.19 640.34,199.72 641.09,200.25 641.84,200.78 642.59,201.30 643.34,201.82 644.09,202.34 644.84,202.85 645.60,203.36 646.35,203.87 647.10,204.37 647.85,204.87 648.60,205.37 649.35,205.86 650.10,206.35 650.85,206.84 651.60,207.32 652.35,207.80 653.10,208.28 653.85,208.75 654.60,209.22 655.35,209.69 656.11,210.15 656.86,210.61 657.61,211.07 658.36,211.52 659.11,211.97 659.86,212.42 660.61,212.86 661.36,213.30 662.11,213.74 662.86,214.17 663.61,214.60 664.36,215.02 665.11,215.44 665.87,215.86 666.62,216.28 667.37,216.69 668.12,217.10 668.87,217.50 669.62,217.90 670.37,218.30 671.12,218.70 671.87,219.09 672.62,219.47 673.37,219.86 674.12,220.24 674.87,220.62 675.62,220.99 676.38,221.36 677.13,221.73 677.88,222.09 678.63,222.45 679.38,222.80 680.13,223.16 680.88,223.51 681.63,223.85 682.38,224.19 683.13,224.53 683.88,224.87 684.63,225.20 685.38,225.53 686.13,225.86 686.89,226.18 687.64,226.50 688.39,226.81 689.14,227.12 689.89,227.43 690.64,227.73 691.39,228.04 692.14,228.33 692.89,228.63 693.64,228.92 694.39,229.21 695.14,229.49 695.89,229.77 696.65,230.05 697.40,230.33 698.15,230.60 698.90,230.86 699.65,231.13 700.40,231.39 701.15,231.65 701.90,231.90 702.65,232.16 703.40,232.40 704.15,232.65 704.90,232.89 705.65,233.13 706.40,233.36 707.16,233.60 707.91,233.83 708.66,234.05 709.41,234.27 710.16,234.49 710.91,234.71 711.66,234.92 712.41,235.13 713.16,235.34 713.91,235.55 714.66,235.75 715.41,235.95 716.16,236.14 716.91,236.33 717.67,236.52 718.42,236.71 719.17,236.89 719.92,237.07 720.67,237.25 721.42,237.42 722.17,237.59 722.92,237.76 723.67,237.93 724.42,238.09 725.17,238.25 725.92,238.41 726.67,238.56 727.43,238.72 728.18,238.87 728.93,239.01 729.68,239.16 730.43,239.30 731.18,239.43 731.93,239.57 732.68,239.70 733.43,239.83 734.18,239.96 734.93,240.09 735.68,240.21 736.43,240.33 737.18,240.45 737.94,240.56 738.69,240.68 739.44,240.79 740.19,240.90 740.94,241.00 741.69,241.10 742.44,241.21 743.19,241.30 743.94,241.40 744.69,241.50 745.44,241.59 746.19,241.68 746.94,241.76 747.70,241.85 748.45,241.93 749.20,242.01 749.95,242.09 750.70,242.17 751.45,242.24 752.20,242.32 752.95,242.39 753.70,242.46 754.45,242.52 755.20,242.59 755.95,242.65 756.70,242.71 757.45,242.77 758.21,242.83 758.96,242.88 759.71,242.94 760.46,242.99 761.21,243.04 761.96,243.09 762.71,243.14 763.46,243.18 764.21,243.23 764.96,243.27 765.71,243.31 766.46,243.35 767.21,243.39 767.96,243.42 768.72,243.46 769.47,243.49 770.22,243.52 770.97,243.55 771.72,243.58 772.47,243.61 773.22,243.64 773.97,243.66 774.72,243.69 775.47,243.71 776.22,243.73 776.97,243.75 777.72,243.77 778.48,243.79 779.23,243.81 779.98,243.83 780.73,243.84 781.48,243.86 782.23,243.87 782.98,243.88 783.73,243.89 784.48,243.91 785.23,243.92 785.98,243.93 786.73,243.93 787.48,243.94 788.23,243.95 788.99,243.96 789.74,243.96 790.49,243.97 791.24,243.97 791.99,243.98 792.74,243.98 793.49,243.98 794.24,243.99 794.99,243.99 795.74,243.99 796.49,243.99 797.24,244.00 797.99,244.00 798.74,244.00 799.50,244.00 800.25,244.00 801.00,244.00 801.75,244.00 802.50,244.00 803.25,244.00 804.00,244.00" />
  <text x="420.0" y="22" text-anchor="middle" font-family="Arial, Helvetica, sans-serif" font-size="15" fill="#102a43">bohman window (time domain)</text>
  <text x="420.0" y="272" text-anchor="middle" font-family="Arial, Helvetica, sans-serif" font-size="12" fill="#334e68">normalized sample index</text>
  <text x="14" y="140.0" transform="rotate(-90 14,140.0)" text-anchor="middle" font-family="Arial, Helvetica, sans-serif" font-size="12" fill="#334e68">amplitude</text>
  <text x="36" y="262" font-family="Arial, Helvetica, sans-serif" font-size="11" fill="#486581">0</text>
  <text x="804" y="262" text-anchor="end" font-family="Arial, Helvetica, sans-serif" font-size="11" fill="#486581">1</text>
  <text x="30" y="40" text-anchor="end" font-family="Arial, Helvetica, sans-serif" font-size="11" fill="#486581">1.0</text>
  <text x="30" y="248" text-anchor="end" font-family="Arial, Helvetica, sans-serif" font-size="11" fill="#486581">0.0</text>
</svg>
