<svg xmlns="http://www.w3.org/2000/svg" width="840" height="280" viewBox="0 0 840 280">
  <rect x="0" y="0" width="840" height="280" fill="#ffffff" />
  <rect x="36" y="36" width="768" height="208" fill="#f7fbff" stroke="#c8d9e6" />
  <polyline fill="none" stroke="#005f73" stroke-width="2" points="36.00,36.00 36.75,244.00 37.50,244.00 38.25,244.00 39.00,244.00 39.75,244.00 40.50,244.00 41.26,244.00 42.01,244.00 42.76,244.00 43.51,244.00 44.26,244.00 45.01,244.00 45.76,244.00 46.51,244.00 47.26,244.00 48.01,114.28 48.76,114.97 49.51,115.61 50.26,116.22 51.01,116.80 51.77,117.35 52.52,117.87 53.27,118.38 54.02,118.86 54.77,119.32 55.52,119.76 56.27,120.18 57.02,120.59 57.77,120.99 58.52,121.37 59.27,121.74 60.02,114.29 60.77,114.64 61.52,114.98 62.28,115.30 63.03,115.62 63.78,115.93 64.53,116.23 65.28,116.52 66.03,116.81 66.78,117.09 67.53,117.36 68.28,117.62 69.03,117.88 69.78,118.13 70.53,118.38 71.28,118.62 72.04,114.31 72.79,114.54 73.54,114.77 74.29,114.99 75.04,115.21 75.79,115.43 76.54,115.64 77.29,115.84 78.04,116.04 78.79,116.24 79.54,116.44 80.29,116.63 81.04,116.82 81.79,117.01 82.55,117.19 83.30,117.37 84.05,114.33 84.80,114.51 85.55,114.68 86.30,114.85 87.05,115.01 87.80,115.18 88.55,115.34 89.30,115.50 90.05,115.66 90.80,115.81 91.55,115.97 92.30,116.12 93.06,116.26 93.81,116.41 94.56,116.56 95.31,116.70 96.06,114.36 96.81,114.50 97.56,114.64 98.31,114.78 99.06,114.91 99.81,115.04 100.56,115.18 101.31,115.31 102.06,115.43 102.82,115.56 103.57,115.69 104.32,115.81 105.07,115.93 105.82,116.05 106.57,116.17 107.32,116.29 108.07,114.40 108.82,114.52 109.57,114.63 110.32,114.75 111.07,114.86 111.82,114.97 112.57,115.08 113.33,115.19 114.08,115.30 114.83,115.40 115.58,115.51 116.33,115.62 117.08,115.72 117.83,115.82 118.58,115.92 119.33,116.03 120.08,114.45 120.83,114.55 121.58,114.64 122.33,114.74 123.09,114.84 123.84,114.93 124.59,115.03 125.34,115.12 126.09,115.22 126.84,115.31 127.59,115.40 128.34,115.49 129.09,115.58 129.84,115.67 130.59,115.76 131.34,115.85 132.09,114.50 132.84,114.58 133.60,114.67 134.35,114.76 135.10,114.84 135.85,114.92 136.60,115.01 137.35,115.09 138.10,115.17 138.85,115.25 139.60,115.33 140.35,115.41 141.10,115.49 141.85,115.57 142.60,115.65 143.35,115.73 144.11,114.56 144.86,114.63 145.61,114.71 146.36,114.79 147.11,114.86 147.86,114.93 148.61,115.01 149.36,115.08 150.11,115.16 150.86,115.23 151.61,115.30 152.36,115.37 153.11,115.44 153.87,115.51 154.62,115.58 155.37,115.65 156.12,114.62 156.87,114.69 157.62,114.76 158.37,114.83 159.12,114.89 159.87,114.96 160.62,115.03 161.37,115.10 162.12,115.16 162.87,115.23 163.62,115.29 164.38,115.36 165.13,115.42 165.88,115.48 166.63,115.55 167.38,115.61 168.13,114.70 168.88,114.76 169.63,114.82 170.38,114.88 171.13,114.94 171.88,115.00 172.63,115.06 173.38,115.12 174.13,115.18 174.89,115.24 175.64,115.30 176.39,115.36 177.14,115.42 177.89,115.48 178.64,115.54 179.39,115.59 180.14,114.78 180.89,114.83 181.64,114.89 182.39,114.95 183.14,115.00 183.89,115.06 184.65,115.11 185.40,115.17 186.15,115.22 186.90,115.28 187.65,115.33 188.40,115.38 189.15,115.44 189.90,115.49 190.65,115.54 191.40,115.60 192.15,114.86 192.90,114.92 193.65,114.97 194.40,115.02 195.16,115.07 195.91,115.12 196.66,115.17 197.41,115.22 198.16,115.27 198.91,115.32 199.66,115.37 200.41,115.42 201.16,115.47 201.91,115.52 202.66,115.57 203.41,115.62 204.16,114.96 204.91,115.01 205.67,115.05 206.42,115.10 207.17,115.15 207.92,115.20 208.67,115.24 209.42,115.29 210.17,115.34 210.92,115.38 211.67,115.43 212.42,115.48 213.17,115.52 213.92,115.57 214.67,115.61 215.43,115.66 216.18,115.06 216.93,115.11 217.68,115.15 218.43,115.20 219.18,115.24 219.93,115.28 220.68,115.33 221.43,115.37 222.18,115.41 222.93,115.46 223.68,115.50 224.43,115.54 225.18,115.59 225.94,115.63 226.69,115.67 227.44,115.71 228.19,115.17 228.94,115.21 229.69,115.26 230.44,115.30 231.19,115.34 231.94,115.38 232.69,115.42 233.44,115.46 234.19,115.50 234.94,115.54 235.70,115.58 236.45,115.62 237.20,115.66 237.95,115.70 238.70,115.74 239.45,115.78 240.20,115.29 240.95,115.33 241.70,115.37 242.45,115.41 243.20,115.45 243.95,115.48 244.70,115.52 245.45,115.56 246.21,115.60 246.96,115.64 247.71,115.67 248.46,115.71 249.21,115.75 249.96,115.79 250.71,115.82 251.46,115.86 252.21,115.42 252.96,115.45 253.71,115.49 254.46,115.53 255.21,115.56 255.96,115.60 256.72,115.63 257.47,115.67 258.22,115.71 258.97,115.74 259.72,115.78 260.47,115.81 261.22,115.85 261.97,115.88 262.72,115.92 263.47,115.95 264.22,115.55 264.97,115.59 265.72,115.62 266.48,115.66 267.23,115.69 267.98,115.72 268.73,115.76 269.48,115.79 270.23,115.82 270.98,115.86 271.73,115.89 272.48,115.92 273.23,115.96 273.98,115.99 274.73,116.02 275.48,116.05 276.23,115.70 276.99,115.73 277.74,115.76 278.49,115.79 279.24,115.83 279.99,115.86 280.74,115.89 281.49,115.92 282.24,115.95 282.99,115.98 283.74,116.01 284.49,116.05 285.24,116.08 285.99,116.11 286.74,116.14 287.50,116.17 288.25,115.85 289.00,115.88 289.75,115.91 290.50,115.94 291.25,115.97 292.00,116.00 292.75,116.03 293.50,116.06 294.25,116.09 295.00,116.12 295.75,116.15 296.50,116.18 297.26,116.21 298.01,116.24 298.76,116.27 299.51,116.30 300.26,116.01 301.01,116.04 301.76,116.07 302.51,116.10 303.26,116.13 304.01,116.15 304.76,116.18 305.51,116.21 306.26,116.24 307.01,116.27 307.77,116.29 308.52,116.32 309.27,116.35 310.02,116.38 310.77,116.41 311.52,116.43 312.27,116.18 313.02,116.21 313.77,116.24 314.52,116.26 315.27,116.29 316.02,116.32 316.77,116.34 317.52,116.37 318.28,116.40 319.03,116.42 319.78,116.45 320.53,116.48 321.28,116.50 322.03,116.53 322.78,116.55 323.53,116.58 324.28,116.36 325.03,116.39 325.78,116.41 326.53,116.44 327.28,116.46 328.04,116.49 328.79,116.52 329.54,116.54 330.29,116.57 331.04,116.59 331.79,116.62 332.54,116.64 333.29,116.67 334.04,116.69 334.79,116.72 335.54,116.74 336.29,116.55 337.04,116.58 337.79,116.60 338.55,116.62 339.30,116.65 340.05,116.67 340.80,116.70 341.55,116.72 342.30,116.75 343.05,116.77 343.80,116.79 344.55,116.82 345.30,116.84 346.05,116.86 346.80,116.89 347.55,116.91 348.30,116.75 349.06,116.78 349.81,116.80 350.56,116.82 351.31,116.84 352.06,116.87 352.81,116.89 353.56,116.91 354.31,116.94 355.06,116.96 355.81,116.98 356.56,117.00 357.31,117.03 358.06,117.05 358.82,117.07 359.57,117.09 360.32,116.96 361.07,116.98 361.82,117.01 362.57,117.03 363.32,117.05 364.07,117.07 364.82,117.09 365.57,117.12 366.32,117.14 367.07,117.16 367.82,117.18 368.57,117.20 369.33,117.22 370.08,117.24 370.83,117.27 371.58,117.29 372.33,117.18 373.08,117.21 373.83,117.23 374.58,117.25 375.33,117.27 376.08,117.29 376.83,117.31 377.58,117.33 378.33,117.35 379.09,117.37 379.84,117.39 380.59,117.41 381.34,117.43 382.09,117.45 382.84,117.47 383.59,117.49 384.34,117.42 385.09,117.44 385.84,117.46 386.59,117.48 387.34,117.50 388.09,117.52 388.84,117.54 389.60,117.56 390.35,117.58 391.10,117.60 391.85,117.61 392.60,117.63 393.35,117.65 394.10,117.67 394.85,117.69 395.60,117.71 396.35,117.66 397.10,117.68 397.85,117.70 398.60,117.72 399.35,117.74 400.11,117.76 400.86,117.78 401.61,117.79 402.36,117.81 403.11,117.83 403.86,117.85 404.61,117.87 405.36,117.89 406.11,117.91 406.86,117.92 407.61,117.94 408.36,117.92 409.11,117.94 409.87,117.96 410.62,117.97 411.37,117.99 412.12,118.01 412.87,118.03 413.62,118.05 414.37,118.06 415.12,118.08 415.87,118.10 416.62,118.12 417.37,118.13 418.12,118.15 418.87,118.17 419.62,118.19 420.38,118.19 421.13,118.21 421.88,118.22 422.63,118.24 423.38,118.26 424.13,118.28 424.88,118.29 425.63,118.31 426.38,118.33 427.13,118.34 427.88,118.36 428.63,118.38 429.38,118.39 430.13,118.41 430.89,118.43 431.64,118.44 432.39,118.47 433.14,118.49 433.89,118.51 434.64,118.52 435.39,118.54 436.14,118.56 436.89,118.57 437.64,118.59 438.39,118.60 439.14,118.62 439.89,118.64 440.65,118.65 441.40,118.67 442.15,118.68 442.90,118.70 443.65,118.72 444.40,118.77 445.15,118.79 445.90,118.80 446.65,118.82 447.40,118.83 448.15,118.85 448.90,118.87 449.65,118.88 450.40,118.90 451.16,118.91 451.91,118.93 452.66,118.94 453.41,118.96 454.16,118.97 454.91,118.99 455.66,119.00 456.41,119.09 457.16,119.10 457.91,119.11 458.66,119.13 459.41,119.14 460.16,119.16 460.91,119.17 461.67,119.19 462.42,119.20 463.17,119.22 463.92,119.23 464.67,119.25 465.42,119.26 466.17,119.28 466.92,119.29 467.67,119.30 468.42,119.41 469.17,119.43 469.92,119.44 470.67,119.46 471.43,119.47 472.18,119.48 472.93,119.50 473.68,119.51 474.43,119.53 475.18,119.54 475.93,119.55 476.68,119.57 477.43,119.58 478.18,119.60 478.93,119.61 479.68,119.62 480.43,119.76 481.18,119.77 481.94,119.79 482.69,119.80 483.44,119.81 484.19,119.83 484.94,119.84 485.69,119.85 486.44,119.87 487.19,119.88 487.94,119.89 488.69,119.91 489.44,119.92 490.19,119.93 490.94,119.95 491.70,119.96 492.45,120.12 493.20,120.14 493.95,120.15 494.70,120.16 495.45,120.18 496.20,120.19 496.95,120.20 497.70,120.21 498.45,120.23 499.20,120.24 499.95,120.25 500.70,120.26 501.45,120.28 502.21,120.29 502.96,120.30 503.71,120.31 504.46,120.51 505.21,120.52 505.96,120.53 506.71,120.54 507.46,120.56 508.21,120.57 508.96,120.58 509.71,120.59 510.46,120.60 511.21,120.62 511.96,120.63 512.72,120.64 513.47,120.65 514.22,120.66 514.97,120.67 515.72,120.69 516.47,120.91 517.22,120.92 517.97,120.93 518.72,120.95 519.47,120.96 520.22,120.97 520.97,120.98 521.72,120.99 522.48,121.00 523.23,121.01 523.98,121.03 524.73,121.04 525.48,121.05 526.23,121.06 526.98,121.07 527.73,121.08 528.48,121.34 529.23,121.35 529.98,121.36 530.73,121.37 531.48,121.38 532.23,121.39 532.99,121.40 533.74,121.41 534.49,121.42 535.24,121.43 535.99,121.45 536.74,121.46 537.49,121.47 538.24,121.48 538.99,121.49 539.74,121.50 540.49,121.79 541.24,121.80 541.99,121.81 542.74,121.82 543.50,121.83 544.25,121.84 545.00,121.85 545.75,121.86 546.50,121.87 547.25,121.88 548.00,121.89 548.75,121.90 549.50,121.91 550.25,121.92 551.00,121.93 551.75,121.94 552.50,122.26 553.26,122.27 554.01,122.28 554.76,122.29 555.51,122.30 556.26,122.31 557.01,122.32 557.76,122.33 558.51,122.34 559.26,122.35 560.01,122.36 560.76,122.37 561.51,122.38 562.26,122.39 563.01,122.40 563.77,122.41 564.52,122.77 565.27,122.78 566.02,122.78 566.77,122.79 567.52,122.80 568.27,122.81 569.02,122.82 569.77,122.83 570.52,122.84 571.27,122.85 572.02,122.86 572.77,122.87 573.52,122.87 574.28,122.88 575.03,122.89 575.78,122.90 576.53,123.30 577.28,123.31 578.03,123.32 578.78,123.33 579.53,123.33 580.28,123.34 581.03,123.35 581.78,123.36 582.53,123.37 583.28,123.38 584.04,123.39 584.79,123.39 585.54,123.40 586.29,123.41 587.04,123.42 587.79,123.43 588.54,123.87 589.29,123.88 590.04,123.88 590.79,123.89 591.54,123.90 592.29,123.91 593.04,123.92 593.79,123.92 594.55,123.93 595.30,123.94 596.05,123.95 596.80,123.96 597.55,123.96 598.30,123.97 599.05,123.98 599.80,123.99 600.55,124.47 601.30,124.48 602.05,124.49 602.80,124.50 603.55,124.50 604.30,124.51 605.06,124.52 605.81,124.53 606.56,124.53 607.31,124.54 608.06,124.55 608.81,124.56 609.56,124.56 610.31,124.57 611.06,124.58 611.81,124.58 612.56,125.12 613.31,125.13 614.06,125.13 614.82,125.14 615.57,125.15 616.32,125.15 617.07,125.16 617.82,125.17 618.57,125.18 619.32,125.18 620.07,125.19 620.82,125.20 621.57,125.20 622.32,125.21 623.07,125.22 623.82,125.22 624.57,125.81 625.33,125.82 626.08,125.83 626.83,125.83 627.58,125.84 628.33,125.85 629.08,125.85 629.83,125.86 630.58,125.86 631.33,125.87 632.08,125.88 632.83,125.88 633.58,125.89 634.33,125.90 635.09,125.90 635.84,125.91 636.59,126.56 637.34,126.56 638.09,126.57 638.84,126.58 639.59,126.58 640.34,126.59 641.09,126.59 641.84,126.60 642.59,126.61 643.34,126.61 644.09,126.62 644.84,126.62 645.60,126.63 646.35,126.64 647.10,126.64 647.85,126.65 648.60,127.36 649.35,127.37 650.10,127.37 650.85,127.38 651.60,127.39 652.35,127.39 653.10,127.40 653.85,127.40 654.60,127.41 655.35,127.41 656.11,127.42 656.86,127.42 657.61,127.43 658.36,127.44 659.11,127.44 659.86,127.45 660.61,128.24 661.36,128.24 662.11,128.25 662.86,128.25 663.61,128.26 664.36,128.26 665.11,128.27 665.87,128.27 666.62,128.28 667.37,128.28 668.12,128.29 668.87,128.29 669.62,128.30 670.37,128.30 671.12,128.31 671.87,128.31 672.62,129.19 673.37,129.20 674.12,129.20 674.87,129.21 675.62,129.21 676.38,129.22 677.13,129.22 677.88,129.23 678.63,129.23 679.38,129.24 680.13,129.24 680.88,129.25 681.63,129.25 682.38,129.25 683.13,129.26 683.88,129.26 684.63,130.25 685.38,130.25 686.13,130.26 686.89,130.26 687.64,130.26 688.39,130.27 689.14,130.27 689.89,130.28 690.64,130.28 691.39,130.28 692.14,130.29 692.89,130.29 693.64,130.30 694.39,130.30 695.14,130.30 695.89,130.31 696.65,131.41 697.40,131.42 698.15,131.42 698.90,131.43 699.65,131.43 700.40,131.43 701.15,131.44 701.90,131.44 702.65,131.44 703.40,131.45 704.15,131.45 704.90,131.46 705.65,131.46 706.40,131.46 707.16,131.47 707.91,131.47 708.66,132.72 709.41,132.73 710.16,132.73 710.91,132.73 711.66,132.74 712.41,132.74 713.16,132.74 713.91,132.75 714.66,132.75 715.41,132.75 716.16,132.76 716.91,132.76 717.67,132.76 718.42,132.77 719.17,132.77 719.92,132.77 720.67,134.22 721.42,134.22 722.17,134.22 722.92,134.22 723.67,134.23 724.42,134.23 725.17,134.23 725.92,134.24 726.67,134.24 727.43,134.24 728.18,134.24 728.93,134.25 729.68,134.25 730.43,134.25 731.18,134.25 731.93,134.26 732.68,135.94 733.43,135.94 734.18,135.95 734.93,135.95 735.68,135.95 736.43,135.95 737.18,135.96 737.94,135.96 738.69,135.96 739.44,135.96 740.19,135.96 740.94,135.97 741.69,135.97 742.44,135.97 743.19,135.97 743.94,135.98 744.69,137.99 745.44,137.99 746.19,137.99 746.94,137.99 747.70,137.99 748.45,138.00 749.20,138.00 749.95,138.00 750.70,138.00 751.45,138.00 752.20,138.01 752.95,138.01 753.70,138.01 754.45,138.01 755.20,138.01 755.95,138.02 756.70,140.50 757.45,140.50 758.21,140.50 758.96,140.50 759.71,140.50 760.46,140.50 761.21,140.51 761.96,140.51 762.71,140.51 763.46,140.51 764.21,140.51 764.96,140.51 765.71,140.51 766.46,140.52 767.21,140.52 767.96,140.52 768.72,143.74 769.47,143.74 770.22,143.74 770.97,143.74 771.72,143.74 772.47,143.74 773.22,143.74 773.97,143.74 774.72,143.74 775.47,143.75 776.22,143.75 776.97,143.75 777.72,143.75 778.48,143.75 779.23,143.75 779.98,143.75 780.73,148.31 781.48,148.31 782.23,148.31 782.98,148.31 783.73,148.31 784.48,148.31 785.23,148.31 785.98,148.31 786.73,148.31 787.48,148.31 788.23,148.31 788.99,148.32 789.74,148.32 790.49,148.32 791.24,148.32 791.99,148.32 792.74,156.13 793.49,156.13 794.24,156.13 794.99,156.13 795.74,156.13 796.49,156.13 797.24,156.13 797.99,156.13 798.74,156.13 799.50,156.13 800.25,156.13 801.00,156.13 801.75,156.13 802.50,156.13 803.25,156.13 804.00,244.00" />
  <text x="420.0" y="22" text-anchor="middle" font-family="Arial, Helvetica, sans-serif" font-size="15" fill="#102a43">boxcar window (magnitude spectrum)</text>
  <text x="420.0" y="272" text-anchor="middle" font-family="Arial, Helvetica, sans-serif" font-size="12" fill="#334e68">normalized frequency</text>
  <text x="14" y="140.0" transform="rotate(-90 14,140.0)" text-anchor="middle" font-family="Arial, Helvetica, sans-serif" font-size="12" fill="#334e68">magnitude (dB)</text>
  <text x="36" y="262" font-family="Arial, Helvetica, sans-serif" font-size="11" fill="#486581">0</text>
  <text x="804" y="262" text-anchor="end" font-family="Arial, Helvetica, sans-serif" font-size="11" fill="#486581">1</text>
  <text x="30" y="40" text-anchor="end" font-family="Arial, Helvetica, sans-serif" font-size="11" fill="#486581">0.0</text>
  <text x="30" y="248" text-anchor="end" font-family="Arial, Helvetica, sans-serif" font-size="11" fill="#486581">-160.0</text>
</svg>
