<svg xmlns="http://www.w3.org/2000/svg" width="840" height="280" viewBox="0 0 840 280">
  <rect x="0" y="0" width="840" height="280" fill="#ffffff" />
  <rect x="36" y="36" width="768" height="208" fill="#f7fbff" stroke="#c8d9e6" />
  <polyline fill="none" stroke="#005f73" stroke-width="2" points="36.00,77.60 36.75,77.47 37.50,77.34 38.25,77.21 39.00,77.08 39.75,76.95 40.50,76.82 41.26,76.69 42.01,76.56 42.76,76.43 43.51,76.30 44.26,76.17 45.01,76.04 45.76,75.91 46.51,75.78 47.26,75.66 48.01,75.53 48.76,75.40 49.51,75.27 50.26,75.14 51.01,75.01 51.77,74.88 52.52,74.75 53.27,74.62 54.02,74.49 54.77,74.37 55.52,74.24 56.27,74.11 57.02,73.98 57.77,73.85 58.52,73.72 59.27,73.60 60.02,73.47 60.77,73.34 61.52,73.21 62.28,73.08 63.03,72.96 63.78,72.83 64.53,72.70 65.28,72.57 66.03,72.45 66.78,72.32 67.53,72.19 68.28,72.06 69.03,71.94 69.78,71.81 70.53,71.68 71.28,71.56 72.04,71.43 72.79,71.30 73.54,71.18 74.29,71.05 75.04,70.92 75.79,70.80 76.54,70.67 77.29,70.54 78.04,70.42 78.79,70.29 79.54,70.17 80.29,70.04 81.04,69.91 81.79,69.79 82.55,69.66 83.30,69.54 84.05,69.41 84.80,69.29 85.55,69.16 86.30,69.04 87.05,68.91 87.80,68.79 88.55,68.66 89.30,68.54 90.05,68.41 90.80,68.29 91.55,68.16 92.30,68.04 93.06,67.92 93.81,67.79 94.56,67.67 95.31,67.55 96.06,67.42 96.81,67.30 97.56,67.17 98.31,67.05 99.06,66.93 99.81,66.81 100.56,66.68 101.31,66.56 102.06,66.44 102.82,66.31 103.57,66.19 104.32,66.07 105.07,65.95 105.82,65.83 106.57,65.70 107.32,65.58 108.07,65.46 108.82,65.34 109.57,65.22 110.32,65.10 111.07,64.97 111.82,64.85 112.57,64.73 113.33,64.61 114.08,64.49 114.83,64.37 115.58,64.25 116.33,64.13 117.08,64.01 117.83,63.89 118.58,63.77 119.33,63.65 120.08,63.53 120.83,63.41 121.58,63.29 122.33,63.17 123.09,63.05 123.84,62.93 124.59,62.82 125.34,62.70 126.09,62.58 126.84,62.46 127.59,62.34 128.34,62.22 129.09,62.11 129.84,61.99 130.59,61.87 131.34,61.75 132.09,61.64 132.84,61.52 133.60,61.40 134.35,61.29 135.10,61.17 135.85,61.05 136.60,60.94 137.35,60.82 138.10,60.70 138.85,60.59 139.60,60.47 140.35,60.36 141.10,60.24 141.85,60.13 142.60,60.01 143.35,59.90 144.11,59.78 144.86,59.67 145.61,59.55 146.36,59.44 147.11,59.33 147.86,59.21 148.61,59.10 149.36,58.98 150.11,58.87 150.86,58.76 151.61,58.65 152.36,58.53 153.11,58.42 153.87,58.31 154.62,58.20 155.37,58.08 156.12,57.97 156.87,57.86 157.62,57.75 158.37,57.64 159.12,57.53 159.87,57.42 160.62,57.30 161.37,57.19 162.12,57.08 162.87,56.97 163.62,56.86 164.38,56.75 165.13,56.64 165.88,56.54 166.63,56.43 167.38,56.32 168.13,56.21 168.88,56.10 169.63,55.99 170.38,55.88 171.13,55.78 171.88,55.67 172.63,55.56 173.38,55.45 174.13,55.35 174.89,55.24 175.64,55.13 176.39,55.03 177.14,54.92 177.89,54.81 178.64,54.71 179.39,54.60 180.14,54.50 180.89,54.39 181.64,54.29 182.39,54.18 183.14,54.08 183.89,53.97 184.65,53.87 185.40,53.76 186.15,53.66 186.90,53.56 187.65,53.45 188.40,53.35 189.15,53.25 189.90,53.14 190.65,53.04 191.40,52.94 192.15,52.84 192.90,52.74 193.65,52.63 194.40,52.53 195.16,52.43 195.91,52.33 196.66,52.23 197.41,52.13 198.16,52.03 198.91,51.93 199.66,51.83 200.41,51.73 201.16,51.63 201.91,51.53 202.66,51.43 203.41,51.33 204.16,51.24 204.91,51.14 205.67,51.04 206.42,50.94 207.17,50.85 207.92,50.75 208.67,50.65 209.42,50.56 210.17,50.46 210.92,50.36 211.67,50.27 212.42,50.17 213.17,50.08 213.92,49.98 214.67,49.89 215.43,49.79 216.18,49.70 216.93,49.60 217.68,49.51 218.43,49.42 219.18,49.32 219.93,49.23 220.68,49.14 221.43,49.04 222.18,48.95 222.93,48.86 223.68,48.77 224.43,48.68 225.18,48.59 225.94,48.50 226.69,48.40 227.44,48.31 228.19,48.22 228.94,48.13 229.69,48.04 230.44,47.96 231.19,47.87 231.94,47.78 232.69,47.69 233.44,47.60 234.19,47.51 234.94,47.43 235.70,47.34 236.45,47.25 237.20,47.16 237.95,47.08 238.70,46.99 239.45,46.91 240.20,46.82 240.95,46.73 241.70,46.65 242.45,46.56 243.20,46.48 243.95,46.40 244.70,46.31 245.45,46.23 246.21,46.14 246.96,46.06 247.71,45.98 248.46,45.90 249.21,45.81 249.96,45.73 250.71,45.65 251.46,45.57 252.21,45.49 252.96,45.41 253.71,45.33 254.46,45.25 255.21,45.17 255.96,45.09 256.72,45.01 257.47,44.93 258.22,44.85 258.97,44.77 259.72,44.69 260.47,44.62 261.22,44.54 261.97,44.46 262.72,44.38 263.47,44.31 264.22,44.23 264.97,44.15 265.72,44.08 266.48,44.00 267.23,43.93 267.98,43.85 268.73,43.78 269.48,43.71 270.23,43.63 270.98,43.56 271.73,43.49 272.48,43.41 273.23,43.34 273.98,43.27 274.73,43.20 275.48,43.12 276.23,43.05 276.99,42.98 277.74,42.91 278.49,42.84 279.24,42.77 279.99,42.70 280.74,42.63 281.49,42.56 282.24,42.49 282.99,42.43 283.74,42.36 284.49,42.29 285.24,42.22 285.99,42.16 286.74,42.09 287.50,42.02 288.25,41.96 289.00,41.89 289.75,41.83 290.50,41.76 291.25,41.70 292.00,41.63 292.75,41.57 293.50,41.50 294.25,41.44 295.00,41.38 295.75,41.32 296.50,41.25 297.26,41.19 298.01,41.13 298.76,41.07 299.51,41.01 300.26,40.95 301.01,40.89 301.76,40.83 302.51,40.77 303.26,40.71 304.01,40.65 304.76,40.59 305.51,40.53 306.26,40.47 307.01,40.42 307.77,40.36 308.52,40.30 309.27,40.25 310.02,40.19 310.77,40.13 311.52,40.08 312.27,40.02 313.02,39.97 313.77,39.91 314.52,39.86 315.27,39.81 316.02,39.75 316.77,39.70 317.52,39.65 318.28,39.60 319.03,39.54 319.78,39.49 320.53,39.44 321.28,39.39 322.03,39.34 322.78,39.29 323.53,39.24 324.28,39.19 325.03,39.14 325.78,39.09 326.53,39.04 327.28,39.00 328.04,38.95 328.79,38.90 329.54,38.86 330.29,38.81 331.04,38.76 331.79,38.72 332.54,38.67 333.29,38.63 334.04,38.58 334.79,38.54 335.54,38.49 336.29,38.45 337.04,38.41 337.79,38.36 338.55,38.32 339.30,38.28 340.05,38.24 340.80,38.20 341.55,38.16 342.30,38.12 343.05,38.08 343.80,38.04 344.55,38.00 345.30,37.96 346.05,37.92 346.80,37.88 347.55,37.84 348.30,37.80 349.06,37.77 349.81,37.73 350.56,37.69 351.31,37.66 352.06,37.62 352.81,37.59 353.56,37.55 354.31,37.52 355.06,37.48 355.81,37.45 356.56,37.42 357.31,37.38 358.06,37.35 358.82,37.32 359.57,37.29 360.32,37.26 361.07,37.22 361.82,37.19 362.57,37.16 363.32,37.13 364.07,37.10 364.82,37.07 365.57,37.05 366.32,37.02 367.07,36.99 367.82,36.96 368.57,36.93 369.33,36.91 370.08,36.88 370.83,36.85 371.58,36.83 372.33,36.80 373.08,36.78 373.83,36.75 374.58,36.73 375.33,36.71 376.08,36.68 376.83,36.66 377.58,36.64 378.33,36.62 379.09,36.59 379.84,36.57 380.59,36.55 381.34,36.53 382.09,36.51 382.84,36.49 383.59,36.47 384.34,36.45 385.09,36.43 385.84,36.41 386.59,36.40 387.34,36.38 388.09,36.36 388.84,36.35 389.60,36.33 390.35,36.31 391.10,36.30 391.85,36.28 392.60,36.27 393.35,36.25 394.10,36.24 394.85,36.23 395.60,36.21 396.35,36.20 397.10,36.19 397.85,36.18 398.60,36.16 399.35,36.15 400.11,36.14 400.86,36.13 401.61,36.12 402.36,36.11 403.11,36.10 403.86,36.09 404.61,36.09 405.36,36.08 406.11,36.07 406.86,36.06 407.61,36.06 408.36,36.05 409.11,36.04 409.87,36.04 410.62,36.03 411.37,36.03 412.12,36.02 412.87,36.02 413.62,36.02 414.37,36.01 415.12,36.01 415.87,36.01 416.62,36.00 417.37,36.00 418.12,36.00 418.87,36.00 419.62,36.00 420.38,36.00 421.13,36.00 421.88,36.00 422.63,36.00 423.38,36.00 424.13,36.01 424.88,36.01 425.63,36.01 426.38,36.01 427.13,36.02 427.88,36.02 428.63,36.03 429.38,36.03 430.13,36.03 430.89,36.04 431.64,36.05 432.39,36.05 433.14,36.06 433.89,36.07 434.64,36.07 435.39,36.08 436.14,36.09 436.89,36.10 437.64,36.11 438.39,36.12 439.14,36.13 439.89,36.14 440.65,36.15 441.40,36.16 442.15,36.17 442.90,36.18 443.65,36.19 444.40,36.21 445.15,36.22 445.90,36.23 446.65,36.25 447.40,36.26 448.15,36.28 448.90,36.29 449.65,36.31 450.40,36.32 451.16,36.34 451.91,36.35 452.66,36.37 453.41,36.39 454.16,36.41 454.91,36.42 455.66,36.44 456.41,36.46 457.16,36.48 457.91,36.50 458.66,36.52 459.41,36.54 460.16,36.56 460.91,36.58 461.67,36.60 462.42,36.63 463.17,36.65 463.92,36.67 464.67,36.69 465.42,36.72 466.17,36.74 466.92,36.77 467.67,36.79 468.42,36.82 469.17,36.84 469.92,36.87 470.67,36.89 471.43,36.92 472.18,36.95 472.93,36.98 473.68,37.00 474.43,37.03 475.18,37.06 475.93,37.09 476.68,37.12 477.43,37.15 478.18,37.18 478.93,37.21 479.68,37.24 480.43,37.27 481.18,37.30 481.94,37.33 482.69,37.37 483.44,37.40 484.19,37.43 484.94,37.47 485.69,37.50 486.44,37.53 487.19,37.57 487.94,37.60 488.69,37.64 489.44,37.68 490.19,37.71 490.94,37.75 491.70,37.79 492.45,37.82 493.20,37.86 493.95,37.90 494.70,37.94 495.45,37.98 496.20,38.02 496.95,38.06 497.70,38.10 498.45,38.14 499.20,38.18 499.95,38.22 500.70,38.26 501.45,38.30 502.21,38.34 502.96,38.39 503.71,38.43 504.46,38.47 505.21,38.52 505.96,38.56 506.71,38.60 507.46,38.65 508.21,38.69 508.96,38.74 509.71,38.79 510.46,38.83 511.21,38.88 511.96,38.93 512.72,38.97 513.47,39.02 514.22,39.07 514.97,39.12 515.72,39.17 516.47,39.22 517.22,39.26 517.97,39.31 518.72,39.37 519.47,39.42 520.22,39.47 520.97,39.52 521.72,39.57 522.48,39.62 523.23,39.67 523.98,39.73 524.73,39.78 525.48,39.83 526.23,39.89 526.98,39.94 527.73,40.00 528.48,40.05 529.23,40.11 529.98,40.16 530.73,40.22 531.48,40.27 532.23,40.33 532.99,40.39 533.74,40.45 534.49,40.50 535.24,40.56 535.99,40.62 536.74,40.68 537.49,40.74 538.24,40.80 538.99,40.86 539.74,40.92 540.49,40.98 541.24,41.04 541.99,41.10 542.74,41.16 543.50,41.22 544.25,41.28 545.00,41.35 545.75,41.41 546.50,41.47 547.25,41.54 548.00,41.60 548.75,41.66 549.50,41.73 550.25,41.79 551.00,41.86 551.75,41.92 552.50,41.99 553.26,42.06 554.01,42.12 554.76,42.19 555.51,42.26 556.26,42.32 557.01,42.39 557.76,42.46 558.51,42.53 559.26,42.60 560.01,42.67 560.76,42.74 561.51,42.81 562.26,42.88 563.01,42.95 563.77,43.02 564.52,43.09 565.27,43.16 566.02,43.23 566.77,43.30 567.52,43.38 568.27,43.45 569.02,43.52 569.77,43.60 570.52,43.67 571.27,43.74 572.02,43.82 572.77,43.89 573.52,43.97 574.28,44.04 575.03,44.12 575.78,44.19 576.53,44.27 577.28,44.35 578.03,44.42 578.78,44.50 579.53,44.58 580.28,44.65 581.03,44.73 581.78,44.81 582.53,44.89 583.28,44.97 584.04,45.05 584.79,45.13 585.54,45.21 586.29,45.29 587.04,45.37 587.79,45.45 588.54,45.53 589.29,45.61 590.04,45.69 590.79,45.77 591.54,45.85 592.29,45.94 593.04,46.02 593.79,46.10 594.55,46.19 595.30,46.27 596.05,46.35 596.80,46.44 597.55,46.52 598.30,46.61 599.05,46.69 599.80,46.78 600.55,46.86 601.30,46.95 602.05,47.03 602.80,47.12 603.55,47.21 604.30,47.29 605.06,47.38 605.81,47.47 606.56,47.56 607.31,47.64 608.06,47.73 608.81,47.82 609.56,47.91 610.31,48.00 611.06,48.09 611.81,48.18 612.56,48.27 613.31,48.36 614.06,48.45 614.82,48.54 615.57,48.63 616.32,48.72 617.07,48.81 617.82,48.91 618.57,49.00 619.32,49.09 620.07,49.18 620.82,49.28 621.57,49.37 622.32,49.46 623.07,49.56 623.82,49.65 624.57,49.74 625.33,49.84 626.08,49.93 626.83,50.03 627.58,50.12 628.33,50.22 629.08,50.31 629.83,50.41 630.58,50.51 631.33,50.60 632.08,50.70 632.83,50.80 633.58,50.89 634.33,50.99 635.09,51.09 635.84,51.19 636.59,51.29 637.34,51.38 638.09,51.48 638.84,51.58 639.59,51.68 640.34,51.78 641.09,51.88 641.84,51.98 642.59,52.08 643.34,52.18 644.09,52.28 644.84,52.38 645.60,52.48 646.35,52.58 647.10,52.68 647.85,52.79 648.60,52.89 649.35,52.99 650.10,53.09 650.85,53.19 651.60,53.30 652.35,53.40 653.10,53.50 653.85,53.61 654.60,53.71 655.35,53.81 656.11,53.92 656.86,54.02 657.61,54.13 658.36,54.23 659.11,54.34 659.86,54.44 660.61,54.55 661.36,54.65 662.11,54.76 662.86,54.87 663.61,54.97 664.36,55.08 665.11,55.19 665.87,55.29 666.62,55.40 667.37,55.51 668.12,55.61 668.87,55.72 669.62,55.83 670.37,55.94 671.12,56.05 671.87,56.15 672.62,56.26 673.37,56.37 674.12,56.48 674.87,56.59 675.62,56.70 676.38,56.81 677.13,56.92 677.88,57.03 678.63,57.14 679.38,57.25 680.13,57.36 680.88,57.47 681.63,57.58 682.38,57.69 683.13,57.80 683.88,57.92 684.63,58.03 685.38,58.14 686.13,58.25 686.89,58.36 687.64,58.48 688.39,58.59 689.14,58.70 689.89,58.82 690.64,58.93 691.39,59.04 692.14,59.16 692.89,59.27 693.64,59.38 694.39,59.50 695.14,59.61 695.89,59.73 696.65,59.84 697.40,59.95 698.15,60.07 698.90,60.18 699.65,60.30 700.40,60.42 701.15,60.53 701.90,60.65 702.65,60.76 703.40,60.88 704.15,60.99 704.90,61.11 705.65,61.23 706.40,61.34 707.16,61.46 707.91,61.58 708.66,61.70 709.41,61.81 710.16,61.93 710.91,62.05 711.66,62.17 712.41,62.28 713.16,62.40 713.91,62.52 714.66,62.64 715.41,62.76 716.16,62.87 716.91,62.99 717.67,63.11 718.42,63.23 719.17,63.35 719.92,63.47 720.67,63.59 721.42,63.71 722.17,63.83 722.92,63.95 723.67,64.07 724.42,64.19 725.17,64.31 725.92,64.43 726.67,64.55 727.43,64.67 728.18,64.79 728.93,64.91 729.68,65.03 730.43,65.16 731.18,65.28 731.93,65.40 732.68,65.52 733.43,65.64 734.18,65.76 734.93,65.89 735.68,66.01 736.43,66.13 737.18,66.25 737.94,66.38 738.69,66.50 739.44,66.62 740.19,66.74 740.94,66.87 741.69,66.99 742.44,67.11 743.19,67.24 743.94,67.36 744.69,67.48 745.44,67.61 746.19,67.73 746.94,67.85 747.70,67.98 748.45,68.10 749.20,68.23 749.95,68.35 750.70,68.48 751.45,68.60 752.20,68.73 752.95,68.85 753.70,68.97 754.45,69.10 755.20,69.22 755.95,69.35 756.70,69.48 757.45,69.60 758.21,69.73 758.96,69.85 759.71,69.98 760.46,70.10 761.21,70.23 761.96,70.35 762.71,70.48 763.46,70.61 764.21,70.73 764.96,70.86 765.71,70.99 766.46,71.11 767.21,71.24 767.96,71.37 768.72,71.49 769.47,71.62 770.22,71.75 770.97,71.87 771.72,72.00 772.47,72.13 773.22,72.25 773.97,72.38 774.72,72.51 775.47,72.64 776.22,72.76 776.97,72.89 777.72,73.02 778.48,73.15 779.23,73.28 779.98,73.40 780.73,73.53 781.48,73.66 782.23,73.79 782.98,73.92 783.73,74.04 784.48,74.17 785.23,74.30 785.98,74.43 786.73,74.56 787.48,74.69 788.23,74.82 788.99,74.95 789.74,75.07 790.49,75.20 791.24,75.33 791.99,75.46 792.74,75.59 793.49,75.72 794.24,75.85 794.99,75.98 795.74,76.11 796.49,76.24 797.24,76.37 797.99,76.50 798.74,76.63 799.50,76.76 800.25,76.89 801.00,77.02 801.75,77.15 802.50,77.28 803.25,77.40 804.00,77.60" />
  <text x="420.0" y="22" text-anchor="middle" font-family="Arial, Helvetica, sans-serif" font-size="15" fill="#102a43">cauchy_2p0 window (time domain)</text>
  <text x="420.0" y="272" text-anchor="middle" font-family="Arial, Helvetica, sans-serif" font-size="12" fill="#334e68">normalized sample index</text>
  <text x="14" y="140.0" transform="rotate(-90 14,140.0)" text-anchor="middle" font-family="Arial, Helvetica, sans-serif" font-size="12" fill="#334e68">amplitude</text>
  <text x="36" y="262" font-family="Arial, Helvetica, sans-serif" font-size="11" fill="#486581">0</text>
  <text x="804" y="262" text-anchor="end" font-family="Arial, Helvetica, sans-serif" font-size="11" fill="#486581">1</text>
  <text x="30" y="40" text-anchor="end" font-family="Arial, Helvetica, sans-serif" font-size="11" fill="#486581">1.0</text>
  <text x="30" y="248" text-anchor="end" font-family="Arial, Helvetica, sans-serif" font-size="11" fill="#486581">0.0</text>
</svg>
