<svg xmlns="http://www.w3.org/2000/svg" width="840" height="280" viewBox="0 0 840 280">
  <rect x="0" y="0" width="840" height="280" fill="#ffffff" />
  <rect x="36" y="36" width="768" height="208" fill="#f7fbff" stroke="#c8d9e6" />
  <polyline fill="none" stroke="#005f73" stroke-width="2" points="36.00,36.00 36.75,57.88 37.50,85.81 38.25,91.55 39.00,98.29 39.75,103.30 40.50,107.42 41.26,110.90 42.01,113.91 42.76,116.57 43.51,118.95 44.26,121.10 45.01,123.07 45.76,124.87 46.51,126.55 47.26,128.11 48.01,125.25 48.76,125.49 49.51,125.75 50.26,126.03 51.01,126.32 51.77,126.62 52.52,126.92 53.27,127.21 54.02,127.51 54.77,127.81 55.52,128.10 56.27,128.38 57.02,128.67 57.77,128.95 58.52,129.22 59.27,129.49 60.02,120.60 60.77,120.91 61.52,121.21 62.28,121.50 63.03,121.78 63.78,122.06 64.53,122.33 65.28,122.60 66.03,122.86 66.78,123.11 67.53,123.36 68.28,123.61 69.03,123.84 69.78,124.08 70.53,124.31 71.28,124.53 72.04,119.93 72.79,120.15 73.54,120.37 74.29,120.58 75.04,120.79 75.79,120.99 76.54,121.20 77.29,121.39 78.04,121.59 78.79,121.78 79.54,121.97 80.29,122.15 81.04,122.33 81.79,122.51 82.55,122.69 83.30,122.86 84.05,119.72 84.80,119.89 85.55,120.06 86.30,120.22 87.05,120.39 87.80,120.55 88.55,120.70 89.30,120.86 90.05,121.01 90.80,121.16 91.55,121.31 92.30,121.46 93.06,121.61 93.81,121.75 94.56,121.89 95.31,122.03 96.06,119.65 96.81,119.78 97.56,119.92 98.31,120.05 99.06,120.19 99.81,120.32 100.56,120.45 101.31,120.57 102.06,120.70 102.82,120.82 103.57,120.95 104.32,121.07 105.07,121.19 105.82,121.31 106.57,121.43 107.32,121.54 108.07,119.63 108.82,119.74 109.57,119.86 110.32,119.97 111.07,120.08 111.82,120.19 112.57,120.30 113.33,120.41 114.08,120.51 114.83,120.62 115.58,120.72 116.33,120.83 117.08,120.93 117.83,121.03 118.58,121.13 119.33,121.23 120.08,119.64 120.83,119.74 121.58,119.83 122.33,119.93 123.09,120.03 123.84,120.12 124.59,120.22 125.34,120.31 126.09,120.40 126.84,120.49 127.59,120.58 128.34,120.68 129.09,120.76 129.84,120.85 130.59,120.94 131.34,121.03 132.09,119.67 132.84,119.75 133.60,119.84 134.35,119.92 135.10,120.01 135.85,120.09 136.60,120.17 137.35,120.26 138.10,120.34 138.85,120.42 139.60,120.50 140.35,120.58 141.10,120.66 141.85,120.74 142.60,120.81 143.35,120.89 144.11,119.71 144.86,119.79 145.61,119.86 146.36,119.94 147.11,120.01 147.86,120.09 148.61,120.16 149.36,120.23 150.11,120.31 150.86,120.38 151.61,120.45 152.36,120.52 153.11,120.59 153.87,120.66 154.62,120.73 155.37,120.80 156.12,119.77 156.87,119.83 157.62,119.90 158.37,119.97 159.12,120.04 159.87,120.10 160.62,120.17 161.37,120.24 162.12,120.30 162.87,120.37 163.62,120.43 164.38,120.50 165.13,120.56 165.88,120.62 166.63,120.69 167.38,120.75 168.13,119.83 168.88,119.89 169.63,119.96 170.38,120.02 171.13,120.08 171.88,120.14 172.63,120.20 173.38,120.26 174.13,120.32 174.89,120.38 175.64,120.44 176.39,120.50 177.14,120.55 177.89,120.61 178.64,120.67 179.39,120.73 180.14,119.91 180.89,119.96 181.64,120.02 182.39,120.07 183.14,120.13 183.89,120.19 184.65,120.24 185.40,120.30 186.15,120.35 186.90,120.41 187.65,120.46 188.40,120.51 189.15,120.57 189.90,120.62 190.65,120.67 191.40,120.73 192.15,119.99 192.90,120.04 193.65,120.09 194.40,120.14 195.16,120.20 195.91,120.25 196.66,120.30 197.41,120.35 198.16,120.40 198.91,120.45 199.66,120.50 200.41,120.55 201.16,120.60 201.91,120.65 202.66,120.69 203.41,120.74 204.16,120.08 204.91,120.13 205.67,120.18 206.42,120.22 207.17,120.27 207.92,120.32 208.67,120.37 209.42,120.41 210.17,120.46 210.92,120.51 211.67,120.55 212.42,120.60 213.17,120.64 213.92,120.69 214.67,120.73 215.43,120.78 216.18,120.18 216.93,120.22 217.68,120.27 218.43,120.31 219.18,120.36 219.93,120.40 220.68,120.44 221.43,120.49 222.18,120.53 222.93,120.57 223.68,120.62 224.43,120.66 225.18,120.70 225.94,120.75 226.69,120.79 227.44,120.83 228.19,120.29 228.94,120.33 229.69,120.37 230.44,120.41 231.19,120.45 231.94,120.49 232.69,120.54 233.44,120.58 234.19,120.62 234.94,120.66 235.70,120.70 236.45,120.74 237.20,120.78 237.95,120.82 238.70,120.86 239.45,120.89 240.20,120.40 240.95,120.44 241.70,120.48 242.45,120.52 243.20,120.56 243.95,120.60 244.70,120.64 245.45,120.67 246.21,120.71 246.96,120.75 247.71,120.79 248.46,120.82 249.21,120.86 249.96,120.90 250.71,120.94 251.46,120.97 252.21,120.53 252.96,120.57 253.71,120.60 254.46,120.64 255.21,120.68 255.96,120.71 256.72,120.75 257.47,120.78 258.22,120.82 258.97,120.85 259.72,120.89 260.47,120.92 261.22,120.96 261.97,120.99 262.72,121.03 263.47,121.06 264.22,120.66 264.97,120.70 265.72,120.73 266.48,120.77 267.23,120.80 267.98,120.83 268.73,120.87 269.48,120.90 270.23,120.93 270.98,120.97 271.73,121.00 272.48,121.03 273.23,121.07 273.98,121.10 274.73,121.13 275.48,121.16 276.23,120.81 276.99,120.84 277.74,120.87 278.49,120.90 279.24,120.93 279.99,120.97 280.74,121.00 281.49,121.03 282.24,121.06 282.99,121.09 283.74,121.12 284.49,121.15 285.24,121.19 285.99,121.22 286.74,121.25 287.50,121.28 288.25,120.96 289.00,120.99 289.75,121.02 290.50,121.05 291.25,121.08 292.00,121.11 292.75,121.14 293.50,121.17 294.25,121.20 295.00,121.23 295.75,121.26 296.50,121.29 297.26,121.32 298.01,121.35 298.76,121.37 299.51,121.40 300.26,121.12 301.01,121.15 301.76,121.18 302.51,121.20 303.26,121.23 304.01,121.26 304.76,121.29 305.51,121.32 306.26,121.35 307.01,121.37 307.77,121.40 308.52,121.43 309.27,121.46 310.02,121.48 310.77,121.51 311.52,121.54 312.27,121.29 313.02,121.32 313.77,121.34 314.52,121.37 315.27,121.40 316.02,121.42 316.77,121.45 317.52,121.48 318.28,121.50 319.03,121.53 319.78,121.56 320.53,121.58 321.28,121.61 322.03,121.64 322.78,121.66 323.53,121.69 324.28,121.47 325.03,121.49 325.78,121.52 326.53,121.54 327.28,121.57 328.04,121.60 328.79,121.62 329.54,121.65 330.29,121.67 331.04,121.70 331.79,121.72 332.54,121.75 333.29,121.77 334.04,121.80 334.79,121.82 335.54,121.85 336.29,121.66 337.04,121.68 337.79,121.71 338.55,121.73 339.30,121.75 340.05,121.78 340.80,121.80 341.55,121.83 342.30,121.85 343.05,121.87 343.80,121.90 344.55,121.92 345.30,121.95 346.05,121.97 346.80,121.99 347.55,122.02 348.30,121.86 349.06,121.88 349.81,121.90 350.56,121.93 351.31,121.95 352.06,121.97 352.81,122.00 353.56,122.02 354.31,122.04 355.06,122.06 355.81,122.09 356.56,122.11 357.31,122.13 358.06,122.15 358.82,122.18 359.57,122.20 360.32,122.07 361.07,122.09 361.82,122.11 362.57,122.13 363.32,122.15 364.07,122.18 364.82,122.20 365.57,122.22 366.32,122.24 367.07,122.26 367.82,122.29 368.57,122.31 369.33,122.33 370.08,122.35 370.83,122.37 371.58,122.39 372.33,122.29 373.08,122.31 373.83,122.33 374.58,122.35 375.33,122.37 376.08,122.39 376.83,122.41 377.58,122.43 378.33,122.45 379.09,122.48 379.84,122.50 380.59,122.52 381.34,122.54 382.09,122.56 382.84,122.58 383.59,122.60 384.34,122.52 385.09,122.54 385.84,122.56 386.59,122.58 387.34,122.60 388.09,122.62 388.84,122.64 389.60,122.66 390.35,122.68 391.10,122.70 391.85,122.72 392.60,122.74 393.35,122.76 394.10,122.78 394.85,122.80 395.60,122.81 396.35,122.77 397.10,122.78 397.85,122.80 398.60,122.82 399.35,122.84 400.11,122.86 400.86,122.88 401.61,122.90 402.36,122.92 403.11,122.93 403.86,122.95 404.61,122.97 405.36,122.99 406.11,123.01 406.86,123.03 407.61,123.05 408.36,123.02 409.11,123.04 409.87,123.06 410.62,123.08 411.37,123.09 412.12,123.11 412.87,123.13 413.62,123.15 414.37,123.17 415.12,123.18 415.87,123.20 416.62,123.22 417.37,123.24 418.12,123.25 418.87,123.27 419.62,123.29 420.38,123.29 421.13,123.31 421.88,123.33 422.63,123.34 423.38,123.36 424.13,123.38 424.88,123.40 425.63,123.41 426.38,123.43 427.13,123.45 427.88,123.46 428.63,123.48 429.38,123.50 430.13,123.51 430.89,123.53 431.64,123.55 432.39,123.58 433.14,123.59 433.89,123.61 434.64,123.63 435.39,123.64 436.14,123.66 436.89,123.67 437.64,123.69 438.39,123.71 439.14,123.72 439.89,123.74 440.65,123.75 441.40,123.77 442.15,123.79 442.90,123.80 443.65,123.82 444.40,123.87 445.15,123.89 445.90,123.91 446.65,123.92 447.40,123.94 448.15,123.95 448.90,123.97 449.65,123.98 450.40,124.00 451.16,124.01 451.91,124.03 452.66,124.04 453.41,124.06 454.16,124.07 454.91,124.09 455.66,124.10 456.41,124.19 457.16,124.20 457.91,124.22 458.66,124.23 459.41,124.25 460.16,124.26 460.91,124.28 461.67,124.29 462.42,124.31 463.17,124.32 463.92,124.33 464.67,124.35 465.42,124.36 466.17,124.38 466.92,124.39 467.67,124.41 468.42,124.52 469.17,124.53 469.92,124.54 470.67,124.56 471.43,124.57 472.18,124.59 472.93,124.60 473.68,124.61 474.43,124.63 475.18,124.64 475.93,124.66 476.68,124.67 477.43,124.68 478.18,124.70 478.93,124.71 479.68,124.72 480.43,124.86 481.18,124.88 481.94,124.89 482.69,124.90 483.44,124.92 484.19,124.93 484.94,124.94 485.69,124.96 486.44,124.97 487.19,124.98 487.94,125.00 488.69,125.01 489.44,125.02 490.19,125.03 490.94,125.05 491.70,125.06 492.45,125.23 493.20,125.24 493.95,125.25 494.70,125.26 495.45,125.28 496.20,125.29 496.95,125.30 497.70,125.31 498.45,125.33 499.20,125.34 499.95,125.35 500.70,125.36 501.45,125.38 502.21,125.39 502.96,125.40 503.71,125.41 504.46,125.61 505.21,125.62 505.96,125.63 506.71,125.65 507.46,125.66 508.21,125.67 508.96,125.68 509.71,125.69 510.46,125.71 511.21,125.72 511.96,125.73 512.72,125.74 513.47,125.75 514.22,125.76 514.97,125.78 515.72,125.79 516.47,126.01 517.22,126.02 517.97,126.04 518.72,126.05 519.47,126.06 520.22,126.07 520.97,126.08 521.72,126.09 522.48,126.10 523.23,126.12 523.98,126.13 524.73,126.14 525.48,126.15 526.23,126.16 526.98,126.17 527.73,126.18 528.48,126.44 529.23,126.45 529.98,126.46 530.73,126.47 531.48,126.48 532.23,126.49 532.99,126.50 533.74,126.51 534.49,126.53 535.24,126.54 535.99,126.55 536.74,126.56 537.49,126.57 538.24,126.58 538.99,126.59 539.74,126.60 540.49,126.89 541.24,126.90 541.99,126.91 542.74,126.92 543.50,126.93 544.25,126.94 545.00,126.95 545.75,126.96 546.50,126.97 547.25,126.98 548.00,126.99 548.75,127.00 549.50,127.01 550.25,127.02 551.00,127.03 551.75,127.04 552.50,127.36 553.26,127.37 554.01,127.38 554.76,127.39 555.51,127.40 556.26,127.41 557.01,127.42 557.76,127.43 558.51,127.44 559.26,127.45 560.01,127.46 560.76,127.47 561.51,127.48 562.26,127.49 563.01,127.50 563.77,127.51 564.52,127.87 565.27,127.88 566.02,127.89 566.77,127.89 567.52,127.90 568.27,127.91 569.02,127.92 569.77,127.93 570.52,127.94 571.27,127.95 572.02,127.96 572.77,127.97 573.52,127.98 574.28,127.98 575.03,127.99 575.78,128.00 576.53,128.40 577.28,128.41 578.03,128.42 578.78,128.43 579.53,128.44 580.28,128.44 581.03,128.45 581.78,128.46 582.53,128.47 583.28,128.48 584.04,128.49 584.79,128.49 585.54,128.50 586.29,128.51 587.04,128.52 587.79,128.53 588.54,128.97 589.29,128.98 590.04,128.98 590.79,128.99 591.54,129.00 592.29,129.01 593.04,129.02 593.79,129.02 594.55,129.03 595.30,129.04 596.05,129.05 596.80,129.06 597.55,129.06 598.30,129.07 599.05,129.08 599.80,129.09 600.55,129.57 601.30,129.58 602.05,129.59 602.80,129.60 603.55,129.60 604.30,129.61 605.06,129.62 605.81,129.63 606.56,129.63 607.31,129.64 608.06,129.65 608.81,129.66 609.56,129.66 610.31,129.67 611.06,129.68 611.81,129.68 612.56,130.22 613.31,130.23 614.06,130.23 614.82,130.24 615.57,130.25 616.32,130.26 617.07,130.26 617.82,130.27 618.57,130.28 619.32,130.28 620.07,130.29 620.82,130.30 621.57,130.30 622.32,130.31 623.07,130.32 623.82,130.32 624.57,130.91 625.33,130.92 626.08,130.93 626.83,130.93 627.58,130.94 628.33,130.95 629.08,130.95 629.83,130.96 630.58,130.97 631.33,130.97 632.08,130.98 632.83,130.98 633.58,130.99 634.33,131.00 635.09,131.00 635.84,131.01 636.59,131.66 637.34,131.66 638.09,131.67 638.84,131.68 639.59,131.68 640.34,131.69 641.09,131.69 641.84,131.70 642.59,131.71 643.34,131.71 644.09,131.72 644.84,131.72 645.60,131.73 646.35,131.74 647.10,131.74 647.85,131.75 648.60,132.46 649.35,132.47 650.10,132.48 650.85,132.48 651.60,132.49 652.35,132.49 653.10,132.50 653.85,132.50 654.60,132.51 655.35,132.51 656.11,132.52 656.86,132.52 657.61,132.53 658.36,132.54 659.11,132.54 659.86,132.55 660.61,133.34 661.36,133.34 662.11,133.35 662.86,133.35 663.61,133.36 664.36,133.36 665.11,133.37 665.87,133.37 666.62,133.38 667.37,133.38 668.12,133.39 668.87,133.39 669.62,133.40 670.37,133.40 671.12,133.41 671.87,133.41 672.62,134.29 673.37,134.30 674.12,134.30 674.87,134.31 675.62,134.31 676.38,134.32 677.13,134.32 677.88,134.33 678.63,134.33 679.38,134.34 680.13,134.34 680.88,134.35 681.63,134.35 682.38,134.35 683.13,134.36 683.88,134.36 684.63,135.35 685.38,135.35 686.13,135.36 686.89,135.36 687.64,135.36 688.39,135.37 689.14,135.37 689.89,135.38 690.64,135.38 691.39,135.38 692.14,135.39 692.89,135.39 693.64,135.40 694.39,135.40 695.14,135.40 695.89,135.41 696.65,136.51 697.40,136.52 698.15,136.52 698.90,136.53 699.65,136.53 700.40,136.53 701.15,136.54 701.90,136.54 702.65,136.54 703.40,136.55 704.15,136.55 704.90,136.56 705.65,136.56 706.40,136.56 707.16,136.57 707.91,136.57 708.66,137.82 709.41,137.83 710.16,137.83 710.91,137.83 711.66,137.84 712.41,137.84 713.16,137.84 713.91,137.85 714.66,137.85 715.41,137.85 716.16,137.86 716.91,137.86 717.67,137.86 718.42,137.87 719.17,137.87 719.92,137.87 720.67,139.32 721.42,139.32 722.17,139.32 722.92,139.32 723.67,139.33 724.42,139.33 725.17,139.33 725.92,139.34 726.67,139.34 727.43,139.34 728.18,139.34 728.93,139.35 729.68,139.35 730.43,139.35 731.18,139.35 731.93,139.36 732.68,141.04 733.43,141.04 734.18,141.05 734.93,141.05 735.68,141.05 736.43,141.05 737.18,141.06 737.94,141.06 738.69,141.06 739.44,141.06 740.19,141.06 740.94,141.07 741.69,141.07 742.44,141.07 743.19,141.07 743.94,141.08 744.69,143.09 745.44,143.09 746.19,143.09 746.94,143.09 747.70,143.09 748.45,143.10 749.20,143.10 749.95,143.10 750.70,143.10 751.45,143.10 752.20,143.11 752.95,143.11 753.70,143.11 754.45,143.11 755.20,143.11 755.95,143.12 756.70,145.60 757.45,145.60 758.21,145.60 758.96,145.60 759.71,145.60 760.46,145.60 761.21,145.61 761.96,145.61 762.71,145.61 763.46,145.61 764.21,145.61 764.96,145.61 765.71,145.61 766.46,145.62 767.21,145.62 767.96,145.62 768.72,148.84 769.47,148.84 770.22,148.84 770.97,148.84 771.72,148.84 772.47,148.84 773.22,148.84 773.97,148.84 774.72,148.85 775.47,148.85 776.22,148.85 776.97,148.85 777.72,148.85 778.48,148.85 779.23,148.85 779.98,148.85 780.73,153.41 781.48,153.41 782.23,153.41 782.98,153.41 783.73,153.41 784.48,153.41 785.23,153.41 785.98,153.41 786.73,153.41 787.48,153.42 788.23,153.42 788.99,153.42 789.74,153.42 790.49,153.42 791.24,153.42 791.99,153.42 792.74,161.23 793.49,161.23 794.24,161.23 794.99,161.23 795.74,161.23 796.49,161.23 797.24,161.23 797.99,161.23 798.74,161.23 799.50,161.24 800.25,161.24 801.00,161.24 801.75,161.24 802.50,161.24 803.25,161.24 804.00,244.00" />
  <text x="420.0" y="22" text-anchor="middle" font-family="Arial, Helvetica, sans-serif" font-size="15" fill="#102a43">cauchy_1p0 window (magnitude spectrum)</text>
  <text x="420.0" y="272" text-anchor="middle" font-family="Arial, Helvetica, sans-serif" font-size="12" fill="#334e68">normalized frequency</text>
  <text x="14" y="140.0" transform="rotate(-90 14,140.0)" text-anchor="middle" font-family="Arial, Helvetica, sans-serif" font-size="12" fill="#334e68">magnitude (dB)</text>
  <text x="36" y="262" font-family="Arial, Helvetica, sans-serif" font-size="11" fill="#486581">0</text>
  <text x="804" y="262" text-anchor="end" font-family="Arial, Helvetica, sans-serif" font-size="11" fill="#486581">1</text>
  <text x="30" y="40" text-anchor="end" font-family="Arial, Helvetica, sans-serif" font-size="11" fill="#486581">0.0</text>
  <text x="30" y="248" text-anchor="end" font-family="Arial, Helvetica, sans-serif" font-size="11" fill="#486581">-160.0</text>
</svg>
