<svg xmlns="http://www.w3.org/2000/svg" width="840" height="280" viewBox="0 0 840 280">
  <rect x="0" y="0" width="840" height="280" fill="#ffffff" />
  <rect x="36" y="36" width="768" height="208" fill="#f7fbff" stroke="#c8d9e6" />
  <polyline fill="none" stroke="#005f73" stroke-width="2" points="36.00,36.00 36.75,70.84 37.50,89.12 38.25,98.48 39.00,105.06 39.75,110.14 40.50,114.28 41.26,117.77 42.01,120.79 42.76,123.46 43.51,125.84 44.26,128.00 45.01,129.96 45.76,131.77 46.51,133.45 47.26,135.01 48.01,117.95 48.76,118.50 49.51,119.03 50.26,119.55 51.01,120.03 51.77,120.51 52.52,120.96 53.27,121.39 54.02,121.81 54.77,122.22 55.52,122.61 56.27,122.99 57.02,123.36 57.77,123.72 58.52,124.06 59.27,124.40 60.02,116.43 60.77,116.76 61.52,117.08 62.28,117.40 63.03,117.70 63.78,118.00 64.53,118.29 65.28,118.57 66.03,118.85 66.78,119.12 67.53,119.38 68.28,119.64 69.03,119.89 69.78,120.13 70.53,120.37 71.28,120.61 72.04,116.18 72.79,116.41 73.54,116.63 74.29,116.85 75.04,117.07 75.79,117.28 76.54,117.48 77.29,117.69 78.04,117.89 78.79,118.08 79.54,118.28 80.29,118.47 81.04,118.65 81.79,118.84 82.55,119.02 83.30,119.19 84.05,116.12 84.80,116.29 85.55,116.46 86.30,116.63 87.05,116.79 87.80,116.95 88.55,117.11 89.30,117.27 90.05,117.43 90.80,117.58 91.55,117.73 92.30,117.88 93.06,118.03 93.81,118.17 94.56,118.32 95.31,118.46 96.06,116.10 96.81,116.24 97.56,116.38 98.31,116.51 99.06,116.65 99.81,116.78 100.56,116.91 101.31,117.04 102.06,117.17 102.82,117.29 103.57,117.42 104.32,117.54 105.07,117.66 105.82,117.78 106.57,117.90 107.32,118.02 108.07,116.12 108.82,116.24 109.57,116.35 110.32,116.46 111.07,116.57 111.82,116.69 112.57,116.80 113.33,116.90 114.08,117.01 114.83,117.12 115.58,117.22 116.33,117.33 117.08,117.43 117.83,117.53 118.58,117.64 119.33,117.74 120.08,116.15 120.83,116.25 121.58,116.35 122.33,116.44 123.09,116.54 123.84,116.64 124.59,116.73 125.34,116.83 126.09,116.92 126.84,117.01 127.59,117.10 128.34,117.19 129.09,117.28 129.84,117.37 130.59,117.46 131.34,117.55 132.09,116.19 132.84,116.28 133.60,116.37 134.35,116.45 135.10,116.53 135.85,116.62 136.60,116.70 137.35,116.78 138.10,116.87 138.85,116.95 139.60,117.03 140.35,117.11 141.10,117.19 141.85,117.27 142.60,117.34 143.35,117.42 144.11,116.25 144.86,116.32 145.61,116.40 146.36,116.47 147.11,116.55 147.86,116.62 148.61,116.70 149.36,116.77 150.11,116.84 150.86,116.92 151.61,116.99 152.36,117.06 153.11,117.13 153.87,117.20 154.62,117.27 155.37,117.34 156.12,116.31 156.87,116.38 157.62,116.44 158.37,116.51 159.12,116.58 159.87,116.65 160.62,116.71 161.37,116.78 162.12,116.85 162.87,116.91 163.62,116.98 164.38,117.04 165.13,117.10 165.88,117.17 166.63,117.23 167.38,117.29 168.13,116.38 168.88,116.44 169.63,116.50 170.38,116.56 171.13,116.62 171.88,116.68 172.63,116.75 173.38,116.81 174.13,116.87 174.89,116.92 175.64,116.98 176.39,117.04 177.14,117.10 177.89,117.16 178.64,117.22 179.39,117.27 180.14,116.46 180.89,116.51 181.64,116.57 182.39,116.62 183.14,116.68 183.89,116.74 184.65,116.79 185.40,116.85 186.15,116.90 186.90,116.96 187.65,117.01 188.40,117.06 189.15,117.12 189.90,117.17 190.65,117.22 191.40,117.28 192.15,116.54 192.90,116.59 193.65,116.65 194.40,116.70 195.16,116.75 195.91,116.80 196.66,116.85 197.41,116.90 198.16,116.95 198.91,117.00 199.66,117.05 200.41,117.10 201.16,117.15 201.91,117.20 202.66,117.25 203.41,117.30 204.16,116.63 204.91,116.68 205.67,116.73 206.42,116.78 207.17,116.83 207.92,116.87 208.67,116.92 209.42,116.97 210.17,117.01 210.92,117.06 211.67,117.11 212.42,117.15 213.17,117.20 213.92,117.24 214.67,117.29 215.43,117.33 216.18,116.74 216.93,116.78 217.68,116.83 218.43,116.87 219.18,116.91 219.93,116.96 220.68,117.00 221.43,117.05 222.18,117.09 222.93,117.13 223.68,117.17 224.43,117.22 225.18,117.26 225.94,117.30 226.69,117.34 227.44,117.39 228.19,116.85 228.94,116.89 229.69,116.93 230.44,116.97 231.19,117.01 231.94,117.05 232.69,117.09 233.44,117.13 234.19,117.17 234.94,117.21 235.70,117.26 236.45,117.29 237.20,117.33 237.95,117.37 238.70,117.41 239.45,117.45 240.20,116.96 240.95,117.00 241.70,117.04 242.45,117.08 243.20,117.12 243.95,117.16 244.70,117.20 245.45,117.23 246.21,117.27 246.96,117.31 247.71,117.35 248.46,117.38 249.21,117.42 249.96,117.46 250.71,117.50 251.46,117.53 252.21,117.09 252.96,117.13 253.71,117.16 254.46,117.20 255.21,117.24 255.96,117.27 256.72,117.31 257.47,117.34 258.22,117.38 258.97,117.41 259.72,117.45 260.47,117.48 261.22,117.52 261.97,117.55 262.72,117.59 263.47,117.62 264.22,117.23 264.97,117.26 265.72,117.29 266.48,117.33 267.23,117.36 267.98,117.40 268.73,117.43 269.48,117.46 270.23,117.50 270.98,117.53 271.73,117.56 272.48,117.60 273.23,117.63 273.98,117.66 274.73,117.69 275.48,117.73 276.23,117.37 276.99,117.40 277.74,117.43 278.49,117.46 279.24,117.50 279.99,117.53 280.74,117.56 281.49,117.59 282.24,117.62 282.99,117.65 283.74,117.69 284.49,117.72 285.24,117.75 285.99,117.78 286.74,117.81 287.50,117.84 288.25,117.52 289.00,117.55 289.75,117.58 290.50,117.61 291.25,117.64 292.00,117.67 292.75,117.70 293.50,117.73 294.25,117.76 295.00,117.79 295.75,117.82 296.50,117.85 297.26,117.88 298.01,117.91 298.76,117.94 299.51,117.97 300.26,117.68 301.01,117.71 301.76,117.74 302.51,117.77 303.26,117.80 304.01,117.82 304.76,117.85 305.51,117.88 306.26,117.91 307.01,117.94 307.77,117.97 308.52,117.99 309.27,118.02 310.02,118.05 310.77,118.08 311.52,118.10 312.27,117.85 313.02,117.88 313.77,117.91 314.52,117.93 315.27,117.96 316.02,117.99 316.77,118.01 317.52,118.04 318.28,118.07 319.03,118.09 319.78,118.12 320.53,118.15 321.28,118.17 322.03,118.20 322.78,118.23 323.53,118.25 324.28,118.03 325.03,118.06 325.78,118.08 326.53,118.11 327.28,118.13 328.04,118.16 328.79,118.19 329.54,118.21 330.29,118.24 331.04,118.26 331.79,118.29 332.54,118.31 333.29,118.34 334.04,118.36 334.79,118.39 335.54,118.41 336.29,118.22 337.04,118.25 337.79,118.27 338.55,118.29 339.30,118.32 340.05,118.34 340.80,118.37 341.55,118.39 342.30,118.42 343.05,118.44 343.80,118.46 344.55,118.49 345.30,118.51 346.05,118.53 346.80,118.56 347.55,118.58 348.30,118.42 349.06,118.44 349.81,118.47 350.56,118.49 351.31,118.51 352.06,118.54 352.81,118.56 353.56,118.58 354.31,118.61 355.06,118.63 355.81,118.65 356.56,118.67 357.31,118.70 358.06,118.72 358.82,118.74 359.57,118.76 360.32,118.63 361.07,118.65 361.82,118.68 362.57,118.70 363.32,118.72 364.07,118.74 364.82,118.76 365.57,118.79 366.32,118.81 367.07,118.83 367.82,118.85 368.57,118.87 369.33,118.89 370.08,118.91 370.83,118.94 371.58,118.96 372.33,118.85 373.08,118.87 373.83,118.90 374.58,118.92 375.33,118.94 376.08,118.96 376.83,118.98 377.58,119.00 378.33,119.02 379.09,119.04 379.84,119.06 380.59,119.08 381.34,119.10 382.09,119.12 382.84,119.14 383.59,119.16 384.34,119.09 385.09,119.11 385.84,119.13 386.59,119.15 387.34,119.17 388.09,119.19 388.84,119.21 389.60,119.23 390.35,119.24 391.10,119.26 391.85,119.28 392.60,119.30 393.35,119.32 394.10,119.34 394.85,119.36 395.60,119.38 396.35,119.33 397.10,119.35 397.85,119.37 398.60,119.39 399.35,119.41 400.11,119.43 400.86,119.44 401.61,119.46 402.36,119.48 403.11,119.50 403.86,119.52 404.61,119.54 405.36,119.56 406.11,119.57 406.86,119.59 407.61,119.61 408.36,119.59 409.11,119.61 409.87,119.62 410.62,119.64 411.37,119.66 412.12,119.68 412.87,119.70 413.62,119.71 414.37,119.73 415.12,119.75 415.87,119.77 416.62,119.78 417.37,119.80 418.12,119.82 418.87,119.84 419.62,119.85 420.38,119.86 421.13,119.88 421.88,119.89 422.63,119.91 423.38,119.93 424.13,119.94 424.88,119.96 425.63,119.98 426.38,120.00 427.13,120.01 427.88,120.03 428.63,120.05 429.38,120.06 430.13,120.08 430.89,120.10 431.64,120.11 432.39,120.14 433.14,120.16 433.89,120.18 434.64,120.19 435.39,120.21 436.14,120.22 436.89,120.24 437.64,120.26 438.39,120.27 439.14,120.29 439.89,120.30 440.65,120.32 441.40,120.34 442.15,120.35 442.90,120.37 443.65,120.38 444.40,120.44 445.15,120.46 445.90,120.47 446.65,120.49 447.40,120.50 448.15,120.52 448.90,120.53 449.65,120.55 450.40,120.56 451.16,120.58 451.91,120.59 452.66,120.61 453.41,120.63 454.16,120.64 454.91,120.66 455.66,120.67 456.41,120.75 457.16,120.77 457.91,120.78 458.66,120.80 459.41,120.81 460.16,120.83 460.91,120.84 461.67,120.86 462.42,120.87 463.17,120.89 463.92,120.90 464.67,120.92 465.42,120.93 466.17,120.94 466.92,120.96 467.67,120.97 468.42,121.08 469.17,121.10 469.92,121.11 470.67,121.13 471.43,121.14 472.18,121.15 472.93,121.17 473.68,121.18 474.43,121.20 475.18,121.21 475.93,121.22 476.68,121.24 477.43,121.25 478.18,121.26 478.93,121.28 479.68,121.29 480.43,121.43 481.18,121.44 481.94,121.46 482.69,121.47 483.44,121.48 484.19,121.50 484.94,121.51 485.69,121.52 486.44,121.54 487.19,121.55 487.94,121.56 488.69,121.57 489.44,121.59 490.19,121.60 490.94,121.61 491.70,121.63 492.45,121.79 493.20,121.81 493.95,121.82 494.70,121.83 495.45,121.84 496.20,121.86 496.95,121.87 497.70,121.88 498.45,121.89 499.20,121.91 499.95,121.92 500.70,121.93 501.45,121.94 502.21,121.96 502.96,121.97 503.71,121.98 504.46,122.18 505.21,122.19 505.96,122.20 506.71,122.21 507.46,122.22 508.21,122.24 508.96,122.25 509.71,122.26 510.46,122.27 511.21,122.28 511.96,122.30 512.72,122.31 513.47,122.32 514.22,122.33 514.97,122.34 515.72,122.35 516.47,122.58 517.22,122.59 517.97,122.60 518.72,122.61 519.47,122.63 520.22,122.64 520.97,122.65 521.72,122.66 522.48,122.67 523.23,122.68 523.98,122.69 524.73,122.70 525.48,122.72 526.23,122.73 526.98,122.74 527.73,122.75 528.48,123.01 529.23,123.02 529.98,123.03 530.73,123.04 531.48,123.05 532.23,123.06 532.99,123.07 533.74,123.08 534.49,123.09 535.24,123.10 535.99,123.11 536.74,123.12 537.49,123.13 538.24,123.14 538.99,123.16 539.74,123.17 540.49,123.46 541.24,123.47 541.99,123.48 542.74,123.49 543.50,123.50 544.25,123.51 545.00,123.52 545.75,123.53 546.50,123.54 547.25,123.55 548.00,123.56 548.75,123.57 549.50,123.58 550.25,123.59 551.00,123.60 551.75,123.61 552.50,123.93 553.26,123.94 554.01,123.95 554.76,123.96 555.51,123.97 556.26,123.98 557.01,123.99 557.76,124.00 558.51,124.01 559.26,124.02 560.01,124.03 560.76,124.04 561.51,124.05 562.26,124.06 563.01,124.06 563.77,124.07 564.52,124.43 565.27,124.44 566.02,124.45 566.77,124.46 567.52,124.47 568.27,124.48 569.02,124.49 569.77,124.50 570.52,124.51 571.27,124.52 572.02,124.52 572.77,124.53 573.52,124.54 574.28,124.55 575.03,124.56 575.78,124.57 576.53,124.97 577.28,124.98 578.03,124.99 578.78,124.99 579.53,125.00 580.28,125.01 581.03,125.02 581.78,125.03 582.53,125.04 583.28,125.05 584.04,125.05 584.79,125.06 585.54,125.07 586.29,125.08 587.04,125.09 587.79,125.09 588.54,125.54 589.29,125.54 590.04,125.55 590.79,125.56 591.54,125.57 592.29,125.58 593.04,125.58 593.79,125.59 594.55,125.60 595.30,125.61 596.05,125.62 596.80,125.62 597.55,125.63 598.30,125.64 599.05,125.65 599.80,125.65 600.55,126.14 601.30,126.15 602.05,126.16 602.80,126.16 603.55,126.17 604.30,126.18 605.06,126.19 605.81,126.19 606.56,126.20 607.31,126.21 608.06,126.22 608.81,126.22 609.56,126.23 610.31,126.24 611.06,126.24 611.81,126.25 612.56,126.79 613.31,126.79 614.06,126.80 614.82,126.81 615.57,126.82 616.32,126.82 617.07,126.83 617.82,126.84 618.57,126.84 619.32,126.85 620.07,126.86 620.82,126.86 621.57,126.87 622.32,126.88 623.07,126.88 623.82,126.89 624.57,127.48 625.33,127.49 626.08,127.49 626.83,127.50 627.58,127.51 628.33,127.51 629.08,127.52 629.83,127.53 630.58,127.53 631.33,127.54 632.08,127.55 632.83,127.55 633.58,127.56 634.33,127.56 635.09,127.57 635.84,127.58 636.59,128.23 637.34,128.23 638.09,128.24 638.84,128.24 639.59,128.25 640.34,128.26 641.09,128.26 641.84,128.27 642.59,128.27 643.34,128.28 644.09,128.29 644.84,128.29 645.60,128.30 646.35,128.30 647.10,128.31 647.85,128.32 648.60,129.03 649.35,129.04 650.10,129.04 650.85,129.05 651.60,129.05 652.35,129.06 653.10,129.07 653.85,129.07 654.60,129.08 655.35,129.08 656.11,129.09 656.86,129.09 657.61,129.10 658.36,129.10 659.11,129.11 659.86,129.11 660.61,129.91 661.36,129.91 662.11,129.92 662.86,129.92 663.61,129.93 664.36,129.93 665.11,129.94 665.87,129.94 666.62,129.95 667.37,129.95 668.12,129.96 668.87,129.96 669.62,129.97 670.37,129.97 671.12,129.98 671.87,129.98 672.62,130.86 673.37,130.87 674.12,130.87 674.87,130.88 675.62,130.88 676.38,130.89 677.13,130.89 677.88,130.90 678.63,130.90 679.38,130.90 680.13,130.91 680.88,130.91 681.63,130.92 682.38,130.92 683.13,130.93 683.88,130.93 684.63,131.91 685.38,131.92 686.13,131.92 686.89,131.93 687.64,131.93 688.39,131.94 689.14,131.94 689.89,131.94 690.64,131.95 691.39,131.95 692.14,131.96 692.89,131.96 693.64,131.96 694.39,131.97 695.14,131.97 695.89,131.98 696.65,133.08 697.40,133.09 698.15,133.09 698.90,133.09 699.65,133.10 700.40,133.10 701.15,133.10 701.90,133.11 702.65,133.11 703.40,133.12 704.15,133.12 704.90,133.12 705.65,133.13 706.40,133.13 707.16,133.13 707.91,133.14 708.66,134.39 709.41,134.40 710.16,134.40 710.91,134.40 711.66,134.41 712.41,134.41 713.16,134.41 713.91,134.42 714.66,134.42 715.41,134.42 716.16,134.43 716.91,134.43 717.67,134.43 718.42,134.43 719.17,134.44 719.92,134.44 720.67,135.88 721.42,135.89 722.17,135.89 722.92,135.89 723.67,135.89 724.42,135.90 725.17,135.90 725.92,135.90 726.67,135.91 727.43,135.91 728.18,135.91 728.93,135.91 729.68,135.92 730.43,135.92 731.18,135.92 731.93,135.92 732.68,137.61 733.43,137.61 734.18,137.61 734.93,137.62 735.68,137.62 736.43,137.62 737.18,137.62 737.94,137.63 738.69,137.63 739.44,137.63 740.19,137.63 740.94,137.63 741.69,137.64 742.44,137.64 743.19,137.64 743.94,137.64 744.69,139.65 745.44,139.66 746.19,139.66 746.94,139.66 747.70,139.66 748.45,139.66 749.20,139.67 749.95,139.67 750.70,139.67 751.45,139.67 752.20,139.67 752.95,139.68 753.70,139.68 754.45,139.68 755.20,139.68 755.95,139.68 756.70,142.16 757.45,142.16 758.21,142.17 758.96,142.17 759.71,142.17 760.46,142.17 761.21,142.17 761.96,142.17 762.71,142.18 763.46,142.18 764.21,142.18 764.96,142.18 765.71,142.18 766.46,142.18 767.21,142.18 767.96,142.19 768.72,145.40 769.47,145.40 770.22,145.41 770.97,145.41 771.72,145.41 772.47,145.41 773.22,145.41 773.97,145.41 774.72,145.41 775.47,145.41 776.22,145.41 776.97,145.42 777.72,145.42 778.48,145.42 779.23,145.42 779.98,145.42 780.73,149.98 781.48,149.98 782.23,149.98 782.98,149.98 783.73,149.98 784.48,149.98 785.23,149.98 785.98,149.98 786.73,149.98 787.48,149.98 788.23,149.98 788.99,149.98 789.74,149.98 790.49,149.98 791.24,149.99 791.99,149.99 792.74,157.80 793.49,157.80 794.24,157.80 794.99,157.80 795.74,157.80 796.49,157.80 797.24,157.80 797.99,157.80 798.74,157.80 799.50,157.80 800.25,157.80 801.00,157.80 801.75,157.80 802.50,157.80 803.25,157.80 804.00,244.00" />
  <text x="420.0" y="22" text-anchor="middle" font-family="Arial, Helvetica, sans-serif" font-size="15" fill="#102a43">cauchy_2p0 window (magnitude spectrum)</text>
  <text x="420.0" y="272" text-anchor="middle" font-family="Arial, Helvetica, sans-serif" font-size="12" fill="#334e68">normalized frequency</text>
  <text x="14" y="140.0" transform="rotate(-90 14,140.0)" text-anchor="middle" font-family="Arial, Helvetica, sans-serif" font-size="12" fill="#334e68">magnitude (dB)</text>
  <text x="36" y="262" font-family="Arial, Helvetica, sans-serif" font-size="11" fill="#486581">0</text>
  <text x="804" y="262" text-anchor="end" font-family="Arial, Helvetica, sans-serif" font-size="11" fill="#486581">1</text>
  <text x="30" y="40" text-anchor="end" font-family="Arial, Helvetica, sans-serif" font-size="11" fill="#486581">0.0</text>
  <text x="30" y="248" text-anchor="end" font-family="Arial, Helvetica, sans-serif" font-size="11" fill="#486581">-160.0</text>
</svg>
