<svg xmlns="http://www.w3.org/2000/svg" width="840" height="280" viewBox="0 0 840 280">
  <rect x="0" y="0" width="840" height="280" fill="#ffffff" />
  <rect x="36" y="36" width="768" height="208" fill="#f7fbff" stroke="#c8d9e6" />
  <polyline fill="none" stroke="#005f73" stroke-width="2" points="36.00,140.00 36.75,139.80 37.50,139.59 38.25,139.39 39.00,139.18 39.75,138.98 40.50,138.77 41.26,138.57 42.01,138.36 42.76,138.15 43.51,137.95 44.26,137.74 45.01,137.53 45.76,137.32 46.51,137.12 47.26,136.91 48.01,136.70 48.76,136.49 49.51,136.28 50.26,136.07 51.01,135.86 51.77,135.64 52.52,135.43 53.27,135.22 54.02,135.01 54.77,134.80 55.52,134.58 56.27,134.37 57.02,134.15 57.77,133.94 58.52,133.72 59.27,133.51 60.02,133.29 60.77,133.08 61.52,132.86 62.28,132.64 63.03,132.43 63.78,132.21 64.53,131.99 65.28,131.77 66.03,131.55 66.78,131.34 67.53,131.12 68.28,130.90 69.03,130.68 69.78,130.45 70.53,130.23 71.28,130.01 72.04,129.79 72.79,129.57 73.54,129.35 74.29,129.12 75.04,128.90 75.79,128.67 76.54,128.45 77.29,128.23 78.04,128.00 78.79,127.78 79.54,127.55 80.29,127.32 81.04,127.10 81.79,126.87 82.55,126.64 83.30,126.42 84.05,126.19 84.80,125.96 85.55,125.73 86.30,125.50 87.05,125.27 87.80,125.04 88.55,124.81 89.30,124.58 90.05,124.35 90.80,124.12 91.55,123.89 92.30,123.66 93.06,123.42 93.81,123.19 94.56,122.96 95.31,122.72 96.06,122.49 96.81,122.26 97.56,122.02 98.31,121.79 99.06,121.55 99.81,121.31 100.56,121.08 101.31,120.84 102.06,120.61 102.82,120.37 103.57,120.13 104.32,119.89 105.07,119.66 105.82,119.42 106.57,119.18 107.32,118.94 108.07,118.70 108.82,118.46 109.57,118.22 110.32,117.98 111.07,117.74 111.82,117.50 112.57,117.26 113.33,117.01 114.08,116.77 114.83,116.53 115.58,116.29 116.33,116.04 117.08,115.80 117.83,115.56 118.58,115.31 119.33,115.07 120.08,114.82 120.83,114.58 121.58,114.33 122.33,114.09 123.09,113.84 123.84,113.59 124.59,113.35 125.34,113.10 126.09,112.85 126.84,112.61 127.59,112.36 128.34,112.11 129.09,111.86 129.84,111.61 130.59,111.36 131.34,111.11 132.09,110.86 132.84,110.61 133.60,110.36 134.35,110.11 135.10,109.86 135.85,109.61 136.60,109.36 137.35,109.11 138.10,108.86 138.85,108.61 139.60,108.35 140.35,108.10 141.10,107.85 141.85,107.59 142.60,107.34 143.35,107.09 144.11,106.83 144.86,106.58 145.61,106.32 146.36,106.07 147.11,105.82 147.86,105.56 148.61,105.30 149.36,105.05 150.11,104.79 150.86,104.54 151.61,104.28 152.36,104.02 153.11,103.77 153.87,103.51 154.62,103.25 155.37,103.00 156.12,102.74 156.87,102.48 157.62,102.22 158.37,101.96 159.12,101.71 159.87,101.45 160.62,101.19 161.37,100.93 162.12,100.67 162.87,100.41 163.62,100.15 164.38,99.89 165.13,99.63 165.88,99.37 166.63,99.11 167.38,98.85 168.13,98.59 168.88,98.33 169.63,98.07 170.38,97.81 171.13,97.55 171.88,97.29 172.63,97.02 173.38,96.76 174.13,96.50 174.89,96.24 175.64,95.98 176.39,95.71 177.14,95.45 177.89,95.19 178.64,94.93 179.39,94.67 180.14,94.40 180.89,94.14 181.64,93.88 182.39,93.61 183.14,93.35 183.89,93.09 184.65,92.82 185.40,92.56 186.15,92.30 186.90,92.03 187.65,91.77 188.40,91.51 189.15,91.24 189.90,90.98 190.65,90.72 191.40,90.45 192.15,90.19 192.90,89.92 193.65,89.66 194.40,89.40 195.16,89.13 195.91,88.87 196.66,88.60 197.41,88.34 198.16,88.08 198.91,87.81 199.66,87.55 200.41,87.28 201.16,87.02 201.91,86.76 202.66,86.49 203.41,86.23 204.16,85.97 204.91,85.70 205.67,85.44 206.42,85.17 207.17,84.91 207.92,84.65 208.67,84.38 209.42,84.12 210.17,83.86 210.92,83.59 211.67,83.33 212.42,83.07 213.17,82.80 213.92,82.54 214.67,82.28 215.43,82.01 216.18,81.75 216.93,81.49 217.68,81.23 218.43,80.96 219.18,80.70 219.93,80.44 220.68,80.18 221.43,79.92 222.18,79.65 222.93,79.39 223.68,79.13 224.43,78.87 225.18,78.61 225.94,78.35 226.69,78.09 227.44,77.83 228.19,77.57 228.94,77.31 229.69,77.05 230.44,76.79 231.19,76.53 231.94,76.27 232.69,76.01 233.44,75.75 234.19,75.49 234.94,75.24 235.70,74.98 236.45,74.72 237.20,74.46 237.95,74.21 238.70,73.95 239.45,73.69 240.20,73.44 240.95,73.18 241.70,72.92 242.45,72.67 243.20,72.41 243.95,72.16 244.70,71.91 245.45,71.65 246.21,71.40 246.96,71.14 247.71,70.89 248.46,70.64 249.21,70.39 249.96,70.13 250.71,69.88 251.46,69.63 252.21,69.38 252.96,69.13 253.71,68.88 254.46,68.63 255.21,68.38 255.96,68.13 256.72,67.89 257.47,67.64 258.22,67.39 258.97,67.14 259.72,66.90 260.47,66.65 261.22,66.41 261.97,66.16 262.72,65.92 263.47,65.67 264.22,65.43 264.97,65.19 265.72,64.94 266.48,64.70 267.23,64.46 267.98,64.22 268.73,63.98 269.48,63.74 270.23,63.50 270.98,63.26 271.73,63.02 272.48,62.79 273.23,62.55 273.98,62.31 274.73,62.08 275.48,61.84 276.23,61.61 276.99,61.37 277.74,61.14 278.49,60.91 279.24,60.68 279.99,60.44 280.74,60.21 281.49,59.98 282.24,59.75 282.99,59.53 283.74,59.30 284.49,59.07 285.24,58.84 285.99,58.62 286.74,58.39 287.50,58.17 288.25,57.94 289.00,57.72 289.75,57.50 290.50,57.28 291.25,57.06 292.00,56.84 292.75,56.62 293.50,56.40 294.25,56.18 295.00,55.96 295.75,55.75 296.50,55.53 297.26,55.32 298.01,55.10 298.76,54.89 299.51,54.68 300.26,54.47 301.01,54.26 301.76,54.05 302.51,53.84 303.26,53.63 304.01,53.43 304.76,53.22 305.51,53.02 306.26,52.81 307.01,52.61 307.77,52.41 308.52,52.20 309.27,52.00 310.02,51.80 310.77,51.61 311.52,51.41 312.27,51.21 313.02,51.02 313.77,50.82 314.52,50.63 315.27,50.43 316.02,50.24 316.77,50.05 317.52,49.86 318.28,49.67 319.03,49.49 319.78,49.30 320.53,49.11 321.28,48.93 322.03,48.75 322.78,48.56 323.53,48.38 324.28,48.20 325.03,48.02 325.78,47.84 326.53,47.67 327.28,47.49 328.04,47.32 328.79,47.14 329.54,46.97 330.29,46.80 331.04,46.63 331.79,46.46 332.54,46.29 333.29,46.12 334.04,45.96 334.79,45.79 335.54,45.63 336.29,45.47 337.04,45.31 337.79,45.15 338.55,44.99 339.30,44.83 340.05,44.67 340.80,44.52 341.55,44.36 342.30,44.21 343.05,44.06 343.80,43.91 344.55,43.76 345.30,43.61 346.05,43.47 346.80,43.32 347.55,43.18 348.30,43.04 349.06,42.89 349.81,42.75 350.56,42.62 351.31,42.48 352.06,42.34 352.81,42.21 353.56,42.07 354.31,41.94 355.06,41.81 355.81,41.68 356.56,41.55 357.31,41.43 358.06,41.30 358.82,41.18 359.57,41.05 360.32,40.93 361.07,40.81 361.82,40.69 362.57,40.58 363.32,40.46 364.07,40.35 364.82,40.23 365.57,40.12 366.32,40.01 367.07,39.90 367.82,39.79 368.57,39.69 369.33,39.58 370.08,39.48 370.83,39.38 371.58,39.28 372.33,39.18 373.08,39.08 373.83,38.98 374.58,38.89 375.33,38.80 376.08,38.71 376.83,38.62 377.58,38.53 378.33,38.44 379.09,38.35 379.84,38.27 380.59,38.19 381.34,38.11 382.09,38.03 382.84,37.95 383.59,37.87 384.34,37.80 385.09,37.72 385.84,37.65 386.59,37.58 387.34,37.51 388.09,37.44 388.84,37.38 389.60,37.31 390.35,37.25 391.10,37.19 391.85,37.13 392.60,37.07 393.35,37.01 394.10,36.95 394.85,36.90 395.60,36.85 396.35,36.80 397.10,36.75 397.85,36.70 398.60,36.65 399.35,36.61 400.11,36.57 400.86,36.53 401.61,36.49 402.36,36.45 403.11,36.41 403.86,36.38 404.61,36.34 405.36,36.31 406.11,36.28 406.86,36.25 407.61,36.22 408.36,36.20 409.11,36.17 409.87,36.15 410.62,36.13 411.37,36.11 412.12,36.09 412.87,36.08 413.62,36.06 414.37,36.05 415.12,36.04 415.87,36.03 416.62,36.02 417.37,36.01 418.12,36.01 418.87,36.00 419.62,36.00 420.38,36.00 421.13,36.00 421.88,36.00 422.63,36.01 423.38,36.01 424.13,36.02 424.88,36.03 425.63,36.04 426.38,36.05 427.13,36.07 427.88,36.08 428.63,36.10 429.38,36.12 430.13,36.14 430.89,36.16 431.64,36.18 432.39,36.21 433.14,36.24 433.89,36.26 434.64,36.29 435.39,36.33 436.14,36.36 436.89,36.39 437.64,36.43 438.39,36.47 439.14,36.51 439.89,36.55 440.65,36.59 441.40,36.63 442.15,36.68 442.90,36.72 443.65,36.77 444.40,36.82 445.15,36.87 445.90,36.93 446.65,36.98 447.40,37.04 448.15,37.10 448.90,37.16 449.65,37.22 450.40,37.28 451.16,37.34 451.91,37.41 452.66,37.48 453.41,37.54 454.16,37.61 454.91,37.69 455.66,37.76 456.41,37.83 457.16,37.91 457.91,37.99 458.66,38.07 459.41,38.15 460.16,38.23 460.91,38.31 461.67,38.40 462.42,38.48 463.17,38.57 463.92,38.66 464.67,38.75 465.42,38.84 466.17,38.94 466.92,39.03 467.67,39.13 468.42,39.23 469.17,39.33 469.92,39.43 470.67,39.53 471.43,39.63 472.18,39.74 472.93,39.85 473.68,39.96 474.43,40.06 475.18,40.18 475.93,40.29 476.68,40.40 477.43,40.52 478.18,40.63 478.93,40.75 479.68,40.87 480.43,40.99 481.18,41.11 481.94,41.24 482.69,41.36 483.44,41.49 484.19,41.62 484.94,41.75 485.69,41.88 486.44,42.01 487.19,42.14 487.94,42.27 488.69,42.41 489.44,42.55 490.19,42.68 490.94,42.82 491.70,42.96 492.45,43.11 493.20,43.25 493.95,43.39 494.70,43.54 495.45,43.69 496.20,43.84 496.95,43.98 497.70,44.14 498.45,44.29 499.20,44.44 499.95,44.60 500.70,44.75 501.45,44.91 502.21,45.07 502.96,45.23 503.71,45.39 504.46,45.55 505.21,45.71 505.96,45.87 506.71,46.04 507.46,46.21 508.21,46.37 508.96,46.54 509.71,46.71 510.46,46.88 511.21,47.06 511.96,47.23 512.72,47.40 513.47,47.58 514.22,47.76 514.97,47.93 515.72,48.11 516.47,48.29 517.22,48.47 517.97,48.65 518.72,48.84 519.47,49.02 520.22,49.21 520.97,49.39 521.72,49.58 522.48,49.77 523.23,49.96 523.98,50.15 524.73,50.34 525.48,50.53 526.23,50.72 526.98,50.92 527.73,51.11 528.48,51.31 529.23,51.51 529.98,51.71 530.73,51.90 531.48,52.10 532.23,52.31 532.99,52.51 533.74,52.71 534.49,52.91 535.24,53.12 535.99,53.32 536.74,53.53 537.49,53.74 538.24,53.95 538.99,54.15 539.74,54.36 540.49,54.57 541.24,54.79 541.99,55.00 542.74,55.21 543.50,55.43 544.25,55.64 545.00,55.86 545.75,56.07 546.50,56.29 547.25,56.51 548.00,56.73 548.75,56.95 549.50,57.17 550.25,57.39 551.00,57.61 551.75,57.83 552.50,58.06 553.26,58.28 554.01,58.50 554.76,58.73 555.51,58.96 556.26,59.18 557.01,59.41 557.76,59.64 558.51,59.87 559.26,60.10 560.01,60.33 560.76,60.56 561.51,60.79 562.26,61.02 563.01,61.26 563.77,61.49 564.52,61.72 565.27,61.96 566.02,62.19 566.77,62.43 567.52,62.67 568.27,62.90 569.02,63.14 569.77,63.38 570.52,63.62 571.27,63.86 572.02,64.10 572.77,64.34 573.52,64.58 574.28,64.82 575.03,65.06 575.78,65.31 576.53,65.55 577.28,65.79 578.03,66.04 578.78,66.28 579.53,66.53 580.28,66.77 581.03,67.02 581.78,67.27 582.53,67.51 583.28,67.76 584.04,68.01 584.79,68.26 585.54,68.51 586.29,68.76 587.04,69.01 587.79,69.26 588.54,69.51 589.29,69.76 590.04,70.01 590.79,70.26 591.54,70.51 592.29,70.76 593.04,71.02 593.79,71.27 594.55,71.52 595.30,71.78 596.05,72.03 596.80,72.29 597.55,72.54 598.30,72.80 599.05,73.05 599.80,73.31 600.55,73.56 601.30,73.82 602.05,74.08 602.80,74.33 603.55,74.59 604.30,74.85 605.06,75.11 605.81,75.36 606.56,75.62 607.31,75.88 608.06,76.14 608.81,76.40 609.56,76.66 610.31,76.92 611.06,77.18 611.81,77.44 612.56,77.70 613.31,77.96 614.06,78.22 614.82,78.48 615.57,78.74 616.32,79.00 617.07,79.26 617.82,79.52 618.57,79.79 619.32,80.05 620.07,80.31 620.82,80.57 621.57,80.83 622.32,81.10 623.07,81.36 623.82,81.62 624.57,81.88 625.33,82.15 626.08,82.41 626.83,82.67 627.58,82.93 628.33,83.20 629.08,83.46 629.83,83.72 630.58,83.99 631.33,84.25 632.08,84.51 632.83,84.78 633.58,85.04 634.33,85.31 635.09,85.57 635.84,85.83 636.59,86.10 637.34,86.36 638.09,86.62 638.84,86.89 639.59,87.15 640.34,87.42 641.09,87.68 641.84,87.94 642.59,88.21 643.34,88.47 644.09,88.74 644.84,89.00 645.60,89.26 646.35,89.53 647.10,89.79 647.85,90.06 648.60,90.32 649.35,90.58 650.10,90.85 650.85,91.11 651.60,91.38 652.35,91.64 653.10,91.90 653.85,92.17 654.60,92.43 655.35,92.69 656.11,92.96 656.86,93.22 657.61,93.48 658.36,93.75 659.11,94.01 659.86,94.27 660.61,94.53 661.36,94.80 662.11,95.06 662.86,95.32 663.61,95.58 664.36,95.85 665.11,96.11 665.87,96.37 666.62,96.63 667.37,96.89 668.12,97.15 668.87,97.42 669.62,97.68 670.37,97.94 671.12,98.20 671.87,98.46 672.62,98.72 673.37,98.98 674.12,99.24 674.87,99.50 675.62,99.76 676.38,100.02 677.13,100.28 677.88,100.54 678.63,100.80 679.38,101.06 680.13,101.32 680.88,101.58 681.63,101.84 682.38,102.09 683.13,102.35 683.88,102.61 684.63,102.87 685.38,103.12 686.13,103.38 686.89,103.64 687.64,103.90 688.39,104.15 689.14,104.41 689.89,104.67 690.64,104.92 691.39,105.18 692.14,105.43 692.89,105.69 693.64,105.94 694.39,106.20 695.14,106.45 695.89,106.71 696.65,106.96 697.40,107.21 698.15,107.47 698.90,107.72 699.65,107.97 700.40,108.23 701.15,108.48 701.90,108.73 702.65,108.98 703.40,109.24 704.15,109.49 704.90,109.74 705.65,109.99 706.40,110.24 707.16,110.49 707.91,110.74 708.66,110.99 709.41,111.24 710.16,111.49 710.91,111.74 711.66,111.99 712.41,112.23 713.16,112.48 713.91,112.73 714.66,112.98 715.41,113.22 716.16,113.47 716.91,113.72 717.67,113.96 718.42,114.21 719.17,114.45 719.92,114.70 720.67,114.94 721.42,115.19 722.17,115.43 722.92,115.68 723.67,115.92 724.42,116.16 725.17,116.41 725.92,116.65 726.67,116.89 727.43,117.13 728.18,117.38 728.93,117.62 729.68,117.86 730.43,118.10 731.18,118.34 731.93,118.58 732.68,118.82 733.43,119.06 734.18,119.30 734.93,119.54 735.68,119.77 736.43,120.01 737.18,120.25 737.94,120.49 738.69,120.72 739.44,120.96 740.19,121.20 740.94,121.43 741.69,121.67 742.44,121.90 743.19,122.14 743.94,122.37 744.69,122.61 745.44,122.84 746.19,123.07 746.94,123.31 747.70,123.54 748.45,123.77 749.20,124.00 749.95,124.23 750.70,124.47 751.45,124.70 752.20,124.93 752.95,125.16 753.70,125.39 754.45,125.62 755.20,125.84 755.95,126.07 756.70,126.30 757.45,126.53 758.21,126.76 758.96,126.98 759.71,127.21 760.46,127.44 761.21,127.66 761.96,127.89 762.71,128.11 763.46,128.34 764.21,128.56 764.96,128.79 765.71,129.01 766.46,129.23 767.21,129.46 767.96,129.68 768.72,129.90 769.47,130.12 770.22,130.34 770.97,130.56 771.72,130.79 772.47,131.01 773.22,131.23 773.97,131.44 774.72,131.66 775.47,131.88 776.22,132.10 776.97,132.32 777.72,132.54 778.48,132.75 779.23,132.97 779.98,133.19 780.73,133.40 781.48,133.62 782.23,133.83 782.98,134.05 783.73,134.26 784.48,134.48 785.23,134.69 785.98,134.90 786.73,135.11 787.48,135.33 788.23,135.54 788.99,135.75 789.74,135.96 790.49,136.17 791.24,136.38 791.99,136.59 792.74,136.80 793.49,137.01 794.24,137.22 794.99,137.43 795.74,137.64 796.49,137.84 797.24,138.05 797.99,138.26 798.74,138.46 799.50,138.67 800.25,138.88 801.00,139.08 801.75,139.29 802.50,139.49 803.25,139.69 804.00,140.00" />
  <text x="420.0" y="22" text-anchor="middle" font-family="Arial, Helvetica, sans-serif" font-size="15" fill="#102a43">cauchy_1p0 window (time domain)</text>
  <text x="420.0" y="272" text-anchor="middle" font-family="Arial, Helvetica, sans-serif" font-size="12" fill="#334e68">normalized sample index</text>
  <text x="14" y="140.0" transform="rotate(-90 14,140.0)" text-anchor="middle" font-family="Arial, Helvetica, sans-serif" font-size="12" fill="#334e68">amplitude</text>
  <text x="36" y="262" font-family="Arial, Helvetica, sans-serif" font-size="11" fill="#486581">0</text>
  <text x="804" y="262" text-anchor="end" font-family="Arial, Helvetica, sans-serif" font-size="11" fill="#486581">1</text>
  <text x="30" y="40" text-anchor="end" font-family="Arial, Helvetica, sans-serif" font-size="11" fill="#486581">1.0</text>
  <text x="30" y="248" text-anchor="end" font-family="Arial, Helvetica, sans-serif" font-size="11" fill="#486581">0.0</text>
</svg>
