<svg xmlns="http://www.w3.org/2000/svg" width="840" height="280" viewBox="0 0 840 280">
  <rect x="0" y="0" width="840" height="280" fill="#ffffff" />
  <rect x="36" y="36" width="768" height="208" fill="#f7fbff" stroke="#c8d9e6" />
  <polyline fill="none" stroke="#005f73" stroke-width="2" points="36.00,202.40 36.75,202.27 37.50,202.14 38.25,202.01 39.00,201.88 39.75,201.74 40.50,201.61 41.26,201.48 42.01,201.34 42.76,201.21 43.51,201.07 44.26,200.93 45.01,200.80 45.76,200.66 46.51,200.52 47.26,200.38 48.01,200.25 48.76,200.11 49.51,199.97 50.26,199.82 51.01,199.68 51.77,199.54 52.52,199.40 53.27,199.25 54.02,199.11 54.77,198.97 55.52,198.82 56.27,198.67 57.02,198.53 57.77,198.38 58.52,198.23 59.27,198.08 60.02,197.94 60.77,197.79 61.52,197.64 62.28,197.48 63.03,197.33 63.78,197.18 64.53,197.03 65.28,196.87 66.03,196.72 66.78,196.56 67.53,196.41 68.28,196.25 69.03,196.09 69.78,195.93 70.53,195.78 71.28,195.62 72.04,195.46 72.79,195.30 73.54,195.13 74.29,194.97 75.04,194.81 75.79,194.65 76.54,194.48 77.29,194.32 78.04,194.15 78.79,193.98 79.54,193.82 80.29,193.65 81.04,193.48 81.79,193.31 82.55,193.14 83.30,192.97 84.05,192.79 84.80,192.62 85.55,192.45 86.30,192.27 87.05,192.10 87.80,191.92 88.55,191.75 89.30,191.57 90.05,191.39 90.80,191.21 91.55,191.03 92.30,190.85 93.06,190.67 93.81,190.49 94.56,190.30 95.31,190.12 96.06,189.93 96.81,189.75 97.56,189.56 98.31,189.37 99.06,189.19 99.81,189.00 100.56,188.81 101.31,188.62 102.06,188.42 102.82,188.23 103.57,188.04 104.32,187.84 105.07,187.65 105.82,187.45 106.57,187.25 107.32,187.06 108.07,186.86 108.82,186.66 109.57,186.46 110.32,186.26 111.07,186.05 111.82,185.85 112.57,185.64 113.33,185.44 114.08,185.23 114.83,185.03 115.58,184.82 116.33,184.61 117.08,184.40 117.83,184.19 118.58,183.97 119.33,183.76 120.08,183.55 120.83,183.33 121.58,183.12 122.33,182.90 123.09,182.68 123.84,182.46 124.59,182.24 125.34,182.02 126.09,181.80 126.84,181.58 127.59,181.35 128.34,181.13 129.09,180.90 129.84,180.67 130.59,180.45 131.34,180.22 132.09,179.99 132.84,179.75 133.60,179.52 134.35,179.29 135.10,179.05 135.85,178.82 136.60,178.58 137.35,178.34 138.10,178.10 138.85,177.86 139.60,177.62 140.35,177.38 141.10,177.14 141.85,176.89 142.60,176.65 143.35,176.40 144.11,176.15 144.86,175.90 145.61,175.65 146.36,175.40 147.11,175.15 147.86,174.89 148.61,174.64 149.36,174.38 150.11,174.12 150.86,173.87 151.61,173.61 152.36,173.35 153.11,173.08 153.87,172.82 154.62,172.56 155.37,172.29 156.12,172.02 156.87,171.75 157.62,171.48 158.37,171.21 159.12,170.94 159.87,170.67 160.62,170.39 161.37,170.12 162.12,169.84 162.87,169.56 163.62,169.28 164.38,169.00 165.13,168.72 165.88,168.44 166.63,168.15 167.38,167.87 168.13,167.58 168.88,167.29 169.63,167.00 170.38,166.71 171.13,166.42 171.88,166.12 172.63,165.83 173.38,165.53 174.13,165.23 174.89,164.93 175.64,164.63 176.39,164.33 177.14,164.03 177.89,163.72 178.64,163.42 179.39,163.11 180.14,162.80 180.89,162.49 181.64,162.18 182.39,161.87 183.14,161.55 183.89,161.23 184.65,160.92 185.40,160.60 186.15,160.28 186.90,159.96 187.65,159.63 188.40,159.31 189.15,158.98 189.90,158.66 190.65,158.33 191.40,158.00 192.15,157.66 192.90,157.33 193.65,157.00 194.40,156.66 195.16,156.32 195.91,155.98 196.66,155.64 197.41,155.30 198.16,154.96 198.91,154.61 199.66,154.27 200.41,153.92 201.16,153.57 201.91,153.22 202.66,152.86 203.41,152.51 204.16,152.15 204.91,151.80 205.67,151.44 206.42,151.08 207.17,150.72 207.92,150.35 208.67,149.99 209.42,149.62 210.17,149.25 210.92,148.88 211.67,148.51 212.42,148.14 213.17,147.77 213.92,147.39 214.67,147.01 215.43,146.63 216.18,146.25 216.93,145.87 217.68,145.49 218.43,145.10 219.18,144.71 219.93,144.33 220.68,143.94 221.43,143.54 222.18,143.15 222.93,142.76 223.68,142.36 224.43,141.96 225.18,141.56 225.94,141.16 226.69,140.76 227.44,140.36 228.19,139.95 228.94,139.54 229.69,139.13 230.44,138.72 231.19,138.31 231.94,137.90 232.69,137.48 233.44,137.06 234.19,136.65 234.94,136.23 235.70,135.80 236.45,135.38 237.20,134.96 237.95,134.53 238.70,134.10 239.45,133.67 240.20,133.24 240.95,132.81 241.70,132.37 242.45,131.94 243.20,131.50 243.95,131.06 244.70,130.62 245.45,130.18 246.21,129.73 246.96,129.29 247.71,128.84 248.46,128.39 249.21,127.94 249.96,127.49 250.71,127.04 251.46,126.59 252.21,126.13 252.96,125.67 253.71,125.21 254.46,124.75 255.21,124.29 255.96,123.83 256.72,123.36 257.47,122.90 258.22,122.43 258.97,121.96 259.72,121.49 260.47,121.02 261.22,120.55 261.97,120.07 262.72,119.60 263.47,119.12 264.22,118.64 264.97,118.16 265.72,117.68 266.48,117.19 267.23,116.71 267.98,116.23 268.73,115.74 269.48,115.25 270.23,114.76 270.98,114.27 271.73,113.78 272.48,113.29 273.23,112.79 273.98,112.30 274.73,111.80 275.48,111.30 276.23,110.80 276.99,110.30 277.74,109.80 278.49,109.30 279.24,108.79 279.99,108.29 280.74,107.78 281.49,107.28 282.24,106.77 282.99,106.26 283.74,105.75 284.49,105.24 285.24,104.73 285.99,104.22 286.74,103.70 287.50,103.19 288.25,102.67 289.00,102.16 289.75,101.64 290.50,101.12 291.25,100.61 292.00,100.09 292.75,99.57 293.50,99.05 294.25,98.53 295.00,98.00 295.75,97.48 296.50,96.96 297.26,96.44 298.01,95.91 298.76,95.39 299.51,94.86 300.26,94.34 301.01,93.81 301.76,93.28 302.51,92.76 303.26,92.23 304.01,91.70 304.76,91.18 305.51,90.65 306.26,90.12 307.01,89.59 307.77,89.07 308.52,88.54 309.27,88.01 310.02,87.48 310.77,86.95 311.52,86.43 312.27,85.90 313.02,85.37 313.77,84.84 314.52,84.32 315.27,83.79 316.02,83.26 316.77,82.74 317.52,82.21 318.28,81.69 319.03,81.16 319.78,80.64 320.53,80.11 321.28,79.59 322.03,79.07 322.78,78.54 323.53,78.02 324.28,77.50 325.03,76.98 325.78,76.46 326.53,75.95 327.28,75.43 328.04,74.91 328.79,74.40 329.54,73.88 330.29,73.37 331.04,72.86 331.79,72.35 332.54,71.84 333.29,71.33 334.04,70.83 334.79,70.32 335.54,69.82 336.29,69.32 337.04,68.82 337.79,68.32 338.55,67.82 339.30,67.33 340.05,66.84 340.80,66.34 341.55,65.86 342.30,65.37 343.05,64.88 343.80,64.40 344.55,63.92 345.30,63.44 346.05,62.96 346.80,62.49 347.55,62.02 348.30,61.55 349.06,61.08 349.81,60.62 350.56,60.16 351.31,59.70 352.06,59.24 352.81,58.79 353.56,58.34 354.31,57.89 355.06,57.44 355.81,57.00 356.56,56.56 357.31,56.13 358.06,55.69 358.82,55.27 359.57,54.84 360.32,54.42 361.07,54.00 361.82,53.58 362.57,53.17 363.32,52.76 364.07,52.36 364.82,51.95 365.57,51.56 366.32,51.16 367.07,50.77 367.82,50.39 368.57,50.00 369.33,49.63 370.08,49.25 370.83,48.88 371.58,48.52 372.33,48.16 373.08,47.80 373.83,47.45 374.58,47.10 375.33,46.76 376.08,46.42 376.83,46.08 377.58,45.75 378.33,45.43 379.09,45.11 379.84,44.79 380.59,44.48 381.34,44.17 382.09,43.87 382.84,43.58 383.59,43.29 384.34,43.00 385.09,42.72 385.84,42.44 386.59,42.17 387.34,41.91 388.09,41.65 388.84,41.39 389.60,41.14 390.35,40.90 391.10,40.66 391.85,40.43 392.60,40.20 393.35,39.98 394.10,39.77 394.85,39.56 395.60,39.35 396.35,39.15 397.10,38.96 397.85,38.77 398.60,38.59 399.35,38.42 400.11,38.25 400.86,38.09 401.61,37.93 402.36,37.78 403.11,37.63 403.86,37.49 404.61,37.36 405.36,37.23 406.11,37.11 406.86,37.00 407.61,36.89 408.36,36.79 409.11,36.69 409.87,36.60 410.62,36.52 411.37,36.44 412.12,36.37 412.87,36.30 413.62,36.24 414.37,36.19 415.12,36.14 415.87,36.10 416.62,36.07 417.37,36.04 418.12,36.02 418.87,36.01 419.62,36.00 420.38,36.00 421.13,36.00 421.88,36.02 422.63,36.03 423.38,36.06 424.13,36.09 424.88,36.12 425.63,36.17 426.38,36.22 427.13,36.27 427.88,36.33 428.63,36.40 429.38,36.48 430.13,36.56 430.89,36.64 431.64,36.74 432.39,36.84 433.14,36.94 433.89,37.05 434.64,37.17 435.39,37.29 436.14,37.42 436.89,37.56 437.64,37.70 438.39,37.85 439.14,38.01 439.89,38.17 440.65,38.33 441.40,38.50 442.15,38.68 442.90,38.87 443.65,39.06 444.40,39.25 445.15,39.45 445.90,39.66 446.65,39.87 447.40,40.09 448.15,40.32 448.90,40.55 449.65,40.78 450.40,41.02 451.16,41.27 451.91,41.52 452.66,41.78 453.41,42.04 454.16,42.31 454.91,42.58 455.66,42.86 456.41,43.14 457.16,43.43 457.91,43.72 458.66,44.02 459.41,44.33 460.16,44.63 460.91,44.95 461.67,45.27 462.42,45.59 463.17,45.92 463.92,46.25 464.67,46.59 465.42,46.93 466.17,47.27 466.92,47.62 467.67,47.98 468.42,48.34 469.17,48.70 469.92,49.07 470.67,49.44 471.43,49.82 472.18,50.20 472.93,50.58 473.68,50.97 474.43,51.36 475.18,51.75 475.93,52.15 476.68,52.56 477.43,52.96 478.18,53.37 478.93,53.79 479.68,54.21 480.43,54.63 481.18,55.05 481.94,55.48 482.69,55.91 483.44,56.34 484.19,56.78 484.94,57.22 485.69,57.67 486.44,58.11 487.19,58.56 487.94,59.01 488.69,59.47 489.44,59.93 490.19,60.39 490.94,60.85 491.70,61.31 492.45,61.78 493.20,62.25 493.95,62.73 494.70,63.20 495.45,63.68 496.20,64.16 496.95,64.64 497.70,65.13 498.45,65.61 499.20,66.10 499.95,66.59 500.70,67.08 501.45,67.58 502.21,68.07 502.96,68.57 503.71,69.07 504.46,69.57 505.21,70.07 505.96,70.58 506.71,71.08 507.46,71.59 508.21,72.10 508.96,72.61 509.71,73.12 510.46,73.63 511.21,74.14 511.96,74.66 512.72,75.17 513.47,75.69 514.22,76.20 514.97,76.72 515.72,77.24 516.47,77.76 517.22,78.28 517.97,78.81 518.72,79.33 519.47,79.85 520.22,80.37 520.97,80.90 521.72,81.42 522.48,81.95 523.23,82.47 523.98,83.00 524.73,83.53 525.48,84.05 526.23,84.58 526.98,85.11 527.73,85.64 528.48,86.16 529.23,86.69 529.98,87.22 530.73,87.75 531.48,88.27 532.23,88.80 532.99,89.33 533.74,89.86 534.49,90.39 535.24,90.91 535.99,91.44 536.74,91.97 537.49,92.50 538.24,93.02 538.99,93.55 539.74,94.07 540.49,94.60 541.24,95.12 541.99,95.65 542.74,96.17 543.50,96.70 544.25,97.22 545.00,97.74 545.75,98.26 546.50,98.79 547.25,99.31 548.00,99.83 548.75,100.35 549.50,100.86 550.25,101.38 551.00,101.90 551.75,102.42 552.50,102.93 553.26,103.45 554.01,103.96 554.76,104.47 555.51,104.99 556.26,105.50 557.01,106.01 557.76,106.52 558.51,107.02 559.26,107.53 560.01,108.04 560.76,108.54 561.51,109.05 562.26,109.55 563.01,110.05 563.77,110.55 564.52,111.05 565.27,111.55 566.02,112.05 566.77,112.54 567.52,113.04 568.27,113.53 569.02,114.02 569.77,114.52 570.52,115.01 571.27,115.49 572.02,115.98 572.77,116.47 573.52,116.95 574.28,117.44 575.03,117.92 575.78,118.40 576.53,118.88 577.28,119.36 578.03,119.83 578.78,120.31 579.53,120.78 580.28,121.26 581.03,121.73 581.78,122.20 582.53,122.66 583.28,123.13 584.04,123.60 584.79,124.06 585.54,124.52 586.29,124.98 587.04,125.44 587.79,125.90 588.54,126.36 589.29,126.81 590.04,127.27 590.79,127.72 591.54,128.17 592.29,128.62 593.04,129.07 593.79,129.51 594.55,129.96 595.30,130.40 596.05,130.84 596.80,131.28 597.55,131.72 598.30,132.16 599.05,132.59 599.80,133.02 600.55,133.46 601.30,133.89 602.05,134.31 602.80,134.74 603.55,135.17 604.30,135.59 605.06,136.01 605.81,136.44 606.56,136.85 607.31,137.27 608.06,137.69 608.81,138.10 609.56,138.52 610.31,138.93 611.06,139.34 611.81,139.75 612.56,140.15 613.31,140.56 614.06,140.96 614.82,141.36 615.57,141.76 616.32,142.16 617.07,142.56 617.82,142.95 618.57,143.35 619.32,143.74 620.07,144.13 620.82,144.52 621.57,144.91 622.32,145.29 623.07,145.68 623.82,146.06 624.57,146.44 625.33,146.82 626.08,147.20 626.83,147.58 627.58,147.95 628.33,148.33 629.08,148.70 629.83,149.07 630.58,149.44 631.33,149.80 632.08,150.17 632.83,150.53 633.58,150.90 634.33,151.26 635.09,151.62 635.84,151.98 636.59,152.33 637.34,152.69 638.09,153.04 638.84,153.39 639.59,153.74 640.34,154.09 641.09,154.44 641.84,154.79 642.59,155.13 643.34,155.47 644.09,155.81 644.84,156.15 645.60,156.49 646.35,156.83 647.10,157.16 647.85,157.50 648.60,157.83 649.35,158.16 650.10,158.49 650.85,158.82 651.60,159.15 652.35,159.47 653.10,159.80 653.85,160.12 654.60,160.44 655.35,160.76 656.11,161.08 656.86,161.39 657.61,161.71 658.36,162.02 659.11,162.33 659.86,162.65 660.61,162.95 661.36,163.26 662.11,163.57 662.86,163.88 663.61,164.18 664.36,164.48 665.11,164.78 665.87,165.08 666.62,165.38 667.37,165.68 668.12,165.98 668.87,166.27 669.62,166.56 670.37,166.86 671.12,167.15 671.87,167.44 672.62,167.72 673.37,168.01 674.12,168.30 674.87,168.58 675.62,168.86 676.38,169.14 677.13,169.42 677.88,169.70 678.63,169.98 679.38,170.26 680.13,170.53 680.88,170.81 681.63,171.08 682.38,171.35 683.13,171.62 683.88,171.89 684.63,172.16 685.38,172.42 686.13,172.69 686.89,172.95 687.64,173.21 688.39,173.48 689.14,173.74 689.89,174.00 690.64,174.25 691.39,174.51 692.14,174.77 692.89,175.02 693.64,175.27 694.39,175.53 695.14,175.78 695.89,176.03 696.65,176.27 697.40,176.52 698.15,176.77 698.90,177.01 699.65,177.26 700.40,177.50 701.15,177.74 701.90,177.98 702.65,178.22 703.40,178.46 704.15,178.70 704.90,178.94 705.65,179.17 706.40,179.40 707.16,179.64 707.91,179.87 708.66,180.10 709.41,180.33 710.16,180.56 710.91,180.79 711.66,181.01 712.41,181.24 713.16,181.46 713.91,181.69 714.66,181.91 715.41,182.13 716.16,182.35 716.91,182.57 717.67,182.79 718.42,183.01 719.17,183.22 719.92,183.44 720.67,183.66 721.42,183.87 722.17,184.08 722.92,184.29 723.67,184.50 724.42,184.71 725.17,184.92 725.92,185.13 726.67,185.34 727.43,185.54 728.18,185.75 728.93,185.95 729.68,186.15 730.43,186.36 731.18,186.56 731.93,186.76 732.68,186.96 733.43,187.16 734.18,187.35 734.93,187.55 735.68,187.75 736.43,187.94 737.18,188.13 737.94,188.33 738.69,188.52 739.44,188.71 740.19,188.90 740.94,189.09 741.69,189.28 742.44,189.47 743.19,189.65 743.94,189.84 744.69,190.03 745.44,190.21 746.19,190.39 746.94,190.58 747.70,190.76 748.45,190.94 749.20,191.12 749.95,191.30 750.70,191.48 751.45,191.66 752.20,191.83 752.95,192.01 753.70,192.19 754.45,192.36 755.20,192.54 755.95,192.71 756.70,192.88 757.45,193.05 758.21,193.22 758.96,193.39 759.71,193.56 760.46,193.73 761.21,193.90 761.96,194.07 762.71,194.23 763.46,194.40 764.21,194.56 764.96,194.73 765.71,194.89 766.46,195.05 767.21,195.22 767.96,195.38 768.72,195.54 769.47,195.70 770.22,195.86 770.97,196.01 771.72,196.17 772.47,196.33 773.22,196.48 773.97,196.64 774.72,196.80 775.47,196.95 776.22,197.10 776.97,197.26 777.72,197.41 778.48,197.56 779.23,197.71 779.98,197.86 780.73,198.01 781.48,198.16 782.23,198.31 782.98,198.45 783.73,198.60 784.48,198.75 785.23,198.89 785.98,199.04 786.73,199.18 787.48,199.33 788.23,199.47 788.99,199.61 789.74,199.75 790.49,199.90 791.24,200.04 791.99,200.18 792.74,200.32 793.49,200.45 794.24,200.59 794.99,200.73 795.74,200.87 796.49,201.00 797.24,201.14 797.99,201.27 798.74,201.41 799.50,201.54 800.25,201.68 801.00,201.81 801.75,201.94 802.50,202.07 803.25,202.20 804.00,202.40" />
  <text x="420.0" y="22" text-anchor="middle" font-family="Arial, Helvetica, sans-serif" font-size="15" fill="#102a43">cauchy_0p5 window (time domain)</text>
  <text x="420.0" y="272" text-anchor="middle" font-family="Arial, Helvetica, sans-serif" font-size="12" fill="#334e68">normalized sample index</text>
  <text x="14" y="140.0" transform="rotate(-90 14,140.0)" text-anchor="middle" font-family="Arial, Helvetica, sans-serif" font-size="12" fill="#334e68">amplitude</text>
  <text x="36" y="262" font-family="Arial, Helvetica, sans-serif" font-size="11" fill="#486581">0</text>
  <text x="804" y="262" text-anchor="end" font-family="Arial, Helvetica, sans-serif" font-size="11" fill="#486581">1</text>
  <text x="30" y="40" text-anchor="end" font-family="Arial, Helvetica, sans-serif" font-size="11" fill="#486581">1.0</text>
  <text x="30" y="248" text-anchor="end" font-family="Arial, Helvetica, sans-serif" font-size="11" fill="#486581">0.0</text>
</svg>
