<svg xmlns="http://www.w3.org/2000/svg" width="840" height="280" viewBox="0 0 840 280">
  <rect x="0" y="0" width="840" height="280" fill="#ffffff" />
  <rect x="36" y="36" width="768" height="208" fill="#f7fbff" stroke="#c8d9e6" />
  <polyline fill="none" stroke="#005f73" stroke-width="2" points="36.00,36.00 36.75,48.35 37.50,70.16 38.25,80.82 39.00,115.51 39.75,102.21 40.50,109.53 41.26,111.90 42.01,115.17 42.76,117.73 43.51,120.11 44.26,122.25 45.01,124.21 45.76,126.01 46.51,127.68 47.26,129.23 48.01,137.55 48.76,137.08 49.51,136.79 50.26,136.62 51.01,136.54 51.77,136.53 52.52,136.56 53.27,136.64 54.02,136.74 54.77,136.86 55.52,137.00 56.27,137.15 57.02,137.31 57.77,137.48 58.52,137.66 59.27,137.84 60.02,127.78 60.77,128.06 61.52,128.34 62.28,128.61 63.03,128.87 63.78,129.13 64.53,129.38 65.28,129.63 66.03,129.87 66.78,130.11 67.53,130.34 68.28,130.57 69.03,130.79 69.78,131.01 70.53,131.23 71.28,131.44 72.04,126.65 72.79,126.86 73.54,127.07 74.29,127.28 75.04,127.48 75.79,127.68 76.54,127.88 77.29,128.07 78.04,128.26 78.79,128.45 79.54,128.63 80.29,128.81 81.04,128.99 81.79,129.16 82.55,129.33 83.30,129.50 84.05,126.29 84.80,126.46 85.55,126.63 86.30,126.79 87.05,126.95 87.80,127.11 88.55,127.26 89.30,127.41 90.05,127.57 90.80,127.72 91.55,127.86 92.30,128.01 93.06,128.15 93.81,128.29 94.56,128.43 95.31,128.57 96.06,126.15 96.81,126.29 97.56,126.42 98.31,126.56 99.06,126.69 99.81,126.82 100.56,126.95 101.31,127.07 102.06,127.20 102.82,127.32 103.57,127.44 104.32,127.56 105.07,127.68 105.82,127.80 106.57,127.92 107.32,128.04 108.07,126.10 108.82,126.21 109.57,126.33 110.32,126.44 111.07,126.55 111.82,126.66 112.57,126.77 113.33,126.87 114.08,126.98 114.83,127.09 115.58,127.19 116.33,127.29 117.08,127.40 117.83,127.50 118.58,127.60 119.33,127.70 120.08,126.09 120.83,126.19 121.58,126.29 122.33,126.38 123.09,126.48 123.84,126.57 124.59,126.67 125.34,126.76 126.09,126.85 126.84,126.94 127.59,127.03 128.34,127.12 129.09,127.21 129.84,127.30 130.59,127.39 131.34,127.48 132.09,126.11 132.84,126.19 133.60,126.28 134.35,126.36 135.10,126.45 135.85,126.53 136.60,126.61 137.35,126.69 138.10,126.77 138.85,126.86 139.60,126.94 140.35,127.01 141.10,127.09 141.85,127.17 142.60,127.25 143.35,127.33 144.11,126.14 144.86,126.22 145.61,126.29 146.36,126.37 147.11,126.44 147.86,126.52 148.61,126.59 149.36,126.66 150.11,126.74 150.86,126.81 151.61,126.88 152.36,126.95 153.11,127.02 153.87,127.09 154.62,127.16 155.37,127.23 156.12,126.19 156.87,126.26 157.62,126.33 158.37,126.39 159.12,126.46 159.87,126.53 160.62,126.59 161.37,126.66 162.12,126.72 162.87,126.79 163.62,126.85 164.38,126.92 165.13,126.98 165.88,127.05 166.63,127.11 167.38,127.17 168.13,126.25 168.88,126.31 169.63,126.37 170.38,126.43 171.13,126.50 171.88,126.56 172.63,126.62 173.38,126.68 174.13,126.74 174.89,126.80 175.64,126.85 176.39,126.91 177.14,126.97 177.89,127.03 178.64,127.09 179.39,127.14 180.14,126.32 180.89,126.38 181.64,126.43 182.39,126.49 183.14,126.54 183.89,126.60 184.65,126.66 185.40,126.71 186.15,126.76 186.90,126.82 187.65,126.87 188.40,126.93 189.15,126.98 189.90,127.03 190.65,127.09 191.40,127.14 192.15,126.40 192.90,126.45 193.65,126.50 194.40,126.56 195.16,126.61 195.91,126.66 196.66,126.71 197.41,126.76 198.16,126.81 198.91,126.86 199.66,126.91 200.41,126.96 201.16,127.01 201.91,127.06 202.66,127.11 203.41,127.15 204.16,126.49 204.91,126.54 205.67,126.59 206.42,126.63 207.17,126.68 207.92,126.73 208.67,126.77 209.42,126.82 210.17,126.87 210.92,126.91 211.67,126.96 212.42,127.01 213.17,127.05 213.92,127.10 214.67,127.14 215.43,127.19 216.18,126.59 216.93,126.63 217.68,126.68 218.43,126.72 219.18,126.77 219.93,126.81 220.68,126.85 221.43,126.90 222.18,126.94 222.93,126.98 223.68,127.03 224.43,127.07 225.18,127.11 225.94,127.15 226.69,127.19 227.44,127.24 228.19,126.69 228.94,126.74 229.69,126.78 230.44,126.82 231.19,126.86 231.94,126.90 232.69,126.94 233.44,126.98 234.19,127.02 234.94,127.06 235.70,127.10 236.45,127.14 237.20,127.18 237.95,127.22 238.70,127.26 239.45,127.30 240.20,126.81 240.95,126.85 241.70,126.89 242.45,126.93 243.20,126.96 243.95,127.00 244.70,127.04 245.45,127.08 246.21,127.12 246.96,127.15 247.71,127.19 248.46,127.23 249.21,127.27 249.96,127.30 250.71,127.34 251.46,127.38 252.21,126.93 252.96,126.97 253.71,127.01 254.46,127.04 255.21,127.08 255.96,127.12 256.72,127.15 257.47,127.19 258.22,127.22 258.97,127.26 259.72,127.29 260.47,127.33 261.22,127.36 261.97,127.40 262.72,127.43 263.47,127.47 264.22,127.07 264.97,127.10 265.72,127.14 266.48,127.17 267.23,127.20 267.98,127.24 268.73,127.27 269.48,127.30 270.23,127.34 270.98,127.37 271.73,127.40 272.48,127.44 273.23,127.47 273.98,127.50 274.73,127.54 275.48,127.57 276.23,127.21 276.99,127.24 277.74,127.27 278.49,127.31 279.24,127.34 279.99,127.37 280.74,127.40 281.49,127.43 282.24,127.46 282.99,127.50 283.74,127.53 284.49,127.56 285.24,127.59 285.99,127.62 286.74,127.65 287.50,127.68 288.25,127.36 289.00,127.39 289.75,127.42 290.50,127.45 291.25,127.48 292.00,127.51 292.75,127.54 293.50,127.57 294.25,127.60 295.00,127.63 295.75,127.66 296.50,127.69 297.26,127.72 298.01,127.75 298.76,127.78 299.51,127.81 300.26,127.52 301.01,127.55 301.76,127.58 302.51,127.61 303.26,127.63 304.01,127.66 304.76,127.69 305.51,127.72 306.26,127.75 307.01,127.78 307.77,127.80 308.52,127.83 309.27,127.86 310.02,127.89 310.77,127.91 311.52,127.94 312.27,127.69 313.02,127.72 313.77,127.74 314.52,127.77 315.27,127.80 316.02,127.82 316.77,127.85 317.52,127.88 318.28,127.90 319.03,127.93 319.78,127.96 320.53,127.98 321.28,128.01 322.03,128.04 322.78,128.06 323.53,128.09 324.28,127.87 325.03,127.89 325.78,127.92 326.53,127.95 327.28,127.97 328.04,128.00 328.79,128.02 329.54,128.05 330.29,128.07 331.04,128.10 331.79,128.12 332.54,128.15 333.29,128.17 334.04,128.20 334.79,128.22 335.54,128.25 336.29,128.06 337.04,128.08 337.79,128.11 338.55,128.13 339.30,128.15 340.05,128.18 340.80,128.20 341.55,128.23 342.30,128.25 343.05,128.27 343.80,128.30 344.55,128.32 345.30,128.35 346.05,128.37 346.80,128.39 347.55,128.42 348.30,128.26 349.06,128.28 349.81,128.30 350.56,128.33 351.31,128.35 352.06,128.37 352.81,128.40 353.56,128.42 354.31,128.44 355.06,128.46 355.81,128.49 356.56,128.51 357.31,128.53 358.06,128.55 358.82,128.58 359.57,128.60 360.32,128.47 361.07,128.49 361.82,128.51 362.57,128.53 363.32,128.55 364.07,128.58 364.82,128.60 365.57,128.62 366.32,128.64 367.07,128.66 367.82,128.68 368.57,128.71 369.33,128.73 370.08,128.75 370.83,128.77 371.58,128.79 372.33,128.69 373.08,128.71 373.83,128.73 374.58,128.75 375.33,128.77 376.08,128.79 376.83,128.81 377.58,128.83 378.33,128.85 379.09,128.87 379.84,128.89 380.59,128.92 381.34,128.94 382.09,128.96 382.84,128.98 383.59,129.00 384.34,128.92 385.09,128.94 385.84,128.96 386.59,128.98 387.34,129.00 388.09,129.02 388.84,129.04 389.60,129.06 390.35,129.08 391.10,129.10 391.85,129.12 392.60,129.14 393.35,129.16 394.10,129.18 394.85,129.19 395.60,129.21 396.35,129.16 397.10,129.18 397.85,129.20 398.60,129.22 399.35,129.24 400.11,129.26 400.86,129.28 401.61,129.30 402.36,129.32 403.11,129.33 403.86,129.35 404.61,129.37 405.36,129.39 406.11,129.41 406.86,129.43 407.61,129.44 408.36,129.42 409.11,129.44 409.87,129.46 410.62,129.48 411.37,129.49 412.12,129.51 412.87,129.53 413.62,129.55 414.37,129.56 415.12,129.58 415.87,129.60 416.62,129.62 417.37,129.64 418.12,129.65 418.87,129.67 419.62,129.69 420.38,129.69 421.13,129.71 421.88,129.73 422.63,129.74 423.38,129.76 424.13,129.78 424.88,129.79 425.63,129.81 426.38,129.83 427.13,129.84 427.88,129.86 428.63,129.88 429.38,129.89 430.13,129.91 430.89,129.93 431.64,129.94 432.39,129.97 433.14,129.99 433.89,130.01 434.64,130.02 435.39,130.04 436.14,130.06 436.89,130.07 437.64,130.09 438.39,130.10 439.14,130.12 439.89,130.14 440.65,130.15 441.40,130.17 442.15,130.18 442.90,130.20 443.65,130.22 444.40,130.27 445.15,130.29 445.90,130.30 446.65,130.32 447.40,130.33 448.15,130.35 448.90,130.37 449.65,130.38 450.40,130.40 451.16,130.41 451.91,130.43 452.66,130.44 453.41,130.46 454.16,130.47 454.91,130.49 455.66,130.50 456.41,130.59 457.16,130.60 457.91,130.61 458.66,130.63 459.41,130.64 460.16,130.66 460.91,130.67 461.67,130.69 462.42,130.70 463.17,130.72 463.92,130.73 464.67,130.75 465.42,130.76 466.17,130.78 466.92,130.79 467.67,130.80 468.42,130.91 469.17,130.93 469.92,130.94 470.67,130.96 471.43,130.97 472.18,130.98 472.93,131.00 473.68,131.01 474.43,131.03 475.18,131.04 475.93,131.05 476.68,131.07 477.43,131.08 478.18,131.09 478.93,131.11 479.68,131.12 480.43,131.26 481.18,131.27 481.94,131.29 482.69,131.30 483.44,131.31 484.19,131.33 484.94,131.34 485.69,131.35 486.44,131.37 487.19,131.38 487.94,131.39 488.69,131.41 489.44,131.42 490.19,131.43 490.94,131.44 491.70,131.46 492.45,131.62 493.20,131.64 493.95,131.65 494.70,131.66 495.45,131.67 496.20,131.69 496.95,131.70 497.70,131.71 498.45,131.73 499.20,131.74 499.95,131.75 500.70,131.76 501.45,131.77 502.21,131.79 502.96,131.80 503.71,131.81 504.46,132.01 505.21,132.02 505.96,132.03 506.71,132.04 507.46,132.06 508.21,132.07 508.96,132.08 509.71,132.09 510.46,132.10 511.21,132.11 511.96,132.13 512.72,132.14 513.47,132.15 514.22,132.16 514.97,132.17 515.72,132.19 516.47,132.41 517.22,132.42 517.97,132.43 518.72,132.44 519.47,132.46 520.22,132.47 520.97,132.48 521.72,132.49 522.48,132.50 523.23,132.51 523.98,132.52 524.73,132.54 525.48,132.55 526.23,132.56 526.98,132.57 527.73,132.58 528.48,132.84 529.23,132.85 529.98,132.86 530.73,132.87 531.48,132.88 532.23,132.89 532.99,132.90 533.74,132.91 534.49,132.92 535.24,132.93 535.99,132.94 536.74,132.95 537.49,132.96 538.24,132.98 538.99,132.99 539.74,133.00 540.49,133.29 541.24,133.30 541.99,133.31 542.74,133.32 543.50,133.33 544.25,133.34 545.00,133.35 545.75,133.36 546.50,133.37 547.25,133.38 548.00,133.39 548.75,133.40 549.50,133.41 550.25,133.42 551.00,133.43 551.75,133.44 552.50,133.76 553.26,133.77 554.01,133.78 554.76,133.79 555.51,133.80 556.26,133.81 557.01,133.82 557.76,133.83 558.51,133.84 559.26,133.85 560.01,133.86 560.76,133.87 561.51,133.88 562.26,133.89 563.01,133.89 563.77,133.90 564.52,134.26 565.27,134.27 566.02,134.28 566.77,134.29 567.52,134.30 568.27,134.31 569.02,134.32 569.77,134.33 570.52,134.34 571.27,134.35 572.02,134.35 572.77,134.36 573.52,134.37 574.28,134.38 575.03,134.39 575.78,134.40 576.53,134.80 577.28,134.81 578.03,134.82 578.78,134.82 579.53,134.83 580.28,134.84 581.03,134.85 581.78,134.86 582.53,134.87 583.28,134.88 584.04,134.88 584.79,134.89 585.54,134.90 586.29,134.91 587.04,134.92 587.79,134.92 588.54,135.37 589.29,135.37 590.04,135.38 590.79,135.39 591.54,135.40 592.29,135.41 593.04,135.41 593.79,135.42 594.55,135.43 595.30,135.44 596.05,135.45 596.80,135.45 597.55,135.46 598.30,135.47 599.05,135.48 599.80,135.48 600.55,135.97 601.30,135.98 602.05,135.99 602.80,135.99 603.55,136.00 604.30,136.01 605.06,136.02 605.81,136.02 606.56,136.03 607.31,136.04 608.06,136.05 608.81,136.05 609.56,136.06 610.31,136.07 611.06,136.07 611.81,136.08 612.56,136.62 613.31,136.62 614.06,136.63 614.82,136.64 615.57,136.65 616.32,136.65 617.07,136.66 617.82,136.67 618.57,136.67 619.32,136.68 620.07,136.69 620.82,136.69 621.57,136.70 622.32,136.71 623.07,136.71 623.82,136.72 624.57,137.31 625.33,137.32 626.08,137.32 626.83,137.33 627.58,137.34 628.33,137.34 629.08,137.35 629.83,137.36 630.58,137.36 631.33,137.37 632.08,137.37 632.83,137.38 633.58,137.39 634.33,137.39 635.09,137.40 635.84,137.41 636.59,138.06 637.34,138.06 638.09,138.07 638.84,138.07 639.59,138.08 640.34,138.09 641.09,138.09 641.84,138.10 642.59,138.10 643.34,138.11 644.09,138.12 644.84,138.12 645.60,138.13 646.35,138.13 647.10,138.14 647.85,138.14 648.60,138.86 649.35,138.87 650.10,138.87 650.85,138.88 651.60,138.88 652.35,138.89 653.10,138.89 653.85,138.90 654.60,138.91 655.35,138.91 656.11,138.92 656.86,138.92 657.61,138.93 658.36,138.93 659.11,138.94 659.86,138.94 660.61,139.74 661.36,139.74 662.11,139.75 662.86,139.75 663.61,139.76 664.36,139.76 665.11,139.77 665.87,139.77 666.62,139.78 667.37,139.78 668.12,139.79 668.87,139.79 669.62,139.80 670.37,139.80 671.12,139.81 671.87,139.81 672.62,140.69 673.37,140.70 674.12,140.70 674.87,140.71 675.62,140.71 676.38,140.72 677.13,140.72 677.88,140.72 678.63,140.73 679.38,140.73 680.13,140.74 680.88,140.74 681.63,140.75 682.38,140.75 683.13,140.76 683.88,140.76 684.63,141.74 685.38,141.75 686.13,141.75 686.89,141.76 687.64,141.76 688.39,141.76 689.14,141.77 689.89,141.77 690.64,141.78 691.39,141.78 692.14,141.79 692.89,141.79 693.64,141.79 694.39,141.80 695.14,141.80 695.89,141.81 696.65,142.91 697.40,142.92 698.15,142.92 698.90,142.92 699.65,142.93 700.40,142.93 701.15,142.93 701.90,142.94 702.65,142.94 703.40,142.95 704.15,142.95 704.90,142.95 705.65,142.96 706.40,142.96 707.16,142.96 707.91,142.97 708.66,144.22 709.41,144.23 710.16,144.23 710.91,144.23 711.66,144.24 712.41,144.24 713.16,144.24 713.91,144.25 714.66,144.25 715.41,144.25 716.16,144.25 716.91,144.26 717.67,144.26 718.42,144.26 719.17,144.27 719.92,144.27 720.67,145.71 721.42,145.71 722.17,145.72 722.92,145.72 723.67,145.72 724.42,145.73 725.17,145.73 725.92,145.73 726.67,145.74 727.43,145.74 728.18,145.74 728.93,145.74 729.68,145.75 730.43,145.75 731.18,145.75 731.93,145.75 732.68,147.44 733.43,147.44 734.18,147.44 734.93,147.45 735.68,147.45 736.43,147.45 737.18,147.45 737.94,147.45 738.69,147.46 739.44,147.46 740.19,147.46 740.94,147.46 741.69,147.47 742.44,147.47 743.19,147.47 743.94,147.47 744.69,149.48 745.44,149.49 746.19,149.49 746.94,149.49 747.70,149.49 748.45,149.49 749.20,149.50 749.95,149.50 750.70,149.50 751.45,149.50 752.20,149.50 752.95,149.51 753.70,149.51 754.45,149.51 755.20,149.51 755.95,149.51 756.70,151.99 757.45,151.99 758.21,152.00 758.96,152.00 759.71,152.00 760.46,152.00 761.21,152.00 761.96,152.00 762.71,152.01 763.46,152.01 764.21,152.01 764.96,152.01 765.71,152.01 766.46,152.01 767.21,152.01 767.96,152.02 768.72,155.23 769.47,155.23 770.22,155.24 770.97,155.24 771.72,155.24 772.47,155.24 773.22,155.24 773.97,155.24 774.72,155.24 775.47,155.24 776.22,155.24 776.97,155.25 777.72,155.25 778.48,155.25 779.23,155.25 779.98,155.25 780.73,159.80 781.48,159.81 782.23,159.81 782.98,159.81 783.73,159.81 784.48,159.81 785.23,159.81 785.98,159.81 786.73,159.81 787.48,159.81 788.23,159.81 788.99,159.81 789.74,159.81 790.49,159.82 791.24,159.82 791.99,159.82 792.74,167.63 793.49,167.63 794.24,167.63 794.99,167.63 795.74,167.63 796.49,167.63 797.24,167.63 797.99,167.63 798.74,167.63 799.50,167.63 800.25,167.63 801.00,167.63 801.75,167.63 802.50,167.63 803.25,167.63 804.00,244.00" />
  <text x="420.0" y="22" text-anchor="middle" font-family="Arial, Helvetica, sans-serif" font-size="15" fill="#102a43">cauchy_0p5 window (magnitude spectrum)</text>
  <text x="420.0" y="272" text-anchor="middle" font-family="Arial, Helvetica, sans-serif" font-size="12" fill="#334e68">normalized frequency</text>
  <text x="14" y="140.0" transform="rotate(-90 14,140.0)" text-anchor="middle" font-family="Arial, Helvetica, sans-serif" font-size="12" fill="#334e68">magnitude (dB)</text>
  <text x="36" y="262" font-family="Arial, Helvetica, sans-serif" font-size="11" fill="#486581">0</text>
  <text x="804" y="262" text-anchor="end" font-family="Arial, Helvetica, sans-serif" font-size="11" fill="#486581">1</text>
  <text x="30" y="40" text-anchor="end" font-family="Arial, Helvetica, sans-serif" font-size="11" fill="#486581">0.0</text>
  <text x="30" y="248" text-anchor="end" font-family="Arial, Helvetica, sans-serif" font-size="11" fill="#486581">-160.0</text>
</svg>
