<svg xmlns="http://www.w3.org/2000/svg" width="840" height="280" viewBox="0 0 840 280">
  <rect x="0" y="0" width="840" height="280" fill="#ffffff" />
  <rect x="36" y="36" width="768" height="208" fill="#f7fbff" stroke="#c8d9e6" />
  <polyline fill="none" stroke="#005f73" stroke-width="2" points="36.00,244.00 36.75,244.00 37.50,244.00 38.25,244.00 39.00,244.00 39.75,244.00 40.50,244.00 41.26,244.00 42.01,244.00 42.76,244.00 43.51,243.99 44.26,243.99 45.01,243.99 45.76,243.99 46.51,243.98 47.26,243.98 48.01,243.98 48.76,243.97 49.51,243.96 50.26,243.96 51.01,243.95 51.77,243.94 52.52,243.94 53.27,243.93 54.02,243.92 54.77,243.91 55.52,243.89 56.27,243.88 57.02,243.87 57.77,243.85 58.52,243.84 59.27,243.82 60.02,243.80 60.77,243.78 61.52,243.76 62.28,243.74 63.03,243.72 63.78,243.70 64.53,243.67 65.28,243.65 66.03,243.62 66.78,243.59 67.53,243.56 68.28,243.53 69.03,243.49 69.78,243.46 70.53,243.42 71.28,243.38 72.04,243.34 72.79,243.30 73.54,243.26 74.29,243.21 75.04,243.16 75.79,243.12 76.54,243.07 77.29,243.01 78.04,242.96 78.79,242.90 79.54,242.84 80.29,242.78 81.04,242.72 81.79,242.66 82.55,242.59 83.30,242.52 84.05,242.45 84.80,242.38 85.55,242.31 86.30,242.23 87.05,242.15 87.80,242.07 88.55,241.98 89.30,241.90 90.05,241.81 90.80,241.72 91.55,241.62 92.30,241.53 93.06,241.43 93.81,241.33 94.56,241.23 95.31,241.12 96.06,241.01 96.81,240.90 97.56,240.79 98.31,240.67 99.06,240.55 99.81,240.43 100.56,240.31 101.31,240.18 102.06,240.05 102.82,239.92 103.57,239.78 104.32,239.64 105.07,239.50 105.82,239.36 106.57,239.21 107.32,239.06 108.07,238.90 108.82,238.75 109.57,238.59 110.32,238.43 111.07,238.26 111.82,238.09 112.57,237.92 113.33,237.75 114.08,237.57 114.83,237.39 115.58,237.21 116.33,237.02 117.08,236.83 117.83,236.64 118.58,236.44 119.33,236.24 120.08,236.04 120.83,235.83 121.58,235.62 122.33,235.41 123.09,235.19 123.84,234.97 124.59,234.75 125.34,234.52 126.09,234.29 126.84,234.06 127.59,233.82 128.34,233.58 129.09,233.34 129.84,233.09 130.59,232.84 131.34,232.58 132.09,232.33 132.84,232.07 133.60,231.80 134.35,231.53 135.10,231.26 135.85,230.99 136.60,230.71 137.35,230.42 138.10,230.14 138.85,229.85 139.60,229.56 140.35,229.26 141.10,228.96 141.85,228.65 142.60,228.35 143.35,228.04 144.11,227.72 144.86,227.40 145.61,227.08 146.36,226.75 147.11,226.42 147.86,226.09 148.61,225.75 149.36,225.41 150.11,225.07 150.86,224.72 151.61,224.37 152.36,224.01 153.11,223.66 153.87,223.29 154.62,222.93 155.37,222.56 156.12,222.18 156.87,221.80 157.62,221.42 158.37,221.04 159.12,220.65 159.87,220.26 160.62,219.86 161.37,219.46 162.12,219.06 162.87,218.65 163.62,218.24 164.38,217.83 165.13,217.41 165.88,216.99 166.63,216.56 167.38,216.13 168.13,215.70 168.88,215.26 169.63,214.82 170.38,214.38 171.13,213.93 171.88,213.48 172.63,213.03 173.38,212.57 174.13,212.11 174.89,211.64 175.64,211.17 176.39,210.70 177.14,210.23 177.89,209.75 178.64,209.26 179.39,208.78 180.14,208.29 180.89,207.79 181.64,207.30 182.39,206.79 183.14,206.29 183.89,205.78 184.65,205.27 185.40,204.76 186.15,204.24 186.90,203.72 187.65,203.19 188.40,202.67 189.15,202.13 189.90,201.60 190.65,201.06 191.40,200.52 192.15,199.98 192.90,199.43 193.65,198.88 194.40,198.32 195.16,197.76 195.91,197.20 196.66,196.64 197.41,196.07 198.16,195.50 198.91,194.93 199.66,194.35 200.41,193.77 201.16,193.19 201.91,192.60 202.66,192.02 203.41,191.42 204.16,190.83 204.91,190.23 205.67,189.63 206.42,189.03 207.17,188.42 207.92,187.81 208.67,187.20 209.42,186.58 210.17,185.97 210.92,185.35 211.67,184.72 212.42,184.10 213.17,183.47 213.92,182.84 214.67,182.20 215.43,181.57 216.18,180.93 216.93,180.29 217.68,179.64 218.43,179.00 219.18,178.35 219.93,177.70 220.68,177.04 221.43,176.39 222.18,175.73 222.93,175.07 223.68,174.40 224.43,173.74 225.18,173.07 225.94,172.40 226.69,171.73 227.44,171.05 228.19,170.38 228.94,169.70 229.69,169.02 230.44,168.33 231.19,167.65 231.94,166.96 232.69,166.28 233.44,165.59 234.19,164.89 234.94,164.20 235.70,163.50 236.45,162.81 237.20,162.11 237.95,161.41 238.70,160.70 239.45,160.00 240.20,159.29 240.95,158.59 241.70,157.88 242.45,157.17 243.20,156.46 243.95,155.74 244.70,155.03 245.45,154.31 246.21,153.60 246.96,152.88 247.71,152.16 248.46,151.44 249.21,150.72 249.96,150.00 250.71,149.27 251.46,148.55 252.21,147.82 252.96,147.09 253.71,146.37 254.46,145.64 255.21,144.91 255.96,144.18 256.72,143.45 257.47,142.72 258.22,141.98 258.97,141.25 259.72,140.52 260.47,139.78 261.22,139.05 261.97,138.32 262.72,137.58 263.47,136.84 264.22,136.11 264.97,135.37 265.72,134.64 266.48,133.90 267.23,133.16 267.98,132.43 268.73,131.69 269.48,130.95 270.23,130.21 270.98,129.48 271.73,128.74 272.48,128.00 273.23,127.27 273.98,126.53 274.73,125.79 275.48,125.06 276.23,124.32 276.99,123.59 277.74,122.85 278.49,122.12 279.24,121.38 279.99,120.65 280.74,119.92 281.49,119.18 282.24,118.45 282.99,117.72 283.74,116.99 284.49,116.26 285.24,115.53 285.99,114.80 286.74,114.08 287.50,113.35 288.25,112.63 289.00,111.90 289.75,111.18 290.50,110.46 291.25,109.74 292.00,109.02 292.75,108.30 293.50,107.59 294.25,106.87 295.00,106.16 295.75,105.44 296.50,104.73 297.26,104.02 298.01,103.32 298.76,102.61 299.51,101.91 300.26,101.20 301.01,100.50 301.76,99.80 302.51,99.10 303.26,98.41 304.01,97.72 304.76,97.02 305.51,96.33 306.26,95.65 307.01,94.96 307.77,94.28 308.52,93.60 309.27,92.92 310.02,92.24 310.77,91.56 311.52,90.89 312.27,90.22 313.02,89.55 313.77,88.89 314.52,88.23 315.27,87.57 316.02,86.91 316.77,86.25 317.52,85.60 318.28,84.95 319.03,84.31 319.78,83.66 320.53,83.02 321.28,82.38 322.03,81.75 322.78,81.11 323.53,80.48 324.28,79.86 325.03,79.23 325.78,78.61 326.53,78.00 327.28,77.38 328.04,76.77 328.79,76.16 329.54,75.56 330.29,74.96 331.04,74.36 331.79,73.77 332.54,73.18 333.29,72.59 334.04,72.00 334.79,71.42 335.54,70.85 336.29,70.27 337.04,69.70 337.79,69.14 338.55,68.58 339.30,68.02 340.05,67.46 340.80,66.91 341.55,66.37 342.30,65.82 343.05,65.28 343.80,64.75 344.55,64.22 345.30,63.69 346.05,63.17 346.80,62.65 347.55,62.14 348.30,61.63 349.06,61.12 349.81,60.62 350.56,60.12 351.31,59.63 352.06,59.14 352.81,58.65 353.56,58.17 354.31,57.70 355.06,57.23 355.81,56.76 356.56,56.30 357.31,55.84 358.06,55.39 358.82,54.94 359.57,54.49 360.32,54.05 361.07,53.62 361.82,53.19 362.57,52.76 363.32,52.34 364.07,51.93 364.82,51.52 365.57,51.11 366.32,50.71 367.07,50.31 367.82,49.92 368.57,49.54 369.33,49.16 370.08,48.78 370.83,48.41 371.58,48.04 372.33,47.68 373.08,47.33 373.83,46.98 374.58,46.63 375.33,46.29 376.08,45.96 376.83,45.63 377.58,45.30 378.33,44.98 379.09,44.67 379.84,44.36 380.59,44.06 381.34,43.76 382.09,43.46 382.84,43.18 383.59,42.90 384.34,42.62 385.09,42.35 385.84,42.08 386.59,41.82 387.34,41.57 388.09,41.32 388.84,41.07 389.60,40.84 390.35,40.60 391.10,40.38 391.85,40.16 392.60,39.94 393.35,39.73 394.10,39.53 394.85,39.33 395.60,39.13 396.35,38.95 397.10,38.77 397.85,38.59 398.60,38.42 399.35,38.25 400.11,38.10 400.86,37.94 401.61,37.79 402.36,37.65 403.11,37.52 403.86,37.39 404.61,37.26 405.36,37.14 406.11,37.03 406.86,36.92 407.61,36.82 408.36,36.73 409.11,36.64 409.87,36.56 410.62,36.48 411.37,36.41 412.12,36.34 412.87,36.28 413.62,36.22 414.37,36.18 415.12,36.13 415.87,36.10 416.62,36.07 417.37,36.04 418.12,36.02 418.87,36.01 419.62,36.00 420.38,36.00 421.13,36.00 421.88,36.01 422.63,36.03 423.38,36.05 424.13,36.08 424.88,36.11 425.63,36.15 426.38,36.20 427.13,36.25 427.88,36.31 428.63,36.37 429.38,36.44 430.13,36.52 430.89,36.60 431.64,36.68 432.39,36.78 433.14,36.87 433.89,36.98 434.64,37.09 435.39,37.20 436.14,37.32 436.89,37.45 437.64,37.58 438.39,37.72 439.14,37.87 439.89,38.02 440.65,38.17 441.40,38.34 442.15,38.50 442.90,38.68 443.65,38.86 444.40,39.04 445.15,39.23 445.90,39.43 446.65,39.63 447.40,39.83 448.15,40.05 448.90,40.27 449.65,40.49 450.40,40.72 451.16,40.96 451.91,41.20 452.66,41.44 453.41,41.69 454.16,41.95 454.91,42.21 455.66,42.48 456.41,42.76 457.16,43.04 457.91,43.32 458.66,43.61 459.41,43.91 460.16,44.21 460.91,44.51 461.67,44.82 462.42,45.14 463.17,45.46 463.92,45.79 464.67,46.12 465.42,46.46 466.17,46.80 466.92,47.15 467.67,47.50 468.42,47.86 469.17,48.23 469.92,48.59 470.67,48.97 471.43,49.35 472.18,49.73 472.93,50.12 473.68,50.51 474.43,50.91 475.18,51.31 475.93,51.72 476.68,52.14 477.43,52.55 478.18,52.98 478.93,53.40 479.68,53.84 480.43,54.27 481.18,54.71 481.94,55.16 482.69,55.61 483.44,56.07 484.19,56.53 484.94,56.99 485.69,57.46 486.44,57.93 487.19,58.41 487.94,58.89 488.69,59.38 489.44,59.87 490.19,60.37 490.94,60.87 491.70,61.37 492.45,61.88 493.20,62.39 493.95,62.91 494.70,63.43 495.45,63.95 496.20,64.48 496.95,65.02 497.70,65.55 498.45,66.09 499.20,66.64 499.95,67.19 500.70,67.74 501.45,68.30 502.21,68.86 502.96,69.42 503.71,69.99 504.46,70.56 505.21,71.14 505.96,71.71 506.71,72.30 507.46,72.88 508.21,73.47 508.96,74.06 509.71,74.66 510.46,75.26 511.21,75.86 511.96,76.47 512.72,77.08 513.47,77.69 514.22,78.31 514.97,78.92 515.72,79.55 516.47,80.17 517.22,80.80 517.97,81.43 518.72,82.06 519.47,82.70 520.22,83.34 520.97,83.98 521.72,84.63 522.48,85.28 523.23,85.93 523.98,86.58 524.73,87.24 525.48,87.90 526.23,88.56 526.98,89.22 527.73,89.89 528.48,90.56 529.23,91.23 529.98,91.90 530.73,92.58 531.48,93.26 532.23,93.94 532.99,94.62 533.74,95.30 534.49,95.99 535.24,96.68 535.99,97.37 536.74,98.06 537.49,98.76 538.24,99.45 538.99,100.15 539.74,100.85 540.49,101.55 541.24,102.26 541.99,102.96 542.74,103.67 543.50,104.38 544.25,105.09 545.00,105.80 545.75,106.51 546.50,107.23 547.25,107.94 548.00,108.66 548.75,109.38 549.50,110.10 550.25,110.82 551.00,111.54 551.75,112.27 552.50,112.99 553.26,113.71 554.01,114.44 554.76,115.17 555.51,115.90 556.26,116.63 557.01,117.35 557.76,118.09 558.51,118.82 559.26,119.55 560.01,120.28 560.76,121.01 561.51,121.75 562.26,122.48 563.01,123.22 563.77,123.95 564.52,124.69 565.27,125.42 566.02,126.16 566.77,126.90 567.52,127.63 568.27,128.37 569.02,129.11 569.77,129.84 570.52,130.58 571.27,131.32 572.02,132.06 572.77,132.79 573.52,133.53 574.28,134.27 575.03,135.00 575.78,135.74 576.53,136.48 577.28,137.21 578.03,137.95 578.78,138.68 579.53,139.42 580.28,140.15 581.03,140.89 581.78,141.62 582.53,142.35 583.28,143.08 584.04,143.81 584.79,144.54 585.54,145.27 586.29,146.00 587.04,146.73 587.79,147.46 588.54,148.18 589.29,148.91 590.04,149.63 590.79,150.36 591.54,151.08 592.29,151.80 593.04,152.52 593.79,153.24 594.55,153.96 595.30,154.67 596.05,155.39 596.80,156.10 597.55,156.81 598.30,157.52 599.05,158.23 599.80,158.94 600.55,159.65 601.30,160.35 602.05,161.06 602.80,161.76 603.55,162.46 604.30,163.16 605.06,163.85 605.81,164.55 606.56,165.24 607.31,165.93 608.06,166.62 608.81,167.31 609.56,167.99 610.31,168.68 611.06,169.36 611.81,170.04 612.56,170.71 613.31,171.39 614.06,172.06 614.82,172.73 615.57,173.40 616.32,174.07 617.07,174.73 617.82,175.40 618.57,176.06 619.32,176.71 620.07,177.37 620.82,178.02 621.57,178.67 622.32,179.32 623.07,179.97 623.82,180.61 624.57,181.25 625.33,181.89 626.08,182.52 626.83,183.15 627.58,183.78 628.33,184.41 629.08,185.04 629.83,185.66 630.58,186.28 631.33,186.89 632.08,187.51 632.83,188.12 633.58,188.72 634.33,189.33 635.09,189.93 635.84,190.53 636.59,191.13 637.34,191.72 638.09,192.31 638.84,192.90 639.59,193.48 640.34,194.06 641.09,194.64 641.84,195.22 642.59,195.79 643.34,196.36 644.09,196.92 644.84,197.48 645.60,198.04 646.35,198.60 647.10,199.15 647.85,199.70 648.60,200.25 649.35,200.79 650.10,201.33 650.85,201.87 651.60,202.40 652.35,202.93 653.10,203.46 653.85,203.98 654.60,204.50 655.35,205.02 656.11,205.53 656.86,206.04 657.61,206.54 658.36,207.05 659.11,207.54 659.86,208.04 660.61,208.53 661.36,209.02 662.11,209.50 662.86,209.99 663.61,210.46 664.36,210.94 665.11,211.41 665.87,211.88 666.62,212.34 667.37,212.80 668.12,213.26 668.87,213.71 669.62,214.16 670.37,214.60 671.12,215.04 671.87,215.48 672.62,215.92 673.37,216.35 674.12,216.77 674.87,217.20 675.62,217.62 676.38,218.03 677.13,218.45 677.88,218.86 678.63,219.26 679.38,219.66 680.13,220.06 680.88,220.45 681.63,220.84 682.38,221.23 683.13,221.61 683.88,221.99 684.63,222.37 685.38,222.74 686.13,223.11 686.89,223.47 687.64,223.84 688.39,224.19 689.14,224.55 689.89,224.90 690.64,225.24 691.39,225.58 692.14,225.92 692.89,226.26 693.64,226.59 694.39,226.92 695.14,227.24 695.89,227.56 696.65,227.88 697.40,228.19 698.15,228.50 698.90,228.81 699.65,229.11 700.40,229.41 701.15,229.70 701.90,229.99 702.65,230.28 703.40,230.57 704.15,230.85 704.90,231.12 705.65,231.40 706.40,231.67 707.16,231.93 707.91,232.20 708.66,232.46 709.41,232.71 710.16,232.96 710.91,233.21 711.66,233.46 712.41,233.70 713.16,233.94 713.91,234.17 714.66,234.41 715.41,234.63 716.16,234.86 716.91,235.08 717.67,235.30 718.42,235.51 719.17,235.72 719.92,235.93 720.67,236.14 721.42,236.34 722.17,236.54 722.92,236.73 723.67,236.92 724.42,237.11 725.17,237.30 725.92,237.48 726.67,237.66 727.43,237.84 728.18,238.01 728.93,238.18 729.68,238.35 730.43,238.51 731.18,238.67 731.93,238.83 732.68,238.98 733.43,239.13 734.18,239.28 734.93,239.43 735.68,239.57 736.43,239.71 737.18,239.85 737.94,239.98 738.69,240.11 739.44,240.24 740.19,240.37 740.94,240.49 741.69,240.61 742.44,240.73 743.19,240.84 743.94,240.96 744.69,241.07 745.44,241.17 746.19,241.28 746.94,241.38 747.70,241.48 748.45,241.58 749.20,241.67 749.95,241.76 750.70,241.85 751.45,241.94 752.20,242.03 752.95,242.11 753.70,242.19 754.45,242.27 755.20,242.34 755.95,242.42 756.70,242.49 757.45,242.56 758.21,242.63 758.96,242.69 759.71,242.75 760.46,242.82 761.21,242.87 761.96,242.93 762.71,242.99 763.46,243.04 764.21,243.09 764.96,243.14 765.71,243.19 766.46,243.23 767.21,243.28 767.96,243.32 768.72,243.36 769.47,243.40 770.22,243.44 770.97,243.47 771.72,243.51 772.47,243.54 773.22,243.57 773.97,243.60 774.72,243.63 775.47,243.66 776.22,243.68 776.97,243.71 777.72,243.73 778.48,243.75 779.23,243.78 779.98,243.79 780.73,243.81 781.48,243.83 782.23,243.85 782.98,243.86 783.73,243.88 784.48,243.89 785.23,243.90 785.98,243.91 786.73,243.92 787.48,243.93 788.23,243.94 788.99,243.95 789.74,243.96 790.49,243.96 791.24,243.97 791.99,243.97 792.74,243.98 793.49,243.98 794.24,243.99 794.99,243.99 795.74,243.99 796.49,243.99 797.24,243.99 797.99,244.00 798.74,244.00 799.50,244.00 800.25,244.00 801.00,244.00 801.75,244.00 802.50,244.00 803.25,244.00 804.00,244.00" />
  <text x="420.0" y="22" text-anchor="middle" font-family="Arial, Helvetica, sans-serif" font-size="15" fill="#102a43">cosine_power_3 window (time domain)</text>
  <text x="420.0" y="272" text-anchor="middle" font-family="Arial, Helvetica, sans-serif" font-size="12" fill="#334e68">normalized sample index</text>
  <text x="14" y="140.0" transform="rotate(-90 14,140.0)" text-anchor="middle" font-family="Arial, Helvetica, sans-serif" font-size="12" fill="#334e68">amplitude</text>
  <text x="36" y="262" font-family="Arial, Helvetica, sans-serif" font-size="11" fill="#486581">0</text>
  <text x="804" y="262" text-anchor="end" font-family="Arial, Helvetica, sans-serif" font-size="11" fill="#486581">1</text>
  <text x="30" y="40" text-anchor="end" font-family="Arial, Helvetica, sans-serif" font-size="11" fill="#486581">1.0</text>
  <text x="30" y="248" text-anchor="end" font-family="Arial, Helvetica, sans-serif" font-size="11" fill="#486581">0.0</text>
</svg>
