<svg xmlns="http://www.w3.org/2000/svg" width="840" height="280" viewBox="0 0 840 280">
  <rect x="0" y="0" width="840" height="280" fill="#ffffff" />
  <rect x="36" y="36" width="768" height="208" fill="#f7fbff" stroke="#c8d9e6" />
  <polyline fill="none" stroke="#005f73" stroke-width="2" points="36.00,244.00 36.75,244.00 37.50,244.00 38.25,244.00 39.00,244.00 39.75,244.00 40.50,244.00 41.26,244.00 42.01,244.00 42.76,244.00 43.51,244.00 44.26,244.00 45.01,244.00 45.76,244.00 46.51,244.00 47.26,244.00 48.01,244.00 48.76,244.00 49.51,244.00 50.26,244.00 51.01,244.00 51.77,244.00 52.52,244.00 53.27,243.99 54.02,243.99 54.77,243.99 55.52,243.99 56.27,243.99 57.02,243.99 57.77,243.99 58.52,243.99 59.27,243.98 60.02,243.98 60.77,243.98 61.52,243.98 62.28,243.97 63.03,243.97 63.78,243.97 64.53,243.96 65.28,243.96 66.03,243.95 66.78,243.95 67.53,243.94 68.28,243.94 69.03,243.93 69.78,243.93 70.53,243.92 71.28,243.91 72.04,243.90 72.79,243.90 73.54,243.89 74.29,243.88 75.04,243.87 75.79,243.86 76.54,243.85 77.29,243.83 78.04,243.82 78.79,243.81 79.54,243.80 80.29,243.78 81.04,243.77 81.79,243.75 82.55,243.73 83.30,243.72 84.05,243.70 84.80,243.68 85.55,243.66 86.30,243.64 87.05,243.62 87.80,243.59 88.55,243.57 89.30,243.55 90.05,243.52 90.80,243.49 91.55,243.47 92.30,243.44 93.06,243.41 93.81,243.37 94.56,243.34 95.31,243.31 96.06,243.27 96.81,243.24 97.56,243.20 98.31,243.16 99.06,243.12 99.81,243.08 100.56,243.04 101.31,242.99 102.06,242.95 102.82,242.90 103.57,242.85 104.32,242.80 105.07,242.75 105.82,242.69 106.57,242.64 107.32,242.58 108.07,242.52 108.82,242.46 109.57,242.40 110.32,242.33 111.07,242.27 111.82,242.20 112.57,242.13 113.33,242.06 114.08,241.98 114.83,241.91 115.58,241.83 116.33,241.75 117.08,241.67 117.83,241.58 118.58,241.50 119.33,241.41 120.08,241.32 120.83,241.22 121.58,241.13 122.33,241.03 123.09,240.93 123.84,240.83 124.59,240.72 125.34,240.61 126.09,240.50 126.84,240.39 127.59,240.28 128.34,240.16 129.09,240.04 129.84,239.92 130.59,239.79 131.34,239.66 132.09,239.53 132.84,239.40 133.60,239.26 134.35,239.12 135.10,238.98 135.85,238.83 136.60,238.69 137.35,238.53 138.10,238.38 138.85,238.22 139.60,238.06 140.35,237.90 141.10,237.73 141.85,237.56 142.60,237.39 143.35,237.22 144.11,237.04 144.86,236.85 145.61,236.67 146.36,236.48 147.11,236.29 147.86,236.09 148.61,235.89 149.36,235.69 150.11,235.48 150.86,235.28 151.61,235.06 152.36,234.85 153.11,234.63 153.87,234.40 154.62,234.18 155.37,233.95 156.12,233.71 156.87,233.47 157.62,233.23 158.37,232.99 159.12,232.74 159.87,232.48 160.62,232.23 161.37,231.97 162.12,231.70 162.87,231.43 163.62,231.16 164.38,230.88 165.13,230.60 165.88,230.32 166.63,230.03 167.38,229.74 168.13,229.44 168.88,229.14 169.63,228.84 170.38,228.53 171.13,228.22 171.88,227.90 172.63,227.58 173.38,227.26 174.13,226.93 174.89,226.60 175.64,226.26 176.39,225.92 177.14,225.57 177.89,225.22 178.64,224.87 179.39,224.51 180.14,224.15 180.89,223.78 181.64,223.41 182.39,223.04 183.14,222.66 183.89,222.27 184.65,221.89 185.40,221.49 186.15,221.10 186.90,220.69 187.65,220.29 188.40,219.88 189.15,219.46 189.90,219.05 190.65,218.62 191.40,218.20 192.15,217.76 192.90,217.33 193.65,216.89 194.40,216.44 195.16,215.99 195.91,215.54 196.66,215.08 197.41,214.62 198.16,214.15 198.91,213.68 199.66,213.20 200.41,212.72 201.16,212.24 201.91,211.75 202.66,211.26 203.41,210.76 204.16,210.26 204.91,209.75 205.67,209.24 206.42,208.72 207.17,208.20 207.92,207.68 208.67,207.15 209.42,206.62 210.17,206.08 210.92,205.54 211.67,204.99 212.42,204.44 213.17,203.89 213.92,203.33 214.67,202.77 215.43,202.20 216.18,201.63 216.93,201.05 217.68,200.47 218.43,199.89 219.18,199.30 219.93,198.71 220.68,198.11 221.43,197.51 222.18,196.90 222.93,196.30 223.68,195.68 224.43,195.07 225.18,194.44 225.94,193.82 226.69,193.19 227.44,192.56 228.19,191.92 228.94,191.28 229.69,190.63 230.44,189.99 231.19,189.33 231.94,188.68 232.69,188.02 233.44,187.35 234.19,186.69 234.94,186.01 235.70,185.34 236.45,184.66 237.20,183.98 237.95,183.29 238.70,182.60 239.45,181.91 240.20,181.21 240.95,180.51 241.70,179.81 242.45,179.10 243.20,178.39 243.95,177.68 244.70,176.96 245.45,176.24 246.21,175.52 246.96,174.80 247.71,174.07 248.46,173.33 249.21,172.60 249.96,171.86 250.71,171.12 251.46,170.37 252.21,169.63 252.96,168.88 253.71,168.12 254.46,167.37 255.21,166.61 255.96,165.85 256.72,165.08 257.47,164.32 258.22,163.55 258.97,162.78 259.72,162.00 260.47,161.23 261.22,160.45 261.97,159.67 262.72,158.88 263.47,158.10 264.22,157.31 264.97,156.52 265.72,155.73 266.48,154.94 267.23,154.14 267.98,153.34 268.73,152.54 269.48,151.74 270.23,150.94 270.98,150.13 271.73,149.33 272.48,148.52 273.23,147.71 273.98,146.90 274.73,146.09 275.48,145.27 276.23,144.46 276.99,143.64 277.74,142.82 278.49,142.01 279.24,141.19 279.99,140.36 280.74,139.54 281.49,138.72 282.24,137.90 282.99,137.07 283.74,136.25 284.49,135.42 285.24,134.59 285.99,133.77 286.74,132.94 287.50,132.11 288.25,131.28 289.00,130.45 289.75,129.63 290.50,128.80 291.25,127.97 292.00,127.14 292.75,126.31 293.50,125.48 294.25,124.65 295.00,123.82 295.75,122.99 296.50,122.16 297.26,121.34 298.01,120.51 298.76,119.68 299.51,118.85 300.26,118.03 301.01,117.20 301.76,116.38 302.51,115.55 303.26,114.73 304.01,113.91 304.76,113.09 305.51,112.27 306.26,111.45 307.01,110.63 307.77,109.82 308.52,109.00 309.27,108.19 310.02,107.38 310.77,106.57 311.52,105.76 312.27,104.95 313.02,104.15 313.77,103.34 314.52,102.54 315.27,101.74 316.02,100.94 316.77,100.15 317.52,99.35 318.28,98.56 319.03,97.77 319.78,96.99 320.53,96.20 321.28,95.42 322.03,94.64 322.78,93.86 323.53,93.09 324.28,92.32 325.03,91.55 325.78,90.78 326.53,90.02 327.28,89.26 328.04,88.50 328.79,87.75 329.54,87.00 330.29,86.25 331.04,85.51 331.79,84.76 332.54,84.03 333.29,83.29 334.04,82.56 334.79,81.84 335.54,81.11 336.29,80.39 337.04,79.68 337.79,78.97 338.55,78.26 339.30,77.56 340.05,76.86 340.80,76.16 341.55,75.47 342.30,74.78 343.05,74.10 343.80,73.42 344.55,72.75 345.30,72.08 346.05,71.41 346.80,70.75 347.55,70.10 348.30,69.45 349.06,68.80 349.81,68.16 350.56,67.52 351.31,66.89 352.06,66.26 352.81,65.64 353.56,65.03 354.31,64.41 355.06,63.81 355.81,63.21 356.56,62.61 357.31,62.02 358.06,61.44 358.82,60.86 359.57,60.28 360.32,59.72 361.07,59.15 361.82,58.60 362.57,58.05 363.32,57.50 364.07,56.96 364.82,56.43 365.57,55.90 366.32,55.38 367.07,54.86 367.82,54.35 368.57,53.85 369.33,53.35 370.08,52.86 370.83,52.38 371.58,51.90 372.33,51.43 373.08,50.96 373.83,50.50 374.58,50.05 375.33,49.61 376.08,49.17 376.83,48.73 377.58,48.31 378.33,47.89 379.09,47.48 379.84,47.07 380.59,46.67 381.34,46.28 382.09,45.89 382.84,45.51 383.59,45.14 384.34,44.78 385.09,44.42 385.84,44.07 386.59,43.73 387.34,43.39 388.09,43.06 388.84,42.74 389.60,42.42 390.35,42.12 391.10,41.82 391.85,41.52 392.60,41.24 393.35,40.96 394.10,40.69 394.85,40.42 395.60,40.17 396.35,39.92 397.10,39.68 397.85,39.44 398.60,39.22 399.35,39.00 400.11,38.79 400.86,38.59 401.61,38.39 402.36,38.20 403.11,38.02 403.86,37.85 404.61,37.68 405.36,37.52 406.11,37.37 406.86,37.23 407.61,37.10 408.36,36.97 409.11,36.85 409.87,36.74 410.62,36.64 411.37,36.54 412.12,36.45 412.87,36.37 413.62,36.30 414.37,36.24 415.12,36.18 415.87,36.13 416.62,36.09 417.37,36.06 418.12,36.03 418.87,36.01 419.62,36.00 420.38,36.00 421.13,36.01 421.88,36.02 422.63,36.04 423.38,36.07 424.13,36.11 424.88,36.15 425.63,36.21 426.38,36.27 427.13,36.34 427.88,36.41 428.63,36.50 429.38,36.59 430.13,36.69 430.89,36.79 431.64,36.91 432.39,37.03 433.14,37.16 433.89,37.30 434.64,37.45 435.39,37.60 436.14,37.76 436.89,37.93 437.64,38.11 438.39,38.29 439.14,38.49 439.89,38.69 440.65,38.89 441.40,39.11 442.15,39.33 442.90,39.56 443.65,39.80 444.40,40.04 445.15,40.30 445.90,40.56 446.65,40.82 447.40,41.10 448.15,41.38 448.90,41.67 449.65,41.97 450.40,42.27 451.16,42.58 451.91,42.90 452.66,43.22 453.41,43.56 454.16,43.90 454.91,44.24 455.66,44.60 456.41,44.96 457.16,45.33 457.91,45.70 458.66,46.08 459.41,46.47 460.16,46.87 460.91,47.27 461.67,47.68 462.42,48.10 463.17,48.52 463.92,48.95 464.67,49.39 465.42,49.83 466.17,50.28 466.92,50.73 467.67,51.20 468.42,51.66 469.17,52.14 469.92,52.62 470.67,53.11 471.43,53.60 472.18,54.10 472.93,54.61 473.68,55.12 474.43,55.64 475.18,56.16 475.93,56.69 476.68,57.23 477.43,57.77 478.18,58.32 478.93,58.87 479.68,59.43 480.43,60.00 481.18,60.57 481.94,61.15 482.69,61.73 483.44,62.32 484.19,62.91 484.94,63.51 485.69,64.11 486.44,64.72 487.19,65.33 487.94,65.95 488.69,66.58 489.44,67.20 490.19,67.84 490.94,68.48 491.70,69.12 492.45,69.77 493.20,70.42 493.95,71.08 494.70,71.74 495.45,72.41 496.20,73.08 496.95,73.76 497.70,74.44 498.45,75.13 499.20,75.81 499.95,76.51 500.70,77.21 501.45,77.91 502.21,78.61 502.96,79.32 503.71,80.04 504.46,80.75 505.21,81.47 505.96,82.20 506.71,82.93 507.46,83.66 508.21,84.40 508.96,85.13 509.71,85.88 510.46,86.62 511.21,87.37 511.96,88.12 512.72,88.88 513.47,89.64 514.22,90.40 514.97,91.16 515.72,91.93 516.47,92.70 517.22,93.47 517.97,94.25 518.72,95.03 519.47,95.81 520.22,96.59 520.97,97.38 521.72,98.17 522.48,98.96 523.23,99.75 523.98,100.54 524.73,101.34 525.48,102.14 526.23,102.94 526.98,103.74 527.73,104.55 528.48,105.35 529.23,106.16 529.98,106.97 530.73,107.78 531.48,108.60 532.23,109.41 532.99,110.23 533.74,111.04 534.49,111.86 535.24,112.68 535.99,113.50 536.74,114.32 537.49,115.14 538.24,115.97 538.99,116.79 539.74,117.62 540.49,118.44 541.24,119.27 541.99,120.09 542.74,120.92 543.50,121.75 544.25,122.58 545.00,123.41 545.75,124.24 546.50,125.06 547.25,125.89 548.00,126.72 548.75,127.55 549.50,128.38 550.25,129.21 551.00,130.04 551.75,130.87 552.50,131.70 553.26,132.53 554.01,133.35 554.76,134.18 555.51,135.01 556.26,135.83 557.01,136.66 557.76,137.48 558.51,138.31 559.26,139.13 560.01,139.95 560.76,140.78 561.51,141.60 562.26,142.42 563.01,143.23 563.77,144.05 564.52,144.87 565.27,145.68 566.02,146.49 566.77,147.31 567.52,148.12 568.27,148.92 569.02,149.73 569.77,150.54 570.52,151.34 571.27,152.14 572.02,152.94 572.77,153.74 573.52,154.54 574.28,155.33 575.03,156.13 575.78,156.92 576.53,157.71 577.28,158.49 578.03,159.28 578.78,160.06 579.53,160.84 580.28,161.62 581.03,162.39 581.78,163.16 582.53,163.93 583.28,164.70 584.04,165.47 584.79,166.23 585.54,166.99 586.29,167.75 587.04,168.50 587.79,169.25 588.54,170.00 589.29,170.75 590.04,171.49 590.79,172.23 591.54,172.97 592.29,173.70 593.04,174.43 593.79,175.16 594.55,175.88 595.30,176.60 596.05,177.32 596.80,178.04 597.55,178.75 598.30,179.46 599.05,180.16 599.80,180.86 600.55,181.56 601.30,182.26 602.05,182.95 602.80,183.64 603.55,184.32 604.30,185.00 605.06,185.68 605.81,186.35 606.56,187.02 607.31,187.69 608.06,188.35 608.81,189.01 609.56,189.66 610.31,190.31 611.06,190.96 611.81,191.60 612.56,192.24 613.31,192.87 614.06,193.51 614.82,194.13 615.57,194.76 616.32,195.37 617.07,195.99 617.82,196.60 618.57,197.21 619.32,197.81 620.07,198.41 620.82,199.00 621.57,199.59 622.32,200.18 623.07,200.76 623.82,201.34 624.57,201.91 625.33,202.48 626.08,203.05 626.83,203.61 627.58,204.17 628.33,204.72 629.08,205.27 629.83,205.81 630.58,206.35 631.33,206.88 632.08,207.41 632.83,207.94 633.58,208.46 634.33,208.98 635.09,209.49 635.84,210.00 636.59,210.51 637.34,211.01 638.09,211.50 638.84,211.99 639.59,212.48 640.34,212.96 641.09,213.44 641.84,213.92 642.59,214.38 643.34,214.85 644.09,215.31 644.84,215.77 645.60,216.22 646.35,216.66 647.10,217.11 647.85,217.55 648.60,217.98 649.35,218.41 650.10,218.84 650.85,219.26 651.60,219.67 652.35,220.08 653.10,220.49 653.85,220.90 654.60,221.29 655.35,221.69 656.11,222.08 656.86,222.47 657.61,222.85 658.36,223.23 659.11,223.60 659.86,223.97 660.61,224.33 661.36,224.69 662.11,225.05 662.86,225.40 663.61,225.75 664.36,226.09 665.11,226.43 665.87,226.76 666.62,227.10 667.37,227.42 668.12,227.74 668.87,228.06 669.62,228.38 670.37,228.69 671.12,228.99 671.87,229.29 672.62,229.59 673.37,229.89 674.12,230.18 674.87,230.46 675.62,230.74 676.38,231.02 677.13,231.30 677.88,231.57 678.63,231.83 679.38,232.10 680.13,232.36 680.88,232.61 681.63,232.86 682.38,233.11 683.13,233.35 683.88,233.59 684.63,233.83 685.38,234.06 686.13,234.29 686.89,234.52 687.64,234.74 688.39,234.95 689.14,235.17 689.89,235.38 690.64,235.59 691.39,235.79 692.14,235.99 692.89,236.19 693.64,236.38 694.39,236.57 695.14,236.76 695.89,236.95 696.65,237.13 697.40,237.30 698.15,237.48 698.90,237.65 699.65,237.82 700.40,237.98 701.15,238.14 701.90,238.30 702.65,238.46 703.40,238.61 704.15,238.76 704.90,238.91 705.65,239.05 706.40,239.19 707.16,239.33 707.91,239.46 708.66,239.60 709.41,239.73 710.16,239.85 710.91,239.98 711.66,240.10 712.41,240.22 713.16,240.33 713.91,240.45 714.66,240.56 715.41,240.67 716.16,240.77 716.91,240.88 717.67,240.98 718.42,241.08 719.17,241.18 719.92,241.27 720.67,241.36 721.42,241.45 722.17,241.54 722.92,241.62 723.67,241.71 724.42,241.79 725.17,241.87 725.92,241.94 726.67,242.02 727.43,242.09 728.18,242.16 728.93,242.23 729.68,242.30 730.43,242.37 731.18,242.43 731.93,242.49 732.68,242.55 733.43,242.61 734.18,242.66 734.93,242.72 735.68,242.77 736.43,242.82 737.18,242.87 737.94,242.92 738.69,242.97 739.44,243.01 740.19,243.06 740.94,243.10 741.69,243.14 742.44,243.18 743.19,243.22 743.94,243.26 744.69,243.29 745.44,243.33 746.19,243.36 746.94,243.39 747.70,243.42 748.45,243.45 749.20,243.48 749.95,243.51 750.70,243.53 751.45,243.56 752.20,243.58 752.95,243.61 753.70,243.63 754.45,243.65 755.20,243.67 755.95,243.69 756.70,243.71 757.45,243.73 758.21,243.74 758.96,243.76 759.71,243.77 760.46,243.79 761.21,243.80 761.96,243.82 762.71,243.83 763.46,243.84 764.21,243.85 764.96,243.86 765.71,243.87 766.46,243.88 767.21,243.89 767.96,243.90 768.72,243.91 769.47,243.91 770.22,243.92 770.97,243.93 771.72,243.93 772.47,243.94 773.22,243.95 773.97,243.95 774.72,243.96 775.47,243.96 776.22,243.96 776.97,243.97 777.72,243.97 778.48,243.97 779.23,243.98 779.98,243.98 780.73,243.98 781.48,243.98 782.23,243.99 782.98,243.99 783.73,243.99 784.48,243.99 785.23,243.99 785.98,243.99 786.73,243.99 787.48,244.00 788.23,244.00 788.99,244.00 789.74,244.00 790.49,244.00 791.24,244.00 791.99,244.00 792.74,244.00 793.49,244.00 794.24,244.00 794.99,244.00 795.74,244.00 796.49,244.00 797.24,244.00 797.99,244.00 798.74,244.00 799.50,244.00 800.25,244.00 801.00,244.00 801.75,244.00 802.50,244.00 803.25,244.00 804.00,244.00" />
  <text x="420.0" y="22" text-anchor="middle" font-family="Arial, Helvetica, sans-serif" font-size="15" fill="#102a43">cosine_power_4 window (time domain)</text>
  <text x="420.0" y="272" text-anchor="middle" font-family="Arial, Helvetica, sans-serif" font-size="12" fill="#334e68">normalized sample index</text>
  <text x="14" y="140.0" transform="rotate(-90 14,140.0)" text-anchor="middle" font-family="Arial, Helvetica, sans-serif" font-size="12" fill="#334e68">amplitude</text>
  <text x="36" y="262" font-family="Arial, Helvetica, sans-serif" font-size="11" fill="#486581">0</text>
  <text x="804" y="262" text-anchor="end" font-family="Arial, Helvetica, sans-serif" font-size="11" fill="#486581">1</text>
  <text x="30" y="40" text-anchor="end" font-family="Arial, Helvetica, sans-serif" font-size="11" fill="#486581">1.0</text>
  <text x="30" y="248" text-anchor="end" font-family="Arial, Helvetica, sans-serif" font-size="11" fill="#486581">0.0</text>
</svg>
