<svg xmlns="http://www.w3.org/2000/svg" width="840" height="280" viewBox="0 0 840 280">
  <rect x="0" y="0" width="840" height="280" fill="#ffffff" />
  <rect x="36" y="36" width="768" height="208" fill="#f7fbff" stroke="#c8d9e6" />
  <polyline fill="none" stroke="#005f73" stroke-width="2" points="36.00,244.00 36.75,244.00 37.50,243.99 38.25,243.98 39.00,243.97 39.75,243.95 40.50,243.93 41.26,243.90 42.01,243.87 42.76,243.84 43.51,243.80 44.26,243.76 45.01,243.72 45.76,243.67 46.51,243.62 47.26,243.56 48.01,243.50 48.76,243.43 49.51,243.37 50.26,243.29 51.01,243.22 51.77,243.14 52.52,243.05 53.27,242.97 54.02,242.87 54.77,242.78 55.52,242.68 56.27,242.57 57.02,242.47 57.77,242.36 58.52,242.24 59.27,242.12 60.02,242.00 60.77,241.87 61.52,241.74 62.28,241.61 63.03,241.47 63.78,241.33 64.53,241.18 65.28,241.03 66.03,240.88 66.78,240.72 67.53,240.56 68.28,240.40 69.03,240.23 69.78,240.06 70.53,239.88 71.28,239.70 72.04,239.52 72.79,239.33 73.54,239.14 74.29,238.94 75.04,238.75 75.79,238.54 76.54,238.34 77.29,238.13 78.04,237.91 78.79,237.70 79.54,237.48 80.29,237.25 81.04,237.02 81.79,236.79 82.55,236.56 83.30,236.32 84.05,236.08 84.80,235.83 85.55,235.58 86.30,235.33 87.05,235.07 87.80,234.81 88.55,234.54 89.30,234.28 90.05,234.01 90.80,233.73 91.55,233.45 92.30,233.17 93.06,232.88 93.81,232.60 94.56,232.30 95.31,232.01 96.06,231.71 96.81,231.41 97.56,231.10 98.31,230.79 99.06,230.48 99.81,230.16 100.56,229.84 101.31,229.52 102.06,229.19 102.82,228.86 103.57,228.53 104.32,228.19 105.07,227.85 105.82,227.51 106.57,227.16 107.32,226.81 108.07,226.46 108.82,226.10 109.57,225.74 110.32,225.38 111.07,225.01 111.82,224.64 112.57,224.27 113.33,223.89 114.08,223.51 114.83,223.13 115.58,222.75 116.33,222.36 117.08,221.97 117.83,221.57 118.58,221.18 119.33,220.77 120.08,220.37 120.83,219.96 121.58,219.55 122.33,219.14 123.09,218.73 123.84,218.31 124.59,217.89 125.34,217.46 126.09,217.03 126.84,216.60 127.59,216.17 128.34,215.73 129.09,215.30 129.84,214.85 130.59,214.41 131.34,213.96 132.09,213.51 132.84,213.06 133.60,212.60 134.35,212.14 135.10,211.68 135.85,211.22 136.60,210.75 137.35,210.28 138.10,209.81 138.85,209.34 139.60,208.86 140.35,208.38 141.10,207.90 141.85,207.41 142.60,206.92 143.35,206.43 144.11,205.94 144.86,205.45 145.61,204.95 146.36,204.45 147.11,203.95 147.86,203.44 148.61,202.94 149.36,202.43 150.11,201.91 150.86,201.40 151.61,200.88 152.36,200.37 153.11,199.84 153.87,199.32 154.62,198.80 155.37,198.27 156.12,197.74 156.87,197.21 157.62,196.67 158.37,196.14 159.12,195.60 159.87,195.06 160.62,194.51 161.37,193.97 162.12,193.42 162.87,192.87 163.62,192.32 164.38,191.77 165.13,191.21 165.88,190.66 166.63,190.10 167.38,189.54 168.13,188.98 168.88,188.41 169.63,187.85 170.38,187.28 171.13,186.71 171.88,186.14 172.63,185.57 173.38,184.99 174.13,184.41 174.89,183.84 175.64,183.26 176.39,182.67 177.14,182.09 177.89,181.51 178.64,180.92 179.39,180.33 180.14,179.74 180.89,179.15 181.64,178.56 182.39,177.97 183.14,177.37 183.89,176.78 184.65,176.18 185.40,175.58 186.15,174.98 186.90,174.38 187.65,173.77 188.40,173.17 189.15,172.56 189.90,171.96 190.65,171.35 191.40,170.74 192.15,170.13 192.90,169.52 193.65,168.90 194.40,168.29 195.16,167.67 195.91,167.06 196.66,166.44 197.41,165.82 198.16,165.20 198.91,164.58 199.66,163.96 200.41,163.34 201.16,162.72 201.91,162.10 202.66,161.47 203.41,160.85 204.16,160.22 204.91,159.59 205.67,158.97 206.42,158.34 207.17,157.71 207.92,157.08 208.67,156.45 209.42,155.82 210.17,155.19 210.92,154.56 211.67,153.92 212.42,153.29 213.17,152.66 213.92,152.02 214.67,151.39 215.43,150.75 216.18,150.12 216.93,149.48 217.68,148.85 218.43,148.21 219.18,147.57 219.93,146.94 220.68,146.30 221.43,145.66 222.18,145.03 222.93,144.39 223.68,143.75 224.43,143.11 225.18,142.47 225.94,141.84 226.69,141.20 227.44,140.56 228.19,139.92 228.94,139.28 229.69,138.64 230.44,138.00 231.19,137.37 231.94,136.73 232.69,136.09 233.44,135.45 234.19,134.81 234.94,134.18 235.70,133.54 236.45,132.90 237.20,132.27 237.95,131.63 238.70,130.99 239.45,130.36 240.20,129.72 240.95,129.09 241.70,128.45 242.45,127.82 243.20,127.18 243.95,126.55 244.70,125.92 245.45,125.29 246.21,124.65 246.96,124.02 247.71,123.39 248.46,122.76 249.21,122.13 249.96,121.50 250.71,120.88 251.46,120.25 252.21,119.62 252.96,119.00 253.71,118.37 254.46,117.75 255.21,117.12 255.96,116.50 256.72,115.88 257.47,115.26 258.22,114.64 258.97,114.02 259.72,113.40 260.47,112.79 261.22,112.17 261.97,111.56 262.72,110.94 263.47,110.33 264.22,109.72 264.97,109.11 265.72,108.50 266.48,107.89 267.23,107.29 267.98,106.68 268.73,106.08 269.48,105.47 270.23,104.87 270.98,104.27 271.73,103.67 272.48,103.08 273.23,102.48 273.98,101.88 274.73,101.29 275.48,100.70 276.23,100.11 276.99,99.52 277.74,98.93 278.49,98.35 279.24,97.76 279.99,97.18 280.74,96.60 281.49,96.02 282.24,95.44 282.99,94.87 283.74,94.29 284.49,93.72 285.24,93.15 285.99,92.58 286.74,92.01 287.50,91.45 288.25,90.88 289.00,90.32 289.75,89.76 290.50,89.20 291.25,88.65 292.00,88.09 292.75,87.54 293.50,86.99 294.25,86.44 295.00,85.90 295.75,85.35 296.50,84.81 297.26,84.27 298.01,83.73 298.76,83.19 299.51,82.66 300.26,82.13 301.01,81.60 301.76,81.07 302.51,80.55 303.26,80.03 304.01,79.50 304.76,78.99 305.51,78.47 306.26,77.96 307.01,77.45 307.77,76.94 308.52,76.43 309.27,75.93 310.02,75.42 310.77,74.93 311.52,74.43 312.27,73.93 313.02,73.44 313.77,72.95 314.52,72.47 315.27,71.98 316.02,71.50 316.77,71.02 317.52,70.54 318.28,70.07 319.03,69.60 319.78,69.13 320.53,68.67 321.28,68.20 322.03,67.74 322.78,67.28 323.53,66.83 324.28,66.38 325.03,65.93 325.78,65.48 326.53,65.04 327.28,64.59 328.04,64.16 328.79,63.72 329.54,63.29 330.29,62.86 331.04,62.43 331.79,62.01 332.54,61.59 333.29,61.17 334.04,60.75 334.79,60.34 335.54,59.93 336.29,59.53 337.04,59.12 337.79,58.73 338.55,58.33 339.30,57.93 340.05,57.54 340.80,57.16 341.55,56.77 342.30,56.39 343.05,56.01 343.80,55.64 344.55,55.27 345.30,54.90 346.05,54.53 346.80,54.17 347.55,53.81 348.30,53.46 349.06,53.10 349.81,52.75 350.56,52.41 351.31,52.07 352.06,51.73 352.81,51.39 353.56,51.06 354.31,50.73 355.06,50.40 355.81,50.08 356.56,49.76 357.31,49.45 358.06,49.13 358.82,48.82 359.57,48.52 360.32,48.22 361.07,47.92 361.82,47.62 362.57,47.33 363.32,47.04 364.07,46.76 364.82,46.48 365.57,46.20 366.32,45.93 367.07,45.66 367.82,45.39 368.57,45.13 369.33,44.87 370.08,44.61 370.83,44.36 371.58,44.11 372.33,43.86 373.08,43.62 373.83,43.38 374.58,43.15 375.33,42.92 376.08,42.69 376.83,42.47 377.58,42.25 378.33,42.03 379.09,41.82 379.84,41.61 380.59,41.41 381.34,41.20 382.09,41.01 382.84,40.81 383.59,40.62 384.34,40.44 385.09,40.25 385.84,40.07 386.59,39.90 387.34,39.73 388.09,39.56 388.84,39.40 389.60,39.24 390.35,39.08 391.10,38.93 391.85,38.78 392.60,38.64 393.35,38.49 394.10,38.36 394.85,38.22 395.60,38.09 396.35,37.97 397.10,37.85 397.85,37.73 398.60,37.62 399.35,37.51 400.11,37.40 400.86,37.30 401.61,37.20 402.36,37.10 403.11,37.01 403.86,36.93 404.61,36.84 405.36,36.76 406.11,36.69 406.86,36.62 407.61,36.55 408.36,36.49 409.11,36.43 409.87,36.37 410.62,36.32 411.37,36.27 412.12,36.23 412.87,36.19 413.62,36.15 414.37,36.12 415.12,36.09 415.87,36.06 416.62,36.04 417.37,36.03 418.12,36.01 418.87,36.01 419.62,36.00 420.38,36.00 421.13,36.00 421.88,36.01 422.63,36.02 423.38,36.04 424.13,36.05 424.88,36.08 425.63,36.10 426.38,36.13 427.13,36.17 427.88,36.21 428.63,36.25 429.38,36.29 430.13,36.34 430.89,36.40 431.64,36.46 432.39,36.52 433.14,36.58 433.89,36.65 434.64,36.73 435.39,36.80 436.14,36.88 436.89,36.97 437.64,37.06 438.39,37.15 439.14,37.25 439.89,37.35 440.65,37.45 441.40,37.56 442.15,37.67 442.90,37.79 443.65,37.91 444.40,38.03 445.15,38.16 445.90,38.29 446.65,38.43 447.40,38.56 448.15,38.71 448.90,38.85 449.65,39.00 450.40,39.16 451.16,39.32 451.91,39.48 452.66,39.64 453.41,39.81 454.16,39.99 454.91,40.16 455.66,40.34 456.41,40.53 457.16,40.72 457.91,40.91 458.66,41.10 459.41,41.30 460.16,41.51 460.91,41.71 461.67,41.92 462.42,42.14 463.17,42.36 463.92,42.58 464.67,42.80 465.42,43.03 466.17,43.27 466.92,43.50 467.67,43.74 468.42,43.99 469.17,44.23 469.92,44.48 470.67,44.74 471.43,45.00 472.18,45.26 472.93,45.52 473.68,45.79 474.43,46.06 475.18,46.34 475.93,46.62 476.68,46.90 477.43,47.19 478.18,47.48 478.93,47.77 479.68,48.07 480.43,48.37 481.18,48.67 481.94,48.98 482.69,49.29 483.44,49.60 484.19,49.92 484.94,50.24 485.69,50.56 486.44,50.89 487.19,51.22 487.94,51.56 488.69,51.90 489.44,52.24 490.19,52.58 490.94,52.93 491.70,53.28 492.45,53.63 493.20,53.99 493.95,54.35 494.70,54.71 495.45,55.08 496.20,55.45 496.95,55.82 497.70,56.20 498.45,56.58 499.20,56.96 499.95,57.35 500.70,57.74 501.45,58.13 502.21,58.53 502.96,58.92 503.71,59.33 504.46,59.73 505.21,60.14 505.96,60.55 506.71,60.96 507.46,61.38 508.21,61.80 508.96,62.22 509.71,62.65 510.46,63.07 511.21,63.50 511.96,63.94 512.72,64.38 513.47,64.82 514.22,65.26 514.97,65.70 515.72,66.15 516.47,66.60 517.22,67.06 517.97,67.51 518.72,67.97 519.47,68.43 520.22,68.90 520.97,69.37 521.72,69.84 522.48,70.31 523.23,70.78 523.98,71.26 524.73,71.74 525.48,72.22 526.23,72.71 526.98,73.20 527.73,73.69 528.48,74.18 529.23,74.68 529.98,75.17 530.73,75.68 531.48,76.18 532.23,76.68 532.99,77.19 533.74,77.70 534.49,78.21 535.24,78.73 535.99,79.25 536.74,79.76 537.49,80.29 538.24,80.81 538.99,81.34 539.74,81.86 540.49,82.39 541.24,82.93 541.99,83.46 542.74,84.00 543.50,84.54 544.25,85.08 545.00,85.62 545.75,86.17 546.50,86.72 547.25,87.26 548.00,87.82 548.75,88.37 549.50,88.92 550.25,89.48 551.00,90.04 551.75,90.60 552.50,91.16 553.26,91.73 554.01,92.30 554.76,92.86 555.51,93.43 556.26,94.00 557.01,94.58 557.76,95.15 558.51,95.73 559.26,96.31 560.01,96.89 560.76,97.47 561.51,98.05 562.26,98.64 563.01,99.23 563.77,99.81 564.52,100.40 565.27,100.99 566.02,101.59 566.77,102.18 567.52,102.78 568.27,103.37 569.02,103.97 569.77,104.57 570.52,105.17 571.27,105.77 572.02,106.38 572.77,106.98 573.52,107.59 574.28,108.20 575.03,108.80 575.78,109.41 576.53,110.03 577.28,110.64 578.03,111.25 578.78,111.86 579.53,112.48 580.28,113.10 581.03,113.71 581.78,114.33 582.53,114.95 583.28,115.57 584.04,116.19 584.79,116.81 585.54,117.44 586.29,118.06 587.04,118.68 587.79,119.31 588.54,119.94 589.29,120.56 590.04,121.19 590.79,121.82 591.54,122.45 592.29,123.08 593.04,123.71 593.79,124.34 594.55,124.97 595.30,125.60 596.05,126.23 596.80,126.87 597.55,127.50 598.30,128.13 599.05,128.77 599.80,129.40 600.55,130.04 601.30,130.68 602.05,131.31 602.80,131.95 603.55,132.58 604.30,133.22 605.06,133.86 605.81,134.50 606.56,135.13 607.31,135.77 608.06,136.41 608.81,137.05 609.56,137.69 610.31,138.32 611.06,138.96 611.81,139.60 612.56,140.24 613.31,140.88 614.06,141.52 614.82,142.15 615.57,142.79 616.32,143.43 617.07,144.07 617.82,144.71 618.57,145.34 619.32,145.98 620.07,146.62 620.82,147.26 621.57,147.89 622.32,148.53 623.07,149.17 623.82,149.80 624.57,150.44 625.33,151.07 626.08,151.71 626.83,152.34 627.58,152.97 628.33,153.61 629.08,154.24 629.83,154.87 630.58,155.50 631.33,156.14 632.08,156.77 632.83,157.40 633.58,158.02 634.33,158.65 635.09,159.28 635.84,159.91 636.59,160.53 637.34,161.16 638.09,161.78 638.84,162.41 639.59,163.03 640.34,163.65 641.09,164.27 641.84,164.89 642.59,165.51 643.34,166.13 644.09,166.75 644.84,167.37 645.60,167.98 646.35,168.60 647.10,169.21 647.85,169.82 648.60,170.43 649.35,171.04 650.10,171.65 650.85,172.26 651.60,172.87 652.35,173.47 653.10,174.07 653.85,174.68 654.60,175.28 655.35,175.88 656.11,176.48 656.86,177.07 657.61,177.67 658.36,178.26 659.11,178.86 659.86,179.45 660.61,180.04 661.36,180.63 662.11,181.21 662.86,181.80 663.61,182.38 664.36,182.97 665.11,183.55 665.87,184.13 666.62,184.70 667.37,185.28 668.12,185.85 668.87,186.42 669.62,186.99 670.37,187.56 671.12,188.13 671.87,188.70 672.62,189.26 673.37,189.82 674.12,190.38 674.87,190.94 675.62,191.49 676.38,192.05 677.13,192.60 677.88,193.15 678.63,193.70 679.38,194.24 680.13,194.78 680.88,195.33 681.63,195.87 682.38,196.40 683.13,196.94 683.88,197.47 684.63,198.00 685.38,198.53 686.13,199.06 686.89,199.58 687.64,200.11 688.39,200.62 689.14,201.14 689.89,201.66 690.64,202.17 691.39,202.68 692.14,203.19 692.89,203.70 693.64,204.20 694.39,204.70 695.14,205.20 695.89,205.70 696.65,206.19 697.40,206.68 698.15,207.17 698.90,207.65 699.65,208.14 700.40,208.62 701.15,209.10 701.90,209.57 702.65,210.05 703.40,210.52 704.15,210.99 704.90,211.45 705.65,211.91 706.40,212.37 707.16,212.83 707.91,213.28 708.66,213.74 709.41,214.19 710.16,214.63 710.91,215.07 711.66,215.51 712.41,215.95 713.16,216.39 713.91,216.82 714.66,217.25 715.41,217.67 716.16,218.10 716.91,218.52 717.67,218.93 718.42,219.35 719.17,219.76 719.92,220.17 720.67,220.57 721.42,220.98 722.17,221.37 722.92,221.77 723.67,222.16 724.42,222.55 725.17,222.94 725.92,223.32 726.67,223.70 727.43,224.08 728.18,224.46 728.93,224.83 729.68,225.19 730.43,225.56 731.18,225.92 731.93,226.28 732.68,226.63 733.43,226.98 734.18,227.33 734.93,227.68 735.68,228.02 736.43,228.36 737.18,228.69 737.94,229.03 738.69,229.35 739.44,229.68 740.19,230.00 740.94,230.32 741.69,230.63 742.44,230.94 743.19,231.25 743.94,231.56 744.69,231.86 745.44,232.16 746.19,232.45 746.94,232.74 747.70,233.03 748.45,233.31 749.20,233.59 749.95,233.87 750.70,234.14 751.45,234.41 752.20,234.68 752.95,234.94 753.70,235.20 754.45,235.45 755.20,235.71 755.95,235.95 756.70,236.20 757.45,236.44 758.21,236.68 758.96,236.91 759.71,237.14 760.46,237.37 761.21,237.59 761.96,237.81 762.71,238.02 763.46,238.23 764.21,238.44 764.96,238.65 765.71,238.85 766.46,239.04 767.21,239.24 767.96,239.42 768.72,239.61 769.47,239.79 770.22,239.97 770.97,240.14 771.72,240.31 772.47,240.48 773.22,240.64 773.97,240.80 774.72,240.96 775.47,241.11 776.22,241.26 776.97,241.40 777.72,241.54 778.48,241.68 779.23,241.81 779.98,241.94 780.73,242.06 781.48,242.18 782.23,242.30 782.98,242.41 783.73,242.52 784.48,242.63 785.23,242.73 785.98,242.83 786.73,242.92 787.48,243.01 788.23,243.10 788.99,243.18 789.74,243.26 790.49,243.33 791.24,243.40 791.99,243.47 792.74,243.53 793.49,243.59 794.24,243.64 794.99,243.69 795.74,243.74 796.49,243.78 797.24,243.82 797.99,243.86 798.74,243.89 799.50,243.92 800.25,243.94 801.00,243.96 801.75,243.98 802.50,243.99 803.25,244.00 804.00,244.00" />
  <text x="420.0" y="22" text-anchor="middle" font-family="Arial, Helvetica, sans-serif" font-size="15" fill="#102a43">cosine_power_2 window (time domain)</text>
  <text x="420.0" y="272" text-anchor="middle" font-family="Arial, Helvetica, sans-serif" font-size="12" fill="#334e68">normalized sample index</text>
  <text x="14" y="140.0" transform="rotate(-90 14,140.0)" text-anchor="middle" font-family="Arial, Helvetica, sans-serif" font-size="12" fill="#334e68">amplitude</text>
  <text x="36" y="262" font-family="Arial, Helvetica, sans-serif" font-size="11" fill="#486581">0</text>
  <text x="804" y="262" text-anchor="end" font-family="Arial, Helvetica, sans-serif" font-size="11" fill="#486581">1</text>
  <text x="30" y="40" text-anchor="end" font-family="Arial, Helvetica, sans-serif" font-size="11" fill="#486581">1.0</text>
  <text x="30" y="248" text-anchor="end" font-family="Arial, Helvetica, sans-serif" font-size="11" fill="#486581">0.0</text>
</svg>
