<svg xmlns="http://www.w3.org/2000/svg" width="840" height="280" viewBox="0 0 840 280">
  <rect x="0" y="0" width="840" height="280" fill="#ffffff" />
  <rect x="36" y="36" width="768" height="208" fill="#f7fbff" stroke="#c8d9e6" />
  <polyline fill="none" stroke="#005f73" stroke-width="2" points="36.00,36.00 36.75,42.11 37.50,63.15 38.25,197.20 39.00,167.73 39.75,170.13 40.50,173.27 41.26,176.27 42.01,179.00 42.76,181.48 43.51,183.74 44.26,185.80 45.01,187.70 45.76,189.46 46.51,191.09 47.26,192.62 48.01,161.49 48.76,162.07 49.51,162.63 50.26,163.17 51.01,163.69 51.77,164.19 52.52,164.67 53.27,165.14 54.02,165.59 54.77,166.02 55.52,166.44 56.27,166.85 57.02,167.24 57.77,167.62 58.52,167.99 59.27,168.35 60.02,161.04 60.77,161.38 61.52,161.70 62.28,162.02 63.03,162.32 63.78,162.62 64.53,162.92 65.28,163.20 66.03,163.48 66.78,163.75 67.53,164.02 68.28,164.28 69.03,164.53 69.78,164.78 70.53,165.02 71.28,165.26 72.04,160.98 72.79,161.20 73.54,161.43 74.29,161.65 75.04,161.86 75.79,162.07 76.54,162.28 77.29,162.49 78.04,162.69 78.79,162.88 79.54,163.08 80.29,163.27 81.04,163.45 81.79,163.64 82.55,163.82 83.30,164.00 84.05,160.97 84.80,161.14 85.55,161.31 86.30,161.48 87.05,161.65 87.80,161.81 88.55,161.97 89.30,162.13 90.05,162.28 90.80,162.44 91.55,162.59 92.30,162.74 93.06,162.89 93.81,163.03 94.56,163.18 95.31,163.32 96.06,160.99 96.81,161.13 97.56,161.26 98.31,161.40 99.06,161.53 99.81,161.66 100.56,161.79 101.31,161.92 102.06,162.05 102.82,162.18 103.57,162.30 104.32,162.42 105.07,162.55 105.82,162.67 106.57,162.79 107.32,162.90 108.07,161.02 108.82,161.13 109.57,161.25 110.32,161.36 111.07,161.47 111.82,161.58 112.57,161.69 113.33,161.80 114.08,161.91 114.83,162.02 115.58,162.12 116.33,162.23 117.08,162.33 117.83,162.43 118.58,162.54 119.33,162.64 120.08,161.06 120.83,161.16 121.58,161.26 122.33,161.35 123.09,161.45 123.84,161.54 124.59,161.64 125.34,161.73 126.09,161.83 126.84,161.92 127.59,162.01 128.34,162.10 129.09,162.19 129.84,162.28 130.59,162.37 131.34,162.46 132.09,161.11 132.84,161.19 133.60,161.28 134.35,161.36 135.10,161.45 135.85,161.53 136.60,161.62 137.35,161.70 138.10,161.78 138.85,161.86 139.60,161.94 140.35,162.02 141.10,162.10 141.85,162.18 142.60,162.26 143.35,162.34 144.11,161.16 144.86,161.24 145.61,161.32 146.36,161.39 147.11,161.47 147.86,161.54 148.61,161.62 149.36,161.69 150.11,161.76 150.86,161.83 151.61,161.91 152.36,161.98 153.11,162.05 153.87,162.12 154.62,162.19 155.37,162.26 156.12,161.23 156.87,161.30 157.62,161.36 158.37,161.43 159.12,161.50 159.87,161.57 160.62,161.63 161.37,161.70 162.12,161.77 162.87,161.83 163.62,161.90 164.38,161.96 165.13,162.02 165.88,162.09 166.63,162.15 167.38,162.22 168.13,161.30 168.88,161.36 169.63,161.42 170.38,161.49 171.13,161.55 171.88,161.61 172.63,161.67 173.38,161.73 174.13,161.79 174.89,161.85 175.64,161.91 176.39,161.97 177.14,162.02 177.89,162.08 178.64,162.14 179.39,162.20 180.14,161.38 180.89,161.44 181.64,161.49 182.39,161.55 183.14,161.60 183.89,161.66 184.65,161.72 185.40,161.77 186.15,161.83 186.90,161.88 187.65,161.93 188.40,161.99 189.15,162.04 189.90,162.09 190.65,162.15 191.40,162.20 192.15,161.47 192.90,161.52 193.65,161.57 194.40,161.62 195.16,161.67 195.91,161.72 196.66,161.78 197.41,161.83 198.16,161.88 198.91,161.93 199.66,161.98 200.41,162.03 201.16,162.08 201.91,162.12 202.66,162.17 203.41,162.22 204.16,161.56 204.91,161.61 205.67,161.66 206.42,161.71 207.17,161.75 207.92,161.80 208.67,161.85 209.42,161.89 210.17,161.94 210.92,161.99 211.67,162.03 212.42,162.08 213.17,162.12 213.92,162.17 214.67,162.22 215.43,162.26 216.18,161.66 216.93,161.71 217.68,161.75 218.43,161.80 219.18,161.84 219.93,161.89 220.68,161.93 221.43,161.97 222.18,162.02 222.93,162.06 223.68,162.10 224.43,162.14 225.18,162.19 225.94,162.23 226.69,162.27 227.44,162.31 228.19,161.77 228.94,161.82 229.69,161.86 230.44,161.90 231.19,161.94 231.94,161.98 232.69,162.02 233.44,162.06 234.19,162.10 234.94,162.14 235.70,162.18 236.45,162.22 237.20,162.26 237.95,162.30 238.70,162.34 239.45,162.38 240.20,161.89 240.95,161.93 241.70,161.97 242.45,162.01 243.20,162.05 243.95,162.09 244.70,162.12 245.45,162.16 246.21,162.20 246.96,162.24 247.71,162.28 248.46,162.31 249.21,162.35 249.96,162.39 250.71,162.42 251.46,162.46 252.21,162.02 252.96,162.06 253.71,162.09 254.46,162.13 255.21,162.16 255.96,162.20 256.72,162.24 257.47,162.27 258.22,162.31 258.97,162.34 259.72,162.38 260.47,162.41 261.22,162.45 261.97,162.48 262.72,162.52 263.47,162.55 264.22,162.15 264.97,162.19 265.72,162.22 266.48,162.26 267.23,162.29 267.98,162.32 268.73,162.36 269.48,162.39 270.23,162.43 270.98,162.46 271.73,162.49 272.48,162.52 273.23,162.56 273.98,162.59 274.73,162.62 275.48,162.66 276.23,162.30 276.99,162.33 277.74,162.36 278.49,162.39 279.24,162.43 279.99,162.46 280.74,162.49 281.49,162.52 282.24,162.55 282.99,162.58 283.74,162.62 284.49,162.65 285.24,162.68 285.99,162.71 286.74,162.74 287.50,162.77 288.25,162.45 289.00,162.48 289.75,162.51 290.50,162.54 291.25,162.57 292.00,162.60 292.75,162.63 293.50,162.66 294.25,162.69 295.00,162.72 295.75,162.75 296.50,162.78 297.26,162.81 298.01,162.84 298.76,162.87 299.51,162.90 300.26,162.61 301.01,162.64 301.76,162.67 302.51,162.70 303.26,162.73 304.01,162.75 304.76,162.78 305.51,162.81 306.26,162.84 307.01,162.87 307.77,162.90 308.52,162.92 309.27,162.95 310.02,162.98 310.77,163.01 311.52,163.03 312.27,162.78 313.02,162.81 313.77,162.84 314.52,162.86 315.27,162.89 316.02,162.92 316.77,162.94 317.52,162.97 318.28,163.00 319.03,163.02 319.78,163.05 320.53,163.08 321.28,163.10 322.03,163.13 322.78,163.16 323.53,163.18 324.28,162.96 325.03,162.99 325.78,163.01 326.53,163.04 327.28,163.07 328.04,163.09 328.79,163.12 329.54,163.14 330.29,163.17 331.04,163.19 331.79,163.22 332.54,163.24 333.29,163.27 334.04,163.29 334.79,163.32 335.54,163.34 336.29,163.15 337.04,163.18 337.79,163.20 338.55,163.23 339.30,163.25 340.05,163.27 340.80,163.30 341.55,163.32 342.30,163.35 343.05,163.37 343.80,163.39 344.55,163.42 345.30,163.44 346.05,163.46 346.80,163.49 347.55,163.51 348.30,163.35 349.06,163.38 349.81,163.40 350.56,163.42 351.31,163.45 352.06,163.47 352.81,163.49 353.56,163.51 354.31,163.54 355.06,163.56 355.81,163.58 356.56,163.60 357.31,163.63 358.06,163.65 358.82,163.67 359.57,163.69 360.32,163.56 361.07,163.59 361.82,163.61 362.57,163.63 363.32,163.65 364.07,163.67 364.82,163.69 365.57,163.72 366.32,163.74 367.07,163.76 367.82,163.78 368.57,163.80 369.33,163.82 370.08,163.85 370.83,163.87 371.58,163.89 372.33,163.78 373.08,163.81 373.83,163.83 374.58,163.85 375.33,163.87 376.08,163.89 376.83,163.91 377.58,163.93 378.33,163.95 379.09,163.97 379.84,163.99 380.59,164.01 381.34,164.03 382.09,164.05 382.84,164.07 383.59,164.09 384.34,164.02 385.09,164.04 385.84,164.06 386.59,164.08 387.34,164.10 388.09,164.12 388.84,164.14 389.60,164.16 390.35,164.18 391.10,164.20 391.85,164.22 392.60,164.23 393.35,164.25 394.10,164.27 394.85,164.29 395.60,164.31 396.35,164.26 397.10,164.28 397.85,164.30 398.60,164.32 399.35,164.34 400.11,164.36 400.86,164.38 401.61,164.39 402.36,164.41 403.11,164.43 403.86,164.45 404.61,164.47 405.36,164.49 406.11,164.51 406.86,164.52 407.61,164.54 408.36,164.52 409.11,164.54 409.87,164.56 410.62,164.57 411.37,164.59 412.12,164.61 412.87,164.63 413.62,164.65 414.37,164.66 415.12,164.68 415.87,164.70 416.62,164.72 417.37,164.73 418.12,164.75 418.87,164.77 419.62,164.79 420.38,164.79 421.13,164.81 421.88,164.82 422.63,164.84 423.38,164.86 424.13,164.88 424.88,164.89 425.63,164.91 426.38,164.93 427.13,164.94 427.88,164.96 428.63,164.98 429.38,164.99 430.13,165.01 430.89,165.03 431.64,165.04 432.39,165.07 433.14,165.09 433.89,165.11 434.64,165.12 435.39,165.14 436.14,165.16 436.89,165.17 437.64,165.19 438.39,165.20 439.14,165.22 439.89,165.24 440.65,165.25 441.40,165.27 442.15,165.28 442.90,165.30 443.65,165.32 444.40,165.37 445.15,165.39 445.90,165.40 446.65,165.42 447.40,165.43 448.15,165.45 448.90,165.47 449.65,165.48 450.40,165.50 451.16,165.51 451.91,165.53 452.66,165.54 453.41,165.56 454.16,165.57 454.91,165.59 455.66,165.60 456.41,165.69 457.16,165.70 457.91,165.72 458.66,165.73 459.41,165.74 460.16,165.76 460.91,165.77 461.67,165.79 462.42,165.80 463.17,165.82 463.92,165.83 464.67,165.85 465.42,165.86 466.17,165.88 466.92,165.89 467.67,165.90 468.42,166.01 469.17,166.03 469.92,166.04 470.67,166.06 471.43,166.07 472.18,166.09 472.93,166.10 473.68,166.11 474.43,166.13 475.18,166.14 475.93,166.15 476.68,166.17 477.43,166.18 478.18,166.20 478.93,166.21 479.68,166.22 480.43,166.36 481.18,166.37 481.94,166.39 482.69,166.40 483.44,166.41 484.19,166.43 484.94,166.44 485.69,166.45 486.44,166.47 487.19,166.48 487.94,166.49 488.69,166.51 489.44,166.52 490.19,166.53 490.94,166.55 491.70,166.56 492.45,166.72 493.20,166.74 493.95,166.75 494.70,166.76 495.45,166.78 496.20,166.79 496.95,166.80 497.70,166.81 498.45,166.83 499.20,166.84 499.95,166.85 500.70,166.86 501.45,166.88 502.21,166.89 502.96,166.90 503.71,166.91 504.46,167.11 505.21,167.12 505.96,167.13 506.71,167.14 507.46,167.16 508.21,167.17 508.96,167.18 509.71,167.19 510.46,167.20 511.21,167.22 511.96,167.23 512.72,167.24 513.47,167.25 514.22,167.26 514.97,167.27 515.72,167.29 516.47,167.51 517.22,167.52 517.97,167.53 518.72,167.55 519.47,167.56 520.22,167.57 520.97,167.58 521.72,167.59 522.48,167.60 523.23,167.61 523.98,167.63 524.73,167.64 525.48,167.65 526.23,167.66 526.98,167.67 527.73,167.68 528.48,167.94 529.23,167.95 529.98,167.96 530.73,167.97 531.48,167.98 532.23,167.99 532.99,168.00 533.74,168.01 534.49,168.02 535.24,168.03 535.99,168.05 536.74,168.06 537.49,168.07 538.24,168.08 538.99,168.09 539.74,168.10 540.49,168.39 541.24,168.40 541.99,168.41 542.74,168.42 543.50,168.43 544.25,168.44 545.00,168.45 545.75,168.46 546.50,168.47 547.25,168.48 548.00,168.49 548.75,168.50 549.50,168.51 550.25,168.52 551.00,168.53 551.75,168.54 552.50,168.86 553.26,168.87 554.01,168.88 554.76,168.89 555.51,168.90 556.26,168.91 557.01,168.92 557.76,168.93 558.51,168.94 559.26,168.95 560.01,168.96 560.76,168.97 561.51,168.98 562.26,168.99 563.01,169.00 563.77,169.01 564.52,169.37 565.27,169.38 566.02,169.38 566.77,169.39 567.52,169.40 568.27,169.41 569.02,169.42 569.77,169.43 570.52,169.44 571.27,169.45 572.02,169.46 572.77,169.47 573.52,169.47 574.28,169.48 575.03,169.49 575.78,169.50 576.53,169.90 577.28,169.91 578.03,169.92 578.78,169.93 579.53,169.93 580.28,169.94 581.03,169.95 581.78,169.96 582.53,169.97 583.28,169.98 584.04,169.99 584.79,169.99 585.54,170.00 586.29,170.01 587.04,170.02 587.79,170.03 588.54,170.47 589.29,170.48 590.04,170.48 590.79,170.49 591.54,170.50 592.29,170.51 593.04,170.52 593.79,170.52 594.55,170.53 595.30,170.54 596.05,170.55 596.80,170.56 597.55,170.56 598.30,170.57 599.05,170.58 599.80,170.59 600.55,171.07 601.30,171.08 602.05,171.09 602.80,171.10 603.55,171.10 604.30,171.11 605.06,171.12 605.81,171.13 606.56,171.13 607.31,171.14 608.06,171.15 608.81,171.16 609.56,171.16 610.31,171.17 611.06,171.18 611.81,171.18 612.56,171.72 613.31,171.73 614.06,171.73 614.82,171.74 615.57,171.75 616.32,171.75 617.07,171.76 617.82,171.77 618.57,171.78 619.32,171.78 620.07,171.79 620.82,171.80 621.57,171.80 622.32,171.81 623.07,171.82 623.82,171.82 624.57,172.41 625.33,172.42 626.08,172.43 626.83,172.43 627.58,172.44 628.33,172.45 629.08,172.45 629.83,172.46 630.58,172.46 631.33,172.47 632.08,172.48 632.83,172.48 633.58,172.49 634.33,172.50 635.09,172.50 635.84,172.51 636.59,173.16 637.34,173.16 638.09,173.17 638.84,173.18 639.59,173.18 640.34,173.19 641.09,173.19 641.84,173.20 642.59,173.21 643.34,173.21 644.09,173.22 644.84,173.22 645.60,173.23 646.35,173.24 647.10,173.24 647.85,173.25 648.60,173.96 649.35,173.97 650.10,173.97 650.85,173.98 651.60,173.99 652.35,173.99 653.10,174.00 653.85,174.00 654.60,174.01 655.35,174.01 656.11,174.02 656.86,174.02 657.61,174.03 658.36,174.04 659.11,174.04 659.86,174.05 660.61,174.84 661.36,174.84 662.11,174.85 662.86,174.85 663.61,174.86 664.36,174.86 665.11,174.87 665.87,174.87 666.62,174.88 667.37,174.88 668.12,174.89 668.87,174.89 669.62,174.90 670.37,174.90 671.12,174.91 671.87,174.91 672.62,175.79 673.37,175.80 674.12,175.80 674.87,175.81 675.62,175.81 676.38,175.82 677.13,175.82 677.88,175.83 678.63,175.83 679.38,175.84 680.13,175.84 680.88,175.85 681.63,175.85 682.38,175.85 683.13,175.86 683.88,175.86 684.63,176.85 685.38,176.85 686.13,176.86 686.89,176.86 687.64,176.86 688.39,176.87 689.14,176.87 689.89,176.88 690.64,176.88 691.39,176.88 692.14,176.89 692.89,176.89 693.64,176.90 694.39,176.90 695.14,176.90 695.89,176.91 696.65,178.01 697.40,178.02 698.15,178.02 698.90,178.03 699.65,178.03 700.40,178.03 701.15,178.04 701.90,178.04 702.65,178.04 703.40,178.05 704.15,178.05 704.90,178.06 705.65,178.06 706.40,178.06 707.16,178.07 707.91,178.07 708.66,179.32 709.41,179.33 710.16,179.33 710.91,179.33 711.66,179.34 712.41,179.34 713.16,179.34 713.91,179.35 714.66,179.35 715.41,179.35 716.16,179.36 716.91,179.36 717.67,179.36 718.42,179.37 719.17,179.37 719.92,179.37 720.67,180.82 721.42,180.82 722.17,180.82 722.92,180.82 723.67,180.83 724.42,180.83 725.17,180.83 725.92,180.84 726.67,180.84 727.43,180.84 728.18,180.84 728.93,180.85 729.68,180.85 730.43,180.85 731.18,180.85 731.93,180.86 732.68,182.54 733.43,182.54 734.18,182.55 734.93,182.55 735.68,182.55 736.43,182.55 737.18,182.56 737.94,182.56 738.69,182.56 739.44,182.56 740.19,182.56 740.94,182.57 741.69,182.57 742.44,182.57 743.19,182.57 743.94,182.58 744.69,184.59 745.44,184.59 746.19,184.59 746.94,184.59 747.70,184.59 748.45,184.60 749.20,184.60 749.95,184.60 750.70,184.60 751.45,184.60 752.20,184.61 752.95,184.61 753.70,184.61 754.45,184.61 755.20,184.61 755.95,184.61 756.70,187.10 757.45,187.10 758.21,187.10 758.96,187.10 759.71,187.10 760.46,187.10 761.21,187.11 761.96,187.11 762.71,187.11 763.46,187.11 764.21,187.11 764.96,187.11 765.71,187.11 766.46,187.12 767.21,187.12 767.96,187.12 768.72,190.34 769.47,190.34 770.22,190.34 770.97,190.34 771.72,190.34 772.47,190.34 773.22,190.34 773.97,190.34 774.72,190.34 775.47,190.35 776.22,190.35 776.97,190.35 777.72,190.35 778.48,190.35 779.23,190.35 779.98,190.35 780.73,194.91 781.48,194.91 782.23,194.91 782.98,194.91 783.73,194.91 784.48,194.91 785.23,194.91 785.98,194.91 786.73,194.91 787.48,194.91 788.23,194.91 788.99,194.92 789.74,194.92 790.49,194.92 791.24,194.92 791.99,194.92 792.74,202.73 793.49,202.73 794.24,202.73 794.99,202.73 795.74,202.73 796.49,202.73 797.24,202.73 797.99,202.73 798.74,202.73 799.50,202.73 800.25,202.73 801.00,202.73 801.75,202.73 802.50,202.73 803.25,202.73 804.00,244.00" />
  <text x="420.0" y="22" text-anchor="middle" font-family="Arial, Helvetica, sans-serif" font-size="15" fill="#102a43">exact_blackman window (magnitude spectrum)</text>
  <text x="420.0" y="272" text-anchor="middle" font-family="Arial, Helvetica, sans-serif" font-size="12" fill="#334e68">normalized frequency</text>
  <text x="14" y="140.0" transform="rotate(-90 14,140.0)" text-anchor="middle" font-family="Arial, Helvetica, sans-serif" font-size="12" fill="#334e68">magnitude (dB)</text>
  <text x="36" y="262" font-family="Arial, Helvetica, sans-serif" font-size="11" fill="#486581">0</text>
  <text x="804" y="262" text-anchor="end" font-family="Arial, Helvetica, sans-serif" font-size="11" fill="#486581">1</text>
  <text x="30" y="40" text-anchor="end" font-family="Arial, Helvetica, sans-serif" font-size="11" fill="#486581">0.0</text>
  <text x="30" y="248" text-anchor="end" font-family="Arial, Helvetica, sans-serif" font-size="11" fill="#486581">-160.0</text>
</svg>
