<svg xmlns="http://www.w3.org/2000/svg" width="840" height="280" viewBox="0 0 840 280">
  <rect x="0" y="0" width="840" height="280" fill="#ffffff" />
  <rect x="36" y="36" width="768" height="208" fill="#f7fbff" stroke="#c8d9e6" />
  <polyline fill="none" stroke="#005f73" stroke-width="2" points="36.00,242.57 36.75,242.57 37.50,242.57 38.25,242.56 39.00,242.56 39.75,242.55 40.50,242.54 41.26,242.53 42.01,242.52 42.76,242.51 43.51,242.49 44.26,242.48 45.01,242.46 45.76,242.44 46.51,242.42 47.26,242.40 48.01,242.38 48.76,242.35 49.51,242.33 50.26,242.30 51.01,242.27 51.77,242.24 52.52,242.21 53.27,242.17 54.02,242.14 54.77,242.10 55.52,242.06 56.27,242.02 57.02,241.98 57.77,241.94 58.52,241.89 59.27,241.85 60.02,241.80 60.77,241.75 61.52,241.70 62.28,241.65 63.03,241.59 63.78,241.54 64.53,241.48 65.28,241.42 66.03,241.36 66.78,241.30 67.53,241.23 68.28,241.17 69.03,241.10 69.78,241.03 70.53,240.96 71.28,240.89 72.04,240.81 72.79,240.74 73.54,240.66 74.29,240.58 75.04,240.50 75.79,240.42 76.54,240.33 77.29,240.25 78.04,240.16 78.79,240.07 79.54,239.98 80.29,239.88 81.04,239.79 81.79,239.69 82.55,239.59 83.30,239.49 84.05,239.39 84.80,239.28 85.55,239.17 86.30,239.07 87.05,238.95 87.80,238.84 88.55,238.73 89.30,238.61 90.05,238.49 90.80,238.37 91.55,238.25 92.30,238.13 93.06,238.00 93.81,237.87 94.56,237.74 95.31,237.61 96.06,237.47 96.81,237.34 97.56,237.20 98.31,237.06 99.06,236.91 99.81,236.77 100.56,236.62 101.31,236.47 102.06,236.32 102.82,236.16 103.57,236.01 104.32,235.85 105.07,235.69 105.82,235.52 106.57,235.36 107.32,235.19 108.07,235.02 108.82,234.85 109.57,234.68 110.32,234.50 111.07,234.32 111.82,234.14 112.57,233.95 113.33,233.77 114.08,233.58 114.83,233.39 115.58,233.19 116.33,233.00 117.08,232.80 117.83,232.60 118.58,232.39 119.33,232.19 120.08,231.98 120.83,231.77 121.58,231.55 122.33,231.34 123.09,231.12 123.84,230.90 124.59,230.67 125.34,230.45 126.09,230.22 126.84,229.99 127.59,229.75 128.34,229.51 129.09,229.27 129.84,229.03 130.59,228.79 131.34,228.54 132.09,228.29 132.84,228.03 133.60,227.78 134.35,227.52 135.10,227.26 135.85,226.99 136.60,226.72 137.35,226.45 138.10,226.18 138.85,225.90 139.60,225.62 140.35,225.34 141.10,225.06 141.85,224.77 142.60,224.48 143.35,224.19 144.11,223.89 144.86,223.59 145.61,223.29 146.36,222.98 147.11,222.67 147.86,222.36 148.61,222.05 149.36,221.73 150.11,221.41 150.86,221.09 151.61,220.76 152.36,220.43 153.11,220.10 153.87,219.77 154.62,219.43 155.37,219.09 156.12,218.74 156.87,218.39 157.62,218.04 158.37,217.69 159.12,217.33 159.87,216.97 160.62,216.61 161.37,216.24 162.12,215.87 162.87,215.50 163.62,215.12 164.38,214.75 165.13,214.36 165.88,213.98 166.63,213.59 167.38,213.20 168.13,212.80 168.88,212.41 169.63,212.00 170.38,211.60 171.13,211.19 171.88,210.78 172.63,210.37 173.38,209.95 174.13,209.53 174.89,209.11 175.64,208.68 176.39,208.25 177.14,207.82 177.89,207.38 178.64,206.94 179.39,206.50 180.14,206.06 180.89,205.61 181.64,205.15 182.39,204.70 183.14,204.24 183.89,203.78 184.65,203.31 185.40,202.85 186.15,202.37 186.90,201.90 187.65,201.42 188.40,200.94 189.15,200.46 189.90,199.97 190.65,199.48 191.40,198.99 192.15,198.49 192.90,197.99 193.65,197.49 194.40,196.98 195.16,196.47 195.91,195.96 196.66,195.45 197.41,194.93 198.16,194.41 198.91,193.88 199.66,193.36 200.41,192.82 201.16,192.29 201.91,191.75 202.66,191.22 203.41,190.67 204.16,190.13 204.91,189.58 205.67,189.03 206.42,188.47 207.17,187.91 207.92,187.35 208.67,186.79 209.42,186.22 210.17,185.66 210.92,185.08 211.67,184.51 212.42,183.93 213.17,183.35 213.92,182.77 214.67,182.18 215.43,181.59 216.18,181.00 216.93,180.41 217.68,179.81 218.43,179.21 219.18,178.61 219.93,178.00 220.68,177.39 221.43,176.78 222.18,176.17 222.93,175.55 223.68,174.94 224.43,174.32 225.18,173.69 225.94,173.07 226.69,172.44 227.44,171.81 228.19,171.17 228.94,170.54 229.69,169.90 230.44,169.26 231.19,168.62 231.94,167.97 232.69,167.33 233.44,166.68 234.19,166.02 234.94,165.37 235.70,164.71 236.45,164.06 237.20,163.40 237.95,162.73 238.70,162.07 239.45,161.40 240.20,160.73 240.95,160.06 241.70,159.39 242.45,158.72 243.20,158.04 243.95,157.36 244.70,156.68 245.45,156.00 246.21,155.32 246.96,154.63 247.71,153.94 248.46,153.26 249.21,152.57 249.96,151.87 250.71,151.18 251.46,150.49 252.21,149.79 252.96,149.09 253.71,148.39 254.46,147.69 255.21,146.99 255.96,146.29 256.72,145.58 257.47,144.87 258.22,144.17 258.97,143.46 259.72,142.75 260.47,142.04 261.22,141.33 261.97,140.62 262.72,139.90 263.47,139.19 264.22,138.47 264.97,137.76 265.72,137.04 266.48,136.32 267.23,135.60 267.98,134.88 268.73,134.16 269.48,133.44 270.23,132.72 270.98,132.00 271.73,131.28 272.48,130.55 273.23,129.83 273.98,129.11 274.73,128.38 275.48,127.66 276.23,126.93 276.99,126.21 277.74,125.48 278.49,124.76 279.24,124.03 279.99,123.31 280.74,122.58 281.49,121.86 282.24,121.13 282.99,120.41 283.74,119.68 284.49,118.96 285.24,118.24 285.99,117.51 286.74,116.79 287.50,116.07 288.25,115.34 289.00,114.62 289.75,113.90 290.50,113.18 291.25,112.46 292.00,111.74 292.75,111.02 293.50,110.30 294.25,109.58 295.00,108.87 295.75,108.15 296.50,107.44 297.26,106.73 298.01,106.01 298.76,105.30 299.51,104.59 300.26,103.88 301.01,103.17 301.76,102.47 302.51,101.76 303.26,101.06 304.01,100.36 304.76,99.66 305.51,98.96 306.26,98.26 307.01,97.56 307.77,96.87 308.52,96.18 309.27,95.49 310.02,94.80 310.77,94.11 311.52,93.43 312.27,92.74 313.02,92.06 313.77,91.38 314.52,90.70 315.27,90.03 316.02,89.36 316.77,88.69 317.52,88.02 318.28,87.35 319.03,86.69 319.78,86.03 320.53,85.37 321.28,84.71 322.03,84.06 322.78,83.41 323.53,82.76 324.28,82.12 325.03,81.47 325.78,80.83 326.53,80.20 327.28,79.56 328.04,78.93 328.79,78.30 329.54,77.68 330.29,77.05 331.04,76.44 331.79,75.82 332.54,75.21 333.29,74.60 334.04,73.99 334.79,73.39 335.54,72.79 336.29,72.19 337.04,71.60 337.79,71.01 338.55,70.43 339.30,69.85 340.05,69.27 340.80,68.69 341.55,68.12 342.30,67.56 343.05,66.99 343.80,66.44 344.55,65.88 345.30,65.33 346.05,64.78 346.80,64.24 347.55,63.70 348.30,63.17 349.06,62.64 349.81,62.11 350.56,61.59 351.31,61.07 352.06,60.56 352.81,60.05 353.56,59.54 354.31,59.04 355.06,58.54 355.81,58.05 356.56,57.57 357.31,57.08 358.06,56.61 358.82,56.13 359.57,55.67 360.32,55.20 361.07,54.74 361.82,54.29 362.57,53.84 363.32,53.40 364.07,52.96 364.82,52.52 365.57,52.09 366.32,51.67 367.07,51.25 367.82,50.84 368.57,50.43 369.33,50.02 370.08,49.63 370.83,49.23 371.58,48.84 372.33,48.46 373.08,48.08 373.83,47.71 374.58,47.34 375.33,46.98 376.08,46.63 376.83,46.28 377.58,45.93 378.33,45.59 379.09,45.26 379.84,44.93 380.59,44.61 381.34,44.29 382.09,43.98 382.84,43.67 383.59,43.37 384.34,43.08 385.09,42.79 385.84,42.50 386.59,42.23 387.34,41.95 388.09,41.69 388.84,41.43 389.60,41.17 390.35,40.93 391.10,40.68 391.85,40.45 392.60,40.22 393.35,39.99 394.10,39.77 394.85,39.56 395.60,39.36 396.35,39.15 397.10,38.96 397.85,38.77 398.60,38.59 399.35,38.41 400.11,38.24 400.86,38.08 401.61,37.92 402.36,37.77 403.11,37.63 403.86,37.49 404.61,37.35 405.36,37.23 406.11,37.11 406.86,36.99 407.61,36.88 408.36,36.78 409.11,36.68 409.87,36.59 410.62,36.51 411.37,36.43 412.12,36.36 412.87,36.30 413.62,36.24 414.37,36.19 415.12,36.14 415.87,36.10 416.62,36.07 417.37,36.04 418.12,36.02 418.87,36.01 419.62,36.00 420.38,36.00 421.13,36.00 421.88,36.02 422.63,36.03 423.38,36.06 424.13,36.09 424.88,36.12 425.63,36.17 426.38,36.21 427.13,36.27 427.88,36.33 428.63,36.40 429.38,36.47 430.13,36.55 430.89,36.64 431.64,36.73 432.39,36.83 433.14,36.94 433.89,37.05 434.64,37.16 435.39,37.29 436.14,37.42 436.89,37.55 437.64,37.70 438.39,37.85 439.14,38.00 439.89,38.16 440.65,38.33 441.40,38.50 442.15,38.68 442.90,38.87 443.65,39.06 444.40,39.25 445.15,39.46 445.90,39.67 446.65,39.88 447.40,40.10 448.15,40.33 448.90,40.56 449.65,40.80 450.40,41.05 451.16,41.30 451.91,41.56 452.66,41.82 453.41,42.09 454.16,42.36 454.91,42.64 455.66,42.93 456.41,43.22 457.16,43.52 457.91,43.82 458.66,44.13 459.41,44.45 460.16,44.77 460.91,45.09 461.67,45.42 462.42,45.76 463.17,46.10 463.92,46.45 464.67,46.80 465.42,47.16 466.17,47.53 466.92,47.90 467.67,48.27 468.42,48.65 469.17,49.04 469.92,49.43 470.67,49.82 471.43,50.22 472.18,50.63 472.93,51.04 473.68,51.46 474.43,51.88 475.18,52.31 475.93,52.74 476.68,53.18 477.43,53.62 478.18,54.06 478.93,54.52 479.68,54.97 480.43,55.43 481.18,55.90 481.94,56.37 482.69,56.85 483.44,57.32 484.19,57.81 484.94,58.30 485.69,58.79 486.44,59.29 487.19,59.79 487.94,60.30 488.69,60.81 489.44,61.33 490.19,61.85 490.94,62.37 491.70,62.90 492.45,63.43 493.20,63.97 493.95,64.51 494.70,65.06 495.45,65.60 496.20,66.16 496.95,66.71 497.70,67.28 498.45,67.84 499.20,68.41 499.95,68.98 500.70,69.56 501.45,70.14 502.21,70.72 502.96,71.31 503.71,71.90 504.46,72.49 505.21,73.09 505.96,73.69 506.71,74.29 507.46,74.90 508.21,75.51 508.96,76.13 509.71,76.74 510.46,77.37 511.21,77.99 511.96,78.62 512.72,79.25 513.47,79.88 514.22,80.51 514.97,81.15 515.72,81.79 516.47,82.44 517.22,83.08 517.97,83.73 518.72,84.39 519.47,85.04 520.22,85.70 520.97,86.36 521.72,87.02 522.48,87.68 523.23,88.35 523.98,89.02 524.73,89.69 525.48,90.37 526.23,91.04 526.98,91.72 527.73,92.40 528.48,93.08 529.23,93.77 529.98,94.45 530.73,95.14 531.48,95.83 532.23,96.52 532.99,97.22 533.74,97.91 534.49,98.61 535.24,99.31 535.99,100.01 536.74,100.71 537.49,101.41 538.24,102.12 538.99,102.82 539.74,103.53 540.49,104.24 541.24,104.95 541.99,105.66 542.74,106.37 543.50,107.08 544.25,107.80 545.00,108.51 545.75,109.23 546.50,109.94 547.25,110.66 548.00,111.38 548.75,112.10 549.50,112.82 550.25,113.54 551.00,114.26 551.75,114.98 552.50,115.70 553.26,116.43 554.01,117.15 554.76,117.87 555.51,118.60 556.26,119.32 557.01,120.05 557.76,120.77 558.51,121.50 559.26,122.22 560.01,122.95 560.76,123.67 561.51,124.40 562.26,125.12 563.01,125.85 563.77,126.57 564.52,127.30 565.27,128.02 566.02,128.74 566.77,129.47 567.52,130.19 568.27,130.91 569.02,131.64 569.77,132.36 570.52,133.08 571.27,133.80 572.02,134.52 572.77,135.24 573.52,135.96 574.28,136.68 575.03,137.40 575.78,138.11 576.53,138.83 577.28,139.54 578.03,140.26 578.78,140.97 579.53,141.68 580.28,142.39 581.03,143.10 581.78,143.81 582.53,144.52 583.28,145.23 584.04,145.93 584.79,146.64 585.54,147.34 586.29,148.04 587.04,148.74 587.79,149.44 588.54,150.14 589.29,150.83 590.04,151.53 590.79,152.22 591.54,152.91 592.29,153.60 593.04,154.29 593.79,154.97 594.55,155.66 595.30,156.34 596.05,157.02 596.80,157.70 597.55,158.38 598.30,159.05 599.05,159.73 599.80,160.40 600.55,161.07 601.30,161.74 602.05,162.40 602.80,163.07 603.55,163.73 604.30,164.39 605.06,165.04 605.81,165.70 606.56,166.35 607.31,167.00 608.06,167.65 608.81,168.30 609.56,168.94 610.31,169.58 611.06,170.22 611.81,170.86 612.56,171.49 613.31,172.12 614.06,172.75 614.82,173.38 615.57,174.00 616.32,174.63 617.07,175.25 617.82,175.86 618.57,176.48 619.32,177.09 620.07,177.70 620.82,178.30 621.57,178.91 622.32,179.51 623.07,180.11 623.82,180.70 624.57,181.30 625.33,181.89 626.08,182.47 626.83,183.06 627.58,183.64 628.33,184.22 629.08,184.80 629.83,185.37 630.58,185.94 631.33,186.51 632.08,187.07 632.83,187.63 633.58,188.19 634.33,188.75 635.09,189.30 635.84,189.85 636.59,190.40 637.34,190.94 638.09,191.49 638.84,192.02 639.59,192.56 640.34,193.09 641.09,193.62 641.84,194.15 642.59,194.67 643.34,195.19 644.09,195.70 644.84,196.22 645.60,196.73 646.35,197.24 647.10,197.74 647.85,198.24 648.60,198.74 649.35,199.23 650.10,199.73 650.85,200.22 651.60,200.70 652.35,201.18 653.10,201.66 653.85,202.14 654.60,202.61 655.35,203.08 656.11,203.55 656.86,204.01 657.61,204.47 658.36,204.93 659.11,205.38 659.86,205.83 660.61,206.28 661.36,206.72 662.11,207.16 662.86,207.60 663.61,208.04 664.36,208.47 665.11,208.90 665.87,209.32 666.62,209.74 667.37,210.16 668.12,210.58 668.87,210.99 669.62,211.40 670.37,211.80 671.12,212.21 671.87,212.61 672.62,213.00 673.37,213.39 674.12,213.78 674.87,214.17 675.62,214.55 676.38,214.94 677.13,215.31 677.88,215.69 678.63,216.06 679.38,216.43 680.13,216.79 680.88,217.15 681.63,217.51 682.38,217.87 683.13,218.22 683.88,218.57 684.63,218.91 685.38,219.26 686.13,219.60 686.89,219.93 687.64,220.27 688.39,220.60 689.14,220.93 689.89,221.25 690.64,221.57 691.39,221.89 692.14,222.21 692.89,222.52 693.64,222.83 694.39,223.14 695.14,223.44 695.89,223.74 696.65,224.04 697.40,224.33 698.15,224.63 698.90,224.91 699.65,225.20 700.40,225.48 701.15,225.76 701.90,226.04 702.65,226.32 703.40,226.59 704.15,226.86 704.90,227.12 705.65,227.39 706.40,227.65 707.16,227.91 707.91,228.16 708.66,228.41 709.41,228.66 710.16,228.91 710.91,229.15 711.66,229.39 712.41,229.63 713.16,229.87 713.91,230.10 714.66,230.33 715.41,230.56 716.16,230.79 716.91,231.01 717.67,231.23 718.42,231.45 719.17,231.66 719.92,231.87 720.67,232.08 721.42,232.29 722.17,232.50 722.92,232.70 723.67,232.90 724.42,233.10 725.17,233.29 725.92,233.48 726.67,233.67 727.43,233.86 728.18,234.05 728.93,234.23 729.68,234.41 730.43,234.59 731.18,234.76 731.93,234.94 732.68,235.11 733.43,235.28 734.18,235.44 734.93,235.61 735.68,235.77 736.43,235.93 737.18,236.09 737.94,236.24 738.69,236.39 739.44,236.54 740.19,236.69 740.94,236.84 741.69,236.98 742.44,237.13 743.19,237.27 743.94,237.40 744.69,237.54 745.44,237.67 746.19,237.81 746.94,237.93 747.70,238.06 748.45,238.19 749.20,238.31 749.95,238.43 750.70,238.55 751.45,238.67 752.20,238.79 752.95,238.90 753.70,239.01 754.45,239.12 755.20,239.23 755.95,239.33 756.70,239.44 757.45,239.54 758.21,239.64 758.96,239.74 759.71,239.83 760.46,239.93 761.21,240.02 761.96,240.11 762.71,240.20 763.46,240.29 764.21,240.37 764.96,240.46 765.71,240.54 766.46,240.62 767.21,240.70 767.96,240.78 768.72,240.85 769.47,240.92 770.22,241.00 770.97,241.07 771.72,241.13 772.47,241.20 773.22,241.27 773.97,241.33 774.72,241.39 775.47,241.45 776.22,241.51 776.97,241.57 777.72,241.62 778.48,241.67 779.23,241.73 779.98,241.78 780.73,241.82 781.48,241.87 782.23,241.92 782.98,241.96 783.73,242.00 784.48,242.04 785.23,242.08 785.98,242.12 786.73,242.16 787.48,242.19 788.23,242.22 788.99,242.26 789.74,242.29 790.49,242.31 791.24,242.34 791.99,242.37 792.74,242.39 793.49,242.41 794.24,242.43 794.99,242.45 795.74,242.47 796.49,242.49 797.24,242.50 797.99,242.52 798.74,242.53 799.50,242.54 800.25,242.55 801.00,242.55 801.75,242.56 802.50,242.56 803.25,242.57 804.00,242.57" />
  <text x="420.0" y="22" text-anchor="middle" font-family="Arial, Helvetica, sans-serif" font-size="15" fill="#102a43">exact_blackman window (time domain)</text>
  <text x="420.0" y="272" text-anchor="middle" font-family="Arial, Helvetica, sans-serif" font-size="12" fill="#334e68">normalized sample index</text>
  <text x="14" y="140.0" transform="rotate(-90 14,140.0)" text-anchor="middle" font-family="Arial, Helvetica, sans-serif" font-size="12" fill="#334e68">amplitude</text>
  <text x="36" y="262" font-family="Arial, Helvetica, sans-serif" font-size="11" fill="#486581">0</text>
  <text x="804" y="262" text-anchor="end" font-family="Arial, Helvetica, sans-serif" font-size="11" fill="#486581">1</text>
  <text x="30" y="40" text-anchor="end" font-family="Arial, Helvetica, sans-serif" font-size="11" fill="#486581">1.0</text>
  <text x="30" y="248" text-anchor="end" font-family="Arial, Helvetica, sans-serif" font-size="11" fill="#486581">0.0</text>
</svg>
