<svg xmlns="http://www.w3.org/2000/svg" width="840" height="280" viewBox="0 0 840 280">
  <rect x="0" y="0" width="840" height="280" fill="#ffffff" />
  <rect x="36" y="36" width="768" height="208" fill="#f7fbff" stroke="#c8d9e6" />
  <polyline fill="none" stroke="#005f73" stroke-width="2" points="36.00,36.00 36.75,46.96 37.50,62.93 38.25,68.42 39.00,77.78 39.75,79.64 40.50,86.78 41.26,87.15 42.01,93.22 42.76,92.79 43.51,98.23 44.26,97.31 45.01,102.34 45.76,101.07 46.51,105.81 47.26,104.29 48.01,106.85 48.76,109.06 49.51,109.28 50.26,111.81 51.01,111.43 51.77,114.32 52.52,113.36 53.27,116.63 54.02,115.11 54.77,118.78 55.52,116.71 56.27,120.79 57.02,118.17 57.77,122.68 58.52,119.53 59.27,124.47 60.02,118.03 60.77,132.64 61.52,119.09 62.28,135.07 63.03,120.08 63.78,137.56 64.53,121.02 65.28,140.12 66.03,121.89 66.78,142.82 67.53,122.72 68.28,145.73 69.03,123.50 69.78,148.94 70.53,124.25 71.28,152.63 72.04,122.28 72.79,142.91 73.54,122.91 74.29,142.16 75.04,123.51 75.79,141.58 76.54,124.08 77.29,141.14 78.04,124.63 78.79,140.79 79.54,125.15 80.29,140.53 81.04,125.66 81.79,140.32 82.55,126.14 83.30,140.17 84.05,124.27 84.80,133.76 85.55,124.70 86.30,133.86 87.05,125.12 87.80,133.97 88.55,125.52 89.30,134.08 90.05,125.91 90.80,134.20 91.55,126.29 92.30,134.33 93.06,126.65 93.81,134.45 94.56,127.01 95.31,134.59 96.06,125.34 96.81,131.17 97.56,125.67 98.31,131.34 99.06,125.98 99.81,131.51 100.56,126.29 101.31,131.68 102.06,126.59 102.82,131.85 103.57,126.88 104.32,132.02 105.07,127.17 105.82,132.19 106.57,127.45 107.32,132.35 108.07,125.99 108.82,129.98 109.57,126.25 110.32,130.16 111.07,126.50 111.82,130.33 112.57,126.75 113.33,130.50 114.08,126.99 114.83,130.67 115.58,127.23 116.33,130.84 117.08,127.47 117.83,131.00 118.58,127.70 119.33,131.16 120.08,126.41 120.83,129.34 121.58,126.63 122.33,129.51 123.09,126.84 123.84,129.67 124.59,127.05 125.34,129.83 126.09,127.26 126.84,129.99 127.59,127.46 128.34,130.14 129.09,127.66 129.84,130.29 130.59,127.85 131.34,130.45 132.09,126.72 132.84,128.97 133.60,126.91 134.35,129.12 135.10,127.09 135.85,129.27 136.60,127.27 137.35,129.41 138.10,127.45 138.85,129.56 139.60,127.62 140.35,129.70 141.10,127.79 141.85,129.84 142.60,127.96 143.35,129.98 144.11,126.96 144.86,128.74 145.61,127.12 146.36,128.88 147.11,127.28 147.86,129.02 148.61,127.44 149.36,129.15 150.11,127.59 150.86,129.28 151.61,127.75 152.36,129.41 153.11,127.90 153.87,129.54 154.62,128.05 155.37,129.67 156.12,127.15 156.87,128.61 157.62,127.30 158.37,128.73 159.12,127.44 159.87,128.86 160.62,127.58 161.37,128.98 162.12,127.72 162.87,129.10 163.62,127.86 164.38,129.22 165.13,127.99 165.88,129.34 166.63,128.13 167.38,129.46 168.13,127.32 168.88,128.53 169.63,127.45 170.38,128.65 171.13,127.58 171.88,128.76 172.63,127.71 173.38,128.88 174.13,127.83 174.89,128.99 175.64,127.96 176.39,129.10 177.14,128.08 177.89,129.21 178.64,128.20 179.39,129.32 180.14,127.48 180.89,128.50 181.64,127.59 182.39,128.61 183.14,127.71 183.89,128.71 184.65,127.83 185.40,128.82 186.15,127.94 186.90,128.92 187.65,128.05 188.40,129.03 189.15,128.16 189.90,129.13 190.65,128.28 191.40,129.23 192.15,127.62 192.90,128.50 193.65,127.73 194.40,128.60 195.16,127.84 195.91,128.70 196.66,127.94 197.41,128.80 198.16,128.05 198.91,128.89 199.66,128.15 200.41,128.99 201.16,128.25 201.91,129.08 202.66,128.35 203.41,129.18 204.16,127.76 204.91,128.53 205.67,127.86 206.42,128.62 207.17,127.96 207.92,128.71 208.67,128.06 209.42,128.80 210.17,128.15 210.92,128.89 211.67,128.25 212.42,128.98 213.17,128.34 213.92,129.07 214.67,128.44 215.43,129.16 216.18,127.90 216.93,128.58 217.68,128.00 218.43,128.66 219.18,128.09 219.93,128.75 220.68,128.18 221.43,128.83 222.18,128.27 222.93,128.92 223.68,128.35 224.43,129.00 225.18,128.44 225.94,129.08 226.69,128.53 227.44,129.16 228.19,128.05 228.94,128.64 229.69,128.13 230.44,128.72 231.19,128.22 231.94,128.80 232.69,128.30 233.44,128.88 234.19,128.38 234.94,128.96 235.70,128.46 236.45,129.04 237.20,128.55 237.95,129.11 238.70,128.63 239.45,129.19 240.20,128.19 240.95,128.72 241.70,128.27 242.45,128.80 243.20,128.35 243.95,128.87 244.70,128.43 245.45,128.95 246.21,128.50 246.96,129.02 247.71,128.58 248.46,129.09 249.21,128.66 249.96,129.17 250.71,128.73 251.46,129.24 252.21,128.34 252.96,128.82 253.71,128.41 254.46,128.89 255.21,128.49 255.96,128.96 256.72,128.56 257.47,129.03 258.22,128.63 258.97,129.10 259.72,128.70 260.47,129.17 261.22,128.78 261.97,129.24 262.72,128.85 263.47,129.30 264.22,128.49 264.97,128.93 265.72,128.56 266.48,128.99 267.23,128.63 267.98,129.06 268.73,128.70 269.48,129.13 270.23,128.77 270.98,129.19 271.73,128.84 272.48,129.26 273.23,128.90 273.98,129.32 274.73,128.97 275.48,129.38 276.23,128.65 276.99,129.05 277.74,128.72 278.49,129.11 279.24,128.78 279.99,129.17 280.74,128.85 281.49,129.24 282.24,128.91 282.99,129.30 283.74,128.97 284.49,129.36 285.24,129.04 285.99,129.42 286.74,129.10 287.50,129.48 288.25,128.82 289.00,129.18 289.75,128.88 290.50,129.24 291.25,128.94 292.00,129.30 292.75,129.00 293.50,129.36 294.25,129.06 295.00,129.42 295.75,129.12 296.50,129.47 297.26,129.18 298.01,129.53 298.76,129.24 299.51,129.59 300.26,128.99 301.01,129.33 301.76,129.05 302.51,129.38 303.26,129.11 304.01,129.44 304.76,129.16 305.51,129.49 306.26,129.22 307.01,129.55 307.77,129.28 308.52,129.60 309.27,129.33 310.02,129.66 310.77,129.39 311.52,129.71 312.27,129.17 313.02,129.48 313.77,129.23 314.52,129.53 315.27,129.28 316.02,129.59 316.77,129.33 317.52,129.64 318.28,129.39 319.03,129.69 319.78,129.44 320.53,129.74 321.28,129.50 322.03,129.80 322.78,129.55 323.53,129.85 324.28,129.36 325.03,129.65 325.78,129.41 326.53,129.70 327.28,129.46 328.04,129.75 328.79,129.52 329.54,129.80 330.29,129.57 331.04,129.85 331.79,129.62 332.54,129.90 333.29,129.67 334.04,129.95 334.79,129.72 335.54,130.00 336.29,129.56 337.04,129.83 337.79,129.61 338.55,129.87 339.30,129.66 340.05,129.92 340.80,129.70 341.55,129.97 342.30,129.75 343.05,130.02 343.80,129.80 344.55,130.06 345.30,129.85 346.05,130.11 346.80,129.90 347.55,130.16 348.30,129.76 349.06,130.02 349.81,129.81 350.56,130.06 351.31,129.86 352.06,130.11 352.81,129.90 353.56,130.15 354.31,129.95 355.06,130.20 355.81,130.00 356.56,130.24 357.31,130.04 358.06,130.29 358.82,130.09 359.57,130.33 360.32,129.98 361.07,130.22 361.82,130.03 362.57,130.26 363.32,130.07 364.07,130.30 364.82,130.11 365.57,130.35 366.32,130.16 367.07,130.39 367.82,130.20 368.57,130.43 369.33,130.25 370.08,130.47 370.83,130.29 371.58,130.52 372.33,130.21 373.08,130.43 373.83,130.25 374.58,130.47 375.33,130.29 376.08,130.51 376.83,130.34 377.58,130.55 378.33,130.38 379.09,130.59 379.84,130.42 380.59,130.63 381.34,130.46 382.09,130.67 382.84,130.50 383.59,130.71 384.34,130.45 385.09,130.66 385.84,130.49 386.59,130.70 387.34,130.53 388.09,130.73 388.84,130.57 389.60,130.77 390.35,130.61 391.10,130.81 391.85,130.65 392.60,130.85 393.35,130.69 394.10,130.89 394.85,130.72 395.60,130.93 396.35,130.70 397.10,130.89 397.85,130.73 398.60,130.93 399.35,130.77 400.11,130.97 400.86,130.81 401.61,131.01 402.36,130.85 403.11,131.04 403.86,130.89 404.61,131.08 405.36,130.92 406.11,131.12 406.86,130.96 407.61,131.15 408.36,130.96 409.11,131.15 409.87,130.99 410.62,131.18 411.37,131.03 412.12,131.22 412.87,131.07 413.62,131.25 414.37,131.10 415.12,131.29 415.87,131.14 416.62,131.32 417.37,131.17 418.12,131.36 418.87,131.21 419.62,131.39 420.38,131.23 421.13,131.41 421.88,131.27 422.63,131.44 423.38,131.30 424.13,131.48 424.88,131.33 425.63,131.51 426.38,131.37 427.13,131.54 427.88,131.40 428.63,131.58 429.38,131.44 430.13,131.61 430.89,131.47 431.64,131.64 432.39,131.52 433.14,131.69 433.89,131.55 434.64,131.72 435.39,131.58 436.14,131.75 436.89,131.62 437.64,131.79 438.39,131.65 439.14,131.82 439.89,131.68 440.65,131.85 441.40,131.71 442.15,131.88 442.90,131.75 443.65,131.91 444.40,131.82 445.15,131.98 445.90,131.85 446.65,132.01 447.40,131.88 448.15,132.04 448.90,131.91 449.65,132.07 450.40,131.94 451.16,132.10 451.91,131.98 452.66,132.13 453.41,132.01 454.16,132.16 454.91,132.04 455.66,132.19 456.41,132.13 457.16,132.29 457.91,132.17 458.66,132.32 459.41,132.20 460.16,132.35 460.91,132.22 461.67,132.38 462.42,132.25 463.17,132.41 463.92,132.28 464.67,132.44 465.42,132.31 466.17,132.46 466.92,132.34 467.67,132.49 468.42,132.47 469.17,132.62 469.92,132.50 470.67,132.64 471.43,132.52 472.18,132.67 472.93,132.55 473.68,132.70 474.43,132.58 475.18,132.73 475.93,132.61 476.68,132.75 477.43,132.64 478.18,132.78 478.93,132.66 479.68,132.81 480.43,132.81 481.18,132.96 481.94,132.84 482.69,132.99 483.44,132.87 484.19,133.01 484.94,132.90 485.69,133.04 486.44,132.92 487.19,133.06 487.94,132.95 488.69,133.09 489.44,132.98 490.19,133.12 490.94,133.00 491.70,133.14 492.45,133.18 493.20,133.32 493.95,133.21 494.70,133.35 495.45,133.23 496.20,133.37 496.95,133.26 497.70,133.39 498.45,133.28 499.20,133.42 499.95,133.31 500.70,133.44 501.45,133.33 502.21,133.47 502.96,133.36 503.71,133.49 504.46,133.57 505.21,133.70 505.96,133.59 506.71,133.72 507.46,133.62 508.21,133.75 508.96,133.64 509.71,133.77 510.46,133.66 511.21,133.79 511.96,133.69 512.72,133.82 513.47,133.71 514.22,133.84 514.97,133.74 515.72,133.86 516.47,133.97 517.22,134.10 517.97,134.00 518.72,134.12 519.47,134.02 520.22,134.15 520.97,134.04 521.72,134.17 522.48,134.06 523.23,134.19 523.98,134.09 524.73,134.21 525.48,134.11 526.23,134.23 526.98,134.13 527.73,134.26 528.48,134.40 529.23,134.52 529.98,134.42 530.73,134.55 531.48,134.44 532.23,134.57 532.99,134.47 533.74,134.59 534.49,134.49 535.24,134.61 535.99,134.51 536.74,134.63 537.49,134.53 538.24,134.65 538.99,134.55 539.74,134.67 540.49,134.85 541.24,134.97 541.99,134.87 542.74,134.99 543.50,134.89 544.25,135.01 545.00,134.91 545.75,135.03 546.50,134.93 547.25,135.05 548.00,134.95 548.75,135.07 549.50,134.97 550.25,135.09 551.00,134.99 551.75,135.11 552.50,135.33 553.26,135.44 554.01,135.35 554.76,135.46 555.51,135.37 556.26,135.48 557.01,135.39 557.76,135.50 558.51,135.41 559.26,135.52 560.01,135.43 560.76,135.54 561.51,135.44 562.26,135.56 563.01,135.46 563.77,135.57 564.52,135.83 565.27,135.95 566.02,135.85 566.77,135.96 567.52,135.87 568.27,135.98 569.02,135.89 569.77,136.00 570.52,135.91 571.27,136.02 572.02,135.92 572.77,136.03 573.52,135.94 574.28,136.05 575.03,135.96 575.78,136.07 576.53,136.37 577.28,136.48 578.03,136.38 578.78,136.49 579.53,136.40 580.28,136.51 581.03,136.42 581.78,136.53 582.53,136.44 583.28,136.54 584.04,136.45 584.79,136.56 585.54,136.47 586.29,136.58 587.04,136.49 587.79,136.59 588.54,136.94 589.29,137.04 590.04,136.95 590.79,137.06 591.54,136.97 592.29,137.07 593.04,136.99 593.79,137.09 594.55,137.00 595.30,137.11 596.05,137.02 596.80,137.12 597.55,137.03 598.30,137.14 599.05,137.05 599.80,137.15 600.55,137.54 601.30,137.65 602.05,137.56 602.80,137.66 603.55,137.57 604.30,137.68 605.06,137.59 605.81,137.69 606.56,137.60 607.31,137.70 608.06,137.62 608.81,137.72 609.56,137.63 610.31,137.73 611.06,137.65 611.81,137.75 612.56,138.19 613.31,138.29 614.06,138.20 614.82,138.31 615.57,138.22 616.32,138.32 617.07,138.23 617.82,138.33 618.57,138.25 619.32,138.35 620.07,138.26 620.82,138.36 621.57,138.28 622.32,138.37 623.07,138.29 623.82,138.39 624.57,138.88 625.33,138.98 626.08,138.90 626.83,139.00 627.58,138.91 628.33,139.01 629.08,138.92 629.83,139.02 630.58,138.94 631.33,139.03 632.08,138.95 632.83,139.05 633.58,138.96 634.33,139.06 635.09,138.98 635.84,139.07 636.59,139.63 637.34,139.73 638.09,139.64 638.84,139.74 639.59,139.65 640.34,139.75 641.09,139.67 641.84,139.76 642.59,139.68 643.34,139.77 644.09,139.69 644.84,139.78 645.60,139.70 646.35,139.80 647.10,139.72 647.85,139.81 648.60,140.44 649.35,140.53 650.10,140.45 650.85,140.54 651.60,140.46 652.35,140.55 653.10,140.47 653.85,140.56 654.60,140.48 655.35,140.57 656.11,140.49 656.86,140.58 657.61,140.50 658.36,140.59 659.11,140.52 659.86,140.60 660.61,141.31 661.36,141.40 662.11,141.32 662.86,141.41 663.61,141.33 664.36,141.42 665.11,141.34 665.87,141.43 666.62,141.35 667.37,141.44 668.12,141.36 668.87,141.45 669.62,141.38 670.37,141.46 671.12,141.39 671.87,141.47 672.62,142.27 673.37,142.36 674.12,142.28 674.87,142.37 675.62,142.29 676.38,142.38 677.13,142.30 677.88,142.39 678.63,142.31 679.38,142.39 680.13,142.32 680.88,142.40 681.63,142.33 682.38,142.41 683.13,142.34 683.88,142.42 684.63,143.32 685.38,143.41 686.13,143.33 686.89,143.42 687.64,143.34 688.39,143.43 689.14,143.35 689.89,143.43 690.64,143.36 691.39,143.44 692.14,143.37 692.89,143.45 693.64,143.37 694.39,143.46 695.14,143.38 695.89,143.46 696.65,144.49 697.40,144.58 698.15,144.50 698.90,144.58 699.65,144.51 700.40,144.59 701.15,144.51 701.90,144.60 702.65,144.52 703.40,144.60 704.15,144.53 704.90,144.61 705.65,144.54 706.40,144.62 707.16,144.54 707.91,144.62 708.66,145.80 709.41,145.89 710.16,145.81 710.91,145.89 711.66,145.81 712.41,145.90 713.16,145.82 713.91,145.90 714.66,145.83 715.41,145.91 716.16,145.84 716.91,145.92 717.67,145.84 718.42,145.92 719.17,145.85 719.92,145.93 720.67,147.29 721.42,147.38 722.17,147.30 722.92,147.38 723.67,147.30 724.42,147.39 725.17,147.31 725.92,147.39 726.67,147.32 727.43,147.40 728.18,147.32 728.93,147.40 729.68,147.33 730.43,147.41 731.18,147.34 731.93,147.41 732.68,149.02 733.43,149.10 734.18,149.02 734.93,149.10 735.68,149.03 736.43,149.11 737.18,149.03 737.94,149.11 738.69,149.04 739.44,149.12 740.19,149.04 740.94,149.12 741.69,149.05 742.44,149.12 743.19,149.06 743.94,149.13 744.69,151.06 745.44,151.15 746.19,151.07 746.94,151.15 747.70,151.07 748.45,151.15 749.20,151.08 749.95,151.15 750.70,151.08 751.45,151.16 752.20,151.09 752.95,151.16 753.70,151.09 754.45,151.16 755.20,151.10 755.95,151.17 756.70,153.57 757.45,153.65 758.21,153.58 758.96,153.66 759.71,153.58 760.46,153.66 761.21,153.59 761.96,153.66 762.71,153.59 763.46,153.66 764.21,153.59 764.96,153.66 765.71,153.60 766.46,153.66 767.21,153.60 767.96,153.67 768.72,156.81 769.47,156.89 770.22,156.82 770.97,156.89 771.72,156.82 772.47,156.89 773.22,156.82 773.97,156.90 774.72,156.83 775.47,156.90 776.22,156.83 776.97,156.90 777.72,156.84 778.48,156.90 779.23,156.84 779.98,156.90 780.73,161.38 781.48,161.46 782.23,161.39 782.98,161.46 783.73,161.39 784.48,161.46 785.23,161.40 785.98,161.46 786.73,161.40 787.48,161.46 788.23,161.41 788.99,161.46 789.74,161.41 790.49,161.46 791.24,161.41 791.99,161.46 792.74,169.21 793.49,169.28 794.24,169.22 794.99,169.28 795.74,169.22 796.49,169.28 797.24,169.23 797.99,169.27 798.74,169.23 799.50,169.27 800.25,169.24 801.00,169.26 801.75,169.25 802.50,169.26 803.25,169.25 804.00,244.00" />
  <text x="420.0" y="22" text-anchor="middle" font-family="Arial, Helvetica, sans-serif" font-size="15" fill="#102a43">exponential_0p5 window (magnitude spectrum)</text>
  <text x="420.0" y="272" text-anchor="middle" font-family="Arial, Helvetica, sans-serif" font-size="12" fill="#334e68">normalized frequency</text>
  <text x="14" y="140.0" transform="rotate(-90 14,140.0)" text-anchor="middle" font-family="Arial, Helvetica, sans-serif" font-size="12" fill="#334e68">magnitude (dB)</text>
  <text x="36" y="262" font-family="Arial, Helvetica, sans-serif" font-size="11" fill="#486581">0</text>
  <text x="804" y="262" text-anchor="end" font-family="Arial, Helvetica, sans-serif" font-size="11" fill="#486581">1</text>
  <text x="30" y="40" text-anchor="end" font-family="Arial, Helvetica, sans-serif" font-size="11" fill="#486581">0.0</text>
  <text x="30" y="248" text-anchor="end" font-family="Arial, Helvetica, sans-serif" font-size="11" fill="#486581">-160.0</text>
</svg>
