<svg xmlns="http://www.w3.org/2000/svg" width="840" height="280" viewBox="0 0 840 280">
  <rect x="0" y="0" width="840" height="280" fill="#ffffff" />
  <rect x="36" y="36" width="768" height="208" fill="#f7fbff" stroke="#c8d9e6" />
  <polyline fill="none" stroke="#005f73" stroke-width="2" points="36.00,215.85 36.75,215.74 37.50,215.63 38.25,215.52 39.00,215.41 39.75,215.29 40.50,215.18 41.26,215.07 42.01,214.96 42.76,214.84 43.51,214.73 44.26,214.61 45.01,214.50 45.76,214.38 46.51,214.27 47.26,214.15 48.01,214.03 48.76,213.92 49.51,213.80 50.26,213.68 51.01,213.56 51.77,213.44 52.52,213.32 53.27,213.20 54.02,213.08 54.77,212.96 55.52,212.84 56.27,212.72 57.02,212.60 57.77,212.47 58.52,212.35 59.27,212.22 60.02,212.10 60.77,211.98 61.52,211.85 62.28,211.72 63.03,211.60 63.78,211.47 64.53,211.34 65.28,211.22 66.03,211.09 66.78,210.96 67.53,210.83 68.28,210.70 69.03,210.57 69.78,210.44 70.53,210.31 71.28,210.17 72.04,210.04 72.79,209.91 73.54,209.78 74.29,209.64 75.04,209.51 75.79,209.37 76.54,209.24 77.29,209.10 78.04,208.96 78.79,208.83 79.54,208.69 80.29,208.55 81.04,208.41 81.79,208.27 82.55,208.13 83.30,207.99 84.05,207.85 84.80,207.71 85.55,207.57 86.30,207.42 87.05,207.28 87.80,207.14 88.55,206.99 89.30,206.85 90.05,206.70 90.80,206.56 91.55,206.41 92.30,206.26 93.06,206.11 93.81,205.97 94.56,205.82 95.31,205.67 96.06,205.52 96.81,205.37 97.56,205.22 98.31,205.06 99.06,204.91 99.81,204.76 100.56,204.60 101.31,204.45 102.06,204.30 102.82,204.14 103.57,203.98 104.32,203.83 105.07,203.67 105.82,203.51 106.57,203.35 107.32,203.19 108.07,203.03 108.82,202.87 109.57,202.71 110.32,202.55 111.07,202.39 111.82,202.23 112.57,202.06 113.33,201.90 114.08,201.73 114.83,201.57 115.58,201.40 116.33,201.24 117.08,201.07 117.83,200.90 118.58,200.73 119.33,200.56 120.08,200.39 120.83,200.22 121.58,200.05 122.33,199.88 123.09,199.70 123.84,199.53 124.59,199.36 125.34,199.18 126.09,199.01 126.84,198.83 127.59,198.65 128.34,198.48 129.09,198.30 129.84,198.12 130.59,197.94 131.34,197.76 132.09,197.58 132.84,197.40 133.60,197.21 134.35,197.03 135.10,196.85 135.85,196.66 136.60,196.48 137.35,196.29 138.10,196.10 138.85,195.92 139.60,195.73 140.35,195.54 141.10,195.35 141.85,195.16 142.60,194.97 143.35,194.77 144.11,194.58 144.86,194.39 145.61,194.19 146.36,194.00 147.11,193.80 147.86,193.61 148.61,193.41 149.36,193.21 150.11,193.01 150.86,192.81 151.61,192.61 152.36,192.41 153.11,192.21 153.87,192.01 154.62,191.80 155.37,191.60 156.12,191.39 156.87,191.19 157.62,190.98 158.37,190.77 159.12,190.56 159.87,190.36 160.62,190.15 161.37,189.93 162.12,189.72 162.87,189.51 163.62,189.30 164.38,189.08 165.13,188.87 165.88,188.65 166.63,188.43 167.38,188.22 168.13,188.00 168.88,187.78 169.63,187.56 170.38,187.34 171.13,187.12 171.88,186.89 172.63,186.67 173.38,186.45 174.13,186.22 174.89,185.99 175.64,185.77 176.39,185.54 177.14,185.31 177.89,185.08 178.64,184.85 179.39,184.62 180.14,184.39 180.89,184.15 181.64,183.92 182.39,183.68 183.14,183.45 183.89,183.21 184.65,182.97 185.40,182.73 186.15,182.49 186.90,182.25 187.65,182.01 188.40,181.77 189.15,181.52 189.90,181.28 190.65,181.03 191.40,180.79 192.15,180.54 192.90,180.29 193.65,180.04 194.40,179.79 195.16,179.54 195.91,179.29 196.66,179.03 197.41,178.78 198.16,178.52 198.91,178.27 199.66,178.01 200.41,177.75 201.16,177.49 201.91,177.23 202.66,176.97 203.41,176.71 204.16,176.44 204.91,176.18 205.67,175.91 206.42,175.65 207.17,175.38 207.92,175.11 208.67,174.84 209.42,174.57 210.17,174.30 210.92,174.02 211.67,173.75 212.42,173.48 213.17,173.20 213.92,172.92 214.67,172.64 215.43,172.36 216.18,172.08 216.93,171.80 217.68,171.52 218.43,171.24 219.18,170.95 219.93,170.67 220.68,170.38 221.43,170.09 222.18,169.80 222.93,169.51 223.68,169.22 224.43,168.93 225.18,168.63 225.94,168.34 226.69,168.04 227.44,167.74 228.19,167.44 228.94,167.14 229.69,166.84 230.44,166.54 231.19,166.24 231.94,165.93 232.69,165.63 233.44,165.32 234.19,165.01 234.94,164.70 235.70,164.39 236.45,164.08 237.20,163.77 237.95,163.45 238.70,163.14 239.45,162.82 240.20,162.50 240.95,162.18 241.70,161.86 242.45,161.54 243.20,161.22 243.95,160.90 244.70,160.57 245.45,160.24 246.21,159.92 246.96,159.59 247.71,159.26 248.46,158.92 249.21,158.59 249.96,158.26 250.71,157.92 251.46,157.58 252.21,157.25 252.96,156.91 253.71,156.56 254.46,156.22 255.21,155.88 255.96,155.53 256.72,155.19 257.47,154.84 258.22,154.49 258.97,154.14 259.72,153.79 260.47,153.43 261.22,153.08 261.97,152.72 262.72,152.37 263.47,152.01 264.22,151.65 264.97,151.29 265.72,150.92 266.48,150.56 267.23,150.19 267.98,149.82 268.73,149.46 269.48,149.09 270.23,148.71 270.98,148.34 271.73,147.97 272.48,147.59 273.23,147.21 273.98,146.83 274.73,146.45 275.48,146.07 276.23,145.69 276.99,145.30 277.74,144.92 278.49,144.53 279.24,144.14 279.99,143.75 280.74,143.36 281.49,142.96 282.24,142.57 282.99,142.17 283.74,141.77 284.49,141.37 285.24,140.97 285.99,140.56 286.74,140.16 287.50,139.75 288.25,139.34 289.00,138.93 289.75,138.52 290.50,138.11 291.25,137.70 292.00,137.28 292.75,136.86 293.50,136.44 294.25,136.02 295.00,135.60 295.75,135.17 296.50,134.75 297.26,134.32 298.01,133.89 298.76,133.46 299.51,133.03 300.26,132.59 301.01,132.15 301.76,131.72 302.51,131.28 303.26,130.84 304.01,130.39 304.76,129.95 305.51,129.50 306.26,129.05 307.01,128.60 307.77,128.15 308.52,127.70 309.27,127.24 310.02,126.78 310.77,126.33 311.52,125.86 312.27,125.40 313.02,124.94 313.77,124.47 314.52,124.00 315.27,123.53 316.02,123.06 316.77,122.59 317.52,122.11 318.28,121.64 319.03,121.16 319.78,120.68 320.53,120.19 321.28,119.71 322.03,119.22 322.78,118.73 323.53,118.24 324.28,117.75 325.03,117.25 325.78,116.76 326.53,116.26 327.28,115.76 328.04,115.26 328.79,114.75 329.54,114.25 330.29,113.74 331.04,113.23 331.79,112.72 332.54,112.20 333.29,111.69 334.04,111.17 334.79,110.65 335.54,110.13 336.29,109.60 337.04,109.08 337.79,108.55 338.55,108.02 339.30,107.49 340.05,106.95 340.80,106.41 341.55,105.88 342.30,105.33 343.05,104.79 343.80,104.25 344.55,103.70 345.30,103.15 346.05,102.60 346.80,102.04 347.55,101.49 348.30,100.93 349.06,100.37 349.81,99.81 350.56,99.24 351.31,98.68 352.06,98.11 352.81,97.54 353.56,96.96 354.31,96.39 355.06,95.81 355.81,95.23 356.56,94.65 357.31,94.06 358.06,93.47 358.82,92.88 359.57,92.29 360.32,91.70 361.07,91.10 361.82,90.50 362.57,89.90 363.32,89.30 364.07,88.69 364.82,88.08 365.57,87.47 366.32,86.86 367.07,86.25 367.82,85.63 368.57,85.01 369.33,84.39 370.08,83.76 370.83,83.13 371.58,82.50 372.33,81.87 373.08,81.24 373.83,80.60 374.58,79.96 375.33,79.32 376.08,78.67 376.83,78.02 377.58,77.37 378.33,76.72 379.09,76.07 379.84,75.41 380.59,74.75 381.34,74.09 382.09,73.42 382.84,72.75 383.59,72.08 384.34,71.41 385.09,70.73 385.84,70.05 386.59,69.37 387.34,68.69 388.09,68.00 388.84,67.31 389.60,66.62 390.35,65.93 391.10,65.23 391.85,64.53 392.60,63.83 393.35,63.12 394.10,62.41 394.85,61.70 395.60,60.99 396.35,60.27 397.10,59.55 397.85,58.83 398.60,58.11 399.35,57.38 400.11,56.65 400.86,55.91 401.61,55.18 402.36,54.44 403.11,53.70 403.86,52.95 404.61,52.20 405.36,51.45 406.11,50.70 406.86,49.94 407.61,49.18 408.36,48.42 409.11,47.65 409.87,46.88 410.62,46.11 411.37,45.34 412.12,44.56 412.87,43.78 413.62,42.99 414.37,42.21 415.12,41.42 415.87,40.62 416.62,39.83 417.37,39.03 418.12,38.22 418.87,37.42 419.62,36.61 420.38,36.20 421.13,37.01 421.88,37.82 422.63,38.63 423.38,39.43 424.13,40.22 424.88,41.02 425.63,41.81 426.38,42.60 427.13,43.39 427.88,44.17 428.63,44.95 429.38,45.72 430.13,46.50 430.89,47.27 431.64,48.03 432.39,48.80 433.14,49.56 433.89,50.32 434.64,51.07 435.39,51.83 436.14,52.58 436.89,53.32 437.64,54.07 438.39,54.81 439.14,55.55 439.89,56.28 440.65,57.01 441.40,57.74 442.15,58.47 442.90,59.19 443.65,59.91 444.40,60.63 445.15,61.35 445.90,62.06 446.65,62.77 447.40,63.48 448.15,64.18 448.90,64.88 449.65,65.58 450.40,66.28 451.16,66.97 451.91,67.66 452.66,68.35 453.41,69.03 454.16,69.71 454.91,70.39 455.66,71.07 456.41,71.75 457.16,72.42 457.91,73.09 458.66,73.75 459.41,74.42 460.16,75.08 460.91,75.74 461.67,76.39 462.42,77.05 463.17,77.70 463.92,78.35 464.67,78.99 465.42,79.64 466.17,80.28 466.92,80.92 467.67,81.55 468.42,82.19 469.17,82.82 469.92,83.45 470.67,84.07 471.43,84.70 472.18,85.32 472.93,85.94 473.68,86.55 474.43,87.17 475.18,87.78 475.93,88.39 476.68,89.00 477.43,89.60 478.18,90.20 478.93,90.80 479.68,91.40 480.43,92.00 481.18,92.59 481.94,93.18 482.69,93.77 483.44,94.35 484.19,94.94 484.94,95.52 485.69,96.10 486.44,96.67 487.19,97.25 487.94,97.82 488.69,98.39 489.44,98.96 490.19,99.53 490.94,100.09 491.70,100.65 492.45,101.21 493.20,101.77 493.95,102.32 494.70,102.87 495.45,103.42 496.20,103.97 496.95,104.52 497.70,105.06 498.45,105.60 499.20,106.14 499.95,106.68 500.70,107.22 501.45,107.75 502.21,108.28 502.96,108.81 503.71,109.34 504.46,109.86 505.21,110.39 505.96,110.91 506.71,111.43 507.46,111.95 508.21,112.46 508.96,112.97 509.71,113.48 510.46,113.99 511.21,114.50 511.96,115.01 512.72,115.51 513.47,116.01 514.22,116.51 514.97,117.01 515.72,117.50 516.47,118.00 517.22,118.49 517.97,118.98 518.72,119.46 519.47,119.95 520.22,120.43 520.97,120.92 521.72,121.40 522.48,121.87 523.23,122.35 523.98,122.83 524.73,123.30 525.48,123.77 526.23,124.24 526.98,124.70 527.73,125.17 528.48,125.63 529.23,126.10 529.98,126.56 530.73,127.01 531.48,127.47 532.23,127.92 532.99,128.38 533.74,128.83 534.49,129.28 535.24,129.72 535.99,130.17 536.74,130.61 537.49,131.06 538.24,131.50 538.99,131.94 539.74,132.37 540.49,132.81 541.24,133.24 541.99,133.67 542.74,134.10 543.50,134.53 544.25,134.96 545.00,135.39 545.75,135.81 546.50,136.23 547.25,136.65 548.00,137.07 548.75,137.49 549.50,137.90 550.25,138.32 551.00,138.73 551.75,139.14 552.50,139.55 553.26,139.96 554.01,140.36 554.76,140.77 555.51,141.17 556.26,141.57 557.01,141.97 557.76,142.37 558.51,142.76 559.26,143.16 560.01,143.55 560.76,143.94 561.51,144.33 562.26,144.72 563.01,145.11 563.77,145.50 564.52,145.88 565.27,146.26 566.02,146.64 566.77,147.02 567.52,147.40 568.27,147.78 569.02,148.15 569.77,148.53 570.52,148.90 571.27,149.27 572.02,149.64 572.77,150.01 573.52,150.38 574.28,150.74 575.03,151.10 575.78,151.47 576.53,151.83 577.28,152.19 578.03,152.54 578.78,152.90 579.53,153.26 580.28,153.61 581.03,153.96 581.78,154.31 582.53,154.66 583.28,155.01 584.04,155.36 584.79,155.71 585.54,156.05 586.29,156.39 587.04,156.73 587.79,157.08 588.54,157.41 589.29,157.75 590.04,158.09 590.79,158.42 591.54,158.76 592.29,159.09 593.04,159.42 593.79,159.75 594.55,160.08 595.30,160.41 596.05,160.73 596.80,161.06 597.55,161.38 598.30,161.70 599.05,162.02 599.80,162.34 600.55,162.66 601.30,162.98 602.05,163.30 602.80,163.61 603.55,163.92 604.30,164.24 605.06,164.55 605.81,164.86 606.56,165.17 607.31,165.47 608.06,165.78 608.81,166.09 609.56,166.39 610.31,166.69 611.06,166.99 611.81,167.29 612.56,167.59 613.31,167.89 614.06,168.19 614.82,168.48 615.57,168.78 616.32,169.07 617.07,169.36 617.82,169.66 618.57,169.95 619.32,170.23 620.07,170.52 620.82,170.81 621.57,171.09 622.32,171.38 623.07,171.66 623.82,171.94 624.57,172.22 625.33,172.50 626.08,172.78 626.83,173.06 627.58,173.34 628.33,173.61 629.08,173.89 629.83,174.16 630.58,174.43 631.33,174.71 632.08,174.98 632.83,175.24 633.58,175.51 634.33,175.78 635.09,176.05 635.84,176.31 636.59,176.58 637.34,176.84 638.09,177.10 638.84,177.36 639.59,177.62 640.34,177.88 641.09,178.14 641.84,178.39 642.59,178.65 643.34,178.91 644.09,179.16 644.84,179.41 645.60,179.66 646.35,179.92 647.10,180.17 647.85,180.41 648.60,180.66 649.35,180.91 650.10,181.16 650.85,181.40 651.60,181.64 652.35,181.89 653.10,182.13 653.85,182.37 654.60,182.61 655.35,182.85 656.11,183.09 656.86,183.33 657.61,183.56 658.36,183.80 659.11,184.03 659.86,184.27 660.61,184.50 661.36,184.73 662.11,184.96 662.86,185.20 663.61,185.42 664.36,185.65 665.11,185.88 665.87,186.11 666.62,186.33 667.37,186.56 668.12,186.78 668.87,187.01 669.62,187.23 670.37,187.45 671.12,187.67 671.87,187.89 672.62,188.11 673.37,188.33 674.12,188.54 674.87,188.76 675.62,188.98 676.38,189.19 677.13,189.40 677.88,189.62 678.63,189.83 679.38,190.04 680.13,190.25 680.88,190.46 681.63,190.67 682.38,190.88 683.13,191.08 683.88,191.29 684.63,191.50 685.38,191.70 686.13,191.90 686.89,192.11 687.64,192.31 688.39,192.51 689.14,192.71 689.89,192.91 690.64,193.11 691.39,193.31 692.14,193.51 692.89,193.71 693.64,193.90 694.39,194.10 695.14,194.29 695.89,194.49 696.65,194.68 697.40,194.87 698.15,195.06 698.90,195.25 699.65,195.44 700.40,195.63 701.15,195.82 701.90,196.01 702.65,196.20 703.40,196.38 704.15,196.57 704.90,196.75 705.65,196.94 706.40,197.12 707.16,197.30 707.91,197.49 708.66,197.67 709.41,197.85 710.16,198.03 710.91,198.21 711.66,198.39 712.41,198.56 713.16,198.74 713.91,198.92 714.66,199.09 715.41,199.27 716.16,199.44 716.91,199.62 717.67,199.79 718.42,199.96 719.17,200.14 719.92,200.31 720.67,200.48 721.42,200.65 722.17,200.82 722.92,200.98 723.67,201.15 724.42,201.32 725.17,201.49 725.92,201.65 726.67,201.82 727.43,201.98 728.18,202.14 728.93,202.31 729.68,202.47 730.43,202.63 731.18,202.79 731.93,202.95 732.68,203.11 733.43,203.27 734.18,203.43 734.93,203.59 735.68,203.75 736.43,203.91 737.18,204.06 737.94,204.22 738.69,204.37 739.44,204.53 740.19,204.68 740.94,204.84 741.69,204.99 742.44,205.14 743.19,205.29 743.94,205.44 744.69,205.59 745.44,205.74 746.19,205.89 746.94,206.04 747.70,206.19 748.45,206.34 749.20,206.48 749.95,206.63 750.70,206.78 751.45,206.92 752.20,207.07 752.95,207.21 753.70,207.35 754.45,207.50 755.20,207.64 755.95,207.78 756.70,207.92 757.45,208.06 758.21,208.20 758.96,208.34 759.71,208.48 760.46,208.62 761.21,208.76 761.96,208.89 762.71,209.03 763.46,209.17 764.21,209.30 764.96,209.44 765.71,209.57 766.46,209.71 767.21,209.84 767.96,209.98 768.72,210.11 769.47,210.24 770.22,210.37 770.97,210.50 771.72,210.63 772.47,210.76 773.22,210.89 773.97,211.02 774.72,211.15 775.47,211.28 776.22,211.41 776.97,211.53 777.72,211.66 778.48,211.79 779.23,211.91 779.98,212.04 780.73,212.16 781.48,212.29 782.23,212.41 782.98,212.53 783.73,212.66 784.48,212.78 785.23,212.90 785.98,213.02 786.73,213.14 787.48,213.26 788.23,213.38 788.99,213.50 789.74,213.62 790.49,213.74 791.24,213.86 791.99,213.98 792.74,214.09 793.49,214.21 794.24,214.33 794.99,214.44 795.74,214.56 796.49,214.67 797.24,214.79 797.99,214.90 798.74,215.01 799.50,215.13 800.25,215.24 801.00,215.35 801.75,215.46 802.50,215.57 803.25,215.68 804.00,215.85" />
  <text x="420.0" y="22" text-anchor="middle" font-family="Arial, Helvetica, sans-serif" font-size="15" fill="#102a43">exponential_0p5 window (time domain)</text>
  <text x="420.0" y="272" text-anchor="middle" font-family="Arial, Helvetica, sans-serif" font-size="12" fill="#334e68">normalized sample index</text>
  <text x="14" y="140.0" transform="rotate(-90 14,140.0)" text-anchor="middle" font-family="Arial, Helvetica, sans-serif" font-size="12" fill="#334e68">amplitude</text>
  <text x="36" y="262" font-family="Arial, Helvetica, sans-serif" font-size="11" fill="#486581">0</text>
  <text x="804" y="262" text-anchor="end" font-family="Arial, Helvetica, sans-serif" font-size="11" fill="#486581">1</text>
  <text x="30" y="40" text-anchor="end" font-family="Arial, Helvetica, sans-serif" font-size="11" fill="#486581">1.0</text>
  <text x="30" y="248" text-anchor="end" font-family="Arial, Helvetica, sans-serif" font-size="11" fill="#486581">0.0</text>
</svg>
