<svg xmlns="http://www.w3.org/2000/svg" width="840" height="280" viewBox="0 0 840 280">
  <rect x="0" y="0" width="840" height="280" fill="#ffffff" />
  <rect x="36" y="36" width="768" height="208" fill="#f7fbff" stroke="#c8d9e6" />
  <polyline fill="none" stroke="#005f73" stroke-width="2" points="36.00,36.00 36.75,41.01 37.50,50.03 38.25,56.80 39.00,62.93 39.75,67.18 40.50,71.50 41.26,74.43 42.01,77.78 42.76,79.97 43.51,82.72 44.26,84.42 45.01,86.78 45.76,88.15 46.51,90.23 47.26,91.36 48.01,93.11 48.76,94.32 49.51,95.74 50.26,96.84 51.01,98.09 51.77,99.10 52.52,100.22 53.27,101.16 54.02,102.16 54.77,103.06 55.52,103.95 56.27,104.81 57.02,105.60 57.77,106.43 58.52,107.14 59.27,107.95 60.02,108.34 60.77,109.66 61.52,109.67 62.28,111.01 63.03,110.93 63.78,112.30 64.53,112.12 65.28,113.52 66.03,113.25 66.78,114.68 67.53,114.32 68.28,115.79 69.03,115.33 69.78,116.85 70.53,116.31 71.28,117.86 72.04,116.89 72.79,119.26 73.54,117.76 74.29,120.22 75.04,118.61 75.79,121.14 76.54,119.41 77.29,122.03 78.04,120.19 78.79,122.89 79.54,120.94 80.29,123.72 81.04,121.66 81.79,124.53 82.55,122.36 83.30,125.31 84.05,122.60 84.80,126.68 85.55,123.24 86.30,127.44 87.05,123.86 87.80,128.18 88.55,124.46 89.30,128.90 90.05,125.04 90.80,129.61 91.55,125.61 92.30,130.30 93.06,126.15 93.81,130.97 94.56,126.69 95.31,131.63 96.06,126.70 96.81,133.12 97.56,127.20 98.31,133.78 99.06,127.68 99.81,134.43 100.56,128.15 101.31,135.07 102.06,128.61 102.82,135.70 103.57,129.06 104.32,136.31 105.07,129.49 105.82,136.92 106.57,129.92 107.32,137.52 108.07,129.79 108.82,139.28 109.57,130.18 110.32,139.91 111.07,130.57 111.82,140.52 112.57,130.95 113.33,141.13 114.08,131.32 114.83,141.73 115.58,131.69 116.33,142.33 117.08,132.04 117.83,142.92 118.58,132.39 119.33,143.50 120.08,132.16 120.83,145.82 121.58,132.49 122.33,146.46 123.09,132.81 123.84,147.10 124.59,133.13 125.34,147.74 126.09,133.44 126.84,148.38 127.59,133.74 128.34,149.02 129.09,134.04 129.84,149.67 130.59,134.33 131.34,150.31 132.09,134.03 132.84,153.83 133.60,134.31 134.35,154.62 135.10,134.58 135.85,155.42 136.60,134.85 137.35,156.24 138.10,135.11 138.85,157.08 139.60,135.37 140.35,157.94 141.10,135.62 141.85,158.81 142.60,135.87 143.35,159.71 144.11,135.53 144.86,167.65 145.61,135.77 146.36,169.36 147.11,136.00 147.86,171.27 148.61,136.23 149.36,173.43 150.11,136.46 150.86,175.96 151.61,136.68 152.36,179.05 153.11,136.90 153.87,183.07 154.62,137.12 155.37,188.96 156.12,136.76 156.87,171.59 157.62,136.96 158.37,170.30 159.12,137.17 159.87,169.21 160.62,137.37 161.37,168.25 162.12,137.56 162.87,167.41 163.62,137.76 164.38,166.67 165.13,137.95 165.88,166.00 166.63,138.14 167.38,165.41 168.13,137.77 168.88,160.09 169.63,137.95 170.38,159.81 171.13,138.13 171.88,159.55 172.63,138.31 173.38,159.30 174.13,138.48 174.89,159.08 175.64,138.65 176.39,158.87 177.14,138.82 177.89,158.67 178.64,138.99 179.39,158.49 180.14,138.62 180.89,155.68 181.64,138.78 182.39,155.58 183.14,138.94 183.89,155.48 184.65,139.10 185.40,155.39 186.15,139.25 186.90,155.31 187.65,139.41 188.40,155.23 189.15,139.56 189.90,155.16 190.65,139.71 191.40,155.09 192.15,139.35 192.90,153.20 193.65,139.49 194.40,153.16 195.16,139.64 195.91,153.13 196.66,139.78 197.41,153.10 198.16,139.92 198.91,153.08 199.66,140.05 200.41,153.06 201.16,140.19 201.91,153.03 202.66,140.33 203.41,153.02 204.16,139.98 204.91,151.60 205.67,140.11 206.42,151.60 207.17,140.24 207.92,151.60 208.67,140.37 209.42,151.60 210.17,140.49 210.92,151.60 211.67,140.62 212.42,151.61 213.17,140.74 213.92,151.61 214.67,140.86 215.43,151.62 216.18,140.53 216.93,150.50 217.68,140.65 218.43,150.52 219.18,140.77 219.93,150.53 220.68,140.88 221.43,150.55 222.18,141.00 222.93,150.57 223.68,141.11 224.43,150.59 225.18,141.23 225.94,150.61 226.69,141.34 227.44,150.63 228.19,141.02 228.94,149.71 229.69,141.13 230.44,149.74 231.19,141.24 231.94,149.76 232.69,141.35 233.44,149.79 234.19,141.45 234.94,149.82 235.70,141.56 236.45,149.85 237.20,141.66 237.95,149.88 238.70,141.76 239.45,149.90 240.20,141.47 240.95,149.14 241.70,141.57 242.45,149.17 243.20,141.67 243.95,149.20 244.70,141.77 245.45,149.23 246.21,141.86 246.96,149.27 247.71,141.96 248.46,149.30 249.21,142.06 249.96,149.33 250.71,142.15 251.46,149.37 252.21,141.88 252.96,148.71 253.71,141.97 254.46,148.75 255.21,142.06 255.96,148.78 256.72,142.15 257.47,148.82 258.22,142.24 258.97,148.85 259.72,142.33 260.47,148.89 261.22,142.42 261.97,148.93 262.72,142.51 263.47,148.96 264.22,142.25 264.97,148.40 265.72,142.34 266.48,148.44 267.23,142.43 267.98,148.47 268.73,142.51 269.48,148.51 270.23,142.59 270.98,148.55 271.73,142.68 272.48,148.59 273.23,142.76 273.98,148.62 274.73,142.84 275.48,148.66 276.23,142.61 276.99,148.18 277.74,142.69 278.49,148.21 279.24,142.77 279.99,148.25 280.74,142.85 281.49,148.29 282.24,142.93 282.99,148.33 283.74,143.01 284.49,148.36 285.24,143.08 285.99,148.40 286.74,143.16 287.50,148.44 288.25,142.95 289.00,148.02 289.75,143.02 290.50,148.06 291.25,143.10 292.00,148.10 292.75,143.17 293.50,148.13 294.25,143.24 295.00,148.17 295.75,143.32 296.50,148.21 297.26,143.39 298.01,148.25 298.76,143.46 299.51,148.28 300.26,143.27 301.01,147.92 301.76,143.34 302.51,147.96 303.26,143.41 304.01,148.00 304.76,143.48 305.51,148.04 306.26,143.55 307.01,148.07 307.77,143.62 308.52,148.11 309.27,143.69 310.02,148.15 310.77,143.75 311.52,148.18 312.27,143.59 313.02,147.87 313.77,143.65 314.52,147.91 315.27,143.72 316.02,147.95 316.77,143.78 317.52,147.98 318.28,143.85 319.03,148.02 319.78,143.91 320.53,148.05 321.28,143.98 322.03,148.09 322.78,144.04 323.53,148.13 324.28,143.89 325.03,147.86 325.78,143.96 326.53,147.90 327.28,144.02 328.04,147.93 328.79,144.08 329.54,147.97 330.29,144.14 331.04,148.00 331.79,144.20 332.54,148.04 333.29,144.26 334.04,148.07 334.79,144.32 335.54,148.11 336.29,144.20 337.04,147.89 337.79,144.26 338.55,147.92 339.30,144.31 340.05,147.96 340.80,144.37 341.55,147.99 342.30,144.43 343.05,148.02 343.80,144.49 344.55,148.06 345.30,144.55 346.05,148.09 346.80,144.60 347.55,148.13 348.30,144.50 349.06,147.94 349.81,144.55 350.56,147.97 351.31,144.61 352.06,148.01 352.81,144.67 353.56,148.04 354.31,144.72 355.06,148.07 355.81,144.77 356.56,148.11 357.31,144.83 358.06,148.14 358.82,144.88 359.57,148.17 360.32,144.80 361.07,148.02 361.82,144.85 362.57,148.06 363.32,144.91 364.07,148.09 364.82,144.96 365.57,148.12 366.32,145.01 367.07,148.15 367.82,145.06 368.57,148.18 369.33,145.11 370.08,148.22 370.83,145.16 371.58,148.25 372.33,145.10 373.08,148.13 373.83,145.15 374.58,148.17 375.33,145.20 376.08,148.20 376.83,145.25 377.58,148.23 378.33,145.30 379.09,148.26 379.84,145.35 380.59,148.29 381.34,145.40 382.09,148.32 382.84,145.45 383.59,148.35 384.34,145.41 385.09,148.27 385.84,145.46 386.59,148.30 387.34,145.51 388.09,148.33 388.84,145.55 389.60,148.36 390.35,145.60 391.10,148.39 391.85,145.65 392.60,148.41 393.35,145.69 394.10,148.44 394.85,145.74 395.60,148.47 396.35,145.72 397.10,148.42 397.85,145.77 398.60,148.45 399.35,145.81 400.11,148.48 400.86,145.86 401.61,148.51 402.36,145.90 403.11,148.54 403.86,145.95 404.61,148.56 405.36,145.99 406.11,148.59 406.86,146.03 407.61,148.62 408.36,146.04 409.11,148.60 409.87,146.08 410.62,148.63 411.37,146.13 412.12,148.65 412.87,146.17 413.62,148.68 414.37,146.21 415.12,148.71 415.87,146.25 416.62,148.74 417.37,146.30 418.12,148.76 418.87,146.34 419.62,148.79 420.38,146.37 421.13,148.80 421.88,146.41 422.63,148.82 423.38,146.45 424.13,148.85 424.88,146.49 425.63,148.88 426.38,146.53 427.13,148.90 427.88,146.57 428.63,148.93 429.38,146.61 430.13,148.95 430.89,146.65 431.64,148.98 432.39,146.70 433.14,149.02 433.89,146.74 434.64,149.04 435.39,146.78 436.14,149.07 436.89,146.82 437.64,149.09 438.39,146.86 439.14,149.12 439.89,146.89 440.65,149.14 441.40,146.93 442.15,149.17 442.90,146.97 443.65,149.19 444.40,147.04 445.15,149.26 445.90,147.08 446.65,149.28 447.40,147.12 448.15,149.30 448.90,147.16 449.65,149.33 450.40,147.19 451.16,149.35 451.91,147.23 452.66,149.37 453.41,147.27 454.16,149.40 454.91,147.30 455.66,149.42 456.41,147.40 457.16,149.52 457.91,147.43 458.66,149.54 459.41,147.47 460.16,149.56 460.91,147.51 461.67,149.58 462.42,147.54 463.17,149.61 463.92,147.58 464.67,149.63 465.42,147.61 466.17,149.65 466.92,147.64 467.67,149.67 468.42,147.77 469.17,149.80 469.92,147.80 470.67,149.82 471.43,147.83 472.18,149.84 472.93,147.87 473.68,149.86 474.43,147.90 475.18,149.88 475.93,147.94 476.68,149.90 477.43,147.97 478.18,149.92 478.93,148.00 479.68,149.95 480.43,148.15 481.18,150.10 481.94,148.18 482.69,150.12 483.44,148.21 484.19,150.14 484.94,148.25 485.69,150.16 486.44,148.28 487.19,150.18 487.94,148.31 488.69,150.20 489.44,148.34 490.19,150.22 490.94,148.37 491.70,150.24 492.45,148.54 493.20,150.42 493.95,148.58 494.70,150.44 495.45,148.61 496.20,150.46 496.95,148.64 497.70,150.48 498.45,148.67 499.20,150.50 499.95,148.70 500.70,150.52 501.45,148.73 502.21,150.54 502.96,148.76 503.71,150.56 504.46,148.96 505.21,150.77 505.96,148.99 506.71,150.79 507.46,149.02 508.21,150.81 508.96,149.05 509.71,150.82 510.46,149.08 511.21,150.84 511.96,149.10 512.72,150.86 513.47,149.13 514.22,150.88 514.97,149.16 515.72,150.89 516.47,149.39 517.22,151.14 517.97,149.42 518.72,151.16 519.47,149.44 520.22,151.17 520.97,149.47 521.72,151.19 522.48,149.50 523.23,151.21 523.98,149.53 524.73,151.22 525.48,149.56 526.23,151.24 526.98,149.58 527.73,151.26 528.48,149.84 529.23,151.54 529.98,149.87 530.73,151.55 531.48,149.89 532.23,151.57 532.99,149.92 533.74,151.58 534.49,149.95 535.24,151.60 535.99,149.97 536.74,151.61 537.49,150.00 538.24,151.63 538.99,150.03 539.74,151.64 540.49,150.31 541.24,151.96 541.99,150.34 542.74,151.97 543.50,150.36 544.25,151.99 545.00,150.39 545.75,152.00 546.50,150.41 547.25,152.02 548.00,150.44 548.75,152.03 549.50,150.47 550.25,152.04 551.00,150.49 551.75,152.06 552.50,150.81 553.26,152.41 554.01,150.83 554.76,152.42 555.51,150.86 556.26,152.43 557.01,150.88 557.76,152.45 558.51,150.91 559.26,152.46 560.01,150.93 560.76,152.47 561.51,150.96 562.26,152.49 563.01,150.98 563.77,152.50 564.52,151.33 565.27,152.89 566.02,151.36 566.77,152.90 567.52,151.38 568.27,152.91 569.02,151.40 569.77,152.92 570.52,151.43 571.27,152.94 572.02,151.45 572.77,152.95 573.52,151.47 574.28,152.96 575.03,151.49 575.78,152.97 576.53,151.88 577.28,153.40 578.03,151.91 578.78,153.41 579.53,151.93 580.28,153.42 581.03,151.95 581.78,153.43 582.53,151.97 583.28,153.44 584.04,152.00 584.79,153.45 585.54,152.02 586.29,153.46 587.04,152.04 587.79,153.47 588.54,152.47 589.29,153.95 590.04,152.49 590.79,153.96 591.54,152.51 592.29,153.97 593.04,152.53 593.79,153.98 594.55,152.55 595.30,153.99 596.05,152.58 596.80,154.00 597.55,152.60 598.30,154.01 599.05,152.62 599.80,154.01 600.55,153.09 601.30,154.53 602.05,153.11 602.80,154.54 603.55,153.13 604.30,154.55 605.06,153.15 605.81,154.56 606.56,153.17 607.31,154.57 608.06,153.19 608.81,154.58 609.56,153.21 610.31,154.58 611.06,153.23 611.81,154.59 612.56,153.75 613.31,155.16 614.06,153.77 614.82,155.17 615.57,153.79 616.32,155.18 617.07,153.81 617.82,155.19 618.57,153.83 619.32,155.19 620.07,153.85 620.82,155.20 621.57,153.87 622.32,155.21 623.07,153.89 623.82,155.21 624.57,154.45 625.33,155.84 626.08,154.47 626.83,155.85 627.58,154.49 628.33,155.85 629.08,154.51 629.83,155.86 630.58,154.53 631.33,155.87 632.08,154.55 632.83,155.87 633.58,154.57 634.33,155.88 635.09,154.59 635.84,155.88 636.59,155.21 637.34,156.57 638.09,155.23 638.84,156.58 639.59,155.25 640.34,156.58 641.09,155.27 641.84,156.59 642.59,155.29 643.34,156.59 644.09,155.30 644.84,156.60 645.60,155.32 646.35,156.60 647.10,155.34 647.85,156.61 648.60,156.03 649.35,157.36 650.10,156.05 650.85,157.37 651.60,156.06 652.35,157.37 653.10,156.08 653.85,157.38 654.60,156.10 655.35,157.38 656.11,156.12 656.86,157.38 657.61,156.13 658.36,157.39 659.11,156.15 659.86,157.39 660.61,156.91 661.36,158.23 662.11,156.93 662.86,158.23 663.61,156.95 664.36,158.23 665.11,156.96 665.87,158.23 666.62,156.98 667.37,158.24 668.12,157.00 668.87,158.24 669.62,157.02 670.37,158.24 671.12,157.03 671.87,158.24 672.62,157.88 673.37,159.17 674.12,157.89 674.87,159.17 675.62,157.91 676.38,159.17 677.13,157.93 677.88,159.18 678.63,157.94 679.38,159.18 680.13,157.96 680.88,159.18 681.63,157.98 682.38,159.18 683.13,157.99 683.88,159.18 684.63,158.94 685.38,160.21 686.13,158.95 686.89,160.21 687.64,158.97 688.39,160.21 689.14,158.99 689.89,160.21 690.64,159.00 691.39,160.21 692.14,159.02 692.89,160.21 693.64,159.04 694.39,160.21 695.14,159.05 695.89,160.21 696.65,160.11 697.40,161.37 698.15,160.13 698.90,161.37 699.65,160.15 700.40,161.37 701.15,160.16 701.90,161.37 702.65,160.18 703.40,161.36 704.15,160.19 704.90,161.36 705.65,160.21 706.40,161.36 707.16,160.23 707.91,161.36 708.66,161.43 709.41,162.67 710.16,161.45 710.91,162.67 711.66,161.46 712.41,162.67 713.16,161.48 713.91,162.66 714.66,161.49 715.41,162.66 716.16,161.51 716.91,162.65 717.67,161.53 718.42,162.65 719.17,161.54 719.92,162.65 720.67,162.93 721.42,164.16 722.17,162.94 722.92,164.15 723.67,162.96 724.42,164.14 725.17,162.98 725.92,164.14 726.67,162.99 727.43,164.13 728.18,163.01 728.93,164.13 729.68,163.03 730.43,164.12 731.18,163.04 731.93,164.11 732.68,164.66 733.43,165.87 734.18,164.67 734.93,165.87 735.68,164.69 736.43,165.86 737.18,164.71 737.94,165.85 738.69,164.73 739.44,165.84 740.19,164.74 740.94,165.83 741.69,164.76 742.44,165.82 743.19,164.78 743.94,165.81 744.69,166.71 745.44,167.91 746.19,166.73 746.94,167.90 747.70,166.75 748.45,167.89 749.20,166.76 749.95,167.88 750.70,166.78 751.45,167.86 752.20,166.80 752.95,167.85 753.70,166.82 754.45,167.84 755.20,166.84 755.95,167.83 756.70,169.22 757.45,170.41 758.21,169.24 758.96,170.40 759.71,169.27 760.46,170.38 761.21,169.29 761.96,170.36 762.71,169.31 763.46,170.35 764.21,169.33 764.96,170.33 765.71,169.35 766.46,170.31 767.21,169.37 767.96,170.30 768.72,172.47 769.47,173.64 770.22,172.49 770.97,173.62 771.72,172.52 772.47,173.60 773.22,172.55 773.97,173.57 774.72,172.57 775.47,173.55 776.22,172.60 776.97,173.53 777.72,172.63 778.48,173.50 779.23,172.65 779.98,173.48 780.73,177.05 781.48,178.20 782.23,177.09 782.98,178.16 783.73,177.12 784.48,178.13 785.23,177.16 785.98,178.09 786.73,177.20 787.48,178.05 788.23,177.24 788.99,178.01 789.74,177.28 790.49,177.98 791.24,177.32 791.99,177.94 792.74,184.89 793.49,185.98 794.24,184.96 794.99,185.91 795.74,185.04 796.49,185.83 797.24,185.11 797.99,185.76 798.74,185.19 799.50,185.68 800.25,185.26 801.00,185.60 801.75,185.34 802.50,185.53 803.25,185.42 804.00,244.00" />
  <text x="420.0" y="22" text-anchor="middle" font-family="Arial, Helvetica, sans-serif" font-size="15" fill="#102a43">exponential_0p25 window (magnitude spectrum)</text>
  <text x="420.0" y="272" text-anchor="middle" font-family="Arial, Helvetica, sans-serif" font-size="12" fill="#334e68">normalized frequency</text>
  <text x="14" y="140.0" transform="rotate(-90 14,140.0)" text-anchor="middle" font-family="Arial, Helvetica, sans-serif" font-size="12" fill="#334e68">magnitude (dB)</text>
  <text x="36" y="262" font-family="Arial, Helvetica, sans-serif" font-size="11" fill="#486581">0</text>
  <text x="804" y="262" text-anchor="end" font-family="Arial, Helvetica, sans-serif" font-size="11" fill="#486581">1</text>
  <text x="30" y="40" text-anchor="end" font-family="Arial, Helvetica, sans-serif" font-size="11" fill="#486581">0.0</text>
  <text x="30" y="248" text-anchor="end" font-family="Arial, Helvetica, sans-serif" font-size="11" fill="#486581">-160.0</text>
</svg>
