<svg xmlns="http://www.w3.org/2000/svg" width="840" height="280" viewBox="0 0 840 280">
  <rect x="0" y="0" width="840" height="280" fill="#ffffff" />
  <rect x="36" y="36" width="768" height="208" fill="#f7fbff" stroke="#c8d9e6" />
  <polyline fill="none" stroke="#005f73" stroke-width="2" points="36.00,167.48 36.75,167.33 37.50,167.18 38.25,167.03 39.00,166.88 39.75,166.73 40.50,166.58 41.26,166.43 42.01,166.28 42.76,166.12 43.51,165.97 44.26,165.82 45.01,165.67 45.76,165.51 46.51,165.36 47.26,165.21 48.01,165.05 48.76,164.90 49.51,164.74 50.26,164.59 51.01,164.43 51.77,164.28 52.52,164.12 53.27,163.96 54.02,163.81 54.77,163.65 55.52,163.49 56.27,163.34 57.02,163.18 57.77,163.02 58.52,162.86 59.27,162.70 60.02,162.54 60.77,162.38 61.52,162.22 62.28,162.06 63.03,161.90 63.78,161.74 64.53,161.58 65.28,161.42 66.03,161.26 66.78,161.10 67.53,160.94 68.28,160.77 69.03,160.61 69.78,160.45 70.53,160.28 71.28,160.12 72.04,159.96 72.79,159.79 73.54,159.63 74.29,159.46 75.04,159.30 75.79,159.13 76.54,158.97 77.29,158.80 78.04,158.63 78.79,158.47 79.54,158.30 80.29,158.13 81.04,157.96 81.79,157.79 82.55,157.63 83.30,157.46 84.05,157.29 84.80,157.12 85.55,156.95 86.30,156.78 87.05,156.61 87.80,156.44 88.55,156.26 89.30,156.09 90.05,155.92 90.80,155.75 91.55,155.58 92.30,155.40 93.06,155.23 93.81,155.06 94.56,154.88 95.31,154.71 96.06,154.53 96.81,154.36 97.56,154.18 98.31,154.01 99.06,153.83 99.81,153.66 100.56,153.48 101.31,153.30 102.06,153.12 102.82,152.95 103.57,152.77 104.32,152.59 105.07,152.41 105.82,152.23 106.57,152.05 107.32,151.87 108.07,151.69 108.82,151.51 109.57,151.33 110.32,151.15 111.07,150.97 111.82,150.79 112.57,150.60 113.33,150.42 114.08,150.24 114.83,150.05 115.58,149.87 116.33,149.69 117.08,149.50 117.83,149.32 118.58,149.13 119.33,148.95 120.08,148.76 120.83,148.57 121.58,148.39 122.33,148.20 123.09,148.01 123.84,147.83 124.59,147.64 125.34,147.45 126.09,147.26 126.84,147.07 127.59,146.88 128.34,146.69 129.09,146.50 129.84,146.31 130.59,146.12 131.34,145.93 132.09,145.74 132.84,145.54 133.60,145.35 134.35,145.16 135.10,144.96 135.85,144.77 136.60,144.58 137.35,144.38 138.10,144.19 138.85,143.99 139.60,143.80 140.35,143.60 141.10,143.40 141.85,143.21 142.60,143.01 143.35,142.81 144.11,142.61 144.86,142.42 145.61,142.22 146.36,142.02 147.11,141.82 147.86,141.62 148.61,141.42 149.36,141.22 150.11,141.02 150.86,140.82 151.61,140.61 152.36,140.41 153.11,140.21 153.87,140.01 154.62,139.80 155.37,139.60 156.12,139.40 156.87,139.19 157.62,138.99 158.37,138.78 159.12,138.57 159.87,138.37 160.62,138.16 161.37,137.95 162.12,137.75 162.87,137.54 163.62,137.33 164.38,137.12 165.13,136.91 165.88,136.70 166.63,136.49 167.38,136.28 168.13,136.07 168.88,135.86 169.63,135.65 170.38,135.44 171.13,135.23 171.88,135.01 172.63,134.80 173.38,134.59 174.13,134.37 174.89,134.16 175.64,133.94 176.39,133.73 177.14,133.51 177.89,133.30 178.64,133.08 179.39,132.86 180.14,132.65 180.89,132.43 181.64,132.21 182.39,131.99 183.14,131.77 183.89,131.55 184.65,131.33 185.40,131.11 186.15,130.89 186.90,130.67 187.65,130.45 188.40,130.23 189.15,130.00 189.90,129.78 190.65,129.56 191.40,129.33 192.15,129.11 192.90,128.88 193.65,128.66 194.40,128.43 195.16,128.21 195.91,127.98 196.66,127.75 197.41,127.53 198.16,127.30 198.91,127.07 199.66,126.84 200.41,126.61 201.16,126.38 201.91,126.15 202.66,125.92 203.41,125.69 204.16,125.46 204.91,125.23 205.67,125.00 206.42,124.76 207.17,124.53 207.92,124.30 208.67,124.06 209.42,123.83 210.17,123.59 210.92,123.36 211.67,123.12 212.42,122.88 213.17,122.65 213.92,122.41 214.67,122.17 215.43,121.93 216.18,121.70 216.93,121.46 217.68,121.22 218.43,120.98 219.18,120.74 219.93,120.49 220.68,120.25 221.43,120.01 222.18,119.77 222.93,119.53 223.68,119.28 224.43,119.04 225.18,118.79 225.94,118.55 226.69,118.30 227.44,118.06 228.19,117.81 228.94,117.56 229.69,117.32 230.44,117.07 231.19,116.82 231.94,116.57 232.69,116.32 233.44,116.07 234.19,115.82 234.94,115.57 235.70,115.32 236.45,115.07 237.20,114.82 237.95,114.56 238.70,114.31 239.45,114.06 240.20,113.80 240.95,113.55 241.70,113.29 242.45,113.04 243.20,112.78 243.95,112.52 244.70,112.27 245.45,112.01 246.21,111.75 246.96,111.49 247.71,111.23 248.46,110.97 249.21,110.71 249.96,110.45 250.71,110.19 251.46,109.93 252.21,109.67 252.96,109.41 253.71,109.14 254.46,108.88 255.21,108.61 255.96,108.35 256.72,108.08 257.47,107.82 258.22,107.55 258.97,107.28 259.72,107.02 260.47,106.75 261.22,106.48 261.97,106.21 262.72,105.94 263.47,105.67 264.22,105.40 264.97,105.13 265.72,104.86 266.48,104.59 267.23,104.31 267.98,104.04 268.73,103.77 269.48,103.49 270.23,103.22 270.98,102.94 271.73,102.67 272.48,102.39 273.23,102.11 273.98,101.84 274.73,101.56 275.48,101.28 276.23,101.00 276.99,100.72 277.74,100.44 278.49,100.16 279.24,99.88 279.99,99.60 280.74,99.31 281.49,99.03 282.24,98.75 282.99,98.46 283.74,98.18 284.49,97.89 285.24,97.61 285.99,97.32 286.74,97.03 287.50,96.75 288.25,96.46 289.00,96.17 289.75,95.88 290.50,95.59 291.25,95.30 292.00,95.01 292.75,94.72 293.50,94.43 294.25,94.13 295.00,93.84 295.75,93.55 296.50,93.25 297.26,92.96 298.01,92.66 298.76,92.37 299.51,92.07 300.26,91.77 301.01,91.48 301.76,91.18 302.51,90.88 303.26,90.58 304.01,90.28 304.76,89.98 305.51,89.68 306.26,89.37 307.01,89.07 307.77,88.77 308.52,88.47 309.27,88.16 310.02,87.86 310.77,87.55 311.52,87.24 312.27,86.94 313.02,86.63 313.77,86.32 314.52,86.01 315.27,85.71 316.02,85.40 316.77,85.09 317.52,84.78 318.28,84.46 319.03,84.15 319.78,83.84 320.53,83.53 321.28,83.21 322.03,82.90 322.78,82.58 323.53,82.27 324.28,81.95 325.03,81.63 325.78,81.32 326.53,81.00 327.28,80.68 328.04,80.36 328.79,80.04 329.54,79.72 330.29,79.40 331.04,79.07 331.79,78.75 332.54,78.43 333.29,78.11 334.04,77.78 334.79,77.46 335.54,77.13 336.29,76.80 337.04,76.48 337.79,76.15 338.55,75.82 339.30,75.49 340.05,75.16 340.80,74.83 341.55,74.50 342.30,74.17 343.05,73.84 343.80,73.50 344.55,73.17 345.30,72.84 346.05,72.50 346.80,72.17 347.55,71.83 348.30,71.49 349.06,71.16 349.81,70.82 350.56,70.48 351.31,70.14 352.06,69.80 352.81,69.46 353.56,69.12 354.31,68.78 355.06,68.43 355.81,68.09 356.56,67.75 357.31,67.40 358.06,67.06 358.82,66.71 359.57,66.36 360.32,66.01 361.07,65.67 361.82,65.32 362.57,64.97 363.32,64.62 364.07,64.27 364.82,63.92 365.57,63.56 366.32,63.21 367.07,62.86 367.82,62.50 368.57,62.15 369.33,61.79 370.08,61.44 370.83,61.08 371.58,60.72 372.33,60.36 373.08,60.00 373.83,59.64 374.58,59.28 375.33,58.92 376.08,58.56 376.83,58.20 377.58,57.83 378.33,57.47 379.09,57.10 379.84,56.74 380.59,56.37 381.34,56.01 382.09,55.64 382.84,55.27 383.59,54.90 384.34,54.53 385.09,54.16 385.84,53.79 386.59,53.42 387.34,53.04 388.09,52.67 388.84,52.30 389.60,51.92 390.35,51.54 391.10,51.17 391.85,50.79 392.60,50.41 393.35,50.03 394.10,49.66 394.85,49.28 395.60,48.89 396.35,48.51 397.10,48.13 397.85,47.75 398.60,47.36 399.35,46.98 400.11,46.59 400.86,46.21 401.61,45.82 402.36,45.43 403.11,45.04 403.86,44.66 404.61,44.27 405.36,43.87 406.11,43.48 406.86,43.09 407.61,42.70 408.36,42.30 409.11,41.91 409.87,41.51 410.62,41.12 411.37,40.72 412.12,40.32 412.87,39.93 413.62,39.53 414.37,39.13 415.12,38.73 415.87,38.32 416.62,37.92 417.37,37.52 418.12,37.11 418.87,36.71 419.62,36.30 420.38,36.10 421.13,36.51 421.88,36.91 422.63,37.32 423.38,37.72 424.13,38.12 424.88,38.52 425.63,38.93 426.38,39.33 427.13,39.73 427.88,40.12 428.63,40.52 429.38,40.92 430.13,41.32 430.89,41.71 431.64,42.11 432.39,42.50 433.14,42.89 433.89,43.29 434.64,43.68 435.39,44.07 436.14,44.46 436.89,44.85 437.64,45.24 438.39,45.63 439.14,46.01 439.89,46.40 440.65,46.79 441.40,47.17 442.15,47.56 442.90,47.94 443.65,48.32 444.40,48.70 445.15,49.08 445.90,49.47 446.65,49.85 447.40,50.22 448.15,50.60 448.90,50.98 449.65,51.36 450.40,51.73 451.16,52.11 451.91,52.48 452.66,52.86 453.41,53.23 454.16,53.60 454.91,53.97 455.66,54.34 456.41,54.72 457.16,55.08 457.91,55.45 458.66,55.82 459.41,56.19 460.16,56.56 460.91,56.92 461.67,57.29 462.42,57.65 463.17,58.01 463.92,58.38 464.67,58.74 465.42,59.10 466.17,59.46 466.92,59.82 467.67,60.18 468.42,60.54 469.17,60.90 469.92,61.26 470.67,61.61 471.43,61.97 472.18,62.33 472.93,62.68 473.68,63.03 474.43,63.39 475.18,63.74 475.93,64.09 476.68,64.44 477.43,64.79 478.18,65.14 478.93,65.49 479.68,65.84 480.43,66.19 481.18,66.54 481.94,66.88 482.69,67.23 483.44,67.57 484.19,67.92 484.94,68.26 485.69,68.60 486.44,68.95 487.19,69.29 487.94,69.63 488.69,69.97 489.44,70.31 490.19,70.65 490.94,70.99 491.70,71.32 492.45,71.66 493.20,72.00 493.95,72.33 494.70,72.67 495.45,73.00 496.20,73.34 496.95,73.67 497.70,74.00 498.45,74.34 499.20,74.67 499.95,75.00 500.70,75.33 501.45,75.66 502.21,75.98 502.96,76.31 503.71,76.64 504.46,76.97 505.21,77.29 505.96,77.62 506.71,77.94 507.46,78.27 508.21,78.59 508.96,78.91 509.71,79.24 510.46,79.56 511.21,79.88 511.96,80.20 512.72,80.52 513.47,80.84 514.22,81.16 514.97,81.47 515.72,81.79 516.47,82.11 517.22,82.42 517.97,82.74 518.72,83.05 519.47,83.37 520.22,83.68 520.97,84.00 521.72,84.31 522.48,84.62 523.23,84.93 523.98,85.24 524.73,85.55 525.48,85.86 526.23,86.17 526.98,86.48 527.73,86.78 528.48,87.09 529.23,87.40 529.98,87.70 530.73,88.01 531.48,88.31 532.23,88.62 532.99,88.92 533.74,89.22 534.49,89.53 535.24,89.83 535.99,90.13 536.74,90.43 537.49,90.73 538.24,91.03 538.99,91.33 539.74,91.62 540.49,91.92 541.24,92.22 541.99,92.51 542.74,92.81 543.50,93.11 544.25,93.40 545.00,93.69 545.75,93.99 546.50,94.28 547.25,94.57 548.00,94.86 548.75,95.16 549.50,95.45 550.25,95.74 551.00,96.03 551.75,96.31 552.50,96.60 553.26,96.89 554.01,97.18 554.76,97.46 555.51,97.75 556.26,98.04 557.01,98.32 557.76,98.61 558.51,98.89 559.26,99.17 560.01,99.46 560.76,99.74 561.51,100.02 562.26,100.30 563.01,100.58 563.77,100.86 564.52,101.14 565.27,101.42 566.02,101.70 566.77,101.97 567.52,102.25 568.27,102.53 569.02,102.81 569.77,103.08 570.52,103.36 571.27,103.63 572.02,103.90 572.77,104.18 573.52,104.45 574.28,104.72 575.03,105.00 575.78,105.27 576.53,105.54 577.28,105.81 578.03,106.08 578.78,106.35 579.53,106.62 580.28,106.88 581.03,107.15 581.78,107.42 582.53,107.68 583.28,107.95 584.04,108.22 584.79,108.48 585.54,108.75 586.29,109.01 587.04,109.27 587.79,109.54 588.54,109.80 589.29,110.06 590.04,110.32 590.79,110.58 591.54,110.84 592.29,111.10 593.04,111.36 593.79,111.62 594.55,111.88 595.30,112.14 596.05,112.40 596.80,112.65 597.55,112.91 598.30,113.17 599.05,113.42 599.80,113.68 600.55,113.93 601.30,114.18 602.05,114.44 602.80,114.69 603.55,114.94 604.30,115.19 605.06,115.45 605.81,115.70 606.56,115.95 607.31,116.20 608.06,116.45 608.81,116.70 609.56,116.94 610.31,117.19 611.06,117.44 611.81,117.69 612.56,117.93 613.31,118.18 614.06,118.43 614.82,118.67 615.57,118.92 616.32,119.16 617.07,119.40 617.82,119.65 618.57,119.89 619.32,120.13 620.07,120.37 620.82,120.61 621.57,120.86 622.32,121.10 623.07,121.34 623.82,121.58 624.57,121.81 625.33,122.05 626.08,122.29 626.83,122.53 627.58,122.77 628.33,123.00 629.08,123.24 629.83,123.47 630.58,123.71 631.33,123.94 632.08,124.18 632.83,124.41 633.58,124.65 634.33,124.88 635.09,125.11 635.84,125.34 636.59,125.58 637.34,125.81 638.09,126.04 638.84,126.27 639.59,126.50 640.34,126.73 641.09,126.96 641.84,127.18 642.59,127.41 643.34,127.64 644.09,127.87 644.84,128.09 645.60,128.32 646.35,128.55 647.10,128.77 647.85,129.00 648.60,129.22 649.35,129.44 650.10,129.67 650.85,129.89 651.60,130.11 652.35,130.34 653.10,130.56 653.85,130.78 654.60,131.00 655.35,131.22 656.11,131.44 656.86,131.66 657.61,131.88 658.36,132.10 659.11,132.32 659.86,132.54 660.61,132.75 661.36,132.97 662.11,133.19 662.86,133.40 663.61,133.62 664.36,133.84 665.11,134.05 665.87,134.27 666.62,134.48 667.37,134.69 668.12,134.91 668.87,135.12 669.62,135.33 670.37,135.54 671.12,135.76 671.87,135.97 672.62,136.18 673.37,136.39 674.12,136.60 674.87,136.81 675.62,137.02 676.38,137.23 677.13,137.44 677.88,137.64 678.63,137.85 679.38,138.06 680.13,138.26 680.88,138.47 681.63,138.68 682.38,138.88 683.13,139.09 683.88,139.29 684.63,139.50 685.38,139.70 686.13,139.90 686.89,140.11 687.64,140.31 688.39,140.51 689.14,140.72 689.89,140.92 690.64,141.12 691.39,141.32 692.14,141.52 692.89,141.72 693.64,141.92 694.39,142.12 695.14,142.32 695.89,142.52 696.65,142.71 697.40,142.91 698.15,143.11 698.90,143.31 699.65,143.50 700.40,143.70 701.15,143.89 701.90,144.09 702.65,144.29 703.40,144.48 704.15,144.67 704.90,144.87 705.65,145.06 706.40,145.25 707.16,145.45 707.91,145.64 708.66,145.83 709.41,146.02 710.16,146.21 710.91,146.41 711.66,146.60 712.41,146.79 713.16,146.98 713.91,147.17 714.66,147.35 715.41,147.54 716.16,147.73 716.91,147.92 717.67,148.11 718.42,148.29 719.17,148.48 719.92,148.67 720.67,148.85 721.42,149.04 722.17,149.22 722.92,149.41 723.67,149.59 724.42,149.78 725.17,149.96 725.92,150.15 726.67,150.33 727.43,150.51 728.18,150.69 728.93,150.88 729.68,151.06 730.43,151.24 731.18,151.42 731.93,151.60 732.68,151.78 733.43,151.96 734.18,152.14 734.93,152.32 735.68,152.50 736.43,152.68 737.18,152.86 737.94,153.04 738.69,153.21 739.44,153.39 740.19,153.57 740.94,153.74 741.69,153.92 742.44,154.10 743.19,154.27 743.94,154.45 744.69,154.62 745.44,154.80 746.19,154.97 746.94,155.14 747.70,155.32 748.45,155.49 749.20,155.66 749.95,155.84 750.70,156.01 751.45,156.18 752.20,156.35 752.95,156.52 753.70,156.69 754.45,156.86 755.20,157.03 755.95,157.20 756.70,157.37 757.45,157.54 758.21,157.71 758.96,157.88 759.71,158.05 760.46,158.21 761.21,158.38 761.96,158.55 762.71,158.72 763.46,158.88 764.21,159.05 764.96,159.21 765.71,159.38 766.46,159.54 767.21,159.71 767.96,159.87 768.72,160.04 769.47,160.20 770.22,160.37 770.97,160.53 771.72,160.69 772.47,160.85 773.22,161.02 773.97,161.18 774.72,161.34 775.47,161.50 776.22,161.66 776.97,161.82 777.72,161.98 778.48,162.14 779.23,162.30 779.98,162.46 780.73,162.62 781.48,162.78 782.23,162.94 782.98,163.10 783.73,163.26 784.48,163.41 785.23,163.57 785.98,163.73 786.73,163.89 787.48,164.04 788.23,164.20 788.99,164.35 789.74,164.51 790.49,164.66 791.24,164.82 791.99,164.97 792.74,165.13 793.49,165.28 794.24,165.44 794.99,165.59 795.74,165.74 796.49,165.89 797.24,166.05 797.99,166.20 798.74,166.35 799.50,166.50 800.25,166.65 801.00,166.81 801.75,166.96 802.50,167.11 803.25,167.26 804.00,167.48" />
  <text x="420.0" y="22" text-anchor="middle" font-family="Arial, Helvetica, sans-serif" font-size="15" fill="#102a43">exponential_1p0 window (time domain)</text>
  <text x="420.0" y="272" text-anchor="middle" font-family="Arial, Helvetica, sans-serif" font-size="12" fill="#334e68">normalized sample index</text>
  <text x="14" y="140.0" transform="rotate(-90 14,140.0)" text-anchor="middle" font-family="Arial, Helvetica, sans-serif" font-size="12" fill="#334e68">amplitude</text>
  <text x="36" y="262" font-family="Arial, Helvetica, sans-serif" font-size="11" fill="#486581">0</text>
  <text x="804" y="262" text-anchor="end" font-family="Arial, Helvetica, sans-serif" font-size="11" fill="#486581">1</text>
  <text x="30" y="40" text-anchor="end" font-family="Arial, Helvetica, sans-serif" font-size="11" fill="#486581">1.0</text>
  <text x="30" y="248" text-anchor="end" font-family="Arial, Helvetica, sans-serif" font-size="11" fill="#486581">0.0</text>
</svg>
