<svg xmlns="http://www.w3.org/2000/svg" width="840" height="280" viewBox="0 0 840 280">
  <rect x="0" y="0" width="840" height="280" fill="#ffffff" />
  <rect x="36" y="36" width="768" height="208" fill="#f7fbff" stroke="#c8d9e6" />
  <polyline fill="none" stroke="#005f73" stroke-width="2" points="36.00,240.19 36.75,240.16 37.50,240.13 38.25,240.10 39.00,240.07 39.75,240.04 40.50,240.01 41.26,239.98 42.01,239.94 42.76,239.91 43.51,239.88 44.26,239.85 45.01,239.82 45.76,239.78 46.51,239.75 47.26,239.72 48.01,239.68 48.76,239.65 49.51,239.61 50.26,239.58 51.01,239.55 51.77,239.51 52.52,239.48 53.27,239.44 54.02,239.40 54.77,239.37 55.52,239.33 56.27,239.30 57.02,239.26 57.77,239.22 58.52,239.18 59.27,239.15 60.02,239.11 60.77,239.07 61.52,239.03 62.28,238.99 63.03,238.95 63.78,238.91 64.53,238.87 65.28,238.83 66.03,238.79 66.78,238.75 67.53,238.71 68.28,238.67 69.03,238.63 69.78,238.58 70.53,238.54 71.28,238.50 72.04,238.46 72.79,238.41 73.54,238.37 74.29,238.32 75.04,238.28 75.79,238.24 76.54,238.19 77.29,238.14 78.04,238.10 78.79,238.05 79.54,238.01 80.29,237.96 81.04,237.91 81.79,237.86 82.55,237.81 83.30,237.77 84.05,237.72 84.80,237.67 85.55,237.62 86.30,237.57 87.05,237.52 87.80,237.47 88.55,237.42 89.30,237.36 90.05,237.31 90.80,237.26 91.55,237.21 92.30,237.15 93.06,237.10 93.81,237.05 94.56,236.99 95.31,236.94 96.06,236.88 96.81,236.82 97.56,236.77 98.31,236.71 99.06,236.65 99.81,236.60 100.56,236.54 101.31,236.48 102.06,236.42 102.82,236.36 103.57,236.30 104.32,236.24 105.07,236.18 105.82,236.12 106.57,236.06 107.32,235.99 108.07,235.93 108.82,235.87 109.57,235.80 110.32,235.74 111.07,235.68 111.82,235.61 112.57,235.54 113.33,235.48 114.08,235.41 114.83,235.34 115.58,235.28 116.33,235.21 117.08,235.14 117.83,235.07 118.58,235.00 119.33,234.93 120.08,234.86 120.83,234.79 121.58,234.71 122.33,234.64 123.09,234.57 123.84,234.49 124.59,234.42 125.34,234.34 126.09,234.27 126.84,234.19 127.59,234.11 128.34,234.04 129.09,233.96 129.84,233.88 130.59,233.80 131.34,233.72 132.09,233.64 132.84,233.56 133.60,233.48 134.35,233.39 135.10,233.31 135.85,233.23 136.60,233.14 137.35,233.06 138.10,232.97 138.85,232.88 139.60,232.80 140.35,232.71 141.10,232.62 141.85,232.53 142.60,232.44 143.35,232.35 144.11,232.26 144.86,232.17 145.61,232.07 146.36,231.98 147.11,231.89 147.86,231.79 148.61,231.70 149.36,231.60 150.11,231.50 150.86,231.40 151.61,231.30 152.36,231.20 153.11,231.10 153.87,231.00 154.62,230.90 155.37,230.80 156.12,230.69 156.87,230.59 157.62,230.49 158.37,230.38 159.12,230.27 159.87,230.16 160.62,230.06 161.37,229.95 162.12,229.84 162.87,229.73 163.62,229.61 164.38,229.50 165.13,229.39 165.88,229.27 166.63,229.16 167.38,229.04 168.13,228.92 168.88,228.80 169.63,228.68 170.38,228.56 171.13,228.44 171.88,228.32 172.63,228.20 173.38,228.07 174.13,227.95 174.89,227.82 175.64,227.70 176.39,227.57 177.14,227.44 177.89,227.31 178.64,227.18 179.39,227.05 180.14,226.91 180.89,226.78 181.64,226.64 182.39,226.51 183.14,226.37 183.89,226.23 184.65,226.09 185.40,225.95 186.15,225.81 186.90,225.67 187.65,225.52 188.40,225.38 189.15,225.23 189.90,225.09 190.65,224.94 191.40,224.79 192.15,224.64 192.90,224.49 193.65,224.33 194.40,224.18 195.16,224.02 195.91,223.87 196.66,223.71 197.41,223.55 198.16,223.39 198.91,223.23 199.66,223.06 200.41,222.90 201.16,222.73 201.91,222.57 202.66,222.40 203.41,222.23 204.16,222.06 204.91,221.89 205.67,221.71 206.42,221.54 207.17,221.36 207.92,221.18 208.67,221.00 209.42,220.82 210.17,220.64 210.92,220.46 211.67,220.27 212.42,220.09 213.17,219.90 213.92,219.71 214.67,219.52 215.43,219.33 216.18,219.14 216.93,218.94 217.68,218.74 218.43,218.55 219.18,218.35 219.93,218.14 220.68,217.94 221.43,217.74 222.18,217.53 222.93,217.32 223.68,217.11 224.43,216.90 225.18,216.69 225.94,216.48 226.69,216.26 227.44,216.04 228.19,215.82 228.94,215.60 229.69,215.38 230.44,215.15 231.19,214.93 231.94,214.70 232.69,214.47 233.44,214.24 234.19,214.00 234.94,213.77 235.70,213.53 236.45,213.29 237.20,213.05 237.95,212.81 238.70,212.56 239.45,212.32 240.20,212.07 240.95,211.82 241.70,211.57 242.45,211.31 243.20,211.05 243.95,210.80 244.70,210.54 245.45,210.27 246.21,210.01 246.96,209.74 247.71,209.47 248.46,209.20 249.21,208.93 249.96,208.65 250.71,208.38 251.46,208.10 252.21,207.82 252.96,207.53 253.71,207.25 254.46,206.96 255.21,206.67 255.96,206.37 256.72,206.08 257.47,205.78 258.22,205.48 258.97,205.18 259.72,204.87 260.47,204.57 261.22,204.26 261.97,203.95 262.72,203.63 263.47,203.31 264.22,202.99 264.97,202.67 265.72,202.35 266.48,202.02 267.23,201.69 267.98,201.36 268.73,201.03 269.48,200.69 270.23,200.35 270.98,200.01 271.73,199.66 272.48,199.31 273.23,198.96 273.98,198.61 274.73,198.25 275.48,197.89 276.23,197.53 276.99,197.17 277.74,196.80 278.49,196.43 279.24,196.06 279.99,195.68 280.74,195.30 281.49,194.92 282.24,194.53 282.99,194.15 283.74,193.75 284.49,193.36 285.24,192.96 285.99,192.56 286.74,192.16 287.50,191.75 288.25,191.34 289.00,190.93 289.75,190.51 290.50,190.09 291.25,189.67 292.00,189.24 292.75,188.81 293.50,188.38 294.25,187.94 295.00,187.50 295.75,187.06 296.50,186.61 297.26,186.16 298.01,185.71 298.76,185.25 299.51,184.79 300.26,184.33 301.01,183.86 301.76,183.39 302.51,182.91 303.26,182.43 304.01,181.95 304.76,181.46 305.51,180.97 306.26,180.48 307.01,179.98 307.77,179.48 308.52,178.97 309.27,178.46 310.02,177.94 310.77,177.43 311.52,176.90 312.27,176.38 313.02,175.85 313.77,175.31 314.52,174.77 315.27,174.23 316.02,173.68 316.77,173.13 317.52,172.57 318.28,172.01 319.03,171.45 319.78,170.88 320.53,170.31 321.28,169.73 322.03,169.14 322.78,168.56 323.53,167.97 324.28,167.37 325.03,166.77 325.78,166.16 326.53,165.55 327.28,164.94 328.04,164.31 328.79,163.69 329.54,163.06 330.29,162.42 331.04,161.78 331.79,161.14 332.54,160.49 333.29,159.83 334.04,159.17 334.79,158.51 335.54,157.84 336.29,157.16 337.04,156.48 337.79,155.79 338.55,155.10 339.30,154.40 340.05,153.70 340.80,152.99 341.55,152.28 342.30,151.56 343.05,150.83 343.80,150.10 344.55,149.36 345.30,148.62 346.05,147.87 346.80,147.12 347.55,146.36 348.30,145.59 349.06,144.82 349.81,144.04 350.56,143.26 351.31,142.47 352.06,141.67 352.81,140.87 353.56,140.06 354.31,139.24 355.06,138.42 355.81,137.59 356.56,136.76 357.31,135.91 358.06,135.07 358.82,134.21 359.57,133.35 360.32,132.48 361.07,131.61 361.82,130.72 362.57,129.84 363.32,128.94 364.07,128.04 364.82,127.13 365.57,126.21 366.32,125.29 367.07,124.35 367.82,123.42 368.57,122.47 369.33,121.52 370.08,120.55 370.83,119.59 371.58,118.61 372.33,117.63 373.08,116.63 373.83,115.63 374.58,114.63 375.33,113.61 376.08,112.59 376.83,111.56 377.58,110.52 378.33,109.47 379.09,108.42 379.84,107.35 380.59,106.28 381.34,105.20 382.09,104.11 382.84,103.01 383.59,101.91 384.34,100.79 385.09,99.67 385.84,98.53 386.59,97.39 387.34,96.24 388.09,95.08 388.84,93.91 389.60,92.74 390.35,91.55 391.10,90.35 391.85,89.15 392.60,87.93 393.35,86.71 394.10,85.47 394.85,84.23 395.60,82.98 396.35,81.71 397.10,80.44 397.85,79.16 398.60,77.86 399.35,76.56 400.11,75.24 400.86,73.92 401.61,72.59 402.36,71.24 403.11,69.88 403.86,68.52 404.61,67.14 405.36,65.75 406.11,64.36 406.86,62.95 407.61,61.52 408.36,60.09 409.11,58.65 409.87,57.20 410.62,55.73 411.37,54.25 412.12,52.76 412.87,51.26 413.62,49.75 414.37,48.23 415.12,46.69 415.87,45.14 416.62,43.58 417.37,42.01 418.12,40.42 418.87,38.83 419.62,37.22 420.38,36.41 421.13,38.02 421.88,39.63 422.63,41.22 423.38,42.80 424.13,44.36 424.88,45.92 425.63,47.46 426.38,48.99 427.13,50.51 427.88,52.01 428.63,53.51 429.38,54.99 430.13,56.46 430.89,57.92 431.64,59.37 432.39,60.81 433.14,62.24 433.89,63.65 434.64,65.06 435.39,66.45 436.14,67.83 436.89,69.20 437.64,70.56 438.39,71.91 439.14,73.25 439.89,74.58 440.65,75.90 441.40,77.21 442.15,78.51 442.90,79.80 443.65,81.08 444.40,82.35 445.15,83.60 445.90,84.85 446.65,86.09 447.40,87.32 448.15,88.54 448.90,89.75 449.65,90.95 450.40,92.14 451.16,93.33 451.91,94.50 452.66,95.66 453.41,96.82 454.16,97.96 454.91,99.10 455.66,100.23 456.41,101.35 457.16,102.46 457.91,103.56 458.66,104.66 459.41,105.74 460.16,106.82 460.91,107.88 461.67,108.94 462.42,110.00 463.17,111.04 463.92,112.07 464.67,113.10 465.42,114.12 466.17,115.13 466.92,116.14 467.67,117.13 468.42,118.12 469.17,119.10 469.92,120.07 470.67,121.04 471.43,121.99 472.18,122.94 472.93,123.89 473.68,124.82 474.43,125.75 475.18,126.67 475.93,127.58 476.68,128.49 477.43,129.39 478.18,130.28 478.93,131.17 479.68,132.05 480.43,132.92 481.18,133.78 481.94,134.64 482.69,135.49 483.44,136.34 484.19,137.17 484.94,138.01 485.69,138.83 486.44,139.65 487.19,140.46 487.94,141.27 488.69,142.07 489.44,142.86 490.19,143.65 490.94,144.43 491.70,145.21 492.45,145.98 493.20,146.74 493.95,147.50 494.70,148.25 495.45,148.99 496.20,149.73 496.95,150.47 497.70,151.19 498.45,151.92 499.20,152.63 499.95,153.35 500.70,154.05 501.45,154.75 502.21,155.45 502.96,156.14 503.71,156.82 504.46,157.50 505.21,158.17 505.96,158.84 506.71,159.50 507.46,160.16 508.21,160.81 508.96,161.46 509.71,162.10 510.46,162.74 511.21,163.37 511.96,164.00 512.72,164.63 513.47,165.24 514.22,165.86 514.97,166.47 515.72,167.07 516.47,167.67 517.22,168.26 517.97,168.85 518.72,169.44 519.47,170.02 520.22,170.59 520.97,171.16 521.72,171.73 522.48,172.29 523.23,172.85 523.98,173.41 524.73,173.96 525.48,174.50 526.23,175.04 526.98,175.58 527.73,176.11 528.48,176.64 529.23,177.17 529.98,177.69 530.73,178.20 531.48,178.71 532.23,179.22 532.99,179.73 533.74,180.23 534.49,180.72 535.24,181.22 535.99,181.71 536.74,182.19 537.49,182.67 538.24,183.15 538.99,183.62 539.74,184.09 540.49,184.56 541.24,185.02 541.99,185.48 542.74,185.94 543.50,186.39 544.25,186.84 545.00,187.28 545.75,187.72 546.50,188.16 547.25,188.60 548.00,189.03 548.75,189.46 549.50,189.88 550.25,190.30 551.00,190.72 551.75,191.14 552.50,191.55 553.26,191.96 554.01,192.36 554.76,192.76 555.51,193.16 556.26,193.56 557.01,193.95 557.76,194.34 558.51,194.73 559.26,195.11 560.01,195.49 560.76,195.87 561.51,196.24 562.26,196.62 563.01,196.98 563.77,197.35 564.52,197.71 565.27,198.07 566.02,198.43 566.77,198.79 567.52,199.14 568.27,199.49 569.02,199.83 569.77,200.18 570.52,200.52 571.27,200.86 572.02,201.19 572.77,201.53 573.52,201.86 574.28,202.19 575.03,202.51 575.78,202.83 576.53,203.15 577.28,203.47 578.03,203.79 578.78,204.10 579.53,204.41 580.28,204.72 581.03,205.03 581.78,205.33 582.53,205.63 583.28,205.93 584.04,206.23 584.79,206.52 585.54,206.81 586.29,207.10 587.04,207.39 587.79,207.67 588.54,207.96 589.29,208.24 590.04,208.52 590.79,208.79 591.54,209.07 592.29,209.34 593.04,209.61 593.79,209.88 594.55,210.14 595.30,210.40 596.05,210.67 596.80,210.93 597.55,211.18 598.30,211.44 599.05,211.69 599.80,211.94 600.55,212.19 601.30,212.44 602.05,212.69 602.80,212.93 603.55,213.17 604.30,213.41 605.06,213.65 605.81,213.89 606.56,214.12 607.31,214.35 608.06,214.58 608.81,214.81 609.56,215.04 610.31,215.27 611.06,215.49 611.81,215.71 612.56,215.93 613.31,216.15 614.06,216.37 614.82,216.58 615.57,216.80 616.32,217.01 617.07,217.22 617.82,217.43 618.57,217.63 619.32,217.84 620.07,218.04 620.82,218.25 621.57,218.45 622.32,218.64 623.07,218.84 623.82,219.04 624.57,219.23 625.33,219.43 626.08,219.62 626.83,219.81 627.58,219.99 628.33,220.18 629.08,220.37 629.83,220.55 630.58,220.73 631.33,220.91 632.08,221.09 632.83,221.27 633.58,221.45 634.33,221.63 635.09,221.80 635.84,221.97 636.59,222.14 637.34,222.31 638.09,222.48 638.84,222.65 639.59,222.82 640.34,222.98 641.09,223.15 641.84,223.31 642.59,223.47 643.34,223.63 644.09,223.79 644.84,223.94 645.60,224.10 646.35,224.26 647.10,224.41 647.85,224.56 648.60,224.71 649.35,224.86 650.10,225.01 650.85,225.16 651.60,225.31 652.35,225.45 653.10,225.60 653.85,225.74 654.60,225.88 655.35,226.02 656.11,226.16 656.86,226.30 657.61,226.44 658.36,226.58 659.11,226.71 659.86,226.85 660.61,226.98 661.36,227.11 662.11,227.24 662.86,227.37 663.61,227.50 664.36,227.63 665.11,227.76 665.87,227.89 666.62,228.01 667.37,228.14 668.12,228.26 668.87,228.38 669.62,228.50 670.37,228.62 671.12,228.74 671.87,228.86 672.62,228.98 673.37,229.10 674.12,229.21 674.87,229.33 675.62,229.44 676.38,229.56 677.13,229.67 677.88,229.78 678.63,229.89 679.38,230.00 680.13,230.11 680.88,230.22 681.63,230.33 682.38,230.43 683.13,230.54 683.88,230.64 684.63,230.75 685.38,230.85 686.13,230.95 686.89,231.05 687.64,231.15 688.39,231.25 689.14,231.35 689.89,231.45 690.64,231.55 691.39,231.65 692.14,231.74 692.89,231.84 693.64,231.93 694.39,232.03 695.14,232.12 695.89,232.21 696.65,232.30 697.40,232.40 698.15,232.49 698.90,232.58 699.65,232.66 700.40,232.75 701.15,232.84 701.90,232.93 702.65,233.01 703.40,233.10 704.15,233.18 704.90,233.27 705.65,233.35 706.40,233.43 707.16,233.52 707.91,233.60 708.66,233.68 709.41,233.76 710.16,233.84 710.91,233.92 711.66,234.00 712.41,234.08 713.16,234.15 713.91,234.23 714.66,234.31 715.41,234.38 716.16,234.46 716.91,234.53 717.67,234.60 718.42,234.68 719.17,234.75 719.92,234.82 720.67,234.89 721.42,234.96 722.17,235.03 722.92,235.10 723.67,235.17 724.42,235.24 725.17,235.31 725.92,235.38 726.67,235.44 727.43,235.51 728.18,235.58 728.93,235.64 729.68,235.71 730.43,235.77 731.18,235.84 731.93,235.90 732.68,235.96 733.43,236.03 734.18,236.09 734.93,236.15 735.68,236.21 736.43,236.27 737.18,236.33 737.94,236.39 738.69,236.45 739.44,236.51 740.19,236.57 740.94,236.63 741.69,236.68 742.44,236.74 743.19,236.80 743.94,236.85 744.69,236.91 745.44,236.96 746.19,237.02 746.94,237.07 747.70,237.13 748.45,237.18 749.20,237.23 749.95,237.29 750.70,237.34 751.45,237.39 752.20,237.44 752.95,237.49 753.70,237.54 754.45,237.59 755.20,237.64 755.95,237.69 756.70,237.74 757.45,237.79 758.21,237.84 758.96,237.89 759.71,237.93 760.46,237.98 761.21,238.03 761.96,238.08 762.71,238.12 763.46,238.17 764.21,238.21 764.96,238.26 765.71,238.30 766.46,238.35 767.21,238.39 767.96,238.43 768.72,238.48 769.47,238.52 770.22,238.56 770.97,238.61 771.72,238.65 772.47,238.69 773.22,238.73 773.97,238.77 774.72,238.81 775.47,238.85 776.22,238.89 776.97,238.93 777.72,238.97 778.48,239.01 779.23,239.05 779.98,239.09 780.73,239.13 781.48,239.16 782.23,239.20 782.98,239.24 783.73,239.28 784.48,239.31 785.23,239.35 785.98,239.39 786.73,239.42 787.48,239.46 788.23,239.49 788.99,239.53 789.74,239.56 790.49,239.60 791.24,239.63 791.99,239.67 792.74,239.70 793.49,239.73 794.24,239.77 794.99,239.80 795.74,239.83 796.49,239.86 797.24,239.90 797.99,239.93 798.74,239.96 799.50,239.99 800.25,240.02 801.00,240.05 801.75,240.08 802.50,240.12 803.25,240.15 804.00,240.19" />
  <text x="420.0" y="22" text-anchor="middle" font-family="Arial, Helvetica, sans-serif" font-size="15" fill="#102a43">exponential_0p25 window (time domain)</text>
  <text x="420.0" y="272" text-anchor="middle" font-family="Arial, Helvetica, sans-serif" font-size="12" fill="#334e68">normalized sample index</text>
  <text x="14" y="140.0" transform="rotate(-90 14,140.0)" text-anchor="middle" font-family="Arial, Helvetica, sans-serif" font-size="12" fill="#334e68">amplitude</text>
  <text x="36" y="262" font-family="Arial, Helvetica, sans-serif" font-size="11" fill="#486581">0</text>
  <text x="804" y="262" text-anchor="end" font-family="Arial, Helvetica, sans-serif" font-size="11" fill="#486581">1</text>
  <text x="30" y="40" text-anchor="end" font-family="Arial, Helvetica, sans-serif" font-size="11" fill="#486581">1.0</text>
  <text x="30" y="248" text-anchor="end" font-family="Arial, Helvetica, sans-serif" font-size="11" fill="#486581">0.0</text>
</svg>
