<svg xmlns="http://www.w3.org/2000/svg" width="840" height="280" viewBox="0 0 840 280">
  <rect x="0" y="0" width="840" height="280" fill="#ffffff" />
  <rect x="36" y="36" width="768" height="208" fill="#f7fbff" stroke="#c8d9e6" />
  <polyline fill="none" stroke="#005f73" stroke-width="2" points="36.00,36.00 36.75,54.22 37.50,77.78 38.25,78.07 39.00,93.22 39.75,89.52 40.50,102.34 41.26,97.10 42.01,108.82 42.76,102.76 43.51,113.85 44.26,107.29 45.01,117.97 45.76,111.06 46.51,121.45 47.26,114.29 48.01,114.43 48.76,130.93 49.51,116.28 50.26,137.17 51.01,117.91 51.77,145.04 52.52,119.36 53.27,158.75 54.02,120.66 54.77,163.05 55.52,121.84 56.27,151.52 57.02,122.92 57.77,147.20 58.52,123.92 59.27,144.83 60.02,118.59 60.77,125.89 61.52,119.37 62.28,126.18 63.03,120.11 63.78,126.49 64.53,120.80 65.28,126.81 66.03,121.45 66.78,127.13 67.53,122.06 68.28,127.45 69.03,122.65 69.78,127.77 70.53,123.20 71.28,128.08 72.04,119.58 72.79,122.68 73.54,120.07 74.29,123.04 75.04,120.54 75.79,123.39 76.54,120.99 77.29,123.74 78.04,121.43 78.79,124.07 79.54,121.85 80.29,124.40 81.04,122.25 81.79,124.71 82.55,122.64 83.30,125.02 84.05,119.96 84.80,121.72 85.55,120.32 86.30,122.03 87.05,120.67 87.80,122.32 88.55,121.01 89.30,122.61 90.05,121.34 90.80,122.90 91.55,121.66 92.30,123.17 93.06,121.97 93.81,123.44 94.56,122.27 95.31,123.71 96.06,120.16 96.81,121.31 97.56,120.45 98.31,121.57 99.06,120.73 99.81,121.82 100.56,121.00 101.31,122.06 102.06,121.26 102.82,122.30 103.57,121.52 104.32,122.54 105.07,121.77 105.82,122.77 106.57,122.02 107.32,122.99 108.07,120.29 108.82,121.11 109.57,120.53 110.32,121.33 111.07,120.76 111.82,121.54 112.57,120.99 113.33,121.75 114.08,121.21 114.83,121.96 115.58,121.42 116.33,122.16 117.08,121.64 117.83,122.36 118.58,121.85 119.33,122.55 120.08,120.40 120.83,121.01 121.58,120.60 122.33,121.20 123.09,120.79 123.84,121.38 124.59,120.99 125.34,121.57 126.09,121.18 126.84,121.75 127.59,121.36 128.34,121.93 129.09,121.55 129.84,122.10 130.59,121.73 131.34,122.27 132.09,120.48 132.84,120.96 133.60,120.66 134.35,121.13 135.10,120.83 135.85,121.30 136.60,121.00 137.35,121.46 138.10,121.17 138.85,121.62 139.60,121.33 140.35,121.78 141.10,121.49 141.85,121.93 142.60,121.65 143.35,122.08 144.11,120.57 144.86,120.96 145.61,120.72 146.36,121.11 147.11,120.88 147.86,121.25 148.61,121.03 149.36,121.40 150.11,121.17 150.86,121.54 151.61,121.32 152.36,121.68 153.11,121.46 153.87,121.82 154.62,121.61 155.37,121.96 156.12,120.65 156.87,120.97 157.62,120.79 158.37,121.11 159.12,120.93 159.87,121.24 160.62,121.06 161.37,121.37 162.12,121.20 162.87,121.50 163.62,121.33 164.38,121.63 165.13,121.46 165.88,121.76 166.63,121.59 167.38,121.88 168.13,120.74 168.88,121.01 169.63,120.86 170.38,121.13 171.13,120.99 171.88,121.25 172.63,121.11 173.38,121.37 174.13,121.23 174.89,121.49 175.64,121.35 176.39,121.61 177.14,121.47 177.89,121.72 178.64,121.59 179.39,121.84 180.14,120.83 180.89,121.06 181.64,120.94 182.39,121.18 183.14,121.06 183.89,121.29 184.65,121.17 185.40,121.40 186.15,121.28 186.90,121.50 187.65,121.39 188.40,121.61 189.15,121.50 189.90,121.72 190.65,121.60 191.40,121.82 192.15,120.93 192.90,121.13 193.65,121.03 194.40,121.23 195.16,121.13 195.91,121.33 196.66,121.24 197.41,121.43 198.16,121.34 198.91,121.53 199.66,121.44 200.41,121.63 201.16,121.54 201.91,121.73 202.66,121.64 203.41,121.83 204.16,121.03 204.91,121.21 205.67,121.12 206.42,121.30 207.17,121.22 207.92,121.40 208.67,121.31 209.42,121.49 210.17,121.41 210.92,121.58 211.67,121.50 212.42,121.67 213.17,121.59 213.92,121.76 214.67,121.69 215.43,121.85 216.18,121.14 216.93,121.30 217.68,121.22 218.43,121.38 219.18,121.31 219.93,121.47 220.68,121.40 221.43,121.56 222.18,121.49 222.93,121.64 223.68,121.58 224.43,121.73 225.18,121.66 225.94,121.81 226.69,121.75 227.44,121.90 228.19,121.25 228.94,121.39 229.69,121.33 230.44,121.48 231.19,121.42 231.94,121.56 232.69,121.50 233.44,121.64 234.19,121.58 234.94,121.72 235.70,121.66 236.45,121.80 237.20,121.74 237.95,121.88 238.70,121.82 239.45,121.96 240.20,121.37 240.95,121.50 241.70,121.45 242.45,121.58 243.20,121.53 243.95,121.66 244.70,121.60 245.45,121.73 246.21,121.68 246.96,121.81 247.71,121.76 248.46,121.88 249.21,121.83 249.96,121.95 250.71,121.91 251.46,122.03 252.21,121.50 252.96,121.62 253.71,121.58 254.46,121.69 255.21,121.65 255.96,121.76 256.72,121.72 257.47,121.84 258.22,121.79 258.97,121.91 259.72,121.86 260.47,121.98 261.22,121.93 261.97,122.05 262.72,122.00 263.47,122.11 264.22,121.64 264.97,121.75 265.72,121.71 266.48,121.82 267.23,121.78 267.98,121.88 268.73,121.84 269.48,121.95 270.23,121.91 270.98,122.02 271.73,121.98 272.48,122.08 273.23,122.04 273.98,122.15 274.73,122.11 275.48,122.21 276.23,121.79 276.99,121.89 277.74,121.85 278.49,121.95 279.24,121.91 279.99,122.01 280.74,121.98 281.49,122.08 282.24,122.04 282.99,122.14 283.74,122.10 284.49,122.20 285.24,122.17 285.99,122.26 286.74,122.23 287.50,122.32 288.25,121.94 289.00,122.03 289.75,122.00 290.50,122.09 291.25,122.06 292.00,122.15 292.75,122.12 293.50,122.21 294.25,122.18 295.00,122.27 295.75,122.24 296.50,122.33 297.26,122.30 298.01,122.39 298.76,122.36 299.51,122.45 300.26,122.10 301.01,122.19 301.76,122.16 302.51,122.25 303.26,122.22 304.01,122.30 304.76,122.27 305.51,122.36 306.26,122.33 307.01,122.41 307.77,122.39 308.52,122.47 309.27,122.44 310.02,122.53 310.77,122.50 311.52,122.58 312.27,122.27 313.02,122.35 313.77,122.33 314.52,122.41 315.27,122.38 316.02,122.46 316.77,122.44 317.52,122.52 318.28,122.49 319.03,122.57 319.78,122.54 320.53,122.62 321.28,122.60 322.03,122.67 322.78,122.65 323.53,122.73 324.28,122.46 325.03,122.53 325.78,122.51 326.53,122.58 327.28,122.56 328.04,122.63 328.79,122.61 329.54,122.68 330.29,122.66 331.04,122.73 331.79,122.71 332.54,122.78 333.29,122.76 334.04,122.83 334.79,122.81 335.54,122.88 336.29,122.65 337.04,122.72 337.79,122.70 338.55,122.77 339.30,122.75 340.05,122.81 340.80,122.79 341.55,122.86 342.30,122.84 343.05,122.91 343.80,122.89 344.55,122.96 345.30,122.94 346.05,123.00 346.80,122.98 347.55,123.05 348.30,122.85 349.06,122.91 349.81,122.90 350.56,122.96 351.31,122.94 352.06,123.01 352.81,122.99 353.56,123.05 354.31,123.03 355.06,123.10 355.81,123.08 356.56,123.14 357.31,123.12 358.06,123.19 358.82,123.17 359.57,123.23 360.32,123.06 361.07,123.12 361.82,123.10 362.57,123.17 363.32,123.15 364.07,123.21 364.82,123.19 365.57,123.25 366.32,123.24 367.07,123.30 367.82,123.28 368.57,123.34 369.33,123.32 370.08,123.38 370.83,123.36 371.58,123.42 372.33,123.28 373.08,123.34 373.83,123.32 374.58,123.38 375.33,123.37 376.08,123.42 376.83,123.41 377.58,123.47 378.33,123.45 379.09,123.51 379.84,123.49 380.59,123.55 381.34,123.53 382.09,123.59 382.84,123.57 383.59,123.63 384.34,123.52 385.09,123.57 385.84,123.56 386.59,123.61 387.34,123.60 388.09,123.65 388.84,123.64 389.60,123.69 390.35,123.68 391.10,123.73 391.85,123.71 392.60,123.77 393.35,123.75 394.10,123.81 394.85,123.79 395.60,123.84 396.35,123.76 397.10,123.81 397.85,123.80 398.60,123.85 399.35,123.84 400.11,123.89 400.86,123.88 401.61,123.93 402.36,123.91 403.11,123.96 403.86,123.95 404.61,124.00 405.36,123.99 406.11,124.04 406.86,124.02 407.61,124.07 408.36,124.02 409.11,124.07 409.87,124.06 410.62,124.11 411.37,124.09 412.12,124.14 412.87,124.13 413.62,124.18 414.37,124.16 415.12,124.21 415.87,124.20 416.62,124.25 417.37,124.23 418.12,124.28 418.87,124.27 419.62,124.32 420.38,124.29 421.13,124.34 421.88,124.33 422.63,124.37 423.38,124.36 424.13,124.41 424.88,124.39 425.63,124.44 426.38,124.43 427.13,124.47 427.88,124.46 428.63,124.51 429.38,124.49 430.13,124.54 430.89,124.53 431.64,124.57 432.39,124.57 433.14,124.62 433.89,124.61 434.64,124.65 435.39,124.64 436.14,124.68 436.89,124.67 437.64,124.72 438.39,124.71 439.14,124.75 439.89,124.74 440.65,124.78 441.40,124.77 442.15,124.81 442.90,124.80 443.65,124.84 444.40,124.87 445.15,124.92 445.90,124.90 446.65,124.95 447.40,124.94 448.15,124.98 448.90,124.97 449.65,125.01 450.40,125.00 451.16,125.04 451.91,125.03 452.66,125.07 453.41,125.06 454.16,125.10 454.91,125.09 455.66,125.13 456.41,125.19 457.16,125.23 457.91,125.22 458.66,125.26 459.41,125.25 460.16,125.29 460.91,125.28 461.67,125.32 462.42,125.31 463.17,125.35 463.92,125.33 464.67,125.37 465.42,125.36 466.17,125.40 466.92,125.39 467.67,125.43 468.42,125.52 469.17,125.56 469.92,125.55 470.67,125.58 471.43,125.57 472.18,125.61 472.93,125.60 473.68,125.64 474.43,125.63 475.18,125.67 475.93,125.66 476.68,125.69 477.43,125.68 478.18,125.72 478.93,125.71 479.68,125.75 480.43,125.86 481.18,125.90 481.94,125.89 482.69,125.93 483.44,125.92 484.19,125.95 484.94,125.94 485.69,125.98 486.44,125.97 487.19,126.01 487.94,126.00 488.69,126.03 489.44,126.02 490.19,126.06 490.94,126.05 491.70,126.08 492.45,126.23 493.20,126.26 493.95,126.25 494.70,126.29 495.45,126.28 496.20,126.31 496.95,126.30 497.70,126.34 498.45,126.33 499.20,126.36 499.95,126.35 500.70,126.39 501.45,126.38 502.21,126.41 502.96,126.40 503.71,126.44 504.46,126.61 505.21,126.65 505.96,126.64 506.71,126.67 507.46,126.66 508.21,126.69 508.96,126.68 509.71,126.72 510.46,126.71 511.21,126.74 511.96,126.73 512.72,126.76 513.47,126.75 514.22,126.79 514.97,126.78 515.72,126.81 516.47,127.02 517.22,127.05 517.97,127.04 518.72,127.07 519.47,127.06 520.22,127.09 520.97,127.08 521.72,127.12 522.48,127.11 523.23,127.14 523.98,127.13 524.73,127.16 525.48,127.15 526.23,127.18 526.98,127.17 527.73,127.21 528.48,127.44 529.23,127.47 529.98,127.46 530.73,127.49 531.48,127.48 532.23,127.52 532.99,127.51 533.74,127.54 534.49,127.53 535.24,127.56 535.99,127.55 536.74,127.58 537.49,127.57 538.24,127.60 538.99,127.59 539.74,127.62 540.49,127.89 541.24,127.92 541.99,127.91 542.74,127.94 543.50,127.93 544.25,127.96 545.00,127.95 545.75,127.98 546.50,127.97 547.25,128.00 548.00,127.99 548.75,128.02 549.50,128.01 550.25,128.04 551.00,128.03 551.75,128.06 552.50,128.37 553.26,128.40 554.01,128.39 554.76,128.42 555.51,128.41 556.26,128.43 557.01,128.42 557.76,128.45 558.51,128.44 559.26,128.47 560.01,128.46 560.76,128.49 561.51,128.48 562.26,128.51 563.01,128.50 563.77,128.53 564.52,128.87 565.27,128.90 566.02,128.89 566.77,128.92 567.52,128.91 568.27,128.94 569.02,128.93 569.77,128.95 570.52,128.94 571.27,128.97 572.02,128.96 572.77,128.99 573.52,128.98 574.28,129.01 575.03,129.00 575.78,129.02 576.53,129.40 577.28,129.43 578.03,129.42 578.78,129.45 579.53,129.44 580.28,129.47 581.03,129.46 581.78,129.48 582.53,129.47 583.28,129.50 584.04,129.49 584.79,129.52 585.54,129.51 586.29,129.53 587.04,129.52 587.79,129.55 588.54,129.97 589.29,130.00 590.04,129.99 590.79,130.01 591.54,130.00 592.29,130.03 593.04,130.02 593.79,130.05 594.55,130.04 595.30,130.06 596.05,130.05 596.80,130.08 597.55,130.07 598.30,130.09 599.05,130.08 599.80,130.11 600.55,130.58 601.30,130.60 602.05,130.59 602.80,130.62 603.55,130.61 604.30,130.63 605.06,130.62 605.81,130.65 606.56,130.64 607.31,130.66 608.06,130.65 608.81,130.68 609.56,130.67 610.31,130.69 611.06,130.68 611.81,130.71 612.56,131.22 613.31,131.25 614.06,131.24 614.82,131.26 615.57,131.25 616.32,131.28 617.07,131.27 617.82,131.29 618.57,131.28 619.32,131.30 620.07,131.29 620.82,131.32 621.57,131.31 622.32,131.33 623.07,131.32 623.82,131.34 624.57,131.92 625.33,131.94 626.08,131.93 626.83,131.95 627.58,131.94 628.33,131.97 629.08,131.96 629.83,131.98 630.58,131.97 631.33,131.99 632.08,131.98 632.83,132.01 633.58,132.00 634.33,132.02 635.09,132.01 635.84,132.03 636.59,132.66 637.34,132.69 638.09,132.68 638.84,132.70 639.59,132.69 640.34,132.71 641.09,132.70 641.84,132.72 642.59,132.71 643.34,132.73 644.09,132.72 644.84,132.75 645.60,132.74 646.35,132.76 647.10,132.75 647.85,132.77 648.60,133.47 649.35,133.49 650.10,133.48 650.85,133.50 651.60,133.49 652.35,133.51 653.10,133.50 653.85,133.52 654.60,133.51 655.35,133.53 656.11,133.52 656.86,133.55 657.61,133.54 658.36,133.56 659.11,133.55 659.86,133.57 660.61,134.34 661.36,134.37 662.11,134.35 662.86,134.38 663.61,134.36 664.36,134.39 665.11,134.37 665.87,134.40 666.62,134.39 667.37,134.41 668.12,134.40 668.87,134.42 669.62,134.41 670.37,134.43 671.12,134.41 671.87,134.43 672.62,135.30 673.37,135.32 674.12,135.31 674.87,135.33 675.62,135.32 676.38,135.34 677.13,135.33 677.88,135.35 678.63,135.34 679.38,135.36 680.13,135.35 680.88,135.37 681.63,135.36 682.38,135.37 683.13,135.36 683.88,135.38 684.63,136.35 685.38,136.37 686.13,136.36 686.89,136.38 687.64,136.37 688.39,136.39 689.14,136.38 689.89,136.40 690.64,136.39 691.39,136.41 692.14,136.39 692.89,136.41 693.64,136.40 694.39,136.42 695.14,136.41 695.89,136.43 696.65,137.52 697.40,137.54 698.15,137.53 698.90,137.55 699.65,137.54 700.40,137.55 701.15,137.54 701.90,137.56 702.65,137.55 703.40,137.57 704.15,137.56 704.90,137.58 705.65,137.56 706.40,137.58 707.16,137.57 707.91,137.59 708.66,138.83 709.41,138.85 710.16,138.84 710.91,138.86 711.66,138.84 712.41,138.86 713.16,138.85 713.91,138.87 714.66,138.86 715.41,138.87 716.16,138.86 716.91,138.88 717.67,138.87 718.42,138.89 719.17,138.88 719.92,138.89 720.67,140.32 721.42,140.34 722.17,140.33 722.92,140.34 723.67,140.33 724.42,140.35 725.17,140.34 725.92,140.36 726.67,140.34 727.43,140.36 728.18,140.35 728.93,140.37 729.68,140.36 730.43,140.37 731.18,140.36 731.93,140.38 732.68,142.05 733.43,142.06 734.18,142.05 734.93,142.07 735.68,142.06 736.43,142.07 737.18,142.06 737.94,142.08 738.69,142.07 739.44,142.08 740.19,142.07 740.94,142.09 741.69,142.08 742.44,142.09 743.19,142.08 743.94,142.10 744.69,144.09 745.44,144.11 746.19,144.10 746.94,144.11 747.70,144.10 748.45,144.12 749.20,144.10 749.95,144.12 750.70,144.11 751.45,144.12 752.20,144.11 752.95,144.13 753.70,144.12 754.45,144.13 755.20,144.12 755.95,144.13 756.70,146.60 757.45,146.62 758.21,146.60 758.96,146.62 759.71,146.61 760.46,146.62 761.21,146.61 761.96,146.63 762.71,146.61 763.46,146.63 764.21,146.62 764.96,146.63 765.71,146.62 766.46,146.63 767.21,146.62 767.96,146.64 768.72,149.84 769.47,149.86 770.22,149.84 770.97,149.86 771.72,149.85 772.47,149.86 773.22,149.85 773.97,149.86 774.72,149.85 775.47,149.87 776.22,149.85 776.97,149.87 777.72,149.86 778.48,149.87 779.23,149.86 779.98,149.87 780.73,154.41 781.48,154.43 782.23,154.42 782.98,154.43 783.73,154.42 784.48,154.43 785.23,154.42 785.98,154.43 786.73,154.42 787.48,154.43 788.23,154.42 788.99,154.43 789.74,154.43 790.49,154.43 791.24,154.43 791.99,154.44 792.74,162.24 793.49,162.25 794.24,162.24 794.99,162.25 795.74,162.24 796.49,162.25 797.24,162.24 797.99,162.25 798.74,162.24 799.50,162.25 800.25,162.25 801.00,162.25 801.75,162.25 802.50,162.25 803.25,162.25 804.00,244.00" />
  <text x="420.0" y="22" text-anchor="middle" font-family="Arial, Helvetica, sans-serif" font-size="15" fill="#102a43">exponential_1p0 window (magnitude spectrum)</text>
  <text x="420.0" y="272" text-anchor="middle" font-family="Arial, Helvetica, sans-serif" font-size="12" fill="#334e68">normalized frequency</text>
  <text x="14" y="140.0" transform="rotate(-90 14,140.0)" text-anchor="middle" font-family="Arial, Helvetica, sans-serif" font-size="12" fill="#334e68">magnitude (dB)</text>
  <text x="36" y="262" font-family="Arial, Helvetica, sans-serif" font-size="11" fill="#486581">0</text>
  <text x="804" y="262" text-anchor="end" font-family="Arial, Helvetica, sans-serif" font-size="11" fill="#486581">1</text>
  <text x="30" y="40" text-anchor="end" font-family="Arial, Helvetica, sans-serif" font-size="11" fill="#486581">0.0</text>
  <text x="30" y="248" text-anchor="end" font-family="Arial, Helvetica, sans-serif" font-size="11" fill="#486581">-160.0</text>
</svg>
