<svg xmlns="http://www.w3.org/2000/svg" width="840" height="280" viewBox="0 0 840 280">
  <rect x="0" y="0" width="840" height="280" fill="#ffffff" />
  <rect x="36" y="36" width="768" height="208" fill="#f7fbff" stroke="#c8d9e6" />
  <polyline fill="none" stroke="#005f73" stroke-width="2" points="36.00,36.00 36.75,36.40 37.50,40.94 38.25,54.49 39.00,82.55 39.75,183.57 40.50,189.60 41.26,188.58 42.01,189.26 42.76,190.61 43.51,192.17 44.26,193.78 45.01,195.36 45.76,196.89 46.51,198.35 47.26,199.74 48.01,174.91 48.76,175.77 49.51,176.57 50.26,177.31 51.01,178.00 51.77,178.64 52.52,179.25 53.27,179.82 54.02,180.36 54.77,180.88 55.52,181.37 56.27,181.83 57.02,182.28 57.77,182.71 58.52,183.12 59.27,183.51 60.02,175.76 60.77,176.14 61.52,176.50 62.28,176.85 63.03,177.19 63.78,177.51 64.53,177.83 65.28,178.14 66.03,178.44 66.78,178.73 67.53,179.02 68.28,179.29 69.03,179.56 69.78,179.83 70.53,180.08 71.28,180.33 72.04,175.95 72.79,176.20 73.54,176.43 74.29,176.66 75.04,176.89 75.79,177.11 76.54,177.33 77.29,177.54 78.04,177.75 78.79,177.95 79.54,178.15 80.29,178.35 81.04,178.54 81.79,178.73 82.55,178.92 83.30,179.10 84.05,176.04 84.80,176.22 85.55,176.39 86.30,176.57 87.05,176.74 87.80,176.90 88.55,177.07 89.30,177.23 90.05,177.39 90.80,177.55 91.55,177.70 92.30,177.86 93.06,178.01 93.81,178.16 94.56,178.30 95.31,178.45 96.06,176.10 96.81,176.24 97.56,176.38 98.31,176.52 99.06,176.66 99.81,176.79 100.56,176.92 101.31,177.05 102.06,177.18 102.82,177.31 103.57,177.44 104.32,177.56 105.07,177.69 105.82,177.81 106.57,177.93 107.32,178.05 108.07,176.16 108.82,176.27 109.57,176.39 110.32,176.50 111.07,176.62 111.82,176.73 112.57,176.84 113.33,176.95 114.08,177.06 114.83,177.17 115.58,177.27 116.33,177.38 117.08,177.48 117.83,177.59 118.58,177.69 119.33,177.79 120.08,176.21 120.83,176.31 121.58,176.41 122.33,176.51 123.09,176.60 123.84,176.70 124.59,176.80 125.34,176.89 126.09,176.99 126.84,177.08 127.59,177.17 128.34,177.26 129.09,177.35 129.84,177.44 130.59,177.53 131.34,177.62 132.09,176.27 132.84,176.35 133.60,176.44 134.35,176.53 135.10,176.61 135.85,176.70 136.60,176.78 137.35,176.86 138.10,176.95 138.85,177.03 139.60,177.11 140.35,177.19 141.10,177.27 141.85,177.35 142.60,177.43 143.35,177.51 144.11,176.33 144.86,176.41 145.61,176.48 146.36,176.56 147.11,176.64 147.86,176.71 148.61,176.79 149.36,176.86 150.11,176.93 150.86,177.01 151.61,177.08 152.36,177.15 153.11,177.22 153.87,177.29 154.62,177.36 155.37,177.43 156.12,176.40 156.87,176.47 157.62,176.54 158.37,176.61 159.12,176.67 159.87,176.74 160.62,176.81 161.37,176.87 162.12,176.94 162.87,177.01 163.62,177.07 164.38,177.14 165.13,177.20 165.88,177.26 166.63,177.33 167.38,177.39 168.13,176.47 168.88,176.54 169.63,176.60 170.38,176.66 171.13,176.72 171.88,176.78 172.63,176.84 173.38,176.90 174.13,176.96 174.89,177.02 175.64,177.08 176.39,177.14 177.14,177.20 177.89,177.26 178.64,177.32 179.39,177.38 180.14,176.56 180.89,176.61 181.64,176.67 182.39,176.73 183.14,176.78 183.89,176.84 184.65,176.89 185.40,176.95 186.15,177.00 186.90,177.06 187.65,177.11 188.40,177.17 189.15,177.22 189.90,177.27 190.65,177.33 191.40,177.38 192.15,176.65 192.90,176.70 193.65,176.75 194.40,176.80 195.16,176.85 195.91,176.91 196.66,176.96 197.41,177.01 198.16,177.06 198.91,177.11 199.66,177.16 200.41,177.21 201.16,177.26 201.91,177.31 202.66,177.36 203.41,177.40 204.16,176.74 204.91,176.79 205.67,176.84 206.42,176.89 207.17,176.93 207.92,176.98 208.67,177.03 209.42,177.08 210.17,177.12 210.92,177.17 211.67,177.22 212.42,177.26 213.17,177.31 213.92,177.35 214.67,177.40 215.43,177.44 216.18,176.85 216.93,176.89 217.68,176.94 218.43,176.98 219.18,177.02 219.93,177.07 220.68,177.11 221.43,177.16 222.18,177.20 222.93,177.24 223.68,177.29 224.43,177.33 225.18,177.37 225.94,177.41 226.69,177.46 227.44,177.50 228.19,176.96 228.94,177.00 229.69,177.04 230.44,177.08 231.19,177.12 231.94,177.16 232.69,177.21 233.44,177.25 234.19,177.29 234.94,177.33 235.70,177.37 236.45,177.41 237.20,177.45 237.95,177.49 238.70,177.53 239.45,177.57 240.20,177.08 240.95,177.12 241.70,177.15 242.45,177.19 243.20,177.23 243.95,177.27 244.70,177.31 245.45,177.35 246.21,177.38 246.96,177.42 247.71,177.46 248.46,177.50 249.21,177.53 249.96,177.57 250.71,177.61 251.46,177.65 252.21,177.20 252.96,177.24 253.71,177.28 254.46,177.31 255.21,177.35 255.96,177.39 256.72,177.42 257.47,177.46 258.22,177.49 258.97,177.53 259.72,177.56 260.47,177.60 261.22,177.63 261.97,177.67 262.72,177.70 263.47,177.74 264.22,177.34 264.97,177.37 265.72,177.41 266.48,177.44 267.23,177.48 267.98,177.51 268.73,177.54 269.48,177.58 270.23,177.61 270.98,177.64 271.73,177.68 272.48,177.71 273.23,177.74 273.98,177.78 274.73,177.81 275.48,177.84 276.23,177.48 276.99,177.52 277.74,177.55 278.49,177.58 279.24,177.61 279.99,177.64 280.74,177.68 281.49,177.71 282.24,177.74 282.99,177.77 283.74,177.80 284.49,177.83 285.24,177.86 285.99,177.90 286.74,177.93 287.50,177.96 288.25,177.64 289.00,177.67 289.75,177.70 290.50,177.73 291.25,177.76 292.00,177.79 292.75,177.82 293.50,177.85 294.25,177.88 295.00,177.91 295.75,177.94 296.50,177.97 297.26,178.00 298.01,178.03 298.76,178.05 299.51,178.08 300.26,177.80 301.01,177.83 301.76,177.86 302.51,177.88 303.26,177.91 304.01,177.94 304.76,177.97 305.51,178.00 306.26,178.03 307.01,178.05 307.77,178.08 308.52,178.11 309.27,178.14 310.02,178.17 310.77,178.19 311.52,178.22 312.27,177.97 313.02,178.00 313.77,178.02 314.52,178.05 315.27,178.08 316.02,178.10 316.77,178.13 317.52,178.16 318.28,178.19 319.03,178.21 319.78,178.24 320.53,178.26 321.28,178.29 322.03,178.32 322.78,178.34 323.53,178.37 324.28,178.15 325.03,178.18 325.78,178.20 326.53,178.23 327.28,178.25 328.04,178.28 328.79,178.30 329.54,178.33 330.29,178.35 331.04,178.38 331.79,178.40 332.54,178.43 333.29,178.45 334.04,178.48 334.79,178.50 335.54,178.53 336.29,178.34 337.04,178.36 337.79,178.39 338.55,178.41 339.30,178.44 340.05,178.46 340.80,178.49 341.55,178.51 342.30,178.53 343.05,178.56 343.80,178.58 344.55,178.61 345.30,178.63 346.05,178.65 346.80,178.68 347.55,178.70 348.30,178.54 349.06,178.56 349.81,178.59 350.56,178.61 351.31,178.63 352.06,178.66 352.81,178.68 353.56,178.70 354.31,178.72 355.06,178.75 355.81,178.77 356.56,178.79 357.31,178.82 358.06,178.84 358.82,178.86 359.57,178.88 360.32,178.75 361.07,178.77 361.82,178.80 362.57,178.82 363.32,178.84 364.07,178.86 364.82,178.88 365.57,178.90 366.32,178.93 367.07,178.95 367.82,178.97 368.57,178.99 369.33,179.01 370.08,179.03 370.83,179.06 371.58,179.08 372.33,178.97 373.08,178.99 373.83,179.02 374.58,179.04 375.33,179.06 376.08,179.08 376.83,179.10 377.58,179.12 378.33,179.14 379.09,179.16 379.84,179.18 380.59,179.20 381.34,179.22 382.09,179.24 382.84,179.26 383.59,179.28 384.34,179.21 385.09,179.23 385.84,179.25 386.59,179.27 387.34,179.29 388.09,179.31 388.84,179.33 389.60,179.35 390.35,179.36 391.10,179.38 391.85,179.40 392.60,179.42 393.35,179.44 394.10,179.46 394.85,179.48 395.60,179.50 396.35,179.45 397.10,179.47 397.85,179.49 398.60,179.51 399.35,179.53 400.11,179.55 400.86,179.56 401.61,179.58 402.36,179.60 403.11,179.62 403.86,179.64 404.61,179.66 405.36,179.68 406.11,179.69 406.86,179.71 407.61,179.73 408.36,179.71 409.11,179.73 409.87,179.74 410.62,179.76 411.37,179.78 412.12,179.80 412.87,179.82 413.62,179.83 414.37,179.85 415.12,179.87 415.87,179.89 416.62,179.91 417.37,179.92 418.12,179.94 418.87,179.96 419.62,179.98 420.38,179.98 421.13,180.00 421.88,180.01 422.63,180.03 423.38,180.05 424.13,180.06 424.88,180.08 425.63,180.10 426.38,180.12 427.13,180.13 427.88,180.15 428.63,180.17 429.38,180.18 430.13,180.20 430.89,180.22 431.64,180.23 432.39,180.26 433.14,180.28 433.89,180.30 434.64,180.31 435.39,180.33 436.14,180.34 436.89,180.36 437.64,180.38 438.39,180.39 439.14,180.41 439.89,180.43 440.65,180.44 441.40,180.46 442.15,180.47 442.90,180.49 443.65,180.50 444.40,180.56 445.15,180.58 445.90,180.59 446.65,180.61 447.40,180.62 448.15,180.64 448.90,180.65 449.65,180.67 450.40,180.69 451.16,180.70 451.91,180.72 452.66,180.73 453.41,180.75 454.16,180.76 454.91,180.78 455.66,180.79 456.41,180.87 457.16,180.89 457.91,180.90 458.66,180.92 459.41,180.93 460.16,180.95 460.91,180.96 461.67,180.98 462.42,180.99 463.17,181.01 463.92,181.02 464.67,181.04 465.42,181.05 466.17,181.06 466.92,181.08 467.67,181.09 468.42,181.20 469.17,181.22 469.92,181.23 470.67,181.25 471.43,181.26 472.18,181.27 472.93,181.29 473.68,181.30 474.43,181.32 475.18,181.33 475.93,181.34 476.68,181.36 477.43,181.37 478.18,181.38 478.93,181.40 479.68,181.41 480.43,181.55 481.18,181.56 481.94,181.58 482.69,181.59 483.44,181.60 484.19,181.62 484.94,181.63 485.69,181.64 486.44,181.66 487.19,181.67 487.94,181.68 488.69,181.70 489.44,181.71 490.19,181.72 490.94,181.74 491.70,181.75 492.45,181.91 493.20,181.93 493.95,181.94 494.70,181.95 495.45,181.97 496.20,181.98 496.95,181.99 497.70,182.00 498.45,182.02 499.20,182.03 499.95,182.04 500.70,182.05 501.45,182.07 502.21,182.08 502.96,182.09 503.71,182.10 504.46,182.30 505.21,182.31 505.96,182.32 506.71,182.33 507.46,182.35 508.21,182.36 508.96,182.37 509.71,182.38 510.46,182.39 511.21,182.41 511.96,182.42 512.72,182.43 513.47,182.44 514.22,182.45 514.97,182.46 515.72,182.48 516.47,182.70 517.22,182.71 517.97,182.72 518.72,182.74 519.47,182.75 520.22,182.76 520.97,182.77 521.72,182.78 522.48,182.79 523.23,182.80 523.98,182.82 524.73,182.83 525.48,182.84 526.23,182.85 526.98,182.86 527.73,182.87 528.48,183.13 529.23,183.14 529.98,183.15 530.73,183.16 531.48,183.17 532.23,183.18 532.99,183.19 533.74,183.20 534.49,183.21 535.24,183.22 535.99,183.24 536.74,183.25 537.49,183.26 538.24,183.27 538.99,183.28 539.74,183.29 540.49,183.58 541.24,183.59 541.99,183.60 542.74,183.61 543.50,183.62 544.25,183.63 545.00,183.64 545.75,183.65 546.50,183.66 547.25,183.67 548.00,183.68 548.75,183.69 549.50,183.70 550.25,183.71 551.00,183.72 551.75,183.73 552.50,184.05 553.26,184.06 554.01,184.07 554.76,184.08 555.51,184.09 556.26,184.10 557.01,184.11 557.76,184.12 558.51,184.13 559.26,184.14 560.01,184.15 560.76,184.16 561.51,184.17 562.26,184.18 563.01,184.19 563.77,184.20 564.52,184.56 565.27,184.57 566.02,184.57 566.77,184.58 567.52,184.59 568.27,184.60 569.02,184.61 569.77,184.62 570.52,184.63 571.27,184.64 572.02,184.65 572.77,184.66 573.52,184.66 574.28,184.67 575.03,184.68 575.78,184.69 576.53,185.09 577.28,185.10 578.03,185.11 578.78,185.12 579.53,185.12 580.28,185.13 581.03,185.14 581.78,185.15 582.53,185.16 583.28,185.17 584.04,185.18 584.79,185.18 585.54,185.19 586.29,185.20 587.04,185.21 587.79,185.22 588.54,185.66 589.29,185.67 590.04,185.67 590.79,185.68 591.54,185.69 592.29,185.70 593.04,185.71 593.79,185.71 594.55,185.72 595.30,185.73 596.05,185.74 596.80,185.75 597.55,185.75 598.30,185.76 599.05,185.77 599.80,185.78 600.55,186.26 601.30,186.27 602.05,186.28 602.80,186.29 603.55,186.29 604.30,186.30 605.06,186.31 605.81,186.32 606.56,186.32 607.31,186.33 608.06,186.34 608.81,186.35 609.56,186.35 610.31,186.36 611.06,186.37 611.81,186.37 612.56,186.91 613.31,186.92 614.06,186.92 614.82,186.93 615.57,186.94 616.32,186.94 617.07,186.95 617.82,186.96 618.57,186.97 619.32,186.97 620.07,186.98 620.82,186.99 621.57,186.99 622.32,187.00 623.07,187.01 623.82,187.01 624.57,187.60 625.33,187.61 626.08,187.62 626.83,187.62 627.58,187.63 628.33,187.64 629.08,187.64 629.83,187.65 630.58,187.65 631.33,187.66 632.08,187.67 632.83,187.67 633.58,187.68 634.33,187.69 635.09,187.69 635.84,187.70 636.59,188.35 637.34,188.35 638.09,188.36 638.84,188.37 639.59,188.37 640.34,188.38 641.09,188.38 641.84,188.39 642.59,188.40 643.34,188.40 644.09,188.41 644.84,188.41 645.60,188.42 646.35,188.43 647.10,188.43 647.85,188.44 648.60,189.15 649.35,189.16 650.10,189.16 650.85,189.17 651.60,189.18 652.35,189.18 653.10,189.19 653.85,189.19 654.60,189.20 655.35,189.20 656.11,189.21 656.86,189.21 657.61,189.22 658.36,189.23 659.11,189.23 659.86,189.24 660.61,190.03 661.36,190.03 662.11,190.04 662.86,190.04 663.61,190.05 664.36,190.05 665.11,190.06 665.87,190.06 666.62,190.07 667.37,190.07 668.12,190.08 668.87,190.08 669.62,190.09 670.37,190.09 671.12,190.10 671.87,190.10 672.62,190.98 673.37,190.99 674.12,190.99 674.87,191.00 675.62,191.00 676.38,191.01 677.13,191.01 677.88,191.02 678.63,191.02 679.38,191.03 680.13,191.03 680.88,191.04 681.63,191.04 682.38,191.04 683.13,191.05 683.88,191.05 684.63,192.04 685.38,192.04 686.13,192.05 686.89,192.05 687.64,192.05 688.39,192.06 689.14,192.06 689.89,192.07 690.64,192.07 691.39,192.07 692.14,192.08 692.89,192.08 693.64,192.09 694.39,192.09 695.14,192.09 695.89,192.10 696.65,193.20 697.40,193.21 698.15,193.21 698.90,193.22 699.65,193.22 700.40,193.22 701.15,193.23 701.90,193.23 702.65,193.23 703.40,193.24 704.15,193.24 704.90,193.25 705.65,193.25 706.40,193.25 707.16,193.26 707.91,193.26 708.66,194.51 709.41,194.52 710.16,194.52 710.91,194.52 711.66,194.53 712.41,194.53 713.16,194.53 713.91,194.54 714.66,194.54 715.41,194.54 716.16,194.55 716.91,194.55 717.67,194.55 718.42,194.56 719.17,194.56 719.92,194.56 720.67,196.01 721.42,196.01 722.17,196.01 722.92,196.01 723.67,196.02 724.42,196.02 725.17,196.02 725.92,196.03 726.67,196.03 727.43,196.03 728.18,196.03 728.93,196.04 729.68,196.04 730.43,196.04 731.18,196.04 731.93,196.05 732.68,197.73 733.43,197.73 734.18,197.74 734.93,197.74 735.68,197.74 736.43,197.74 737.18,197.75 737.94,197.75 738.69,197.75 739.44,197.75 740.19,197.75 740.94,197.76 741.69,197.76 742.44,197.76 743.19,197.76 743.94,197.77 744.69,199.78 745.44,199.78 746.19,199.78 746.94,199.78 747.70,199.78 748.45,199.79 749.20,199.79 749.95,199.79 750.70,199.79 751.45,199.79 752.20,199.80 752.95,199.80 753.70,199.80 754.45,199.80 755.20,199.80 755.95,199.81 756.70,202.29 757.45,202.29 758.21,202.29 758.96,202.29 759.71,202.29 760.46,202.29 761.21,202.30 761.96,202.30 762.71,202.30 763.46,202.30 764.21,202.30 764.96,202.30 765.71,202.30 766.46,202.31 767.21,202.31 767.96,202.31 768.72,205.53 769.47,205.53 770.22,205.53 770.97,205.53 771.72,205.53 772.47,205.53 773.22,205.53 773.97,205.53 774.72,205.53 775.47,205.54 776.22,205.54 776.97,205.54 777.72,205.54 778.48,205.54 779.23,205.54 779.98,205.54 780.73,210.10 781.48,210.10 782.23,210.10 782.98,210.10 783.73,210.10 784.48,210.10 785.23,210.10 785.98,210.10 786.73,210.10 787.48,210.10 788.23,210.11 788.99,210.11 789.74,210.11 790.49,210.11 791.24,210.11 791.99,210.11 792.74,217.92 793.49,217.92 794.24,217.92 794.99,217.92 795.74,217.92 796.49,217.92 797.24,217.92 797.99,217.92 798.74,217.92 799.50,217.92 800.25,217.92 801.00,217.92 801.75,217.92 802.50,217.92 803.25,217.92 804.00,244.00" />
  <text x="420.0" y="22" text-anchor="middle" font-family="Arial, Helvetica, sans-serif" font-size="15" fill="#102a43">flattop window (magnitude spectrum)</text>
  <text x="420.0" y="272" text-anchor="middle" font-family="Arial, Helvetica, sans-serif" font-size="12" fill="#334e68">normalized frequency</text>
  <text x="14" y="140.0" transform="rotate(-90 14,140.0)" text-anchor="middle" font-family="Arial, Helvetica, sans-serif" font-size="12" fill="#334e68">magnitude (dB)</text>
  <text x="36" y="262" font-family="Arial, Helvetica, sans-serif" font-size="11" fill="#486581">0</text>
  <text x="804" y="262" text-anchor="end" font-family="Arial, Helvetica, sans-serif" font-size="11" fill="#486581">1</text>
  <text x="30" y="40" text-anchor="end" font-family="Arial, Helvetica, sans-serif" font-size="11" fill="#486581">0.0</text>
  <text x="30" y="248" text-anchor="end" font-family="Arial, Helvetica, sans-serif" font-size="11" fill="#486581">-160.0</text>
</svg>
