<svg xmlns="http://www.w3.org/2000/svg" width="840" height="280" viewBox="0 0 840 280">
  <rect x="0" y="0" width="840" height="280" fill="#ffffff" />
  <rect x="36" y="36" width="768" height="208" fill="#f7fbff" stroke="#c8d9e6" />
  <polyline fill="none" stroke="#005f73" stroke-width="2" points="36.00,243.81 36.75,243.81 37.50,243.81 38.25,243.81 39.00,243.82 39.75,243.82 40.50,243.82 41.26,243.82 42.01,243.83 42.76,243.83 43.51,243.83 44.26,243.84 45.01,243.84 45.76,243.85 46.51,243.85 47.26,243.86 48.01,243.87 48.76,243.87 49.51,243.88 50.26,243.89 51.01,243.90 51.77,243.91 52.52,243.92 53.27,243.93 54.02,243.94 54.77,243.95 55.52,243.96 56.27,243.97 57.02,243.99 57.77,244.00 58.52,244.01 59.27,244.03 60.02,244.04 60.77,244.06 61.52,244.07 62.28,244.09 63.03,244.11 63.78,244.13 64.53,244.14 65.28,244.16 66.03,244.18 66.78,244.20 67.53,244.22 68.28,244.25 69.03,244.27 69.78,244.29 70.53,244.32 71.28,244.34 72.04,244.36 72.79,244.39 73.54,244.42 74.29,244.44 75.04,244.47 75.79,244.50 76.54,244.53 77.29,244.56 78.04,244.59 78.79,244.62 79.54,244.66 80.29,244.69 81.04,244.72 81.79,244.76 82.55,244.80 83.30,244.83 84.05,244.87 84.80,244.91 85.55,244.95 86.30,244.99 87.05,245.03 87.80,245.07 88.55,245.12 89.30,245.16 90.05,245.21 90.80,245.25 91.55,245.30 92.30,245.35 93.06,245.40 93.81,245.45 94.56,245.50 95.31,245.55 96.06,245.61 96.81,245.66 97.56,245.72 98.31,245.77 99.06,245.83 99.81,245.89 100.56,245.95 101.31,246.01 102.06,246.07 102.82,246.14 103.57,246.20 104.32,246.27 105.07,246.33 105.82,246.40 106.57,246.47 107.32,246.54 108.07,246.61 108.82,246.68 109.57,246.76 110.32,246.83 111.07,246.91 111.82,246.98 112.57,247.06 113.33,247.14 114.08,247.22 114.83,247.30 115.58,247.39 116.33,247.47 117.08,247.56 117.83,247.64 118.58,247.73 119.33,247.82 120.08,247.91 120.83,248.00 121.58,248.09 122.33,248.19 123.09,248.28 123.84,248.38 124.59,248.47 125.34,248.57 126.09,248.67 126.84,248.77 127.59,248.87 128.34,248.97 129.09,249.08 129.84,249.18 130.59,249.29 131.34,249.39 132.09,249.50 132.84,249.61 133.60,249.72 134.35,249.83 135.10,249.94 135.85,250.05 136.60,250.17 137.35,250.28 138.10,250.39 138.85,250.51 139.60,250.63 140.35,250.74 141.10,250.86 141.85,250.98 142.60,251.10 143.35,251.22 144.11,251.34 144.86,251.46 145.61,251.59 146.36,251.71 147.11,251.83 147.86,251.96 148.61,252.08 149.36,252.20 150.11,252.33 150.86,252.46 151.61,252.58 152.36,252.71 153.11,252.83 153.87,252.96 154.62,253.09 155.37,253.21 156.12,253.34 156.87,253.47 157.62,253.59 158.37,253.72 159.12,253.85 159.87,253.97 160.62,254.10 161.37,254.22 162.12,254.35 162.87,254.48 163.62,254.60 164.38,254.72 165.13,254.85 165.88,254.97 166.63,255.09 167.38,255.22 168.13,255.34 168.88,255.46 169.63,255.58 170.38,255.69 171.13,255.81 171.88,255.93 172.63,256.04 173.38,256.16 174.13,256.27 174.89,256.38 175.64,256.49 176.39,256.60 177.14,256.70 177.89,256.81 178.64,256.91 179.39,257.01 180.14,257.11 180.89,257.21 181.64,257.30 182.39,257.40 183.14,257.49 183.89,257.58 184.65,257.66 185.40,257.75 186.15,257.83 186.90,257.91 187.65,257.98 188.40,258.06 189.15,258.13 189.90,258.19 190.65,258.26 191.40,258.32 192.15,258.38 192.90,258.43 193.65,258.48 194.40,258.53 195.16,258.57 195.91,258.62 196.66,258.65 197.41,258.68 198.16,258.71 198.91,258.74 199.66,258.76 200.41,258.78 201.16,258.79 201.91,258.80 202.66,258.80 203.41,258.80 204.16,258.79 204.91,258.78 205.67,258.76 206.42,258.74 207.17,258.72 207.92,258.69 208.67,258.65 209.42,258.61 210.17,258.56 210.92,258.51 211.67,258.45 212.42,258.39 213.17,258.32 213.92,258.24 214.67,258.16 215.43,258.07 216.18,257.97 216.93,257.87 217.68,257.77 218.43,257.65 219.18,257.53 219.93,257.40 220.68,257.27 221.43,257.13 222.18,256.98 222.93,256.82 223.68,256.66 224.43,256.49 225.18,256.31 225.94,256.13 226.69,255.94 227.44,255.74 228.19,255.53 228.94,255.31 229.69,255.09 230.44,254.86 231.19,254.62 231.94,254.37 232.69,254.11 233.44,253.85 234.19,253.58 234.94,253.29 235.70,253.00 236.45,252.71 237.20,252.40 237.95,252.08 238.70,251.76 239.45,251.42 240.20,251.08 240.95,250.72 241.70,250.36 242.45,249.99 243.20,249.61 243.95,249.22 244.70,248.82 245.45,248.41 246.21,247.99 246.96,247.57 247.71,247.13 248.46,246.68 249.21,246.22 249.96,245.75 250.71,245.28 251.46,244.79 252.21,244.29 252.96,243.78 253.71,243.27 254.46,242.74 255.21,242.20 255.96,241.65 256.72,241.09 257.47,240.52 258.22,239.94 258.97,239.35 259.72,238.75 260.47,238.14 261.22,237.52 261.97,236.89 262.72,236.25 263.47,235.60 264.22,234.93 264.97,234.26 265.72,233.58 266.48,232.88 267.23,232.18 267.98,231.46 268.73,230.73 269.48,230.00 270.23,229.25 270.98,228.49 271.73,227.72 272.48,226.94 273.23,226.16 273.98,225.36 274.73,224.55 275.48,223.72 276.23,222.89 276.99,222.05 277.74,221.20 278.49,220.34 279.24,219.47 279.99,218.58 280.74,217.69 281.49,216.79 282.24,215.87 282.99,214.95 283.74,214.02 284.49,213.08 285.24,212.12 285.99,211.16 286.74,210.19 287.50,209.21 288.25,208.22 289.00,207.21 289.75,206.20 290.50,205.18 291.25,204.16 292.00,203.12 292.75,202.07 293.50,201.01 294.25,199.95 295.00,198.88 295.75,197.79 296.50,196.70 297.26,195.60 298.01,194.49 298.76,193.38 299.51,192.25 300.26,191.12 301.01,189.98 301.76,188.83 302.51,187.68 303.26,186.52 304.01,185.34 304.76,184.17 305.51,182.98 306.26,181.79 307.01,180.59 307.77,179.39 308.52,178.17 309.27,176.95 310.02,175.73 310.77,174.50 311.52,173.26 312.27,172.02 313.02,170.77 313.77,169.52 314.52,168.26 315.27,167.00 316.02,165.73 316.77,164.45 317.52,163.18 318.28,161.89 319.03,160.61 319.78,159.31 320.53,158.02 321.28,156.72 322.03,155.42 322.78,154.11 323.53,152.81 324.28,151.50 325.03,150.18 325.78,148.87 326.53,147.55 327.28,146.23 328.04,144.90 328.79,143.58 329.54,142.25 330.29,140.93 331.04,139.60 331.79,138.27 332.54,136.94 333.29,135.61 334.04,134.28 334.79,132.95 335.54,131.62 336.29,130.29 337.04,128.96 337.79,127.63 338.55,126.31 339.30,124.98 340.05,123.66 340.80,122.33 341.55,121.01 342.30,119.70 343.05,118.38 343.80,117.07 344.55,115.76 345.30,114.45 346.05,113.15 346.80,111.85 347.55,110.56 348.30,109.26 349.06,107.98 349.81,106.69 350.56,105.42 351.31,104.14 352.06,102.88 352.81,101.61 353.56,100.36 354.31,99.11 355.06,97.86 355.81,96.63 356.56,95.39 357.31,94.17 358.06,92.95 358.82,91.74 359.57,90.54 360.32,89.35 361.07,88.16 361.82,86.98 362.57,85.81 363.32,84.65 364.07,83.50 364.82,82.36 365.57,81.22 366.32,80.10 367.07,78.98 367.82,77.88 368.57,76.78 369.33,75.70 370.08,74.63 370.83,73.57 371.58,72.51 372.33,71.48 373.08,70.45 373.83,69.43 374.58,68.43 375.33,67.43 376.08,66.45 376.83,65.48 377.58,64.53 378.33,63.59 379.09,62.66 379.84,61.74 380.59,60.84 381.34,59.95 382.09,59.07 382.84,58.21 383.59,57.37 384.34,56.53 385.09,55.71 385.84,54.91 386.59,54.12 387.34,53.35 388.09,52.59 388.84,51.84 389.60,51.12 390.35,50.40 391.10,49.71 391.85,49.03 392.60,48.36 393.35,47.71 394.10,47.08 394.85,46.46 395.60,45.87 396.35,45.28 397.10,44.72 397.85,44.17 398.60,43.64 399.35,43.12 400.11,42.62 400.86,42.14 401.61,41.68 402.36,41.23 403.11,40.81 403.86,40.40 404.61,40.00 405.36,39.63 406.11,39.27 406.86,38.94 407.61,38.62 408.36,38.31 409.11,38.03 409.87,37.77 410.62,37.52 411.37,37.29 412.12,37.08 412.87,36.89 413.62,36.72 414.37,36.56 415.12,36.43 415.87,36.31 416.62,36.21 417.37,36.13 418.12,36.07 418.87,36.03 419.62,36.00 420.38,36.00 421.13,36.01 421.88,36.05 422.63,36.10 423.38,36.17 424.13,36.26 424.88,36.37 425.63,36.49 426.38,36.64 427.13,36.80 427.88,36.98 428.63,37.18 429.38,37.40 430.13,37.64 430.89,37.90 431.64,38.17 432.39,38.46 433.14,38.77 433.89,39.10 434.64,39.45 435.39,39.82 436.14,40.20 436.89,40.60 437.64,41.02 438.39,41.45 439.14,41.91 439.89,42.38 440.65,42.87 441.40,43.38 442.15,43.90 442.90,44.44 443.65,45.00 444.40,45.57 445.15,46.16 445.90,46.77 446.65,47.39 447.40,48.04 448.15,48.69 448.90,49.36 449.65,50.05 450.40,50.76 451.16,51.48 451.91,52.21 452.66,52.97 453.41,53.73 454.16,54.51 454.91,55.31 455.66,56.12 456.41,56.95 457.16,57.79 457.91,58.64 458.66,59.51 459.41,60.39 460.16,61.29 460.91,62.20 461.67,63.12 462.42,64.06 463.17,65.00 463.92,65.97 464.67,66.94 465.42,67.93 466.17,68.93 466.92,69.94 467.67,70.96 468.42,71.99 469.17,73.04 469.92,74.10 470.67,75.16 471.43,76.24 472.18,77.33 472.93,78.43 473.68,79.54 474.43,80.66 475.18,81.79 475.93,82.93 476.68,84.07 477.43,85.23 478.18,86.40 478.93,87.57 479.68,88.75 480.43,89.94 481.18,91.14 481.94,92.35 482.69,93.56 483.44,94.78 484.19,96.01 484.94,97.24 485.69,98.48 486.44,99.73 487.19,100.98 487.94,102.24 488.69,103.51 489.44,104.78 490.19,106.05 490.94,107.33 491.70,108.62 492.45,109.91 493.20,111.20 493.95,112.50 494.70,113.80 495.45,115.11 496.20,116.41 496.95,117.73 497.70,119.04 498.45,120.36 499.20,121.67 499.95,123.00 500.70,124.32 501.45,125.64 502.21,126.97 502.96,128.30 503.71,129.63 504.46,130.95 505.21,132.28 505.96,133.61 506.71,134.94 507.46,136.27 508.21,137.60 508.96,138.93 509.71,140.26 510.46,141.59 511.21,142.92 511.96,144.24 512.72,145.56 513.47,146.89 514.22,148.21 514.97,149.52 515.72,150.84 516.47,152.15 517.22,153.46 517.97,154.77 518.72,156.07 519.47,157.37 520.22,158.67 520.97,159.96 521.72,161.25 522.48,162.53 523.23,163.81 523.98,165.09 524.73,166.36 525.48,167.63 526.23,168.89 526.98,170.15 527.73,171.40 528.48,172.64 529.23,173.88 529.98,175.12 530.73,176.34 531.48,177.56 532.23,178.78 532.99,179.99 533.74,181.19 534.49,182.39 535.24,183.57 535.99,184.76 536.74,185.93 537.49,187.10 538.24,188.26 538.99,189.41 539.74,190.55 540.49,191.69 541.24,192.82 541.99,193.94 542.74,195.05 543.50,196.15 544.25,197.25 545.00,198.34 545.75,199.41 546.50,200.48 547.25,201.54 548.00,202.60 548.75,203.64 549.50,204.67 550.25,205.70 551.00,206.71 551.75,207.72 552.50,208.71 553.26,209.70 554.01,210.68 554.76,211.64 555.51,212.60 556.26,213.55 557.01,214.49 557.76,215.41 558.51,216.33 559.26,217.24 560.01,218.14 560.76,219.03 561.51,219.90 562.26,220.77 563.01,221.63 563.77,222.47 564.52,223.31 565.27,224.14 566.02,224.95 566.77,225.76 567.52,226.55 568.27,227.34 569.02,228.11 569.77,228.87 570.52,229.62 571.27,230.37 572.02,231.10 572.77,231.82 573.52,232.53 574.28,233.23 575.03,233.92 575.78,234.60 576.53,235.27 577.28,235.92 578.03,236.57 578.78,237.21 579.53,237.83 580.28,238.45 581.03,239.06 581.78,239.65 582.53,240.24 583.28,240.81 584.04,241.37 584.79,241.93 585.54,242.47 586.29,243.00 587.04,243.53 587.79,244.04 588.54,244.54 589.29,245.03 590.04,245.52 590.79,245.99 591.54,246.45 592.29,246.90 593.04,247.35 593.79,247.78 594.55,248.20 595.30,248.62 596.05,249.02 596.80,249.42 597.55,249.80 598.30,250.18 599.05,250.55 599.80,250.90 600.55,251.25 601.30,251.59 602.05,251.92 602.80,252.24 603.55,252.55 604.30,252.86 605.06,253.15 605.81,253.44 606.56,253.71 607.31,253.98 608.06,254.24 608.81,254.50 609.56,254.74 610.31,254.98 611.06,255.20 611.81,255.42 612.56,255.63 613.31,255.84 614.06,256.03 614.82,256.22 615.57,256.40 616.32,256.58 617.07,256.74 617.82,256.90 618.57,257.06 619.32,257.20 620.07,257.34 620.82,257.47 621.57,257.59 622.32,257.71 623.07,257.82 623.82,257.92 624.57,258.02 625.33,258.11 626.08,258.20 626.83,258.28 627.58,258.35 628.33,258.42 629.08,258.48 629.83,258.54 630.58,258.59 631.33,258.63 632.08,258.67 632.83,258.70 633.58,258.73 634.33,258.76 635.09,258.77 635.84,258.79 636.59,258.80 637.34,258.80 638.09,258.80 638.84,258.79 639.59,258.78 640.34,258.77 641.09,258.75 641.84,258.73 642.59,258.70 643.34,258.67 644.09,258.63 644.84,258.60 645.60,258.55 646.35,258.51 647.10,258.46 647.85,258.40 648.60,258.35 649.35,258.29 650.10,258.23 650.85,258.16 651.60,258.09 652.35,258.02 653.10,257.94 653.85,257.87 654.60,257.79 655.35,257.70 656.11,257.62 656.86,257.53 657.61,257.44 658.36,257.35 659.11,257.26 659.86,257.16 660.61,257.06 661.36,256.96 662.11,256.86 662.86,256.76 663.61,256.65 664.36,256.54 665.11,256.43 665.87,256.32 666.62,256.21 667.37,256.10 668.12,255.98 668.87,255.87 669.62,255.75 670.37,255.64 671.12,255.52 671.87,255.40 672.62,255.28 673.37,255.15 674.12,255.03 674.87,254.91 675.62,254.79 676.38,254.66 677.13,254.54 677.88,254.41 678.63,254.29 679.38,254.16 680.13,254.04 680.88,253.91 681.63,253.78 682.38,253.66 683.13,253.53 683.88,253.40 684.63,253.28 685.38,253.15 686.13,253.02 686.89,252.90 687.64,252.77 688.39,252.64 689.14,252.52 689.89,252.39 690.64,252.27 691.39,252.14 692.14,252.02 692.89,251.89 693.64,251.77 694.39,251.65 695.14,251.53 695.89,251.40 696.65,251.28 697.40,251.16 698.15,251.04 698.90,250.92 699.65,250.80 700.40,250.69 701.15,250.57 701.90,250.45 702.65,250.34 703.40,250.22 704.15,250.11 704.90,250.00 705.65,249.88 706.40,249.77 707.16,249.66 707.91,249.55 708.66,249.45 709.41,249.34 710.16,249.23 710.91,249.13 711.66,249.02 712.41,248.92 713.16,248.82 713.91,248.72 714.66,248.62 715.41,248.52 716.16,248.42 716.91,248.33 717.67,248.23 718.42,248.14 719.17,248.05 719.92,247.95 720.67,247.86 721.42,247.77 722.17,247.69 722.92,247.60 723.67,247.51 724.42,247.43 725.17,247.34 725.92,247.26 726.67,247.18 727.43,247.10 728.18,247.02 728.93,246.94 729.68,246.87 730.43,246.79 731.18,246.72 731.93,246.65 732.68,246.57 733.43,246.50 734.18,246.43 734.93,246.37 735.68,246.30 736.43,246.23 737.18,246.17 737.94,246.10 738.69,246.04 739.44,245.98 740.19,245.92 740.94,245.86 741.69,245.80 742.44,245.74 743.19,245.69 743.94,245.63 744.69,245.58 745.44,245.53 746.19,245.47 746.94,245.42 747.70,245.37 748.45,245.32 749.20,245.28 749.95,245.23 750.70,245.18 751.45,245.14 752.20,245.10 752.95,245.05 753.70,245.01 754.45,244.97 755.20,244.93 755.95,244.89 756.70,244.85 757.45,244.81 758.21,244.78 758.96,244.74 759.71,244.71 760.46,244.67 761.21,244.64 761.96,244.61 762.71,244.58 763.46,244.55 764.21,244.52 764.96,244.49 765.71,244.46 766.46,244.43 767.21,244.40 767.96,244.38 768.72,244.35 769.47,244.33 770.22,244.30 770.97,244.28 771.72,244.26 772.47,244.24 773.22,244.21 773.97,244.19 774.72,244.17 775.47,244.15 776.22,244.14 776.97,244.12 777.72,244.10 778.48,244.08 779.23,244.07 779.98,244.05 780.73,244.04 781.48,244.02 782.23,244.01 782.98,243.99 783.73,243.98 784.48,243.97 785.23,243.96 785.98,243.94 786.73,243.93 787.48,243.92 788.23,243.91 788.99,243.90 789.74,243.89 790.49,243.89 791.24,243.88 791.99,243.87 792.74,243.86 793.49,243.86 794.24,243.85 794.99,243.85 795.74,243.84 796.49,243.84 797.24,243.83 797.99,243.83 798.74,243.82 799.50,243.82 800.25,243.82 801.00,243.82 801.75,243.81 802.50,243.81 803.25,243.81 804.00,243.81" />
  <text x="420.0" y="22" text-anchor="middle" font-family="Arial, Helvetica, sans-serif" font-size="15" fill="#102a43">flattop window (time domain)</text>
  <text x="420.0" y="272" text-anchor="middle" font-family="Arial, Helvetica, sans-serif" font-size="12" fill="#334e68">normalized sample index</text>
  <text x="14" y="140.0" transform="rotate(-90 14,140.0)" text-anchor="middle" font-family="Arial, Helvetica, sans-serif" font-size="12" fill="#334e68">amplitude</text>
  <text x="36" y="262" font-family="Arial, Helvetica, sans-serif" font-size="11" fill="#486581">0</text>
  <text x="804" y="262" text-anchor="end" font-family="Arial, Helvetica, sans-serif" font-size="11" fill="#486581">1</text>
  <text x="30" y="40" text-anchor="end" font-family="Arial, Helvetica, sans-serif" font-size="11" fill="#486581">4.6</text>
  <text x="30" y="248" text-anchor="end" font-family="Arial, Helvetica, sans-serif" font-size="11" fill="#486581">0.0</text>
</svg>
