<svg xmlns="http://www.w3.org/2000/svg" width="840" height="280" viewBox="0 0 840 280">
  <rect x="0" y="0" width="840" height="280" fill="#ffffff" />
  <rect x="36" y="36" width="768" height="208" fill="#f7fbff" stroke="#c8d9e6" />
  <polyline fill="none" stroke="#005f73" stroke-width="2" points="36.00,36.00 36.75,39.48 37.50,49.92 38.25,67.30 39.00,91.73 39.75,122.14 40.50,162.60 41.26,156.08 42.01,158.28 42.76,160.26 43.51,162.13 44.26,163.90 45.01,165.57 45.76,167.15 46.51,168.64 47.26,170.05 48.01,173.28 48.76,174.68 49.51,176.01 50.26,177.29 51.01,178.52 51.77,179.70 52.52,180.85 53.27,181.95 54.02,183.01 54.77,184.05 55.52,185.05 56.27,186.02 57.02,186.97 57.77,187.89 58.52,188.79 59.27,189.67 60.02,197.28 60.77,198.54 61.52,199.83 62.28,201.13 63.03,202.45 63.78,203.80 64.53,205.19 65.28,206.62 66.03,208.12 66.78,209.68 67.53,211.32 68.28,213.08 69.03,214.97 69.78,217.05 70.53,219.37 71.28,222.03 72.04,205.91 72.79,205.57 73.54,205.28 74.29,205.02 75.04,204.79 75.79,204.60 76.54,204.42 77.29,204.27 78.04,204.14 78.79,204.03 79.54,203.93 80.29,203.84 81.04,203.77 81.79,203.71 82.55,203.66 83.30,203.61 84.05,197.46 84.80,197.52 85.55,197.58 86.30,197.64 87.05,197.70 87.80,197.76 88.55,197.83 89.30,197.90 90.05,197.96 90.80,198.03 91.55,198.10 92.30,198.17 93.06,198.24 93.81,198.31 94.56,198.38 95.31,198.45 96.06,195.01 96.81,195.10 97.56,195.19 98.31,195.28 99.06,195.37 99.81,195.46 100.56,195.55 101.31,195.64 102.06,195.73 102.82,195.82 103.57,195.90 104.32,195.99 105.07,196.08 105.82,196.16 106.57,196.25 107.32,196.33 108.07,193.90 108.82,193.99 109.57,194.08 110.32,194.17 111.07,194.26 111.82,194.34 112.57,194.43 113.33,194.52 114.08,194.60 114.83,194.69 115.58,194.78 116.33,194.86 117.08,194.94 117.83,195.03 118.58,195.11 119.33,195.19 120.08,193.30 120.83,193.38 121.58,193.47 122.33,193.55 123.09,193.63 123.84,193.71 124.59,193.79 125.34,193.88 126.09,193.96 126.84,194.03 127.59,194.11 128.34,194.19 129.09,194.27 129.84,194.35 130.59,194.42 131.34,194.50 132.09,192.95 132.84,193.03 133.60,193.10 134.35,193.18 135.10,193.26 135.85,193.33 136.60,193.40 137.35,193.48 138.10,193.55 138.85,193.63 139.60,193.70 140.35,193.77 141.10,193.84 141.85,193.91 142.60,193.98 143.35,194.05 144.11,192.74 144.86,192.81 145.61,192.88 146.36,192.95 147.11,193.02 147.86,193.09 148.61,193.16 149.36,193.23 150.11,193.29 150.86,193.36 151.61,193.43 152.36,193.49 153.11,193.56 153.87,193.62 154.62,193.69 155.37,193.75 156.12,192.62 156.87,192.69 157.62,192.75 158.37,192.81 159.12,192.88 159.87,192.94 160.62,193.00 161.37,193.06 162.12,193.13 162.87,193.19 163.62,193.25 164.38,193.31 165.13,193.37 165.88,193.43 166.63,193.49 167.38,193.55 168.13,192.56 168.88,192.62 169.63,192.68 170.38,192.74 171.13,192.79 171.88,192.85 172.63,192.91 173.38,192.97 174.13,193.02 174.89,193.08 175.64,193.13 176.39,193.19 177.14,193.25 177.89,193.30 178.64,193.36 179.39,193.41 180.14,192.54 180.89,192.59 181.64,192.65 182.39,192.70 183.14,192.75 183.89,192.81 184.65,192.86 185.40,192.91 186.15,192.96 186.90,193.02 187.65,193.07 188.40,193.12 189.15,193.17 189.90,193.22 190.65,193.27 191.40,193.32 192.15,192.55 192.90,192.60 193.65,192.65 194.40,192.70 195.16,192.75 195.91,192.80 196.66,192.84 197.41,192.89 198.16,192.94 198.91,192.99 199.66,193.04 200.41,193.09 201.16,193.13 201.91,193.18 202.66,193.23 203.41,193.28 204.16,192.58 204.91,192.63 205.67,192.67 206.42,192.72 207.17,192.77 207.92,192.81 208.67,192.86 209.42,192.90 210.17,192.95 210.92,192.99 211.67,193.04 212.42,193.08 213.17,193.13 213.92,193.17 214.67,193.21 215.43,193.26 216.18,192.63 216.93,192.68 217.68,192.72 218.43,192.76 219.18,192.81 219.93,192.85 220.68,192.89 221.43,192.93 222.18,192.98 222.93,193.02 223.68,193.06 224.43,193.10 225.18,193.14 225.94,193.18 226.69,193.23 227.44,193.27 228.19,192.70 228.94,192.74 229.69,192.78 230.44,192.82 231.19,192.86 231.94,192.90 232.69,192.94 233.44,192.98 234.19,193.02 234.94,193.06 235.70,193.10 236.45,193.14 237.20,193.18 237.95,193.22 238.70,193.26 239.45,193.30 240.20,192.79 240.95,192.83 241.70,192.86 242.45,192.90 243.20,192.94 243.95,192.98 244.70,193.01 245.45,193.05 246.21,193.09 246.96,193.13 247.71,193.16 248.46,193.20 249.21,193.24 249.96,193.27 250.71,193.31 251.46,193.34 252.21,192.89 252.96,192.92 253.71,192.96 254.46,192.99 255.21,193.03 255.96,193.06 256.72,193.10 257.47,193.13 258.22,193.17 258.97,193.20 259.72,193.24 260.47,193.27 261.22,193.31 261.97,193.34 262.72,193.38 263.47,193.41 264.22,193.00 264.97,193.03 265.72,193.07 266.48,193.10 267.23,193.13 267.98,193.17 268.73,193.20 269.48,193.23 270.23,193.26 270.98,193.30 271.73,193.33 272.48,193.36 273.23,193.40 273.98,193.43 274.73,193.46 275.48,193.49 276.23,193.12 276.99,193.15 277.74,193.19 278.49,193.22 279.24,193.25 279.99,193.28 280.74,193.31 281.49,193.34 282.24,193.37 282.99,193.40 283.74,193.44 284.49,193.47 285.24,193.50 285.99,193.53 286.74,193.56 287.50,193.59 288.25,193.26 289.00,193.29 289.75,193.32 290.50,193.35 291.25,193.38 292.00,193.41 292.75,193.44 293.50,193.47 294.25,193.49 295.00,193.52 295.75,193.55 296.50,193.58 297.26,193.61 298.01,193.64 298.76,193.67 299.51,193.70 300.26,193.40 301.01,193.43 301.76,193.46 302.51,193.49 303.26,193.52 304.01,193.54 304.76,193.57 305.51,193.60 306.26,193.63 307.01,193.66 307.77,193.68 308.52,193.71 309.27,193.74 310.02,193.77 310.77,193.79 311.52,193.82 312.27,193.56 313.02,193.59 313.77,193.61 314.52,193.64 315.27,193.67 316.02,193.69 316.77,193.72 317.52,193.75 318.28,193.77 319.03,193.80 319.78,193.83 320.53,193.85 321.28,193.88 322.03,193.91 322.78,193.93 323.53,193.96 324.28,193.73 325.03,193.76 325.78,193.78 326.53,193.81 327.28,193.83 328.04,193.86 328.79,193.88 329.54,193.91 330.29,193.93 331.04,193.96 331.79,193.98 332.54,194.01 333.29,194.03 334.04,194.06 334.79,194.08 335.54,194.11 336.29,193.91 337.04,193.93 337.79,193.96 338.55,193.98 339.30,194.01 340.05,194.03 340.80,194.05 341.55,194.08 342.30,194.10 343.05,194.13 343.80,194.15 344.55,194.17 345.30,194.20 346.05,194.22 346.80,194.24 347.55,194.27 348.30,194.10 349.06,194.12 349.81,194.15 350.56,194.17 351.31,194.19 352.06,194.22 352.81,194.24 353.56,194.26 354.31,194.28 355.06,194.31 355.81,194.33 356.56,194.35 357.31,194.37 358.06,194.40 358.82,194.42 359.57,194.44 360.32,194.30 361.07,194.33 361.82,194.35 362.57,194.37 363.32,194.39 364.07,194.41 364.82,194.43 365.57,194.46 366.32,194.48 367.07,194.50 367.82,194.52 368.57,194.54 369.33,194.56 370.08,194.58 370.83,194.61 371.58,194.63 372.33,194.52 373.08,194.54 373.83,194.56 374.58,194.58 375.33,194.60 376.08,194.62 376.83,194.64 377.58,194.66 378.33,194.68 379.09,194.70 379.84,194.72 380.59,194.75 381.34,194.77 382.09,194.79 382.84,194.81 383.59,194.83 384.34,194.74 385.09,194.76 385.84,194.78 386.59,194.80 387.34,194.82 388.09,194.84 388.84,194.86 389.60,194.88 390.35,194.90 391.10,194.92 391.85,194.94 392.60,194.96 393.35,194.98 394.10,195.00 394.85,195.02 395.60,195.04 396.35,194.98 397.10,195.00 397.85,195.02 398.60,195.04 399.35,195.06 400.11,195.08 400.86,195.10 401.61,195.12 402.36,195.13 403.11,195.15 403.86,195.17 404.61,195.19 405.36,195.21 406.11,195.23 406.86,195.25 407.61,195.26 408.36,195.24 409.11,195.25 409.87,195.27 410.62,195.29 411.37,195.31 412.12,195.33 412.87,195.34 413.62,195.36 414.37,195.38 415.12,195.40 415.87,195.42 416.62,195.43 417.37,195.45 418.12,195.47 418.87,195.49 419.62,195.50 420.38,195.50 421.13,195.52 421.88,195.54 422.63,195.55 423.38,195.57 424.13,195.59 424.88,195.60 425.63,195.62 426.38,195.64 427.13,195.66 427.88,195.67 428.63,195.69 429.38,195.71 430.13,195.72 430.89,195.74 431.64,195.76 432.39,195.78 433.14,195.80 433.89,195.81 434.64,195.83 435.39,195.85 436.14,195.86 436.89,195.88 437.64,195.90 438.39,195.91 439.14,195.93 439.89,195.94 440.65,195.96 441.40,195.98 442.15,195.99 442.90,196.01 443.65,196.02 444.40,196.08 445.15,196.09 445.90,196.11 446.65,196.12 447.40,196.14 448.15,196.15 448.90,196.17 449.65,196.18 450.40,196.20 451.16,196.22 451.91,196.23 452.66,196.25 453.41,196.26 454.16,196.28 454.91,196.29 455.66,196.31 456.41,196.39 457.16,196.40 457.91,196.42 458.66,196.43 459.41,196.45 460.16,196.46 460.91,196.47 461.67,196.49 462.42,196.50 463.17,196.52 463.92,196.53 464.67,196.55 465.42,196.56 466.17,196.58 466.92,196.59 467.67,196.61 468.42,196.71 469.17,196.73 469.92,196.74 470.67,196.75 471.43,196.77 472.18,196.78 472.93,196.80 473.68,196.81 474.43,196.82 475.18,196.84 475.93,196.85 476.68,196.87 477.43,196.88 478.18,196.89 478.93,196.91 479.68,196.92 480.43,197.06 481.18,197.07 481.94,197.08 482.69,197.10 483.44,197.11 484.19,197.12 484.94,197.14 485.69,197.15 486.44,197.16 487.19,197.18 487.94,197.19 488.69,197.20 489.44,197.21 490.19,197.23 490.94,197.24 491.70,197.25 492.45,197.42 493.20,197.43 493.95,197.44 494.70,197.46 495.45,197.47 496.20,197.48 496.95,197.49 497.70,197.51 498.45,197.52 499.20,197.53 499.95,197.54 500.70,197.56 501.45,197.57 502.21,197.58 502.96,197.59 503.71,197.61 504.46,197.80 505.21,197.81 505.96,197.82 506.71,197.83 507.46,197.85 508.21,197.86 508.96,197.87 509.71,197.88 510.46,197.89 511.21,197.91 511.96,197.92 512.72,197.93 513.47,197.94 514.22,197.95 514.97,197.97 515.72,197.98 516.47,198.20 517.22,198.21 517.97,198.22 518.72,198.23 519.47,198.25 520.22,198.26 520.97,198.27 521.72,198.28 522.48,198.29 523.23,198.30 523.98,198.31 524.73,198.32 525.48,198.34 526.23,198.35 526.98,198.36 527.73,198.37 528.48,198.62 529.23,198.63 529.98,198.65 530.73,198.66 531.48,198.67 532.23,198.68 532.99,198.69 533.74,198.70 534.49,198.71 535.24,198.72 535.99,198.73 536.74,198.74 537.49,198.75 538.24,198.76 538.99,198.77 539.74,198.78 540.49,199.07 541.24,199.08 541.99,199.09 542.74,199.10 543.50,199.11 544.25,199.12 545.00,199.13 545.75,199.14 546.50,199.15 547.25,199.16 548.00,199.17 548.75,199.18 549.50,199.19 550.25,199.20 551.00,199.21 551.75,199.22 552.50,199.54 553.26,199.55 554.01,199.56 554.76,199.57 555.51,199.58 556.26,199.59 557.01,199.60 557.76,199.61 558.51,199.62 559.26,199.63 560.01,199.64 560.76,199.65 561.51,199.66 562.26,199.67 563.01,199.68 563.77,199.69 564.52,200.05 565.27,200.06 566.02,200.07 566.77,200.07 567.52,200.08 568.27,200.09 569.02,200.10 569.77,200.11 570.52,200.12 571.27,200.13 572.02,200.14 572.77,200.15 573.52,200.16 574.28,200.17 575.03,200.17 575.78,200.18 576.53,200.58 577.28,200.59 578.03,200.60 578.78,200.61 579.53,200.61 580.28,200.62 581.03,200.63 581.78,200.64 582.53,200.65 583.28,200.66 584.04,200.67 584.79,200.67 585.54,200.68 586.29,200.69 587.04,200.70 587.79,200.71 588.54,201.15 589.29,201.15 590.04,201.16 590.79,201.17 591.54,201.18 592.29,201.19 593.04,201.19 593.79,201.20 594.55,201.21 595.30,201.22 596.05,201.23 596.80,201.23 597.55,201.24 598.30,201.25 599.05,201.26 599.80,201.27 600.55,201.75 601.30,201.76 602.05,201.76 602.80,201.77 603.55,201.78 604.30,201.79 605.06,201.80 605.81,201.80 606.56,201.81 607.31,201.82 608.06,201.83 608.81,201.83 609.56,201.84 610.31,201.85 611.06,201.86 611.81,201.86 612.56,202.39 613.31,202.40 614.06,202.41 614.82,202.42 615.57,202.42 616.32,202.43 617.07,202.44 617.82,202.45 618.57,202.45 619.32,202.46 620.07,202.47 620.82,202.47 621.57,202.48 622.32,202.49 623.07,202.49 623.82,202.50 624.57,203.09 625.33,203.09 626.08,203.10 626.83,203.11 627.58,203.11 628.33,203.12 629.08,203.13 629.83,203.13 630.58,203.14 631.33,203.15 632.08,203.15 632.83,203.16 633.58,203.17 634.33,203.17 635.09,203.18 635.84,203.19 636.59,203.83 637.34,203.84 638.09,203.84 638.84,203.85 639.59,203.86 640.34,203.86 641.09,203.87 641.84,203.88 642.59,203.88 643.34,203.89 644.09,203.89 644.84,203.90 645.60,203.91 646.35,203.91 647.10,203.92 647.85,203.92 648.60,204.64 649.35,204.64 650.10,204.65 650.85,204.65 651.60,204.66 652.35,204.67 653.10,204.67 653.85,204.68 654.60,204.68 655.35,204.69 656.11,204.69 656.86,204.70 657.61,204.70 658.36,204.71 659.11,204.72 659.86,204.72 660.61,205.51 661.36,205.52 662.11,205.52 662.86,205.53 663.61,205.53 664.36,205.54 665.11,205.54 665.87,205.55 666.62,205.55 667.37,205.56 668.12,205.56 668.87,205.57 669.62,205.57 670.37,205.58 671.12,205.58 671.87,205.59 672.62,206.47 673.37,206.47 674.12,206.48 674.87,206.48 675.62,206.49 676.38,206.49 677.13,206.50 677.88,206.50 678.63,206.50 679.38,206.51 680.13,206.51 680.88,206.52 681.63,206.52 682.38,206.53 683.13,206.53 683.88,206.54 684.63,207.52 685.38,207.52 686.13,207.53 686.89,207.53 687.64,207.54 688.39,207.54 689.14,207.54 689.89,207.55 690.64,207.55 691.39,207.56 692.14,207.56 692.89,207.57 693.64,207.57 694.39,207.57 695.14,207.58 695.89,207.58 696.65,208.68 697.40,208.69 698.15,208.69 698.90,208.70 699.65,208.70 700.40,208.70 701.15,208.71 701.90,208.71 702.65,208.72 703.40,208.72 704.15,208.72 704.90,208.73 705.65,208.73 706.40,208.74 707.16,208.74 707.91,208.74 708.66,209.99 709.41,210.00 710.16,210.00 710.91,210.01 711.66,210.01 712.41,210.01 713.16,210.02 713.91,210.02 714.66,210.02 715.41,210.03 716.16,210.03 716.91,210.03 717.67,210.04 718.42,210.04 719.17,210.04 719.92,210.05 720.67,211.48 721.42,211.49 722.17,211.49 722.92,211.49 723.67,211.50 724.42,211.50 725.17,211.50 725.92,211.51 726.67,211.51 727.43,211.51 728.18,211.52 728.93,211.52 729.68,211.52 730.43,211.53 731.18,211.53 731.93,211.53 732.68,213.21 733.43,213.21 734.18,213.22 734.93,213.22 735.68,213.22 736.43,213.22 737.18,213.23 737.94,213.23 738.69,213.23 739.44,213.24 740.19,213.24 740.94,213.24 741.69,213.24 742.44,213.25 743.19,213.25 743.94,213.25 744.69,215.26 745.44,215.26 746.19,215.26 746.94,215.26 747.70,215.27 748.45,215.27 749.20,215.27 749.95,215.27 750.70,215.28 751.45,215.28 752.20,215.28 752.95,215.28 753.70,215.29 754.45,215.29 755.20,215.29 755.95,215.29 756.70,217.76 757.45,217.77 758.21,217.77 758.96,217.77 759.71,217.77 760.46,217.78 761.21,217.78 761.96,217.78 762.71,217.78 763.46,217.78 764.21,217.79 764.96,217.79 765.71,217.79 766.46,217.79 767.21,217.79 767.96,217.80 768.72,221.00 769.47,221.01 770.22,221.01 770.97,221.01 771.72,221.01 772.47,221.01 773.22,221.02 773.97,221.02 774.72,221.02 775.47,221.02 776.22,221.02 776.97,221.03 777.72,221.03 778.48,221.03 779.23,221.03 779.98,221.03 780.73,225.58 781.48,225.58 782.23,225.58 782.98,225.58 783.73,225.59 784.48,225.59 785.23,225.59 785.98,225.59 786.73,225.59 787.48,225.60 788.23,225.60 788.99,225.60 789.74,225.60 790.49,225.60 791.24,225.61 791.99,225.61 792.74,233.40 793.49,233.40 794.24,233.41 794.99,233.41 795.74,233.41 796.49,233.42 797.24,233.42 797.99,233.42 798.74,233.43 799.50,233.43 800.25,233.43 801.00,233.43 801.75,233.44 802.50,233.44 803.25,233.44 804.00,244.00" />
  <text x="420.0" y="22" text-anchor="middle" font-family="Arial, Helvetica, sans-serif" font-size="15" fill="#102a43">gaussian_0p25 window (magnitude spectrum)</text>
  <text x="420.0" y="272" text-anchor="middle" font-family="Arial, Helvetica, sans-serif" font-size="12" fill="#334e68">normalized frequency</text>
  <text x="14" y="140.0" transform="rotate(-90 14,140.0)" text-anchor="middle" font-family="Arial, Helvetica, sans-serif" font-size="12" fill="#334e68">magnitude (dB)</text>
  <text x="36" y="262" font-family="Arial, Helvetica, sans-serif" font-size="11" fill="#486581">0</text>
  <text x="804" y="262" text-anchor="end" font-family="Arial, Helvetica, sans-serif" font-size="11" fill="#486581">1</text>
  <text x="30" y="40" text-anchor="end" font-family="Arial, Helvetica, sans-serif" font-size="11" fill="#486581">0.0</text>
  <text x="30" y="248" text-anchor="end" font-family="Arial, Helvetica, sans-serif" font-size="11" fill="#486581">-160.0</text>
</svg>
