<svg xmlns="http://www.w3.org/2000/svg" width="840" height="280" viewBox="0 0 840 280">
  <rect x="0" y="0" width="840" height="280" fill="#ffffff" />
  <rect x="36" y="36" width="768" height="208" fill="#f7fbff" stroke="#c8d9e6" />
  <polyline fill="none" stroke="#005f73" stroke-width="2" points="36.00,36.00 36.75,42.69 37.50,63.62 38.25,92.83 39.00,109.96 39.75,113.31 40.50,116.78 41.26,119.88 42.01,122.65 42.76,125.14 43.51,127.40 44.26,129.47 45.01,131.37 45.76,133.12 46.51,134.76 47.26,136.28 48.01,141.79 48.76,143.44 49.51,145.03 50.26,146.57 51.01,148.05 51.77,149.49 52.52,150.89 53.27,152.26 54.02,153.60 54.77,154.91 55.52,156.20 56.27,157.48 57.02,158.74 57.77,159.99 58.52,161.23 59.27,162.48 60.02,170.82 60.77,169.65 61.52,168.72 62.28,167.97 63.03,167.36 63.78,166.86 64.53,166.44 65.28,166.08 66.03,165.79 66.78,165.54 67.53,165.34 68.28,165.16 69.03,165.02 69.78,164.90 70.53,164.80 71.28,164.72 72.04,156.23 72.79,156.33 73.54,156.43 74.29,156.54 75.04,156.64 75.79,156.75 76.54,156.85 77.29,156.96 78.04,157.07 78.79,157.18 79.54,157.29 80.29,157.39 81.04,157.50 81.79,157.61 82.55,157.72 83.30,157.83 84.05,153.69 84.80,153.82 85.55,153.95 86.30,154.08 87.05,154.20 87.80,154.33 88.55,154.45 89.30,154.58 90.05,154.70 90.80,154.82 91.55,154.94 92.30,155.05 93.06,155.17 93.81,155.29 94.56,155.40 95.31,155.52 96.06,152.71 96.81,152.83 97.56,152.95 98.31,153.06 99.06,153.18 99.81,153.29 100.56,153.40 101.31,153.51 102.06,153.62 102.82,153.73 103.57,153.84 104.32,153.95 105.07,154.06 105.82,154.16 106.57,154.27 107.32,154.37 108.07,152.23 108.82,152.34 109.57,152.44 110.32,152.54 111.07,152.64 111.82,152.74 112.57,152.84 113.33,152.94 114.08,153.04 114.83,153.14 115.58,153.23 116.33,153.33 117.08,153.42 117.83,153.52 118.58,153.61 119.33,153.70 120.08,151.98 120.83,152.07 121.58,152.16 122.33,152.25 123.09,152.34 123.84,152.43 124.59,152.52 125.34,152.61 126.09,152.69 126.84,152.78 127.59,152.86 128.34,152.95 129.09,153.03 129.84,153.12 130.59,153.20 131.34,153.28 132.09,151.84 132.84,151.92 133.60,152.00 134.35,152.08 135.10,152.16 135.85,152.24 136.60,152.32 137.35,152.40 138.10,152.48 138.85,152.55 139.60,152.63 140.35,152.71 141.10,152.78 141.85,152.86 142.60,152.93 143.35,153.01 144.11,151.77 144.86,151.84 145.61,151.91 146.36,151.99 147.11,152.06 147.86,152.13 148.61,152.20 149.36,152.27 150.11,152.34 150.86,152.41 151.61,152.48 152.36,152.55 153.11,152.62 153.87,152.69 154.62,152.75 155.37,152.82 156.12,151.74 156.87,151.81 157.62,151.87 158.37,151.94 159.12,152.00 159.87,152.07 160.62,152.13 161.37,152.20 162.12,152.26 162.87,152.33 163.62,152.39 164.38,152.45 165.13,152.51 165.88,152.58 166.63,152.64 167.38,152.70 168.13,151.75 168.88,151.81 169.63,151.87 170.38,151.93 171.13,151.99 171.88,152.05 172.63,152.11 173.38,152.16 174.13,152.22 174.89,152.28 175.64,152.34 176.39,152.40 177.14,152.45 177.89,152.51 178.64,152.57 179.39,152.62 180.14,151.78 180.89,151.83 181.64,151.89 182.39,151.94 183.14,152.00 183.89,152.05 184.65,152.11 185.40,152.16 186.15,152.21 186.90,152.27 187.65,152.32 188.40,152.37 189.15,152.43 189.90,152.48 190.65,152.53 191.40,152.58 192.15,151.83 192.90,151.88 193.65,151.93 194.40,151.98 195.16,152.03 195.91,152.08 196.66,152.13 197.41,152.18 198.16,152.23 198.91,152.28 199.66,152.33 200.41,152.38 201.16,152.42 201.91,152.47 202.66,152.52 203.41,152.57 204.16,151.89 204.91,151.94 205.67,151.98 206.42,152.03 207.17,152.08 207.92,152.12 208.67,152.17 209.42,152.22 210.17,152.26 210.92,152.31 211.67,152.35 212.42,152.40 213.17,152.44 213.92,152.49 214.67,152.53 215.43,152.58 216.18,151.97 216.93,152.01 217.68,152.06 218.43,152.10 219.18,152.14 219.93,152.19 220.68,152.23 221.43,152.27 222.18,152.31 222.93,152.36 223.68,152.40 224.43,152.44 225.18,152.48 225.94,152.53 226.69,152.57 227.44,152.61 228.19,152.06 228.94,152.10 229.69,152.14 230.44,152.18 231.19,152.22 231.94,152.26 232.69,152.30 233.44,152.34 234.19,152.38 234.94,152.42 235.70,152.46 236.45,152.50 237.20,152.54 237.95,152.58 238.70,152.62 239.45,152.66 240.20,152.16 240.95,152.20 241.70,152.24 242.45,152.27 243.20,152.31 243.95,152.35 244.70,152.39 245.45,152.43 246.21,152.46 246.96,152.50 247.71,152.54 248.46,152.58 249.21,152.61 249.96,152.65 250.71,152.69 251.46,152.72 252.21,152.27 252.96,152.31 253.71,152.34 254.46,152.38 255.21,152.42 255.96,152.45 256.72,152.49 257.47,152.52 258.22,152.56 258.97,152.59 259.72,152.63 260.47,152.66 261.22,152.70 261.97,152.73 262.72,152.77 263.47,152.80 264.22,152.40 264.97,152.43 265.72,152.46 266.48,152.50 267.23,152.53 267.98,152.56 268.73,152.60 269.48,152.63 270.23,152.66 270.98,152.70 271.73,152.73 272.48,152.76 273.23,152.80 273.98,152.83 274.73,152.86 275.48,152.89 276.23,152.53 276.99,152.56 277.74,152.59 278.49,152.62 279.24,152.66 279.99,152.69 280.74,152.72 281.49,152.75 282.24,152.78 282.99,152.81 283.74,152.84 284.49,152.88 285.24,152.91 285.99,152.94 286.74,152.97 287.50,153.00 288.25,152.67 289.00,152.70 289.75,152.73 290.50,152.76 291.25,152.79 292.00,152.82 292.75,152.85 293.50,152.88 294.25,152.91 295.00,152.94 295.75,152.97 296.50,153.00 297.26,153.03 298.01,153.06 298.76,153.09 299.51,153.12 300.26,152.83 301.01,152.86 301.76,152.88 302.51,152.91 303.26,152.94 304.01,152.97 304.76,153.00 305.51,153.03 306.26,153.05 307.01,153.08 307.77,153.11 308.52,153.14 309.27,153.16 310.02,153.19 310.77,153.22 311.52,153.25 312.27,152.99 313.02,153.02 313.77,153.04 314.52,153.07 315.27,153.10 316.02,153.13 316.77,153.15 317.52,153.18 318.28,153.21 319.03,153.23 319.78,153.26 320.53,153.28 321.28,153.31 322.03,153.34 322.78,153.36 323.53,153.39 324.28,153.16 325.03,153.19 325.78,153.22 326.53,153.24 327.28,153.27 328.04,153.29 328.79,153.32 329.54,153.34 330.29,153.37 331.04,153.39 331.79,153.42 332.54,153.44 333.29,153.47 334.04,153.49 334.79,153.52 335.54,153.54 336.29,153.35 337.04,153.37 337.79,153.40 338.55,153.42 339.30,153.45 340.05,153.47 340.80,153.50 341.55,153.52 342.30,153.54 343.05,153.57 343.80,153.59 344.55,153.61 345.30,153.64 346.05,153.66 346.80,153.69 347.55,153.71 348.30,153.55 349.06,153.57 349.81,153.59 350.56,153.62 351.31,153.64 352.06,153.66 352.81,153.68 353.56,153.71 354.31,153.73 355.06,153.75 355.81,153.77 356.56,153.80 357.31,153.82 358.06,153.84 358.82,153.86 359.57,153.89 360.32,153.75 361.07,153.77 361.82,153.80 362.57,153.82 363.32,153.84 364.07,153.86 364.82,153.88 365.57,153.91 366.32,153.93 367.07,153.95 367.82,153.97 368.57,153.99 369.33,154.01 370.08,154.03 370.83,154.06 371.58,154.08 372.33,153.97 373.08,153.99 373.83,154.01 374.58,154.03 375.33,154.05 376.08,154.07 376.83,154.10 377.58,154.12 378.33,154.14 379.09,154.16 379.84,154.18 380.59,154.20 381.34,154.22 382.09,154.24 382.84,154.26 383.59,154.28 384.34,154.20 385.09,154.22 385.84,154.24 386.59,154.26 387.34,154.28 388.09,154.30 388.84,154.32 389.60,154.34 390.35,154.36 391.10,154.38 391.85,154.40 392.60,154.42 393.35,154.44 394.10,154.46 394.85,154.47 395.60,154.49 396.35,154.44 397.10,154.46 397.85,154.48 398.60,154.50 399.35,154.52 400.11,154.54 400.86,154.56 401.61,154.57 402.36,154.59 403.11,154.61 403.86,154.63 404.61,154.65 405.36,154.67 406.11,154.69 406.86,154.70 407.61,154.72 408.36,154.70 409.11,154.72 409.87,154.73 410.62,154.75 411.37,154.77 412.12,154.79 412.87,154.81 413.62,154.82 414.37,154.84 415.12,154.86 415.87,154.88 416.62,154.89 417.37,154.91 418.12,154.93 418.87,154.95 419.62,154.96 420.38,154.97 421.13,154.98 421.88,155.00 422.63,155.02 423.38,155.03 424.13,155.05 424.88,155.07 425.63,155.08 426.38,155.10 427.13,155.12 427.88,155.14 428.63,155.15 429.38,155.17 430.13,155.19 430.89,155.20 431.64,155.22 432.39,155.25 433.14,155.26 433.89,155.28 434.64,155.30 435.39,155.31 436.14,155.33 436.89,155.34 437.64,155.36 438.39,155.38 439.14,155.39 439.89,155.41 440.65,155.43 441.40,155.44 442.15,155.46 442.90,155.47 443.65,155.49 444.40,155.54 445.15,155.56 445.90,155.57 446.65,155.59 447.40,155.61 448.15,155.62 448.90,155.64 449.65,155.65 450.40,155.67 451.16,155.68 451.91,155.70 452.66,155.71 453.41,155.73 454.16,155.74 454.91,155.76 455.66,155.77 456.41,155.85 457.16,155.87 457.91,155.88 458.66,155.90 459.41,155.91 460.16,155.93 460.91,155.94 461.67,155.96 462.42,155.97 463.17,155.99 463.92,156.00 464.67,156.02 465.42,156.03 466.17,156.05 466.92,156.06 467.67,156.07 468.42,156.18 469.17,156.20 469.92,156.21 470.67,156.22 471.43,156.24 472.18,156.25 472.93,156.27 473.68,156.28 474.43,156.29 475.18,156.31 475.93,156.32 476.68,156.34 477.43,156.35 478.18,156.36 478.93,156.38 479.68,156.39 480.43,156.53 481.18,156.54 481.94,156.55 482.69,156.57 483.44,156.58 484.19,156.59 484.94,156.61 485.69,156.62 486.44,156.63 487.19,156.65 487.94,156.66 488.69,156.67 489.44,156.69 490.19,156.70 490.94,156.71 491.70,156.73 492.45,156.89 493.20,156.90 493.95,156.92 494.70,156.93 495.45,156.94 496.20,156.95 496.95,156.97 497.70,156.98 498.45,156.99 499.20,157.00 499.95,157.02 500.70,157.03 501.45,157.04 502.21,157.05 502.96,157.07 503.71,157.08 504.46,157.27 505.21,157.28 505.96,157.30 506.71,157.31 507.46,157.32 508.21,157.33 508.96,157.34 509.71,157.36 510.46,157.37 511.21,157.38 511.96,157.39 512.72,157.40 513.47,157.42 514.22,157.43 514.97,157.44 515.72,157.45 516.47,157.67 517.22,157.69 517.97,157.70 518.72,157.71 519.47,157.72 520.22,157.73 520.97,157.74 521.72,157.75 522.48,157.77 523.23,157.78 523.98,157.79 524.73,157.80 525.48,157.81 526.23,157.82 526.98,157.83 527.73,157.84 528.48,158.10 529.23,158.11 529.98,158.12 530.73,158.13 531.48,158.14 532.23,158.15 532.99,158.16 533.74,158.18 534.49,158.19 535.24,158.20 535.99,158.21 536.74,158.22 537.49,158.23 538.24,158.24 538.99,158.25 539.74,158.26 540.49,158.55 541.24,158.56 541.99,158.57 542.74,158.58 543.50,158.59 544.25,158.60 545.00,158.61 545.75,158.62 546.50,158.63 547.25,158.64 548.00,158.65 548.75,158.66 549.50,158.67 550.25,158.68 551.00,158.69 551.75,158.70 552.50,159.02 553.26,159.03 554.01,159.04 554.76,159.05 555.51,159.06 556.26,159.07 557.01,159.08 557.76,159.09 558.51,159.10 559.26,159.11 560.01,159.12 560.76,159.13 561.51,159.14 562.26,159.15 563.01,159.16 563.77,159.17 564.52,159.53 565.27,159.53 566.02,159.54 566.77,159.55 567.52,159.56 568.27,159.57 569.02,159.58 569.77,159.59 570.52,159.60 571.27,159.61 572.02,159.62 572.77,159.63 573.52,159.63 574.28,159.64 575.03,159.65 575.78,159.66 576.53,160.06 577.28,160.07 578.03,160.08 578.78,160.08 579.53,160.09 580.28,160.10 581.03,160.11 581.78,160.12 582.53,160.13 583.28,160.14 584.04,160.14 584.79,160.15 585.54,160.16 586.29,160.17 587.04,160.18 587.79,160.19 588.54,160.63 589.29,160.63 590.04,160.64 590.79,160.65 591.54,160.66 592.29,160.67 593.04,160.67 593.79,160.68 594.55,160.69 595.30,160.70 596.05,160.71 596.80,160.71 597.55,160.72 598.30,160.73 599.05,160.74 599.80,160.75 600.55,161.23 601.30,161.24 602.05,161.25 602.80,161.25 603.55,161.26 604.30,161.27 605.06,161.28 605.81,161.28 606.56,161.29 607.31,161.30 608.06,161.31 608.81,161.31 609.56,161.32 610.31,161.33 611.06,161.34 611.81,161.34 612.56,161.88 613.31,161.88 614.06,161.89 614.82,161.90 615.57,161.90 616.32,161.91 617.07,161.92 617.82,161.93 618.57,161.93 619.32,161.94 620.07,161.95 620.82,161.95 621.57,161.96 622.32,161.97 623.07,161.97 623.82,161.98 624.57,162.57 625.33,162.58 626.08,162.58 626.83,162.59 627.58,162.60 628.33,162.60 629.08,162.61 629.83,162.61 630.58,162.62 631.33,162.63 632.08,162.63 632.83,162.64 633.58,162.65 634.33,162.65 635.09,162.66 635.84,162.67 636.59,163.31 637.34,163.32 638.09,163.33 638.84,163.33 639.59,163.34 640.34,163.34 641.09,163.35 641.84,163.36 642.59,163.36 643.34,163.37 644.09,163.37 644.84,163.38 645.60,163.39 646.35,163.39 647.10,163.40 647.85,163.40 648.60,164.12 649.35,164.12 650.10,164.13 650.85,164.14 651.60,164.14 652.35,164.15 653.10,164.15 653.85,164.16 654.60,164.16 655.35,164.17 656.11,164.18 656.86,164.18 657.61,164.19 658.36,164.19 659.11,164.20 659.86,164.20 660.61,164.99 661.36,165.00 662.11,165.00 662.86,165.01 663.61,165.01 664.36,165.02 665.11,165.03 665.87,165.03 666.62,165.04 667.37,165.04 668.12,165.05 668.87,165.05 669.62,165.06 670.37,165.06 671.12,165.07 671.87,165.07 672.62,165.95 673.37,165.95 674.12,165.96 674.87,165.96 675.62,165.97 676.38,165.97 677.13,165.98 677.88,165.98 678.63,165.99 679.38,165.99 680.13,166.00 680.88,166.00 681.63,166.01 682.38,166.01 683.13,166.01 683.88,166.02 684.63,167.00 685.38,167.01 686.13,167.01 686.89,167.01 687.64,167.02 688.39,167.02 689.14,167.03 689.89,167.03 690.64,167.04 691.39,167.04 692.14,167.04 692.89,167.05 693.64,167.05 694.39,167.06 695.14,167.06 695.89,167.06 696.65,168.17 697.40,168.17 698.15,168.18 698.90,168.18 699.65,168.18 700.40,168.19 701.15,168.19 701.90,168.20 702.65,168.20 703.40,168.20 704.15,168.21 704.90,168.21 705.65,168.21 706.40,168.22 707.16,168.22 707.91,168.23 708.66,169.48 709.41,169.48 710.16,169.49 710.91,169.49 711.66,169.49 712.41,169.50 713.16,169.50 713.91,169.50 714.66,169.51 715.41,169.51 716.16,169.51 716.91,169.52 717.67,169.52 718.42,169.52 719.17,169.53 719.92,169.53 720.67,170.97 721.42,170.97 722.17,170.97 722.92,170.98 723.67,170.98 724.42,170.98 725.17,170.99 725.92,170.99 726.67,170.99 727.43,171.00 728.18,171.00 728.93,171.00 729.68,171.00 730.43,171.01 731.18,171.01 731.93,171.01 732.68,172.69 733.43,172.70 734.18,172.70 734.93,172.70 735.68,172.70 736.43,172.71 737.18,172.71 737.94,172.71 738.69,172.72 739.44,172.72 740.19,172.72 740.94,172.72 741.69,172.73 742.44,172.73 743.19,172.73 743.94,172.73 744.69,174.74 745.44,174.74 746.19,174.74 746.94,174.75 747.70,174.75 748.45,174.75 749.20,174.75 749.95,174.76 750.70,174.76 751.45,174.76 752.20,174.76 752.95,174.76 753.70,174.77 754.45,174.77 755.20,174.77 755.95,174.77 756.70,177.25 757.45,177.25 758.21,177.25 758.96,177.25 759.71,177.26 760.46,177.26 761.21,177.26 761.96,177.26 762.71,177.26 763.46,177.27 764.21,177.27 764.96,177.27 765.71,177.27 766.46,177.27 767.21,177.27 767.96,177.28 768.72,180.49 769.47,180.49 770.22,180.49 770.97,180.49 771.72,180.50 772.47,180.50 773.22,180.50 773.97,180.50 774.72,180.50 775.47,180.50 776.22,180.50 776.97,180.51 777.72,180.51 778.48,180.51 779.23,180.51 779.98,180.51 780.73,185.06 781.48,185.06 782.23,185.06 782.98,185.07 783.73,185.07 784.48,185.07 785.23,185.07 785.98,185.07 786.73,185.07 787.48,185.07 788.23,185.08 788.99,185.08 789.74,185.08 790.49,185.08 791.24,185.08 791.99,185.08 792.74,192.88 793.49,192.89 794.24,192.89 794.99,192.89 795.74,192.89 796.49,192.89 797.24,192.90 797.99,192.90 798.74,192.90 799.50,192.90 800.25,192.90 801.00,192.90 801.75,192.90 802.50,192.91 803.25,192.91 804.00,244.00" />
  <text x="420.0" y="22" text-anchor="middle" font-family="Arial, Helvetica, sans-serif" font-size="15" fill="#102a43">gaussian_0p35 window (magnitude spectrum)</text>
  <text x="420.0" y="272" text-anchor="middle" font-family="Arial, Helvetica, sans-serif" font-size="12" fill="#334e68">normalized frequency</text>
  <text x="14" y="140.0" transform="rotate(-90 14,140.0)" text-anchor="middle" font-family="Arial, Helvetica, sans-serif" font-size="12" fill="#334e68">magnitude (dB)</text>
  <text x="36" y="262" font-family="Arial, Helvetica, sans-serif" font-size="11" fill="#486581">0</text>
  <text x="804" y="262" text-anchor="end" font-family="Arial, Helvetica, sans-serif" font-size="11" fill="#486581">1</text>
  <text x="30" y="40" text-anchor="end" font-family="Arial, Helvetica, sans-serif" font-size="11" fill="#486581">0.0</text>
  <text x="30" y="248" text-anchor="end" font-family="Arial, Helvetica, sans-serif" font-size="11" fill="#486581">-160.0</text>
</svg>
