<svg xmlns="http://www.w3.org/2000/svg" width="840" height="280" viewBox="0 0 840 280">
  <rect x="0" y="0" width="840" height="280" fill="#ffffff" />
  <rect x="36" y="36" width="768" height="208" fill="#f7fbff" stroke="#c8d9e6" />
  <polyline fill="none" stroke="#005f73" stroke-width="2" points="36.00,243.93 36.75,243.93 37.50,243.93 38.25,243.92 39.00,243.92 39.75,243.92 40.50,243.92 41.26,243.91 42.01,243.91 42.76,243.91 43.51,243.90 44.26,243.90 45.01,243.90 45.76,243.90 46.51,243.89 47.26,243.89 48.01,243.89 48.76,243.88 49.51,243.88 50.26,243.88 51.01,243.87 51.77,243.87 52.52,243.86 53.27,243.86 54.02,243.85 54.77,243.85 55.52,243.85 56.27,243.84 57.02,243.84 57.77,243.83 58.52,243.83 59.27,243.82 60.02,243.82 60.77,243.81 61.52,243.80 62.28,243.80 63.03,243.79 63.78,243.79 64.53,243.78 65.28,243.77 66.03,243.77 66.78,243.76 67.53,243.75 68.28,243.75 69.03,243.74 69.78,243.73 70.53,243.72 71.28,243.72 72.04,243.71 72.79,243.70 73.54,243.69 74.29,243.68 75.04,243.67 75.79,243.66 76.54,243.65 77.29,243.64 78.04,243.63 78.79,243.62 79.54,243.61 80.29,243.60 81.04,243.59 81.79,243.58 82.55,243.57 83.30,243.56 84.05,243.54 84.80,243.53 85.55,243.52 86.30,243.51 87.05,243.49 87.80,243.48 88.55,243.46 89.30,243.45 90.05,243.43 90.80,243.42 91.55,243.40 92.30,243.39 93.06,243.37 93.81,243.35 94.56,243.34 95.31,243.32 96.06,243.30 96.81,243.28 97.56,243.26 98.31,243.24 99.06,243.22 99.81,243.20 100.56,243.18 101.31,243.16 102.06,243.14 102.82,243.11 103.57,243.09 104.32,243.07 105.07,243.04 105.82,243.02 106.57,242.99 107.32,242.97 108.07,242.94 108.82,242.91 109.57,242.89 110.32,242.86 111.07,242.83 111.82,242.80 112.57,242.77 113.33,242.74 114.08,242.70 114.83,242.67 115.58,242.64 116.33,242.60 117.08,242.57 117.83,242.53 118.58,242.50 119.33,242.46 120.08,242.42 120.83,242.38 121.58,242.34 122.33,242.30 123.09,242.26 123.84,242.22 124.59,242.18 125.34,242.13 126.09,242.09 126.84,242.04 127.59,241.99 128.34,241.94 129.09,241.89 129.84,241.84 130.59,241.79 131.34,241.74 132.09,241.69 132.84,241.63 133.60,241.58 134.35,241.52 135.10,241.46 135.85,241.40 136.60,241.34 137.35,241.28 138.10,241.21 138.85,241.15 139.60,241.08 140.35,241.02 141.10,240.95 141.85,240.88 142.60,240.81 143.35,240.73 144.11,240.66 144.86,240.58 145.61,240.51 146.36,240.43 147.11,240.35 147.86,240.26 148.61,240.18 149.36,240.10 150.11,240.01 150.86,239.92 151.61,239.83 152.36,239.74 153.11,239.64 153.87,239.55 154.62,239.45 155.37,239.35 156.12,239.25 156.87,239.15 157.62,239.04 158.37,238.94 159.12,238.83 159.87,238.72 160.62,238.60 161.37,238.49 162.12,238.37 162.87,238.25 163.62,238.13 164.38,238.01 165.13,237.88 165.88,237.75 166.63,237.62 167.38,237.49 168.13,237.35 168.88,237.22 169.63,237.08 170.38,236.93 171.13,236.79 171.88,236.64 172.63,236.49 173.38,236.34 174.13,236.18 174.89,236.03 175.64,235.87 176.39,235.70 177.14,235.54 177.89,235.37 178.64,235.20 179.39,235.02 180.14,234.84 180.89,234.66 181.64,234.48 182.39,234.29 183.14,234.11 183.89,233.91 184.65,233.72 185.40,233.52 186.15,233.32 186.90,233.11 187.65,232.90 188.40,232.69 189.15,232.48 189.90,232.26 190.65,232.04 191.40,231.81 192.15,231.58 192.90,231.35 193.65,231.11 194.40,230.88 195.16,230.63 195.91,230.39 196.66,230.14 197.41,229.88 198.16,229.62 198.91,229.36 199.66,229.10 200.41,228.83 201.16,228.55 201.91,228.28 202.66,227.99 203.41,227.71 204.16,227.42 204.91,227.13 205.67,226.83 206.42,226.53 207.17,226.22 207.92,225.91 208.67,225.60 209.42,225.28 210.17,224.95 210.92,224.63 211.67,224.29 212.42,223.96 213.17,223.62 213.92,223.27 214.67,222.92 215.43,222.56 216.18,222.21 216.93,221.84 217.68,221.47 218.43,221.10 219.18,220.72 219.93,220.34 220.68,219.95 221.43,219.56 222.18,219.16 222.93,218.76 223.68,218.35 224.43,217.93 225.18,217.52 225.94,217.09 226.69,216.67 227.44,216.23 228.19,215.80 228.94,215.35 229.69,214.90 230.44,214.45 231.19,213.99 231.94,213.53 232.69,213.06 233.44,212.58 234.19,212.10 234.94,211.62 235.70,211.13 236.45,210.63 237.20,210.13 237.95,209.62 238.70,209.11 239.45,208.59 240.20,208.07 240.95,207.54 241.70,207.00 242.45,206.46 243.20,205.92 243.95,205.37 244.70,204.81 245.45,204.25 246.21,203.68 246.96,203.10 247.71,202.52 248.46,201.94 249.21,201.35 249.96,200.75 250.71,200.15 251.46,199.54 252.21,198.93 252.96,198.31 253.71,197.69 254.46,197.06 255.21,196.42 255.96,195.78 256.72,195.13 257.47,194.48 258.22,193.82 258.97,193.16 259.72,192.49 260.47,191.81 261.22,191.13 261.97,190.44 262.72,189.75 263.47,189.05 264.22,188.35 264.97,187.64 265.72,186.92 266.48,186.20 267.23,185.48 267.98,184.75 268.73,184.01 269.48,183.27 270.23,182.52 270.98,181.77 271.73,181.01 272.48,180.25 273.23,179.48 273.98,178.70 274.73,177.92 275.48,177.14 276.23,176.35 276.99,175.55 277.74,174.75 278.49,173.95 279.24,173.14 279.99,172.32 280.74,171.50 281.49,170.68 282.24,169.85 282.99,169.01 283.74,168.17 284.49,167.33 285.24,166.48 285.99,165.63 286.74,164.77 287.50,163.90 288.25,163.04 289.00,162.17 289.75,161.29 290.50,160.41 291.25,159.53 292.00,158.64 292.75,157.74 293.50,156.85 294.25,155.95 295.00,155.04 295.75,154.14 296.50,153.22 297.26,152.31 298.01,151.39 298.76,150.47 299.51,149.54 300.26,148.61 301.01,147.68 301.76,146.74 302.51,145.80 303.26,144.86 304.01,143.92 304.76,142.97 305.51,142.02 306.26,141.07 307.01,140.11 307.77,139.15 308.52,138.19 309.27,137.23 310.02,136.26 310.77,135.30 311.52,134.33 312.27,133.36 313.02,132.38 313.77,131.41 314.52,130.43 315.27,129.46 316.02,128.48 316.77,127.50 317.52,126.52 318.28,125.54 319.03,124.55 319.78,123.57 320.53,122.58 321.28,121.60 322.03,120.61 322.78,119.63 323.53,118.64 324.28,117.66 325.03,116.67 325.78,115.68 326.53,114.70 327.28,113.71 328.04,112.73 328.79,111.74 329.54,110.76 330.29,109.78 331.04,108.80 331.79,107.82 332.54,106.84 333.29,105.86 334.04,104.88 334.79,103.91 335.54,102.94 336.29,101.97 337.04,101.00 337.79,100.03 338.55,99.07 339.30,98.11 340.05,97.15 340.80,96.19 341.55,95.24 342.30,94.29 343.05,93.34 343.80,92.39 344.55,91.45 345.30,90.52 346.05,89.58 346.80,88.65 347.55,87.73 348.30,86.81 349.06,85.89 349.81,84.98 350.56,84.07 351.31,83.16 352.06,82.26 352.81,81.37 353.56,80.48 354.31,79.60 355.06,78.72 355.81,77.84 356.56,76.98 357.31,76.12 358.06,75.26 358.82,74.41 359.57,73.57 360.32,72.73 361.07,71.90 361.82,71.07 362.57,70.25 363.32,69.44 364.07,68.64 364.82,67.84 365.57,67.05 366.32,66.27 367.07,65.49 367.82,64.72 368.57,63.96 369.33,63.21 370.08,62.47 370.83,61.73 371.58,61.00 372.33,60.28 373.08,59.57 373.83,58.87 374.58,58.18 375.33,57.49 376.08,56.81 376.83,56.15 377.58,55.49 378.33,54.84 379.09,54.20 379.84,53.57 380.59,52.95 381.34,52.34 382.09,51.74 382.84,51.15 383.59,50.57 384.34,49.99 385.09,49.43 385.84,48.88 386.59,48.34 387.34,47.81 388.09,47.29 388.84,46.79 389.60,46.29 390.35,45.80 391.10,45.33 391.85,44.86 392.60,44.41 393.35,43.96 394.10,43.53 394.85,43.11 395.60,42.70 396.35,42.31 397.10,41.92 397.85,41.55 398.60,41.19 399.35,40.84 400.11,40.50 400.86,40.17 401.61,39.86 402.36,39.55 403.11,39.26 403.86,38.98 404.61,38.72 405.36,38.46 406.11,38.22 406.86,37.99 407.61,37.78 408.36,37.57 409.11,37.38 409.87,37.20 410.62,37.03 411.37,36.88 412.12,36.73 412.87,36.60 413.62,36.49 414.37,36.38 415.12,36.29 415.87,36.21 416.62,36.14 417.37,36.09 418.12,36.05 418.87,36.02 419.62,36.00 420.38,36.00 421.13,36.01 421.88,36.03 422.63,36.07 423.38,36.11 424.13,36.18 424.88,36.25 425.63,36.33 426.38,36.43 427.13,36.54 427.88,36.67 428.63,36.80 429.38,36.95 430.13,37.11 430.89,37.29 431.64,37.47 432.39,37.67 433.14,37.88 433.89,38.11 434.64,38.34 435.39,38.59 436.14,38.85 436.89,39.12 437.64,39.41 438.39,39.70 439.14,40.01 439.89,40.33 440.65,40.67 441.40,41.01 442.15,41.37 442.90,41.73 443.65,42.11 444.40,42.50 445.15,42.91 445.90,43.32 446.65,43.75 447.40,44.18 448.15,44.63 448.90,45.09 449.65,45.56 450.40,46.04 451.16,46.54 451.91,47.04 452.66,47.55 453.41,48.08 454.16,48.61 454.91,49.16 455.66,49.71 456.41,50.28 457.16,50.85 457.91,51.44 458.66,52.04 459.41,52.64 460.16,53.26 460.91,53.88 461.67,54.52 462.42,55.16 463.17,55.82 463.92,56.48 464.67,57.15 465.42,57.83 466.17,58.52 466.92,59.22 467.67,59.93 468.42,60.64 469.17,61.37 469.92,62.10 470.67,62.84 471.43,63.59 472.18,64.34 472.93,65.11 473.68,65.88 474.43,66.66 475.18,67.44 475.93,68.24 476.68,69.04 477.43,69.85 478.18,70.66 478.93,71.48 479.68,72.31 480.43,73.15 481.18,73.99 481.94,74.83 482.69,75.69 483.44,76.55 484.19,77.41 484.94,78.28 485.69,79.16 486.44,80.04 487.19,80.92 487.94,81.82 488.69,82.71 489.44,83.61 490.19,84.52 490.94,85.43 491.70,86.35 492.45,87.27 493.20,88.19 493.95,89.12 494.70,90.05 495.45,90.99 496.20,91.92 496.95,92.87 497.70,93.81 498.45,94.76 499.20,95.71 499.95,96.67 500.70,97.63 501.45,98.59 502.21,99.55 502.96,100.51 503.71,101.48 504.46,102.45 505.21,103.42 505.96,104.40 506.71,105.37 507.46,106.35 508.21,107.33 508.96,108.31 509.71,109.29 510.46,110.27 511.21,111.25 511.96,112.24 512.72,113.22 513.47,114.21 514.22,115.19 514.97,116.18 515.72,117.16 516.47,118.15 517.22,119.14 517.97,120.12 518.72,121.11 519.47,122.09 520.22,123.08 520.97,124.06 521.72,125.04 522.48,126.03 523.23,127.01 523.98,127.99 524.73,128.97 525.48,129.95 526.23,130.92 526.98,131.90 527.73,132.87 528.48,133.84 529.23,134.81 529.98,135.78 530.73,136.75 531.48,137.71 532.23,138.67 532.99,139.63 533.74,140.59 534.49,141.54 535.24,142.49 535.99,143.44 536.74,144.39 537.49,145.33 538.24,146.27 538.99,147.21 539.74,148.14 540.49,149.08 541.24,150.00 541.99,150.93 542.74,151.85 543.50,152.77 544.25,153.68 545.00,154.59 545.75,155.50 546.50,156.40 547.25,157.30 548.00,158.19 548.75,159.08 549.50,159.97 550.25,160.85 551.00,161.73 551.75,162.60 552.50,163.47 553.26,164.34 554.01,165.20 554.76,166.05 555.51,166.90 556.26,167.75 557.01,168.59 557.76,169.43 558.51,170.26 559.26,171.09 560.01,171.91 560.76,172.73 561.51,173.54 562.26,174.35 563.01,175.15 563.77,175.95 564.52,176.74 565.27,177.53 566.02,178.31 566.77,179.09 567.52,179.86 568.27,180.63 569.02,181.39 569.77,182.15 570.52,182.90 571.27,183.64 572.02,184.38 572.77,185.11 573.52,185.84 574.28,186.57 575.03,187.28 575.78,187.99 576.53,188.70 577.28,189.40 578.03,190.10 578.78,190.79 579.53,191.47 580.28,192.15 581.03,192.82 581.78,193.49 582.53,194.15 583.28,194.81 584.04,195.46 584.79,196.10 585.54,196.74 586.29,197.37 587.04,198.00 587.79,198.62 588.54,199.24 589.29,199.85 590.04,200.45 590.79,201.05 591.54,201.65 592.29,202.23 593.04,202.82 593.79,203.39 594.55,203.96 595.30,204.53 596.05,205.09 596.80,205.64 597.55,206.19 598.30,206.73 599.05,207.27 599.80,207.80 600.55,208.33 601.30,208.85 602.05,209.37 602.80,209.87 603.55,210.38 604.30,210.88 605.06,211.37 605.81,211.86 606.56,212.34 607.31,212.82 608.06,213.29 608.81,213.76 609.56,214.22 610.31,214.68 611.06,215.13 611.81,215.57 612.56,216.01 613.31,216.45 614.06,216.88 614.82,217.31 615.57,217.73 616.32,218.14 617.07,218.55 617.82,218.96 618.57,219.36 619.32,219.75 620.07,220.14 620.82,220.53 621.57,220.91 622.32,221.29 623.07,221.66 623.82,222.02 624.57,222.39 625.33,222.74 626.08,223.10 626.83,223.44 627.58,223.79 628.33,224.13 629.08,224.46 629.83,224.79 630.58,225.12 631.33,225.44 632.08,225.75 632.83,226.07 633.58,226.37 634.33,226.68 635.09,226.98 635.84,227.27 636.59,227.56 637.34,227.85 638.09,228.14 638.84,228.42 639.59,228.69 640.34,228.96 641.09,229.23 641.84,229.49 642.59,229.75 643.34,230.01 644.09,230.26 644.84,230.51 645.60,230.75 646.35,231.00 647.10,231.23 647.85,231.47 648.60,231.70 649.35,231.92 650.10,232.15 650.85,232.37 651.60,232.58 652.35,232.80 653.10,233.01 653.85,233.21 654.60,233.42 655.35,233.62 656.11,233.82 656.86,234.01 657.61,234.20 658.36,234.39 659.11,234.57 659.86,234.75 660.61,234.93 661.36,235.11 662.11,235.28 662.86,235.45 663.61,235.62 664.36,235.78 665.11,235.95 665.87,236.11 666.62,236.26 667.37,236.42 668.12,236.57 668.87,236.72 669.62,236.86 670.37,237.01 671.12,237.15 671.87,237.29 672.62,237.42 673.37,237.56 674.12,237.69 674.87,237.82 675.62,237.94 676.38,238.07 677.13,238.19 677.88,238.31 678.63,238.43 679.38,238.55 680.13,238.66 680.88,238.77 681.63,238.88 682.38,238.99 683.13,239.10 683.88,239.20 684.63,239.30 685.38,239.40 686.13,239.50 686.89,239.60 687.64,239.69 688.39,239.78 689.14,239.88 689.89,239.96 690.64,240.05 691.39,240.14 692.14,240.22 692.89,240.31 693.64,240.39 694.39,240.47 695.14,240.54 695.89,240.62 696.65,240.70 697.40,240.77 698.15,240.84 698.90,240.91 699.65,240.98 700.40,241.05 701.15,241.12 701.90,241.18 702.65,241.25 703.40,241.31 704.15,241.37 704.90,241.43 705.65,241.49 706.40,241.55 707.16,241.60 707.91,241.66 708.66,241.71 709.41,241.77 710.16,241.82 710.91,241.87 711.66,241.92 712.41,241.97 713.16,242.02 713.91,242.06 714.66,242.11 715.41,242.15 716.16,242.20 716.91,242.24 717.67,242.28 718.42,242.32 719.17,242.36 719.92,242.40 720.67,242.44 721.42,242.48 722.17,242.52 722.92,242.55 723.67,242.59 724.42,242.62 725.17,242.66 725.92,242.69 726.67,242.72 727.43,242.75 728.18,242.78 728.93,242.81 729.68,242.84 730.43,242.87 731.18,242.90 731.93,242.93 732.68,242.95 733.43,242.98 734.18,243.01 734.93,243.03 735.68,243.06 736.43,243.08 737.18,243.10 737.94,243.13 738.69,243.15 739.44,243.17 740.19,243.19 740.94,243.21 741.69,243.23 742.44,243.25 743.19,243.27 743.94,243.29 744.69,243.31 745.44,243.33 746.19,243.34 746.94,243.36 747.70,243.38 748.45,243.40 749.20,243.41 749.95,243.43 750.70,243.44 751.45,243.46 752.20,243.47 752.95,243.49 753.70,243.50 754.45,243.51 755.20,243.53 755.95,243.54 756.70,243.55 757.45,243.56 758.21,243.57 758.96,243.59 759.71,243.60 760.46,243.61 761.21,243.62 761.96,243.63 762.71,243.64 763.46,243.65 764.21,243.66 764.96,243.67 765.71,243.68 766.46,243.69 767.21,243.70 767.96,243.70 768.72,243.71 769.47,243.72 770.22,243.73 770.97,243.74 771.72,243.74 772.47,243.75 773.22,243.76 773.97,243.76 774.72,243.77 775.47,243.78 776.22,243.78 776.97,243.79 777.72,243.80 778.48,243.80 779.23,243.81 779.98,243.81 780.73,243.82 781.48,243.82 782.23,243.83 782.98,243.83 783.73,243.84 784.48,243.84 785.23,243.85 785.98,243.85 786.73,243.86 787.48,243.86 788.23,243.87 788.99,243.87 789.74,243.87 790.49,243.88 791.24,243.88 791.99,243.88 792.74,243.89 793.49,243.89 794.24,243.89 794.99,243.90 795.74,243.90 796.49,243.90 797.24,243.91 797.99,243.91 798.74,243.91 799.50,243.91 800.25,243.92 801.00,243.92 801.75,243.92 802.50,243.92 803.25,243.93 804.00,243.93" />
  <text x="420.0" y="22" text-anchor="middle" font-family="Arial, Helvetica, sans-serif" font-size="15" fill="#102a43">gaussian_0p25 window (time domain)</text>
  <text x="420.0" y="272" text-anchor="middle" font-family="Arial, Helvetica, sans-serif" font-size="12" fill="#334e68">normalized sample index</text>
  <text x="14" y="140.0" transform="rotate(-90 14,140.0)" text-anchor="middle" font-family="Arial, Helvetica, sans-serif" font-size="12" fill="#334e68">amplitude</text>
  <text x="36" y="262" font-family="Arial, Helvetica, sans-serif" font-size="11" fill="#486581">0</text>
  <text x="804" y="262" text-anchor="end" font-family="Arial, Helvetica, sans-serif" font-size="11" fill="#486581">1</text>
  <text x="30" y="40" text-anchor="end" font-family="Arial, Helvetica, sans-serif" font-size="11" fill="#486581">1.0</text>
  <text x="30" y="248" text-anchor="end" font-family="Arial, Helvetica, sans-serif" font-size="11" fill="#486581">0.0</text>
</svg>
