<svg xmlns="http://www.w3.org/2000/svg" width="840" height="280" viewBox="0 0 840 280">
  <rect x="0" y="0" width="840" height="280" fill="#ffffff" />
  <rect x="36" y="36" width="768" height="208" fill="#f7fbff" stroke="#c8d9e6" />
  <polyline fill="none" stroke="#005f73" stroke-width="2" points="36.00,36.00 36.75,53.15 37.50,77.31 38.25,86.33 39.00,92.89 39.75,97.96 40.50,102.09 41.26,105.59 42.01,108.61 42.76,111.28 43.51,113.66 44.26,115.82 45.01,117.78 45.76,119.59 46.51,121.27 47.26,122.83 48.01,160.23 48.76,150.94 49.51,146.85 50.26,144.44 51.01,142.85 51.77,141.75 52.52,140.95 53.27,140.37 54.02,139.94 54.77,139.63 55.52,139.40 56.27,139.24 57.02,139.13 57.77,139.06 58.52,139.03 59.27,139.02 60.02,126.94 60.77,127.18 61.52,127.42 62.28,127.65 63.03,127.88 63.78,128.11 64.53,128.33 65.28,128.55 66.03,128.77 66.78,128.98 67.53,129.19 68.28,129.40 69.03,129.60 69.78,129.80 70.53,130.00 71.28,130.19 72.04,125.14 72.79,125.34 73.54,125.54 74.29,125.74 75.04,125.93 75.79,126.13 76.54,126.31 77.29,126.50 78.04,126.68 78.79,126.86 79.54,127.04 80.29,127.21 81.04,127.38 81.79,127.55 82.55,127.72 83.30,127.88 84.05,124.58 84.80,124.75 85.55,124.91 86.30,125.07 87.05,125.22 87.80,125.38 88.55,125.53 89.30,125.68 90.05,125.83 90.80,125.98 91.55,126.12 92.30,126.26 93.06,126.40 93.81,126.54 94.56,126.68 95.31,126.82 96.06,124.36 96.81,124.49 97.56,124.63 98.31,124.76 99.06,124.89 99.81,125.01 100.56,125.14 101.31,125.26 102.06,125.39 102.82,125.51 103.57,125.63 104.32,125.75 105.07,125.87 105.82,125.99 106.57,126.10 107.32,126.22 108.07,124.26 108.82,124.37 109.57,124.48 110.32,124.60 111.07,124.70 111.82,124.81 112.57,124.92 113.33,125.03 114.08,125.13 114.83,125.24 115.58,125.34 116.33,125.44 117.08,125.54 117.83,125.64 118.58,125.74 119.33,125.84 120.08,124.22 120.83,124.32 121.58,124.42 122.33,124.51 123.09,124.61 123.84,124.70 124.59,124.79 125.34,124.89 126.09,124.98 126.84,125.07 127.59,125.16 128.34,125.25 129.09,125.34 129.84,125.43 130.59,125.51 131.34,125.60 132.09,124.22 132.84,124.31 133.60,124.39 134.35,124.48 135.10,124.56 135.85,124.64 136.60,124.72 137.35,124.81 138.10,124.89 138.85,124.97 139.60,125.05 140.35,125.13 141.10,125.20 141.85,125.28 142.60,125.36 143.35,125.44 144.11,124.24 144.86,124.32 145.61,124.40 146.36,124.47 147.11,124.54 147.86,124.62 148.61,124.69 149.36,124.76 150.11,124.84 150.86,124.91 151.61,124.98 152.36,125.05 153.11,125.12 153.87,125.19 154.62,125.26 155.37,125.33 156.12,124.28 156.87,124.35 157.62,124.42 158.37,124.49 159.12,124.55 159.87,124.62 160.62,124.69 161.37,124.75 162.12,124.82 162.87,124.88 163.62,124.95 164.38,125.01 165.13,125.08 165.88,125.14 166.63,125.20 167.38,125.26 168.13,124.34 168.88,124.40 169.63,124.46 170.38,124.52 171.13,124.58 171.88,124.64 172.63,124.70 173.38,124.76 174.13,124.82 174.89,124.88 175.64,124.94 176.39,125.00 177.14,125.06 177.89,125.12 178.64,125.17 179.39,125.23 180.14,124.40 180.89,124.46 181.64,124.52 182.39,124.57 183.14,124.63 183.89,124.68 184.65,124.74 185.40,124.79 186.15,124.85 186.90,124.90 187.65,124.96 188.40,125.01 189.15,125.06 189.90,125.12 190.65,125.17 191.40,125.22 192.15,124.48 192.90,124.53 193.65,124.58 194.40,124.64 195.16,124.69 195.91,124.74 196.66,124.79 197.41,124.84 198.16,124.89 198.91,124.94 199.66,124.99 200.41,125.04 201.16,125.09 201.91,125.14 202.66,125.19 203.41,125.23 204.16,124.57 204.91,124.62 205.67,124.66 206.42,124.71 207.17,124.76 207.92,124.81 208.67,124.85 209.42,124.90 210.17,124.95 210.92,124.99 211.67,125.04 212.42,125.08 213.17,125.13 213.92,125.17 214.67,125.22 215.43,125.26 216.18,124.66 216.93,124.71 217.68,124.75 218.43,124.80 219.18,124.84 219.93,124.88 220.68,124.93 221.43,124.97 222.18,125.01 222.93,125.06 223.68,125.10 224.43,125.14 225.18,125.18 225.94,125.23 226.69,125.27 227.44,125.31 228.19,124.77 228.94,124.81 229.69,124.85 230.44,124.89 231.19,124.93 231.94,124.97 232.69,125.01 233.44,125.06 234.19,125.10 234.94,125.14 235.70,125.18 236.45,125.22 237.20,125.25 237.95,125.29 238.70,125.33 239.45,125.37 240.20,124.88 240.95,124.92 241.70,124.96 242.45,125.00 243.20,125.04 243.95,125.07 244.70,125.11 245.45,125.15 246.21,125.19 246.96,125.23 247.71,125.26 248.46,125.30 249.21,125.34 249.96,125.37 250.71,125.41 251.46,125.45 252.21,125.00 252.96,125.04 253.71,125.08 254.46,125.11 255.21,125.15 255.96,125.19 256.72,125.22 257.47,125.26 258.22,125.29 258.97,125.33 259.72,125.36 260.47,125.40 261.22,125.43 261.97,125.47 262.72,125.50 263.47,125.54 264.22,125.14 264.97,125.17 265.72,125.20 266.48,125.24 267.23,125.27 267.98,125.31 268.73,125.34 269.48,125.37 270.23,125.41 270.98,125.44 271.73,125.47 272.48,125.51 273.23,125.54 273.98,125.57 274.73,125.60 275.48,125.64 276.23,125.28 276.99,125.31 277.74,125.34 278.49,125.37 279.24,125.41 279.99,125.44 280.74,125.47 281.49,125.50 282.24,125.53 282.99,125.56 283.74,125.59 284.49,125.63 285.24,125.66 285.99,125.69 286.74,125.72 287.50,125.75 288.25,125.43 289.00,125.46 289.75,125.49 290.50,125.52 291.25,125.55 292.00,125.58 292.75,125.61 293.50,125.64 294.25,125.67 295.00,125.70 295.75,125.73 296.50,125.76 297.26,125.79 298.01,125.81 298.76,125.84 299.51,125.87 300.26,125.59 301.01,125.62 301.76,125.64 302.51,125.67 303.26,125.70 304.01,125.73 304.76,125.76 305.51,125.79 306.26,125.81 307.01,125.84 307.77,125.87 308.52,125.90 309.27,125.93 310.02,125.95 310.77,125.98 311.52,126.01 312.27,125.76 313.02,125.78 313.77,125.81 314.52,125.84 315.27,125.86 316.02,125.89 316.77,125.92 317.52,125.94 318.28,125.97 319.03,126.00 319.78,126.02 320.53,126.05 321.28,126.08 322.03,126.10 322.78,126.13 323.53,126.15 324.28,125.93 325.03,125.96 325.78,125.99 326.53,126.01 327.28,126.04 328.04,126.06 328.79,126.09 329.54,126.11 330.29,126.14 331.04,126.16 331.79,126.19 332.54,126.21 333.29,126.24 334.04,126.26 334.79,126.29 335.54,126.31 336.29,126.12 337.04,126.15 337.79,126.17 338.55,126.20 339.30,126.22 340.05,126.24 340.80,126.27 341.55,126.29 342.30,126.32 343.05,126.34 343.80,126.36 344.55,126.39 345.30,126.41 346.05,126.43 346.80,126.46 347.55,126.48 348.30,126.32 349.06,126.34 349.81,126.37 350.56,126.39 351.31,126.41 352.06,126.44 352.81,126.46 353.56,126.48 354.31,126.51 355.06,126.53 355.81,126.55 356.56,126.57 357.31,126.60 358.06,126.62 358.82,126.64 359.57,126.66 360.32,126.53 361.07,126.55 361.82,126.57 362.57,126.60 363.32,126.62 364.07,126.64 364.82,126.66 365.57,126.68 366.32,126.71 367.07,126.73 367.82,126.75 368.57,126.77 369.33,126.79 370.08,126.81 370.83,126.83 371.58,126.86 372.33,126.75 373.08,126.77 373.83,126.79 374.58,126.81 375.33,126.84 376.08,126.86 376.83,126.88 377.58,126.90 378.33,126.92 379.09,126.94 379.84,126.96 380.59,126.98 381.34,127.00 382.09,127.02 382.84,127.04 383.59,127.06 384.34,126.98 385.09,127.00 385.84,127.02 386.59,127.04 387.34,127.06 388.09,127.08 388.84,127.10 389.60,127.12 390.35,127.14 391.10,127.16 391.85,127.18 392.60,127.20 393.35,127.22 394.10,127.24 394.85,127.26 395.60,127.28 396.35,127.23 397.10,127.25 397.85,127.27 398.60,127.28 399.35,127.30 400.11,127.32 400.86,127.34 401.61,127.36 402.36,127.38 403.11,127.40 403.86,127.42 404.61,127.43 405.36,127.45 406.11,127.47 406.86,127.49 407.61,127.51 408.36,127.48 409.11,127.50 409.87,127.52 410.62,127.54 411.37,127.56 412.12,127.57 412.87,127.59 413.62,127.61 414.37,127.63 415.12,127.65 415.87,127.66 416.62,127.68 417.37,127.70 418.12,127.72 418.87,127.73 419.62,127.75 420.38,127.75 421.13,127.77 421.88,127.79 422.63,127.81 423.38,127.82 424.13,127.84 424.88,127.86 425.63,127.87 426.38,127.89 427.13,127.91 427.88,127.92 428.63,127.94 429.38,127.96 430.13,127.97 430.89,127.99 431.64,128.01 432.39,128.04 433.14,128.05 433.89,128.07 434.64,128.09 435.39,128.10 436.14,128.12 436.89,128.14 437.64,128.15 438.39,128.17 439.14,128.18 439.89,128.20 440.65,128.22 441.40,128.23 442.15,128.25 442.90,128.26 443.65,128.28 444.40,128.33 445.15,128.35 445.90,128.37 446.65,128.38 447.40,128.40 448.15,128.41 448.90,128.43 449.65,128.44 450.40,128.46 451.16,128.47 451.91,128.49 452.66,128.50 453.41,128.52 454.16,128.53 454.91,128.55 455.66,128.56 456.41,128.65 457.16,128.66 457.91,128.68 458.66,128.69 459.41,128.71 460.16,128.72 460.91,128.74 461.67,128.75 462.42,128.77 463.17,128.78 463.92,128.79 464.67,128.81 465.42,128.82 466.17,128.84 466.92,128.85 467.67,128.87 468.42,128.98 469.17,128.99 469.92,129.00 470.67,129.02 471.43,129.03 472.18,129.05 472.93,129.06 473.68,129.07 474.43,129.09 475.18,129.10 475.93,129.12 476.68,129.13 477.43,129.14 478.18,129.16 478.93,129.17 479.68,129.18 480.43,129.32 481.18,129.34 481.94,129.35 482.69,129.36 483.44,129.38 484.19,129.39 484.94,129.40 485.69,129.42 486.44,129.43 487.19,129.44 487.94,129.46 488.69,129.47 489.44,129.48 490.19,129.49 490.94,129.51 491.70,129.52 492.45,129.69 493.20,129.70 493.95,129.71 494.70,129.72 495.45,129.74 496.20,129.75 496.95,129.76 497.70,129.77 498.45,129.79 499.20,129.80 499.95,129.81 500.70,129.82 501.45,129.84 502.21,129.85 502.96,129.86 503.71,129.87 504.46,130.07 505.21,130.08 505.96,130.09 506.71,130.11 507.46,130.12 508.21,130.13 508.96,130.14 509.71,130.15 510.46,130.17 511.21,130.18 511.96,130.19 512.72,130.20 513.47,130.21 514.22,130.22 514.97,130.24 515.72,130.25 516.47,130.47 517.22,130.48 517.97,130.50 518.72,130.51 519.47,130.52 520.22,130.53 520.97,130.54 521.72,130.55 522.48,130.56 523.23,130.57 523.98,130.59 524.73,130.60 525.48,130.61 526.23,130.62 526.98,130.63 527.73,130.64 528.48,130.90 529.23,130.91 529.98,130.92 530.73,130.93 531.48,130.94 532.23,130.95 532.99,130.96 533.74,130.97 534.49,130.98 535.24,130.99 535.99,131.01 536.74,131.02 537.49,131.03 538.24,131.04 538.99,131.05 539.74,131.06 540.49,131.35 541.24,131.36 541.99,131.37 542.74,131.38 543.50,131.39 544.25,131.40 545.00,131.41 545.75,131.42 546.50,131.43 547.25,131.44 548.00,131.45 548.75,131.46 549.50,131.47 550.25,131.48 551.00,131.49 551.75,131.50 552.50,131.82 553.26,131.83 554.01,131.84 554.76,131.85 555.51,131.86 556.26,131.87 557.01,131.88 557.76,131.89 558.51,131.90 559.26,131.91 560.01,131.92 560.76,131.93 561.51,131.94 562.26,131.95 563.01,131.96 563.77,131.97 564.52,132.33 565.27,132.33 566.02,132.34 566.77,132.35 567.52,132.36 568.27,132.37 569.02,132.38 569.77,132.39 570.52,132.40 571.27,132.41 572.02,132.42 572.77,132.43 573.52,132.43 574.28,132.44 575.03,132.45 575.78,132.46 576.53,132.86 577.28,132.87 578.03,132.88 578.78,132.89 579.53,132.89 580.28,132.90 581.03,132.91 581.78,132.92 582.53,132.93 583.28,132.94 584.04,132.94 584.79,132.95 585.54,132.96 586.29,132.97 587.04,132.98 587.79,132.99 588.54,133.43 589.29,133.44 590.04,133.44 590.79,133.45 591.54,133.46 592.29,133.47 593.04,133.48 593.79,133.48 594.55,133.49 595.30,133.50 596.05,133.51 596.80,133.52 597.55,133.52 598.30,133.53 599.05,133.54 599.80,133.55 600.55,134.03 601.30,134.04 602.05,134.05 602.80,134.05 603.55,134.06 604.30,134.07 605.06,134.08 605.81,134.08 606.56,134.09 607.31,134.10 608.06,134.11 608.81,134.11 609.56,134.12 610.31,134.13 611.06,134.14 611.81,134.14 612.56,134.68 613.31,134.69 614.06,134.69 614.82,134.70 615.57,134.71 616.32,134.71 617.07,134.72 617.82,134.73 618.57,134.73 619.32,134.74 620.07,134.75 620.82,134.76 621.57,134.76 622.32,134.77 623.07,134.78 623.82,134.78 624.57,135.37 625.33,135.38 626.08,135.38 626.83,135.39 627.58,135.40 628.33,135.40 629.08,135.41 629.83,135.42 630.58,135.42 631.33,135.43 632.08,135.44 632.83,135.44 633.58,135.45 634.33,135.46 635.09,135.46 635.84,135.47 636.59,136.12 637.34,136.12 638.09,136.13 638.84,136.13 639.59,136.14 640.34,136.15 641.09,136.15 641.84,136.16 642.59,136.16 643.34,136.17 644.09,136.18 644.84,136.18 645.60,136.19 646.35,136.19 647.10,136.20 647.85,136.21 648.60,136.92 649.35,136.93 650.10,136.93 650.85,136.94 651.60,136.94 652.35,136.95 653.10,136.96 653.85,136.96 654.60,136.97 655.35,136.97 656.11,136.98 656.86,136.98 657.61,136.99 658.36,136.99 659.11,137.00 659.86,137.00 660.61,137.80 661.36,137.80 662.11,137.81 662.86,137.81 663.61,137.82 664.36,137.82 665.11,137.83 665.87,137.83 666.62,137.84 667.37,137.84 668.12,137.85 668.87,137.85 669.62,137.86 670.37,137.86 671.12,137.87 671.87,137.87 672.62,138.75 673.37,138.76 674.12,138.76 674.87,138.77 675.62,138.77 676.38,138.78 677.13,138.78 677.88,138.79 678.63,138.79 679.38,138.79 680.13,138.80 680.88,138.80 681.63,138.81 682.38,138.81 683.13,138.82 683.88,138.82 684.63,139.80 685.38,139.81 686.13,139.81 686.89,139.82 687.64,139.82 688.39,139.83 689.14,139.83 689.89,139.83 690.64,139.84 691.39,139.84 692.14,139.85 692.89,139.85 693.64,139.85 694.39,139.86 695.14,139.86 695.89,139.87 696.65,140.97 697.40,140.98 698.15,140.98 698.90,140.98 699.65,140.99 700.40,140.99 701.15,141.00 701.90,141.00 702.65,141.00 703.40,141.01 704.15,141.01 704.90,141.01 705.65,141.02 706.40,141.02 707.16,141.02 707.91,141.03 708.66,142.28 709.41,142.29 710.16,142.29 710.91,142.29 711.66,142.30 712.41,142.30 713.16,142.30 713.91,142.31 714.66,142.31 715.41,142.31 716.16,142.32 716.91,142.32 717.67,142.32 718.42,142.33 719.17,142.33 719.92,142.33 720.67,143.77 721.42,143.78 722.17,143.78 722.92,143.78 723.67,143.78 724.42,143.79 725.17,143.79 725.92,143.79 726.67,143.80 727.43,143.80 728.18,143.80 728.93,143.80 729.68,143.81 730.43,143.81 731.18,143.81 731.93,143.82 732.68,145.50 733.43,145.50 734.18,145.50 734.93,145.51 735.68,145.51 736.43,145.51 737.18,145.51 737.94,145.52 738.69,145.52 739.44,145.52 740.19,145.52 740.94,145.53 741.69,145.53 742.44,145.53 743.19,145.53 743.94,145.53 744.69,147.54 745.44,147.55 746.19,147.55 746.94,147.55 747.70,147.55 748.45,147.55 749.20,147.56 749.95,147.56 750.70,147.56 751.45,147.56 752.20,147.56 752.95,147.57 753.70,147.57 754.45,147.57 755.20,147.57 755.95,147.57 756.70,150.05 757.45,150.05 758.21,150.06 758.96,150.06 759.71,150.06 760.46,150.06 761.21,150.06 761.96,150.07 762.71,150.07 763.46,150.07 764.21,150.07 764.96,150.07 765.71,150.07 766.46,150.07 767.21,150.08 767.96,150.08 768.72,153.29 769.47,153.29 770.22,153.30 770.97,153.30 771.72,153.30 772.47,153.30 773.22,153.30 773.97,153.30 774.72,153.30 775.47,153.30 776.22,153.31 776.97,153.31 777.72,153.31 778.48,153.31 779.23,153.31 779.98,153.31 780.73,157.87 781.48,157.87 782.23,157.87 782.98,157.87 783.73,157.87 784.48,157.87 785.23,157.87 785.98,157.87 786.73,157.87 787.48,157.87 788.23,157.87 788.99,157.88 789.74,157.88 790.49,157.88 791.24,157.88 791.99,157.88 792.74,165.69 793.49,165.69 794.24,165.69 794.99,165.69 795.74,165.69 796.49,165.69 797.24,165.69 797.99,165.69 798.74,165.69 799.50,165.70 800.25,165.70 801.00,165.70 801.75,165.70 802.50,165.70 803.25,165.70 804.00,244.00" />
  <text x="420.0" y="22" text-anchor="middle" font-family="Arial, Helvetica, sans-serif" font-size="15" fill="#102a43">gaussian_0p65 window (magnitude spectrum)</text>
  <text x="420.0" y="272" text-anchor="middle" font-family="Arial, Helvetica, sans-serif" font-size="12" fill="#334e68">normalized frequency</text>
  <text x="14" y="140.0" transform="rotate(-90 14,140.0)" text-anchor="middle" font-family="Arial, Helvetica, sans-serif" font-size="12" fill="#334e68">magnitude (dB)</text>
  <text x="36" y="262" font-family="Arial, Helvetica, sans-serif" font-size="11" fill="#486581">0</text>
  <text x="804" y="262" text-anchor="end" font-family="Arial, Helvetica, sans-serif" font-size="11" fill="#486581">1</text>
  <text x="30" y="40" text-anchor="end" font-family="Arial, Helvetica, sans-serif" font-size="11" fill="#486581">0.0</text>
  <text x="30" y="248" text-anchor="end" font-family="Arial, Helvetica, sans-serif" font-size="11" fill="#486581">-160.0</text>
</svg>
