<svg xmlns="http://www.w3.org/2000/svg" width="840" height="280" viewBox="0 0 840 280">
  <rect x="0" y="0" width="840" height="280" fill="#ffffff" />
  <rect x="36" y="36" width="768" height="208" fill="#f7fbff" stroke="#c8d9e6" />
  <polyline fill="none" stroke="#005f73" stroke-width="2" points="36.00,240.49 36.75,240.43 37.50,240.38 38.25,240.32 39.00,240.26 39.75,240.20 40.50,240.14 41.26,240.08 42.01,240.02 42.76,239.95 43.51,239.89 44.26,239.82 45.01,239.76 45.76,239.69 46.51,239.62 47.26,239.56 48.01,239.49 48.76,239.42 49.51,239.34 50.26,239.27 51.01,239.20 51.77,239.13 52.52,239.05 53.27,238.97 54.02,238.90 54.77,238.82 55.52,238.74 56.27,238.66 57.02,238.58 57.77,238.50 58.52,238.41 59.27,238.33 60.02,238.24 60.77,238.16 61.52,238.07 62.28,237.98 63.03,237.89 63.78,237.80 64.53,237.71 65.28,237.61 66.03,237.52 66.78,237.42 67.53,237.32 68.28,237.23 69.03,237.13 69.78,237.03 70.53,236.92 71.28,236.82 72.04,236.72 72.79,236.61 73.54,236.50 74.29,236.39 75.04,236.28 75.79,236.17 76.54,236.06 77.29,235.95 78.04,235.83 78.79,235.71 79.54,235.60 80.29,235.48 81.04,235.36 81.79,235.23 82.55,235.11 83.30,234.98 84.05,234.86 84.80,234.73 85.55,234.60 86.30,234.47 87.05,234.33 87.80,234.20 88.55,234.06 89.30,233.93 90.05,233.79 90.80,233.65 91.55,233.50 92.30,233.36 93.06,233.21 93.81,233.07 94.56,232.92 95.31,232.77 96.06,232.62 96.81,232.46 97.56,232.31 98.31,232.15 99.06,231.99 99.81,231.83 100.56,231.66 101.31,231.50 102.06,231.33 102.82,231.17 103.57,231.00 104.32,230.82 105.07,230.65 105.82,230.47 106.57,230.30 107.32,230.12 108.07,229.94 108.82,229.75 109.57,229.57 110.32,229.38 111.07,229.19 111.82,229.00 112.57,228.81 113.33,228.61 114.08,228.42 114.83,228.22 115.58,228.01 116.33,227.81 117.08,227.61 117.83,227.40 118.58,227.19 119.33,226.98 120.08,226.76 120.83,226.55 121.58,226.33 122.33,226.11 123.09,225.89 123.84,225.66 124.59,225.44 125.34,225.21 126.09,224.98 126.84,224.74 127.59,224.51 128.34,224.27 129.09,224.03 129.84,223.79 130.59,223.54 131.34,223.29 132.09,223.05 132.84,222.79 133.60,222.54 134.35,222.28 135.10,222.02 135.85,221.76 136.60,221.50 137.35,221.23 138.10,220.96 138.85,220.69 139.60,220.42 140.35,220.14 141.10,219.86 141.85,219.58 142.60,219.30 143.35,219.01 144.11,218.73 144.86,218.44 145.61,218.14 146.36,217.85 147.11,217.55 147.86,217.25 148.61,216.94 149.36,216.64 150.11,216.33 150.86,216.01 151.61,215.70 152.36,215.38 153.11,215.06 153.87,214.74 154.62,214.42 155.37,214.09 156.12,213.76 156.87,213.43 157.62,213.09 158.37,212.75 159.12,212.41 159.87,212.07 160.62,211.72 161.37,211.37 162.12,211.02 162.87,210.67 163.62,210.31 164.38,209.95 165.13,209.58 165.88,209.22 166.63,208.85 167.38,208.48 168.13,208.10 168.88,207.73 169.63,207.35 170.38,206.96 171.13,206.58 171.88,206.19 172.63,205.80 173.38,205.41 174.13,205.01 174.89,204.61 175.64,204.21 176.39,203.80 177.14,203.39 177.89,202.98 178.64,202.57 179.39,202.15 180.14,201.73 180.89,201.31 181.64,200.88 182.39,200.45 183.14,200.02 183.89,199.59 184.65,199.15 185.40,198.71 186.15,198.27 186.90,197.82 187.65,197.37 188.40,196.92 189.15,196.47 189.90,196.01 190.65,195.55 191.40,195.09 192.15,194.62 192.90,194.15 193.65,193.68 194.40,193.20 195.16,192.73 195.91,192.25 196.66,191.76 197.41,191.28 198.16,190.79 198.91,190.29 199.66,189.80 200.41,189.30 201.16,188.80 201.91,188.30 202.66,187.79 203.41,187.28 204.16,186.77 204.91,186.26 205.67,185.74 206.42,185.22 207.17,184.70 207.92,184.17 208.67,183.64 209.42,183.11 210.17,182.57 210.92,182.04 211.67,181.50 212.42,180.96 213.17,180.41 213.92,179.86 214.67,179.31 215.43,178.76 216.18,178.20 216.93,177.64 217.68,177.08 218.43,176.52 219.18,175.95 219.93,175.38 220.68,174.81 221.43,174.24 222.18,173.66 222.93,173.08 223.68,172.50 224.43,171.91 225.18,171.33 225.94,170.74 226.69,170.14 227.44,169.55 228.19,168.95 228.94,168.35 229.69,167.75 230.44,167.15 231.19,166.54 231.94,165.93 232.69,165.32 233.44,164.71 234.19,164.09 234.94,163.47 235.70,162.85 236.45,162.23 237.20,161.60 237.95,160.98 238.70,160.35 239.45,159.72 240.20,159.08 240.95,158.45 241.70,157.81 242.45,157.17 243.20,156.53 243.95,155.88 244.70,155.24 245.45,154.59 246.21,153.94 246.96,153.29 247.71,152.64 248.46,151.98 249.21,151.32 249.96,150.66 250.71,150.00 251.46,149.34 252.21,148.68 252.96,148.01 253.71,147.34 254.46,146.68 255.21,146.00 255.96,145.33 256.72,144.66 257.47,143.98 258.22,143.31 258.97,142.63 259.72,141.95 260.47,141.27 261.22,140.59 261.97,139.91 262.72,139.22 263.47,138.53 264.22,137.85 264.97,137.16 265.72,136.47 266.48,135.78 267.23,135.09 267.98,134.40 268.73,133.70 269.48,133.01 270.23,132.32 270.98,131.62 271.73,130.92 272.48,130.23 273.23,129.53 273.98,128.83 274.73,128.13 275.48,127.43 276.23,126.73 276.99,126.03 277.74,125.33 278.49,124.62 279.24,123.92 279.99,123.22 280.74,122.51 281.49,121.81 282.24,121.11 282.99,120.40 283.74,119.70 284.49,118.99 285.24,118.29 285.99,117.59 286.74,116.88 287.50,116.18 288.25,115.47 289.00,114.77 289.75,114.07 290.50,113.36 291.25,112.66 292.00,111.96 292.75,111.25 293.50,110.55 294.25,109.85 295.00,109.15 295.75,108.45 296.50,107.75 297.26,107.05 298.01,106.35 298.76,105.65 299.51,104.95 300.26,104.26 301.01,103.56 301.76,102.87 302.51,102.17 303.26,101.48 304.01,100.79 304.76,100.10 305.51,99.41 306.26,98.72 307.01,98.04 307.77,97.35 308.52,96.67 309.27,95.99 310.02,95.30 310.77,94.63 311.52,93.95 312.27,93.27 313.02,92.60 313.77,91.92 314.52,91.25 315.27,90.58 316.02,89.92 316.77,89.25 317.52,88.59 318.28,87.93 319.03,87.27 319.78,86.61 320.53,85.95 321.28,85.30 322.03,84.65 322.78,84.00 323.53,83.36 324.28,82.71 325.03,82.07 325.78,81.43 326.53,80.80 327.28,80.16 328.04,79.53 328.79,78.91 329.54,78.28 330.29,77.66 331.04,77.04 331.79,76.42 332.54,75.81 333.29,75.20 334.04,74.59 334.79,73.99 335.54,73.39 336.29,72.79 337.04,72.19 337.79,71.60 338.55,71.01 339.30,70.43 340.05,69.85 340.80,69.27 341.55,68.70 342.30,68.12 343.05,67.56 343.80,66.99 344.55,66.43 345.30,65.88 346.05,65.33 346.80,64.78 347.55,64.24 348.30,63.69 349.06,63.16 349.81,62.63 350.56,62.10 351.31,61.57 352.06,61.06 352.81,60.54 353.56,60.03 354.31,59.52 355.06,59.02 355.81,58.52 356.56,58.03 357.31,57.54 358.06,57.05 358.82,56.57 359.57,56.10 360.32,55.63 361.07,55.16 361.82,54.70 362.57,54.25 363.32,53.79 364.07,53.35 364.82,52.91 365.57,52.47 366.32,52.04 367.07,51.61 367.82,51.19 368.57,50.77 369.33,50.36 370.08,49.95 370.83,49.55 371.58,49.16 372.33,48.77 373.08,48.38 373.83,48.00 374.58,47.63 375.33,47.26 376.08,46.89 376.83,46.54 377.58,46.18 378.33,45.84 379.09,45.49 379.84,45.16 380.59,44.83 381.34,44.50 382.09,44.18 382.84,43.87 383.59,43.56 384.34,43.26 385.09,42.97 385.84,42.68 386.59,42.39 387.34,42.11 388.09,41.84 388.84,41.57 389.60,41.31 390.35,41.06 391.10,40.81 391.85,40.57 392.60,40.33 393.35,40.10 394.10,39.88 394.85,39.66 395.60,39.45 396.35,39.24 397.10,39.04 397.85,38.85 398.60,38.66 399.35,38.48 400.11,38.31 400.86,38.14 401.61,37.98 402.36,37.82 403.11,37.67 403.86,37.53 404.61,37.39 405.36,37.26 406.11,37.14 406.86,37.02 407.61,36.91 408.36,36.80 409.11,36.70 409.87,36.61 410.62,36.53 411.37,36.45 412.12,36.37 412.87,36.31 413.62,36.25 414.37,36.19 415.12,36.15 415.87,36.11 416.62,36.07 417.37,36.05 418.12,36.02 418.87,36.01 419.62,36.00 420.38,36.00 421.13,36.01 421.88,36.02 422.63,36.03 423.38,36.06 424.13,36.09 424.88,36.13 425.63,36.17 426.38,36.22 427.13,36.28 427.88,36.34 428.63,36.41 429.38,36.49 430.13,36.57 430.89,36.66 431.64,36.75 432.39,36.85 433.14,36.96 433.89,37.08 434.64,37.20 435.39,37.33 436.14,37.46 436.89,37.60 437.64,37.75 438.39,37.90 439.14,38.06 439.89,38.22 440.65,38.39 441.40,38.57 442.15,38.76 442.90,38.95 443.65,39.14 444.40,39.34 445.15,39.55 445.90,39.77 446.65,39.99 447.40,40.22 448.15,40.45 448.90,40.69 449.65,40.93 450.40,41.19 451.16,41.44 451.91,41.71 452.66,41.98 453.41,42.25 454.16,42.53 454.91,42.82 455.66,43.11 456.41,43.41 457.16,43.72 457.91,44.03 458.66,44.34 459.41,44.66 460.16,44.99 460.91,45.33 461.67,45.66 462.42,46.01 463.17,46.36 463.92,46.71 464.67,47.07 465.42,47.44 466.17,47.81 466.92,48.19 467.67,48.57 468.42,48.96 469.17,49.35 469.92,49.75 470.67,50.16 471.43,50.57 472.18,50.98 472.93,51.40 473.68,51.82 474.43,52.25 475.18,52.69 475.93,53.13 476.68,53.57 477.43,54.02 478.18,54.47 478.93,54.93 479.68,55.40 480.43,55.86 481.18,56.34 481.94,56.81 482.69,57.30 483.44,57.78 484.19,58.27 484.94,58.77 485.69,59.27 486.44,59.77 487.19,60.28 487.94,60.80 488.69,61.31 489.44,61.84 490.19,62.36 490.94,62.89 491.70,63.43 492.45,63.96 493.20,64.51 493.95,65.05 494.70,65.60 495.45,66.16 496.20,66.71 496.95,67.28 497.70,67.84 498.45,68.41 499.20,68.98 499.95,69.56 500.70,70.14 501.45,70.72 502.21,71.31 502.96,71.90 503.71,72.49 504.46,73.09 505.21,73.69 505.96,74.29 506.71,74.89 507.46,75.50 508.21,76.12 508.96,76.73 509.71,77.35 510.46,77.97 511.21,78.59 511.96,79.22 512.72,79.85 513.47,80.48 514.22,81.12 514.97,81.75 515.72,82.39 516.47,83.03 517.22,83.68 517.97,84.33 518.72,84.98 519.47,85.63 520.22,86.28 520.97,86.94 521.72,87.60 522.48,88.26 523.23,88.92 523.98,89.58 524.73,90.25 525.48,90.92 526.23,91.59 526.98,92.26 527.73,92.93 528.48,93.61 529.23,94.29 529.98,94.97 530.73,95.65 531.48,96.33 532.23,97.01 532.99,97.69 533.74,98.38 534.49,99.07 535.24,99.76 535.99,100.45 536.74,101.14 537.49,101.83 538.24,102.52 538.99,103.22 539.74,103.91 540.49,104.61 541.24,105.30 541.99,106.00 542.74,106.70 543.50,107.40 544.25,108.10 545.00,108.80 545.75,109.50 546.50,110.20 547.25,110.90 548.00,111.60 548.75,112.31 549.50,113.01 550.25,113.71 551.00,114.42 551.75,115.12 552.50,115.83 553.26,116.53 554.01,117.23 554.76,117.94 555.51,118.64 556.26,119.35 557.01,120.05 557.76,120.76 558.51,121.46 559.26,122.16 560.01,122.87 560.76,123.57 561.51,124.27 562.26,124.97 563.01,125.68 563.77,126.38 564.52,127.08 565.27,127.78 566.02,128.48 566.77,129.18 567.52,129.88 568.27,130.57 569.02,131.27 569.77,131.97 570.52,132.66 571.27,133.36 572.02,134.05 572.77,134.74 573.52,135.44 574.28,136.13 575.03,136.82 575.78,137.50 576.53,138.19 577.28,138.88 578.03,139.56 578.78,140.25 579.53,140.93 580.28,141.61 581.03,142.29 581.78,142.97 582.53,143.65 583.28,144.32 584.04,145.00 584.79,145.67 585.54,146.34 586.29,147.01 587.04,147.68 587.79,148.34 588.54,149.01 589.29,149.67 590.04,150.33 590.79,150.99 591.54,151.65 592.29,152.31 593.04,152.96 593.79,153.61 594.55,154.27 595.30,154.91 596.05,155.56 596.80,156.21 597.55,156.85 598.30,157.49 599.05,158.13 599.80,158.76 600.55,159.40 601.30,160.03 602.05,160.66 602.80,161.29 603.55,161.92 604.30,162.54 605.06,163.16 605.81,163.78 606.56,164.40 607.31,165.01 608.06,165.63 608.81,166.24 609.56,166.84 610.31,167.45 611.06,168.05 611.81,168.65 612.56,169.25 613.31,169.85 614.06,170.44 614.82,171.03 615.57,171.62 616.32,172.21 617.07,172.79 617.82,173.37 618.57,173.95 619.32,174.52 620.07,175.10 620.82,175.67 621.57,176.24 622.32,176.80 623.07,177.36 623.82,177.92 624.57,178.48 625.33,179.04 626.08,179.59 626.83,180.14 627.58,180.68 628.33,181.23 629.08,181.77 629.83,182.31 630.58,182.84 631.33,183.37 632.08,183.91 632.83,184.43 633.58,184.96 634.33,185.48 635.09,186.00 635.84,186.51 636.59,187.03 637.34,187.54 638.09,188.05 638.84,188.55 639.59,189.05 640.34,189.55 641.09,190.05 641.84,190.54 642.59,191.03 643.34,191.52 644.09,192.00 644.84,192.49 645.60,192.96 646.35,193.44 647.10,193.91 647.85,194.38 648.60,194.85 649.35,195.32 650.10,195.78 650.85,196.24 651.60,196.69 652.35,197.15 653.10,197.60 653.85,198.04 654.60,198.49 655.35,198.93 656.11,199.37 656.86,199.80 657.61,200.24 658.36,200.67 659.11,201.09 659.86,201.52 660.61,201.94 661.36,202.36 662.11,202.77 662.86,203.19 663.61,203.60 664.36,204.00 665.11,204.41 665.87,204.81 666.62,205.21 667.37,205.60 668.12,206.00 668.87,206.38 669.62,206.77 670.37,207.16 671.12,207.54 671.87,207.92 672.62,208.29 673.37,208.66 674.12,209.03 674.87,209.40 675.62,209.77 676.38,210.13 677.13,210.49 677.88,210.84 678.63,211.20 679.38,211.55 680.13,211.89 680.88,212.24 681.63,212.58 682.38,212.92 683.13,213.26 683.88,213.59 684.63,213.92 685.38,214.25 686.13,214.58 686.89,214.90 687.64,215.22 688.39,215.54 689.14,215.86 689.89,216.17 690.64,216.48 691.39,216.79 692.14,217.09 692.89,217.40 693.64,217.70 694.39,217.99 695.14,218.29 695.89,218.58 696.65,218.87 697.40,219.16 698.15,219.44 698.90,219.72 699.65,220.00 700.40,220.28 701.15,220.56 701.90,220.83 702.65,221.10 703.40,221.37 704.15,221.63 704.90,221.89 705.65,222.15 706.40,222.41 707.16,222.67 707.91,222.92 708.66,223.17 709.41,223.42 710.16,223.66 710.91,223.91 711.66,224.15 712.41,224.39 713.16,224.63 713.91,224.86 714.66,225.09 715.41,225.32 716.16,225.55 716.91,225.78 717.67,226.00 718.42,226.22 719.17,226.44 719.92,226.66 720.67,226.87 721.42,227.08 722.17,227.29 722.92,227.50 723.67,227.71 724.42,227.91 725.17,228.12 725.92,228.32 726.67,228.51 727.43,228.71 728.18,228.90 728.93,229.10 729.68,229.29 730.43,229.47 731.18,229.66 731.93,229.84 732.68,230.03 733.43,230.21 734.18,230.39 734.93,230.56 735.68,230.74 736.43,230.91 737.18,231.08 737.94,231.25 738.69,231.42 739.44,231.58 740.19,231.75 740.94,231.91 741.69,232.07 742.44,232.23 743.19,232.38 743.94,232.54 744.69,232.69 745.44,232.84 746.19,232.99 746.94,233.14 747.70,233.29 748.45,233.43 749.20,233.58 749.95,233.72 750.70,233.86 751.45,234.00 752.20,234.13 752.95,234.27 753.70,234.40 754.45,234.53 755.20,234.66 755.95,234.79 756.70,234.92 757.45,235.05 758.21,235.17 758.96,235.29 759.71,235.42 760.46,235.54 761.21,235.66 761.96,235.77 762.71,235.89 763.46,236.00 764.21,236.12 764.96,236.23 765.71,236.34 766.46,236.45 767.21,236.56 767.96,236.66 768.72,236.77 769.47,236.87 770.22,236.98 770.97,237.08 771.72,237.18 772.47,237.28 773.22,237.37 773.97,237.47 774.72,237.57 775.47,237.66 776.22,237.75 776.97,237.84 777.72,237.93 778.48,238.02 779.23,238.11 779.98,238.20 780.73,238.29 781.48,238.37 782.23,238.45 782.98,238.54 783.73,238.62 784.48,238.70 785.23,238.78 785.98,238.86 786.73,238.94 787.48,239.01 788.23,239.09 788.99,239.16 789.74,239.24 790.49,239.31 791.24,239.38 791.99,239.45 792.74,239.52 793.49,239.59 794.24,239.66 794.99,239.72 795.74,239.79 796.49,239.86 797.24,239.92 797.99,239.98 798.74,240.05 799.50,240.11 800.25,240.17 801.00,240.23 801.75,240.29 802.50,240.35 803.25,240.40 804.00,240.49" />
  <text x="420.0" y="22" text-anchor="middle" font-family="Arial, Helvetica, sans-serif" font-size="15" fill="#102a43">gaussian_0p35 window (time domain)</text>
  <text x="420.0" y="272" text-anchor="middle" font-family="Arial, Helvetica, sans-serif" font-size="12" fill="#334e68">normalized sample index</text>
  <text x="14" y="140.0" transform="rotate(-90 14,140.0)" text-anchor="middle" font-family="Arial, Helvetica, sans-serif" font-size="12" fill="#334e68">amplitude</text>
  <text x="36" y="262" font-family="Arial, Helvetica, sans-serif" font-size="11" fill="#486581">0</text>
  <text x="804" y="262" text-anchor="end" font-family="Arial, Helvetica, sans-serif" font-size="11" fill="#486581">1</text>
  <text x="30" y="40" text-anchor="end" font-family="Arial, Helvetica, sans-serif" font-size="11" fill="#486581">1.0</text>
  <text x="30" y="248" text-anchor="end" font-family="Arial, Helvetica, sans-serif" font-size="11" fill="#486581">0.0</text>
</svg>
