<svg xmlns="http://www.w3.org/2000/svg" width="840" height="280" viewBox="0 0 840 280">
  <rect x="0" y="0" width="840" height="280" fill="#ffffff" />
  <rect x="36" y="36" width="768" height="208" fill="#f7fbff" stroke="#c8d9e6" />
  <polyline fill="none" stroke="#005f73" stroke-width="2" points="36.00,36.00 36.75,46.34 37.50,94.03 38.25,91.23 39.00,97.08 39.75,101.79 40.50,105.74 41.26,109.13 42.01,112.08 42.76,114.71 43.51,117.06 44.26,119.19 45.01,121.14 45.76,122.94 46.51,124.60 47.26,126.15 48.01,135.42 48.76,137.52 49.51,139.58 50.26,141.63 51.01,143.69 51.77,145.77 52.52,147.89 53.27,150.08 54.02,152.37 54.77,154.79 55.52,157.41 56.27,160.31 57.02,163.64 57.77,167.67 58.52,172.97 59.27,181.44 60.02,143.25 60.77,143.26 61.52,143.29 62.28,143.33 63.03,143.39 63.78,143.45 64.53,143.53 65.28,143.61 66.03,143.70 66.78,143.80 67.53,143.90 68.28,144.00 69.03,144.11 69.78,144.22 70.53,144.33 71.28,144.45 72.04,138.27 72.79,138.43 73.54,138.60 74.29,138.76 75.04,138.92 75.79,139.08 76.54,139.24 77.29,139.40 78.04,139.55 78.79,139.70 79.54,139.85 80.29,140.00 81.04,140.15 81.79,140.30 82.55,140.44 83.30,140.58 84.05,136.96 84.80,137.11 85.55,137.26 86.30,137.40 87.05,137.55 87.80,137.69 88.55,137.83 89.30,137.97 90.05,138.10 90.80,138.24 91.55,138.37 92.30,138.51 93.06,138.64 93.81,138.77 94.56,138.90 95.31,139.02 96.06,136.42 96.81,136.55 97.56,136.67 98.31,136.80 99.06,136.92 99.81,137.04 100.56,137.16 101.31,137.28 102.06,137.40 102.82,137.52 103.57,137.63 104.32,137.75 105.07,137.86 105.82,137.97 106.57,138.09 107.32,138.20 108.07,136.16 108.82,136.27 109.57,136.38 110.32,136.49 111.07,136.59 111.82,136.70 112.57,136.80 113.33,136.91 114.08,137.01 114.83,137.11 115.58,137.21 116.33,137.31 117.08,137.41 117.83,137.50 118.58,137.60 119.33,137.70 120.08,136.03 120.83,136.13 121.58,136.22 122.33,136.31 123.09,136.41 123.84,136.50 124.59,136.59 125.34,136.68 126.09,136.77 126.84,136.86 127.59,136.95 128.34,137.03 129.09,137.12 129.84,137.21 130.59,137.29 131.34,137.38 132.09,135.97 132.84,136.05 133.60,136.14 134.35,136.22 135.10,136.30 135.85,136.38 136.60,136.46 137.35,136.54 138.10,136.62 138.85,136.70 139.60,136.78 140.35,136.86 141.10,136.94 141.85,137.01 142.60,137.09 143.35,137.17 144.11,135.95 144.86,136.03 145.61,136.10 146.36,136.18 147.11,136.25 147.86,136.32 148.61,136.39 149.36,136.47 150.11,136.54 150.86,136.61 151.61,136.68 152.36,136.75 153.11,136.82 153.87,136.89 154.62,136.96 155.37,137.02 156.12,135.96 156.87,136.03 157.62,136.10 158.37,136.17 159.12,136.23 159.87,136.30 160.62,136.36 161.37,136.43 162.12,136.49 162.87,136.56 163.62,136.62 164.38,136.68 165.13,136.75 165.88,136.81 166.63,136.87 167.38,136.93 168.13,136.00 168.88,136.06 169.63,136.12 170.38,136.18 171.13,136.24 171.88,136.30 172.63,136.36 173.38,136.42 174.13,136.48 174.89,136.54 175.64,136.59 176.39,136.65 177.14,136.71 177.89,136.77 178.64,136.82 179.39,136.88 180.14,136.05 180.89,136.10 181.64,136.16 182.39,136.21 183.14,136.27 183.89,136.32 184.65,136.38 185.40,136.43 186.15,136.49 186.90,136.54 187.65,136.59 188.40,136.65 189.15,136.70 189.90,136.75 190.65,136.81 191.40,136.86 192.15,136.11 192.90,136.16 193.65,136.21 194.40,136.27 195.16,136.32 195.91,136.37 196.66,136.42 197.41,136.47 198.16,136.52 198.91,136.57 199.66,136.62 200.41,136.67 201.16,136.71 201.91,136.76 202.66,136.81 203.41,136.86 204.16,136.19 204.91,136.24 205.67,136.28 206.42,136.33 207.17,136.38 207.92,136.42 208.67,136.47 209.42,136.52 210.17,136.56 210.92,136.61 211.67,136.66 212.42,136.70 213.17,136.75 213.92,136.79 214.67,136.84 215.43,136.88 216.18,136.28 216.93,136.32 217.68,136.36 218.43,136.41 219.18,136.45 219.93,136.50 220.68,136.54 221.43,136.58 222.18,136.63 222.93,136.67 223.68,136.71 224.43,136.75 225.18,136.80 225.94,136.84 226.69,136.88 227.44,136.92 228.19,136.37 228.94,136.42 229.69,136.46 230.44,136.50 231.19,136.54 231.94,136.58 232.69,136.62 233.44,136.66 234.19,136.70 234.94,136.74 235.70,136.78 236.45,136.82 237.20,136.86 237.95,136.90 238.70,136.94 239.45,136.98 240.20,136.48 240.95,136.52 241.70,136.56 242.45,136.60 243.20,136.64 243.95,136.67 244.70,136.71 245.45,136.75 246.21,136.79 246.96,136.83 247.71,136.86 248.46,136.90 249.21,136.94 249.96,136.97 250.71,137.01 251.46,137.05 252.21,136.60 252.96,136.64 253.71,136.67 254.46,136.71 255.21,136.75 255.96,136.78 256.72,136.82 257.47,136.85 258.22,136.89 258.97,136.92 259.72,136.96 260.47,136.99 261.22,137.03 261.97,137.06 262.72,137.10 263.47,137.13 264.22,136.73 264.97,136.76 265.72,136.80 266.48,136.83 267.23,136.87 267.98,136.90 268.73,136.93 269.48,136.97 270.23,137.00 270.98,137.03 271.73,137.06 272.48,137.10 273.23,137.13 273.98,137.16 274.73,137.20 275.48,137.23 276.23,136.87 276.99,136.90 277.74,136.93 278.49,136.96 279.24,136.99 279.99,137.03 280.74,137.06 281.49,137.09 282.24,137.12 282.99,137.15 283.74,137.18 284.49,137.21 285.24,137.25 285.99,137.28 286.74,137.31 287.50,137.34 288.25,137.01 289.00,137.04 289.75,137.07 290.50,137.10 291.25,137.13 292.00,137.16 292.75,137.19 293.50,137.22 294.25,137.25 295.00,137.28 295.75,137.31 296.50,137.34 297.26,137.37 298.01,137.40 298.76,137.43 299.51,137.46 300.26,137.17 301.01,137.20 301.76,137.23 302.51,137.26 303.26,137.29 304.01,137.31 304.76,137.34 305.51,137.37 306.26,137.40 307.01,137.43 307.77,137.45 308.52,137.48 309.27,137.51 310.02,137.54 310.77,137.56 311.52,137.59 312.27,137.34 313.02,137.36 313.77,137.39 314.52,137.42 315.27,137.45 316.02,137.47 316.77,137.50 317.52,137.53 318.28,137.55 319.03,137.58 319.78,137.61 320.53,137.63 321.28,137.66 322.03,137.68 322.78,137.71 323.53,137.74 324.28,137.51 325.03,137.54 325.78,137.57 326.53,137.59 327.28,137.62 328.04,137.64 328.79,137.67 329.54,137.69 330.29,137.72 331.04,137.74 331.79,137.77 332.54,137.79 333.29,137.82 334.04,137.84 334.79,137.87 335.54,137.89 336.29,137.70 337.04,137.73 337.79,137.75 338.55,137.77 339.30,137.80 340.05,137.82 340.80,137.85 341.55,137.87 342.30,137.89 343.05,137.92 343.80,137.94 344.55,137.97 345.30,137.99 346.05,138.01 346.80,138.04 347.55,138.06 348.30,137.90 349.06,137.92 349.81,137.95 350.56,137.97 351.31,137.99 352.06,138.01 352.81,138.04 353.56,138.06 354.31,138.08 355.06,138.11 355.81,138.13 356.56,138.15 357.31,138.17 358.06,138.20 358.82,138.22 359.57,138.24 360.32,138.11 361.07,138.13 361.82,138.15 362.57,138.17 363.32,138.20 364.07,138.22 364.82,138.24 365.57,138.26 366.32,138.28 367.07,138.30 367.82,138.33 368.57,138.35 369.33,138.37 370.08,138.39 370.83,138.41 371.58,138.43 372.33,138.33 373.08,138.35 373.83,138.37 374.58,138.39 375.33,138.41 376.08,138.43 376.83,138.45 377.58,138.47 378.33,138.49 379.09,138.51 379.84,138.53 380.59,138.55 381.34,138.57 382.09,138.59 382.84,138.62 383.59,138.64 384.34,138.56 385.09,138.58 385.84,138.60 386.59,138.62 387.34,138.64 388.09,138.66 388.84,138.68 389.60,138.70 390.35,138.72 391.10,138.74 391.85,138.76 392.60,138.77 393.35,138.79 394.10,138.81 394.85,138.83 395.60,138.85 396.35,138.80 397.10,138.82 397.85,138.84 398.60,138.86 399.35,138.88 400.11,138.90 400.86,138.91 401.61,138.93 402.36,138.95 403.11,138.97 403.86,138.99 404.61,139.01 405.36,139.03 406.11,139.04 406.86,139.06 407.61,139.08 408.36,139.06 409.11,139.07 409.87,139.09 410.62,139.11 411.37,139.13 412.12,139.15 412.87,139.16 413.62,139.18 414.37,139.20 415.12,139.22 415.87,139.24 416.62,139.25 417.37,139.27 418.12,139.29 418.87,139.31 419.62,139.32 420.38,139.33 421.13,139.34 421.88,139.36 422.63,139.38 423.38,139.39 424.13,139.41 424.88,139.43 425.63,139.45 426.38,139.46 427.13,139.48 427.88,139.50 428.63,139.51 429.38,139.53 430.13,139.55 430.89,139.56 431.64,139.58 432.39,139.61 433.14,139.62 433.89,139.64 434.64,139.66 435.39,139.67 436.14,139.69 436.89,139.71 437.64,139.72 438.39,139.74 439.14,139.75 439.89,139.77 440.65,139.79 441.40,139.80 442.15,139.82 442.90,139.83 443.65,139.85 444.40,139.91 445.15,139.92 445.90,139.94 446.65,139.95 447.40,139.97 448.15,139.98 448.90,140.00 449.65,140.01 450.40,140.03 451.16,140.04 451.91,140.06 452.66,140.07 453.41,140.09 454.16,140.11 454.91,140.12 455.66,140.14 456.41,140.22 457.16,140.23 457.91,140.25 458.66,140.26 459.41,140.28 460.16,140.29 460.91,140.31 461.67,140.32 462.42,140.34 463.17,140.35 463.92,140.36 464.67,140.38 465.42,140.39 466.17,140.41 466.92,140.42 467.67,140.44 468.42,140.55 469.17,140.56 469.92,140.57 470.67,140.59 471.43,140.60 472.18,140.62 472.93,140.63 473.68,140.64 474.43,140.66 475.18,140.67 475.93,140.69 476.68,140.70 477.43,140.71 478.18,140.73 478.93,140.74 479.68,140.75 480.43,140.89 481.18,140.90 481.94,140.92 482.69,140.93 483.44,140.94 484.19,140.96 484.94,140.97 485.69,140.98 486.44,141.00 487.19,141.01 487.94,141.02 488.69,141.04 489.44,141.05 490.19,141.06 490.94,141.08 491.70,141.09 492.45,141.25 493.20,141.27 493.95,141.28 494.70,141.29 495.45,141.31 496.20,141.32 496.95,141.33 497.70,141.34 498.45,141.36 499.20,141.37 499.95,141.38 500.70,141.39 501.45,141.41 502.21,141.42 502.96,141.43 503.71,141.44 504.46,141.64 505.21,141.65 505.96,141.66 506.71,141.67 507.46,141.69 508.21,141.70 508.96,141.71 509.71,141.72 510.46,141.73 511.21,141.75 511.96,141.76 512.72,141.77 513.47,141.78 514.22,141.79 514.97,141.80 515.72,141.82 516.47,142.04 517.22,142.05 517.97,142.06 518.72,142.07 519.47,142.09 520.22,142.10 520.97,142.11 521.72,142.12 522.48,142.13 523.23,142.14 523.98,142.15 524.73,142.17 525.48,142.18 526.23,142.19 526.98,142.20 527.73,142.21 528.48,142.47 529.23,142.48 529.98,142.49 530.73,142.50 531.48,142.51 532.23,142.52 532.99,142.53 533.74,142.54 534.49,142.55 535.24,142.56 535.99,142.57 536.74,142.58 537.49,142.59 538.24,142.60 538.99,142.62 539.74,142.63 540.49,142.91 541.24,142.92 541.99,142.94 542.74,142.95 543.50,142.96 544.25,142.97 545.00,142.98 545.75,142.99 546.50,143.00 547.25,143.01 548.00,143.02 548.75,143.03 549.50,143.04 550.25,143.05 551.00,143.06 551.75,143.07 552.50,143.39 553.26,143.40 554.01,143.41 554.76,143.42 555.51,143.43 556.26,143.44 557.01,143.45 557.76,143.46 558.51,143.47 559.26,143.48 560.01,143.49 560.76,143.50 561.51,143.50 562.26,143.51 563.01,143.52 563.77,143.53 564.52,143.89 565.27,143.90 566.02,143.91 566.77,143.92 567.52,143.93 568.27,143.94 569.02,143.95 569.77,143.96 570.52,143.97 571.27,143.97 572.02,143.98 572.77,143.99 573.52,144.00 574.28,144.01 575.03,144.02 575.78,144.03 576.53,144.43 577.28,144.43 578.03,144.44 578.78,144.45 579.53,144.46 580.28,144.47 581.03,144.48 581.78,144.49 582.53,144.49 583.28,144.50 584.04,144.51 584.79,144.52 585.54,144.53 586.29,144.54 587.04,144.54 587.79,144.55 588.54,144.99 589.29,145.00 590.04,145.01 590.79,145.02 591.54,145.03 592.29,145.03 593.04,145.04 593.79,145.05 594.55,145.06 595.30,145.07 596.05,145.07 596.80,145.08 597.55,145.09 598.30,145.10 599.05,145.10 599.80,145.11 600.55,145.60 601.30,145.61 602.05,145.61 602.80,145.62 603.55,145.63 604.30,145.64 605.06,145.64 605.81,145.65 606.56,145.66 607.31,145.67 608.06,145.67 608.81,145.68 609.56,145.69 610.31,145.70 611.06,145.70 611.81,145.71 612.56,146.24 613.31,146.25 614.06,146.26 614.82,146.27 615.57,146.27 616.32,146.28 617.07,146.29 617.82,146.29 618.57,146.30 619.32,146.31 620.07,146.31 620.82,146.32 621.57,146.33 622.32,146.33 623.07,146.34 623.82,146.35 624.57,146.94 625.33,146.94 626.08,146.95 626.83,146.96 627.58,146.96 628.33,146.97 629.08,146.98 629.83,146.98 630.58,146.99 631.33,147.00 632.08,147.00 632.83,147.01 633.58,147.01 634.33,147.02 635.09,147.03 635.84,147.03 636.59,147.68 637.34,147.69 638.09,147.69 638.84,147.70 639.59,147.71 640.34,147.71 641.09,147.72 641.84,147.72 642.59,147.73 643.34,147.74 644.09,147.74 644.84,147.75 645.60,147.75 646.35,147.76 647.10,147.77 647.85,147.77 648.60,148.49 649.35,148.49 650.10,148.50 650.85,148.50 651.60,148.51 652.35,148.52 653.10,148.52 653.85,148.53 654.60,148.53 655.35,148.54 656.11,148.54 656.86,148.55 657.61,148.55 658.36,148.56 659.11,148.57 659.86,148.57 660.61,149.36 661.36,149.37 662.11,149.37 662.86,149.38 663.61,149.38 664.36,149.39 665.11,149.39 665.87,149.40 666.62,149.40 667.37,149.41 668.12,149.41 668.87,149.42 669.62,149.42 670.37,149.43 671.12,149.43 671.87,149.44 672.62,150.32 673.37,150.32 674.12,150.33 674.87,150.33 675.62,150.34 676.38,150.34 677.13,150.35 677.88,150.35 678.63,150.36 679.38,150.36 680.13,150.36 680.88,150.37 681.63,150.37 682.38,150.38 683.13,150.38 683.88,150.39 684.63,151.37 685.38,151.37 686.13,151.38 686.89,151.38 687.64,151.39 688.39,151.39 689.14,151.40 689.89,151.40 690.64,151.40 691.39,151.41 692.14,151.41 692.89,151.42 693.64,151.42 694.39,151.42 695.14,151.43 695.89,151.43 696.65,152.54 697.40,152.54 698.15,152.55 698.90,152.55 699.65,152.55 700.40,152.56 701.15,152.56 701.90,152.56 702.65,152.57 703.40,152.57 704.15,152.58 704.90,152.58 705.65,152.58 706.40,152.59 707.16,152.59 707.91,152.59 708.66,153.85 709.41,153.85 710.16,153.85 710.91,153.86 711.66,153.86 712.41,153.86 713.16,153.87 713.91,153.87 714.66,153.87 715.41,153.88 716.16,153.88 716.91,153.88 717.67,153.89 718.42,153.89 719.17,153.89 719.92,153.90 720.67,155.34 721.42,155.34 722.17,155.34 722.92,155.35 723.67,155.35 724.42,155.35 725.17,155.36 725.92,155.36 726.67,155.36 727.43,155.36 728.18,155.37 728.93,155.37 729.68,155.37 730.43,155.38 731.18,155.38 731.93,155.38 732.68,157.06 733.43,157.07 734.18,157.07 734.93,157.07 735.68,157.07 736.43,157.08 737.18,157.08 737.94,157.08 738.69,157.08 739.44,157.09 740.19,157.09 740.94,157.09 741.69,157.09 742.44,157.10 743.19,157.10 743.94,157.10 744.69,159.11 745.44,159.11 746.19,159.11 746.94,159.12 747.70,159.12 748.45,159.12 749.20,159.12 749.95,159.12 750.70,159.13 751.45,159.13 752.20,159.13 752.95,159.13 753.70,159.13 754.45,159.14 755.20,159.14 755.95,159.14 756.70,161.62 757.45,161.62 758.21,161.62 758.96,161.62 759.71,161.63 760.46,161.63 761.21,161.63 761.96,161.63 762.71,161.63 763.46,161.63 764.21,161.64 764.96,161.64 765.71,161.64 766.46,161.64 767.21,161.64 767.96,161.64 768.72,164.86 769.47,164.86 770.22,164.86 770.97,164.86 771.72,164.86 772.47,164.87 773.22,164.87 773.97,164.87 774.72,164.87 775.47,164.87 776.22,164.87 776.97,164.87 777.72,164.87 778.48,164.88 779.23,164.88 779.98,164.88 780.73,169.43 781.48,169.43 782.23,169.43 782.98,169.43 783.73,169.44 784.48,169.44 785.23,169.44 785.98,169.44 786.73,169.44 787.48,169.44 788.23,169.44 788.99,169.44 789.74,169.44 790.49,169.44 791.24,169.45 791.99,169.45 792.74,177.25 793.49,177.26 794.24,177.26 794.99,177.26 795.74,177.26 796.49,177.26 797.24,177.26 797.99,177.26 798.74,177.26 799.50,177.26 800.25,177.27 801.00,177.27 801.75,177.27 802.50,177.27 803.25,177.27 804.00,244.00" />
  <text x="420.0" y="22" text-anchor="middle" font-family="Arial, Helvetica, sans-serif" font-size="15" fill="#102a43">gaussian_0p45 window (magnitude spectrum)</text>
  <text x="420.0" y="272" text-anchor="middle" font-family="Arial, Helvetica, sans-serif" font-size="12" fill="#334e68">normalized frequency</text>
  <text x="14" y="140.0" transform="rotate(-90 14,140.0)" text-anchor="middle" font-family="Arial, Helvetica, sans-serif" font-size="12" fill="#334e68">magnitude (dB)</text>
  <text x="36" y="262" font-family="Arial, Helvetica, sans-serif" font-size="11" fill="#486581">0</text>
  <text x="804" y="262" text-anchor="end" font-family="Arial, Helvetica, sans-serif" font-size="11" fill="#486581">1</text>
  <text x="30" y="40" text-anchor="end" font-family="Arial, Helvetica, sans-serif" font-size="11" fill="#486581">0.0</text>
  <text x="30" y="248" text-anchor="end" font-family="Arial, Helvetica, sans-serif" font-size="11" fill="#486581">-160.0</text>
</svg>
