<svg xmlns="http://www.w3.org/2000/svg" width="840" height="280" viewBox="0 0 840 280">
  <rect x="0" y="0" width="840" height="280" fill="#ffffff" />
  <rect x="36" y="36" width="768" height="208" fill="#f7fbff" stroke="#c8d9e6" />
  <polyline fill="none" stroke="#005f73" stroke-width="2" points="36.00,204.17 36.75,203.91 37.50,203.65 38.25,203.39 39.00,203.13 39.75,202.87 40.50,202.60 41.26,202.34 42.01,202.07 42.76,201.81 43.51,201.54 44.26,201.27 45.01,201.00 45.76,200.73 46.51,200.45 47.26,200.18 48.01,199.90 48.76,199.63 49.51,199.35 50.26,199.07 51.01,198.79 51.77,198.51 52.52,198.23 53.27,197.94 54.02,197.66 54.77,197.37 55.52,197.09 56.27,196.80 57.02,196.51 57.77,196.22 58.52,195.93 59.27,195.63 60.02,195.34 60.77,195.04 61.52,194.75 62.28,194.45 63.03,194.15 63.78,193.85 64.53,193.55 65.28,193.25 66.03,192.94 66.78,192.64 67.53,192.33 68.28,192.03 69.03,191.72 69.78,191.41 70.53,191.10 71.28,190.79 72.04,190.47 72.79,190.16 73.54,189.84 74.29,189.53 75.04,189.21 75.79,188.89 76.54,188.57 77.29,188.25 78.04,187.93 78.79,187.61 79.54,187.28 80.29,186.96 81.04,186.63 81.79,186.30 82.55,185.97 83.30,185.64 84.05,185.31 84.80,184.98 85.55,184.65 86.30,184.31 87.05,183.98 87.80,183.64 88.55,183.30 89.30,182.96 90.05,182.62 90.80,182.28 91.55,181.94 92.30,181.60 93.06,181.25 93.81,180.91 94.56,180.56 95.31,180.21 96.06,179.86 96.81,179.51 97.56,179.16 98.31,178.81 99.06,178.46 99.81,178.10 100.56,177.75 101.31,177.39 102.06,177.03 102.82,176.67 103.57,176.31 104.32,175.95 105.07,175.59 105.82,175.23 106.57,174.86 107.32,174.50 108.07,174.13 108.82,173.76 109.57,173.40 110.32,173.03 111.07,172.66 111.82,172.29 112.57,171.91 113.33,171.54 114.08,171.17 114.83,170.79 115.58,170.41 116.33,170.04 117.08,169.66 117.83,169.28 118.58,168.90 119.33,168.52 120.08,168.13 120.83,167.75 121.58,167.37 122.33,166.98 123.09,166.59 123.84,166.21 124.59,165.82 125.34,165.43 126.09,165.04 126.84,164.65 127.59,164.26 128.34,163.87 129.09,163.47 129.84,163.08 130.59,162.68 131.34,162.28 132.09,161.89 132.84,161.49 133.60,161.09 134.35,160.69 135.10,160.29 135.85,159.89 136.60,159.49 137.35,159.08 138.10,158.68 138.85,158.27 139.60,157.87 140.35,157.46 141.10,157.05 141.85,156.64 142.60,156.23 143.35,155.82 144.11,155.41 144.86,155.00 145.61,154.59 146.36,154.18 147.11,153.76 147.86,153.35 148.61,152.93 149.36,152.52 150.11,152.10 150.86,151.68 151.61,151.26 152.36,150.84 153.11,150.42 153.87,150.00 154.62,149.58 155.37,149.16 156.12,148.74 156.87,148.31 157.62,147.89 158.37,147.47 159.12,147.04 159.87,146.61 160.62,146.19 161.37,145.76 162.12,145.33 162.87,144.90 163.62,144.48 164.38,144.05 165.13,143.62 165.88,143.18 166.63,142.75 167.38,142.32 168.13,141.89 168.88,141.46 169.63,141.02 170.38,140.59 171.13,140.15 171.88,139.72 172.63,139.28 173.38,138.85 174.13,138.41 174.89,137.97 175.64,137.54 176.39,137.10 177.14,136.66 177.89,136.22 178.64,135.78 179.39,135.34 180.14,134.90 180.89,134.46 181.64,134.02 182.39,133.58 183.14,133.14 183.89,132.69 184.65,132.25 185.40,131.81 186.15,131.37 186.90,130.92 187.65,130.48 188.40,130.04 189.15,129.59 189.90,129.15 190.65,128.70 191.40,128.26 192.15,127.81 192.90,127.37 193.65,126.92 194.40,126.47 195.16,126.03 195.91,125.58 196.66,125.13 197.41,124.69 198.16,124.24 198.91,123.79 199.66,123.35 200.41,122.90 201.16,122.45 201.91,122.00 202.66,121.56 203.41,121.11 204.16,120.66 204.91,120.21 205.67,119.76 206.42,119.32 207.17,118.87 207.92,118.42 208.67,117.97 209.42,117.52 210.17,117.07 210.92,116.63 211.67,116.18 212.42,115.73 213.17,115.28 213.92,114.83 214.67,114.39 215.43,113.94 216.18,113.49 216.93,113.04 217.68,112.59 218.43,112.15 219.18,111.70 219.93,111.25 220.68,110.81 221.43,110.36 222.18,109.91 222.93,109.47 223.68,109.02 224.43,108.57 225.18,108.13 225.94,107.68 226.69,107.24 227.44,106.79 228.19,106.35 228.94,105.91 229.69,105.46 230.44,105.02 231.19,104.57 231.94,104.13 232.69,103.69 233.44,103.25 234.19,102.81 234.94,102.36 235.70,101.92 236.45,101.48 237.20,101.04 237.95,100.60 238.70,100.16 239.45,99.72 240.20,99.29 240.95,98.85 241.70,98.41 242.45,97.97 243.20,97.54 243.95,97.10 244.70,96.67 245.45,96.23 246.21,95.80 246.96,95.37 247.71,94.93 248.46,94.50 249.21,94.07 249.96,93.64 250.71,93.21 251.46,92.78 252.21,92.35 252.96,91.92 253.71,91.50 254.46,91.07 255.21,90.64 255.96,90.22 256.72,89.80 257.47,89.37 258.22,88.95 258.97,88.53 259.72,88.11 260.47,87.69 261.22,87.27 261.97,86.85 262.72,86.43 263.47,86.01 264.22,85.60 264.97,85.18 265.72,84.77 266.48,84.36 267.23,83.94 267.98,83.53 268.73,83.12 269.48,82.71 270.23,82.31 270.98,81.90 271.73,81.49 272.48,81.09 273.23,80.68 273.98,80.28 274.73,79.88 275.48,79.48 276.23,79.08 276.99,78.68 277.74,78.28 278.49,77.88 279.24,77.49 279.99,77.10 280.74,76.70 281.49,76.31 282.24,75.92 282.99,75.53 283.74,75.14 284.49,74.76 285.24,74.37 285.99,73.99 286.74,73.60 287.50,73.22 288.25,72.84 289.00,72.46 289.75,72.08 290.50,71.71 291.25,71.33 292.00,70.96 292.75,70.59 293.50,70.22 294.25,69.85 295.00,69.48 295.75,69.11 296.50,68.75 297.26,68.38 298.01,68.02 298.76,67.66 299.51,67.30 300.26,66.94 301.01,66.59 301.76,66.23 302.51,65.88 303.26,65.53 304.01,65.18 304.76,64.83 305.51,64.48 306.26,64.14 307.01,63.79 307.77,63.45 308.52,63.11 309.27,62.77 310.02,62.43 310.77,62.10 311.52,61.76 312.27,61.43 313.02,61.10 313.77,60.77 314.52,60.45 315.27,60.12 316.02,59.80 316.77,59.48 317.52,59.16 318.28,58.84 319.03,58.52 319.78,58.21 320.53,57.89 321.28,57.58 322.03,57.27 322.78,56.97 323.53,56.66 324.28,56.36 325.03,56.06 325.78,55.76 326.53,55.46 327.28,55.16 328.04,54.87 328.79,54.58 329.54,54.29 330.29,54.00 331.04,53.71 331.79,53.43 332.54,53.15 333.29,52.87 334.04,52.59 334.79,52.31 335.54,52.04 336.29,51.76 337.04,51.49 337.79,51.23 338.55,50.96 339.30,50.70 340.05,50.43 340.80,50.17 341.55,49.92 342.30,49.66 343.05,49.41 343.80,49.16 344.55,48.91 345.30,48.66 346.05,48.42 346.80,48.17 347.55,47.93 348.30,47.69 349.06,47.46 349.81,47.22 350.56,46.99 351.31,46.76 352.06,46.54 352.81,46.31 353.56,46.09 354.31,45.87 355.06,45.65 355.81,45.43 356.56,45.22 357.31,45.01 358.06,44.80 358.82,44.59 359.57,44.39 360.32,44.18 361.07,43.98 361.82,43.79 362.57,43.59 363.32,43.40 364.07,43.21 364.82,43.02 365.57,42.83 366.32,42.65 367.07,42.47 367.82,42.29 368.57,42.11 369.33,41.94 370.08,41.77 370.83,41.60 371.58,41.43 372.33,41.27 373.08,41.11 373.83,40.95 374.58,40.79 375.33,40.63 376.08,40.48 376.83,40.33 377.58,40.19 378.33,40.04 379.09,39.90 379.84,39.76 380.59,39.62 381.34,39.49 382.09,39.35 382.84,39.22 383.59,39.10 384.34,38.97 385.09,38.85 385.84,38.73 386.59,38.61 387.34,38.50 388.09,38.39 388.84,38.28 389.60,38.17 390.35,38.06 391.10,37.96 391.85,37.86 392.60,37.77 393.35,37.67 394.10,37.58 394.85,37.49 395.60,37.40 396.35,37.32 397.10,37.24 397.85,37.16 398.60,37.08 399.35,37.01 400.11,36.94 400.86,36.87 401.61,36.80 402.36,36.74 403.11,36.68 403.86,36.62 404.61,36.56 405.36,36.51 406.11,36.46 406.86,36.41 407.61,36.37 408.36,36.33 409.11,36.29 409.87,36.25 410.62,36.21 411.37,36.18 412.12,36.15 412.87,36.12 413.62,36.10 414.37,36.08 415.12,36.06 415.87,36.04 416.62,36.03 417.37,36.02 418.12,36.01 418.87,36.00 419.62,36.00 420.38,36.00 421.13,36.00 421.88,36.01 422.63,36.01 423.38,36.02 424.13,36.04 424.88,36.05 425.63,36.07 426.38,36.09 427.13,36.11 427.88,36.14 428.63,36.17 429.38,36.20 430.13,36.23 430.89,36.27 431.64,36.31 432.39,36.35 433.14,36.39 433.89,36.44 434.64,36.49 435.39,36.54 436.14,36.59 436.89,36.65 437.64,36.71 438.39,36.77 439.14,36.84 439.89,36.90 440.65,36.97 441.40,37.05 442.15,37.12 442.90,37.20 443.65,37.28 444.40,37.36 445.15,37.45 445.90,37.53 446.65,37.62 447.40,37.72 448.15,37.81 448.90,37.91 449.65,38.01 450.40,38.12 451.16,38.22 451.91,38.33 452.66,38.44 453.41,38.55 454.16,38.67 454.91,38.79 455.66,38.91 456.41,39.03 457.16,39.16 457.91,39.29 458.66,39.42 459.41,39.55 460.16,39.69 460.91,39.83 461.67,39.97 462.42,40.11 463.17,40.26 463.92,40.41 464.67,40.56 465.42,40.71 466.17,40.87 466.92,41.03 467.67,41.19 468.42,41.35 469.17,41.51 469.92,41.68 470.67,41.85 471.43,42.03 472.18,42.20 472.93,42.38 473.68,42.56 474.43,42.74 475.18,42.93 475.93,43.11 476.68,43.30 477.43,43.49 478.18,43.69 478.93,43.88 479.68,44.08 480.43,44.28 481.18,44.49 481.94,44.69 482.69,44.90 483.44,45.11 484.19,45.33 484.94,45.54 485.69,45.76 486.44,45.98 487.19,46.20 487.94,46.42 488.69,46.65 489.44,46.88 490.19,47.11 490.94,47.34 491.70,47.58 492.45,47.81 493.20,48.05 493.95,48.29 494.70,48.54 495.45,48.78 496.20,49.03 496.95,49.28 497.70,49.53 498.45,49.79 499.20,50.05 499.95,50.30 500.70,50.57 501.45,50.83 502.21,51.09 502.96,51.36 503.71,51.63 504.46,51.90 505.21,52.17 505.96,52.45 506.71,52.73 507.46,53.01 508.21,53.29 508.96,53.57 509.71,53.86 510.46,54.14 511.21,54.43 511.96,54.72 512.72,55.02 513.47,55.31 514.22,55.61 514.97,55.91 515.72,56.21 516.47,56.51 517.22,56.81 517.97,57.12 518.72,57.43 519.47,57.74 520.22,58.05 520.97,58.36 521.72,58.68 522.48,59.00 523.23,59.32 523.98,59.64 524.73,59.96 525.48,60.28 526.23,60.61 526.98,60.94 527.73,61.27 528.48,61.60 529.23,61.93 529.98,62.27 530.73,62.60 531.48,62.94 532.23,63.28 532.99,63.62 533.74,63.96 534.49,64.31 535.24,64.66 535.99,65.00 536.74,65.35 537.49,65.70 538.24,66.06 538.99,66.41 539.74,66.77 540.49,67.12 541.24,67.48 541.99,67.84 542.74,68.20 543.50,68.57 544.25,68.93 545.00,69.30 545.75,69.66 546.50,70.03 547.25,70.40 548.00,70.77 548.75,71.15 549.50,71.52 550.25,71.90 551.00,72.27 551.75,72.65 552.50,73.03 553.26,73.41 554.01,73.79 554.76,74.18 555.51,74.56 556.26,74.95 557.01,75.34 557.76,75.73 558.51,76.12 559.26,76.51 560.01,76.90 560.76,77.29 561.51,77.69 562.26,78.08 563.01,78.48 563.77,78.88 564.52,79.28 565.27,79.68 566.02,80.08 566.77,80.48 567.52,80.88 568.27,81.29 569.02,81.69 569.77,82.10 570.52,82.51 571.27,82.92 572.02,83.33 572.77,83.74 573.52,84.15 574.28,84.56 575.03,84.98 575.78,85.39 576.53,85.81 577.28,86.22 578.03,86.64 578.78,87.06 579.53,87.48 580.28,87.90 581.03,88.32 581.78,88.74 582.53,89.16 583.28,89.58 584.04,90.01 584.79,90.43 585.54,90.86 586.29,91.28 587.04,91.71 587.79,92.14 588.54,92.57 589.29,93.00 590.04,93.43 590.79,93.86 591.54,94.29 592.29,94.72 593.04,95.15 593.79,95.58 594.55,96.02 595.30,96.45 596.05,96.89 596.80,97.32 597.55,97.76 598.30,98.19 599.05,98.63 599.80,99.07 600.55,99.51 601.30,99.94 602.05,100.38 602.80,100.82 603.55,101.26 604.30,101.70 605.06,102.14 605.81,102.58 606.56,103.03 607.31,103.47 608.06,103.91 608.81,104.35 609.56,104.80 610.31,105.24 611.06,105.68 611.81,106.13 612.56,106.57 613.31,107.02 614.06,107.46 614.82,107.91 615.57,108.35 616.32,108.80 617.07,109.24 617.82,109.69 618.57,110.14 619.32,110.58 620.07,111.03 620.82,111.48 621.57,111.92 622.32,112.37 623.07,112.82 623.82,113.27 624.57,113.71 625.33,114.16 626.08,114.61 626.83,115.06 627.58,115.51 628.33,115.95 629.08,116.40 629.83,116.85 630.58,117.30 631.33,117.75 632.08,118.19 632.83,118.64 633.58,119.09 634.33,119.54 635.09,119.99 635.84,120.44 636.59,120.88 637.34,121.33 638.09,121.78 638.84,122.23 639.59,122.67 640.34,123.12 641.09,123.57 641.84,124.02 642.59,124.46 643.34,124.91 644.09,125.36 644.84,125.80 645.60,126.25 646.35,126.70 647.10,127.14 647.85,127.59 648.60,128.03 649.35,128.48 650.10,128.92 650.85,129.37 651.60,129.81 652.35,130.26 653.10,130.70 653.85,131.14 654.60,131.59 655.35,132.03 656.11,132.47 656.86,132.92 657.61,133.36 658.36,133.80 659.11,134.24 659.86,134.68 660.61,135.12 661.36,135.56 662.11,136.00 662.86,136.44 663.61,136.88 664.36,137.32 665.11,137.75 665.87,138.19 666.62,138.63 667.37,139.06 668.12,139.50 668.87,139.94 669.62,140.37 670.37,140.81 671.12,141.24 671.87,141.67 672.62,142.11 673.37,142.54 674.12,142.97 674.87,143.40 675.62,143.83 676.38,144.26 677.13,144.69 677.88,145.12 678.63,145.55 679.38,145.97 680.13,146.40 680.88,146.83 681.63,147.25 682.38,147.68 683.13,148.10 683.88,148.53 684.63,148.95 685.38,149.37 686.13,149.79 686.89,150.21 687.64,150.63 688.39,151.05 689.14,151.47 689.89,151.89 690.64,152.31 691.39,152.72 692.14,153.14 692.89,153.56 693.64,153.97 694.39,154.38 695.14,154.80 695.89,155.21 696.65,155.62 697.40,156.03 698.15,156.44 698.90,156.85 699.65,157.26 700.40,157.66 701.15,158.07 701.90,158.48 702.65,158.88 703.40,159.28 704.15,159.69 704.90,160.09 705.65,160.49 706.40,160.89 707.16,161.29 707.91,161.69 708.66,162.09 709.41,162.48 710.16,162.88 710.91,163.27 711.66,163.67 712.41,164.06 713.16,164.45 713.91,164.85 714.66,165.24 715.41,165.63 716.16,166.01 716.91,166.40 717.67,166.79 718.42,167.17 719.17,167.56 719.92,167.94 720.67,168.33 721.42,168.71 722.17,169.09 722.92,169.47 723.67,169.85 724.42,170.22 725.17,170.60 725.92,170.98 726.67,171.35 727.43,171.73 728.18,172.10 728.93,172.47 729.68,172.84 730.43,173.21 731.18,173.58 731.93,173.95 732.68,174.31 733.43,174.68 734.18,175.04 734.93,175.41 735.68,175.77 736.43,176.13 737.18,176.49 737.94,176.85 738.69,177.21 739.44,177.57 740.19,177.92 740.94,178.28 741.69,178.63 742.44,178.98 743.19,179.34 743.94,179.69 744.69,180.04 745.44,180.39 746.19,180.73 746.94,181.08 747.70,181.42 748.45,181.77 749.20,182.11 749.95,182.45 750.70,182.79 751.45,183.13 752.20,183.47 752.95,183.81 753.70,184.15 754.45,184.48 755.20,184.81 755.95,185.15 756.70,185.48 757.45,185.81 758.21,186.14 758.96,186.47 759.71,186.79 760.46,187.12 761.21,187.44 761.96,187.77 762.71,188.09 763.46,188.41 764.21,188.73 764.96,189.05 765.71,189.37 766.46,189.69 767.21,190.00 767.96,190.32 768.72,190.63 769.47,190.94 770.22,191.25 770.97,191.56 771.72,191.87 772.47,192.18 773.22,192.49 773.97,192.79 774.72,193.10 775.47,193.40 776.22,193.70 776.97,194.00 777.72,194.30 778.48,194.60 779.23,194.89 779.98,195.19 780.73,195.49 781.48,195.78 782.23,196.07 782.98,196.36 783.73,196.65 784.48,196.94 785.23,197.23 785.98,197.52 786.73,197.80 787.48,198.08 788.23,198.37 788.99,198.65 789.74,198.93 790.49,199.21 791.24,199.49 791.99,199.77 792.74,200.04 793.49,200.32 794.24,200.59 794.99,200.86 795.74,201.13 796.49,201.40 797.24,201.67 797.99,201.94 798.74,202.21 799.50,202.47 800.25,202.74 801.00,203.00 801.75,203.26 802.50,203.52 803.25,203.78 804.00,204.17" />
  <text x="420.0" y="22" text-anchor="middle" font-family="Arial, Helvetica, sans-serif" font-size="15" fill="#102a43">gaussian_0p55 window (time domain)</text>
  <text x="420.0" y="272" text-anchor="middle" font-family="Arial, Helvetica, sans-serif" font-size="12" fill="#334e68">normalized sample index</text>
  <text x="14" y="140.0" transform="rotate(-90 14,140.0)" text-anchor="middle" font-family="Arial, Helvetica, sans-serif" font-size="12" fill="#334e68">amplitude</text>
  <text x="36" y="262" font-family="Arial, Helvetica, sans-serif" font-size="11" fill="#486581">0</text>
  <text x="804" y="262" text-anchor="end" font-family="Arial, Helvetica, sans-serif" font-size="11" fill="#486581">1</text>
  <text x="30" y="40" text-anchor="end" font-family="Arial, Helvetica, sans-serif" font-size="11" fill="#486581">1.0</text>
  <text x="30" y="248" text-anchor="end" font-family="Arial, Helvetica, sans-serif" font-size="11" fill="#486581">0.0</text>
</svg>
