<svg xmlns="http://www.w3.org/2000/svg" width="840" height="280" viewBox="0 0 840 280">
  <rect x="0" y="0" width="840" height="280" fill="#ffffff" />
  <rect x="36" y="36" width="768" height="208" fill="#f7fbff" stroke="#c8d9e6" />
  <polyline fill="none" stroke="#005f73" stroke-width="2" points="36.00,36.00 36.75,49.89 37.50,80.31 38.25,87.10 39.00,93.43 39.75,98.42 40.50,102.51 41.26,105.98 42.01,108.99 42.76,111.65 43.51,114.02 44.26,116.17 45.01,118.14 45.76,119.94 46.51,121.61 47.26,123.17 48.01,140.10 48.76,143.76 49.51,147.93 50.26,153.01 51.01,160.10 51.77,174.45 52.52,173.14 53.27,162.47 54.02,157.82 54.77,155.01 55.52,153.09 56.27,151.70 57.02,150.65 57.77,149.84 58.52,149.20 59.27,148.69 60.02,132.56 60.77,132.73 61.52,132.91 62.28,133.09 63.03,133.27 63.78,133.45 64.53,133.63 65.28,133.81 66.03,133.99 66.78,134.17 67.53,134.34 68.28,134.52 69.03,134.69 69.78,134.87 70.53,135.04 71.28,135.21 72.04,129.79 72.79,129.98 73.54,130.17 74.29,130.35 75.04,130.54 75.79,130.72 76.54,130.89 77.29,131.07 78.04,131.24 78.79,131.41 79.54,131.58 80.29,131.75 81.04,131.91 81.79,132.07 82.55,132.23 83.30,132.39 84.05,128.98 84.80,129.13 85.55,129.29 86.30,129.45 87.05,129.60 87.80,129.75 88.55,129.90 89.30,130.04 90.05,130.19 90.80,130.33 91.55,130.47 92.30,130.61 93.06,130.75 93.81,130.88 94.56,131.02 95.31,131.15 96.06,128.64 96.81,128.77 97.56,128.90 98.31,129.03 99.06,129.16 99.81,129.28 100.56,129.41 101.31,129.53 102.06,129.65 102.82,129.77 103.57,129.89 104.32,130.01 105.07,130.13 105.82,130.24 106.57,130.36 107.32,130.47 108.07,128.48 108.82,128.60 109.57,128.71 110.32,128.82 111.07,128.92 111.82,129.03 112.57,129.14 113.33,129.24 114.08,129.35 114.83,129.45 115.58,129.55 116.33,129.65 117.08,129.75 117.83,129.85 118.58,129.95 119.33,130.05 120.08,128.41 120.83,128.51 121.58,128.61 122.33,128.70 123.09,128.80 123.84,128.89 124.59,128.98 125.34,129.07 126.09,129.16 126.84,129.25 127.59,129.34 128.34,129.43 129.09,129.52 129.84,129.61 130.59,129.69 131.34,129.78 132.09,128.39 132.84,128.48 133.60,128.56 134.35,128.64 135.10,128.73 135.85,128.81 136.60,128.89 137.35,128.97 138.10,129.05 138.85,129.13 139.60,129.21 140.35,129.29 141.10,129.37 141.85,129.45 142.60,129.52 143.35,129.60 144.11,128.40 144.86,128.47 145.61,128.55 146.36,128.62 147.11,128.70 147.86,128.77 148.61,128.84 149.36,128.92 150.11,128.99 150.86,129.06 151.61,129.13 152.36,129.20 153.11,129.27 153.87,129.34 154.62,129.41 155.37,129.48 156.12,128.43 156.87,128.50 157.62,128.56 158.37,128.63 159.12,128.70 159.87,128.76 160.62,128.83 161.37,128.90 162.12,128.96 162.87,129.03 163.62,129.09 164.38,129.15 165.13,129.22 165.88,129.28 166.63,129.34 167.38,129.41 168.13,128.48 168.88,128.54 169.63,128.60 170.38,128.66 171.13,128.72 171.88,128.78 172.63,128.84 173.38,128.90 174.13,128.96 174.89,129.02 175.64,129.08 176.39,129.13 177.14,129.19 177.89,129.25 178.64,129.31 179.39,129.36 180.14,128.54 180.89,128.59 181.64,128.65 182.39,128.70 183.14,128.76 183.89,128.81 184.65,128.87 185.40,128.92 186.15,128.98 186.90,129.03 187.65,129.09 188.40,129.14 189.15,129.19 189.90,129.25 190.65,129.30 191.40,129.35 192.15,128.61 192.90,128.66 193.65,128.71 194.40,128.76 195.16,128.81 195.91,128.86 196.66,128.91 197.41,128.97 198.16,129.02 198.91,129.07 199.66,129.11 200.41,129.16 201.16,129.21 201.91,129.26 202.66,129.31 203.41,129.36 204.16,128.69 204.91,128.74 205.67,128.79 206.42,128.83 207.17,128.88 207.92,128.93 208.67,128.97 209.42,129.02 210.17,129.07 210.92,129.11 211.67,129.16 212.42,129.21 213.17,129.25 213.92,129.30 214.67,129.34 215.43,129.39 216.18,128.78 216.93,128.83 217.68,128.87 218.43,128.92 219.18,128.96 219.93,129.00 220.68,129.05 221.43,129.09 222.18,129.13 222.93,129.18 223.68,129.22 224.43,129.26 225.18,129.30 225.94,129.35 226.69,129.39 227.44,129.43 228.19,128.89 228.94,128.93 229.69,128.97 230.44,129.01 231.19,129.05 231.94,129.09 232.69,129.13 233.44,129.17 234.19,129.21 234.94,129.25 235.70,129.29 236.45,129.33 237.20,129.37 237.95,129.41 238.70,129.45 239.45,129.49 240.20,129.00 240.95,129.04 241.70,129.08 242.45,129.11 243.20,129.15 243.95,129.19 244.70,129.23 245.45,129.27 246.21,129.30 246.96,129.34 247.71,129.38 248.46,129.42 249.21,129.45 249.96,129.49 250.71,129.53 251.46,129.56 252.21,129.12 252.96,129.16 253.71,129.19 254.46,129.23 255.21,129.26 255.96,129.30 256.72,129.34 257.47,129.37 258.22,129.41 258.97,129.44 259.72,129.48 260.47,129.51 261.22,129.55 261.97,129.58 262.72,129.62 263.47,129.65 264.22,129.25 264.97,129.28 265.72,129.32 266.48,129.35 267.23,129.39 267.98,129.42 268.73,129.45 269.48,129.49 270.23,129.52 270.98,129.55 271.73,129.59 272.48,129.62 273.23,129.65 273.98,129.68 274.73,129.72 275.48,129.75 276.23,129.39 276.99,129.42 277.74,129.45 278.49,129.49 279.24,129.52 279.99,129.55 280.74,129.58 281.49,129.61 282.24,129.64 282.99,129.67 283.74,129.71 284.49,129.74 285.24,129.77 285.99,129.80 286.74,129.83 287.50,129.86 288.25,129.54 289.00,129.57 289.75,129.60 290.50,129.63 291.25,129.66 292.00,129.69 292.75,129.72 293.50,129.75 294.25,129.78 295.00,129.81 295.75,129.84 296.50,129.87 297.26,129.90 298.01,129.93 298.76,129.95 299.51,129.98 300.26,129.70 301.01,129.73 301.76,129.75 302.51,129.78 303.26,129.81 304.01,129.84 304.76,129.87 305.51,129.90 306.26,129.92 307.01,129.95 307.77,129.98 308.52,130.01 309.27,130.04 310.02,130.06 310.77,130.09 311.52,130.12 312.27,129.86 313.02,129.89 313.77,129.92 314.52,129.95 315.27,129.97 316.02,130.00 316.77,130.03 317.52,130.05 318.28,130.08 319.03,130.11 319.78,130.13 320.53,130.16 321.28,130.19 322.03,130.21 322.78,130.24 323.53,130.26 324.28,130.04 325.03,130.07 325.78,130.09 326.53,130.12 327.28,130.15 328.04,130.17 328.79,130.20 329.54,130.22 330.29,130.25 331.04,130.27 331.79,130.30 332.54,130.32 333.29,130.35 334.04,130.37 334.79,130.40 335.54,130.42 336.29,130.23 337.04,130.25 337.79,130.28 338.55,130.30 339.30,130.33 340.05,130.35 340.80,130.38 341.55,130.40 342.30,130.42 343.05,130.45 343.80,130.47 344.55,130.50 345.30,130.52 346.05,130.54 346.80,130.57 347.55,130.59 348.30,130.43 349.06,130.45 349.81,130.48 350.56,130.50 351.31,130.52 352.06,130.54 352.81,130.57 353.56,130.59 354.31,130.61 355.06,130.64 355.81,130.66 356.56,130.68 357.31,130.70 358.06,130.73 358.82,130.75 359.57,130.77 360.32,130.64 361.07,130.66 361.82,130.68 362.57,130.70 363.32,130.73 364.07,130.75 364.82,130.77 365.57,130.79 366.32,130.81 367.07,130.83 367.82,130.86 368.57,130.88 369.33,130.90 370.08,130.92 370.83,130.94 371.58,130.96 372.33,130.86 373.08,130.88 373.83,130.90 374.58,130.92 375.33,130.94 376.08,130.96 376.83,130.98 377.58,131.00 378.33,131.02 379.09,131.05 379.84,131.07 380.59,131.09 381.34,131.11 382.09,131.13 382.84,131.15 383.59,131.17 384.34,131.09 385.09,131.11 385.84,131.13 386.59,131.15 387.34,131.17 388.09,131.19 388.84,131.21 389.60,131.23 390.35,131.25 391.10,131.27 391.85,131.29 392.60,131.31 393.35,131.33 394.10,131.35 394.85,131.36 395.60,131.38 396.35,131.33 397.10,131.35 397.85,131.37 398.60,131.39 399.35,131.41 400.11,131.43 400.86,131.45 401.61,131.47 402.36,131.48 403.11,131.50 403.86,131.52 404.61,131.54 405.36,131.56 406.11,131.58 406.86,131.60 407.61,131.61 408.36,131.59 409.11,131.61 409.87,131.63 410.62,131.64 411.37,131.66 412.12,131.68 412.87,131.70 413.62,131.72 414.37,131.73 415.12,131.75 415.87,131.77 416.62,131.79 417.37,131.80 418.12,131.82 418.87,131.84 419.62,131.86 420.38,131.86 421.13,131.88 421.88,131.89 422.63,131.91 423.38,131.93 424.13,131.95 424.88,131.96 425.63,131.98 426.38,132.00 427.13,132.01 427.88,132.03 428.63,132.05 429.38,132.06 430.13,132.08 430.89,132.10 431.64,132.11 432.39,132.14 433.14,132.16 433.89,132.18 434.64,132.19 435.39,132.21 436.14,132.22 436.89,132.24 437.64,132.26 438.39,132.27 439.14,132.29 439.89,132.30 440.65,132.32 441.40,132.34 442.15,132.35 442.90,132.37 443.65,132.38 444.40,132.44 445.15,132.46 445.90,132.47 446.65,132.49 447.40,132.50 448.15,132.52 448.90,132.53 449.65,132.55 450.40,132.56 451.16,132.58 451.91,132.59 452.66,132.61 453.41,132.62 454.16,132.64 454.91,132.65 455.66,132.67 456.41,132.75 457.16,132.77 457.91,132.78 458.66,132.80 459.41,132.81 460.16,132.83 460.91,132.84 461.67,132.86 462.42,132.87 463.17,132.88 463.92,132.90 464.67,132.91 465.42,132.93 466.17,132.94 466.92,132.96 467.67,132.97 468.42,133.08 469.17,133.10 469.92,133.11 470.67,133.12 471.43,133.14 472.18,133.15 472.93,133.17 473.68,133.18 474.43,133.19 475.18,133.21 475.93,133.22 476.68,133.23 477.43,133.25 478.18,133.26 478.93,133.28 479.68,133.29 480.43,133.43 481.18,133.44 481.94,133.45 482.69,133.47 483.44,133.48 484.19,133.49 484.94,133.51 485.69,133.52 486.44,133.53 487.19,133.55 487.94,133.56 488.69,133.57 489.44,133.59 490.19,133.60 490.94,133.61 491.70,133.62 492.45,133.79 493.20,133.80 493.95,133.82 494.70,133.83 495.45,133.84 496.20,133.85 496.95,133.87 497.70,133.88 498.45,133.89 499.20,133.90 499.95,133.92 500.70,133.93 501.45,133.94 502.21,133.95 502.96,133.97 503.71,133.98 504.46,134.17 505.21,134.19 505.96,134.20 506.71,134.21 507.46,134.22 508.21,134.23 508.96,134.25 509.71,134.26 510.46,134.27 511.21,134.28 511.96,134.29 512.72,134.30 513.47,134.32 514.22,134.33 514.97,134.34 515.72,134.35 516.47,134.58 517.22,134.59 517.97,134.60 518.72,134.61 519.47,134.62 520.22,134.63 520.97,134.65 521.72,134.66 522.48,134.67 523.23,134.68 523.98,134.69 524.73,134.70 525.48,134.71 526.23,134.72 526.98,134.73 527.73,134.75 528.48,135.00 529.23,135.01 529.98,135.02 530.73,135.03 531.48,135.05 532.23,135.06 532.99,135.07 533.74,135.08 534.49,135.09 535.24,135.10 535.99,135.11 536.74,135.12 537.49,135.13 538.24,135.14 538.99,135.15 539.74,135.16 540.49,135.45 541.24,135.46 541.99,135.47 542.74,135.48 543.50,135.49 544.25,135.50 545.00,135.51 545.75,135.52 546.50,135.53 547.25,135.54 548.00,135.55 548.75,135.56 549.50,135.57 550.25,135.58 551.00,135.59 551.75,135.60 552.50,135.93 553.26,135.94 554.01,135.95 554.76,135.96 555.51,135.97 556.26,135.97 557.01,135.98 557.76,135.99 558.51,136.00 559.26,136.01 560.01,136.02 560.76,136.03 561.51,136.04 562.26,136.05 563.01,136.06 563.77,136.07 564.52,136.43 565.27,136.44 566.02,136.45 566.77,136.46 567.52,136.47 568.27,136.47 569.02,136.48 569.77,136.49 570.52,136.50 571.27,136.51 572.02,136.52 572.77,136.53 573.52,136.54 574.28,136.55 575.03,136.56 575.78,136.56 576.53,136.96 577.28,136.97 578.03,136.98 578.78,136.99 579.53,137.00 580.28,137.01 581.03,137.01 581.78,137.02 582.53,137.03 583.28,137.04 584.04,137.05 584.79,137.06 585.54,137.07 586.29,137.07 587.04,137.08 587.79,137.09 588.54,137.53 589.29,137.54 590.04,137.55 590.79,137.55 591.54,137.56 592.29,137.57 593.04,137.58 593.79,137.59 594.55,137.59 595.30,137.60 596.05,137.61 596.80,137.62 597.55,137.63 598.30,137.63 599.05,137.64 599.80,137.65 600.55,138.14 601.30,138.14 602.05,138.15 602.80,138.16 603.55,138.17 604.30,138.17 605.06,138.18 605.81,138.19 606.56,138.20 607.31,138.20 608.06,138.21 608.81,138.22 609.56,138.23 610.31,138.23 611.06,138.24 611.81,138.25 612.56,138.78 613.31,138.79 614.06,138.80 614.82,138.80 615.57,138.81 616.32,138.82 617.07,138.82 617.82,138.83 618.57,138.84 619.32,138.84 620.07,138.85 620.82,138.86 621.57,138.87 622.32,138.87 623.07,138.88 623.82,138.89 624.57,139.47 625.33,139.48 626.08,139.49 626.83,139.49 627.58,139.50 628.33,139.51 629.08,139.51 629.83,139.52 630.58,139.53 631.33,139.53 632.08,139.54 632.83,139.55 633.58,139.55 634.33,139.56 635.09,139.56 635.84,139.57 636.59,140.22 637.34,140.23 638.09,140.23 638.84,140.24 639.59,140.24 640.34,140.25 641.09,140.26 641.84,140.26 642.59,140.27 643.34,140.27 644.09,140.28 644.84,140.29 645.60,140.29 646.35,140.30 647.10,140.30 647.85,140.31 648.60,141.03 649.35,141.03 650.10,141.04 650.85,141.04 651.60,141.05 652.35,141.05 653.10,141.06 653.85,141.06 654.60,141.07 655.35,141.08 656.11,141.08 656.86,141.09 657.61,141.09 658.36,141.10 659.11,141.10 659.86,141.11 660.61,141.90 661.36,141.91 662.11,141.91 662.86,141.92 663.61,141.92 664.36,141.93 665.11,141.93 665.87,141.94 666.62,141.94 667.37,141.95 668.12,141.95 668.87,141.96 669.62,141.96 670.37,141.97 671.12,141.97 671.87,141.98 672.62,142.86 673.37,142.86 674.12,142.87 674.87,142.87 675.62,142.87 676.38,142.88 677.13,142.88 677.88,142.89 678.63,142.89 679.38,142.90 680.13,142.90 680.88,142.91 681.63,142.91 682.38,142.92 683.13,142.92 683.88,142.92 684.63,143.91 685.38,143.91 686.13,143.92 686.89,143.92 687.64,143.92 688.39,143.93 689.14,143.93 689.89,143.94 690.64,143.94 691.39,143.95 692.14,143.95 692.89,143.95 693.64,143.96 694.39,143.96 695.14,143.97 695.89,143.97 696.65,145.08 697.40,145.08 698.15,145.08 698.90,145.09 699.65,145.09 700.40,145.09 701.15,145.10 701.90,145.10 702.65,145.11 703.40,145.11 704.15,145.11 704.90,145.12 705.65,145.12 706.40,145.12 707.16,145.13 707.91,145.13 708.66,146.39 709.41,146.39 710.16,146.39 710.91,146.40 711.66,146.40 712.41,146.40 713.16,146.41 713.91,146.41 714.66,146.41 715.41,146.42 716.16,146.42 716.91,146.42 717.67,146.43 718.42,146.43 719.17,146.43 719.92,146.43 720.67,147.88 721.42,147.88 722.17,147.88 722.92,147.88 723.67,147.89 724.42,147.89 725.17,147.89 725.92,147.90 726.67,147.90 727.43,147.90 728.18,147.91 728.93,147.91 729.68,147.91 730.43,147.91 731.18,147.92 731.93,147.92 732.68,149.60 733.43,149.60 734.18,149.61 734.93,149.61 735.68,149.61 736.43,149.61 737.18,149.62 737.94,149.62 738.69,149.62 739.44,149.62 740.19,149.63 740.94,149.63 741.69,149.63 742.44,149.63 743.19,149.64 743.94,149.64 744.69,151.65 745.44,151.65 746.19,151.65 746.94,151.65 747.70,151.66 748.45,151.66 749.20,151.66 749.95,151.66 750.70,151.66 751.45,151.67 752.20,151.67 752.95,151.67 753.70,151.67 754.45,151.67 755.20,151.68 755.95,151.68 756.70,154.16 757.45,154.16 758.21,154.16 758.96,154.16 759.71,154.16 760.46,154.16 761.21,154.17 761.96,154.17 762.71,154.17 763.46,154.17 764.21,154.17 764.96,154.17 765.71,154.18 766.46,154.18 767.21,154.18 767.96,154.18 768.72,157.40 769.47,157.40 770.22,157.40 770.97,157.40 771.72,157.40 772.47,157.40 773.22,157.40 773.97,157.41 774.72,157.41 775.47,157.41 776.22,157.41 776.97,157.41 777.72,157.41 778.48,157.41 779.23,157.41 779.98,157.41 780.73,161.97 781.48,161.97 782.23,161.97 782.98,161.97 783.73,161.97 784.48,161.97 785.23,161.97 785.98,161.98 786.73,161.98 787.48,161.98 788.23,161.98 788.99,161.98 789.74,161.98 790.49,161.98 791.24,161.98 791.99,161.98 792.74,169.79 793.49,169.79 794.24,169.79 794.99,169.79 795.74,169.80 796.49,169.80 797.24,169.80 797.99,169.80 798.74,169.80 799.50,169.80 800.25,169.80 801.00,169.80 801.75,169.80 802.50,169.80 803.25,169.80 804.00,244.00" />
  <text x="420.0" y="22" text-anchor="middle" font-family="Arial, Helvetica, sans-serif" font-size="15" fill="#102a43">gaussian_0p55 window (magnitude spectrum)</text>
  <text x="420.0" y="272" text-anchor="middle" font-family="Arial, Helvetica, sans-serif" font-size="12" fill="#334e68">normalized frequency</text>
  <text x="14" y="140.0" transform="rotate(-90 14,140.0)" text-anchor="middle" font-family="Arial, Helvetica, sans-serif" font-size="12" fill="#334e68">magnitude (dB)</text>
  <text x="36" y="262" font-family="Arial, Helvetica, sans-serif" font-size="11" fill="#486581">0</text>
  <text x="804" y="262" text-anchor="end" font-family="Arial, Helvetica, sans-serif" font-size="11" fill="#486581">1</text>
  <text x="30" y="40" text-anchor="end" font-family="Arial, Helvetica, sans-serif" font-size="11" fill="#486581">0.0</text>
  <text x="30" y="248" text-anchor="end" font-family="Arial, Helvetica, sans-serif" font-size="11" fill="#486581">-160.0</text>
</svg>
