<svg xmlns="http://www.w3.org/2000/svg" width="840" height="280" viewBox="0 0 840 280">
  <rect x="0" y="0" width="840" height="280" fill="#ffffff" />
  <rect x="36" y="36" width="768" height="208" fill="#f7fbff" stroke="#c8d9e6" />
  <polyline fill="none" stroke="#005f73" stroke-width="2" points="36.00,180.30 36.75,180.01 37.50,179.71 38.25,179.42 39.00,179.12 39.75,178.82 40.50,178.52 41.26,178.22 42.01,177.92 42.76,177.62 43.51,177.32 44.26,177.02 45.01,176.71 45.76,176.41 46.51,176.10 47.26,175.80 48.01,175.49 48.76,175.18 49.51,174.88 50.26,174.57 51.01,174.26 51.77,173.95 52.52,173.64 53.27,173.33 54.02,173.01 54.77,172.70 55.52,172.39 56.27,172.07 57.02,171.75 57.77,171.44 58.52,171.12 59.27,170.80 60.02,170.49 60.77,170.17 61.52,169.85 62.28,169.53 63.03,169.20 63.78,168.88 64.53,168.56 65.28,168.24 66.03,167.91 66.78,167.59 67.53,167.26 68.28,166.94 69.03,166.61 69.78,166.28 70.53,165.95 71.28,165.63 72.04,165.30 72.79,164.97 73.54,164.63 74.29,164.30 75.04,163.97 75.79,163.64 76.54,163.30 77.29,162.97 78.04,162.64 78.79,162.30 79.54,161.96 80.29,161.63 81.04,161.29 81.79,160.95 82.55,160.61 83.30,160.27 84.05,159.93 84.80,159.59 85.55,159.25 86.30,158.91 87.05,158.57 87.80,158.23 88.55,157.88 89.30,157.54 90.05,157.19 90.80,156.85 91.55,156.50 92.30,156.16 93.06,155.81 93.81,155.46 94.56,155.11 95.31,154.76 96.06,154.41 96.81,154.07 97.56,153.71 98.31,153.36 99.06,153.01 99.81,152.66 100.56,152.31 101.31,151.95 102.06,151.60 102.82,151.25 103.57,150.89 104.32,150.54 105.07,150.18 105.82,149.83 106.57,149.47 107.32,149.11 108.07,148.75 108.82,148.40 109.57,148.04 110.32,147.68 111.07,147.32 111.82,146.96 112.57,146.60 113.33,146.24 114.08,145.88 114.83,145.51 115.58,145.15 116.33,144.79 117.08,144.43 117.83,144.06 118.58,143.70 119.33,143.33 120.08,142.97 120.83,142.60 121.58,142.24 122.33,141.87 123.09,141.51 123.84,141.14 124.59,140.77 125.34,140.40 126.09,140.04 126.84,139.67 127.59,139.30 128.34,138.93 129.09,138.56 129.84,138.19 130.59,137.82 131.34,137.45 132.09,137.08 132.84,136.71 133.60,136.34 134.35,135.97 135.10,135.59 135.85,135.22 136.60,134.85 137.35,134.48 138.10,134.10 138.85,133.73 139.60,133.36 140.35,132.98 141.10,132.61 141.85,132.24 142.60,131.86 143.35,131.49 144.11,131.11 144.86,130.74 145.61,130.36 146.36,129.98 147.11,129.61 147.86,129.23 148.61,128.86 149.36,128.48 150.11,128.10 150.86,127.73 151.61,127.35 152.36,126.97 153.11,126.59 153.87,126.22 154.62,125.84 155.37,125.46 156.12,125.08 156.87,124.70 157.62,124.33 158.37,123.95 159.12,123.57 159.87,123.19 160.62,122.81 161.37,122.43 162.12,122.05 162.87,121.68 163.62,121.30 164.38,120.92 165.13,120.54 165.88,120.16 166.63,119.78 167.38,119.40 168.13,119.02 168.88,118.64 169.63,118.26 170.38,117.88 171.13,117.51 171.88,117.13 172.63,116.75 173.38,116.37 174.13,115.99 174.89,115.61 175.64,115.23 176.39,114.85 177.14,114.47 177.89,114.09 178.64,113.71 179.39,113.34 180.14,112.96 180.89,112.58 181.64,112.20 182.39,111.82 183.14,111.44 183.89,111.06 184.65,110.69 185.40,110.31 186.15,109.93 186.90,109.55 187.65,109.18 188.40,108.80 189.15,108.42 189.90,108.04 190.65,107.67 191.40,107.29 192.15,106.91 192.90,106.54 193.65,106.16 194.40,105.79 195.16,105.41 195.91,105.03 196.66,104.66 197.41,104.28 198.16,103.91 198.91,103.54 199.66,103.16 200.41,102.79 201.16,102.41 201.91,102.04 202.66,101.67 203.41,101.30 204.16,100.92 204.91,100.55 205.67,100.18 206.42,99.81 207.17,99.44 207.92,99.07 208.67,98.70 209.42,98.33 210.17,97.96 210.92,97.59 211.67,97.22 212.42,96.85 213.17,96.48 213.92,96.12 214.67,95.75 215.43,95.38 216.18,95.02 216.93,94.65 217.68,94.29 218.43,93.92 219.18,93.56 219.93,93.19 220.68,92.83 221.43,92.47 222.18,92.11 222.93,91.74 223.68,91.38 224.43,91.02 225.18,90.66 225.94,90.30 226.69,89.94 227.44,89.58 228.19,89.23 228.94,88.87 229.69,88.51 230.44,88.15 231.19,87.80 231.94,87.44 232.69,87.09 233.44,86.74 234.19,86.38 234.94,86.03 235.70,85.68 236.45,85.33 237.20,84.98 237.95,84.63 238.70,84.28 239.45,83.93 240.20,83.58 240.95,83.23 241.70,82.89 242.45,82.54 243.20,82.20 243.95,81.85 244.70,81.51 245.45,81.16 246.21,80.82 246.96,80.48 247.71,80.14 248.46,79.80 249.21,79.46 249.96,79.12 250.71,78.79 251.46,78.45 252.21,78.11 252.96,77.78 253.71,77.44 254.46,77.11 255.21,76.78 255.96,76.45 256.72,76.12 257.47,75.79 258.22,75.46 258.97,75.13 259.72,74.80 260.47,74.47 261.22,74.15 261.97,73.82 262.72,73.50 263.47,73.18 264.22,72.86 264.97,72.54 265.72,72.22 266.48,71.90 267.23,71.58 267.98,71.26 268.73,70.95 269.48,70.63 270.23,70.32 270.98,70.00 271.73,69.69 272.48,69.38 273.23,69.07 273.98,68.76 274.73,68.45 275.48,68.15 276.23,67.84 276.99,67.54 277.74,67.23 278.49,66.93 279.24,66.63 279.99,66.33 280.74,66.03 281.49,65.73 282.24,65.43 282.99,65.14 283.74,64.84 284.49,64.55 285.24,64.26 285.99,63.96 286.74,63.67 287.50,63.39 288.25,63.10 289.00,62.81 289.75,62.52 290.50,62.24 291.25,61.96 292.00,61.68 292.75,61.39 293.50,61.12 294.25,60.84 295.00,60.56 295.75,60.28 296.50,60.01 297.26,59.74 298.01,59.46 298.76,59.19 299.51,58.92 300.26,58.66 301.01,58.39 301.76,58.12 302.51,57.86 303.26,57.60 304.01,57.33 304.76,57.07 305.51,56.81 306.26,56.56 307.01,56.30 307.77,56.04 308.52,55.79 309.27,55.54 310.02,55.29 310.77,55.04 311.52,54.79 312.27,54.54 313.02,54.30 313.77,54.05 314.52,53.81 315.27,53.57 316.02,53.33 316.77,53.09 317.52,52.85 318.28,52.62 319.03,52.39 319.78,52.15 320.53,51.92 321.28,51.69 322.03,51.46 322.78,51.24 323.53,51.01 324.28,50.79 325.03,50.57 325.78,50.34 326.53,50.13 327.28,49.91 328.04,49.69 328.79,49.48 329.54,49.26 330.29,49.05 331.04,48.84 331.79,48.63 332.54,48.43 333.29,48.22 334.04,48.02 334.79,47.81 335.54,47.61 336.29,47.41 337.04,47.21 337.79,47.02 338.55,46.82 339.30,46.63 340.05,46.44 340.80,46.25 341.55,46.06 342.30,45.88 343.05,45.69 343.80,45.51 344.55,45.33 345.30,45.15 346.05,44.97 346.80,44.79 347.55,44.61 348.30,44.44 349.06,44.27 349.81,44.10 350.56,43.93 351.31,43.76 352.06,43.60 352.81,43.43 353.56,43.27 354.31,43.11 355.06,42.95 355.81,42.80 356.56,42.64 357.31,42.49 358.06,42.34 358.82,42.19 359.57,42.04 360.32,41.89 361.07,41.75 361.82,41.60 362.57,41.46 363.32,41.32 364.07,41.19 364.82,41.05 365.57,40.92 366.32,40.78 367.07,40.65 367.82,40.52 368.57,40.40 369.33,40.27 370.08,40.15 370.83,40.02 371.58,39.90 372.33,39.79 373.08,39.67 373.83,39.55 374.58,39.44 375.33,39.33 376.08,39.22 376.83,39.11 377.58,39.01 378.33,38.90 379.09,38.80 379.84,38.70 380.59,38.60 381.34,38.50 382.09,38.41 382.84,38.31 383.59,38.22 384.34,38.13 385.09,38.04 385.84,37.96 386.59,37.87 387.34,37.79 388.09,37.71 388.84,37.63 389.60,37.55 390.35,37.48 391.10,37.41 391.85,37.34 392.60,37.27 393.35,37.20 394.10,37.13 394.85,37.07 395.60,37.01 396.35,36.95 397.10,36.89 397.85,36.83 398.60,36.78 399.35,36.72 400.11,36.67 400.86,36.62 401.61,36.57 402.36,36.53 403.11,36.49 403.86,36.44 404.61,36.40 405.36,36.37 406.11,36.33 406.86,36.30 407.61,36.26 408.36,36.23 409.11,36.20 409.87,36.18 410.62,36.15 411.37,36.13 412.12,36.11 412.87,36.09 413.62,36.07 414.37,36.06 415.12,36.04 415.87,36.03 416.62,36.02 417.37,36.01 418.12,36.01 418.87,36.00 419.62,36.00 420.38,36.00 421.13,36.00 421.88,36.00 422.63,36.01 423.38,36.02 424.13,36.03 424.88,36.04 425.63,36.05 426.38,36.06 427.13,36.08 427.88,36.10 428.63,36.12 429.38,36.14 430.13,36.16 430.89,36.19 431.64,36.22 432.39,36.25 433.14,36.28 433.89,36.31 434.64,36.35 435.39,36.39 436.14,36.42 436.89,36.46 437.64,36.51 438.39,36.55 439.14,36.60 439.89,36.65 440.65,36.70 441.40,36.75 442.15,36.80 442.90,36.86 443.65,36.92 444.40,36.98 445.15,37.04 445.90,37.10 446.65,37.16 447.40,37.23 448.15,37.30 448.90,37.37 449.65,37.44 450.40,37.52 451.16,37.59 451.91,37.67 452.66,37.75 453.41,37.83 454.16,37.92 454.91,38.00 455.66,38.09 456.41,38.18 457.16,38.27 457.91,38.36 458.66,38.45 459.41,38.55 460.16,38.65 460.91,38.75 461.67,38.85 462.42,38.95 463.17,39.06 463.92,39.16 464.67,39.27 465.42,39.38 466.17,39.50 466.92,39.61 467.67,39.73 468.42,39.84 469.17,39.96 469.92,40.08 470.67,40.21 471.43,40.33 472.18,40.46 472.93,40.59 473.68,40.72 474.43,40.85 475.18,40.98 475.93,41.12 476.68,41.25 477.43,41.39 478.18,41.53 478.93,41.68 479.68,41.82 480.43,41.97 481.18,42.11 481.94,42.26 482.69,42.41 483.44,42.57 484.19,42.72 484.94,42.88 485.69,43.03 486.44,43.19 487.19,43.35 487.94,43.52 488.69,43.68 489.44,43.85 490.19,44.01 490.94,44.18 491.70,44.36 492.45,44.53 493.20,44.70 493.95,44.88 494.70,45.06 495.45,45.23 496.20,45.42 496.95,45.60 497.70,45.78 498.45,45.97 499.20,46.16 499.95,46.34 500.70,46.54 501.45,46.73 502.21,46.92 502.96,47.12 503.71,47.31 504.46,47.51 505.21,47.71 505.96,47.91 506.71,48.12 507.46,48.32 508.21,48.53 508.96,48.74 509.71,48.95 510.46,49.16 511.21,49.37 511.96,49.58 512.72,49.80 513.47,50.02 514.22,50.23 514.97,50.45 515.72,50.68 516.47,50.90 517.22,51.12 517.97,51.35 518.72,51.58 519.47,51.81 520.22,52.04 520.97,52.27 521.72,52.50 522.48,52.74 523.23,52.97 523.98,53.21 524.73,53.45 525.48,53.69 526.23,53.93 526.98,54.18 527.73,54.42 528.48,54.67 529.23,54.91 529.98,55.16 530.73,55.41 531.48,55.66 532.23,55.92 532.99,56.17 533.74,56.43 534.49,56.69 535.24,56.94 535.99,57.20 536.74,57.46 537.49,57.73 538.24,57.99 538.99,58.26 539.74,58.52 540.49,58.79 541.24,59.06 541.99,59.33 542.74,59.60 543.50,59.87 544.25,60.15 545.00,60.42 545.75,60.70 546.50,60.98 547.25,61.25 548.00,61.53 548.75,61.82 549.50,62.10 550.25,62.38 551.00,62.67 551.75,62.95 552.50,63.24 553.26,63.53 554.01,63.82 554.76,64.11 555.51,64.40 556.26,64.70 557.01,64.99 557.76,65.28 558.51,65.58 559.26,65.88 560.01,66.18 560.76,66.48 561.51,66.78 562.26,67.08 563.01,67.38 563.77,67.69 564.52,67.99 565.27,68.30 566.02,68.61 566.77,68.92 567.52,69.23 568.27,69.54 569.02,69.85 569.77,70.16 570.52,70.47 571.27,70.79 572.02,71.10 572.77,71.42 573.52,71.74 574.28,72.06 575.03,72.38 575.78,72.70 576.53,73.02 577.28,73.34 578.03,73.66 578.78,73.99 579.53,74.31 580.28,74.64 581.03,74.96 581.78,75.29 582.53,75.62 583.28,75.95 584.04,76.28 584.79,76.61 585.54,76.94 586.29,77.28 587.04,77.61 587.79,77.95 588.54,78.28 589.29,78.62 590.04,78.95 590.79,79.29 591.54,79.63 592.29,79.97 593.04,80.31 593.79,80.65 594.55,80.99 595.30,81.34 596.05,81.68 596.80,82.02 597.55,82.37 598.30,82.71 599.05,83.06 599.80,83.41 600.55,83.75 601.30,84.10 602.05,84.45 602.80,84.80 603.55,85.15 604.30,85.50 605.06,85.85 605.81,86.21 606.56,86.56 607.31,86.91 608.06,87.27 608.81,87.62 609.56,87.98 610.31,88.33 611.06,88.69 611.81,89.05 612.56,89.40 613.31,89.76 614.06,90.12 614.82,90.48 615.57,90.84 616.32,91.20 617.07,91.56 617.82,91.92 618.57,92.29 619.32,92.65 620.07,93.01 620.82,93.38 621.57,93.74 622.32,94.10 623.07,94.47 623.82,94.83 624.57,95.20 625.33,95.57 626.08,95.93 626.83,96.30 627.58,96.67 628.33,97.04 629.08,97.40 629.83,97.77 630.58,98.14 631.33,98.51 632.08,98.88 632.83,99.25 633.58,99.62 634.33,99.99 635.09,100.37 635.84,100.74 636.59,101.11 637.34,101.48 638.09,101.86 638.84,102.23 639.59,102.60 640.34,102.97 641.09,103.35 641.84,103.72 642.59,104.10 643.34,104.47 644.09,104.85 644.84,105.22 645.60,105.60 646.35,105.97 647.10,106.35 647.85,106.73 648.60,107.10 649.35,107.48 650.10,107.86 650.85,108.23 651.60,108.61 652.35,108.99 653.10,109.36 653.85,109.74 654.60,110.12 655.35,110.50 656.11,110.88 656.86,111.25 657.61,111.63 658.36,112.01 659.11,112.39 659.86,112.77 660.61,113.15 661.36,113.52 662.11,113.90 662.86,114.28 663.61,114.66 664.36,115.04 665.11,115.42 665.87,115.80 666.62,116.18 667.37,116.56 668.12,116.94 668.87,117.32 669.62,117.69 670.37,118.07 671.12,118.45 671.87,118.83 672.62,119.21 673.37,119.59 674.12,119.97 674.87,120.35 675.62,120.73 676.38,121.11 677.13,121.49 677.88,121.87 678.63,122.24 679.38,122.62 680.13,123.00 680.88,123.38 681.63,123.76 682.38,124.14 683.13,124.52 683.88,124.89 684.63,125.27 685.38,125.65 686.13,126.03 686.89,126.40 687.64,126.78 688.39,127.16 689.14,127.54 689.89,127.91 690.64,128.29 691.39,128.67 692.14,129.04 692.89,129.42 693.64,129.80 694.39,130.17 695.14,130.55 695.89,130.92 696.65,131.30 697.40,131.67 698.15,132.05 698.90,132.42 699.65,132.80 700.40,133.17 701.15,133.54 701.90,133.92 702.65,134.29 703.40,134.66 704.15,135.04 704.90,135.41 705.65,135.78 706.40,136.15 707.16,136.52 707.91,136.90 708.66,137.27 709.41,137.64 710.16,138.01 710.91,138.38 711.66,138.75 712.41,139.12 713.16,139.48 713.91,139.85 714.66,140.22 715.41,140.59 716.16,140.96 716.91,141.32 717.67,141.69 718.42,142.06 719.17,142.42 719.92,142.79 720.67,143.15 721.42,143.52 722.17,143.88 722.92,144.24 723.67,144.61 724.42,144.97 725.17,145.33 725.92,145.69 726.67,146.06 727.43,146.42 728.18,146.78 728.93,147.14 729.68,147.50 730.43,147.86 731.18,148.22 731.93,148.57 732.68,148.93 733.43,149.29 734.18,149.65 734.93,150.00 735.68,150.36 736.43,150.71 737.18,151.07 737.94,151.42 738.69,151.78 739.44,152.13 740.19,152.48 740.94,152.84 741.69,153.19 742.44,153.54 743.19,153.89 743.94,154.24 744.69,154.59 745.44,154.94 746.19,155.29 746.94,155.63 747.70,155.98 748.45,156.33 749.20,156.68 749.95,157.02 750.70,157.37 751.45,157.71 752.20,158.05 752.95,158.40 753.70,158.74 754.45,159.08 755.20,159.42 755.95,159.76 756.70,160.10 757.45,160.44 758.21,160.78 758.96,161.12 759.71,161.46 760.46,161.80 761.21,162.13 761.96,162.47 762.71,162.80 763.46,163.14 764.21,163.47 764.96,163.80 765.71,164.14 766.46,164.47 767.21,164.80 767.96,165.13 768.72,165.46 769.47,165.79 770.22,166.12 770.97,166.45 771.72,166.77 772.47,167.10 773.22,167.43 773.97,167.75 774.72,168.08 775.47,168.40 776.22,168.72 776.97,169.04 777.72,169.37 778.48,169.69 779.23,170.01 779.98,170.33 780.73,170.64 781.48,170.96 782.23,171.28 782.98,171.60 783.73,171.91 784.48,172.23 785.23,172.54 785.98,172.86 786.73,173.17 787.48,173.48 788.23,173.79 788.99,174.10 789.74,174.41 790.49,174.72 791.24,175.03 791.99,175.34 792.74,175.65 793.49,175.95 794.24,176.26 794.99,176.56 795.74,176.87 796.49,177.17 797.24,177.47 797.99,177.77 798.74,178.07 799.50,178.37 800.25,178.67 801.00,178.97 801.75,179.27 802.50,179.57 803.25,179.86 804.00,180.30" />
  <text x="420.0" y="22" text-anchor="middle" font-family="Arial, Helvetica, sans-serif" font-size="15" fill="#102a43">gaussian_0p65 window (time domain)</text>
  <text x="420.0" y="272" text-anchor="middle" font-family="Arial, Helvetica, sans-serif" font-size="12" fill="#334e68">normalized sample index</text>
  <text x="14" y="140.0" transform="rotate(-90 14,140.0)" text-anchor="middle" font-family="Arial, Helvetica, sans-serif" font-size="12" fill="#334e68">amplitude</text>
  <text x="36" y="262" font-family="Arial, Helvetica, sans-serif" font-size="11" fill="#486581">0</text>
  <text x="804" y="262" text-anchor="end" font-family="Arial, Helvetica, sans-serif" font-size="11" fill="#486581">1</text>
  <text x="30" y="40" text-anchor="end" font-family="Arial, Helvetica, sans-serif" font-size="11" fill="#486581">1.0</text>
  <text x="30" y="248" text-anchor="end" font-family="Arial, Helvetica, sans-serif" font-size="11" fill="#486581">0.0</text>
</svg>
