<svg xmlns="http://www.w3.org/2000/svg" width="840" height="280" viewBox="0 0 840 280">
  <rect x="0" y="0" width="840" height="280" fill="#ffffff" />
  <rect x="36" y="36" width="768" height="208" fill="#f7fbff" stroke="#c8d9e6" />
  <polyline fill="none" stroke="#005f73" stroke-width="2" points="36.00,226.39 36.75,226.22 37.50,226.05 38.25,225.88 39.00,225.70 39.75,225.53 40.50,225.35 41.26,225.17 42.01,224.99 42.76,224.81 43.51,224.63 44.26,224.44 45.01,224.26 45.76,224.07 46.51,223.88 47.26,223.69 48.01,223.50 48.76,223.31 49.51,223.11 50.26,222.92 51.01,222.72 51.77,222.52 52.52,222.33 53.27,222.12 54.02,221.92 54.77,221.72 55.52,221.51 56.27,221.31 57.02,221.10 57.77,220.89 58.52,220.68 59.27,220.47 60.02,220.25 60.77,220.04 61.52,219.82 62.28,219.60 63.03,219.38 63.78,219.16 64.53,218.93 65.28,218.71 66.03,218.48 66.78,218.26 67.53,218.03 68.28,217.80 69.03,217.56 69.78,217.33 70.53,217.09 71.28,216.86 72.04,216.62 72.79,216.38 73.54,216.14 74.29,215.89 75.04,215.65 75.79,215.40 76.54,215.15 77.29,214.90 78.04,214.65 78.79,214.40 79.54,214.14 80.29,213.89 81.04,213.63 81.79,213.37 82.55,213.11 83.30,212.85 84.05,212.58 84.80,212.32 85.55,212.05 86.30,211.78 87.05,211.51 87.80,211.24 88.55,210.96 89.30,210.68 90.05,210.41 90.80,210.13 91.55,209.85 92.30,209.56 93.06,209.28 93.81,208.99 94.56,208.71 95.31,208.42 96.06,208.12 96.81,207.83 97.56,207.54 98.31,207.24 99.06,206.94 99.81,206.64 100.56,206.34 101.31,206.04 102.06,205.73 102.82,205.43 103.57,205.12 104.32,204.81 105.07,204.50 105.82,204.18 106.57,203.87 107.32,203.55 108.07,203.23 108.82,202.91 109.57,202.59 110.32,202.27 111.07,201.94 111.82,201.61 112.57,201.28 113.33,200.95 114.08,200.62 114.83,200.29 115.58,199.95 116.33,199.61 117.08,199.27 117.83,198.93 118.58,198.59 119.33,198.24 120.08,197.90 120.83,197.55 121.58,197.20 122.33,196.85 123.09,196.49 123.84,196.14 124.59,195.78 125.34,195.42 126.09,195.06 126.84,194.70 127.59,194.33 128.34,193.97 129.09,193.60 129.84,193.23 130.59,192.86 131.34,192.49 132.09,192.11 132.84,191.73 133.60,191.36 134.35,190.98 135.10,190.60 135.85,190.21 136.60,189.83 137.35,189.44 138.10,189.05 138.85,188.66 139.60,188.27 140.35,187.88 141.10,187.48 141.85,187.08 142.60,186.69 143.35,186.28 144.11,185.88 144.86,185.48 145.61,185.07 146.36,184.67 147.11,184.26 147.86,183.85 148.61,183.43 149.36,183.02 150.11,182.60 150.86,182.19 151.61,181.77 152.36,181.35 153.11,180.93 153.87,180.50 154.62,180.08 155.37,179.65 156.12,179.22 156.87,178.79 157.62,178.36 158.37,177.92 159.12,177.49 159.87,177.05 160.62,176.61 161.37,176.17 162.12,175.73 162.87,175.29 163.62,174.84 164.38,174.40 165.13,173.95 165.88,173.50 166.63,173.05 167.38,172.59 168.13,172.14 168.88,171.68 169.63,171.23 170.38,170.77 171.13,170.31 171.88,169.85 172.63,169.38 173.38,168.92 174.13,168.45 174.89,167.99 175.64,167.52 176.39,167.05 177.14,166.57 177.89,166.10 178.64,165.63 179.39,165.15 180.14,164.67 180.89,164.19 181.64,163.71 182.39,163.23 183.14,162.75 183.89,162.26 184.65,161.78 185.40,161.29 186.15,160.80 186.90,160.31 187.65,159.82 188.40,159.33 189.15,158.83 189.90,158.34 190.65,157.84 191.40,157.35 192.15,156.85 192.90,156.35 193.65,155.85 194.40,155.35 195.16,154.84 195.91,154.34 196.66,153.83 197.41,153.32 198.16,152.82 198.91,152.31 199.66,151.80 200.41,151.29 201.16,150.77 201.91,150.26 202.66,149.75 203.41,149.23 204.16,148.71 204.91,148.20 205.67,147.68 206.42,147.16 207.17,146.64 207.92,146.12 208.67,145.59 209.42,145.07 210.17,144.55 210.92,144.02 211.67,143.50 212.42,142.97 213.17,142.44 213.92,141.91 214.67,141.38 215.43,140.85 216.18,140.32 216.93,139.79 217.68,139.26 218.43,138.73 219.18,138.19 219.93,137.66 220.68,137.12 221.43,136.59 222.18,136.05 222.93,135.51 223.68,134.97 224.43,134.44 225.18,133.90 225.94,133.36 226.69,132.82 227.44,132.28 228.19,131.74 228.94,131.19 229.69,130.65 230.44,130.11 231.19,129.57 231.94,129.02 232.69,128.48 233.44,127.93 234.19,127.39 234.94,126.85 235.70,126.30 236.45,125.75 237.20,125.21 237.95,124.66 238.70,124.12 239.45,123.57 240.20,123.02 240.95,122.48 241.70,121.93 242.45,121.38 243.20,120.83 243.95,120.29 244.70,119.74 245.45,119.19 246.21,118.64 246.96,118.09 247.71,117.55 248.46,117.00 249.21,116.45 249.96,115.90 250.71,115.36 251.46,114.81 252.21,114.26 252.96,113.71 253.71,113.17 254.46,112.62 255.21,112.07 255.96,111.53 256.72,110.98 257.47,110.43 258.22,109.89 258.97,109.34 259.72,108.80 260.47,108.25 261.22,107.71 261.97,107.16 262.72,106.62 263.47,106.08 264.22,105.54 264.97,104.99 265.72,104.45 266.48,103.91 267.23,103.37 267.98,102.83 268.73,102.29 269.48,101.75 270.23,101.21 270.98,100.68 271.73,100.14 272.48,99.60 273.23,99.07 273.98,98.53 274.73,98.00 275.48,97.47 276.23,96.93 276.99,96.40 277.74,95.87 278.49,95.34 279.24,94.81 279.99,94.29 280.74,93.76 281.49,93.23 282.24,92.71 282.99,92.19 283.74,91.66 284.49,91.14 285.24,90.62 285.99,90.10 286.74,89.58 287.50,89.07 288.25,88.55 289.00,88.04 289.75,87.52 290.50,87.01 291.25,86.50 292.00,85.99 292.75,85.48 293.50,84.98 294.25,84.47 295.00,83.97 295.75,83.46 296.50,82.96 297.26,82.46 298.01,81.97 298.76,81.47 299.51,80.97 300.26,80.48 301.01,79.99 301.76,79.50 302.51,79.01 303.26,78.52 304.01,78.04 304.76,77.56 305.51,77.07 306.26,76.59 307.01,76.12 307.77,75.64 308.52,75.16 309.27,74.69 310.02,74.22 310.77,73.75 311.52,73.29 312.27,72.82 313.02,72.36 313.77,71.90 314.52,71.44 315.27,70.98 316.02,70.53 316.77,70.07 317.52,69.62 318.28,69.17 319.03,68.73 319.78,68.28 320.53,67.84 321.28,67.40 322.03,66.96 322.78,66.53 323.53,66.09 324.28,65.66 325.03,65.24 325.78,64.81 326.53,64.39 327.28,63.96 328.04,63.55 328.79,63.13 329.54,62.72 330.29,62.30 331.04,61.89 331.79,61.49 332.54,61.08 333.29,60.68 334.04,60.28 334.79,59.89 335.54,59.49 336.29,59.10 337.04,58.71 337.79,58.33 338.55,57.95 339.30,57.57 340.05,57.19 340.80,56.81 341.55,56.44 342.30,56.07 343.05,55.71 343.80,55.34 344.55,54.98 345.30,54.63 346.05,54.27 346.80,53.92 347.55,53.57 348.30,53.22 349.06,52.88 349.81,52.54 350.56,52.20 351.31,51.87 352.06,51.54 352.81,51.21 353.56,50.89 354.31,50.57 355.06,50.25 355.81,49.93 356.56,49.62 357.31,49.31 358.06,49.00 358.82,48.70 359.57,48.40 360.32,48.11 361.07,47.81 361.82,47.52 362.57,47.24 363.32,46.95 364.07,46.67 364.82,46.40 365.57,46.12 366.32,45.85 367.07,45.59 367.82,45.33 368.57,45.07 369.33,44.81 370.08,44.56 370.83,44.31 371.58,44.06 372.33,43.82 373.08,43.58 373.83,43.34 374.58,43.11 375.33,42.88 376.08,42.66 376.83,42.44 377.58,42.22 378.33,42.01 379.09,41.80 379.84,41.59 380.59,41.39 381.34,41.19 382.09,40.99 382.84,40.80 383.59,40.61 384.34,40.42 385.09,40.24 385.84,40.06 386.59,39.89 387.34,39.72 388.09,39.55 388.84,39.39 389.60,39.23 390.35,39.08 391.10,38.92 391.85,38.78 392.60,38.63 393.35,38.49 394.10,38.35 394.85,38.22 395.60,38.09 396.35,37.97 397.10,37.85 397.85,37.73 398.60,37.61 399.35,37.50 400.11,37.40 400.86,37.30 401.61,37.20 402.36,37.10 403.11,37.01 403.86,36.93 404.61,36.84 405.36,36.76 406.11,36.69 406.86,36.62 407.61,36.55 408.36,36.49 409.11,36.43 409.87,36.37 410.62,36.32 411.37,36.27 412.12,36.23 412.87,36.19 413.62,36.15 414.37,36.12 415.12,36.09 415.87,36.06 416.62,36.04 417.37,36.03 418.12,36.01 418.87,36.01 419.62,36.00 420.38,36.00 421.13,36.00 421.88,36.01 422.63,36.02 423.38,36.04 424.13,36.05 424.88,36.08 425.63,36.10 426.38,36.13 427.13,36.17 427.88,36.21 428.63,36.25 429.38,36.29 430.13,36.34 430.89,36.40 431.64,36.46 432.39,36.52 433.14,36.58 433.89,36.65 434.64,36.73 435.39,36.80 436.14,36.88 436.89,36.97 437.64,37.06 438.39,37.15 439.14,37.25 439.89,37.35 440.65,37.45 441.40,37.56 442.15,37.67 442.90,37.79 443.65,37.91 444.40,38.03 445.15,38.16 445.90,38.29 446.65,38.42 447.40,38.56 448.15,38.70 448.90,38.85 449.65,39.00 450.40,39.15 451.16,39.31 451.91,39.47 452.66,39.64 453.41,39.80 454.16,39.98 454.91,40.15 455.66,40.33 456.41,40.52 457.16,40.70 457.91,40.89 458.66,41.09 459.41,41.29 460.16,41.49 460.91,41.69 461.67,41.90 462.42,42.11 463.17,42.33 463.92,42.55 464.67,42.77 465.42,43.00 466.17,43.23 466.92,43.46 467.67,43.70 468.42,43.94 469.17,44.18 469.92,44.43 470.67,44.68 471.43,44.94 472.18,45.19 472.93,45.46 473.68,45.72 474.43,45.99 475.18,46.26 475.93,46.54 476.68,46.81 477.43,47.09 478.18,47.38 478.93,47.67 479.68,47.96 480.43,48.25 481.18,48.55 481.94,48.85 482.69,49.16 483.44,49.46 484.19,49.77 484.94,50.09 485.69,50.41 486.44,50.73 487.19,51.05 487.94,51.38 488.69,51.70 489.44,52.04 490.19,52.37 490.94,52.71 491.70,53.05 492.45,53.40 493.20,53.74 493.95,54.09 494.70,54.45 495.45,54.80 496.20,55.16 496.95,55.52 497.70,55.89 498.45,56.26 499.20,56.63 499.95,57.00 500.70,57.38 501.45,57.76 502.21,58.14 502.96,58.52 503.71,58.91 504.46,59.30 505.21,59.69 505.96,60.09 506.71,60.48 507.46,60.88 508.21,61.29 508.96,61.69 509.71,62.10 510.46,62.51 511.21,62.92 511.96,63.34 512.72,63.75 513.47,64.17 514.22,64.60 514.97,65.02 515.72,65.45 516.47,65.88 517.22,66.31 517.97,66.75 518.72,67.18 519.47,67.62 520.22,68.06 520.97,68.50 521.72,68.95 522.48,69.40 523.23,69.85 523.98,70.30 524.73,70.75 525.48,71.21 526.23,71.67 526.98,72.13 527.73,72.59 528.48,73.05 529.23,73.52 529.98,73.99 530.73,74.46 531.48,74.93 532.23,75.40 532.99,75.88 533.74,76.35 534.49,76.83 535.24,77.31 535.99,77.80 536.74,78.28 537.49,78.77 538.24,79.25 538.99,79.74 539.74,80.23 540.49,80.73 541.24,81.22 541.99,81.72 542.74,82.21 543.50,82.71 544.25,83.21 545.00,83.72 545.75,84.22 546.50,84.72 547.25,85.23 548.00,85.74 548.75,86.25 549.50,86.76 550.25,87.27 551.00,87.78 551.75,88.29 552.50,88.81 553.26,89.32 554.01,89.84 554.76,90.36 555.51,90.88 556.26,91.40 557.01,91.92 557.76,92.45 558.51,92.97 559.26,93.50 560.01,94.02 560.76,94.55 561.51,95.08 562.26,95.61 563.01,96.14 563.77,96.67 564.52,97.20 565.27,97.73 566.02,98.27 566.77,98.80 567.52,99.34 568.27,99.87 569.02,100.41 569.77,100.94 570.52,101.48 571.27,102.02 572.02,102.56 572.77,103.10 573.52,103.64 574.28,104.18 575.03,104.72 575.78,105.26 576.53,105.81 577.28,106.35 578.03,106.89 578.78,107.44 579.53,107.98 580.28,108.53 581.03,109.07 581.78,109.62 582.53,110.16 583.28,110.71 584.04,111.25 584.79,111.80 585.54,112.35 586.29,112.89 587.04,113.44 587.79,113.99 588.54,114.53 589.29,115.08 590.04,115.63 590.79,116.18 591.54,116.73 592.29,117.27 593.04,117.82 593.79,118.37 594.55,118.92 595.30,119.46 596.05,120.01 596.80,120.56 597.55,121.11 598.30,121.65 599.05,122.20 599.80,122.75 600.55,123.30 601.30,123.84 602.05,124.39 602.80,124.94 603.55,125.48 604.30,126.03 605.06,126.57 605.81,127.12 606.56,127.66 607.31,128.21 608.06,128.75 608.81,129.29 609.56,129.84 610.31,130.38 611.06,130.92 611.81,131.46 612.56,132.01 613.31,132.55 614.06,133.09 614.82,133.63 615.57,134.17 616.32,134.71 617.07,135.24 617.82,135.78 618.57,136.32 619.32,136.85 620.07,137.39 620.82,137.92 621.57,138.46 622.32,138.99 623.07,139.52 623.82,140.06 624.57,140.59 625.33,141.12 626.08,141.65 626.83,142.18 627.58,142.71 628.33,143.23 629.08,143.76 629.83,144.28 630.58,144.81 631.33,145.33 632.08,145.86 632.83,146.38 633.58,146.90 634.33,147.42 635.09,147.94 635.84,148.46 636.59,148.97 637.34,149.49 638.09,150.00 638.84,150.52 639.59,151.03 640.34,151.54 641.09,152.05 641.84,152.56 642.59,153.07 643.34,153.58 644.09,154.08 644.84,154.59 645.60,155.09 646.35,155.60 647.10,156.10 647.85,156.60 648.60,157.10 649.35,157.60 650.10,158.09 650.85,158.59 651.60,159.08 652.35,159.57 653.10,160.07 653.85,160.56 654.60,161.05 655.35,161.53 656.11,162.02 656.86,162.51 657.61,162.99 658.36,163.47 659.11,163.95 659.86,164.43 660.61,164.91 661.36,165.39 662.11,165.86 662.86,166.34 663.61,166.81 664.36,167.28 665.11,167.75 665.87,168.22 666.62,168.69 667.37,169.15 668.12,169.62 668.87,170.08 669.62,170.54 670.37,171.00 671.12,171.46 671.87,171.91 672.62,172.37 673.37,172.82 674.12,173.27 674.87,173.72 675.62,174.17 676.38,174.62 677.13,175.06 677.88,175.51 678.63,175.95 679.38,176.39 680.13,176.83 680.88,177.27 681.63,177.71 682.38,178.14 683.13,178.57 683.88,179.00 684.63,179.43 685.38,179.86 686.13,180.29 686.89,180.71 687.64,181.14 688.39,181.56 689.14,181.98 689.89,182.40 690.64,182.81 691.39,183.23 692.14,183.64 692.89,184.05 693.64,184.46 694.39,184.87 695.14,185.28 695.89,185.68 696.65,186.08 697.40,186.49 698.15,186.88 698.90,187.28 699.65,187.68 700.40,188.07 701.15,188.47 701.90,188.86 702.65,189.25 703.40,189.63 704.15,190.02 704.90,190.40 705.65,190.79 706.40,191.17 707.16,191.55 707.91,191.92 708.66,192.30 709.41,192.67 710.16,193.04 710.91,193.41 711.66,193.78 712.41,194.15 713.16,194.52 713.91,194.88 714.66,195.24 715.41,195.60 716.16,195.96 716.91,196.31 717.67,196.67 718.42,197.02 719.17,197.37 719.92,197.72 720.67,198.07 721.42,198.41 722.17,198.76 722.92,199.10 723.67,199.44 724.42,199.78 725.17,200.12 725.92,200.45 726.67,200.79 727.43,201.12 728.18,201.45 728.93,201.78 729.68,202.10 730.43,202.43 731.18,202.75 731.93,203.07 732.68,203.39 733.43,203.71 734.18,204.03 734.93,204.34 735.68,204.65 736.43,204.96 737.18,205.27 737.94,205.58 738.69,205.89 739.44,206.19 740.19,206.49 740.94,206.79 741.69,207.09 742.44,207.39 743.19,207.68 743.94,207.98 744.69,208.27 745.44,208.56 746.19,208.85 746.94,209.14 747.70,209.42 748.45,209.71 749.20,209.99 749.95,210.27 750.70,210.55 751.45,210.82 752.20,211.10 752.95,211.37 753.70,211.64 754.45,211.91 755.20,212.18 755.95,212.45 756.70,212.71 757.45,212.98 758.21,213.24 758.96,213.50 759.71,213.76 760.46,214.02 761.21,214.27 761.96,214.53 762.71,214.78 763.46,215.03 764.21,215.28 764.96,215.52 765.71,215.77 766.46,216.01 767.21,216.26 767.96,216.50 768.72,216.74 769.47,216.98 770.22,217.21 770.97,217.45 771.72,217.68 772.47,217.91 773.22,218.14 773.97,218.37 774.72,218.60 775.47,218.82 776.22,219.05 776.97,219.27 777.72,219.49 778.48,219.71 779.23,219.93 779.98,220.14 780.73,220.36 781.48,220.57 782.23,220.78 782.98,220.99 783.73,221.20 784.48,221.41 785.23,221.62 785.98,221.82 786.73,222.02 787.48,222.23 788.23,222.43 788.99,222.62 789.74,222.82 790.49,223.02 791.24,223.21 791.99,223.40 792.74,223.60 793.49,223.79 794.24,223.98 794.99,224.16 795.74,224.35 796.49,224.53 797.24,224.72 797.99,224.90 798.74,225.08 799.50,225.26 800.25,225.44 801.00,225.61 801.75,225.79 802.50,225.96 803.25,226.13 804.00,226.39" />
  <text x="420.0" y="22" text-anchor="middle" font-family="Arial, Helvetica, sans-serif" font-size="15" fill="#102a43">gaussian_0p45 window (time domain)</text>
  <text x="420.0" y="272" text-anchor="middle" font-family="Arial, Helvetica, sans-serif" font-size="12" fill="#334e68">normalized sample index</text>
  <text x="14" y="140.0" transform="rotate(-90 14,140.0)" text-anchor="middle" font-family="Arial, Helvetica, sans-serif" font-size="12" fill="#334e68">amplitude</text>
  <text x="36" y="262" font-family="Arial, Helvetica, sans-serif" font-size="11" fill="#486581">0</text>
  <text x="804" y="262" text-anchor="end" font-family="Arial, Helvetica, sans-serif" font-size="11" fill="#486581">1</text>
  <text x="30" y="40" text-anchor="end" font-family="Arial, Helvetica, sans-serif" font-size="11" fill="#486581">1.0</text>
  <text x="30" y="248" text-anchor="end" font-family="Arial, Helvetica, sans-serif" font-size="11" fill="#486581">0.0</text>
</svg>
