<svg xmlns="http://www.w3.org/2000/svg" width="840" height="280" viewBox="0 0 840 280">
  <rect x="0" y="0" width="840" height="280" fill="#ffffff" />
  <rect x="36" y="36" width="768" height="208" fill="#f7fbff" stroke="#c8d9e6" />
  <polyline fill="none" stroke="#005f73" stroke-width="2" points="36.00,160.80 36.75,160.80 37.50,160.80 38.25,160.79 39.00,160.78 39.75,160.77 40.50,160.76 41.26,160.74 42.01,160.72 42.76,160.70 43.51,160.68 44.26,160.66 45.01,160.63 45.76,160.60 46.51,160.57 47.26,160.54 48.01,160.50 48.76,160.46 49.51,160.42 50.26,160.38 51.01,160.33 51.77,160.28 52.52,160.23 53.27,160.18 54.02,160.12 54.77,160.07 55.52,160.01 56.27,159.94 57.02,159.88 57.77,159.81 58.52,159.74 59.27,159.67 60.02,159.60 60.77,159.52 61.52,159.45 62.28,159.37 63.03,159.28 63.78,159.20 64.53,159.11 65.28,159.02 66.03,158.93 66.78,158.83 67.53,158.74 68.28,158.64 69.03,158.54 69.78,158.43 70.53,158.33 71.28,158.22 72.04,158.11 72.79,158.00 73.54,157.88 74.29,157.77 75.04,157.65 75.79,157.53 76.54,157.40 77.29,157.28 78.04,157.15 78.79,157.02 79.54,156.89 80.29,156.75 81.04,156.61 81.79,156.48 82.55,156.33 83.30,156.19 84.05,156.05 84.80,155.90 85.55,155.75 86.30,155.60 87.05,155.44 87.80,155.29 88.55,155.13 89.30,154.97 90.05,154.80 90.80,154.64 91.55,154.47 92.30,154.30 93.06,154.13 93.81,153.96 94.56,153.78 95.31,153.60 96.06,153.42 96.81,153.24 97.56,153.06 98.31,152.87 99.06,152.69 99.81,152.50 100.56,152.30 101.31,152.11 102.06,151.91 102.82,151.72 103.57,151.52 104.32,151.31 105.07,151.11 105.82,150.90 106.57,150.70 107.32,150.49 108.07,150.27 108.82,150.06 109.57,149.84 110.32,149.63 111.07,149.41 111.82,149.18 112.57,148.96 113.33,148.74 114.08,148.51 114.83,148.28 115.58,148.05 116.33,147.82 117.08,147.58 117.83,147.34 118.58,147.11 119.33,146.86 120.08,146.62 120.83,146.38 121.58,146.13 122.33,145.89 123.09,145.64 123.84,145.38 124.59,145.13 125.34,144.88 126.09,144.62 126.84,144.36 127.59,144.10 128.34,143.84 129.09,143.58 129.84,143.31 130.59,143.05 131.34,142.78 132.09,142.51 132.84,142.23 133.60,141.96 134.35,141.69 135.10,141.41 135.85,141.13 136.60,140.85 137.35,140.57 138.10,140.29 138.85,140.00 139.60,139.72 140.35,139.43 141.10,139.14 141.85,138.85 142.60,138.55 143.35,138.26 144.11,137.97 144.86,137.67 145.61,137.37 146.36,137.07 147.11,136.77 147.86,136.47 148.61,136.16 149.36,135.86 150.11,135.55 150.86,135.24 151.61,134.93 152.36,134.62 153.11,134.31 153.87,133.99 154.62,133.68 155.37,133.36 156.12,133.04 156.87,132.72 157.62,132.40 158.37,132.08 159.12,131.76 159.87,131.43 160.62,131.11 161.37,130.78 162.12,130.45 162.87,130.12 163.62,129.79 164.38,129.46 165.13,129.13 165.88,128.79 166.63,128.46 167.38,128.12 168.13,127.79 168.88,127.45 169.63,127.11 170.38,126.77 171.13,126.43 171.88,126.08 172.63,125.74 173.38,125.39 174.13,125.05 174.89,124.70 175.64,124.35 176.39,124.00 177.14,123.65 177.89,123.30 178.64,122.95 179.39,122.60 180.14,122.25 180.89,121.89 181.64,121.54 182.39,121.18 183.14,120.82 183.89,120.47 184.65,120.11 185.40,119.75 186.15,119.39 186.90,119.03 187.65,118.66 188.40,118.30 189.15,117.94 189.90,117.57 190.65,117.21 191.40,116.84 192.15,116.48 192.90,116.11 193.65,115.74 194.40,115.37 195.16,115.00 195.91,114.64 196.66,114.26 197.41,113.89 198.16,113.52 198.91,113.15 199.66,112.78 200.41,112.41 201.16,112.03 201.91,111.66 202.66,111.28 203.41,110.91 204.16,110.53 204.91,110.16 205.67,109.78 206.42,109.40 207.17,109.03 207.92,108.65 208.67,108.27 209.42,107.89 210.17,107.51 210.92,107.13 211.67,106.75 212.42,106.37 213.17,105.99 213.92,105.61 214.67,105.23 215.43,104.85 216.18,104.47 216.93,104.09 217.68,103.71 218.43,103.33 219.18,102.94 219.93,102.56 220.68,102.18 221.43,101.80 222.18,101.42 222.93,101.03 223.68,100.65 224.43,100.27 225.18,99.88 225.94,99.50 226.69,99.12 227.44,98.74 228.19,98.35 228.94,97.97 229.69,97.59 230.44,97.20 231.19,96.82 231.94,96.44 232.69,96.05 233.44,95.67 234.19,95.29 234.94,94.91 235.70,94.52 236.45,94.14 237.20,93.76 237.95,93.38 238.70,93.00 239.45,92.61 240.20,92.23 240.95,91.85 241.70,91.47 242.45,91.09 243.20,90.71 243.95,90.33 244.70,89.95 245.45,89.57 246.21,89.19 246.96,88.81 247.71,88.44 248.46,88.06 249.21,87.68 249.96,87.30 250.71,86.93 251.46,86.55 252.21,86.17 252.96,85.80 253.71,85.42 254.46,85.05 255.21,84.67 255.96,84.30 256.72,83.93 257.47,83.56 258.22,83.18 258.97,82.81 259.72,82.44 260.47,82.07 261.22,81.70 261.97,81.33 262.72,80.97 263.47,80.60 264.22,80.23 264.97,79.87 265.72,79.50 266.48,79.14 267.23,78.77 267.98,78.41 268.73,78.05 269.48,77.68 270.23,77.32 270.98,76.96 271.73,76.60 272.48,76.25 273.23,75.89 273.98,75.53 274.73,75.17 275.48,74.82 276.23,74.47 276.99,74.11 277.74,73.76 278.49,73.41 279.24,73.06 279.99,72.71 280.74,72.36 281.49,72.01 282.24,71.67 282.99,71.32 283.74,70.97 284.49,70.63 285.24,70.29 285.99,69.95 286.74,69.61 287.50,69.27 288.25,68.93 289.00,68.59 289.75,68.26 290.50,67.92 291.25,67.59 292.00,67.26 292.75,66.92 293.50,66.59 294.25,66.26 295.00,65.94 295.75,65.61 296.50,65.29 297.26,64.96 298.01,64.64 298.76,64.32 299.51,64.00 300.26,63.68 301.01,63.36 301.76,63.04 302.51,62.73 303.26,62.42 304.01,62.10 304.76,61.79 305.51,61.48 306.26,61.17 307.01,60.87 307.77,60.56 308.52,60.26 309.27,59.96 310.02,59.65 310.77,59.36 311.52,59.06 312.27,58.76 313.02,58.47 313.77,58.17 314.52,57.88 315.27,57.59 316.02,57.30 316.77,57.01 317.52,56.73 318.28,56.44 319.03,56.16 319.78,55.88 320.53,55.60 321.28,55.32 322.03,55.04 322.78,54.77 323.53,54.50 324.28,54.23 325.03,53.96 325.78,53.69 326.53,53.42 327.28,53.16 328.04,52.89 328.79,52.63 329.54,52.37 330.29,52.12 331.04,51.86 331.79,51.61 332.54,51.35 333.29,51.10 334.04,50.85 334.79,50.61 335.54,50.36 336.29,50.12 337.04,49.87 337.79,49.64 338.55,49.40 339.30,49.16 340.05,48.93 340.80,48.69 341.55,48.46 342.30,48.23 343.05,48.01 343.80,47.78 344.55,47.56 345.30,47.34 346.05,47.12 346.80,46.90 347.55,46.69 348.30,46.47 349.06,46.26 349.81,46.05 350.56,45.84 351.31,45.64 352.06,45.44 352.81,45.23 353.56,45.03 354.31,44.84 355.06,44.64 355.81,44.45 356.56,44.26 357.31,44.07 358.06,43.88 358.82,43.69 359.57,43.51 360.32,43.33 361.07,43.15 361.82,42.97 362.57,42.80 363.32,42.63 364.07,42.46 364.82,42.29 365.57,42.12 366.32,41.96 367.07,41.79 367.82,41.63 368.57,41.48 369.33,41.32 370.08,41.17 370.83,41.01 371.58,40.87 372.33,40.72 373.08,40.57 373.83,40.43 374.58,40.29 375.33,40.15 376.08,40.01 376.83,39.88 377.58,39.75 378.33,39.62 379.09,39.49 379.84,39.37 380.59,39.24 381.34,39.12 382.09,39.00 382.84,38.89 383.59,38.77 384.34,38.66 385.09,38.55 385.84,38.44 386.59,38.34 387.34,38.24 388.09,38.14 388.84,38.04 389.60,37.94 390.35,37.85 391.10,37.76 391.85,37.67 392.60,37.58 393.35,37.50 394.10,37.41 394.85,37.33 395.60,37.26 396.35,37.18 397.10,37.11 397.85,37.04 398.60,36.97 399.35,36.90 400.11,36.84 400.86,36.78 401.61,36.72 402.36,36.66 403.11,36.61 403.86,36.56 404.61,36.51 405.36,36.46 406.11,36.41 406.86,36.37 407.61,36.33 408.36,36.29 409.11,36.26 409.87,36.22 410.62,36.19 411.37,36.16 412.12,36.14 412.87,36.11 413.62,36.09 414.37,36.07 415.12,36.05 415.87,36.04 416.62,36.03 417.37,36.02 418.12,36.01 418.87,36.00 419.62,36.00 420.38,36.00 421.13,36.00 421.88,36.01 422.63,36.01 423.38,36.02 424.13,36.03 424.88,36.05 425.63,36.06 426.38,36.08 427.13,36.10 427.88,36.12 428.63,36.15 429.38,36.18 430.13,36.21 430.89,36.24 431.64,36.27 432.39,36.31 433.14,36.35 433.89,36.39 434.64,36.44 435.39,36.48 436.14,36.53 436.89,36.58 437.64,36.63 438.39,36.69 439.14,36.75 439.89,36.81 440.65,36.87 441.40,36.94 442.15,37.00 442.90,37.07 443.65,37.14 444.40,37.22 445.15,37.30 445.90,37.37 446.65,37.46 447.40,37.54 448.15,37.62 448.90,37.71 449.65,37.80 450.40,37.90 451.16,37.99 451.91,38.09 452.66,38.19 453.41,38.29 454.16,38.39 454.91,38.50 455.66,38.61 456.41,38.72 457.16,38.83 457.91,38.95 458.66,39.06 459.41,39.18 460.16,39.30 460.91,39.43 461.67,39.55 462.42,39.68 463.17,39.81 463.92,39.95 464.67,40.08 465.42,40.22 466.17,40.36 466.92,40.50 467.67,40.65 468.42,40.79 469.17,40.94 469.92,41.09 470.67,41.24 471.43,41.40 472.18,41.55 472.93,41.71 473.68,41.87 474.43,42.04 475.18,42.20 475.93,42.37 476.68,42.54 477.43,42.71 478.18,42.89 478.93,43.06 479.68,43.24 480.43,43.42 481.18,43.60 481.94,43.79 482.69,43.97 483.44,44.16 484.19,44.35 484.94,44.54 485.69,44.74 486.44,44.94 487.19,45.13 487.94,45.33 488.69,45.54 489.44,45.74 490.19,45.95 490.94,46.16 491.70,46.37 492.45,46.58 493.20,46.79 493.95,47.01 494.70,47.23 495.45,47.45 496.20,47.67 496.95,47.89 497.70,48.12 498.45,48.35 499.20,48.58 499.95,48.81 500.70,49.04 501.45,49.28 502.21,49.52 502.96,49.75 503.71,50.00 504.46,50.24 505.21,50.48 505.96,50.73 506.71,50.98 507.46,51.23 508.21,51.48 508.96,51.73 509.71,51.99 510.46,52.24 511.21,52.50 511.96,52.76 512.72,53.03 513.47,53.29 514.22,53.55 514.97,53.82 515.72,54.09 516.47,54.36 517.22,54.63 517.97,54.91 518.72,55.18 519.47,55.46 520.22,55.74 520.97,56.02 521.72,56.30 522.48,56.58 523.23,56.87 523.98,57.16 524.73,57.44 525.48,57.73 526.23,58.03 526.98,58.32 527.73,58.61 528.48,58.91 529.23,59.21 529.98,59.50 530.73,59.81 531.48,60.11 532.23,60.41 532.99,60.71 533.74,61.02 534.49,61.33 535.24,61.64 535.99,61.95 536.74,62.26 537.49,62.57 538.24,62.89 538.99,63.20 539.74,63.52 540.49,63.84 541.24,64.16 541.99,64.48 542.74,64.80 543.50,65.12 544.25,65.45 545.00,65.77 545.75,66.10 546.50,66.43 547.25,66.76 548.00,67.09 548.75,67.42 549.50,67.75 550.25,68.09 551.00,68.42 551.75,68.76 552.50,69.10 553.26,69.44 554.01,69.78 554.76,70.12 555.51,70.46 556.26,70.80 557.01,71.15 557.76,71.49 558.51,71.84 559.26,72.19 560.01,72.53 560.76,72.88 561.51,73.23 562.26,73.58 563.01,73.94 563.77,74.29 564.52,74.64 565.27,75.00 566.02,75.35 566.77,75.71 567.52,76.07 568.27,76.42 569.02,76.78 569.77,77.14 570.52,77.50 571.27,77.86 572.02,78.23 572.77,78.59 573.52,78.95 574.28,79.32 575.03,79.68 575.78,80.05 576.53,80.42 577.28,80.78 578.03,81.15 578.78,81.52 579.53,81.89 580.28,82.26 581.03,82.63 581.78,83.00 582.53,83.37 583.28,83.74 584.04,84.11 584.79,84.49 585.54,84.86 586.29,85.24 587.04,85.61 587.79,85.99 588.54,86.36 589.29,86.74 590.04,87.11 590.79,87.49 591.54,87.87 592.29,88.25 593.04,88.62 593.79,89.00 594.55,89.38 595.30,89.76 596.05,90.14 596.80,90.52 597.55,90.90 598.30,91.28 599.05,91.66 599.80,92.04 600.55,92.42 601.30,92.81 602.05,93.19 602.80,93.57 603.55,93.95 604.30,94.33 605.06,94.72 605.81,95.10 606.56,95.48 607.31,95.86 608.06,96.25 608.81,96.63 609.56,97.01 610.31,97.39 611.06,97.78 611.81,98.16 612.56,98.54 613.31,98.93 614.06,99.31 614.82,99.69 615.57,100.08 616.32,100.46 617.07,100.84 617.82,101.22 618.57,101.61 619.32,101.99 620.07,102.37 620.82,102.75 621.57,103.14 622.32,103.52 623.07,103.90 623.82,104.28 624.57,104.66 625.33,105.04 626.08,105.42 626.83,105.80 627.58,106.18 628.33,106.56 629.08,106.94 629.83,107.32 630.58,107.70 631.33,108.08 632.08,108.46 632.83,108.84 633.58,109.21 634.33,109.59 635.09,109.97 635.84,110.34 636.59,110.72 637.34,111.10 638.09,111.47 638.84,111.84 639.59,112.22 640.34,112.59 641.09,112.96 641.84,113.34 642.59,113.71 643.34,114.08 644.09,114.45 644.84,114.82 645.60,115.19 646.35,115.56 647.10,115.93 647.85,116.29 648.60,116.66 649.35,117.03 650.10,117.39 650.85,117.76 651.60,118.12 652.35,118.48 653.10,118.84 653.85,119.21 654.60,119.57 655.35,119.93 656.11,120.29 656.86,120.64 657.61,121.00 658.36,121.36 659.11,121.71 659.86,122.07 660.61,122.42 661.36,122.78 662.11,123.13 662.86,123.48 663.61,123.83 664.36,124.18 665.11,124.53 665.87,124.88 666.62,125.22 667.37,125.57 668.12,125.91 668.87,126.25 669.62,126.60 670.37,126.94 671.12,127.28 671.87,127.62 672.62,127.95 673.37,128.29 674.12,128.63 674.87,128.96 675.62,129.30 676.38,129.63 677.13,129.96 677.88,130.29 678.63,130.62 679.38,130.94 680.13,131.27 680.88,131.60 681.63,131.92 682.38,132.24 683.13,132.56 683.88,132.88 684.63,133.20 685.38,133.52 686.13,133.84 686.89,134.15 687.64,134.46 688.39,134.77 689.14,135.09 689.89,135.39 690.64,135.70 691.39,136.01 692.14,136.31 692.89,136.62 693.64,136.92 694.39,137.22 695.14,137.52 695.89,137.82 696.65,138.11 697.40,138.41 698.15,138.70 698.90,138.99 699.65,139.28 700.40,139.57 701.15,139.86 701.90,140.14 702.65,140.43 703.40,140.71 704.15,140.99 704.90,141.27 705.65,141.55 706.40,141.82 707.16,142.10 707.91,142.37 708.66,142.64 709.41,142.91 710.16,143.18 710.91,143.44 711.66,143.71 712.41,143.97 713.16,144.23 713.91,144.49 714.66,144.75 715.41,145.00 716.16,145.26 716.91,145.51 717.67,145.76 718.42,146.01 719.17,146.26 719.92,146.50 720.67,146.74 721.42,146.99 722.17,147.22 722.92,147.46 723.67,147.70 724.42,147.93 725.17,148.16 725.92,148.39 726.67,148.62 727.43,148.85 728.18,149.07 728.93,149.30 729.68,149.52 730.43,149.74 731.18,149.95 731.93,150.17 732.68,150.38 733.43,150.59 734.18,150.80 734.93,151.01 735.68,151.21 736.43,151.41 737.18,151.62 737.94,151.82 738.69,152.01 739.44,152.21 740.19,152.40 740.94,152.59 741.69,152.78 742.44,152.97 743.19,153.15 743.94,153.33 744.69,153.51 745.44,153.69 746.19,153.87 746.94,154.04 747.70,154.22 748.45,154.39 749.20,154.55 749.95,154.72 750.70,154.88 751.45,155.05 752.20,155.21 752.95,155.36 753.70,155.52 754.45,155.67 755.20,155.82 755.95,155.97 756.70,156.12 757.45,156.26 758.21,156.41 758.96,156.55 759.71,156.68 760.46,156.82 761.21,156.95 761.96,157.08 762.71,157.21 763.46,157.34 764.21,157.46 764.96,157.59 765.71,157.71 766.46,157.83 767.21,157.94 767.96,158.05 768.72,158.17 769.47,158.27 770.22,158.38 770.97,158.49 771.72,158.59 772.47,158.69 773.22,158.79 773.97,158.88 774.72,158.97 775.47,159.07 776.22,159.15 776.97,159.24 777.72,159.32 778.48,159.41 779.23,159.49 779.98,159.56 780.73,159.64 781.48,159.71 782.23,159.78 782.98,159.85 783.73,159.91 784.48,159.98 785.23,160.04 785.98,160.10 786.73,160.15 787.48,160.21 788.23,160.26 788.99,160.31 789.74,160.35 790.49,160.40 791.24,160.44 791.99,160.48 792.74,160.52 793.49,160.55 794.24,160.59 794.99,160.62 795.74,160.64 796.49,160.67 797.24,160.69 797.99,160.72 798.74,160.73 799.50,160.75 800.25,160.76 801.00,160.78 801.75,160.79 802.50,160.79 803.25,160.80 804.00,160.80" />
  <text x="420.0" y="22" text-anchor="middle" font-family="Arial, Helvetica, sans-serif" font-size="15" fill="#102a43">general_hamming_0p70 window (time domain)</text>
  <text x="420.0" y="272" text-anchor="middle" font-family="Arial, Helvetica, sans-serif" font-size="12" fill="#334e68">normalized sample index</text>
  <text x="14" y="140.0" transform="rotate(-90 14,140.0)" text-anchor="middle" font-family="Arial, Helvetica, sans-serif" font-size="12" fill="#334e68">amplitude</text>
  <text x="36" y="262" font-family="Arial, Helvetica, sans-serif" font-size="11" fill="#486581">0</text>
  <text x="804" y="262" text-anchor="end" font-family="Arial, Helvetica, sans-serif" font-size="11" fill="#486581">1</text>
  <text x="30" y="40" text-anchor="end" font-family="Arial, Helvetica, sans-serif" font-size="11" fill="#486581">1.0</text>
  <text x="30" y="248" text-anchor="end" font-family="Arial, Helvetica, sans-serif" font-size="11" fill="#486581">0.0</text>
</svg>
