<svg xmlns="http://www.w3.org/2000/svg" width="840" height="280" viewBox="0 0 840 280">
  <rect x="0" y="0" width="840" height="280" fill="#ffffff" />
  <rect x="36" y="36" width="768" height="208" fill="#f7fbff" stroke="#c8d9e6" />
  <polyline fill="none" stroke="#005f73" stroke-width="2" points="36.00,244.00 36.75,244.00 37.50,244.00 38.25,244.00 39.00,244.00 39.75,244.00 40.50,244.00 41.26,244.00 42.01,244.00 42.76,244.00 43.51,244.00 44.26,244.00 45.01,244.00 45.76,244.00 46.51,244.00 47.26,244.00 48.01,243.99 48.76,243.99 49.51,243.99 50.26,243.99 51.01,243.99 51.77,243.99 52.52,243.99 53.27,243.99 54.02,243.99 54.77,243.99 55.52,243.99 56.27,243.99 57.02,243.99 57.77,243.99 58.52,243.99 59.27,243.99 60.02,243.99 60.77,243.99 61.52,243.98 62.28,243.98 63.03,243.98 63.78,243.98 64.53,243.98 65.28,243.98 66.03,243.98 66.78,243.98 67.53,243.97 68.28,243.97 69.03,243.97 69.78,243.97 70.53,243.97 71.28,243.97 72.04,243.96 72.79,243.96 73.54,243.96 74.29,243.96 75.04,243.96 75.79,243.95 76.54,243.95 77.29,243.95 78.04,243.94 78.79,243.94 79.54,243.94 80.29,243.94 81.04,243.93 81.79,243.93 82.55,243.92 83.30,243.92 84.05,243.92 84.80,243.91 85.55,243.91 86.30,243.90 87.05,243.90 87.80,243.89 88.55,243.89 89.30,243.88 90.05,243.87 90.80,243.87 91.55,243.86 92.30,243.85 93.06,243.84 93.81,243.84 94.56,243.83 95.31,243.82 96.06,243.81 96.81,243.80 97.56,243.79 98.31,243.78 99.06,243.77 99.81,243.76 100.56,243.75 101.31,243.74 102.06,243.72 102.82,243.71 103.57,243.70 104.32,243.68 105.07,243.67 105.82,243.65 106.57,243.63 107.32,243.62 108.07,243.60 108.82,243.58 109.57,243.56 110.32,243.54 111.07,243.52 111.82,243.50 112.57,243.48 113.33,243.45 114.08,243.43 114.83,243.40 115.58,243.38 116.33,243.35 117.08,243.32 117.83,243.29 118.58,243.26 119.33,243.23 120.08,243.20 120.83,243.16 121.58,243.13 122.33,243.09 123.09,243.05 123.84,243.01 124.59,242.97 125.34,242.93 126.09,242.89 126.84,242.84 127.59,242.80 128.34,242.75 129.09,242.70 129.84,242.64 130.59,242.59 131.34,242.54 132.09,242.48 132.84,242.42 133.60,242.36 134.35,242.29 135.10,242.23 135.85,242.16 136.60,242.09 137.35,242.02 138.10,241.94 138.85,241.87 139.60,241.79 140.35,241.70 141.10,241.62 141.85,241.53 142.60,241.44 143.35,241.35 144.11,241.25 144.86,241.16 145.61,241.05 146.36,240.95 147.11,240.84 147.86,240.73 148.61,240.62 149.36,240.50 150.11,240.38 150.86,240.26 151.61,240.13 152.36,240.00 153.11,239.86 153.87,239.72 154.62,239.58 155.37,239.44 156.12,239.29 156.87,239.13 157.62,238.97 158.37,238.81 159.12,238.64 159.87,238.47 160.62,238.30 161.37,238.12 162.12,237.93 162.87,237.74 163.62,237.55 164.38,237.35 165.13,237.14 165.88,236.94 166.63,236.72 167.38,236.50 168.13,236.28 168.88,236.05 169.63,235.81 170.38,235.57 171.13,235.32 171.88,235.07 172.63,234.81 173.38,234.55 174.13,234.28 174.89,234.01 175.64,233.72 176.39,233.44 177.14,233.14 177.89,232.84 178.64,232.54 179.39,232.22 180.14,231.90 180.89,231.58 181.64,231.24 182.39,230.90 183.14,230.56 183.89,230.21 184.65,229.84 185.40,229.48 186.15,229.10 186.90,228.72 187.65,228.33 188.40,227.94 189.15,227.53 189.90,227.12 190.65,226.70 191.40,226.28 192.15,225.85 192.90,225.40 193.65,224.96 194.40,224.50 195.16,224.03 195.91,223.56 196.66,223.08 197.41,222.59 198.16,222.10 198.91,221.59 199.66,221.08 200.41,220.56 201.16,220.03 201.91,219.50 202.66,218.95 203.41,218.40 204.16,217.84 204.91,217.27 205.67,216.69 206.42,216.10 207.17,215.51 207.92,214.91 208.67,214.29 209.42,213.67 210.17,213.05 210.92,212.41 211.67,211.76 212.42,211.11 213.17,210.45 213.92,209.78 214.67,209.10 215.43,208.41 216.18,207.72 216.93,207.01 217.68,206.30 218.43,205.58 219.18,204.85 219.93,204.12 220.68,203.37 221.43,202.62 222.18,201.86 222.93,201.09 223.68,200.31 224.43,199.53 225.18,198.73 225.94,197.93 226.69,197.12 227.44,196.31 228.19,195.48 228.94,194.65 229.69,193.81 230.44,192.96 231.19,192.11 231.94,191.24 232.69,190.38 233.44,189.50 234.19,188.61 234.94,187.72 235.70,186.83 236.45,185.92 237.20,185.01 237.95,184.09 238.70,183.17 239.45,182.24 240.20,181.30 240.95,180.35 241.70,179.40 242.45,178.45 243.20,177.49 243.95,176.52 244.70,175.54 245.45,174.56 246.21,173.58 246.96,172.59 247.71,171.59 248.46,170.59 249.21,169.59 249.96,168.58 250.71,167.56 251.46,166.55 252.21,165.52 252.96,164.49 253.71,163.46 254.46,162.43 255.21,161.39 255.96,160.34 256.72,159.30 257.47,158.25 258.22,157.19 258.97,156.14 259.72,155.08 260.47,154.02 261.22,152.95 261.97,151.89 262.72,150.82 263.47,149.75 264.22,148.67 264.97,147.60 265.72,146.52 266.48,145.44 267.23,144.36 267.98,143.28 268.73,142.20 269.48,141.12 270.23,140.04 270.98,138.95 271.73,137.87 272.48,136.79 273.23,135.70 273.98,134.62 274.73,133.54 275.48,132.46 276.23,131.38 276.99,130.29 277.74,129.22 278.49,128.14 279.24,127.06 279.99,125.99 280.74,124.91 281.49,123.84 282.24,122.77 282.99,121.70 283.74,120.64 284.49,119.58 285.24,118.52 285.99,117.46 286.74,116.40 287.50,115.35 288.25,114.31 289.00,113.26 289.75,112.22 290.50,111.19 291.25,110.15 292.00,109.12 292.75,108.10 293.50,107.08 294.25,106.06 295.00,105.05 295.75,104.05 296.50,103.05 297.26,102.05 298.01,101.06 298.76,100.07 299.51,99.09 300.26,98.12 301.01,97.15 301.76,96.19 302.51,95.23 303.26,94.28 304.01,93.33 304.76,92.39 305.51,91.46 306.26,90.54 307.01,89.62 307.77,88.70 308.52,87.80 309.27,86.90 310.02,86.01 310.77,85.12 311.52,84.25 312.27,83.38 313.02,82.51 313.77,81.66 314.52,80.81 315.27,79.97 316.02,79.14 316.77,78.31 317.52,77.50 318.28,76.69 319.03,75.89 319.78,75.09 320.53,74.31 321.28,73.53 322.03,72.76 322.78,72.00 323.53,71.25 324.28,70.51 325.03,69.77 325.78,69.05 326.53,68.33 327.28,67.62 328.04,66.92 328.79,66.23 329.54,65.54 330.29,64.87 331.04,64.20 331.79,63.55 332.54,62.90 333.29,62.26 334.04,61.63 334.79,61.00 335.54,60.39 336.29,59.78 337.04,59.19 337.79,58.60 338.55,58.02 339.30,57.45 340.05,56.89 340.80,56.34 341.55,55.80 342.30,55.26 343.05,54.74 343.80,54.22 344.55,53.71 345.30,53.21 346.05,52.72 346.80,52.24 347.55,51.76 348.30,51.30 349.06,50.84 349.81,50.39 350.56,49.95 351.31,49.52 352.06,49.10 352.81,48.68 353.56,48.27 354.31,47.88 355.06,47.49 355.81,47.10 356.56,46.73 357.31,46.36 358.06,46.01 358.82,45.66 359.57,45.31 360.32,44.98 361.07,44.65 361.82,44.34 362.57,44.02 363.32,43.72 364.07,43.42 364.82,43.13 365.57,42.85 366.32,42.58 367.07,42.31 367.82,42.05 368.57,41.80 369.33,41.55 370.08,41.31 370.83,41.08 371.58,40.86 372.33,40.64 373.08,40.42 373.83,40.22 374.58,40.02 375.33,39.83 376.08,39.64 376.83,39.46 377.58,39.28 378.33,39.11 379.09,38.95 379.84,38.79 380.59,38.64 381.34,38.49 382.09,38.35 382.84,38.22 383.59,38.09 384.34,37.96 385.09,37.84 385.84,37.73 386.59,37.62 387.34,37.51 388.09,37.41 388.84,37.31 389.60,37.22 390.35,37.13 391.10,37.05 391.85,36.97 392.60,36.90 393.35,36.83 394.10,36.76 394.85,36.69 395.60,36.63 396.35,36.58 397.10,36.53 397.85,36.48 398.60,36.43 399.35,36.39 400.11,36.35 400.86,36.31 401.61,36.27 402.36,36.24 403.11,36.21 403.86,36.19 404.61,36.16 405.36,36.14 406.11,36.12 406.86,36.10 407.61,36.09 408.36,36.07 409.11,36.06 409.87,36.05 410.62,36.04 411.37,36.03 412.12,36.02 412.87,36.02 413.62,36.01 414.37,36.01 415.12,36.01 415.87,36.00 416.62,36.00 417.37,36.00 418.12,36.00 418.87,36.00 419.62,36.00 420.38,36.00 421.13,36.00 421.88,36.00 422.63,36.00 423.38,36.00 424.13,36.00 424.88,36.00 425.63,36.01 426.38,36.01 427.13,36.01 427.88,36.02 428.63,36.03 429.38,36.03 430.13,36.04 430.89,36.05 431.64,36.06 432.39,36.08 433.14,36.09 433.89,36.11 434.64,36.13 435.39,36.15 436.14,36.17 436.89,36.20 437.64,36.23 438.39,36.26 439.14,36.29 439.89,36.33 440.65,36.37 441.40,36.41 442.15,36.45 442.90,36.50 443.65,36.55 444.40,36.61 445.15,36.66 445.90,36.73 446.65,36.79 447.40,36.86 448.15,36.93 448.90,37.01 449.65,37.09 450.40,37.18 451.16,37.27 451.91,37.36 452.66,37.46 453.41,37.56 454.16,37.67 454.91,37.78 455.66,37.90 456.41,38.02 457.16,38.15 457.91,38.28 458.66,38.42 459.41,38.57 460.16,38.71 460.91,38.87 461.67,39.03 462.42,39.20 463.17,39.37 463.92,39.55 464.67,39.73 465.42,39.92 466.17,40.12 466.92,40.32 467.67,40.53 468.42,40.75 469.17,40.97 469.92,41.20 470.67,41.43 471.43,41.68 472.18,41.92 472.93,42.18 473.68,42.44 474.43,42.72 475.18,42.99 475.93,43.28 476.68,43.57 477.43,43.87 478.18,44.18 478.93,44.49 479.68,44.82 480.43,45.15 481.18,45.48 481.94,45.83 482.69,46.18 483.44,46.55 484.19,46.92 484.94,47.29 485.69,47.68 486.44,48.07 487.19,48.48 487.94,48.89 488.69,49.31 489.44,49.73 490.19,50.17 490.94,50.61 491.70,51.07 492.45,51.53 493.20,52.00 493.95,52.48 494.70,52.96 495.45,53.46 496.20,53.96 496.95,54.48 497.70,55.00 498.45,55.53 499.20,56.07 499.95,56.61 500.70,57.17 501.45,57.74 502.21,58.31 502.96,58.89 503.71,59.49 504.46,60.09 505.21,60.70 505.96,61.31 506.71,61.94 507.46,62.58 508.21,63.22 508.96,63.87 509.71,64.54 510.46,65.21 511.21,65.89 511.96,66.57 512.72,67.27 513.47,67.97 514.22,68.69 514.97,69.41 515.72,70.14 516.47,70.88 517.22,71.63 517.97,72.38 518.72,73.15 519.47,73.92 520.22,74.70 520.97,75.49 521.72,76.29 522.48,77.09 523.23,77.90 523.98,78.72 524.73,79.55 525.48,80.39 526.23,81.23 526.98,82.08 527.73,82.94 528.48,83.81 529.23,84.68 529.98,85.57 530.73,86.45 531.48,87.35 532.23,88.25 532.99,89.16 533.74,90.08 534.49,91.00 535.24,91.93 535.99,92.86 536.74,93.80 537.49,94.75 538.24,95.71 538.99,96.67 539.74,97.63 540.49,98.61 541.24,99.58 541.99,100.57 542.74,101.55 543.50,102.55 544.25,103.55 545.00,104.55 545.75,105.56 546.50,106.57 547.25,107.59 548.00,108.61 548.75,109.64 549.50,110.67 550.25,111.70 551.00,112.74 551.75,113.78 552.50,114.83 553.26,115.88 554.01,116.93 554.76,117.99 555.51,119.05 556.26,120.11 557.01,121.17 557.76,122.24 558.51,123.30 559.26,124.38 560.01,125.45 560.76,126.52 561.51,127.60 562.26,128.68 563.01,129.75 563.77,130.83 564.52,131.92 565.27,133.00 566.02,134.08 566.77,135.16 567.52,136.25 568.27,137.33 569.02,138.41 569.77,139.50 570.52,140.58 571.27,141.66 572.02,142.74 572.77,143.82 573.52,144.90 574.28,145.98 575.03,147.06 575.78,148.14 576.53,149.21 577.28,150.28 578.03,151.35 578.78,152.42 579.53,153.49 580.28,154.55 581.03,155.61 581.78,156.67 582.53,157.72 583.28,158.77 584.04,159.82 584.79,160.87 585.54,161.91 586.29,162.95 587.04,163.98 587.79,165.01 588.54,166.03 589.29,167.06 590.04,168.07 590.79,169.09 591.54,170.09 592.29,171.10 593.04,172.09 593.79,173.09 594.55,174.07 595.30,175.05 596.05,176.03 596.80,177.00 597.55,177.97 598.30,178.93 599.05,179.88 599.80,180.83 600.55,181.77 601.30,182.70 602.05,183.63 602.80,184.55 603.55,185.47 604.30,186.37 605.06,187.28 605.81,188.17 606.56,189.06 607.31,189.94 608.06,190.81 608.81,191.68 609.56,192.54 610.31,193.39 611.06,194.23 611.81,195.07 612.56,195.89 613.31,196.72 614.06,197.53 614.82,198.33 615.57,199.13 616.32,199.92 617.07,200.70 617.82,201.47 618.57,202.24 619.32,203.00 620.07,203.75 620.82,204.49 621.57,205.22 622.32,205.94 623.07,206.66 623.82,207.37 624.57,208.07 625.33,208.76 626.08,209.44 626.83,210.12 627.58,210.78 628.33,211.44 629.08,212.09 629.83,212.73 630.58,213.36 631.33,213.99 632.08,214.60 632.83,215.21 633.58,215.81 634.33,216.40 635.09,216.98 635.84,217.55 636.59,218.12 637.34,218.68 638.09,219.22 638.84,219.77 639.59,220.30 640.34,220.82 641.09,221.34 641.84,221.85 642.59,222.35 643.34,222.84 644.09,223.32 644.84,223.80 645.60,224.27 646.35,224.73 647.10,225.18 647.85,225.63 648.60,226.06 649.35,226.49 650.10,226.91 650.85,227.33 651.60,227.74 652.35,228.14 653.10,228.53 653.85,228.91 654.60,229.29 655.35,229.66 656.11,230.03 656.86,230.38 657.61,230.73 658.36,231.08 659.11,231.41 659.86,231.74 660.61,232.06 661.36,232.38 662.11,232.69 662.86,232.99 663.61,233.29 664.36,233.58 665.11,233.87 665.87,234.14 666.62,234.42 667.37,234.68 668.12,234.94 668.87,235.20 669.62,235.45 670.37,235.69 671.12,235.93 671.87,236.16 672.62,236.39 673.37,236.61 674.12,236.83 674.87,237.04 675.62,237.25 676.38,237.45 677.13,237.65 677.88,237.84 678.63,238.02 679.38,238.21 680.13,238.39 680.88,238.56 681.63,238.73 682.38,238.89 683.13,239.05 683.88,239.21 684.63,239.36 685.38,239.51 686.13,239.65 686.89,239.79 687.64,239.93 688.39,240.06 689.14,240.19 689.89,240.32 690.64,240.44 691.39,240.56 692.14,240.68 692.89,240.79 693.64,240.90 694.39,241.00 695.14,241.11 695.89,241.21 696.65,241.30 697.40,241.40 698.15,241.49 698.90,241.58 699.65,241.66 700.40,241.75 701.15,241.83 701.90,241.90 702.65,241.98 703.40,242.05 704.15,242.13 704.90,242.19 705.65,242.26 706.40,242.33 707.16,242.39 707.91,242.45 708.66,242.51 709.41,242.56 710.16,242.62 710.91,242.67 711.66,242.72 712.41,242.77 713.16,242.82 713.91,242.87 714.66,242.91 715.41,242.95 716.16,242.99 716.91,243.03 717.67,243.07 718.42,243.11 719.17,243.15 719.92,243.18 720.67,243.21 721.42,243.25 722.17,243.28 722.92,243.31 723.67,243.34 724.42,243.36 725.17,243.39 725.92,243.42 726.67,243.44 727.43,243.47 728.18,243.49 728.93,243.51 729.68,243.53 730.43,243.55 731.18,243.57 731.93,243.59 732.68,243.61 733.43,243.63 734.18,243.64 734.93,243.66 735.68,243.67 736.43,243.69 737.18,243.70 737.94,243.72 738.69,243.73 739.44,243.74 740.19,243.75 740.94,243.77 741.69,243.78 742.44,243.79 743.19,243.80 743.94,243.81 744.69,243.82 745.44,243.82 746.19,243.83 746.94,243.84 747.70,243.85 748.45,243.86 749.20,243.86 749.95,243.87 750.70,243.88 751.45,243.88 752.20,243.89 752.95,243.89 753.70,243.90 754.45,243.90 755.20,243.91 755.95,243.91 756.70,243.92 757.45,243.92 758.21,243.93 758.96,243.93 759.71,243.93 760.46,243.94 761.21,243.94 761.96,243.94 762.71,243.95 763.46,243.95 764.21,243.95 764.96,243.95 765.71,243.96 766.46,243.96 767.21,243.96 767.96,243.96 768.72,243.97 769.47,243.97 770.22,243.97 770.97,243.97 771.72,243.97 772.47,243.97 773.22,243.98 773.97,243.98 774.72,243.98 775.47,243.98 776.22,243.98 776.97,243.98 777.72,243.98 778.48,243.98 779.23,243.98 779.98,243.99 780.73,243.99 781.48,243.99 782.23,243.99 782.98,243.99 783.73,243.99 784.48,243.99 785.23,243.99 785.98,243.99 786.73,243.99 787.48,243.99 788.23,243.99 788.99,243.99 789.74,243.99 790.49,243.99 791.24,243.99 791.99,243.99 792.74,243.99 793.49,244.00 794.24,244.00 794.99,244.00 795.74,244.00 796.49,244.00 797.24,244.00 797.99,244.00 798.74,244.00 799.50,244.00 800.25,244.00 801.00,244.00 801.75,244.00 802.50,244.00 803.25,244.00 804.00,244.00" />
  <text x="420.0" y="22" text-anchor="middle" font-family="Arial, Helvetica, sans-serif" font-size="15" fill="#102a43">general_gaussian_1p5_0p35 window (time domain)</text>
  <text x="420.0" y="272" text-anchor="middle" font-family="Arial, Helvetica, sans-serif" font-size="12" fill="#334e68">normalized sample index</text>
  <text x="14" y="140.0" transform="rotate(-90 14,140.0)" text-anchor="middle" font-family="Arial, Helvetica, sans-serif" font-size="12" fill="#334e68">amplitude</text>
  <text x="36" y="262" font-family="Arial, Helvetica, sans-serif" font-size="11" fill="#486581">0</text>
  <text x="804" y="262" text-anchor="end" font-family="Arial, Helvetica, sans-serif" font-size="11" fill="#486581">1</text>
  <text x="30" y="40" text-anchor="end" font-family="Arial, Helvetica, sans-serif" font-size="11" fill="#486581">1.0</text>
  <text x="30" y="248" text-anchor="end" font-family="Arial, Helvetica, sans-serif" font-size="11" fill="#486581">0.0</text>
</svg>
