<svg xmlns="http://www.w3.org/2000/svg" width="840" height="280" viewBox="0 0 840 280">
  <rect x="0" y="0" width="840" height="280" fill="#ffffff" />
  <rect x="36" y="36" width="768" height="208" fill="#f7fbff" stroke="#c8d9e6" />
  <polyline fill="none" stroke="#005f73" stroke-width="2" points="36.00,36.00 36.75,40.20 37.50,55.98 38.25,69.96 39.00,74.10 39.75,99.06 40.50,141.22 41.26,117.34 42.01,122.29 42.76,128.59 43.51,133.20 44.26,137.53 45.01,141.39 45.76,145.09 46.51,148.33 47.26,151.58 48.01,154.39 48.76,157.29 49.51,159.67 50.26,162.34 51.01,164.40 51.77,166.89 52.52,168.67 53.27,171.03 54.02,172.56 54.77,174.83 55.52,176.13 56.27,178.35 57.02,179.44 57.77,181.62 58.52,182.51 59.27,184.67 60.02,185.46 60.77,187.50 61.52,188.16 62.28,190.19 63.03,190.71 63.78,192.73 64.53,193.11 65.28,195.15 66.03,195.39 66.78,197.44 67.53,197.56 68.28,199.63 69.03,199.62 69.78,201.72 70.53,201.60 71.28,203.72 72.04,203.72 72.79,205.40 73.54,205.55 74.29,207.20 75.04,207.32 75.79,208.94 76.54,209.03 77.29,210.60 78.04,210.68 78.79,212.20 79.54,212.28 80.29,213.74 81.04,213.83 81.79,215.22 82.55,215.33 83.30,216.65 84.05,217.34 84.80,217.47 85.55,218.82 86.30,218.75 87.05,220.27 87.80,219.98 88.55,221.69 89.30,221.16 90.05,223.09 90.80,222.30 91.55,224.46 92.30,223.39 93.06,225.82 93.81,224.45 94.56,227.16 95.31,225.46 96.06,229.75 96.81,225.50 97.56,231.19 98.31,226.39 99.06,232.64 99.81,227.24 100.56,234.10 101.31,228.05 102.06,235.57 102.82,228.83 103.57,237.07 104.32,229.58 105.07,238.59 105.82,230.30 106.57,240.15 107.32,231.00 108.07,244.00 108.82,230.44 109.57,244.00 110.32,231.04 111.07,244.00 111.82,231.61 112.57,244.00 113.33,232.15 114.08,244.00 114.83,232.68 115.58,244.00 116.33,233.18 117.08,244.00 117.83,233.66 118.58,244.00 119.33,234.13 120.08,244.00 120.83,233.24 121.58,244.00 122.33,233.64 123.09,244.00 123.84,234.03 124.59,244.00 125.34,234.40 126.09,244.00 126.84,234.76 127.59,244.00 128.34,235.10 129.09,244.00 129.84,235.44 130.59,244.00 131.34,235.76 132.09,244.00 132.84,234.75 133.60,244.00 134.35,235.03 135.10,244.00 135.85,235.31 136.60,243.96 137.35,235.58 138.10,243.78 138.85,235.84 139.60,243.63 140.35,236.09 141.10,243.50 141.85,236.33 142.60,243.39 143.35,236.57 144.11,241.16 144.86,235.56 145.61,241.12 146.36,235.77 147.11,241.09 147.86,235.98 148.61,241.07 149.36,236.19 150.11,241.06 150.86,236.39 151.61,241.05 152.36,236.58 153.11,241.05 153.87,236.77 154.62,241.06 155.37,236.95 156.12,239.49 156.87,236.00 157.62,239.52 158.37,236.17 159.12,239.56 159.87,236.34 160.62,239.60 161.37,236.51 162.12,239.64 162.87,236.67 163.62,239.69 164.38,236.83 165.13,239.74 165.88,236.98 166.63,239.79 167.38,237.13 168.13,238.56 168.88,236.26 169.63,238.62 170.38,236.40 171.13,238.69 171.88,236.54 172.63,238.75 173.38,236.68 174.13,238.82 174.89,236.82 175.64,238.88 176.39,236.95 177.14,238.95 177.89,237.09 178.64,239.02 179.39,237.22 180.14,238.01 180.89,236.42 181.64,238.08 182.39,236.54 183.14,238.15 183.89,236.67 184.65,238.23 185.40,236.79 186.15,238.30 186.90,236.91 187.65,238.37 188.40,237.02 189.15,238.45 189.90,237.14 190.65,238.52 191.40,237.25 192.15,237.66 192.90,236.53 193.65,237.74 194.40,236.64 195.16,237.82 195.91,236.75 196.66,237.89 197.41,236.86 198.16,237.97 198.91,236.97 199.66,238.05 200.41,237.07 201.16,238.12 201.91,237.18 202.66,238.20 203.41,237.28 204.16,237.46 204.91,236.63 205.67,237.53 206.42,236.73 207.17,237.61 207.92,236.83 208.67,237.68 209.42,236.92 210.17,237.76 210.92,237.02 211.67,237.83 212.42,237.11 213.17,237.91 213.92,237.21 214.67,237.98 215.43,237.30 216.18,237.33 216.93,236.71 217.68,237.41 218.43,236.80 219.18,237.48 219.93,236.89 220.68,237.56 221.43,236.98 222.18,237.63 222.93,237.07 223.68,237.70 224.43,237.16 225.18,237.78 225.94,237.25 226.69,237.85 227.44,237.33 228.19,237.27 228.94,236.80 229.69,237.35 230.44,236.88 231.19,237.42 231.94,236.97 232.69,237.49 233.44,237.05 234.19,237.56 234.94,237.13 235.70,237.63 236.45,237.21 237.20,237.70 237.95,237.29 238.70,237.77 239.45,237.37 240.20,237.26 240.95,236.89 241.70,237.33 242.45,236.97 243.20,237.40 243.95,237.05 244.70,237.47 245.45,237.13 246.21,237.54 246.96,237.20 247.71,237.60 248.46,237.28 249.21,237.67 249.96,237.35 250.71,237.74 251.46,237.43 252.21,237.28 252.96,236.99 253.71,237.35 254.46,237.07 255.21,237.41 255.96,237.14 256.72,237.48 257.47,237.21 258.22,237.55 258.97,237.28 259.72,237.61 260.47,237.35 261.22,237.67 261.97,237.42 262.72,237.74 263.47,237.49 264.22,237.33 264.97,237.10 265.72,237.40 266.48,237.17 267.23,237.46 267.98,237.24 268.73,237.52 269.48,237.31 270.23,237.58 270.98,237.37 271.73,237.65 272.48,237.44 273.23,237.71 273.98,237.51 274.73,237.77 275.48,237.57 276.23,237.41 276.99,237.22 277.74,237.47 278.49,237.29 279.24,237.53 279.99,237.35 280.74,237.59 281.49,237.41 282.24,237.65 282.99,237.48 283.74,237.71 284.49,237.54 285.24,237.76 285.99,237.60 286.74,237.82 287.50,237.66 288.25,237.50 289.00,237.35 289.75,237.56 290.50,237.41 291.25,237.62 292.00,237.47 292.75,237.67 293.50,237.53 294.25,237.73 295.00,237.59 295.75,237.79 296.50,237.65 297.26,237.84 298.01,237.71 298.76,237.90 299.51,237.77 300.26,237.62 301.01,237.49 301.76,237.67 302.51,237.55 303.26,237.72 304.01,237.61 304.76,237.78 305.51,237.66 306.26,237.83 307.01,237.72 307.77,237.89 308.52,237.78 309.27,237.94 310.02,237.83 310.77,237.99 311.52,237.89 312.27,237.74 313.02,237.64 313.77,237.80 314.52,237.70 315.27,237.85 316.02,237.75 316.77,237.90 317.52,237.81 318.28,237.95 319.03,237.86 319.78,238.00 320.53,237.91 321.28,238.05 322.03,237.96 322.78,238.10 323.53,238.02 324.28,237.89 325.03,237.81 325.78,237.94 326.53,237.86 327.28,237.99 328.04,237.91 328.79,238.04 329.54,237.96 330.29,238.09 331.04,238.01 331.79,238.14 332.54,238.06 333.29,238.18 334.04,238.11 334.79,238.23 335.54,238.16 336.29,238.05 337.04,237.98 337.79,238.10 338.55,238.03 339.30,238.14 340.05,238.08 340.80,238.19 341.55,238.13 342.30,238.24 343.05,238.17 343.80,238.28 344.55,238.22 345.30,238.33 346.05,238.27 346.80,238.38 347.55,238.32 348.30,238.22 349.06,238.17 349.81,238.27 350.56,238.21 351.31,238.31 352.06,238.26 352.81,238.36 353.56,238.30 354.31,238.40 355.06,238.35 355.81,238.45 356.56,238.39 357.31,238.49 358.06,238.44 358.82,238.54 359.57,238.48 360.32,238.41 361.07,238.36 361.82,238.46 362.57,238.41 363.32,238.50 364.07,238.45 364.82,238.54 365.57,238.49 366.32,238.58 367.07,238.54 367.82,238.63 368.57,238.58 369.33,238.67 370.08,238.62 370.83,238.71 371.58,238.67 372.33,238.61 373.08,238.57 373.83,238.66 374.58,238.61 375.33,238.70 376.08,238.66 376.83,238.74 377.58,238.70 378.33,238.78 379.09,238.74 379.84,238.82 380.59,238.78 381.34,238.86 382.09,238.82 382.84,238.90 383.59,238.86 384.34,238.83 385.09,238.79 385.84,238.87 386.59,238.83 387.34,238.91 388.09,238.87 388.84,238.95 389.60,238.91 390.35,238.99 391.10,238.95 391.85,239.02 392.60,238.99 393.35,239.06 394.10,239.03 394.85,239.10 395.60,239.07 396.35,239.06 397.10,239.03 397.85,239.10 398.60,239.07 399.35,239.13 400.11,239.10 400.86,239.17 401.61,239.14 402.36,239.21 403.11,239.18 403.86,239.24 404.61,239.22 405.36,239.28 406.11,239.25 406.86,239.32 407.61,239.29 408.36,239.30 409.11,239.28 409.87,239.34 410.62,239.31 411.37,239.37 412.12,239.35 412.87,239.41 413.62,239.38 414.37,239.44 415.12,239.42 415.87,239.48 416.62,239.46 417.37,239.51 418.12,239.49 418.87,239.55 419.62,239.53 420.38,239.56 421.13,239.54 421.88,239.59 422.63,239.57 423.38,239.63 424.13,239.61 424.88,239.66 425.63,239.64 426.38,239.70 427.13,239.67 427.88,239.73 428.63,239.71 429.38,239.76 430.13,239.74 430.89,239.79 431.64,239.77 432.39,239.83 433.14,239.81 433.89,239.86 434.64,239.85 435.39,239.90 436.14,239.88 436.89,239.93 437.64,239.91 438.39,239.96 439.14,239.94 439.89,239.99 440.65,239.98 441.40,240.03 442.15,240.01 442.90,240.06 443.65,240.04 444.40,240.12 445.15,240.10 445.90,240.15 446.65,240.14 447.40,240.18 448.15,240.17 448.90,240.21 449.65,240.20 450.40,240.24 451.16,240.23 451.91,240.27 452.66,240.26 453.41,240.30 454.16,240.29 454.91,240.33 455.66,240.32 456.41,240.42 457.16,240.41 457.91,240.45 458.66,240.44 459.41,240.48 460.16,240.47 460.91,240.51 461.67,240.50 462.42,240.54 463.17,240.53 463.92,240.57 464.67,240.56 465.42,240.60 466.17,240.59 466.92,240.63 467.67,240.62 468.42,240.75 469.17,240.73 469.92,240.77 470.67,240.76 471.43,240.80 472.18,240.79 472.93,240.83 473.68,240.82 474.43,240.86 475.18,240.85 475.93,240.89 476.68,240.87 477.43,240.91 478.18,240.90 478.93,240.94 479.68,240.93 480.43,241.08 481.18,241.07 481.94,241.11 482.69,241.10 483.44,241.14 484.19,241.13 484.94,241.16 485.69,241.15 486.44,241.19 487.19,241.18 487.94,241.22 488.69,241.21 489.44,241.24 490.19,241.23 490.94,241.27 491.70,241.26 492.45,241.44 493.20,241.43 493.95,241.47 494.70,241.46 495.45,241.49 496.20,241.48 496.95,241.52 497.70,241.51 498.45,241.54 499.20,241.53 499.95,241.57 500.70,241.56 501.45,241.59 502.21,241.58 502.96,241.62 503.71,241.61 504.46,241.82 505.21,241.81 505.96,241.84 506.71,241.83 507.46,241.87 508.21,241.86 508.96,241.89 509.71,241.88 510.46,241.92 511.21,241.91 511.96,241.94 512.72,241.93 513.47,241.96 514.22,241.95 514.97,241.99 515.72,241.98 516.47,242.22 517.22,242.21 517.97,242.24 518.72,242.23 519.47,242.26 520.22,242.26 520.97,242.29 521.72,242.28 522.48,242.31 523.23,242.30 523.98,242.33 524.73,242.32 525.48,242.35 526.23,242.35 526.98,242.38 527.73,242.37 528.48,242.64 529.23,242.63 529.98,242.66 530.73,242.65 531.48,242.68 532.23,242.67 532.99,242.70 533.74,242.70 534.49,242.72 535.24,242.72 535.99,242.75 536.74,242.74 537.49,242.77 538.24,242.76 538.99,242.79 539.74,242.78 540.49,243.08 541.24,243.08 541.99,243.10 542.74,243.10 543.50,243.12 544.25,243.12 545.00,243.14 545.75,243.14 546.50,243.17 547.25,243.16 548.00,243.19 548.75,243.18 549.50,243.21 550.25,243.20 551.00,243.23 551.75,243.22 552.50,243.55 553.26,243.55 554.01,243.57 554.76,243.57 555.51,243.59 556.26,243.59 557.01,243.61 557.76,243.61 558.51,243.63 559.26,243.63 560.01,243.65 560.76,243.65 561.51,243.67 562.26,243.66 563.01,243.69 563.77,243.68 564.52,244.00 565.27,244.00 566.02,244.00 566.77,244.00 567.52,244.00 568.27,244.00 569.02,244.00 569.77,244.00 570.52,244.00 571.27,244.00 572.02,244.00 572.77,244.00 573.52,244.00 574.28,244.00 575.03,244.00 575.78,244.00 576.53,244.00 577.28,244.00 578.03,244.00 578.78,244.00 579.53,244.00 580.28,244.00 581.03,244.00 581.78,244.00 582.53,244.00 583.28,244.00 584.04,244.00 584.79,244.00 585.54,244.00 586.29,244.00 587.04,244.00 587.79,244.00 588.54,244.00 589.29,244.00 590.04,244.00 590.79,244.00 591.54,244.00 592.29,244.00 593.04,244.00 593.79,244.00 594.55,244.00 595.30,244.00 596.05,244.00 596.80,244.00 597.55,244.00 598.30,244.00 599.05,244.00 599.80,244.00 600.55,244.00 601.30,244.00 602.05,244.00 602.80,244.00 603.55,244.00 604.30,244.00 605.06,244.00 605.81,244.00 606.56,244.00 607.31,244.00 608.06,244.00 608.81,244.00 609.56,244.00 610.31,244.00 611.06,244.00 611.81,244.00 612.56,244.00 613.31,244.00 614.06,244.00 614.82,244.00 615.57,244.00 616.32,244.00 617.07,244.00 617.82,244.00 618.57,244.00 619.32,244.00 620.07,244.00 620.82,244.00 621.57,244.00 622.32,244.00 623.07,244.00 623.82,244.00 624.57,244.00 625.33,244.00 626.08,244.00 626.83,244.00 627.58,244.00 628.33,244.00 629.08,244.00 629.83,244.00 630.58,244.00 631.33,244.00 632.08,244.00 632.83,244.00 633.58,244.00 634.33,244.00 635.09,244.00 635.84,244.00 636.59,244.00 637.34,244.00 638.09,244.00 638.84,244.00 639.59,244.00 640.34,244.00 641.09,244.00 641.84,244.00 642.59,244.00 643.34,244.00 644.09,244.00 644.84,244.00 645.60,244.00 646.35,244.00 647.10,244.00 647.85,244.00 648.60,244.00 649.35,244.00 650.10,244.00 650.85,244.00 651.60,244.00 652.35,244.00 653.10,244.00 653.85,244.00 654.60,244.00 655.35,244.00 656.11,244.00 656.86,244.00 657.61,244.00 658.36,244.00 659.11,244.00 659.86,244.00 660.61,244.00 661.36,244.00 662.11,244.00 662.86,244.00 663.61,244.00 664.36,244.00 665.11,244.00 665.87,244.00 666.62,244.00 667.37,244.00 668.12,244.00 668.87,244.00 669.62,244.00 670.37,244.00 671.12,244.00 671.87,244.00 672.62,244.00 673.37,244.00 674.12,244.00 674.87,244.00 675.62,244.00 676.38,244.00 677.13,244.00 677.88,244.00 678.63,244.00 679.38,244.00 680.13,244.00 680.88,244.00 681.63,244.00 682.38,244.00 683.13,244.00 683.88,244.00 684.63,244.00 685.38,244.00 686.13,244.00 686.89,244.00 687.64,244.00 688.39,244.00 689.14,244.00 689.89,244.00 690.64,244.00 691.39,244.00 692.14,244.00 692.89,244.00 693.64,244.00 694.39,244.00 695.14,244.00 695.89,244.00 696.65,244.00 697.40,244.00 698.15,244.00 698.90,244.00 699.65,244.00 700.40,244.00 701.15,244.00 701.90,244.00 702.65,244.00 703.40,244.00 704.15,244.00 704.90,244.00 705.65,244.00 706.40,244.00 707.16,244.00 707.91,244.00 708.66,244.00 709.41,244.00 710.16,244.00 710.91,244.00 711.66,244.00 712.41,244.00 713.16,244.00 713.91,244.00 714.66,244.00 715.41,244.00 716.16,244.00 716.91,244.00 717.67,244.00 718.42,244.00 719.17,244.00 719.92,244.00 720.67,244.00 721.42,244.00 722.17,244.00 722.92,244.00 723.67,244.00 724.42,244.00 725.17,244.00 725.92,244.00 726.67,244.00 727.43,244.00 728.18,244.00 728.93,244.00 729.68,244.00 730.43,244.00 731.18,244.00 731.93,244.00 732.68,244.00 733.43,244.00 734.18,244.00 734.93,244.00 735.68,244.00 736.43,244.00 737.18,244.00 737.94,244.00 738.69,244.00 739.44,244.00 740.19,244.00 740.94,244.00 741.69,244.00 742.44,244.00 743.19,244.00 743.94,244.00 744.69,244.00 745.44,244.00 746.19,244.00 746.94,244.00 747.70,244.00 748.45,244.00 749.20,244.00 749.95,244.00 750.70,244.00 751.45,244.00 752.20,244.00 752.95,244.00 753.70,244.00 754.45,244.00 755.20,244.00 755.95,244.00 756.70,244.00 757.45,244.00 758.21,244.00 758.96,244.00 759.71,244.00 760.46,244.00 761.21,244.00 761.96,244.00 762.71,244.00 763.46,244.00 764.21,244.00 764.96,244.00 765.71,244.00 766.46,244.00 767.21,244.00 767.96,244.00 768.72,244.00 769.47,244.00 770.22,244.00 770.97,244.00 771.72,244.00 772.47,244.00 773.22,244.00 773.97,244.00 774.72,244.00 775.47,244.00 776.22,244.00 776.97,244.00 777.72,244.00 778.48,244.00 779.23,244.00 779.98,244.00 780.73,244.00 781.48,244.00 782.23,244.00 782.98,244.00 783.73,244.00 784.48,244.00 785.23,244.00 785.98,244.00 786.73,244.00 787.48,244.00 788.23,244.00 788.99,244.00 789.74,244.00 790.49,244.00 791.24,244.00 791.99,244.00 792.74,244.00 793.49,244.00 794.24,244.00 794.99,244.00 795.74,244.00 796.49,244.00 797.24,244.00 797.99,244.00 798.74,244.00 799.50,244.00 800.25,244.00 801.00,244.00 801.75,244.00 802.50,244.00 803.25,244.00 804.00,244.00" />
  <text x="420.0" y="22" text-anchor="middle" font-family="Arial, Helvetica, sans-serif" font-size="15" fill="#102a43">general_gaussian_1p5_0p35 window (magnitude spectrum)</text>
  <text x="420.0" y="272" text-anchor="middle" font-family="Arial, Helvetica, sans-serif" font-size="12" fill="#334e68">normalized frequency</text>
  <text x="14" y="140.0" transform="rotate(-90 14,140.0)" text-anchor="middle" font-family="Arial, Helvetica, sans-serif" font-size="12" fill="#334e68">magnitude (dB)</text>
  <text x="36" y="262" font-family="Arial, Helvetica, sans-serif" font-size="11" fill="#486581">0</text>
  <text x="804" y="262" text-anchor="end" font-family="Arial, Helvetica, sans-serif" font-size="11" fill="#486581">1</text>
  <text x="30" y="40" text-anchor="end" font-family="Arial, Helvetica, sans-serif" font-size="11" fill="#486581">0.0</text>
  <text x="30" y="248" text-anchor="end" font-family="Arial, Helvetica, sans-serif" font-size="11" fill="#486581">-160.0</text>
</svg>
