<svg xmlns="http://www.w3.org/2000/svg" width="840" height="280" viewBox="0 0 840 280">
  <rect x="0" y="0" width="840" height="280" fill="#ffffff" />
  <rect x="36" y="36" width="768" height="208" fill="#f7fbff" stroke="#c8d9e6" />
  <polyline fill="none" stroke="#005f73" stroke-width="2" points="36.00,36.00 36.75,53.39 37.50,144.05 38.25,155.13 39.00,162.23 39.75,167.53 40.50,171.79 41.26,175.36 42.01,178.43 42.76,181.13 43.51,183.54 44.26,185.71 45.01,187.69 45.76,189.51 46.51,191.19 47.26,192.76 48.01,120.62 48.76,121.30 49.51,121.94 50.26,122.55 51.01,123.12 51.77,123.67 52.52,124.20 53.27,124.70 54.02,125.18 54.77,125.64 55.52,126.08 56.27,126.50 57.02,126.91 57.77,127.31 58.52,127.69 59.27,128.06 60.02,120.61 60.77,120.96 61.52,121.30 62.28,121.62 63.03,121.94 63.78,122.25 64.53,122.55 65.28,122.84 66.03,123.13 66.78,123.40 67.53,123.68 68.28,123.94 69.03,124.20 69.78,124.45 70.53,124.70 71.28,124.94 72.04,120.63 72.79,120.86 73.54,121.09 74.29,121.31 75.04,121.53 75.79,121.74 76.54,121.95 77.29,122.16 78.04,122.36 78.79,122.56 79.54,122.76 80.29,122.95 81.04,123.14 81.79,123.32 82.55,123.51 83.30,123.69 84.05,120.65 84.80,120.83 85.55,121.00 86.30,121.17 87.05,121.33 87.80,121.50 88.55,121.66 89.30,121.82 90.05,121.97 90.80,122.13 91.55,122.28 92.30,122.43 93.06,122.58 93.81,122.73 94.56,122.87 95.31,123.02 96.06,120.68 96.81,120.82 97.56,120.96 98.31,121.09 99.06,121.23 99.81,121.36 100.56,121.49 101.31,121.62 102.06,121.75 102.82,121.88 103.57,122.00 104.32,122.13 105.07,122.25 105.82,122.37 106.57,122.49 107.32,122.61 108.07,120.72 108.82,120.83 109.57,120.95 110.32,121.06 111.07,121.18 111.82,121.29 112.57,121.40 113.33,121.51 114.08,121.61 114.83,121.72 115.58,121.83 116.33,121.93 117.08,122.04 117.83,122.14 118.58,122.24 119.33,122.34 120.08,120.76 120.83,120.86 121.58,120.96 122.33,121.06 123.09,121.15 123.84,121.25 124.59,121.35 125.34,121.44 126.09,121.53 126.84,121.63 127.59,121.72 128.34,121.81 129.09,121.90 129.84,121.99 130.59,122.08 131.34,122.17 132.09,120.81 132.84,120.90 133.60,120.99 134.35,121.07 135.10,121.16 135.85,121.24 136.60,121.32 137.35,121.41 138.10,121.49 138.85,121.57 139.60,121.65 140.35,121.73 141.10,121.81 141.85,121.89 142.60,121.97 143.35,122.05 144.11,120.87 144.86,120.95 145.61,121.03 146.36,121.10 147.11,121.18 147.86,121.25 148.61,121.33 149.36,121.40 150.11,121.47 150.86,121.55 151.61,121.62 152.36,121.69 153.11,121.76 153.87,121.83 154.62,121.90 155.37,121.97 156.12,120.94 156.87,121.01 157.62,121.08 158.37,121.14 159.12,121.21 159.87,121.28 160.62,121.35 161.37,121.41 162.12,121.48 162.87,121.54 163.62,121.61 164.38,121.67 165.13,121.74 165.88,121.80 166.63,121.86 167.38,121.93 168.13,121.01 168.88,121.07 169.63,121.14 170.38,121.20 171.13,121.26 171.88,121.32 172.63,121.38 173.38,121.44 174.13,121.50 174.89,121.56 175.64,121.62 176.39,121.68 177.14,121.74 177.89,121.79 178.64,121.85 179.39,121.91 180.14,121.09 180.89,121.15 181.64,121.21 182.39,121.26 183.14,121.32 183.89,121.37 184.65,121.43 185.40,121.48 186.15,121.54 186.90,121.59 187.65,121.65 188.40,121.70 189.15,121.75 189.90,121.81 190.65,121.86 191.40,121.91 192.15,121.18 192.90,121.23 193.65,121.28 194.40,121.34 195.16,121.39 195.91,121.44 196.66,121.49 197.41,121.54 198.16,121.59 198.91,121.64 199.66,121.69 200.41,121.74 201.16,121.79 201.91,121.84 202.66,121.89 203.41,121.94 204.16,121.28 204.91,121.32 205.67,121.37 206.42,121.42 207.17,121.47 207.92,121.51 208.67,121.56 209.42,121.61 210.17,121.65 210.92,121.70 211.67,121.75 212.42,121.79 213.17,121.84 213.92,121.88 214.67,121.93 215.43,121.98 216.18,121.38 216.93,121.42 217.68,121.47 218.43,121.51 219.18,121.56 219.93,121.60 220.68,121.64 221.43,121.69 222.18,121.73 222.93,121.77 223.68,121.82 224.43,121.86 225.18,121.90 225.94,121.94 226.69,121.99 227.44,122.03 228.19,121.49 228.94,121.53 229.69,121.57 230.44,121.61 231.19,121.65 231.94,121.70 232.69,121.74 233.44,121.78 234.19,121.82 234.94,121.86 235.70,121.90 236.45,121.94 237.20,121.98 237.95,122.02 238.70,122.06 239.45,122.10 240.20,121.61 240.95,121.65 241.70,121.69 242.45,121.72 243.20,121.76 243.95,121.80 244.70,121.84 245.45,121.88 246.21,121.91 246.96,121.95 247.71,121.99 248.46,122.03 249.21,122.06 249.96,122.10 250.71,122.14 251.46,122.18 252.21,121.73 252.96,121.77 253.71,121.81 254.46,121.84 255.21,121.88 255.96,121.92 256.72,121.95 257.47,121.99 258.22,122.02 258.97,122.06 259.72,122.09 260.47,122.13 261.22,122.16 261.97,122.20 262.72,122.23 263.47,122.27 264.22,121.87 264.97,121.90 265.72,121.94 266.48,121.97 267.23,122.01 267.98,122.04 268.73,122.07 269.48,122.11 270.23,122.14 270.98,122.17 271.73,122.21 272.48,122.24 273.23,122.27 273.98,122.31 274.73,122.34 275.48,122.37 276.23,122.01 276.99,122.05 277.74,122.08 278.49,122.11 279.24,122.14 279.99,122.17 280.74,122.21 281.49,122.24 282.24,122.27 282.99,122.30 283.74,122.33 284.49,122.36 285.24,122.39 285.99,122.42 286.74,122.46 287.50,122.49 288.25,122.17 289.00,122.20 289.75,122.23 290.50,122.26 291.25,122.29 292.00,122.32 292.75,122.35 293.50,122.38 294.25,122.41 295.00,122.44 295.75,122.47 296.50,122.50 297.26,122.52 298.01,122.55 298.76,122.58 299.51,122.61 300.26,122.33 301.01,122.36 301.76,122.38 302.51,122.41 303.26,122.44 304.01,122.47 304.76,122.50 305.51,122.53 306.26,122.56 307.01,122.58 307.77,122.61 308.52,122.64 309.27,122.67 310.02,122.69 310.77,122.72 311.52,122.75 312.27,122.50 313.02,122.53 313.77,122.55 314.52,122.58 315.27,122.61 316.02,122.63 316.77,122.66 317.52,122.69 318.28,122.71 319.03,122.74 319.78,122.77 320.53,122.79 321.28,122.82 322.03,122.85 322.78,122.87 323.53,122.90 324.28,122.68 325.03,122.70 325.78,122.73 326.53,122.76 327.28,122.78 328.04,122.81 328.79,122.83 329.54,122.86 330.29,122.88 331.04,122.91 331.79,122.93 332.54,122.96 333.29,122.98 334.04,123.01 334.79,123.03 335.54,123.06 336.29,122.87 337.04,122.89 337.79,122.92 338.55,122.94 339.30,122.97 340.05,122.99 340.80,123.01 341.55,123.04 342.30,123.06 343.05,123.09 343.80,123.11 344.55,123.13 345.30,123.16 346.05,123.18 346.80,123.20 347.55,123.23 348.30,123.07 349.06,123.09 349.81,123.11 350.56,123.14 351.31,123.16 352.06,123.18 352.81,123.21 353.56,123.23 354.31,123.25 355.06,123.28 355.81,123.30 356.56,123.32 357.31,123.34 358.06,123.37 358.82,123.39 359.57,123.41 360.32,123.28 361.07,123.30 361.82,123.32 362.57,123.35 363.32,123.37 364.07,123.39 364.82,123.41 365.57,123.43 366.32,123.45 367.07,123.48 367.82,123.50 368.57,123.52 369.33,123.54 370.08,123.56 370.83,123.58 371.58,123.60 372.33,123.50 373.08,123.52 373.83,123.54 374.58,123.56 375.33,123.58 376.08,123.61 376.83,123.63 377.58,123.65 378.33,123.67 379.09,123.69 379.84,123.71 380.59,123.73 381.34,123.75 382.09,123.77 382.84,123.79 383.59,123.81 384.34,123.73 385.09,123.75 385.84,123.77 386.59,123.79 387.34,123.81 388.09,123.83 388.84,123.85 389.60,123.87 390.35,123.89 391.10,123.91 391.85,123.93 392.60,123.95 393.35,123.97 394.10,123.99 394.85,124.01 395.60,124.03 396.35,123.98 397.10,124.00 397.85,124.02 398.60,124.04 399.35,124.05 400.11,124.07 400.86,124.09 401.61,124.11 402.36,124.13 403.11,124.15 403.86,124.17 404.61,124.19 405.36,124.20 406.11,124.22 406.86,124.24 407.61,124.26 408.36,124.24 409.11,124.25 409.87,124.27 410.62,124.29 411.37,124.31 412.12,124.33 412.87,124.34 413.62,124.36 414.37,124.38 415.12,124.40 415.87,124.42 416.62,124.43 417.37,124.45 418.12,124.47 418.87,124.49 419.62,124.50 420.38,124.51 421.13,124.52 421.88,124.54 422.63,124.56 423.38,124.58 424.13,124.59 424.88,124.61 425.63,124.63 426.38,124.64 427.13,124.66 427.88,124.68 428.63,124.69 429.38,124.71 430.13,124.73 430.89,124.74 431.64,124.76 432.39,124.79 433.14,124.81 433.89,124.82 434.64,124.84 435.39,124.86 436.14,124.87 436.89,124.89 437.64,124.90 438.39,124.92 439.14,124.94 439.89,124.95 440.65,124.97 441.40,124.98 442.15,125.00 442.90,125.02 443.65,125.03 444.40,125.09 445.15,125.10 445.90,125.12 446.65,125.14 447.40,125.15 448.15,125.17 448.90,125.18 449.65,125.20 450.40,125.21 451.16,125.23 451.91,125.24 452.66,125.26 453.41,125.27 454.16,125.29 454.91,125.30 455.66,125.32 456.41,125.40 457.16,125.42 457.91,125.43 458.66,125.45 459.41,125.46 460.16,125.48 460.91,125.49 461.67,125.51 462.42,125.52 463.17,125.53 463.92,125.55 464.67,125.56 465.42,125.58 466.17,125.59 466.92,125.61 467.67,125.62 468.42,125.73 469.17,125.75 469.92,125.76 470.67,125.77 471.43,125.79 472.18,125.80 472.93,125.82 473.68,125.83 474.43,125.84 475.18,125.86 475.93,125.87 476.68,125.88 477.43,125.90 478.18,125.91 478.93,125.93 479.68,125.94 480.43,126.08 481.18,126.09 481.94,126.10 482.69,126.12 483.44,126.13 484.19,126.14 484.94,126.16 485.69,126.17 486.44,126.18 487.19,126.20 487.94,126.21 488.69,126.22 489.44,126.24 490.19,126.25 490.94,126.26 491.70,126.27 492.45,126.44 493.20,126.45 493.95,126.47 494.70,126.48 495.45,126.49 496.20,126.50 496.95,126.52 497.70,126.53 498.45,126.54 499.20,126.56 499.95,126.57 500.70,126.58 501.45,126.59 502.21,126.60 502.96,126.62 503.71,126.63 504.46,126.82 505.21,126.84 505.96,126.85 506.71,126.86 507.46,126.87 508.21,126.89 508.96,126.90 509.71,126.91 510.46,126.92 511.21,126.93 511.96,126.94 512.72,126.96 513.47,126.97 514.22,126.98 514.97,126.99 515.72,127.00 516.47,127.23 517.22,127.24 517.97,127.25 518.72,127.26 519.47,127.27 520.22,127.29 520.97,127.30 521.72,127.31 522.48,127.32 523.23,127.33 523.98,127.34 524.73,127.35 525.48,127.36 526.23,127.38 526.98,127.39 527.73,127.40 528.48,127.65 529.23,127.67 529.98,127.68 530.73,127.69 531.48,127.70 532.23,127.71 532.99,127.72 533.74,127.73 534.49,127.74 535.24,127.75 535.99,127.76 536.74,127.77 537.49,127.78 538.24,127.79 538.99,127.80 539.74,127.81 540.49,128.10 541.24,128.11 541.99,128.12 542.74,128.13 543.50,128.15 544.25,128.16 545.00,128.17 545.75,128.18 546.50,128.19 547.25,128.20 548.00,128.21 548.75,128.22 549.50,128.23 550.25,128.24 551.00,128.25 551.75,128.26 552.50,128.58 553.26,128.59 554.01,128.60 554.76,128.61 555.51,128.62 556.26,128.63 557.01,128.64 557.76,128.65 558.51,128.66 559.26,128.67 560.01,128.68 560.76,128.68 561.51,128.69 562.26,128.70 563.01,128.71 563.77,128.72 564.52,129.08 565.27,129.09 566.02,129.10 566.77,129.11 567.52,129.12 568.27,129.13 569.02,129.14 569.77,129.15 570.52,129.16 571.27,129.16 572.02,129.17 572.77,129.18 573.52,129.19 574.28,129.20 575.03,129.21 575.78,129.22 576.53,129.62 577.28,129.63 578.03,129.63 578.78,129.64 579.53,129.65 580.28,129.66 581.03,129.67 581.78,129.68 582.53,129.69 583.28,129.69 584.04,129.70 584.79,129.71 585.54,129.72 586.29,129.73 587.04,129.74 587.79,129.74 588.54,130.18 589.29,130.19 590.04,130.20 590.79,130.21 591.54,130.22 592.29,130.22 593.04,130.23 593.79,130.24 594.55,130.25 595.30,130.26 596.05,130.26 596.80,130.27 597.55,130.28 598.30,130.29 599.05,130.30 599.80,130.30 600.55,130.79 601.30,130.80 602.05,130.80 602.80,130.81 603.55,130.82 604.30,130.83 605.06,130.83 605.81,130.84 606.56,130.85 607.31,130.86 608.06,130.86 608.81,130.87 609.56,130.88 610.31,130.89 611.06,130.89 611.81,130.90 612.56,131.44 613.31,131.44 614.06,131.45 614.82,131.46 615.57,131.46 616.32,131.47 617.07,131.48 617.82,131.49 618.57,131.49 619.32,131.50 620.07,131.51 620.82,131.51 621.57,131.52 622.32,131.53 623.07,131.53 623.82,131.54 624.57,132.13 625.33,132.14 626.08,132.14 626.83,132.15 627.58,132.16 628.33,132.16 629.08,132.17 629.83,132.17 630.58,132.18 631.33,132.19 632.08,132.19 632.83,132.20 633.58,132.21 634.33,132.21 635.09,132.22 635.84,132.23 636.59,132.87 637.34,132.88 638.09,132.89 638.84,132.89 639.59,132.90 640.34,132.91 641.09,132.91 641.84,132.92 642.59,132.92 643.34,132.93 644.09,132.93 644.84,132.94 645.60,132.95 646.35,132.95 647.10,132.96 647.85,132.96 648.60,133.68 649.35,133.69 650.10,133.69 650.85,133.70 651.60,133.70 652.35,133.71 653.10,133.71 653.85,133.72 654.60,133.72 655.35,133.73 656.11,133.74 656.86,133.74 657.61,133.75 658.36,133.75 659.11,133.76 659.86,133.76 660.61,134.56 661.36,134.56 662.11,134.57 662.86,134.57 663.61,134.58 664.36,134.58 665.11,134.59 665.87,134.59 666.62,134.60 667.37,134.60 668.12,134.61 668.87,134.61 669.62,134.62 670.37,134.62 671.12,134.63 671.87,134.63 672.62,135.51 673.37,135.52 674.12,135.52 674.87,135.53 675.62,135.53 676.38,135.53 677.13,135.54 677.88,135.54 678.63,135.55 679.38,135.55 680.13,135.56 680.88,135.56 681.63,135.57 682.38,135.57 683.13,135.58 683.88,135.58 684.63,136.56 685.38,136.57 686.13,136.57 686.89,136.58 687.64,136.58 688.39,136.58 689.14,136.59 689.89,136.59 690.64,136.60 691.39,136.60 692.14,136.60 692.89,136.61 693.64,136.61 694.39,136.62 695.14,136.62 695.89,136.62 696.65,137.73 697.40,137.73 698.15,137.74 698.90,137.74 699.65,137.75 700.40,137.75 701.15,137.75 701.90,137.76 702.65,137.76 703.40,137.76 704.15,137.77 704.90,137.77 705.65,137.78 706.40,137.78 707.16,137.78 707.91,137.79 708.66,139.04 709.41,139.04 710.16,139.05 710.91,139.05 711.66,139.05 712.41,139.06 713.16,139.06 713.91,139.06 714.66,139.07 715.41,139.07 716.16,139.07 716.91,139.08 717.67,139.08 718.42,139.08 719.17,139.09 719.92,139.09 720.67,140.53 721.42,140.53 722.17,140.54 722.92,140.54 723.67,140.54 724.42,140.55 725.17,140.55 725.92,140.55 726.67,140.55 727.43,140.56 728.18,140.56 728.93,140.56 729.68,140.57 730.43,140.57 731.18,140.57 731.93,140.57 732.68,142.26 733.43,142.26 734.18,142.26 734.93,142.26 735.68,142.27 736.43,142.27 737.18,142.27 737.94,142.27 738.69,142.28 739.44,142.28 740.19,142.28 740.94,142.28 741.69,142.29 742.44,142.29 743.19,142.29 743.94,142.29 744.69,144.30 745.44,144.31 746.19,144.31 746.94,144.31 747.70,144.31 748.45,144.31 749.20,144.32 749.95,144.32 750.70,144.32 751.45,144.32 752.20,144.32 752.95,144.32 753.70,144.33 754.45,144.33 755.20,144.33 755.95,144.33 756.70,146.81 757.45,146.81 758.21,146.82 758.96,146.82 759.71,146.82 760.46,146.82 761.21,146.82 761.96,146.82 762.71,146.82 763.46,146.83 764.21,146.83 764.96,146.83 765.71,146.83 766.46,146.83 767.21,146.83 767.96,146.83 768.72,150.05 769.47,150.05 770.22,150.05 770.97,150.06 771.72,150.06 772.47,150.06 773.22,150.06 773.97,150.06 774.72,150.06 775.47,150.06 776.22,150.06 776.97,150.06 777.72,150.07 778.48,150.07 779.23,150.07 779.98,150.07 780.73,154.62 781.48,154.63 782.23,154.63 782.98,154.63 783.73,154.63 784.48,154.63 785.23,154.63 785.98,154.63 786.73,154.63 787.48,154.63 788.23,154.63 788.99,154.63 789.74,154.63 790.49,154.63 791.24,154.63 791.99,154.63 792.74,162.45 793.49,162.45 794.24,162.45 794.99,162.45 795.74,162.45 796.49,162.45 797.24,162.45 797.99,162.45 798.74,162.45 799.50,162.45 800.25,162.45 801.00,162.45 801.75,162.45 802.50,162.45 803.25,162.45 804.00,244.00" />
  <text x="420.0" y="22" text-anchor="middle" font-family="Arial, Helvetica, sans-serif" font-size="15" fill="#102a43">general_hamming_0p70 window (magnitude spectrum)</text>
  <text x="420.0" y="272" text-anchor="middle" font-family="Arial, Helvetica, sans-serif" font-size="12" fill="#334e68">normalized frequency</text>
  <text x="14" y="140.0" transform="rotate(-90 14,140.0)" text-anchor="middle" font-family="Arial, Helvetica, sans-serif" font-size="12" fill="#334e68">magnitude (dB)</text>
  <text x="36" y="262" font-family="Arial, Helvetica, sans-serif" font-size="11" fill="#486581">0</text>
  <text x="804" y="262" text-anchor="end" font-family="Arial, Helvetica, sans-serif" font-size="11" fill="#486581">1</text>
  <text x="30" y="40" text-anchor="end" font-family="Arial, Helvetica, sans-serif" font-size="11" fill="#486581">0.0</text>
  <text x="30" y="248" text-anchor="end" font-family="Arial, Helvetica, sans-serif" font-size="11" fill="#486581">-160.0</text>
</svg>
