<svg xmlns="http://www.w3.org/2000/svg" width="840" height="280" viewBox="0 0 840 280">
  <rect x="0" y="0" width="840" height="280" fill="#ffffff" />
  <rect x="36" y="36" width="768" height="208" fill="#f7fbff" stroke="#c8d9e6" />
  <polyline fill="none" stroke="#005f73" stroke-width="2" points="36.00,119.20 36.75,119.20 37.50,119.20 38.25,119.19 39.00,119.19 39.75,119.18 40.50,119.17 41.26,119.16 42.01,119.15 42.76,119.14 43.51,119.12 44.26,119.11 45.01,119.09 45.76,119.07 46.51,119.05 47.26,119.02 48.01,119.00 48.76,118.97 49.51,118.95 50.26,118.92 51.01,118.89 51.77,118.85 52.52,118.82 53.27,118.79 54.02,118.75 54.77,118.71 55.52,118.67 56.27,118.63 57.02,118.59 57.77,118.54 58.52,118.50 59.27,118.45 60.02,118.40 60.77,118.35 61.52,118.30 62.28,118.24 63.03,118.19 63.78,118.13 64.53,118.07 65.28,118.01 66.03,117.95 66.78,117.89 67.53,117.82 68.28,117.76 69.03,117.69 69.78,117.62 70.53,117.55 71.28,117.48 72.04,117.41 72.79,117.33 73.54,117.26 74.29,117.18 75.04,117.10 75.79,117.02 76.54,116.94 77.29,116.85 78.04,116.77 78.79,116.68 79.54,116.59 80.29,116.50 81.04,116.41 81.79,116.32 82.55,116.22 83.30,116.13 84.05,116.03 84.80,115.93 85.55,115.83 86.30,115.73 87.05,115.63 87.80,115.52 88.55,115.42 89.30,115.31 90.05,115.20 90.80,115.09 91.55,114.98 92.30,114.87 93.06,114.75 93.81,114.64 94.56,114.52 95.31,114.40 96.06,114.28 96.81,114.16 97.56,114.04 98.31,113.92 99.06,113.79 99.81,113.66 100.56,113.54 101.31,113.41 102.06,113.28 102.82,113.14 103.57,113.01 104.32,112.88 105.07,112.74 105.82,112.60 106.57,112.46 107.32,112.32 108.07,112.18 108.82,112.04 109.57,111.90 110.32,111.75 111.07,111.60 111.82,111.46 112.57,111.31 113.33,111.16 114.08,111.01 114.83,110.85 115.58,110.70 116.33,110.54 117.08,110.39 117.83,110.23 118.58,110.07 119.33,109.91 120.08,109.75 120.83,109.59 121.58,109.42 122.33,109.26 123.09,109.09 123.84,108.92 124.59,108.75 125.34,108.58 126.09,108.41 126.84,108.24 127.59,108.07 128.34,107.89 129.09,107.72 129.84,107.54 130.59,107.36 131.34,107.18 132.09,107.00 132.84,106.82 133.60,106.64 134.35,106.46 135.10,106.27 135.85,106.09 136.60,105.90 137.35,105.71 138.10,105.52 138.85,105.33 139.60,105.14 140.35,104.95 141.10,104.76 141.85,104.56 142.60,104.37 143.35,104.17 144.11,103.98 144.86,103.78 145.61,103.58 146.36,103.38 147.11,103.18 147.86,102.98 148.61,102.77 149.36,102.57 150.11,102.37 150.86,102.16 151.61,101.95 152.36,101.75 153.11,101.54 153.87,101.33 154.62,101.12 155.37,100.91 156.12,100.70 156.87,100.48 157.62,100.27 158.37,100.05 159.12,99.84 159.87,99.62 160.62,99.41 161.37,99.19 162.12,98.97 162.87,98.75 163.62,98.53 164.38,98.31 165.13,98.09 165.88,97.86 166.63,97.64 167.38,97.42 168.13,97.19 168.88,96.97 169.63,96.74 170.38,96.51 171.13,96.28 171.88,96.06 172.63,95.83 173.38,95.60 174.13,95.37 174.89,95.13 175.64,94.90 176.39,94.67 177.14,94.44 177.89,94.20 178.64,93.97 179.39,93.73 180.14,93.50 180.89,93.26 181.64,93.02 182.39,92.79 183.14,92.55 183.89,92.31 184.65,92.07 185.40,91.83 186.15,91.59 186.90,91.35 187.65,91.11 188.40,90.87 189.15,90.63 189.90,90.38 190.65,90.14 191.40,89.90 192.15,89.65 192.90,89.41 193.65,89.16 194.40,88.92 195.16,88.67 195.91,88.42 196.66,88.18 197.41,87.93 198.16,87.68 198.91,87.43 199.66,87.19 200.41,86.94 201.16,86.69 201.91,86.44 202.66,86.19 203.41,85.94 204.16,85.69 204.91,85.44 205.67,85.19 206.42,84.94 207.17,84.68 207.92,84.43 208.67,84.18 209.42,83.93 210.17,83.68 210.92,83.42 211.67,83.17 212.42,82.92 213.17,82.66 213.92,82.41 214.67,82.16 215.43,81.90 216.18,81.65 216.93,81.39 217.68,81.14 218.43,80.88 219.18,80.63 219.93,80.38 220.68,80.12 221.43,79.87 222.18,79.61 222.93,79.36 223.68,79.10 224.43,78.84 225.18,78.59 225.94,78.33 226.69,78.08 227.44,77.82 228.19,77.57 228.94,77.31 229.69,77.06 230.44,76.80 231.19,76.55 231.94,76.29 232.69,76.04 233.44,75.78 234.19,75.53 234.94,75.27 235.70,75.02 236.45,74.76 237.20,74.51 237.95,74.25 238.70,74.00 239.45,73.74 240.20,73.49 240.95,73.23 241.70,72.98 242.45,72.73 243.20,72.47 243.95,72.22 244.70,71.97 245.45,71.71 246.21,71.46 246.96,71.21 247.71,70.96 248.46,70.70 249.21,70.45 249.96,70.20 250.71,69.95 251.46,69.70 252.21,69.45 252.96,69.20 253.71,68.95 254.46,68.70 255.21,68.45 255.96,68.20 256.72,67.95 257.47,67.70 258.22,67.46 258.97,67.21 259.72,66.96 260.47,66.71 261.22,66.47 261.97,66.22 262.72,65.98 263.47,65.73 264.22,65.49 264.97,65.24 265.72,65.00 266.48,64.76 267.23,64.51 267.98,64.27 268.73,64.03 269.48,63.79 270.23,63.55 270.98,63.31 271.73,63.07 272.48,62.83 273.23,62.59 273.98,62.35 274.73,62.12 275.48,61.88 276.23,61.64 276.99,61.41 277.74,61.17 278.49,60.94 279.24,60.71 279.99,60.47 280.74,60.24 281.49,60.01 282.24,59.78 282.99,59.55 283.74,59.32 284.49,59.09 285.24,58.86 285.99,58.63 286.74,58.40 287.50,58.18 288.25,57.95 289.00,57.73 289.75,57.50 290.50,57.28 291.25,57.06 292.00,56.84 292.75,56.62 293.50,56.40 294.25,56.18 295.00,55.96 295.75,55.74 296.50,55.52 297.26,55.31 298.01,55.09 298.76,54.88 299.51,54.66 300.26,54.45 301.01,54.24 301.76,54.03 302.51,53.82 303.26,53.61 304.01,53.40 304.76,53.19 305.51,52.99 306.26,52.78 307.01,52.58 307.77,52.37 308.52,52.17 309.27,51.97 310.02,51.77 310.77,51.57 311.52,51.37 312.27,51.17 313.02,50.98 313.77,50.78 314.52,50.59 315.27,50.39 316.02,50.20 316.77,50.01 317.52,49.82 318.28,49.63 319.03,49.44 319.78,49.25 320.53,49.07 321.28,48.88 322.03,48.70 322.78,48.51 323.53,48.33 324.28,48.15 325.03,47.97 325.78,47.79 326.53,47.61 327.28,47.44 328.04,47.26 328.79,47.09 329.54,46.92 330.29,46.74 331.04,46.57 331.79,46.40 332.54,46.24 333.29,46.07 334.04,45.90 334.79,45.74 335.54,45.57 336.29,45.41 337.04,45.25 337.79,45.09 338.55,44.93 339.30,44.77 340.05,44.62 340.80,44.46 341.55,44.31 342.30,44.16 343.05,44.01 343.80,43.86 344.55,43.71 345.30,43.56 346.05,43.41 346.80,43.27 347.55,43.12 348.30,42.98 349.06,42.84 349.81,42.70 350.56,42.56 351.31,42.43 352.06,42.29 352.81,42.16 353.56,42.02 354.31,41.89 355.06,41.76 355.81,41.63 356.56,41.50 357.31,41.38 358.06,41.25 358.82,41.13 359.57,41.01 360.32,40.89 361.07,40.77 361.82,40.65 362.57,40.53 363.32,40.42 364.07,40.30 364.82,40.19 365.57,40.08 366.32,39.97 367.07,39.86 367.82,39.76 368.57,39.65 369.33,39.55 370.08,39.44 370.83,39.34 371.58,39.24 372.33,39.15 373.08,39.05 373.83,38.95 374.58,38.86 375.33,38.77 376.08,38.68 376.83,38.59 377.58,38.50 378.33,38.41 379.09,38.33 379.84,38.24 380.59,38.16 381.34,38.08 382.09,38.00 382.84,37.93 383.59,37.85 384.34,37.77 385.09,37.70 385.84,37.63 386.59,37.56 387.34,37.49 388.09,37.42 388.84,37.36 389.60,37.29 390.35,37.23 391.10,37.17 391.85,37.11 392.60,37.05 393.35,37.00 394.10,36.94 394.85,36.89 395.60,36.84 396.35,36.79 397.10,36.74 397.85,36.69 398.60,36.65 399.35,36.60 400.11,36.56 400.86,36.52 401.61,36.48 402.36,36.44 403.11,36.41 403.86,36.37 404.61,36.34 405.36,36.31 406.11,36.28 406.86,36.25 407.61,36.22 408.36,36.19 409.11,36.17 409.87,36.15 410.62,36.13 411.37,36.11 412.12,36.09 412.87,36.07 413.62,36.06 414.37,36.05 415.12,36.04 415.87,36.03 416.62,36.02 417.37,36.01 418.12,36.01 418.87,36.00 419.62,36.00 420.38,36.00 421.13,36.00 421.88,36.00 422.63,36.01 423.38,36.01 424.13,36.02 424.88,36.03 425.63,36.04 426.38,36.05 427.13,36.07 427.88,36.08 428.63,36.10 429.38,36.12 430.13,36.14 430.89,36.16 431.64,36.18 432.39,36.21 433.14,36.23 433.89,36.26 434.64,36.29 435.39,36.32 436.14,36.35 436.89,36.39 437.64,36.42 438.39,36.46 439.14,36.50 439.89,36.54 440.65,36.58 441.40,36.62 442.15,36.67 442.90,36.72 443.65,36.76 444.40,36.81 445.15,36.86 445.90,36.92 446.65,36.97 447.40,37.03 448.15,37.08 448.90,37.14 449.65,37.20 450.40,37.26 451.16,37.33 451.91,37.39 452.66,37.46 453.41,37.53 454.16,37.59 454.91,37.67 455.66,37.74 456.41,37.81 457.16,37.89 457.91,37.96 458.66,38.04 459.41,38.12 460.16,38.20 460.91,38.29 461.67,38.37 462.42,38.46 463.17,38.54 463.92,38.63 464.67,38.72 465.42,38.81 466.17,38.91 466.92,39.00 467.67,39.10 468.42,39.19 469.17,39.29 469.92,39.39 470.67,39.50 471.43,39.60 472.18,39.70 472.93,39.81 473.68,39.92 474.43,40.03 475.18,40.14 475.93,40.25 476.68,40.36 477.43,40.47 478.18,40.59 478.93,40.71 479.68,40.83 480.43,40.95 481.18,41.07 481.94,41.19 482.69,41.32 483.44,41.44 484.19,41.57 484.94,41.70 485.69,41.83 486.44,41.96 487.19,42.09 487.94,42.22 488.69,42.36 489.44,42.49 490.19,42.63 490.94,42.77 491.70,42.91 492.45,43.05 493.20,43.20 493.95,43.34 494.70,43.49 495.45,43.63 496.20,43.78 496.95,43.93 497.70,44.08 498.45,44.23 499.20,44.39 499.95,44.54 500.70,44.70 501.45,44.85 502.21,45.01 502.96,45.17 503.71,45.33 504.46,45.49 505.21,45.66 505.96,45.82 506.71,45.98 507.46,46.15 508.21,46.32 508.96,46.49 509.71,46.66 510.46,46.83 511.21,47.00 511.96,47.18 512.72,47.35 513.47,47.53 514.22,47.70 514.97,47.88 515.72,48.06 516.47,48.24 517.22,48.42 517.97,48.60 518.72,48.79 519.47,48.97 520.22,49.16 520.97,49.35 521.72,49.53 522.48,49.72 523.23,49.91 523.98,50.10 524.73,50.30 525.48,50.49 526.23,50.68 526.98,50.88 527.73,51.08 528.48,51.27 529.23,51.47 529.98,51.67 530.73,51.87 531.48,52.07 532.23,52.27 532.99,52.48 533.74,52.68 534.49,52.89 535.24,53.09 535.99,53.30 536.74,53.51 537.49,53.71 538.24,53.92 538.99,54.13 539.74,54.35 540.49,54.56 541.24,54.77 541.99,54.98 542.74,55.20 543.50,55.42 544.25,55.63 545.00,55.85 545.75,56.07 546.50,56.29 547.25,56.51 548.00,56.73 548.75,56.95 549.50,57.17 550.25,57.39 551.00,57.62 551.75,57.84 552.50,58.07 553.26,58.29 554.01,58.52 554.76,58.75 555.51,58.97 556.26,59.20 557.01,59.43 557.76,59.66 558.51,59.89 559.26,60.12 560.01,60.36 560.76,60.59 561.51,60.82 562.26,61.06 563.01,61.29 563.77,61.53 564.52,61.76 565.27,62.00 566.02,62.23 566.77,62.47 567.52,62.71 568.27,62.95 569.02,63.19 569.77,63.43 570.52,63.67 571.27,63.91 572.02,64.15 572.77,64.39 573.52,64.64 574.28,64.88 575.03,65.12 575.78,65.37 576.53,65.61 577.28,65.85 578.03,66.10 578.78,66.35 579.53,66.59 580.28,66.84 581.03,67.09 581.78,67.33 582.53,67.58 583.28,67.83 584.04,68.08 584.79,68.33 585.54,68.57 586.29,68.82 587.04,69.07 587.79,69.32 588.54,69.57 589.29,69.83 590.04,70.08 590.79,70.33 591.54,70.58 592.29,70.83 593.04,71.08 593.79,71.34 594.55,71.59 595.30,71.84 596.05,72.09 596.80,72.35 597.55,72.60 598.30,72.85 599.05,73.11 599.80,73.36 600.55,73.62 601.30,73.87 602.05,74.12 602.80,74.38 603.55,74.63 604.30,74.89 605.06,75.14 605.81,75.40 606.56,75.65 607.31,75.91 608.06,76.16 608.81,76.42 609.56,76.67 610.31,76.93 611.06,77.19 611.81,77.44 612.56,77.70 613.31,77.95 614.06,78.21 614.82,78.46 615.57,78.72 616.32,78.97 617.07,79.23 617.82,79.48 618.57,79.74 619.32,79.99 620.07,80.25 620.82,80.50 621.57,80.76 622.32,81.01 623.07,81.27 623.82,81.52 624.57,81.77 625.33,82.03 626.08,82.28 626.83,82.54 627.58,82.79 628.33,83.04 629.08,83.30 629.83,83.55 630.58,83.80 631.33,84.05 632.08,84.31 632.83,84.56 633.58,84.81 634.33,85.06 635.09,85.31 635.84,85.56 636.59,85.81 637.34,86.06 638.09,86.31 638.84,86.56 639.59,86.81 640.34,87.06 641.09,87.31 641.84,87.56 642.59,87.81 643.34,88.05 644.09,88.30 644.84,88.55 645.60,88.79 646.35,89.04 647.10,89.28 647.85,89.53 648.60,89.77 649.35,90.02 650.10,90.26 650.85,90.50 651.60,90.75 652.35,90.99 653.10,91.23 653.85,91.47 654.60,91.71 655.35,91.95 656.11,92.19 656.86,92.43 657.61,92.67 658.36,92.91 659.11,93.14 659.86,93.38 660.61,93.62 661.36,93.85 662.11,94.09 662.86,94.32 663.61,94.55 664.36,94.79 665.11,95.02 665.87,95.25 666.62,95.48 667.37,95.71 668.12,95.94 668.87,96.17 669.62,96.40 670.37,96.63 671.12,96.85 671.87,97.08 672.62,97.30 673.37,97.53 674.12,97.75 674.87,97.97 675.62,98.20 676.38,98.42 677.13,98.64 677.88,98.86 678.63,99.08 679.38,99.30 680.13,99.51 680.88,99.73 681.63,99.95 682.38,100.16 683.13,100.38 683.88,100.59 684.63,100.80 685.38,101.01 686.13,101.22 686.89,101.43 687.64,101.64 688.39,101.85 689.14,102.06 689.89,102.26 690.64,102.47 691.39,102.67 692.14,102.88 692.89,103.08 693.64,103.28 694.39,103.48 695.14,103.68 695.89,103.88 696.65,104.08 697.40,104.27 698.15,104.47 698.90,104.66 699.65,104.86 700.40,105.05 701.15,105.24 701.90,105.43 702.65,105.62 703.40,105.81 704.15,105.99 704.90,106.18 705.65,106.37 706.40,106.55 707.16,106.73 707.91,106.91 708.66,107.09 709.41,107.27 710.16,107.45 710.91,107.63 711.66,107.81 712.41,107.98 713.16,108.15 713.91,108.33 714.66,108.50 715.41,108.67 716.16,108.84 716.91,109.01 717.67,109.17 718.42,109.34 719.17,109.50 719.92,109.67 720.67,109.83 721.42,109.99 722.17,110.15 722.92,110.31 723.67,110.47 724.42,110.62 725.17,110.78 725.92,110.93 726.67,111.08 727.43,111.23 728.18,111.38 728.93,111.53 729.68,111.68 730.43,111.82 731.18,111.97 731.93,112.11 732.68,112.25 733.43,112.39 734.18,112.53 734.93,112.67 735.68,112.81 736.43,112.94 737.18,113.08 737.94,113.21 738.69,113.34 739.44,113.47 740.19,113.60 740.94,113.73 741.69,113.85 742.44,113.98 743.19,114.10 743.94,114.22 744.69,114.34 745.44,114.46 746.19,114.58 746.94,114.70 747.70,114.81 748.45,114.92 749.20,115.04 749.95,115.15 750.70,115.26 751.45,115.36 752.20,115.47 752.95,115.58 753.70,115.68 754.45,115.78 755.20,115.88 755.95,115.98 756.70,116.08 757.45,116.18 758.21,116.27 758.96,116.36 759.71,116.46 760.46,116.55 761.21,116.64 761.96,116.72 762.71,116.81 763.46,116.89 764.21,116.98 764.96,117.06 765.71,117.14 766.46,117.22 767.21,117.29 767.96,117.37 768.72,117.44 769.47,117.52 770.22,117.59 770.97,117.66 771.72,117.73 772.47,117.79 773.22,117.86 773.97,117.92 774.72,117.98 775.47,118.04 776.22,118.10 776.97,118.16 777.72,118.22 778.48,118.27 779.23,118.32 779.98,118.37 780.73,118.42 781.48,118.47 782.23,118.52 782.98,118.56 783.73,118.61 784.48,118.65 785.23,118.69 785.98,118.73 786.73,118.77 787.48,118.80 788.23,118.84 788.99,118.87 789.74,118.90 790.49,118.93 791.24,118.96 791.99,118.99 792.74,119.01 793.49,119.04 794.24,119.06 794.99,119.08 795.74,119.10 796.49,119.11 797.24,119.13 797.99,119.14 798.74,119.16 799.50,119.17 800.25,119.18 801.00,119.18 801.75,119.19 802.50,119.20 803.25,119.20 804.00,119.20" />
  <text x="420.0" y="22" text-anchor="middle" font-family="Arial, Helvetica, sans-serif" font-size="15" fill="#102a43">general_hamming_0p80 window (time domain)</text>
  <text x="420.0" y="272" text-anchor="middle" font-family="Arial, Helvetica, sans-serif" font-size="12" fill="#334e68">normalized sample index</text>
  <text x="14" y="140.0" transform="rotate(-90 14,140.0)" text-anchor="middle" font-family="Arial, Helvetica, sans-serif" font-size="12" fill="#334e68">amplitude</text>
  <text x="36" y="262" font-family="Arial, Helvetica, sans-serif" font-size="11" fill="#486581">0</text>
  <text x="804" y="262" text-anchor="end" font-family="Arial, Helvetica, sans-serif" font-size="11" fill="#486581">1</text>
  <text x="30" y="40" text-anchor="end" font-family="Arial, Helvetica, sans-serif" font-size="11" fill="#486581">1.0</text>
  <text x="30" y="248" text-anchor="end" font-family="Arial, Helvetica, sans-serif" font-size="11" fill="#486581">0.0</text>
</svg>
