<svg xmlns="http://www.w3.org/2000/svg" width="840" height="280" viewBox="0 0 840 280">
  <rect x="0" y="0" width="840" height="280" fill="#ffffff" />
  <rect x="36" y="36" width="768" height="208" fill="#f7fbff" stroke="#c8d9e6" />
  <polyline fill="none" stroke="#005f73" stroke-width="2" points="36.00,244.00 36.75,244.00 37.50,244.00 38.25,244.00 39.00,244.00 39.75,244.00 40.50,244.00 41.26,244.00 42.01,244.00 42.76,244.00 43.51,244.00 44.26,244.00 45.01,244.00 45.76,244.00 46.51,244.00 47.26,244.00 48.01,244.00 48.76,244.00 49.51,244.00 50.26,244.00 51.01,244.00 51.77,244.00 52.52,244.00 53.27,244.00 54.02,244.00 54.77,244.00 55.52,244.00 56.27,244.00 57.02,244.00 57.77,244.00 58.52,244.00 59.27,244.00 60.02,244.00 60.77,244.00 61.52,244.00 62.28,244.00 63.03,244.00 63.78,244.00 64.53,244.00 65.28,244.00 66.03,244.00 66.78,244.00 67.53,244.00 68.28,244.00 69.03,244.00 69.78,244.00 70.53,244.00 71.28,244.00 72.04,244.00 72.79,244.00 73.54,244.00 74.29,244.00 75.04,244.00 75.79,244.00 76.54,244.00 77.29,244.00 78.04,244.00 78.79,244.00 79.54,244.00 80.29,244.00 81.04,244.00 81.79,244.00 82.55,244.00 83.30,244.00 84.05,244.00 84.80,244.00 85.55,244.00 86.30,244.00 87.05,244.00 87.80,244.00 88.55,244.00 89.30,244.00 90.05,244.00 90.80,244.00 91.55,244.00 92.30,244.00 93.06,244.00 93.81,244.00 94.56,244.00 95.31,244.00 96.06,244.00 96.81,244.00 97.56,244.00 98.31,244.00 99.06,244.00 99.81,244.00 100.56,244.00 101.31,244.00 102.06,244.00 102.82,244.00 103.57,244.00 104.32,244.00 105.07,244.00 105.82,244.00 106.57,244.00 107.32,244.00 108.07,244.00 108.82,244.00 109.57,244.00 110.32,244.00 111.07,244.00 111.82,244.00 112.57,244.00 113.33,244.00 114.08,244.00 114.83,244.00 115.58,244.00 116.33,244.00 117.08,244.00 117.83,244.00 118.58,244.00 119.33,244.00 120.08,244.00 120.83,244.00 121.58,244.00 122.33,244.00 123.09,244.00 123.84,244.00 124.59,244.00 125.34,244.00 126.09,244.00 126.84,244.00 127.59,244.00 128.34,244.00 129.09,244.00 129.84,244.00 130.59,244.00 131.34,244.00 132.09,243.99 132.84,243.99 133.60,243.99 134.35,243.99 135.10,243.99 135.85,243.99 136.60,243.99 137.35,243.99 138.10,243.99 138.85,243.99 139.60,243.98 140.35,243.98 141.10,243.98 141.85,243.98 142.60,243.98 143.35,243.97 144.11,243.97 144.86,243.97 145.61,243.97 146.36,243.96 147.11,243.96 147.86,243.95 148.61,243.95 149.36,243.94 150.11,243.94 150.86,243.93 151.61,243.93 152.36,243.92 153.11,243.91 153.87,243.91 154.62,243.90 155.37,243.89 156.12,243.88 156.87,243.87 157.62,243.86 158.37,243.84 159.12,243.83 159.87,243.81 160.62,243.80 161.37,243.78 162.12,243.76 162.87,243.75 163.62,243.72 164.38,243.70 165.13,243.68 165.88,243.65 166.63,243.63 167.38,243.60 168.13,243.57 168.88,243.53 169.63,243.50 170.38,243.46 171.13,243.42 171.88,243.38 172.63,243.33 173.38,243.29 174.13,243.24 174.89,243.18 175.64,243.12 176.39,243.06 177.14,243.00 177.89,242.93 178.64,242.86 179.39,242.78 180.14,242.70 180.89,242.62 181.64,242.53 182.39,242.44 183.14,242.34 183.89,242.23 184.65,242.12 185.40,242.01 186.15,241.89 186.90,241.76 187.65,241.62 188.40,241.48 189.15,241.34 189.90,241.18 190.65,241.02 191.40,240.85 192.15,240.67 192.90,240.49 193.65,240.29 194.40,240.09 195.16,239.88 195.91,239.66 196.66,239.43 197.41,239.19 198.16,238.94 198.91,238.68 199.66,238.41 200.41,238.13 201.16,237.84 201.91,237.54 202.66,237.22 203.41,236.90 204.16,236.56 204.91,236.21 205.67,235.85 206.42,235.47 207.17,235.08 207.92,234.68 208.67,234.26 209.42,233.83 210.17,233.39 210.92,232.93 211.67,232.45 212.42,231.97 213.17,231.46 213.92,230.94 214.67,230.41 215.43,229.86 216.18,229.30 216.93,228.71 217.68,228.12 218.43,227.50 219.18,226.87 219.93,226.22 220.68,225.56 221.43,224.88 222.18,224.18 222.93,223.47 223.68,222.73 224.43,221.98 225.18,221.22 225.94,220.43 226.69,219.63 227.44,218.81 228.19,217.97 228.94,217.12 229.69,216.25 230.44,215.36 231.19,214.45 231.94,213.52 232.69,212.58 233.44,211.62 234.19,210.64 234.94,209.65 235.70,208.64 236.45,207.61 237.20,206.56 237.95,205.50 238.70,204.42 239.45,203.33 240.20,202.22 240.95,201.09 241.70,199.95 242.45,198.79 243.20,197.62 243.95,196.43 244.70,195.23 245.45,194.01 246.21,192.78 246.96,191.53 247.71,190.27 248.46,189.00 249.21,187.71 249.96,186.41 250.71,185.10 251.46,183.78 252.21,182.45 252.96,181.10 253.71,179.75 254.46,178.38 255.21,177.00 255.96,175.62 256.72,174.22 257.47,172.82 258.22,171.40 258.97,169.98 259.72,168.55 260.47,167.12 261.22,165.68 261.97,164.23 262.72,162.78 263.47,161.32 264.22,159.85 264.97,158.38 265.72,156.91 266.48,155.44 267.23,153.96 267.98,152.48 268.73,150.99 269.48,149.51 270.23,148.02 270.98,146.54 271.73,145.05 272.48,143.56 273.23,142.08 273.98,140.59 274.73,139.11 275.48,137.63 276.23,136.15 276.99,134.67 277.74,133.20 278.49,131.73 279.24,130.26 279.99,128.80 280.74,127.35 281.49,125.90 282.24,124.45 282.99,123.01 283.74,121.58 284.49,120.16 285.24,118.74 285.99,117.33 286.74,115.93 287.50,114.54 288.25,113.15 289.00,111.78 289.75,110.41 290.50,109.05 291.25,107.71 292.00,106.37 292.75,105.04 293.50,103.73 294.25,102.42 295.00,101.13 295.75,99.85 296.50,98.58 297.26,97.32 298.01,96.08 298.76,94.84 299.51,93.62 300.26,92.42 301.01,91.22 301.76,90.04 302.51,88.87 303.26,87.72 304.01,86.58 304.76,85.45 305.51,84.34 306.26,83.24 307.01,82.15 307.77,81.08 308.52,80.03 309.27,78.99 310.02,77.96 310.77,76.95 311.52,75.95 312.27,74.97 313.02,74.00 313.77,73.04 314.52,72.11 315.27,71.18 316.02,70.27 316.77,69.38 317.52,68.50 318.28,67.63 319.03,66.78 319.78,65.95 320.53,65.13 321.28,64.32 322.03,63.53 322.78,62.75 323.53,61.99 324.28,61.25 325.03,60.51 325.78,59.79 326.53,59.09 327.28,58.40 328.04,57.72 328.79,57.06 329.54,56.41 330.29,55.78 331.04,55.15 331.79,54.55 332.54,53.95 333.29,53.37 334.04,52.80 334.79,52.25 335.54,51.71 336.29,51.18 337.04,50.66 337.79,50.16 338.55,49.66 339.30,49.18 340.05,48.72 340.80,48.26 341.55,47.82 342.30,47.38 343.05,46.96 343.80,46.55 344.55,46.16 345.30,45.77 346.05,45.39 346.80,45.02 347.55,44.67 348.30,44.32 349.06,43.99 349.81,43.66 350.56,43.35 351.31,43.04 352.06,42.74 352.81,42.45 353.56,42.18 354.31,41.91 355.06,41.64 355.81,41.39 356.56,41.15 357.31,40.91 358.06,40.68 358.82,40.46 359.57,40.25 360.32,40.05 361.07,39.85 361.82,39.66 362.57,39.48 363.32,39.30 364.07,39.13 364.82,38.97 365.57,38.81 366.32,38.66 367.07,38.52 367.82,38.38 368.57,38.25 369.33,38.12 370.08,38.00 370.83,37.88 371.58,37.77 372.33,37.66 373.08,37.56 373.83,37.46 374.58,37.37 375.33,37.28 376.08,37.20 376.83,37.12 377.58,37.05 378.33,36.97 379.09,36.91 379.84,36.84 380.59,36.78 381.34,36.72 382.09,36.67 382.84,36.62 383.59,36.57 384.34,36.52 385.09,36.48 385.84,36.44 386.59,36.40 387.34,36.37 388.09,36.34 388.84,36.31 389.60,36.28 390.35,36.25 391.10,36.23 391.85,36.21 392.60,36.18 393.35,36.16 394.10,36.15 394.85,36.13 395.60,36.12 396.35,36.10 397.10,36.09 397.85,36.08 398.60,36.07 399.35,36.06 400.11,36.05 400.86,36.04 401.61,36.04 402.36,36.03 403.11,36.03 403.86,36.02 404.61,36.02 405.36,36.02 406.11,36.01 406.86,36.01 407.61,36.01 408.36,36.01 409.11,36.00 409.87,36.00 410.62,36.00 411.37,36.00 412.12,36.00 412.87,36.00 413.62,36.00 414.37,36.00 415.12,36.00 415.87,36.00 416.62,36.00 417.37,36.00 418.12,36.00 418.87,36.00 419.62,36.00 420.38,36.00 421.13,36.00 421.88,36.00 422.63,36.00 423.38,36.00 424.13,36.00 424.88,36.00 425.63,36.00 426.38,36.00 427.13,36.00 427.88,36.00 428.63,36.00 429.38,36.00 430.13,36.00 430.89,36.00 431.64,36.01 432.39,36.01 433.14,36.01 433.89,36.01 434.64,36.01 435.39,36.02 436.14,36.02 436.89,36.02 437.64,36.03 438.39,36.03 439.14,36.04 439.89,36.05 440.65,36.06 441.40,36.06 442.15,36.07 442.90,36.08 443.65,36.10 444.40,36.11 445.15,36.12 445.90,36.14 446.65,36.16 447.40,36.17 448.15,36.19 448.90,36.22 449.65,36.24 450.40,36.27 451.16,36.29 451.91,36.32 452.66,36.35 453.41,36.39 454.16,36.42 454.91,36.46 455.66,36.50 456.41,36.55 457.16,36.59 457.91,36.64 458.66,36.70 459.41,36.75 460.16,36.81 460.91,36.87 461.67,36.94 462.42,37.01 463.17,37.08 463.92,37.16 464.67,37.24 465.42,37.33 466.17,37.42 466.92,37.51 467.67,37.61 468.42,37.71 469.17,37.82 469.92,37.94 470.67,38.06 471.43,38.18 472.18,38.31 472.93,38.45 473.68,38.59 474.43,38.74 475.18,38.89 475.93,39.05 476.68,39.21 477.43,39.39 478.18,39.57 478.93,39.75 479.68,39.95 480.43,40.15 481.18,40.36 481.94,40.57 482.69,40.80 483.44,41.03 484.19,41.27 484.94,41.52 485.69,41.77 486.44,42.04 487.19,42.31 487.94,42.60 488.69,42.89 489.44,43.19 490.19,43.50 490.94,43.82 491.70,44.15 492.45,44.49 493.20,44.84 493.95,45.21 494.70,45.58 495.45,45.96 496.20,46.35 496.95,46.76 497.70,47.17 498.45,47.60 499.20,48.04 499.95,48.49 500.70,48.95 501.45,49.42 502.21,49.91 502.96,50.41 503.71,50.92 504.46,51.44 505.21,51.98 505.96,52.52 506.71,53.08 507.46,53.66 508.21,54.25 508.96,54.85 509.71,55.46 510.46,56.09 511.21,56.73 511.96,57.39 512.72,58.06 513.47,58.74 514.22,59.44 514.97,60.15 515.72,60.88 516.47,61.62 517.22,62.37 517.97,63.14 518.72,63.93 519.47,64.72 520.22,65.54 520.97,66.36 521.72,67.21 522.48,68.06 523.23,68.94 523.98,69.82 524.73,70.73 525.48,71.64 526.23,72.57 526.98,73.52 527.73,74.48 528.48,75.46 529.23,76.45 529.98,77.45 530.73,78.47 531.48,79.51 532.23,80.55 532.99,81.62 533.74,82.70 534.49,83.79 535.24,84.89 535.99,86.01 536.74,87.15 537.49,88.29 538.24,89.45 538.99,90.63 539.74,91.82 540.49,93.02 541.24,94.23 541.99,95.46 542.74,96.70 543.50,97.95 544.25,99.21 545.00,100.49 545.75,101.78 546.50,103.07 547.25,104.38 548.00,105.70 548.75,107.04 549.50,108.38 550.25,109.73 551.00,111.09 551.75,112.46 552.50,113.84 553.26,115.23 554.01,116.63 554.76,118.04 555.51,119.45 556.26,120.87 557.01,122.30 557.76,123.73 558.51,125.17 559.26,126.62 560.01,128.07 560.76,129.53 561.51,131.00 562.26,132.46 563.01,133.93 563.77,135.41 564.52,136.89 565.27,138.37 566.02,139.85 566.77,141.33 567.52,142.82 568.27,144.30 569.02,145.79 569.77,147.28 570.52,148.76 571.27,150.25 572.02,151.73 572.77,153.22 573.52,154.70 574.28,156.17 575.03,157.65 575.78,159.12 576.53,160.58 577.28,162.05 578.03,163.50 578.78,164.95 579.53,166.40 580.28,167.84 581.03,169.27 581.78,170.69 582.53,172.11 583.28,173.52 584.04,174.92 584.79,176.31 585.54,177.69 586.29,179.06 587.04,180.42 587.79,181.78 588.54,183.12 589.29,184.44 590.04,185.76 590.79,187.07 591.54,188.36 592.29,189.64 593.04,190.90 593.79,192.16 594.55,193.39 595.30,194.62 596.05,195.83 596.80,197.03 597.55,198.21 598.30,199.37 599.05,200.52 599.80,201.66 600.55,202.78 601.30,203.88 602.05,204.97 602.80,206.04 603.55,207.09 604.30,208.13 605.06,209.15 605.81,210.15 606.56,211.13 607.31,212.10 608.06,213.05 608.81,213.99 609.56,214.90 610.31,215.80 611.06,216.68 611.81,217.55 612.56,218.39 613.31,219.22 614.06,220.03 614.82,220.83 615.57,221.60 616.32,222.36 617.07,223.10 617.82,223.83 618.57,224.53 619.32,225.22 620.07,225.89 620.82,226.55 621.57,227.19 622.32,227.81 623.07,228.42 623.82,229.01 624.57,229.58 625.33,230.14 626.08,230.68 626.83,231.21 627.58,231.72 628.33,232.21 629.08,232.69 629.83,233.16 630.58,233.61 631.33,234.05 632.08,234.47 632.83,234.88 633.58,235.28 634.33,235.66 635.09,236.03 635.84,236.39 636.59,236.73 637.34,237.06 638.09,237.38 638.84,237.69 639.59,237.99 640.34,238.27 641.09,238.55 641.84,238.81 642.59,239.07 643.34,239.31 644.09,239.55 644.84,239.77 645.60,239.99 646.35,240.19 647.10,240.39 647.85,240.58 648.60,240.76 649.35,240.94 650.10,241.10 650.85,241.26 651.60,241.41 652.35,241.55 653.10,241.69 653.85,241.82 654.60,241.95 655.35,242.07 656.11,242.18 656.86,242.29 657.61,242.39 658.36,242.48 659.11,242.58 659.86,242.66 660.61,242.74 661.36,242.82 662.11,242.90 662.86,242.97 663.61,243.03 664.36,243.09 665.11,243.15 665.87,243.21 666.62,243.26 667.37,243.31 668.12,243.36 668.87,243.40 669.62,243.44 670.37,243.48 671.12,243.52 671.87,243.55 672.62,243.58 673.37,243.61 674.12,243.64 674.87,243.67 675.62,243.69 676.38,243.71 677.13,243.74 677.88,243.75 678.63,243.77 679.38,243.79 680.13,243.81 680.88,243.82 681.63,243.84 682.38,243.85 683.13,243.86 683.88,243.87 684.63,243.88 685.38,243.89 686.13,243.90 686.89,243.91 687.64,243.92 688.39,243.92 689.14,243.93 689.89,243.94 690.64,243.94 691.39,243.95 692.14,243.95 692.89,243.96 693.64,243.96 694.39,243.96 695.14,243.97 695.89,243.97 696.65,243.97 697.40,243.98 698.15,243.98 698.90,243.98 699.65,243.98 700.40,243.98 701.15,243.98 701.90,243.99 702.65,243.99 703.40,243.99 704.15,243.99 704.90,243.99 705.65,243.99 706.40,243.99 707.16,243.99 707.91,243.99 708.66,243.99 709.41,244.00 710.16,244.00 710.91,244.00 711.66,244.00 712.41,244.00 713.16,244.00 713.91,244.00 714.66,244.00 715.41,244.00 716.16,244.00 716.91,244.00 717.67,244.00 718.42,244.00 719.17,244.00 719.92,244.00 720.67,244.00 721.42,244.00 722.17,244.00 722.92,244.00 723.67,244.00 724.42,244.00 725.17,244.00 725.92,244.00 726.67,244.00 727.43,244.00 728.18,244.00 728.93,244.00 729.68,244.00 730.43,244.00 731.18,244.00 731.93,244.00 732.68,244.00 733.43,244.00 734.18,244.00 734.93,244.00 735.68,244.00 736.43,244.00 737.18,244.00 737.94,244.00 738.69,244.00 739.44,244.00 740.19,244.00 740.94,244.00 741.69,244.00 742.44,244.00 743.19,244.00 743.94,244.00 744.69,244.00 745.44,244.00 746.19,244.00 746.94,244.00 747.70,244.00 748.45,244.00 749.20,244.00 749.95,244.00 750.70,244.00 751.45,244.00 752.20,244.00 752.95,244.00 753.70,244.00 754.45,244.00 755.20,244.00 755.95,244.00 756.70,244.00 757.45,244.00 758.21,244.00 758.96,244.00 759.71,244.00 760.46,244.00 761.21,244.00 761.96,244.00 762.71,244.00 763.46,244.00 764.21,244.00 764.96,244.00 765.71,244.00 766.46,244.00 767.21,244.00 767.96,244.00 768.72,244.00 769.47,244.00 770.22,244.00 770.97,244.00 771.72,244.00 772.47,244.00 773.22,244.00 773.97,244.00 774.72,244.00 775.47,244.00 776.22,244.00 776.97,244.00 777.72,244.00 778.48,244.00 779.23,244.00 779.98,244.00 780.73,244.00 781.48,244.00 782.23,244.00 782.98,244.00 783.73,244.00 784.48,244.00 785.23,244.00 785.98,244.00 786.73,244.00 787.48,244.00 788.23,244.00 788.99,244.00 789.74,244.00 790.49,244.00 791.24,244.00 791.99,244.00 792.74,244.00 793.49,244.00 794.24,244.00 794.99,244.00 795.74,244.00 796.49,244.00 797.24,244.00 797.99,244.00 798.74,244.00 799.50,244.00 800.25,244.00 801.00,244.00 801.75,244.00 802.50,244.00 803.25,244.00 804.00,244.00" />
  <text x="420.0" y="22" text-anchor="middle" font-family="Arial, Helvetica, sans-serif" font-size="15" fill="#102a43">general_gaussian_2p0_0p35 window (time domain)</text>
  <text x="420.0" y="272" text-anchor="middle" font-family="Arial, Helvetica, sans-serif" font-size="12" fill="#334e68">normalized sample index</text>
  <text x="14" y="140.0" transform="rotate(-90 14,140.0)" text-anchor="middle" font-family="Arial, Helvetica, sans-serif" font-size="12" fill="#334e68">amplitude</text>
  <text x="36" y="262" font-family="Arial, Helvetica, sans-serif" font-size="11" fill="#486581">0</text>
  <text x="804" y="262" text-anchor="end" font-family="Arial, Helvetica, sans-serif" font-size="11" fill="#486581">1</text>
  <text x="30" y="40" text-anchor="end" font-family="Arial, Helvetica, sans-serif" font-size="11" fill="#486581">1.0</text>
  <text x="30" y="248" text-anchor="end" font-family="Arial, Helvetica, sans-serif" font-size="11" fill="#486581">0.0</text>
</svg>
