<svg xmlns="http://www.w3.org/2000/svg" width="840" height="280" viewBox="0 0 840 280">
  <rect x="0" y="0" width="840" height="280" fill="#ffffff" />
  <rect x="36" y="36" width="768" height="208" fill="#f7fbff" stroke="#c8d9e6" />
  <polyline fill="none" stroke="#005f73" stroke-width="2" points="36.00,202.40 36.75,202.40 37.50,202.39 38.25,202.39 39.00,202.37 39.75,202.36 40.50,202.34 41.26,202.32 42.01,202.30 42.76,202.27 43.51,202.24 44.26,202.21 45.01,202.17 45.76,202.14 46.51,202.09 47.26,202.05 48.01,202.00 48.76,201.95 49.51,201.89 50.26,201.83 51.01,201.77 51.77,201.71 52.52,201.64 53.27,201.57 54.02,201.50 54.77,201.42 55.52,201.34 56.27,201.26 57.02,201.17 57.77,201.08 58.52,200.99 59.27,200.90 60.02,200.80 60.77,200.70 61.52,200.59 62.28,200.49 63.03,200.38 63.78,200.26 64.53,200.15 65.28,200.03 66.03,199.90 66.78,199.78 67.53,199.65 68.28,199.52 69.03,199.38 69.78,199.25 70.53,199.10 71.28,198.96 72.04,198.81 72.79,198.66 73.54,198.51 74.29,198.36 75.04,198.20 75.79,198.03 76.54,197.87 77.29,197.70 78.04,197.53 78.79,197.36 79.54,197.18 80.29,197.00 81.04,196.82 81.79,196.63 82.55,196.45 83.30,196.25 84.05,196.06 84.80,195.86 85.55,195.66 86.30,195.46 87.05,195.26 87.80,195.05 88.55,194.84 89.30,194.62 90.05,194.40 90.80,194.18 91.55,193.96 92.30,193.74 93.06,193.51 93.81,193.28 94.56,193.04 95.31,192.81 96.06,192.57 96.81,192.32 97.56,192.08 98.31,191.83 99.06,191.58 99.81,191.33 100.56,191.07 101.31,190.81 102.06,190.55 102.82,190.29 103.57,190.02 104.32,189.75 105.07,189.48 105.82,189.20 106.57,188.93 107.32,188.65 108.07,188.36 108.82,188.08 109.57,187.79 110.32,187.50 111.07,187.21 111.82,186.91 112.57,186.62 113.33,186.31 114.08,186.01 114.83,185.71 115.58,185.40 116.33,185.09 117.08,184.77 117.83,184.46 118.58,184.14 119.33,183.82 120.08,183.50 120.83,183.17 121.58,182.84 122.33,182.51 123.09,182.18 123.84,181.85 124.59,181.51 125.34,181.17 126.09,180.83 126.84,180.48 127.59,180.14 128.34,179.79 129.09,179.44 129.84,179.08 130.59,178.73 131.34,178.37 132.09,178.01 132.84,177.65 133.60,177.28 134.35,176.91 135.10,176.55 135.85,176.17 136.60,175.80 137.35,175.43 138.10,175.05 138.85,174.67 139.60,174.29 140.35,173.90 141.10,173.52 141.85,173.13 142.60,172.74 143.35,172.35 144.11,171.95 144.86,171.56 145.61,171.16 146.36,170.76 147.11,170.36 147.86,169.95 148.61,169.55 149.36,169.14 150.11,168.73 150.86,168.32 151.61,167.91 152.36,167.49 153.11,167.08 153.87,166.66 154.62,166.24 155.37,165.81 156.12,165.39 156.87,164.96 157.62,164.54 158.37,164.11 159.12,163.68 159.87,163.24 160.62,162.81 161.37,162.37 162.12,161.94 162.87,161.50 163.62,161.06 164.38,160.62 165.13,160.17 165.88,159.73 166.63,159.28 167.38,158.83 168.13,158.38 168.88,157.93 169.63,157.48 170.38,157.02 171.13,156.57 171.88,156.11 172.63,155.65 173.38,155.19 174.13,154.73 174.89,154.27 175.64,153.80 176.39,153.34 177.14,152.87 177.89,152.41 178.64,151.94 179.39,151.47 180.14,151.00 180.89,150.52 181.64,150.05 182.39,149.57 183.14,149.10 183.89,148.62 184.65,148.14 185.40,147.66 186.15,147.18 186.90,146.70 187.65,146.22 188.40,145.73 189.15,145.25 189.90,144.76 190.65,144.28 191.40,143.79 192.15,143.30 192.90,142.81 193.65,142.32 194.40,141.83 195.16,141.34 195.91,140.85 196.66,140.35 197.41,139.86 198.16,139.36 198.91,138.87 199.66,138.37 200.41,137.87 201.16,137.38 201.91,136.88 202.66,136.38 203.41,135.88 204.16,135.38 204.91,134.88 205.67,134.37 206.42,133.87 207.17,133.37 207.92,132.86 208.67,132.36 209.42,131.86 210.17,131.35 210.92,130.85 211.67,130.34 212.42,129.83 213.17,129.33 213.92,128.82 214.67,128.31 215.43,127.80 216.18,127.30 216.93,126.79 217.68,126.28 218.43,125.77 219.18,125.26 219.93,124.75 220.68,124.24 221.43,123.73 222.18,123.22 222.93,122.71 223.68,122.20 224.43,121.69 225.18,121.18 225.94,120.67 226.69,120.16 227.44,119.65 228.19,119.14 228.94,118.63 229.69,118.11 230.44,117.60 231.19,117.09 231.94,116.58 232.69,116.07 233.44,115.56 234.19,115.05 234.94,114.54 235.70,114.03 236.45,113.52 237.20,113.01 237.95,112.50 238.70,111.99 239.45,111.49 240.20,110.98 240.95,110.47 241.70,109.96 242.45,109.45 243.20,108.95 243.95,108.44 244.70,107.93 245.45,107.43 246.21,106.92 246.96,106.42 247.71,105.91 248.46,105.41 249.21,104.91 249.96,104.40 250.71,103.90 251.46,103.40 252.21,102.90 252.96,102.40 253.71,101.90 254.46,101.40 255.21,100.90 255.96,100.40 256.72,99.90 257.47,99.41 258.22,98.91 258.97,98.42 259.72,97.92 260.47,97.43 261.22,96.94 261.97,96.45 262.72,95.95 263.47,95.46 264.22,94.98 264.97,94.49 265.72,94.00 266.48,93.51 267.23,93.03 267.98,92.54 268.73,92.06 269.48,91.58 270.23,91.10 270.98,90.62 271.73,90.14 272.48,89.66 273.23,89.18 273.98,88.71 274.73,88.23 275.48,87.76 276.23,87.29 276.99,86.82 277.74,86.35 278.49,85.88 279.24,85.41 279.99,84.94 280.74,84.48 281.49,84.02 282.24,83.55 282.99,83.09 283.74,82.63 284.49,82.18 285.24,81.72 285.99,81.26 286.74,80.81 287.50,80.36 288.25,79.91 289.00,79.46 289.75,79.01 290.50,78.56 291.25,78.12 292.00,77.67 292.75,77.23 293.50,76.79 294.25,76.35 295.00,75.92 295.75,75.48 296.50,75.05 297.26,74.61 298.01,74.18 298.76,73.76 299.51,73.33 300.26,72.90 301.01,72.48 301.76,72.06 302.51,71.64 303.26,71.22 304.01,70.80 304.76,70.39 305.51,69.98 306.26,69.57 307.01,69.16 307.77,68.75 308.52,68.34 309.27,67.94 310.02,67.54 310.77,67.14 311.52,66.74 312.27,66.35 313.02,65.95 313.77,65.56 314.52,65.17 315.27,64.79 316.02,64.40 316.77,64.02 317.52,63.64 318.28,63.26 319.03,62.88 319.78,62.50 320.53,62.13 321.28,61.76 322.03,61.39 322.78,61.03 323.53,60.66 324.28,60.30 325.03,59.94 325.78,59.58 326.53,59.23 327.28,58.88 328.04,58.53 328.79,58.18 329.54,57.83 330.29,57.49 331.04,57.15 331.79,56.81 332.54,56.47 333.29,56.14 334.04,55.80 334.79,55.47 335.54,55.15 336.29,54.82 337.04,54.50 337.79,54.18 338.55,53.86 339.30,53.55 340.05,53.24 340.80,52.93 341.55,52.62 342.30,52.31 343.05,52.01 343.80,51.71 344.55,51.41 345.30,51.12 346.05,50.83 346.80,50.54 347.55,50.25 348.30,49.96 349.06,49.68 349.81,49.40 350.56,49.13 351.31,48.85 352.06,48.58 352.81,48.31 353.56,48.05 354.31,47.78 355.06,47.52 355.81,47.26 356.56,47.01 357.31,46.76 358.06,46.51 358.82,46.26 359.57,46.01 360.32,45.77 361.07,45.53 361.82,45.30 362.57,45.07 363.32,44.83 364.07,44.61 364.82,44.38 365.57,44.16 366.32,43.94 367.07,43.72 367.82,43.51 368.57,43.30 369.33,43.09 370.08,42.89 370.83,42.69 371.58,42.49 372.33,42.29 373.08,42.10 373.83,41.91 374.58,41.72 375.33,41.53 376.08,41.35 376.83,41.17 377.58,41.00 378.33,40.83 379.09,40.66 379.84,40.49 380.59,40.32 381.34,40.16 382.09,40.01 382.84,39.85 383.59,39.70 384.34,39.55 385.09,39.40 385.84,39.26 386.59,39.12 387.34,38.98 388.09,38.85 388.84,38.72 389.60,38.59 390.35,38.46 391.10,38.34 391.85,38.22 392.60,38.11 393.35,38.00 394.10,37.89 394.85,37.78 395.60,37.68 396.35,37.58 397.10,37.48 397.85,37.38 398.60,37.29 399.35,37.20 400.11,37.12 400.86,37.04 401.61,36.96 402.36,36.88 403.11,36.81 403.86,36.74 404.61,36.67 405.36,36.61 406.11,36.55 406.86,36.49 407.61,36.44 408.36,36.39 409.11,36.34 409.87,36.30 410.62,36.25 411.37,36.22 412.12,36.18 412.87,36.15 413.62,36.12 414.37,36.09 415.12,36.07 415.87,36.05 416.62,36.04 417.37,36.02 418.12,36.01 418.87,36.00 419.62,36.00 420.38,36.00 421.13,36.00 421.88,36.01 422.63,36.02 423.38,36.03 424.13,36.04 424.88,36.06 425.63,36.08 426.38,36.11 427.13,36.13 427.88,36.16 428.63,36.20 429.38,36.24 430.13,36.28 430.89,36.32 431.64,36.36 432.39,36.41 433.14,36.47 433.89,36.52 434.64,36.58 435.39,36.64 436.14,36.71 436.89,36.77 437.64,36.85 438.39,36.92 439.14,37.00 439.89,37.08 440.65,37.16 441.40,37.25 442.15,37.34 442.90,37.43 443.65,37.53 444.40,37.63 445.15,37.73 445.90,37.83 446.65,37.94 447.40,38.05 448.15,38.17 448.90,38.28 449.65,38.40 450.40,38.53 451.16,38.65 451.91,38.78 452.66,38.92 453.41,39.05 454.16,39.19 454.91,39.33 455.66,39.48 456.41,39.62 457.16,39.77 457.91,39.93 458.66,40.08 459.41,40.24 460.16,40.41 460.91,40.57 461.67,40.74 462.42,40.91 463.17,41.09 463.92,41.26 464.67,41.44 465.42,41.63 466.17,41.81 466.92,42.00 467.67,42.19 468.42,42.39 469.17,42.59 469.92,42.79 470.67,42.99 471.43,43.20 472.18,43.41 472.93,43.62 473.68,43.83 474.43,44.05 475.18,44.27 475.93,44.49 476.68,44.72 477.43,44.95 478.18,45.18 478.93,45.42 479.68,45.65 480.43,45.89 481.18,46.14 481.94,46.38 482.69,46.63 483.44,46.88 484.19,47.14 484.94,47.39 485.69,47.65 486.44,47.91 487.19,48.18 487.94,48.45 488.69,48.72 489.44,48.99 490.19,49.26 490.94,49.54 491.70,49.82 492.45,50.11 493.20,50.39 493.95,50.68 494.70,50.97 495.45,51.26 496.20,51.56 496.95,51.86 497.70,52.16 498.45,52.46 499.20,52.77 499.95,53.08 500.70,53.39 501.45,53.70 502.21,54.02 502.96,54.34 503.71,54.66 504.46,54.98 505.21,55.31 505.96,55.64 506.71,55.97 507.46,56.30 508.21,56.64 508.96,56.98 509.71,57.32 510.46,57.66 511.21,58.00 511.96,58.35 512.72,58.70 513.47,59.05 514.22,59.41 514.97,59.76 515.72,60.12 516.47,60.48 517.22,60.84 517.97,61.21 518.72,61.58 519.47,61.95 520.22,62.32 520.97,62.69 521.72,63.07 522.48,63.45 523.23,63.83 523.98,64.21 524.73,64.59 525.48,64.98 526.23,65.37 526.98,65.76 527.73,66.15 528.48,66.55 529.23,66.94 529.98,67.34 530.73,67.74 531.48,68.14 532.23,68.55 532.99,68.95 533.74,69.36 534.49,69.77 535.24,70.18 535.99,70.60 536.74,71.01 537.49,71.43 538.24,71.85 538.99,72.27 539.74,72.69 540.49,73.12 541.24,73.54 541.99,73.97 542.74,74.40 543.50,74.83 544.25,75.26 545.00,75.70 545.75,76.13 546.50,76.57 547.25,77.01 548.00,77.45 548.75,77.90 549.50,78.34 550.25,78.79 551.00,79.23 551.75,79.68 552.50,80.13 553.26,80.58 554.01,81.04 554.76,81.49 555.51,81.95 556.26,82.40 557.01,82.86 557.76,83.32 558.51,83.78 559.26,84.25 560.01,84.71 560.76,85.18 561.51,85.64 562.26,86.11 563.01,86.58 563.77,87.05 564.52,87.52 565.27,88.00 566.02,88.47 566.77,88.95 567.52,89.42 568.27,89.90 569.02,90.38 569.77,90.86 570.52,91.34 571.27,91.82 572.02,92.30 572.77,92.79 573.52,93.27 574.28,93.76 575.03,94.24 575.78,94.73 576.53,95.22 577.28,95.71 578.03,96.20 578.78,96.69 579.53,97.18 580.28,97.68 581.03,98.17 581.78,98.66 582.53,99.16 583.28,99.66 584.04,100.15 584.79,100.65 585.54,101.15 586.29,101.65 587.04,102.15 587.79,102.65 588.54,103.15 589.29,103.65 590.04,104.15 590.79,104.65 591.54,105.16 592.29,105.66 593.04,106.17 593.79,106.67 594.55,107.18 595.30,107.68 596.05,108.19 596.80,108.69 597.55,109.20 598.30,109.71 599.05,110.22 599.80,110.72 600.55,111.23 601.30,111.74 602.05,112.25 602.80,112.76 603.55,113.27 604.30,113.78 605.06,114.29 605.81,114.80 606.56,115.31 607.31,115.82 608.06,116.33 608.81,116.84 609.56,117.35 610.31,117.86 611.06,118.37 611.81,118.88 612.56,119.39 613.31,119.90 614.06,120.41 614.82,120.92 615.57,121.43 616.32,121.94 617.07,122.46 617.82,122.97 618.57,123.48 619.32,123.99 620.07,124.50 620.82,125.01 621.57,125.51 622.32,126.02 623.07,126.53 623.82,127.04 624.57,127.55 625.33,128.06 626.08,128.57 626.83,129.07 627.58,129.58 628.33,130.09 629.08,130.59 629.83,131.10 630.58,131.60 631.33,132.11 632.08,132.61 632.83,133.12 633.58,133.62 634.33,134.12 635.09,134.62 635.84,135.13 636.59,135.63 637.34,136.13 638.09,136.63 638.84,137.13 639.59,137.62 640.34,138.12 641.09,138.62 641.84,139.12 642.59,139.61 643.34,140.11 644.09,140.60 644.84,141.09 645.60,141.59 646.35,142.08 647.10,142.57 647.85,143.06 648.60,143.55 649.35,144.03 650.10,144.52 650.85,145.01 651.60,145.49 652.35,145.98 653.10,146.46 653.85,146.94 654.60,147.42 655.35,147.90 656.11,148.38 656.86,148.86 657.61,149.34 658.36,149.81 659.11,150.29 659.86,150.76 660.61,151.23 661.36,151.70 662.11,152.17 662.86,152.64 663.61,153.11 664.36,153.57 665.11,154.04 665.87,154.50 666.62,154.96 667.37,155.42 668.12,155.88 668.87,156.34 669.62,156.80 670.37,157.25 671.12,157.70 671.87,158.16 672.62,158.61 673.37,159.06 674.12,159.50 674.87,159.95 675.62,160.39 676.38,160.84 677.13,161.28 677.88,161.72 678.63,162.16 679.38,162.59 680.13,163.03 680.88,163.46 681.63,163.89 682.38,164.32 683.13,164.75 683.88,165.18 684.63,165.60 685.38,166.03 686.13,166.45 686.89,166.87 687.64,167.28 688.39,167.70 689.14,168.11 689.89,168.53 690.64,168.94 691.39,169.35 692.14,169.75 692.89,170.16 693.64,170.56 694.39,170.96 695.14,171.36 695.89,171.76 696.65,172.15 697.40,172.54 698.15,172.93 698.90,173.32 699.65,173.71 700.40,174.10 701.15,174.48 701.90,174.86 702.65,175.24 703.40,175.61 704.15,175.99 704.90,176.36 705.65,176.73 706.40,177.10 707.16,177.46 707.91,177.83 708.66,178.19 709.41,178.55 710.16,178.90 710.91,179.26 711.66,179.61 712.41,179.96 713.16,180.31 713.91,180.66 714.66,181.00 715.41,181.34 716.16,181.68 716.91,182.01 717.67,182.35 718.42,182.68 719.17,183.01 719.92,183.33 720.67,183.66 721.42,183.98 722.17,184.30 722.92,184.62 723.67,184.93 724.42,185.24 725.17,185.55 725.92,185.86 726.67,186.16 727.43,186.47 728.18,186.76 728.93,187.06 729.68,187.36 730.43,187.65 731.18,187.94 731.93,188.22 732.68,188.51 733.43,188.79 734.18,189.07 734.93,189.34 735.68,189.62 736.43,189.89 737.18,190.15 737.94,190.42 738.69,190.68 739.44,190.94 740.19,191.20 740.94,191.45 741.69,191.71 742.44,191.96 743.19,192.20 743.94,192.45 744.69,192.69 745.44,192.92 746.19,193.16 746.94,193.39 747.70,193.62 748.45,193.85 749.20,194.07 749.95,194.29 750.70,194.51 751.45,194.73 752.20,194.94 752.95,195.15 753.70,195.36 754.45,195.56 755.20,195.76 755.95,195.96 756.70,196.16 757.45,196.35 758.21,196.54 758.96,196.73 759.71,196.91 760.46,197.09 761.21,197.27 761.96,197.45 762.71,197.62 763.46,197.79 764.21,197.95 764.96,198.12 765.71,198.28 766.46,198.43 767.21,198.59 767.96,198.74 768.72,198.89 769.47,199.03 770.22,199.18 770.97,199.31 771.72,199.45 772.47,199.58 773.22,199.71 773.97,199.84 774.72,199.97 775.47,200.09 776.22,200.21 776.97,200.32 777.72,200.43 778.48,200.54 779.23,200.65 779.98,200.75 780.73,200.85 781.48,200.95 782.23,201.04 782.98,201.13 783.73,201.22 784.48,201.30 785.23,201.38 785.98,201.46 786.73,201.54 787.48,201.61 788.23,201.68 788.99,201.74 789.74,201.80 790.49,201.86 791.24,201.92 791.99,201.97 792.74,202.02 793.49,202.07 794.24,202.11 794.99,202.16 795.74,202.19 796.49,202.23 797.24,202.26 797.99,202.29 798.74,202.31 799.50,202.33 800.25,202.35 801.00,202.37 801.75,202.38 802.50,202.39 803.25,202.40 804.00,202.40" />
  <text x="420.0" y="22" text-anchor="middle" font-family="Arial, Helvetica, sans-serif" font-size="15" fill="#102a43">general_hamming_0p60 window (time domain)</text>
  <text x="420.0" y="272" text-anchor="middle" font-family="Arial, Helvetica, sans-serif" font-size="12" fill="#334e68">normalized sample index</text>
  <text x="14" y="140.0" transform="rotate(-90 14,140.0)" text-anchor="middle" font-family="Arial, Helvetica, sans-serif" font-size="12" fill="#334e68">amplitude</text>
  <text x="36" y="262" font-family="Arial, Helvetica, sans-serif" font-size="11" fill="#486581">0</text>
  <text x="804" y="262" text-anchor="end" font-family="Arial, Helvetica, sans-serif" font-size="11" fill="#486581">1</text>
  <text x="30" y="40" text-anchor="end" font-family="Arial, Helvetica, sans-serif" font-size="11" fill="#486581">1.0</text>
  <text x="30" y="248" text-anchor="end" font-family="Arial, Helvetica, sans-serif" font-size="11" fill="#486581">0.0</text>
</svg>
