<svg xmlns="http://www.w3.org/2000/svg" width="840" height="280" viewBox="0 0 840 280">
  <rect x="0" y="0" width="840" height="280" fill="#ffffff" />
  <rect x="36" y="36" width="768" height="208" fill="#f7fbff" stroke="#c8d9e6" />
  <polyline fill="none" stroke="#005f73" stroke-width="2" points="36.00,244.00 36.75,244.00 37.50,244.00 38.25,244.00 39.00,244.00 39.75,244.00 40.50,244.00 41.26,244.00 42.01,244.00 42.76,244.00 43.51,244.00 44.26,244.00 45.01,244.00 45.76,244.00 46.51,244.00 47.26,244.00 48.01,244.00 48.76,244.00 49.51,244.00 50.26,244.00 51.01,244.00 51.77,244.00 52.52,244.00 53.27,244.00 54.02,244.00 54.77,244.00 55.52,244.00 56.27,244.00 57.02,244.00 57.77,244.00 58.52,244.00 59.27,244.00 60.02,244.00 60.77,244.00 61.52,244.00 62.28,244.00 63.03,244.00 63.78,244.00 64.53,244.00 65.28,244.00 66.03,244.00 66.78,244.00 67.53,244.00 68.28,244.00 69.03,244.00 69.78,244.00 70.53,244.00 71.28,244.00 72.04,244.00 72.79,244.00 73.54,244.00 74.29,244.00 75.04,244.00 75.79,244.00 76.54,244.00 77.29,244.00 78.04,244.00 78.79,244.00 79.54,244.00 80.29,244.00 81.04,244.00 81.79,244.00 82.55,244.00 83.30,244.00 84.05,244.00 84.80,244.00 85.55,244.00 86.30,244.00 87.05,244.00 87.80,244.00 88.55,244.00 89.30,244.00 90.05,244.00 90.80,244.00 91.55,244.00 92.30,244.00 93.06,244.00 93.81,244.00 94.56,244.00 95.31,244.00 96.06,244.00 96.81,244.00 97.56,244.00 98.31,244.00 99.06,244.00 99.81,244.00 100.56,244.00 101.31,244.00 102.06,244.00 102.82,244.00 103.57,244.00 104.32,244.00 105.07,244.00 105.82,244.00 106.57,244.00 107.32,244.00 108.07,244.00 108.82,244.00 109.57,244.00 110.32,244.00 111.07,244.00 111.82,244.00 112.57,244.00 113.33,244.00 114.08,244.00 114.83,244.00 115.58,244.00 116.33,244.00 117.08,244.00 117.83,244.00 118.58,244.00 119.33,244.00 120.08,244.00 120.83,244.00 121.58,244.00 122.33,244.00 123.09,244.00 123.84,244.00 124.59,244.00 125.34,244.00 126.09,244.00 126.84,244.00 127.59,244.00 128.34,244.00 129.09,244.00 129.84,244.00 130.59,244.00 131.34,244.00 132.09,244.00 132.84,244.00 133.60,244.00 134.35,244.00 135.10,244.00 135.85,244.00 136.60,244.00 137.35,244.00 138.10,244.00 138.85,244.00 139.60,244.00 140.35,244.00 141.10,244.00 141.85,244.00 142.60,244.00 143.35,244.00 144.11,244.00 144.86,244.00 145.61,244.00 146.36,244.00 147.11,244.00 147.86,244.00 148.61,244.00 149.36,244.00 150.11,244.00 150.86,244.00 151.61,244.00 152.36,244.00 153.11,244.00 153.87,244.00 154.62,244.00 155.37,244.00 156.12,244.00 156.87,244.00 157.62,244.00 158.37,244.00 159.12,244.00 159.87,244.00 160.62,244.00 161.37,244.00 162.12,244.00 162.87,244.00 163.62,244.00 164.38,244.00 165.13,244.00 165.88,244.00 166.63,244.00 167.38,244.00 168.13,244.00 168.88,244.00 169.63,244.00 170.38,244.00 171.13,244.00 171.88,244.00 172.63,244.00 173.38,244.00 174.13,244.00 174.89,244.00 175.64,244.00 176.39,244.00 177.14,244.00 177.89,244.00 178.64,244.00 179.39,244.00 180.14,244.00 180.89,244.00 181.64,244.00 182.39,244.00 183.14,244.00 183.89,244.00 184.65,244.00 185.40,244.00 186.15,244.00 186.90,244.00 187.65,244.00 188.40,244.00 189.15,244.00 189.90,244.00 190.65,244.00 191.40,244.00 192.15,244.00 192.90,244.00 193.65,244.00 194.40,244.00 195.16,244.00 195.91,244.00 196.66,244.00 197.41,244.00 198.16,244.00 198.91,244.00 199.66,244.00 200.41,244.00 201.16,244.00 201.91,244.00 202.66,244.00 203.41,244.00 204.16,244.00 204.91,244.00 205.67,244.00 206.42,244.00 207.17,244.00 207.92,244.00 208.67,244.00 209.42,244.00 210.17,244.00 210.92,244.00 211.67,244.00 212.42,244.00 213.17,244.00 213.92,244.00 214.67,244.00 215.43,244.00 216.18,244.00 216.93,244.00 217.68,244.00 218.43,244.00 219.18,244.00 219.93,244.00 220.68,244.00 221.43,244.00 222.18,244.00 222.93,244.00 223.68,243.99 224.43,243.99 225.18,243.99 225.94,243.98 226.69,243.98 227.44,243.97 228.19,243.96 228.94,243.95 229.69,243.94 230.44,243.92 231.19,243.90 231.94,243.87 232.69,243.84 233.44,243.79 234.19,243.74 234.94,243.68 235.70,243.61 236.45,243.52 237.20,243.42 237.95,243.30 238.70,243.16 239.45,242.99 240.20,242.80 240.95,242.57 241.70,242.32 242.45,242.03 243.20,241.70 243.95,241.32 244.70,240.90 245.45,240.43 246.21,239.90 246.96,239.32 247.71,238.67 248.46,237.96 249.21,237.17 249.96,236.32 250.71,235.39 251.46,234.37 252.21,233.28 252.96,232.10 253.71,230.83 254.46,229.48 255.21,228.03 255.96,226.49 256.72,224.86 257.47,223.14 258.22,221.32 258.97,219.41 259.72,217.41 260.47,215.31 261.22,213.13 261.97,210.87 262.72,208.51 263.47,206.08 264.22,203.57 264.97,200.98 265.72,198.32 266.48,195.60 267.23,192.81 267.98,189.96 268.73,187.06 269.48,184.11 270.23,181.12 270.98,178.09 271.73,175.03 272.48,171.93 273.23,168.82 273.98,165.68 274.73,162.53 275.48,159.38 276.23,156.22 276.99,153.06 277.74,149.91 278.49,146.77 279.24,143.64 279.99,140.54 280.74,137.45 281.49,134.40 282.24,131.37 282.99,128.38 283.74,125.43 284.49,122.52 285.24,119.65 285.99,116.82 286.74,114.05 287.50,111.32 288.25,108.65 289.00,106.03 289.75,103.46 290.50,100.95 291.25,98.50 292.00,96.11 292.75,93.78 293.50,91.50 294.25,89.29 295.00,87.14 295.75,85.04 296.50,83.01 297.26,81.04 298.01,79.12 298.76,77.27 299.51,75.48 300.26,73.74 301.01,72.06 301.76,70.44 302.51,68.87 303.26,67.36 304.01,65.91 304.76,64.51 305.51,63.16 306.26,61.86 307.01,60.61 307.77,59.40 308.52,58.25 309.27,57.14 310.02,56.08 310.77,55.06 311.52,54.09 312.27,53.15 313.02,52.26 313.77,51.40 314.52,50.59 315.27,49.80 316.02,49.06 316.77,48.35 317.52,47.67 318.28,47.02 319.03,46.40 319.78,45.82 320.53,45.26 321.28,44.72 322.03,44.22 322.78,43.74 323.53,43.28 324.28,42.85 325.03,42.44 325.78,42.05 326.53,41.68 327.28,41.33 328.04,41.00 328.79,40.69 329.54,40.39 330.29,40.11 331.04,39.85 331.79,39.60 332.54,39.36 333.29,39.14 334.04,38.93 334.79,38.73 335.54,38.55 336.29,38.37 337.04,38.21 337.79,38.06 338.55,37.91 339.30,37.78 340.05,37.65 340.80,37.53 341.55,37.42 342.30,37.31 343.05,37.22 343.80,37.12 344.55,37.04 345.30,36.96 346.05,36.89 346.80,36.82 347.55,36.75 348.30,36.69 349.06,36.64 349.81,36.59 350.56,36.54 351.31,36.49 352.06,36.45 352.81,36.41 353.56,36.38 354.31,36.34 355.06,36.31 355.81,36.29 356.56,36.26 357.31,36.24 358.06,36.22 358.82,36.20 359.57,36.18 360.32,36.16 361.07,36.15 361.82,36.13 362.57,36.12 363.32,36.11 364.07,36.10 364.82,36.09 365.57,36.08 366.32,36.07 367.07,36.06 367.82,36.05 368.57,36.05 369.33,36.04 370.08,36.04 370.83,36.03 371.58,36.03 372.33,36.03 373.08,36.02 373.83,36.02 374.58,36.02 375.33,36.02 376.08,36.01 376.83,36.01 377.58,36.01 378.33,36.01 379.09,36.01 379.84,36.01 380.59,36.01 381.34,36.01 382.09,36.00 382.84,36.00 383.59,36.00 384.34,36.00 385.09,36.00 385.84,36.00 386.59,36.00 387.34,36.00 388.09,36.00 388.84,36.00 389.60,36.00 390.35,36.00 391.10,36.00 391.85,36.00 392.60,36.00 393.35,36.00 394.10,36.00 394.85,36.00 395.60,36.00 396.35,36.00 397.10,36.00 397.85,36.00 398.60,36.00 399.35,36.00 400.11,36.00 400.86,36.00 401.61,36.00 402.36,36.00 403.11,36.00 403.86,36.00 404.61,36.00 405.36,36.00 406.11,36.00 406.86,36.00 407.61,36.00 408.36,36.00 409.11,36.00 409.87,36.00 410.62,36.00 411.37,36.00 412.12,36.00 412.87,36.00 413.62,36.00 414.37,36.00 415.12,36.00 415.87,36.00 416.62,36.00 417.37,36.00 418.12,36.00 418.87,36.00 419.62,36.00 420.38,36.00 421.13,36.00 421.88,36.00 422.63,36.00 423.38,36.00 424.13,36.00 424.88,36.00 425.63,36.00 426.38,36.00 427.13,36.00 427.88,36.00 428.63,36.00 429.38,36.00 430.13,36.00 430.89,36.00 431.64,36.00 432.39,36.00 433.14,36.00 433.89,36.00 434.64,36.00 435.39,36.00 436.14,36.00 436.89,36.00 437.64,36.00 438.39,36.00 439.14,36.00 439.89,36.00 440.65,36.00 441.40,36.00 442.15,36.00 442.90,36.00 443.65,36.00 444.40,36.00 445.15,36.00 445.90,36.00 446.65,36.00 447.40,36.00 448.15,36.00 448.90,36.00 449.65,36.00 450.40,36.00 451.16,36.00 451.91,36.00 452.66,36.00 453.41,36.00 454.16,36.00 454.91,36.00 455.66,36.00 456.41,36.00 457.16,36.00 457.91,36.00 458.66,36.00 459.41,36.01 460.16,36.01 460.91,36.01 461.67,36.01 462.42,36.01 463.17,36.01 463.92,36.01 464.67,36.01 465.42,36.02 466.17,36.02 466.92,36.02 467.67,36.03 468.42,36.03 469.17,36.03 469.92,36.04 470.67,36.04 471.43,36.05 472.18,36.05 472.93,36.06 473.68,36.07 474.43,36.07 475.18,36.08 475.93,36.09 476.68,36.10 477.43,36.11 478.18,36.12 478.93,36.14 479.68,36.15 480.43,36.17 481.18,36.19 481.94,36.21 482.69,36.23 483.44,36.25 484.19,36.27 484.94,36.30 485.69,36.33 486.44,36.36 487.19,36.39 487.94,36.43 488.69,36.47 489.44,36.51 490.19,36.56 490.94,36.61 491.70,36.66 492.45,36.72 493.20,36.78 493.95,36.85 494.70,36.92 495.45,37.00 496.20,37.08 496.95,37.17 497.70,37.26 498.45,37.37 499.20,37.47 499.95,37.59 500.70,37.71 501.45,37.84 502.21,37.98 502.96,38.13 503.71,38.29 504.46,38.46 505.21,38.64 505.96,38.83 506.71,39.03 507.46,39.25 508.21,39.48 508.96,39.72 509.71,39.98 510.46,40.25 511.21,40.54 511.96,40.84 512.72,41.16 513.47,41.50 514.22,41.86 514.97,42.24 515.72,42.64 516.47,43.06 517.22,43.51 517.97,43.98 518.72,44.47 519.47,44.99 520.22,45.53 520.97,46.11 521.72,46.71 522.48,47.34 523.23,48.00 523.98,48.70 524.73,49.43 525.48,50.19 526.23,50.99 526.98,51.83 527.73,52.70 528.48,53.61 529.23,54.57 529.98,55.57 530.73,56.61 531.48,57.69 532.23,58.82 532.99,60.00 533.74,61.22 534.49,62.50 535.24,63.82 535.99,65.20 536.74,66.63 537.49,68.11 538.24,69.65 538.99,71.24 539.74,72.89 540.49,74.60 541.24,76.37 541.99,78.19 542.74,80.07 543.50,82.02 544.25,84.02 545.00,86.08 545.75,88.20 546.50,90.39 547.25,92.63 548.00,94.94 548.75,97.30 549.50,99.72 550.25,102.20 551.00,104.74 551.75,107.33 552.50,109.98 553.26,112.68 554.01,115.43 554.76,118.23 555.51,121.08 556.26,123.97 557.01,126.90 557.76,129.87 558.51,132.88 559.26,135.92 560.01,138.99 560.76,142.09 561.51,145.20 562.26,148.34 563.01,151.48 563.77,154.64 564.52,157.80 565.27,160.96 566.02,164.11 566.77,167.25 567.52,170.38 568.27,173.48 569.02,176.56 569.77,179.61 570.52,182.62 571.27,185.59 572.02,188.52 572.77,191.39 573.52,194.21 574.28,196.97 575.03,199.66 575.78,202.28 576.53,204.83 577.28,207.31 578.03,209.70 578.78,212.01 579.53,214.24 580.28,216.37 581.03,218.42 581.78,220.38 582.53,222.24 583.28,224.01 584.04,225.69 584.79,227.27 585.54,228.76 586.29,230.17 587.04,231.48 587.79,232.70 588.54,233.84 589.29,234.89 590.04,235.86 590.79,236.76 591.54,237.58 592.29,238.32 593.04,239.00 593.79,239.62 594.55,240.17 595.30,240.67 596.05,241.12 596.80,241.52 597.55,241.87 598.30,242.18 599.05,242.45 599.80,242.69 600.55,242.90 601.30,243.08 602.05,243.23 602.80,243.36 603.55,243.47 604.30,243.57 605.06,243.65 605.81,243.71 606.56,243.77 607.31,243.82 608.06,243.85 608.81,243.88 609.56,243.91 610.31,243.93 611.06,243.95 611.81,243.96 612.56,243.97 613.31,243.98 614.06,243.98 614.82,243.99 615.57,243.99 616.32,243.99 617.07,243.99 617.82,244.00 618.57,244.00 619.32,244.00 620.07,244.00 620.82,244.00 621.57,244.00 622.32,244.00 623.07,244.00 623.82,244.00 624.57,244.00 625.33,244.00 626.08,244.00 626.83,244.00 627.58,244.00 628.33,244.00 629.08,244.00 629.83,244.00 630.58,244.00 631.33,244.00 632.08,244.00 632.83,244.00 633.58,244.00 634.33,244.00 635.09,244.00 635.84,244.00 636.59,244.00 637.34,244.00 638.09,244.00 638.84,244.00 639.59,244.00 640.34,244.00 641.09,244.00 641.84,244.00 642.59,244.00 643.34,244.00 644.09,244.00 644.84,244.00 645.60,244.00 646.35,244.00 647.10,244.00 647.85,244.00 648.60,244.00 649.35,244.00 650.10,244.00 650.85,244.00 651.60,244.00 652.35,244.00 653.10,244.00 653.85,244.00 654.60,244.00 655.35,244.00 656.11,244.00 656.86,244.00 657.61,244.00 658.36,244.00 659.11,244.00 659.86,244.00 660.61,244.00 661.36,244.00 662.11,244.00 662.86,244.00 663.61,244.00 664.36,244.00 665.11,244.00 665.87,244.00 666.62,244.00 667.37,244.00 668.12,244.00 668.87,244.00 669.62,244.00 670.37,244.00 671.12,244.00 671.87,244.00 672.62,244.00 673.37,244.00 674.12,244.00 674.87,244.00 675.62,244.00 676.38,244.00 677.13,244.00 677.88,244.00 678.63,244.00 679.38,244.00 680.13,244.00 680.88,244.00 681.63,244.00 682.38,244.00 683.13,244.00 683.88,244.00 684.63,244.00 685.38,244.00 686.13,244.00 686.89,244.00 687.64,244.00 688.39,244.00 689.14,244.00 689.89,244.00 690.64,244.00 691.39,244.00 692.14,244.00 692.89,244.00 693.64,244.00 694.39,244.00 695.14,244.00 695.89,244.00 696.65,244.00 697.40,244.00 698.15,244.00 698.90,244.00 699.65,244.00 700.40,244.00 701.15,244.00 701.90,244.00 702.65,244.00 703.40,244.00 704.15,244.00 704.90,244.00 705.65,244.00 706.40,244.00 707.16,244.00 707.91,244.00 708.66,244.00 709.41,244.00 710.16,244.00 710.91,244.00 711.66,244.00 712.41,244.00 713.16,244.00 713.91,244.00 714.66,244.00 715.41,244.00 716.16,244.00 716.91,244.00 717.67,244.00 718.42,244.00 719.17,244.00 719.92,244.00 720.67,244.00 721.42,244.00 722.17,244.00 722.92,244.00 723.67,244.00 724.42,244.00 725.17,244.00 725.92,244.00 726.67,244.00 727.43,244.00 728.18,244.00 728.93,244.00 729.68,244.00 730.43,244.00 731.18,244.00 731.93,244.00 732.68,244.00 733.43,244.00 734.18,244.00 734.93,244.00 735.68,244.00 736.43,244.00 737.18,244.00 737.94,244.00 738.69,244.00 739.44,244.00 740.19,244.00 740.94,244.00 741.69,244.00 742.44,244.00 743.19,244.00 743.94,244.00 744.69,244.00 745.44,244.00 746.19,244.00 746.94,244.00 747.70,244.00 748.45,244.00 749.20,244.00 749.95,244.00 750.70,244.00 751.45,244.00 752.20,244.00 752.95,244.00 753.70,244.00 754.45,244.00 755.20,244.00 755.95,244.00 756.70,244.00 757.45,244.00 758.21,244.00 758.96,244.00 759.71,244.00 760.46,244.00 761.21,244.00 761.96,244.00 762.71,244.00 763.46,244.00 764.21,244.00 764.96,244.00 765.71,244.00 766.46,244.00 767.21,244.00 767.96,244.00 768.72,244.00 769.47,244.00 770.22,244.00 770.97,244.00 771.72,244.00 772.47,244.00 773.22,244.00 773.97,244.00 774.72,244.00 775.47,244.00 776.22,244.00 776.97,244.00 777.72,244.00 778.48,244.00 779.23,244.00 779.98,244.00 780.73,244.00 781.48,244.00 782.23,244.00 782.98,244.00 783.73,244.00 784.48,244.00 785.23,244.00 785.98,244.00 786.73,244.00 787.48,244.00 788.23,244.00 788.99,244.00 789.74,244.00 790.49,244.00 791.24,244.00 791.99,244.00 792.74,244.00 793.49,244.00 794.24,244.00 794.99,244.00 795.74,244.00 796.49,244.00 797.24,244.00 797.99,244.00 798.74,244.00 799.50,244.00 800.25,244.00 801.00,244.00 801.75,244.00 802.50,244.00 803.25,244.00 804.00,244.00" />
  <text x="420.0" y="22" text-anchor="middle" font-family="Arial, Helvetica, sans-serif" font-size="15" fill="#102a43">general_gaussian_4p0_0p35 window (time domain)</text>
  <text x="420.0" y="272" text-anchor="middle" font-family="Arial, Helvetica, sans-serif" font-size="12" fill="#334e68">normalized sample index</text>
  <text x="14" y="140.0" transform="rotate(-90 14,140.0)" text-anchor="middle" font-family="Arial, Helvetica, sans-serif" font-size="12" fill="#334e68">amplitude</text>
  <text x="36" y="262" font-family="Arial, Helvetica, sans-serif" font-size="11" fill="#486581">0</text>
  <text x="804" y="262" text-anchor="end" font-family="Arial, Helvetica, sans-serif" font-size="11" fill="#486581">1</text>
  <text x="30" y="40" text-anchor="end" font-family="Arial, Helvetica, sans-serif" font-size="11" fill="#486581">1.0</text>
  <text x="30" y="248" text-anchor="end" font-family="Arial, Helvetica, sans-serif" font-size="11" fill="#486581">0.0</text>
</svg>
