<svg xmlns="http://www.w3.org/2000/svg" width="840" height="280" viewBox="0 0 840 280">
  <rect x="0" y="0" width="840" height="280" fill="#ffffff" />
  <rect x="36" y="36" width="768" height="208" fill="#f7fbff" stroke="#c8d9e6" />
  <polyline fill="none" stroke="#005f73" stroke-width="2" points="36.00,36.00 36.75,59.48 37.50,150.14 38.25,161.21 39.00,168.31 39.75,173.62 40.50,177.88 41.26,181.45 42.01,184.52 42.76,187.22 43.51,189.62 44.26,191.79 45.01,193.78 45.76,195.59 46.51,197.28 47.26,198.84 48.01,117.54 48.76,118.22 49.51,118.86 50.26,119.47 51.01,120.05 51.77,120.60 52.52,121.12 53.27,121.62 54.02,122.10 54.77,122.56 55.52,123.01 56.27,123.43 57.02,123.84 57.77,124.24 58.52,124.62 59.27,124.99 60.02,117.54 60.77,117.89 61.52,118.22 62.28,118.55 63.03,118.87 63.78,119.18 64.53,119.48 65.28,119.77 66.03,120.06 66.78,120.33 67.53,120.60 68.28,120.87 69.03,121.13 69.78,121.38 70.53,121.63 71.28,121.87 72.04,117.56 72.79,117.79 73.54,118.02 74.29,118.24 75.04,118.46 75.79,118.67 76.54,118.88 77.29,119.09 78.04,119.29 78.79,119.49 79.54,119.69 80.29,119.88 81.04,120.07 81.79,120.25 82.55,120.44 83.30,120.62 84.05,117.58 84.80,117.76 85.55,117.93 86.30,118.10 87.05,118.26 87.80,118.43 88.55,118.59 89.30,118.75 90.05,118.90 90.80,119.06 91.55,119.21 92.30,119.36 93.06,119.51 93.81,119.66 94.56,119.80 95.31,119.95 96.06,117.61 96.81,117.75 97.56,117.89 98.31,118.02 99.06,118.16 99.81,118.29 100.56,118.42 101.31,118.55 102.06,118.68 102.82,118.81 103.57,118.93 104.32,119.06 105.07,119.18 105.82,119.30 106.57,119.42 107.32,119.54 108.07,117.65 108.82,117.76 109.57,117.88 110.32,117.99 111.07,118.11 111.82,118.22 112.57,118.33 113.33,118.44 114.08,118.54 114.83,118.65 115.58,118.76 116.33,118.86 117.08,118.97 117.83,119.07 118.58,119.17 119.33,119.27 120.08,117.69 120.83,117.79 121.58,117.89 122.33,117.99 123.09,118.09 123.84,118.18 124.59,118.28 125.34,118.37 126.09,118.46 126.84,118.56 127.59,118.65 128.34,118.74 129.09,118.83 129.84,118.92 130.59,119.01 131.34,119.10 132.09,117.74 132.84,117.83 133.60,117.92 134.35,118.00 135.10,118.09 135.85,118.17 136.60,118.25 137.35,118.34 138.10,118.42 138.85,118.50 139.60,118.58 140.35,118.66 141.10,118.74 141.85,118.82 142.60,118.90 143.35,118.98 144.11,117.80 144.86,117.88 145.61,117.96 146.36,118.03 147.11,118.11 147.86,118.18 148.61,118.26 149.36,118.33 150.11,118.40 150.86,118.48 151.61,118.55 152.36,118.62 153.11,118.69 153.87,118.76 154.62,118.83 155.37,118.90 156.12,117.87 156.87,117.94 157.62,118.01 158.37,118.07 159.12,118.14 159.87,118.21 160.62,118.28 161.37,118.34 162.12,118.41 162.87,118.47 163.62,118.54 164.38,118.60 165.13,118.67 165.88,118.73 166.63,118.79 167.38,118.86 168.13,117.94 168.88,118.00 169.63,118.07 170.38,118.13 171.13,118.19 171.88,118.25 172.63,118.31 173.38,118.37 174.13,118.43 174.89,118.49 175.64,118.55 176.39,118.61 177.14,118.67 177.89,118.73 178.64,118.78 179.39,118.84 180.14,118.02 180.89,118.08 181.64,118.14 182.39,118.19 183.14,118.25 183.89,118.30 184.65,118.36 185.40,118.41 186.15,118.47 186.90,118.52 187.65,118.58 188.40,118.63 189.15,118.69 189.90,118.74 190.65,118.79 191.40,118.84 192.15,118.11 192.90,118.16 193.65,118.21 194.40,118.27 195.16,118.32 195.91,118.37 196.66,118.42 197.41,118.47 198.16,118.52 198.91,118.57 199.66,118.62 200.41,118.67 201.16,118.72 201.91,118.77 202.66,118.82 203.41,118.87 204.16,118.21 204.91,118.25 205.67,118.30 206.42,118.35 207.17,118.40 207.92,118.44 208.67,118.49 209.42,118.54 210.17,118.59 210.92,118.63 211.67,118.68 212.42,118.72 213.17,118.77 213.92,118.82 214.67,118.86 215.43,118.91 216.18,118.31 216.93,118.35 217.68,118.40 218.43,118.44 219.18,118.49 219.93,118.53 220.68,118.57 221.43,118.62 222.18,118.66 222.93,118.70 223.68,118.75 224.43,118.79 225.18,118.83 225.94,118.87 226.69,118.92 227.44,118.96 228.19,118.42 228.94,118.46 229.69,118.50 230.44,118.54 231.19,118.58 231.94,118.63 232.69,118.67 233.44,118.71 234.19,118.75 234.94,118.79 235.70,118.83 236.45,118.87 237.20,118.91 237.95,118.95 238.70,118.99 239.45,119.03 240.20,118.54 240.95,118.58 241.70,118.62 242.45,118.65 243.20,118.69 243.95,118.73 244.70,118.77 245.45,118.81 246.21,118.85 246.96,118.88 247.71,118.92 248.46,118.96 249.21,119.00 249.96,119.03 250.71,119.07 251.46,119.11 252.21,118.66 252.96,118.70 253.71,118.74 254.46,118.77 255.21,118.81 255.96,118.85 256.72,118.88 257.47,118.92 258.22,118.95 258.97,118.99 259.72,119.02 260.47,119.06 261.22,119.09 261.97,119.13 262.72,119.16 263.47,119.20 264.22,118.80 264.97,118.83 265.72,118.87 266.48,118.90 267.23,118.94 267.98,118.97 268.73,119.00 269.48,119.04 270.23,119.07 270.98,119.10 271.73,119.14 272.48,119.17 273.23,119.20 273.98,119.24 274.73,119.27 275.48,119.30 276.23,118.94 276.99,118.98 277.74,119.01 278.49,119.04 279.24,119.07 279.99,119.10 280.74,119.14 281.49,119.17 282.24,119.20 282.99,119.23 283.74,119.26 284.49,119.29 285.24,119.32 285.99,119.35 286.74,119.39 287.50,119.42 288.25,119.10 289.00,119.13 289.75,119.16 290.50,119.19 291.25,119.22 292.00,119.25 292.75,119.28 293.50,119.31 294.25,119.34 295.00,119.37 295.75,119.40 296.50,119.43 297.26,119.46 298.01,119.48 298.76,119.51 299.51,119.54 300.26,119.26 301.01,119.29 301.76,119.32 302.51,119.34 303.26,119.37 304.01,119.40 304.76,119.43 305.51,119.46 306.26,119.49 307.01,119.51 307.77,119.54 308.52,119.57 309.27,119.60 310.02,119.62 310.77,119.65 311.52,119.68 312.27,119.43 313.02,119.46 313.77,119.48 314.52,119.51 315.27,119.54 316.02,119.56 316.77,119.59 317.52,119.62 318.28,119.64 319.03,119.67 319.78,119.70 320.53,119.72 321.28,119.75 322.03,119.78 322.78,119.80 323.53,119.83 324.28,119.61 325.03,119.63 325.78,119.66 326.53,119.69 327.28,119.71 328.04,119.74 328.79,119.76 329.54,119.79 330.29,119.81 331.04,119.84 331.79,119.86 332.54,119.89 333.29,119.91 334.04,119.94 334.79,119.96 335.54,119.99 336.29,119.80 337.04,119.82 337.79,119.85 338.55,119.87 339.30,119.90 340.05,119.92 340.80,119.94 341.55,119.97 342.30,119.99 343.05,120.02 343.80,120.04 344.55,120.06 345.30,120.09 346.05,120.11 346.80,120.13 347.55,120.16 348.30,120.00 349.06,120.02 349.81,120.05 350.56,120.07 351.31,120.09 352.06,120.11 352.81,120.14 353.56,120.16 354.31,120.18 355.06,120.21 355.81,120.23 356.56,120.25 357.31,120.27 358.06,120.30 358.82,120.32 359.57,120.34 360.32,120.21 361.07,120.23 361.82,120.25 362.57,120.28 363.32,120.30 364.07,120.32 364.82,120.34 365.57,120.36 366.32,120.38 367.07,120.41 367.82,120.43 368.57,120.45 369.33,120.47 370.08,120.49 370.83,120.51 371.58,120.53 372.33,120.43 373.08,120.45 373.83,120.47 374.58,120.49 375.33,120.52 376.08,120.54 376.83,120.56 377.58,120.58 378.33,120.60 379.09,120.62 379.84,120.64 380.59,120.66 381.34,120.68 382.09,120.70 382.84,120.72 383.59,120.74 384.34,120.66 385.09,120.68 385.84,120.70 386.59,120.72 387.34,120.74 388.09,120.76 388.84,120.78 389.60,120.80 390.35,120.82 391.10,120.84 391.85,120.86 392.60,120.88 393.35,120.90 394.10,120.92 394.85,120.94 395.60,120.96 396.35,120.91 397.10,120.93 397.85,120.95 398.60,120.97 399.35,120.99 400.11,121.00 400.86,121.02 401.61,121.04 402.36,121.06 403.11,121.08 403.86,121.10 404.61,121.12 405.36,121.13 406.11,121.15 406.86,121.17 407.61,121.19 408.36,121.17 409.11,121.18 409.87,121.20 410.62,121.22 411.37,121.24 412.12,121.26 412.87,121.27 413.62,121.29 414.37,121.31 415.12,121.33 415.87,121.35 416.62,121.36 417.37,121.38 418.12,121.40 418.87,121.42 419.62,121.43 420.38,121.44 421.13,121.45 421.88,121.47 422.63,121.49 423.38,121.51 424.13,121.52 424.88,121.54 425.63,121.56 426.38,121.57 427.13,121.59 427.88,121.61 428.63,121.62 429.38,121.64 430.13,121.66 430.89,121.67 431.64,121.69 432.39,121.72 433.14,121.74 433.89,121.75 434.64,121.77 435.39,121.79 436.14,121.80 436.89,121.82 437.64,121.83 438.39,121.85 439.14,121.87 439.89,121.88 440.65,121.90 441.40,121.91 442.15,121.93 442.90,121.95 443.65,121.96 444.40,122.02 445.15,122.03 445.90,122.05 446.65,122.07 447.40,122.08 448.15,122.10 448.90,122.11 449.65,122.13 450.40,122.14 451.16,122.16 451.91,122.17 452.66,122.19 453.41,122.20 454.16,122.22 454.91,122.23 455.66,122.25 456.41,122.33 457.16,122.35 457.91,122.36 458.66,122.38 459.41,122.39 460.16,122.41 460.91,122.42 461.67,122.44 462.42,122.45 463.17,122.46 463.92,122.48 464.67,122.49 465.42,122.51 466.17,122.52 466.92,122.54 467.67,122.55 468.42,122.66 469.17,122.68 469.92,122.69 470.67,122.70 471.43,122.72 472.18,122.73 472.93,122.75 473.68,122.76 474.43,122.77 475.18,122.79 475.93,122.80 476.68,122.81 477.43,122.83 478.18,122.84 478.93,122.86 479.68,122.87 480.43,123.01 481.18,123.02 481.94,123.03 482.69,123.05 483.44,123.06 484.19,123.07 484.94,123.09 485.69,123.10 486.44,123.11 487.19,123.13 487.94,123.14 488.69,123.15 489.44,123.17 490.19,123.18 490.94,123.19 491.70,123.21 492.45,123.37 493.20,123.38 493.95,123.40 494.70,123.41 495.45,123.42 496.20,123.44 496.95,123.45 497.70,123.46 498.45,123.47 499.20,123.49 499.95,123.50 500.70,123.51 501.45,123.52 502.21,123.53 502.96,123.55 503.71,123.56 504.46,123.76 505.21,123.77 505.96,123.78 506.71,123.79 507.46,123.80 508.21,123.82 508.96,123.83 509.71,123.84 510.46,123.85 511.21,123.86 511.96,123.87 512.72,123.89 513.47,123.90 514.22,123.91 514.97,123.92 515.72,123.93 516.47,124.16 517.22,124.17 517.97,124.18 518.72,124.19 519.47,124.20 520.22,124.22 520.97,124.23 521.72,124.24 522.48,124.25 523.23,124.26 523.98,124.27 524.73,124.28 525.48,124.29 526.23,124.31 526.98,124.32 527.73,124.33 528.48,124.58 529.23,124.60 529.98,124.61 530.73,124.62 531.48,124.63 532.23,124.64 532.99,124.65 533.74,124.66 534.49,124.67 535.24,124.68 535.99,124.69 536.74,124.70 537.49,124.71 538.24,124.72 538.99,124.73 539.74,124.74 540.49,125.03 541.24,125.04 541.99,125.05 542.74,125.07 543.50,125.08 544.25,125.09 545.00,125.10 545.75,125.11 546.50,125.12 547.25,125.13 548.00,125.14 548.75,125.15 549.50,125.16 550.25,125.17 551.00,125.18 551.75,125.19 552.50,125.51 553.26,125.52 554.01,125.53 554.76,125.54 555.51,125.55 556.26,125.56 557.01,125.57 557.76,125.58 558.51,125.59 559.26,125.60 560.01,125.61 560.76,125.62 561.51,125.62 562.26,125.63 563.01,125.64 563.77,125.65 564.52,126.01 565.27,126.02 566.02,126.03 566.77,126.04 567.52,126.05 568.27,126.06 569.02,126.07 569.77,126.08 570.52,126.09 571.27,126.09 572.02,126.10 572.77,126.11 573.52,126.12 574.28,126.13 575.03,126.14 575.78,126.15 576.53,126.55 577.28,126.56 578.03,126.56 578.78,126.57 579.53,126.58 580.28,126.59 581.03,126.60 581.78,126.61 582.53,126.62 583.28,126.62 584.04,126.63 584.79,126.64 585.54,126.65 586.29,126.66 587.04,126.67 587.79,126.67 588.54,127.11 589.29,127.12 590.04,127.13 590.79,127.14 591.54,127.15 592.29,127.16 593.04,127.16 593.79,127.17 594.55,127.18 595.30,127.19 596.05,127.19 596.80,127.20 597.55,127.21 598.30,127.22 599.05,127.23 599.80,127.23 600.55,127.72 601.30,127.73 602.05,127.74 602.80,127.74 603.55,127.75 604.30,127.76 605.06,127.77 605.81,127.77 606.56,127.78 607.31,127.79 608.06,127.79 608.81,127.80 609.56,127.81 610.31,127.82 611.06,127.82 611.81,127.83 612.56,128.37 613.31,128.37 614.06,128.38 614.82,128.39 615.57,128.39 616.32,128.40 617.07,128.41 617.82,128.42 618.57,128.42 619.32,128.43 620.07,128.44 620.82,128.44 621.57,128.45 622.32,128.46 623.07,128.46 623.82,128.47 624.57,129.06 625.33,129.07 626.08,129.07 626.83,129.08 627.58,129.09 628.33,129.09 629.08,129.10 629.83,129.11 630.58,129.11 631.33,129.12 632.08,129.12 632.83,129.13 633.58,129.14 634.33,129.14 635.09,129.15 635.84,129.16 636.59,129.80 637.34,129.81 638.09,129.82 638.84,129.82 639.59,129.83 640.34,129.84 641.09,129.84 641.84,129.85 642.59,129.85 643.34,129.86 644.09,129.87 644.84,129.87 645.60,129.88 646.35,129.88 647.10,129.89 647.85,129.89 648.60,130.61 649.35,130.62 650.10,130.62 650.85,130.63 651.60,130.63 652.35,130.64 653.10,130.64 653.85,130.65 654.60,130.66 655.35,130.66 656.11,130.67 656.86,130.67 657.61,130.68 658.36,130.68 659.11,130.69 659.86,130.69 660.61,131.49 661.36,131.49 662.11,131.50 662.86,131.50 663.61,131.51 664.36,131.51 665.11,131.52 665.87,131.52 666.62,131.53 667.37,131.53 668.12,131.54 668.87,131.54 669.62,131.55 670.37,131.55 671.12,131.56 671.87,131.56 672.62,132.44 673.37,132.45 674.12,132.45 674.87,132.46 675.62,132.46 676.38,132.47 677.13,132.47 677.88,132.47 678.63,132.48 679.38,132.48 680.13,132.49 680.88,132.49 681.63,132.50 682.38,132.50 683.13,132.51 683.88,132.51 684.63,133.49 685.38,133.50 686.13,133.50 686.89,133.51 687.64,133.51 688.39,133.51 689.14,133.52 689.89,133.52 690.64,133.53 691.39,133.53 692.14,133.54 692.89,133.54 693.64,133.54 694.39,133.55 695.14,133.55 695.89,133.56 696.65,134.66 697.40,134.67 698.15,134.67 698.90,134.67 699.65,134.68 700.40,134.68 701.15,134.68 701.90,134.69 702.65,134.69 703.40,134.70 704.15,134.70 704.90,134.70 705.65,134.71 706.40,134.71 707.16,134.71 707.91,134.72 708.66,135.97 709.41,135.98 710.16,135.98 710.91,135.98 711.66,135.99 712.41,135.99 713.16,135.99 713.91,135.99 714.66,136.00 715.41,136.00 716.16,136.00 716.91,136.01 717.67,136.01 718.42,136.01 719.17,136.02 719.92,136.02 720.67,137.46 721.42,137.47 722.17,137.47 722.92,137.47 723.67,137.47 724.42,137.48 725.17,137.48 725.92,137.48 726.67,137.49 727.43,137.49 728.18,137.49 728.93,137.49 729.68,137.50 730.43,137.50 731.18,137.50 731.93,137.50 732.68,139.19 733.43,139.19 734.18,139.19 734.93,139.20 735.68,139.20 736.43,139.20 737.18,139.20 737.94,139.20 738.69,139.21 739.44,139.21 740.19,139.21 740.94,139.21 741.69,139.22 742.44,139.22 743.19,139.22 743.94,139.22 744.69,141.23 745.44,141.24 746.19,141.24 746.94,141.24 747.70,141.24 748.45,141.24 749.20,141.25 749.95,141.25 750.70,141.25 751.45,141.25 752.20,141.25 752.95,141.26 753.70,141.26 754.45,141.26 755.20,141.26 755.95,141.26 756.70,143.74 757.45,143.74 758.21,143.75 758.96,143.75 759.71,143.75 760.46,143.75 761.21,143.75 761.96,143.75 762.71,143.76 763.46,143.76 764.21,143.76 764.96,143.76 765.71,143.76 766.46,143.76 767.21,143.76 767.96,143.76 768.72,146.98 769.47,146.98 770.22,146.99 770.97,146.99 771.72,146.99 772.47,146.99 773.22,146.99 773.97,146.99 774.72,146.99 775.47,146.99 776.22,146.99 776.97,146.99 777.72,147.00 778.48,147.00 779.23,147.00 779.98,147.00 780.73,151.55 781.48,151.56 782.23,151.56 782.98,151.56 783.73,151.56 784.48,151.56 785.23,151.56 785.98,151.56 786.73,151.56 787.48,151.56 788.23,151.56 788.99,151.56 789.74,151.56 790.49,151.56 791.24,151.56 791.99,151.56 792.74,159.38 793.49,159.38 794.24,159.38 794.99,159.38 795.74,159.38 796.49,159.38 797.24,159.38 797.99,159.38 798.74,159.38 799.50,159.38 800.25,159.38 801.00,159.38 801.75,159.38 802.50,159.38 803.25,159.38 804.00,244.00" />
  <text x="420.0" y="22" text-anchor="middle" font-family="Arial, Helvetica, sans-serif" font-size="15" fill="#102a43">general_hamming_0p80 window (magnitude spectrum)</text>
  <text x="420.0" y="272" text-anchor="middle" font-family="Arial, Helvetica, sans-serif" font-size="12" fill="#334e68">normalized frequency</text>
  <text x="14" y="140.0" transform="rotate(-90 14,140.0)" text-anchor="middle" font-family="Arial, Helvetica, sans-serif" font-size="12" fill="#334e68">magnitude (dB)</text>
  <text x="36" y="262" font-family="Arial, Helvetica, sans-serif" font-size="11" fill="#486581">0</text>
  <text x="804" y="262" text-anchor="end" font-family="Arial, Helvetica, sans-serif" font-size="11" fill="#486581">1</text>
  <text x="30" y="40" text-anchor="end" font-family="Arial, Helvetica, sans-serif" font-size="11" fill="#486581">0.0</text>
  <text x="30" y="248" text-anchor="end" font-family="Arial, Helvetica, sans-serif" font-size="11" fill="#486581">-160.0</text>
</svg>
