<svg xmlns="http://www.w3.org/2000/svg" width="840" height="280" viewBox="0 0 840 280">
  <rect x="0" y="0" width="840" height="280" fill="#ffffff" />
  <rect x="36" y="36" width="768" height="208" fill="#f7fbff" stroke="#c8d9e6" />
  <polyline fill="none" stroke="#005f73" stroke-width="2" points="36.00,36.00 36.75,48.40 37.50,139.06 38.25,150.14 39.00,157.24 39.75,162.54 40.50,166.80 41.26,170.37 42.01,173.44 42.76,176.14 43.51,178.55 44.26,180.72 45.01,182.70 45.76,184.52 46.51,186.20 47.26,187.77 48.01,126.73 48.76,127.40 49.51,128.04 50.26,128.65 51.01,129.22 51.77,129.77 52.52,130.29 53.27,130.79 54.02,131.27 54.77,131.73 55.52,132.17 56.27,132.59 57.02,133.00 57.77,133.39 58.52,133.78 59.27,134.14 60.02,126.70 60.77,127.05 61.52,127.39 62.28,127.71 63.03,128.03 63.78,128.34 64.53,128.64 65.28,128.93 66.03,129.21 66.78,129.49 67.53,129.76 68.28,130.03 69.03,130.29 69.78,130.54 70.53,130.79 71.28,131.03 72.04,126.72 72.79,126.95 73.54,127.17 74.29,127.40 75.04,127.62 75.79,127.83 76.54,128.04 77.29,128.25 78.04,128.45 78.79,128.65 79.54,128.84 80.29,129.04 81.04,129.22 81.79,129.41 82.55,129.59 83.30,129.77 84.05,126.74 84.80,126.91 85.55,127.08 86.30,127.25 87.05,127.42 87.80,127.58 88.55,127.74 89.30,127.90 90.05,128.06 90.80,128.22 91.55,128.37 92.30,128.52 93.06,128.67 93.81,128.81 94.56,128.96 95.31,129.10 96.06,126.77 96.81,126.91 97.56,127.04 98.31,127.18 99.06,127.31 99.81,127.45 100.56,127.58 101.31,127.71 102.06,127.84 102.82,127.96 103.57,128.09 104.32,128.21 105.07,128.33 105.82,128.46 106.57,128.58 107.32,128.69 108.07,126.80 108.82,126.92 109.57,127.04 110.32,127.15 111.07,127.26 111.82,127.37 112.57,127.48 113.33,127.59 114.08,127.70 114.83,127.81 115.58,127.91 116.33,128.02 117.08,128.12 117.83,128.22 118.58,128.33 119.33,128.43 120.08,126.85 120.83,126.95 121.58,127.05 122.33,127.14 123.09,127.24 123.84,127.34 124.59,127.43 125.34,127.53 126.09,127.62 126.84,127.71 127.59,127.80 128.34,127.89 129.09,127.98 129.84,128.07 130.59,128.16 131.34,128.25 132.09,126.90 132.84,126.99 133.60,127.07 134.35,127.16 135.10,127.24 135.85,127.33 136.60,127.41 137.35,127.49 138.10,127.57 138.85,127.66 139.60,127.74 140.35,127.82 141.10,127.90 141.85,127.98 142.60,128.05 143.35,128.13 144.11,126.96 144.86,127.04 145.61,127.11 146.36,127.19 147.11,127.26 147.86,127.34 148.61,127.41 149.36,127.48 150.11,127.56 150.86,127.63 151.61,127.70 152.36,127.77 153.11,127.85 153.87,127.92 154.62,127.99 155.37,128.06 156.12,127.02 156.87,127.09 157.62,127.16 158.37,127.23 159.12,127.30 159.87,127.36 160.62,127.43 161.37,127.50 162.12,127.56 162.87,127.63 163.62,127.69 164.38,127.76 165.13,127.82 165.88,127.89 166.63,127.95 167.38,128.01 168.13,127.10 168.88,127.16 169.63,127.22 170.38,127.28 171.13,127.34 171.88,127.41 172.63,127.47 173.38,127.53 174.13,127.59 174.89,127.65 175.64,127.70 176.39,127.76 177.14,127.82 177.89,127.88 178.64,127.94 179.39,128.00 180.14,127.18 180.89,127.23 181.64,127.29 182.39,127.35 183.14,127.40 183.89,127.46 184.65,127.51 185.40,127.57 186.15,127.62 186.90,127.68 187.65,127.73 188.40,127.79 189.15,127.84 189.90,127.89 190.65,127.95 191.40,128.00 192.15,127.26 192.90,127.32 193.65,127.37 194.40,127.42 195.16,127.47 195.91,127.52 196.66,127.57 197.41,127.63 198.16,127.68 198.91,127.73 199.66,127.78 200.41,127.83 201.16,127.87 201.91,127.92 202.66,127.97 203.41,128.02 204.16,127.36 204.91,127.41 205.67,127.46 206.42,127.50 207.17,127.55 207.92,127.60 208.67,127.65 209.42,127.69 210.17,127.74 210.92,127.79 211.67,127.83 212.42,127.88 213.17,127.92 213.92,127.97 214.67,128.02 215.43,128.06 216.18,127.46 216.93,127.51 217.68,127.55 218.43,127.60 219.18,127.64 219.93,127.68 220.68,127.73 221.43,127.77 222.18,127.82 222.93,127.86 223.68,127.90 224.43,127.94 225.18,127.99 225.94,128.03 226.69,128.07 227.44,128.11 228.19,127.57 228.94,127.62 229.69,127.66 230.44,127.70 231.19,127.74 231.94,127.78 232.69,127.82 233.44,127.86 234.19,127.90 234.94,127.94 235.70,127.98 236.45,128.02 237.20,128.06 237.95,128.10 238.70,128.14 239.45,128.18 240.20,127.69 240.95,127.73 241.70,127.77 242.45,127.81 243.20,127.85 243.95,127.89 244.70,127.92 245.45,127.96 246.21,128.00 246.96,128.04 247.71,128.08 248.46,128.11 249.21,128.15 249.96,128.19 250.71,128.22 251.46,128.26 252.21,127.82 252.96,127.86 253.71,127.89 254.46,127.93 255.21,127.96 255.96,128.00 256.72,128.04 257.47,128.07 258.22,128.11 258.97,128.14 259.72,128.18 260.47,128.21 261.22,128.25 261.97,128.28 262.72,128.32 263.47,128.35 264.22,127.95 264.97,127.99 265.72,128.02 266.48,128.06 267.23,128.09 267.98,128.12 268.73,128.16 269.48,128.19 270.23,128.23 270.98,128.26 271.73,128.29 272.48,128.32 273.23,128.36 273.98,128.39 274.73,128.42 275.48,128.46 276.23,128.10 276.99,128.13 277.74,128.16 278.49,128.19 279.24,128.23 279.99,128.26 280.74,128.29 281.49,128.32 282.24,128.35 282.99,128.38 283.74,128.42 284.49,128.45 285.24,128.48 285.99,128.51 286.74,128.54 287.50,128.57 288.25,128.25 289.00,128.28 289.75,128.31 290.50,128.34 291.25,128.37 292.00,128.40 292.75,128.43 293.50,128.46 294.25,128.49 295.00,128.52 295.75,128.55 296.50,128.58 297.26,128.61 298.01,128.64 298.76,128.67 299.51,128.70 300.26,128.41 301.01,128.44 301.76,128.47 302.51,128.50 303.26,128.53 304.01,128.56 304.76,128.58 305.51,128.61 306.26,128.64 307.01,128.67 307.77,128.70 308.52,128.72 309.27,128.75 310.02,128.78 310.77,128.81 311.52,128.83 312.27,128.58 313.02,128.61 313.77,128.64 314.52,128.66 315.27,128.69 316.02,128.72 316.77,128.75 317.52,128.77 318.28,128.80 319.03,128.83 319.78,128.85 320.53,128.88 321.28,128.90 322.03,128.93 322.78,128.96 323.53,128.98 324.28,128.76 325.03,128.79 325.78,128.81 326.53,128.84 327.28,128.87 328.04,128.89 328.79,128.92 329.54,128.94 330.29,128.97 331.04,128.99 331.79,129.02 332.54,129.04 333.29,129.07 334.04,129.09 334.79,129.12 335.54,129.14 336.29,128.95 337.04,128.98 337.79,129.00 338.55,129.03 339.30,129.05 340.05,129.07 340.80,129.10 341.55,129.12 342.30,129.15 343.05,129.17 343.80,129.19 344.55,129.22 345.30,129.24 346.05,129.27 346.80,129.29 347.55,129.31 348.30,129.15 349.06,129.18 349.81,129.20 350.56,129.22 351.31,129.25 352.06,129.27 352.81,129.29 353.56,129.31 354.31,129.34 355.06,129.36 355.81,129.38 356.56,129.41 357.31,129.43 358.06,129.45 358.82,129.47 359.57,129.49 360.32,129.36 361.07,129.39 361.82,129.41 362.57,129.43 363.32,129.45 364.07,129.47 364.82,129.50 365.57,129.52 366.32,129.54 367.07,129.56 367.82,129.58 368.57,129.60 369.33,129.63 370.08,129.65 370.83,129.67 371.58,129.69 372.33,129.59 373.08,129.61 373.83,129.63 374.58,129.65 375.33,129.67 376.08,129.69 376.83,129.71 377.58,129.73 378.33,129.75 379.09,129.77 379.84,129.79 380.59,129.81 381.34,129.83 382.09,129.85 382.84,129.87 383.59,129.89 384.34,129.82 385.09,129.84 385.84,129.86 386.59,129.88 387.34,129.90 388.09,129.92 388.84,129.94 389.60,129.96 390.35,129.98 391.10,130.00 391.85,130.02 392.60,130.04 393.35,130.06 394.10,130.07 394.85,130.09 395.60,130.11 396.35,130.06 397.10,130.08 397.85,130.10 398.60,130.12 399.35,130.14 400.11,130.16 400.86,130.18 401.61,130.20 402.36,130.21 403.11,130.23 403.86,130.25 404.61,130.27 405.36,130.29 406.11,130.31 406.86,130.33 407.61,130.34 408.36,130.32 409.11,130.34 409.87,130.36 410.62,130.38 411.37,130.39 412.12,130.41 412.87,130.43 413.62,130.45 414.37,130.46 415.12,130.48 415.87,130.50 416.62,130.52 417.37,130.54 418.12,130.55 418.87,130.57 419.62,130.59 420.38,130.59 421.13,130.61 421.88,130.63 422.63,130.64 423.38,130.66 424.13,130.68 424.88,130.69 425.63,130.71 426.38,130.73 427.13,130.74 427.88,130.76 428.63,130.78 429.38,130.80 430.13,130.81 430.89,130.83 431.64,130.84 432.39,130.88 433.14,130.89 433.89,130.91 434.64,130.92 435.39,130.94 436.14,130.96 436.89,130.97 437.64,130.99 438.39,131.01 439.14,131.02 439.89,131.04 440.65,131.05 441.40,131.07 442.15,131.09 442.90,131.10 443.65,131.12 444.40,131.17 445.15,131.19 445.90,131.20 446.65,131.22 447.40,131.24 448.15,131.25 448.90,131.27 449.65,131.28 450.40,131.30 451.16,131.31 451.91,131.33 452.66,131.34 453.41,131.36 454.16,131.37 454.91,131.39 455.66,131.40 456.41,131.49 457.16,131.50 457.91,131.52 458.66,131.53 459.41,131.55 460.16,131.56 460.91,131.58 461.67,131.59 462.42,131.60 463.17,131.62 463.92,131.63 464.67,131.65 465.42,131.66 466.17,131.68 466.92,131.69 467.67,131.71 468.42,131.82 469.17,131.83 469.92,131.84 470.67,131.86 471.43,131.87 472.18,131.89 472.93,131.90 473.68,131.91 474.43,131.93 475.18,131.94 475.93,131.96 476.68,131.97 477.43,131.98 478.18,132.00 478.93,132.01 479.68,132.02 480.43,132.16 481.18,132.18 481.94,132.19 482.69,132.20 483.44,132.22 484.19,132.23 484.94,132.24 485.69,132.26 486.44,132.27 487.19,132.28 487.94,132.29 488.69,132.31 489.44,132.32 490.19,132.33 490.94,132.35 491.70,132.36 492.45,132.53 493.20,132.54 493.95,132.55 494.70,132.56 495.45,132.58 496.20,132.59 496.95,132.60 497.70,132.61 498.45,132.63 499.20,132.64 499.95,132.65 500.70,132.66 501.45,132.68 502.21,132.69 502.96,132.70 503.71,132.71 504.46,132.91 505.21,132.92 505.96,132.93 506.71,132.95 507.46,132.96 508.21,132.97 508.96,132.98 509.71,132.99 510.46,133.01 511.21,133.02 511.96,133.03 512.72,133.04 513.47,133.05 514.22,133.06 514.97,133.08 515.72,133.09 516.47,133.31 517.22,133.32 517.97,133.34 518.72,133.35 519.47,133.36 520.22,133.37 520.97,133.38 521.72,133.39 522.48,133.40 523.23,133.42 523.98,133.43 524.73,133.44 525.48,133.45 526.23,133.46 526.98,133.47 527.73,133.48 528.48,133.74 529.23,133.75 529.98,133.76 530.73,133.77 531.48,133.78 532.23,133.79 532.99,133.80 533.74,133.81 534.49,133.83 535.24,133.84 535.99,133.85 536.74,133.86 537.49,133.87 538.24,133.88 538.99,133.89 539.74,133.90 540.49,134.19 541.24,134.20 541.99,134.21 542.74,134.22 543.50,134.23 544.25,134.24 545.00,134.25 545.75,134.26 546.50,134.27 547.25,134.28 548.00,134.29 548.75,134.30 549.50,134.31 550.25,134.32 551.00,134.33 551.75,134.34 552.50,134.66 553.26,134.67 554.01,134.68 554.76,134.69 555.51,134.70 556.26,134.71 557.01,134.72 557.76,134.73 558.51,134.74 559.26,134.75 560.01,134.76 560.76,134.77 561.51,134.78 562.26,134.79 563.01,134.80 563.77,134.81 564.52,135.17 565.27,135.18 566.02,135.19 566.77,135.20 567.52,135.20 568.27,135.21 569.02,135.22 569.77,135.23 570.52,135.24 571.27,135.25 572.02,135.26 572.77,135.27 573.52,135.28 574.28,135.28 575.03,135.29 575.78,135.30 576.53,135.70 577.28,135.71 578.03,135.72 578.78,135.73 579.53,135.74 580.28,135.74 581.03,135.75 581.78,135.76 582.53,135.77 583.28,135.78 584.04,135.79 584.79,135.80 585.54,135.80 586.29,135.81 587.04,135.82 587.79,135.83 588.54,136.27 589.29,136.28 590.04,136.29 590.79,136.29 591.54,136.30 592.29,136.31 593.04,136.32 593.79,136.33 594.55,136.33 595.30,136.34 596.05,136.35 596.80,136.36 597.55,136.37 598.30,136.37 599.05,136.38 599.80,136.39 600.55,136.87 601.30,136.88 602.05,136.89 602.80,136.90 603.55,136.90 604.30,136.91 605.06,136.92 605.81,136.93 606.56,136.93 607.31,136.94 608.06,136.95 608.81,136.96 609.56,136.96 610.31,136.97 611.06,136.98 611.81,136.99 612.56,137.52 613.31,137.53 614.06,137.54 614.82,137.54 615.57,137.55 616.32,137.56 617.07,137.56 617.82,137.57 618.57,137.58 619.32,137.58 620.07,137.59 620.82,137.60 621.57,137.60 622.32,137.61 623.07,137.62 623.82,137.62 624.57,138.21 625.33,138.22 626.08,138.23 626.83,138.23 627.58,138.24 628.33,138.25 629.08,138.25 629.83,138.26 630.58,138.27 631.33,138.27 632.08,138.28 632.83,138.29 633.58,138.29 634.33,138.30 635.09,138.30 635.84,138.31 636.59,138.96 637.34,138.97 638.09,138.97 638.84,138.98 639.59,138.98 640.34,138.99 641.09,139.00 641.84,139.00 642.59,139.01 643.34,139.01 644.09,139.02 644.84,139.03 645.60,139.03 646.35,139.04 647.10,139.04 647.85,139.05 648.60,139.77 649.35,139.77 650.10,139.78 650.85,139.78 651.60,139.79 652.35,139.79 653.10,139.80 653.85,139.80 654.60,139.81 655.35,139.82 656.11,139.82 656.86,139.83 657.61,139.83 658.36,139.84 659.11,139.84 659.86,139.85 660.61,140.64 661.36,140.65 662.11,140.65 662.86,140.66 663.61,140.66 664.36,140.67 665.11,140.67 665.87,140.68 666.62,140.68 667.37,140.69 668.12,140.69 668.87,140.70 669.62,140.70 670.37,140.71 671.12,140.71 671.87,140.72 672.62,141.60 673.37,141.60 674.12,141.61 674.87,141.61 675.62,141.61 676.38,141.62 677.13,141.62 677.88,141.63 678.63,141.63 679.38,141.64 680.13,141.64 680.88,141.65 681.63,141.65 682.38,141.66 683.13,141.66 683.88,141.66 684.63,142.65 685.38,142.65 686.13,142.66 686.89,142.66 687.64,142.67 688.39,142.67 689.14,142.67 689.89,142.68 690.64,142.68 691.39,142.69 692.14,142.69 692.89,142.69 693.64,142.70 694.39,142.70 695.14,142.71 695.89,142.71 696.65,143.82 697.40,143.82 698.15,143.82 698.90,143.83 699.65,143.83 700.40,143.83 701.15,143.84 701.90,143.84 702.65,143.85 703.40,143.85 704.15,143.85 704.90,143.86 705.65,143.86 706.40,143.86 707.16,143.87 707.91,143.87 708.66,145.13 709.41,145.13 710.16,145.13 710.91,145.14 711.66,145.14 712.41,145.14 713.16,145.15 713.91,145.15 714.66,145.15 715.41,145.16 716.16,145.16 716.91,145.16 717.67,145.17 718.42,145.17 719.17,145.17 719.92,145.17 720.67,146.62 721.42,146.62 722.17,146.62 722.92,146.63 723.67,146.63 724.42,146.63 725.17,146.63 725.92,146.64 726.67,146.64 727.43,146.64 728.18,146.65 728.93,146.65 729.68,146.65 730.43,146.65 731.18,146.66 731.93,146.66 732.68,148.34 733.43,148.34 734.18,148.35 734.93,148.35 735.68,148.35 736.43,148.35 737.18,148.36 737.94,148.36 738.69,148.36 739.44,148.36 740.19,148.37 740.94,148.37 741.69,148.37 742.44,148.37 743.19,148.38 743.94,148.38 744.69,150.39 745.44,150.39 746.19,150.39 746.94,150.39 747.70,150.40 748.45,150.40 749.20,150.40 749.95,150.40 750.70,150.40 751.45,150.41 752.20,150.41 752.95,150.41 753.70,150.41 754.45,150.41 755.20,150.41 755.95,150.42 756.70,152.90 757.45,152.90 758.21,152.90 758.96,152.90 759.71,152.90 760.46,152.91 761.21,152.91 761.96,152.91 762.71,152.91 763.46,152.91 764.21,152.91 764.96,152.91 765.71,152.92 766.46,152.92 767.21,152.92 767.96,152.92 768.72,156.14 769.47,156.14 770.22,156.14 770.97,156.14 771.72,156.14 772.47,156.14 773.22,156.14 773.97,156.15 774.72,156.15 775.47,156.15 776.22,156.15 776.97,156.15 777.72,156.15 778.48,156.15 779.23,156.15 779.98,156.15 780.73,160.71 781.48,160.71 782.23,160.71 782.98,160.71 783.73,160.71 784.48,160.71 785.23,160.71 785.98,160.71 786.73,160.72 787.48,160.72 788.23,160.72 788.99,160.72 789.74,160.72 790.49,160.72 791.24,160.72 791.99,160.72 792.74,168.53 793.49,168.53 794.24,168.53 794.99,168.53 795.74,168.53 796.49,168.53 797.24,168.53 797.99,168.53 798.74,168.53 799.50,168.53 800.25,168.54 801.00,168.54 801.75,168.54 802.50,168.54 803.25,168.54 804.00,244.00" />
  <text x="420.0" y="22" text-anchor="middle" font-family="Arial, Helvetica, sans-serif" font-size="15" fill="#102a43">general_hamming_0p60 window (magnitude spectrum)</text>
  <text x="420.0" y="272" text-anchor="middle" font-family="Arial, Helvetica, sans-serif" font-size="12" fill="#334e68">normalized frequency</text>
  <text x="14" y="140.0" transform="rotate(-90 14,140.0)" text-anchor="middle" font-family="Arial, Helvetica, sans-serif" font-size="12" fill="#334e68">magnitude (dB)</text>
  <text x="36" y="262" font-family="Arial, Helvetica, sans-serif" font-size="11" fill="#486581">0</text>
  <text x="804" y="262" text-anchor="end" font-family="Arial, Helvetica, sans-serif" font-size="11" fill="#486581">1</text>
  <text x="30" y="40" text-anchor="end" font-family="Arial, Helvetica, sans-serif" font-size="11" fill="#486581">0.0</text>
  <text x="30" y="248" text-anchor="end" font-family="Arial, Helvetica, sans-serif" font-size="11" fill="#486581">-160.0</text>
</svg>
