<svg xmlns="http://www.w3.org/2000/svg" width="840" height="280" viewBox="0 0 840 280">
  <rect x="0" y="0" width="840" height="280" fill="#ffffff" />
  <rect x="36" y="36" width="768" height="208" fill="#f7fbff" stroke="#c8d9e6" />
  <polyline fill="none" stroke="#005f73" stroke-width="2" points="36.00,244.00 36.75,244.00 37.50,244.00 38.25,244.00 39.00,244.00 39.75,244.00 40.50,244.00 41.26,244.00 42.01,244.00 42.76,244.00 43.51,244.00 44.26,244.00 45.01,244.00 45.76,244.00 46.51,244.00 47.26,244.00 48.01,244.00 48.76,244.00 49.51,244.00 50.26,244.00 51.01,244.00 51.77,244.00 52.52,244.00 53.27,244.00 54.02,244.00 54.77,244.00 55.52,244.00 56.27,244.00 57.02,244.00 57.77,244.00 58.52,244.00 59.27,244.00 60.02,244.00 60.77,244.00 61.52,244.00 62.28,244.00 63.03,244.00 63.78,244.00 64.53,244.00 65.28,244.00 66.03,244.00 66.78,244.00 67.53,244.00 68.28,244.00 69.03,244.00 69.78,244.00 70.53,244.00 71.28,244.00 72.04,244.00 72.79,244.00 73.54,244.00 74.29,244.00 75.04,244.00 75.79,244.00 76.54,244.00 77.29,244.00 78.04,244.00 78.79,244.00 79.54,244.00 80.29,244.00 81.04,244.00 81.79,244.00 82.55,244.00 83.30,244.00 84.05,244.00 84.80,244.00 85.55,244.00 86.30,244.00 87.05,244.00 87.80,244.00 88.55,244.00 89.30,244.00 90.05,244.00 90.80,244.00 91.55,244.00 92.30,244.00 93.06,244.00 93.81,244.00 94.56,244.00 95.31,244.00 96.06,244.00 96.81,244.00 97.56,244.00 98.31,244.00 99.06,244.00 99.81,244.00 100.56,244.00 101.31,244.00 102.06,244.00 102.82,244.00 103.57,244.00 104.32,244.00 105.07,244.00 105.82,244.00 106.57,244.00 107.32,244.00 108.07,244.00 108.82,244.00 109.57,244.00 110.32,244.00 111.07,244.00 111.82,244.00 112.57,244.00 113.33,244.00 114.08,244.00 114.83,244.00 115.58,244.00 116.33,244.00 117.08,244.00 117.83,244.00 118.58,244.00 119.33,244.00 120.08,244.00 120.83,244.00 121.58,244.00 122.33,244.00 123.09,244.00 123.84,244.00 124.59,244.00 125.34,244.00 126.09,244.00 126.84,244.00 127.59,244.00 128.34,244.00 129.09,244.00 129.84,244.00 130.59,244.00 131.34,244.00 132.09,244.00 132.84,244.00 133.60,244.00 134.35,244.00 135.10,244.00 135.85,244.00 136.60,244.00 137.35,244.00 138.10,244.00 138.85,244.00 139.60,244.00 140.35,244.00 141.10,244.00 141.85,244.00 142.60,244.00 143.35,244.00 144.11,244.00 144.86,244.00 145.61,244.00 146.36,244.00 147.11,244.00 147.86,244.00 148.61,244.00 149.36,244.00 150.11,244.00 150.86,244.00 151.61,244.00 152.36,244.00 153.11,244.00 153.87,244.00 154.62,244.00 155.37,244.00 156.12,244.00 156.87,244.00 157.62,244.00 158.37,244.00 159.12,244.00 159.87,244.00 160.62,244.00 161.37,244.00 162.12,244.00 162.87,244.00 163.62,244.00 164.38,244.00 165.13,244.00 165.88,244.00 166.63,244.00 167.38,244.00 168.13,244.00 168.88,244.00 169.63,244.00 170.38,244.00 171.13,244.00 171.88,244.00 172.63,244.00 173.38,244.00 174.13,244.00 174.89,244.00 175.64,244.00 176.39,244.00 177.14,244.00 177.89,244.00 178.64,244.00 179.39,244.00 180.14,244.00 180.89,244.00 181.64,244.00 182.39,244.00 183.14,244.00 183.89,244.00 184.65,244.00 185.40,244.00 186.15,244.00 186.90,244.00 187.65,244.00 188.40,244.00 189.15,244.00 189.90,244.00 190.65,244.00 191.40,244.00 192.15,244.00 192.90,244.00 193.65,244.00 194.40,244.00 195.16,244.00 195.91,244.00 196.66,243.99 197.41,243.99 198.16,243.99 198.91,243.99 199.66,243.99 200.41,243.98 201.16,243.98 201.91,243.98 202.66,243.97 203.41,243.97 204.16,243.96 204.91,243.95 205.67,243.95 206.42,243.94 207.17,243.92 207.92,243.91 208.67,243.89 209.42,243.87 210.17,243.85 210.92,243.83 211.67,243.80 212.42,243.77 213.17,243.73 213.92,243.69 214.67,243.64 215.43,243.59 216.18,243.53 216.93,243.47 217.68,243.39 218.43,243.31 219.18,243.21 219.93,243.11 220.68,243.00 221.43,242.87 222.18,242.73 222.93,242.57 223.68,242.40 224.43,242.22 225.18,242.01 225.94,241.79 226.69,241.55 227.44,241.28 228.19,241.00 228.94,240.68 229.69,240.35 230.44,239.99 231.19,239.60 231.94,239.18 232.69,238.73 233.44,238.25 234.19,237.73 234.94,237.18 235.70,236.60 236.45,235.98 237.20,235.32 237.95,234.62 238.70,233.88 239.45,233.10 240.20,232.28 240.95,231.41 241.70,230.50 242.45,229.55 243.20,228.55 243.95,227.50 244.70,226.41 245.45,225.27 246.21,224.08 246.96,222.85 247.71,221.57 248.46,220.24 249.21,218.87 249.96,217.44 250.71,215.97 251.46,214.46 252.21,212.90 252.96,211.29 253.71,209.64 254.46,207.94 255.21,206.20 255.96,204.42 256.72,202.60 257.47,200.74 258.22,198.84 258.97,196.90 259.72,194.93 260.47,192.92 261.22,190.88 261.97,188.81 262.72,186.72 263.47,184.59 264.22,182.44 264.97,180.26 265.72,178.06 266.48,175.84 267.23,173.61 267.98,171.35 268.73,169.08 269.48,166.80 270.23,164.51 270.98,162.21 271.73,159.90 272.48,157.59 273.23,155.27 273.98,152.96 274.73,150.64 275.48,148.32 276.23,146.01 276.99,143.71 277.74,141.41 278.49,139.12 279.24,136.85 279.99,134.58 280.74,132.33 281.49,130.09 282.24,127.88 282.99,125.68 283.74,123.49 284.49,121.33 285.24,119.19 285.99,117.08 286.74,114.98 287.50,112.92 288.25,110.88 289.00,108.86 289.75,106.87 290.50,104.92 291.25,102.99 292.00,101.09 292.75,99.22 293.50,97.38 294.25,95.57 295.00,93.80 295.75,92.05 296.50,90.34 297.26,88.66 298.01,87.02 298.76,85.41 299.51,83.83 300.26,82.28 301.01,80.77 301.76,79.29 302.51,77.85 303.26,76.43 304.01,75.06 304.76,73.71 305.51,72.40 306.26,71.12 307.01,69.87 307.77,68.65 308.52,67.47 309.27,66.32 310.02,65.20 310.77,64.11 311.52,63.05 312.27,62.02 313.02,61.02 313.77,60.04 314.52,59.10 315.27,58.19 316.02,57.30 316.77,56.44 317.52,55.61 318.28,54.81 319.03,54.03 319.78,53.27 320.53,52.54 321.28,51.84 322.03,51.16 322.78,50.50 323.53,49.86 324.28,49.25 325.03,48.66 325.78,48.09 326.53,47.54 327.28,47.01 328.04,46.50 328.79,46.01 329.54,45.54 330.29,45.08 331.04,44.65 331.79,44.23 332.54,43.83 333.29,43.44 334.04,43.07 334.79,42.71 335.54,42.37 336.29,42.04 337.04,41.73 337.79,41.43 338.55,41.15 339.30,40.87 340.05,40.61 340.80,40.36 341.55,40.12 342.30,39.89 343.05,39.67 343.80,39.47 344.55,39.27 345.30,39.08 346.05,38.90 346.80,38.73 347.55,38.57 348.30,38.41 349.06,38.27 349.81,38.13 350.56,38.00 351.31,37.87 352.06,37.75 352.81,37.64 353.56,37.53 354.31,37.43 355.06,37.34 355.81,37.25 356.56,37.16 357.31,37.08 358.06,37.01 358.82,36.94 359.57,36.87 360.32,36.81 361.07,36.75 361.82,36.69 362.57,36.64 363.32,36.59 364.07,36.55 364.82,36.51 365.57,36.47 366.32,36.43 367.07,36.39 367.82,36.36 368.57,36.33 369.33,36.30 370.08,36.28 370.83,36.25 371.58,36.23 372.33,36.21 373.08,36.19 373.83,36.17 374.58,36.16 375.33,36.14 376.08,36.13 376.83,36.12 377.58,36.11 378.33,36.09 379.09,36.08 379.84,36.08 380.59,36.07 381.34,36.06 382.09,36.05 382.84,36.05 383.59,36.04 384.34,36.04 385.09,36.03 385.84,36.03 386.59,36.03 387.34,36.02 388.09,36.02 388.84,36.02 389.60,36.01 390.35,36.01 391.10,36.01 391.85,36.01 392.60,36.01 393.35,36.01 394.10,36.01 394.85,36.00 395.60,36.00 396.35,36.00 397.10,36.00 397.85,36.00 398.60,36.00 399.35,36.00 400.11,36.00 400.86,36.00 401.61,36.00 402.36,36.00 403.11,36.00 403.86,36.00 404.61,36.00 405.36,36.00 406.11,36.00 406.86,36.00 407.61,36.00 408.36,36.00 409.11,36.00 409.87,36.00 410.62,36.00 411.37,36.00 412.12,36.00 412.87,36.00 413.62,36.00 414.37,36.00 415.12,36.00 415.87,36.00 416.62,36.00 417.37,36.00 418.12,36.00 418.87,36.00 419.62,36.00 420.38,36.00 421.13,36.00 421.88,36.00 422.63,36.00 423.38,36.00 424.13,36.00 424.88,36.00 425.63,36.00 426.38,36.00 427.13,36.00 427.88,36.00 428.63,36.00 429.38,36.00 430.13,36.00 430.89,36.00 431.64,36.00 432.39,36.00 433.14,36.00 433.89,36.00 434.64,36.00 435.39,36.00 436.14,36.00 436.89,36.00 437.64,36.00 438.39,36.00 439.14,36.00 439.89,36.00 440.65,36.00 441.40,36.00 442.15,36.00 442.90,36.00 443.65,36.00 444.40,36.00 445.15,36.00 445.90,36.01 446.65,36.01 447.40,36.01 448.15,36.01 448.90,36.01 449.65,36.01 450.40,36.01 451.16,36.02 451.91,36.02 452.66,36.02 453.41,36.02 454.16,36.03 454.91,36.03 455.66,36.04 456.41,36.04 457.16,36.04 457.91,36.05 458.66,36.06 459.41,36.06 460.16,36.07 460.91,36.08 461.67,36.09 462.42,36.10 463.17,36.11 463.92,36.12 464.67,36.14 465.42,36.15 466.17,36.17 466.92,36.18 467.67,36.20 468.42,36.22 469.17,36.24 469.92,36.27 470.67,36.29 471.43,36.32 472.18,36.35 472.93,36.38 473.68,36.41 474.43,36.45 475.18,36.49 475.93,36.53 476.68,36.57 477.43,36.62 478.18,36.67 478.93,36.72 479.68,36.78 480.43,36.84 481.18,36.90 481.94,36.97 482.69,37.05 483.44,37.12 484.19,37.21 484.94,37.29 485.69,37.38 486.44,37.48 487.19,37.59 487.94,37.70 488.69,37.81 489.44,37.93 490.19,38.06 490.94,38.20 491.70,38.34 492.45,38.49 493.20,38.65 493.95,38.81 494.70,38.99 495.45,39.17 496.20,39.37 496.95,39.57 497.70,39.78 498.45,40.00 499.20,40.24 499.95,40.48 500.70,40.74 501.45,41.01 502.21,41.29 502.96,41.58 503.71,41.89 504.46,42.21 505.21,42.54 505.96,42.89 506.71,43.25 507.46,43.63 508.21,44.02 508.96,44.44 509.71,44.86 510.46,45.31 511.21,45.77 511.96,46.25 512.72,46.75 513.47,47.27 514.22,47.81 514.97,48.37 515.72,48.95 516.47,49.55 517.22,50.18 517.97,50.82 518.72,51.49 519.47,52.19 520.22,52.90 520.97,53.65 521.72,54.41 522.48,55.21 523.23,56.02 523.98,56.87 524.73,57.74 525.48,58.64 526.23,59.57 526.98,60.53 527.73,61.51 528.48,62.53 529.23,63.57 529.98,64.65 530.73,65.75 531.48,66.89 532.23,68.06 532.99,69.26 533.74,70.49 534.49,71.75 535.24,73.05 535.99,74.38 536.74,75.74 537.49,77.14 538.24,78.56 538.99,80.03 539.74,81.52 540.49,83.05 541.24,84.61 541.99,86.21 542.74,87.84 543.50,89.50 544.25,91.19 545.00,92.92 545.75,94.68 546.50,96.47 547.25,98.29 548.00,100.15 548.75,102.03 549.50,103.95 550.25,105.89 551.00,107.86 551.75,109.87 552.50,111.89 553.26,113.95 554.01,116.03 554.76,118.13 555.51,120.26 556.26,122.41 557.01,124.58 557.76,126.77 558.51,128.98 559.26,131.21 560.01,133.45 560.76,135.71 561.51,137.98 562.26,140.27 563.01,142.56 563.77,144.86 564.52,147.17 565.27,149.48 566.02,151.80 566.77,154.11 567.52,156.43 568.27,158.75 569.02,161.06 569.77,163.36 570.52,165.66 571.27,167.94 572.02,170.22 572.77,172.48 573.52,174.73 574.28,176.96 575.03,179.16 575.78,181.35 576.53,183.52 577.28,185.66 578.03,187.77 578.78,189.85 579.53,191.91 580.28,193.93 581.03,195.92 581.78,197.87 582.53,199.79 583.28,201.67 584.04,203.51 584.79,205.32 585.54,207.08 586.29,208.79 587.04,210.47 587.79,212.10 588.54,213.68 589.29,215.22 590.04,216.71 590.79,218.16 591.54,219.56 592.29,220.91 593.04,222.22 593.79,223.47 594.55,224.68 595.30,225.85 596.05,226.96 596.80,228.03 597.55,229.05 598.30,230.03 599.05,230.96 599.80,231.85 600.55,232.69 601.30,233.49 602.05,234.25 602.80,234.97 603.55,235.65 604.30,236.29 605.06,236.89 605.81,237.46 606.56,237.99 607.31,238.49 608.06,238.96 608.81,239.39 609.56,239.79 610.31,240.17 611.06,240.52 611.81,240.84 612.56,241.14 613.31,241.42 614.06,241.67 614.82,241.90 615.57,242.12 616.32,242.31 617.07,242.49 617.82,242.65 618.57,242.80 619.32,242.93 620.07,243.06 620.82,243.16 621.57,243.26 622.32,243.35 623.07,243.43 623.82,243.50 624.57,243.56 625.33,243.62 626.08,243.67 626.83,243.71 627.58,243.75 628.33,243.79 629.08,243.82 629.83,243.84 630.58,243.86 631.33,243.88 632.08,243.90 632.83,243.92 633.58,243.93 634.33,243.94 635.09,243.95 635.84,243.96 636.59,243.96 637.34,243.97 638.09,243.98 638.84,243.98 639.59,243.98 640.34,243.99 641.09,243.99 641.84,243.99 642.59,243.99 643.34,243.99 644.09,244.00 644.84,244.00 645.60,244.00 646.35,244.00 647.10,244.00 647.85,244.00 648.60,244.00 649.35,244.00 650.10,244.00 650.85,244.00 651.60,244.00 652.35,244.00 653.10,244.00 653.85,244.00 654.60,244.00 655.35,244.00 656.11,244.00 656.86,244.00 657.61,244.00 658.36,244.00 659.11,244.00 659.86,244.00 660.61,244.00 661.36,244.00 662.11,244.00 662.86,244.00 663.61,244.00 664.36,244.00 665.11,244.00 665.87,244.00 666.62,244.00 667.37,244.00 668.12,244.00 668.87,244.00 669.62,244.00 670.37,244.00 671.12,244.00 671.87,244.00 672.62,244.00 673.37,244.00 674.12,244.00 674.87,244.00 675.62,244.00 676.38,244.00 677.13,244.00 677.88,244.00 678.63,244.00 679.38,244.00 680.13,244.00 680.88,244.00 681.63,244.00 682.38,244.00 683.13,244.00 683.88,244.00 684.63,244.00 685.38,244.00 686.13,244.00 686.89,244.00 687.64,244.00 688.39,244.00 689.14,244.00 689.89,244.00 690.64,244.00 691.39,244.00 692.14,244.00 692.89,244.00 693.64,244.00 694.39,244.00 695.14,244.00 695.89,244.00 696.65,244.00 697.40,244.00 698.15,244.00 698.90,244.00 699.65,244.00 700.40,244.00 701.15,244.00 701.90,244.00 702.65,244.00 703.40,244.00 704.15,244.00 704.90,244.00 705.65,244.00 706.40,244.00 707.16,244.00 707.91,244.00 708.66,244.00 709.41,244.00 710.16,244.00 710.91,244.00 711.66,244.00 712.41,244.00 713.16,244.00 713.91,244.00 714.66,244.00 715.41,244.00 716.16,244.00 716.91,244.00 717.67,244.00 718.42,244.00 719.17,244.00 719.92,244.00 720.67,244.00 721.42,244.00 722.17,244.00 722.92,244.00 723.67,244.00 724.42,244.00 725.17,244.00 725.92,244.00 726.67,244.00 727.43,244.00 728.18,244.00 728.93,244.00 729.68,244.00 730.43,244.00 731.18,244.00 731.93,244.00 732.68,244.00 733.43,244.00 734.18,244.00 734.93,244.00 735.68,244.00 736.43,244.00 737.18,244.00 737.94,244.00 738.69,244.00 739.44,244.00 740.19,244.00 740.94,244.00 741.69,244.00 742.44,244.00 743.19,244.00 743.94,244.00 744.69,244.00 745.44,244.00 746.19,244.00 746.94,244.00 747.70,244.00 748.45,244.00 749.20,244.00 749.95,244.00 750.70,244.00 751.45,244.00 752.20,244.00 752.95,244.00 753.70,244.00 754.45,244.00 755.20,244.00 755.95,244.00 756.70,244.00 757.45,244.00 758.21,244.00 758.96,244.00 759.71,244.00 760.46,244.00 761.21,244.00 761.96,244.00 762.71,244.00 763.46,244.00 764.21,244.00 764.96,244.00 765.71,244.00 766.46,244.00 767.21,244.00 767.96,244.00 768.72,244.00 769.47,244.00 770.22,244.00 770.97,244.00 771.72,244.00 772.47,244.00 773.22,244.00 773.97,244.00 774.72,244.00 775.47,244.00 776.22,244.00 776.97,244.00 777.72,244.00 778.48,244.00 779.23,244.00 779.98,244.00 780.73,244.00 781.48,244.00 782.23,244.00 782.98,244.00 783.73,244.00 784.48,244.00 785.23,244.00 785.98,244.00 786.73,244.00 787.48,244.00 788.23,244.00 788.99,244.00 789.74,244.00 790.49,244.00 791.24,244.00 791.99,244.00 792.74,244.00 793.49,244.00 794.24,244.00 794.99,244.00 795.74,244.00 796.49,244.00 797.24,244.00 797.99,244.00 798.74,244.00 799.50,244.00 800.25,244.00 801.00,244.00 801.75,244.00 802.50,244.00 803.25,244.00 804.00,244.00" />
  <text x="420.0" y="22" text-anchor="middle" font-family="Arial, Helvetica, sans-serif" font-size="15" fill="#102a43">general_gaussian_3p0_0p35 window (time domain)</text>
  <text x="420.0" y="272" text-anchor="middle" font-family="Arial, Helvetica, sans-serif" font-size="12" fill="#334e68">normalized sample index</text>
  <text x="14" y="140.0" transform="rotate(-90 14,140.0)" text-anchor="middle" font-family="Arial, Helvetica, sans-serif" font-size="12" fill="#334e68">amplitude</text>
  <text x="36" y="262" font-family="Arial, Helvetica, sans-serif" font-size="11" fill="#486581">0</text>
  <text x="804" y="262" text-anchor="end" font-family="Arial, Helvetica, sans-serif" font-size="11" fill="#486581">1</text>
  <text x="30" y="40" text-anchor="end" font-family="Arial, Helvetica, sans-serif" font-size="11" fill="#486581">1.0</text>
  <text x="30" y="248" text-anchor="end" font-family="Arial, Helvetica, sans-serif" font-size="11" fill="#486581">0.0</text>
</svg>
