<svg xmlns="http://www.w3.org/2000/svg" width="840" height="280" viewBox="0 0 840 280">
  <rect x="0" y="0" width="840" height="280" fill="#ffffff" />
  <rect x="36" y="36" width="768" height="208" fill="#f7fbff" stroke="#c8d9e6" />
  <polyline fill="none" stroke="#005f73" stroke-width="2" points="36.00,36.00 36.75,45.63 37.50,136.29 38.25,147.37 39.00,154.47 39.75,159.77 40.50,164.03 41.26,167.60 42.01,170.67 42.76,173.37 43.51,175.78 44.26,177.95 45.01,179.93 45.76,181.75 46.51,183.43 47.26,185.00 48.01,135.97 48.76,136.63 49.51,137.26 50.26,137.85 51.01,138.42 51.77,138.96 52.52,139.47 53.27,139.97 54.02,140.44 54.77,140.90 55.52,141.33 56.27,141.76 57.02,142.16 57.77,142.55 58.52,142.93 59.27,143.30 60.02,135.88 60.77,136.23 61.52,136.56 62.28,136.88 63.03,137.20 63.78,137.51 64.53,137.80 65.28,138.10 66.03,138.38 66.78,138.66 67.53,138.93 68.28,139.19 69.03,139.45 69.78,139.70 70.53,139.95 71.28,140.19 72.04,135.88 72.79,136.11 73.54,136.34 74.29,136.56 75.04,136.78 75.79,136.99 76.54,137.20 77.29,137.41 78.04,137.61 78.79,137.81 79.54,138.00 80.29,138.20 81.04,138.39 81.79,138.57 82.55,138.75 83.30,138.93 84.05,135.90 84.80,136.07 85.55,136.24 86.30,136.41 87.05,136.58 87.80,136.74 88.55,136.90 89.30,137.06 90.05,137.22 90.80,137.37 91.55,137.53 92.30,137.68 93.06,137.83 93.81,137.97 94.56,138.12 95.31,138.26 96.06,135.93 96.81,136.07 97.56,136.20 98.31,136.34 99.06,136.47 99.81,136.61 100.56,136.74 101.31,136.87 102.06,136.99 102.82,137.12 103.57,137.25 104.32,137.37 105.07,137.49 105.82,137.61 106.57,137.73 107.32,137.85 108.07,135.96 108.82,136.08 109.57,136.19 110.32,136.31 111.07,136.42 111.82,136.53 112.57,136.64 113.33,136.75 114.08,136.86 114.83,136.96 115.58,137.07 116.33,137.18 117.08,137.28 117.83,137.38 118.58,137.48 119.33,137.59 120.08,136.01 120.83,136.11 121.58,136.20 122.33,136.30 123.09,136.40 123.84,136.49 124.59,136.59 125.34,136.68 126.09,136.78 126.84,136.87 127.59,136.96 128.34,137.05 129.09,137.14 129.84,137.23 130.59,137.32 131.34,137.41 132.09,136.06 132.84,136.14 133.60,136.23 134.35,136.31 135.10,136.40 135.85,136.48 136.60,136.57 137.35,136.65 138.10,136.73 138.85,136.81 139.60,136.89 140.35,136.97 141.10,137.05 141.85,137.13 142.60,137.21 143.35,137.29 144.11,136.12 144.86,136.19 145.61,136.27 146.36,136.34 147.11,136.42 147.86,136.49 148.61,136.57 149.36,136.64 150.11,136.71 150.86,136.79 151.61,136.86 152.36,136.93 153.11,137.00 153.87,137.07 154.62,137.14 155.37,137.21 156.12,136.18 156.87,136.25 157.62,136.32 158.37,136.39 159.12,136.45 159.87,136.52 160.62,136.59 161.37,136.65 162.12,136.72 162.87,136.78 163.62,136.85 164.38,136.91 165.13,136.98 165.88,137.04 166.63,137.11 167.38,137.17 168.13,136.25 168.88,136.32 169.63,136.38 170.38,136.44 171.13,136.50 171.88,136.56 172.63,136.62 173.38,136.68 174.13,136.74 174.89,136.80 175.64,136.86 176.39,136.92 177.14,136.98 177.89,137.04 178.64,137.09 179.39,137.15 180.14,136.33 180.89,136.39 181.64,136.45 182.39,136.50 183.14,136.56 183.89,136.61 184.65,136.67 185.40,136.73 186.15,136.78 186.90,136.83 187.65,136.89 188.40,136.94 189.15,137.00 189.90,137.05 190.65,137.10 191.40,137.16 192.15,136.42 192.90,136.47 193.65,136.53 194.40,136.58 195.16,136.63 195.91,136.68 196.66,136.73 197.41,136.78 198.16,136.83 198.91,136.88 199.66,136.93 200.41,136.98 201.16,137.03 201.91,137.08 202.66,137.13 203.41,137.18 204.16,136.52 204.91,136.56 205.67,136.61 206.42,136.66 207.17,136.71 207.92,136.76 208.67,136.80 209.42,136.85 210.17,136.90 210.92,136.94 211.67,136.99 212.42,137.03 213.17,137.08 213.92,137.13 214.67,137.17 215.43,137.22 216.18,136.62 216.93,136.66 217.68,136.71 218.43,136.75 219.18,136.80 219.93,136.84 220.68,136.88 221.43,136.93 222.18,136.97 222.93,137.01 223.68,137.06 224.43,137.10 225.18,137.14 225.94,137.19 226.69,137.23 227.44,137.27 228.19,136.73 228.94,136.77 229.69,136.81 230.44,136.85 231.19,136.90 231.94,136.94 232.69,136.98 233.44,137.02 234.19,137.06 234.94,137.10 235.70,137.14 236.45,137.18 237.20,137.22 237.95,137.26 238.70,137.30 239.45,137.34 240.20,136.85 240.95,136.89 241.70,136.93 242.45,136.97 243.20,137.00 243.95,137.04 244.70,137.08 245.45,137.12 246.21,137.16 246.96,137.19 247.71,137.23 248.46,137.27 249.21,137.31 249.96,137.34 250.71,137.38 251.46,137.42 252.21,136.98 252.96,137.01 253.71,137.05 254.46,137.08 255.21,137.12 255.96,137.16 256.72,137.19 257.47,137.23 258.22,137.26 258.97,137.30 259.72,137.33 260.47,137.37 261.22,137.40 261.97,137.44 262.72,137.47 263.47,137.51 264.22,137.11 264.97,137.14 265.72,137.18 266.48,137.21 267.23,137.25 267.98,137.28 268.73,137.31 269.48,137.35 270.23,137.38 270.98,137.41 271.73,137.45 272.48,137.48 273.23,137.51 273.98,137.55 274.73,137.58 275.48,137.61 276.23,137.25 276.99,137.29 277.74,137.32 278.49,137.35 279.24,137.38 279.99,137.41 280.74,137.45 281.49,137.48 282.24,137.51 282.99,137.54 283.74,137.57 284.49,137.60 285.24,137.63 285.99,137.67 286.74,137.70 287.50,137.73 288.25,137.41 289.00,137.44 289.75,137.47 290.50,137.50 291.25,137.53 292.00,137.56 292.75,137.59 293.50,137.62 294.25,137.65 295.00,137.68 295.75,137.71 296.50,137.74 297.26,137.77 298.01,137.79 298.76,137.82 299.51,137.85 300.26,137.57 301.01,137.60 301.76,137.63 302.51,137.65 303.26,137.68 304.01,137.71 304.76,137.74 305.51,137.77 306.26,137.80 307.01,137.82 307.77,137.85 308.52,137.88 309.27,137.91 310.02,137.94 310.77,137.96 311.52,137.99 312.27,137.74 313.02,137.77 313.77,137.79 314.52,137.82 315.27,137.85 316.02,137.87 316.77,137.90 317.52,137.93 318.28,137.95 319.03,137.98 319.78,138.01 320.53,138.03 321.28,138.06 322.03,138.09 322.78,138.11 323.53,138.14 324.28,137.92 325.03,137.94 325.78,137.97 326.53,138.00 327.28,138.02 328.04,138.05 328.79,138.07 329.54,138.10 330.29,138.12 331.04,138.15 331.79,138.17 332.54,138.20 333.29,138.22 334.04,138.25 334.79,138.27 335.54,138.30 336.29,138.11 337.04,138.13 337.79,138.16 338.55,138.18 339.30,138.21 340.05,138.23 340.80,138.25 341.55,138.28 342.30,138.30 343.05,138.33 343.80,138.35 344.55,138.37 345.30,138.40 346.05,138.42 346.80,138.45 347.55,138.47 348.30,138.31 349.06,138.33 349.81,138.36 350.56,138.38 351.31,138.40 352.06,138.42 352.81,138.45 353.56,138.47 354.31,138.49 355.06,138.52 355.81,138.54 356.56,138.56 357.31,138.58 358.06,138.61 358.82,138.63 359.57,138.65 360.32,138.52 361.07,138.54 361.82,138.56 362.57,138.59 363.32,138.61 364.07,138.63 364.82,138.65 365.57,138.67 366.32,138.70 367.07,138.72 367.82,138.74 368.57,138.76 369.33,138.78 370.08,138.80 370.83,138.82 371.58,138.84 372.33,138.74 373.08,138.76 373.83,138.78 374.58,138.80 375.33,138.83 376.08,138.85 376.83,138.87 377.58,138.89 378.33,138.91 379.09,138.93 379.84,138.95 380.59,138.97 381.34,138.99 382.09,139.01 382.84,139.03 383.59,139.05 384.34,138.97 385.09,138.99 385.84,139.01 386.59,139.03 387.34,139.05 388.09,139.07 388.84,139.09 389.60,139.11 390.35,139.13 391.10,139.15 391.85,139.17 392.60,139.19 393.35,139.21 394.10,139.23 394.85,139.25 395.60,139.27 396.35,139.22 397.10,139.24 397.85,139.26 398.60,139.28 399.35,139.30 400.11,139.31 400.86,139.33 401.61,139.35 402.36,139.37 403.11,139.39 403.86,139.41 404.61,139.43 405.36,139.44 406.11,139.46 406.86,139.48 407.61,139.50 408.36,139.48 409.11,139.50 409.87,139.51 410.62,139.53 411.37,139.55 412.12,139.57 412.87,139.58 413.62,139.60 414.37,139.62 415.12,139.64 415.87,139.66 416.62,139.67 417.37,139.69 418.12,139.71 418.87,139.73 419.62,139.74 420.38,139.75 421.13,139.76 421.88,139.78 422.63,139.80 423.38,139.82 424.13,139.83 424.88,139.85 425.63,139.87 426.38,139.88 427.13,139.90 427.88,139.92 428.63,139.93 429.38,139.95 430.13,139.97 430.89,139.98 431.64,140.00 432.39,140.03 433.14,140.05 433.89,140.06 434.64,140.08 435.39,140.10 436.14,140.11 436.89,140.13 437.64,140.15 438.39,140.16 439.14,140.18 439.89,140.19 440.65,140.21 441.40,140.23 442.15,140.24 442.90,140.26 443.65,140.27 444.40,140.33 445.15,140.34 445.90,140.36 446.65,140.38 447.40,140.39 448.15,140.41 448.90,140.42 449.65,140.44 450.40,140.45 451.16,140.47 451.91,140.48 452.66,140.50 453.41,140.51 454.16,140.53 454.91,140.54 455.66,140.56 456.41,140.64 457.16,140.66 457.91,140.67 458.66,140.69 459.41,140.70 460.16,140.72 460.91,140.73 461.67,140.75 462.42,140.76 463.17,140.77 463.92,140.79 464.67,140.80 465.42,140.82 466.17,140.83 466.92,140.85 467.67,140.86 468.42,140.97 469.17,140.99 469.92,141.00 470.67,141.01 471.43,141.03 472.18,141.04 472.93,141.06 473.68,141.07 474.43,141.08 475.18,141.10 475.93,141.11 476.68,141.13 477.43,141.14 478.18,141.15 478.93,141.17 479.68,141.18 480.43,141.32 481.18,141.33 481.94,141.34 482.69,141.36 483.44,141.37 484.19,141.38 484.94,141.40 485.69,141.41 486.44,141.42 487.19,141.44 487.94,141.45 488.69,141.46 489.44,141.48 490.19,141.49 490.94,141.50 491.70,141.52 492.45,141.68 493.20,141.69 493.95,141.71 494.70,141.72 495.45,141.73 496.20,141.75 496.95,141.76 497.70,141.77 498.45,141.78 499.20,141.80 499.95,141.81 500.70,141.82 501.45,141.83 502.21,141.85 502.96,141.86 503.71,141.87 504.46,142.07 505.21,142.08 505.96,142.09 506.71,142.10 507.46,142.11 508.21,142.13 508.96,142.14 509.71,142.15 510.46,142.16 511.21,142.17 511.96,142.19 512.72,142.20 513.47,142.21 514.22,142.22 514.97,142.23 515.72,142.24 516.47,142.47 517.22,142.48 517.97,142.49 518.72,142.50 519.47,142.52 520.22,142.53 520.97,142.54 521.72,142.55 522.48,142.56 523.23,142.57 523.98,142.58 524.73,142.59 525.48,142.60 526.23,142.62 526.98,142.63 527.73,142.64 528.48,142.89 529.23,142.91 529.98,142.92 530.73,142.93 531.48,142.94 532.23,142.95 532.99,142.96 533.74,142.97 534.49,142.98 535.24,142.99 535.99,143.00 536.74,143.01 537.49,143.02 538.24,143.03 538.99,143.04 539.74,143.05 540.49,143.34 541.24,143.35 541.99,143.37 542.74,143.38 543.50,143.39 544.25,143.40 545.00,143.41 545.75,143.42 546.50,143.43 547.25,143.44 548.00,143.45 548.75,143.46 549.50,143.47 550.25,143.48 551.00,143.49 551.75,143.50 552.50,143.82 553.26,143.83 554.01,143.84 554.76,143.85 555.51,143.86 556.26,143.87 557.01,143.88 557.76,143.89 558.51,143.90 559.26,143.91 560.01,143.92 560.76,143.93 561.51,143.93 562.26,143.94 563.01,143.95 563.77,143.96 564.52,144.32 565.27,144.33 566.02,144.34 566.77,144.35 567.52,144.36 568.27,144.37 569.02,144.38 569.77,144.39 570.52,144.40 571.27,144.41 572.02,144.41 572.77,144.42 573.52,144.43 574.28,144.44 575.03,144.45 575.78,144.46 576.53,144.86 577.28,144.87 578.03,144.87 578.78,144.88 579.53,144.89 580.28,144.90 581.03,144.91 581.78,144.92 582.53,144.93 583.28,144.93 584.04,144.94 584.79,144.95 585.54,144.96 586.29,144.97 587.04,144.98 587.79,144.98 588.54,145.43 589.29,145.43 590.04,145.44 590.79,145.45 591.54,145.46 592.29,145.47 593.04,145.47 593.79,145.48 594.55,145.49 595.30,145.50 596.05,145.51 596.80,145.51 597.55,145.52 598.30,145.53 599.05,145.54 599.80,145.54 600.55,146.03 601.30,146.04 602.05,146.05 602.80,146.05 603.55,146.06 604.30,146.07 605.06,146.08 605.81,146.08 606.56,146.09 607.31,146.10 608.06,146.11 608.81,146.11 609.56,146.12 610.31,146.13 611.06,146.13 611.81,146.14 612.56,146.68 613.31,146.68 614.06,146.69 614.82,146.70 615.57,146.70 616.32,146.71 617.07,146.72 617.82,146.73 618.57,146.73 619.32,146.74 620.07,146.75 620.82,146.75 621.57,146.76 622.32,146.77 623.07,146.77 623.82,146.78 624.57,147.37 625.33,147.38 626.08,147.38 626.83,147.39 627.58,147.40 628.33,147.40 629.08,147.41 629.83,147.42 630.58,147.42 631.33,147.43 632.08,147.43 632.83,147.44 633.58,147.45 634.33,147.45 635.09,147.46 635.84,147.47 636.59,148.12 637.34,148.12 638.09,148.13 638.84,148.13 639.59,148.14 640.34,148.15 641.09,148.15 641.84,148.16 642.59,148.16 643.34,148.17 644.09,148.18 644.84,148.18 645.60,148.19 646.35,148.19 647.10,148.20 647.85,148.20 648.60,148.92 649.35,148.93 650.10,148.93 650.85,148.94 651.60,148.94 652.35,148.95 653.10,148.95 653.85,148.96 654.60,148.97 655.35,148.97 656.11,148.98 656.86,148.98 657.61,148.99 658.36,148.99 659.11,149.00 659.86,149.00 660.61,149.80 661.36,149.80 662.11,149.81 662.86,149.81 663.61,149.82 664.36,149.82 665.11,149.83 665.87,149.83 666.62,149.84 667.37,149.84 668.12,149.85 668.87,149.85 669.62,149.86 670.37,149.86 671.12,149.87 671.87,149.87 672.62,150.75 673.37,150.76 674.12,150.76 674.87,150.77 675.62,150.77 676.38,150.78 677.13,150.78 677.88,150.78 678.63,150.79 679.38,150.79 680.13,150.80 680.88,150.80 681.63,150.81 682.38,150.81 683.13,150.82 683.88,150.82 684.63,151.80 685.38,151.81 686.13,151.81 686.89,151.82 687.64,151.82 688.39,151.83 689.14,151.83 689.89,151.83 690.64,151.84 691.39,151.84 692.14,151.85 692.89,151.85 693.64,151.85 694.39,151.86 695.14,151.86 695.89,151.87 696.65,152.97 697.40,152.98 698.15,152.98 698.90,152.98 699.65,152.99 700.40,152.99 701.15,152.99 701.90,153.00 702.65,153.00 703.40,153.01 704.15,153.01 704.90,153.01 705.65,153.02 706.40,153.02 707.16,153.02 707.91,153.03 708.66,154.28 709.41,154.29 710.16,154.29 710.91,154.29 711.66,154.30 712.41,154.30 713.16,154.30 713.91,154.31 714.66,154.31 715.41,154.31 716.16,154.31 716.91,154.32 717.67,154.32 718.42,154.32 719.17,154.33 719.92,154.33 720.67,155.77 721.42,155.78 722.17,155.78 722.92,155.78 723.67,155.78 724.42,155.79 725.17,155.79 725.92,155.79 726.67,155.80 727.43,155.80 728.18,155.80 728.93,155.80 729.68,155.81 730.43,155.81 731.18,155.81 731.93,155.81 732.68,157.50 733.43,157.50 734.18,157.50 734.93,157.51 735.68,157.51 736.43,157.51 737.18,157.51 737.94,157.52 738.69,157.52 739.44,157.52 740.19,157.52 740.94,157.52 741.69,157.53 742.44,157.53 743.19,157.53 743.94,157.53 744.69,159.54 745.44,159.55 746.19,159.55 746.94,159.55 747.70,159.55 748.45,159.55 749.20,159.56 749.95,159.56 750.70,159.56 751.45,159.56 752.20,159.56 752.95,159.57 753.70,159.57 754.45,159.57 755.20,159.57 755.95,159.57 756.70,162.05 757.45,162.05 758.21,162.06 758.96,162.06 759.71,162.06 760.46,162.06 761.21,162.06 761.96,162.06 762.71,162.07 763.46,162.07 764.21,162.07 764.96,162.07 765.71,162.07 766.46,162.07 767.21,162.07 767.96,162.07 768.72,165.29 769.47,165.29 770.22,165.30 770.97,165.30 771.72,165.30 772.47,165.30 773.22,165.30 773.97,165.30 774.72,165.30 775.47,165.30 776.22,165.30 776.97,165.31 777.72,165.31 778.48,165.31 779.23,165.31 779.98,165.31 780.73,169.87 781.48,169.87 782.23,169.87 782.98,169.87 783.73,169.87 784.48,169.87 785.23,169.87 785.98,169.87 786.73,169.87 787.48,169.87 788.23,169.87 788.99,169.87 789.74,169.87 790.49,169.87 791.24,169.87 791.99,169.87 792.74,177.69 793.49,177.69 794.24,177.69 794.99,177.69 795.74,177.69 796.49,177.69 797.24,177.69 797.99,177.69 798.74,177.69 799.50,177.69 800.25,177.69 801.00,177.69 801.75,177.69 802.50,177.69 803.25,177.69 804.00,244.00" />
  <text x="420.0" y="22" text-anchor="middle" font-family="Arial, Helvetica, sans-serif" font-size="15" fill="#102a43">hamming window (magnitude spectrum)</text>
  <text x="420.0" y="272" text-anchor="middle" font-family="Arial, Helvetica, sans-serif" font-size="12" fill="#334e68">normalized frequency</text>
  <text x="14" y="140.0" transform="rotate(-90 14,140.0)" text-anchor="middle" font-family="Arial, Helvetica, sans-serif" font-size="12" fill="#334e68">magnitude (dB)</text>
  <text x="36" y="262" font-family="Arial, Helvetica, sans-serif" font-size="11" fill="#486581">0</text>
  <text x="804" y="262" text-anchor="end" font-family="Arial, Helvetica, sans-serif" font-size="11" fill="#486581">1</text>
  <text x="30" y="40" text-anchor="end" font-family="Arial, Helvetica, sans-serif" font-size="11" fill="#486581">0.0</text>
  <text x="30" y="248" text-anchor="end" font-family="Arial, Helvetica, sans-serif" font-size="11" fill="#486581">-160.0</text>
</svg>
