<svg xmlns="http://www.w3.org/2000/svg" width="840" height="280" viewBox="0 0 840 280">
  <rect x="0" y="0" width="840" height="280" fill="#ffffff" />
  <rect x="36" y="36" width="768" height="208" fill="#f7fbff" stroke="#c8d9e6" />
  <polyline fill="none" stroke="#005f73" stroke-width="2" points="36.00,227.36 36.75,227.36 37.50,227.35 38.25,227.34 39.00,227.33 39.75,227.31 40.50,227.30 41.26,227.27 42.01,227.24 42.76,227.21 43.51,227.18 44.26,227.14 45.01,227.10 45.76,227.06 46.51,227.01 47.26,226.95 48.01,226.90 48.76,226.84 49.51,226.78 50.26,226.71 51.01,226.64 51.77,226.57 52.52,226.49 53.27,226.41 54.02,226.32 54.77,226.24 55.52,226.14 56.27,226.05 57.02,225.95 57.77,225.85 58.52,225.74 59.27,225.63 60.02,225.52 60.77,225.40 61.52,225.28 62.28,225.16 63.03,225.03 63.78,224.90 64.53,224.77 65.28,224.63 66.03,224.49 66.78,224.35 67.53,224.20 68.28,224.05 69.03,223.89 69.78,223.73 70.53,223.57 71.28,223.40 72.04,223.24 72.79,223.06 73.54,222.89 74.29,222.71 75.04,222.53 75.79,222.34 76.54,222.15 77.29,221.96 78.04,221.76 78.79,221.56 79.54,221.36 80.29,221.15 81.04,220.94 81.79,220.73 82.55,220.51 83.30,220.29 84.05,220.07 84.80,219.84 85.55,219.61 86.30,219.38 87.05,219.14 87.80,218.90 88.55,218.66 89.30,218.41 90.05,218.16 90.80,217.91 91.55,217.66 92.30,217.40 93.06,217.13 93.81,216.87 94.56,216.60 95.31,216.33 96.06,216.05 96.81,215.77 97.56,215.49 98.31,215.21 99.06,214.92 99.81,214.63 100.56,214.33 101.31,214.04 102.06,213.73 102.82,213.43 103.57,213.12 104.32,212.81 105.07,212.50 105.82,212.19 106.57,211.87 107.32,211.54 108.07,211.22 108.82,210.89 109.57,210.56 110.32,210.23 111.07,209.89 111.82,209.55 112.57,209.21 113.33,208.86 114.08,208.51 114.83,208.16 115.58,207.81 116.33,207.45 117.08,207.09 117.83,206.73 118.58,206.36 119.33,205.99 120.08,205.62 120.83,205.25 121.58,204.87 122.33,204.49 123.09,204.11 123.84,203.72 124.59,203.33 125.34,202.94 126.09,202.55 126.84,202.16 127.59,201.76 128.34,201.36 129.09,200.95 129.84,200.54 130.59,200.14 131.34,199.72 132.09,199.31 132.84,198.89 133.60,198.47 134.35,198.05 135.10,197.63 135.85,197.20 136.60,196.77 137.35,196.34 138.10,195.91 138.85,195.47 139.60,195.03 140.35,194.59 141.10,194.15 141.85,193.70 142.60,193.25 143.35,192.80 144.11,192.35 144.86,191.89 145.61,191.43 146.36,190.97 147.11,190.51 147.86,190.05 148.61,189.58 149.36,189.11 150.11,188.64 150.86,188.17 151.61,187.69 152.36,187.22 153.11,186.74 153.87,186.26 154.62,185.77 155.37,185.29 156.12,184.80 156.87,184.31 157.62,183.82 158.37,183.32 159.12,182.83 159.87,182.33 160.62,181.83 161.37,181.33 162.12,180.83 162.87,180.32 163.62,179.82 164.38,179.31 165.13,178.80 165.88,178.29 166.63,177.77 167.38,177.26 168.13,176.74 168.88,176.22 169.63,175.70 170.38,175.18 171.13,174.65 171.88,174.13 172.63,173.60 173.38,173.07 174.13,172.54 174.89,172.01 175.64,171.48 176.39,170.94 177.14,170.40 177.89,169.87 178.64,169.33 179.39,168.79 180.14,168.24 180.89,167.70 181.64,167.16 182.39,166.61 183.14,166.06 183.89,165.51 184.65,164.96 185.40,164.41 186.15,163.86 186.90,163.31 187.65,162.75 188.40,162.19 189.15,161.64 189.90,161.08 190.65,160.52 191.40,159.96 192.15,159.40 192.90,158.83 193.65,158.27 194.40,157.71 195.16,157.14 195.91,156.57 196.66,156.01 197.41,155.44 198.16,154.87 198.91,154.30 199.66,153.73 200.41,153.15 201.16,152.58 201.91,152.01 202.66,151.43 203.41,150.86 204.16,150.28 204.91,149.71 205.67,149.13 206.42,148.55 207.17,147.97 207.92,147.39 208.67,146.81 209.42,146.23 210.17,145.65 210.92,145.07 211.67,144.49 212.42,143.91 213.17,143.33 213.92,142.74 214.67,142.16 215.43,141.57 216.18,140.99 216.93,140.41 217.68,139.82 218.43,139.23 219.18,138.65 219.93,138.06 220.68,137.48 221.43,136.89 222.18,136.30 222.93,135.72 223.68,135.13 224.43,134.54 225.18,133.96 225.94,133.37 226.69,132.78 227.44,132.19 228.19,131.61 228.94,131.02 229.69,130.43 230.44,129.84 231.19,129.26 231.94,128.67 232.69,128.08 233.44,127.50 234.19,126.91 234.94,126.32 235.70,125.74 236.45,125.15 237.20,124.56 237.95,123.98 238.70,123.39 239.45,122.81 240.20,122.22 240.95,121.64 241.70,121.06 242.45,120.47 243.20,119.89 243.95,119.31 244.70,118.72 245.45,118.14 246.21,117.56 246.96,116.98 247.71,116.40 248.46,115.82 249.21,115.24 249.96,114.66 250.71,114.09 251.46,113.51 252.21,112.93 252.96,112.36 253.71,111.78 254.46,111.21 255.21,110.63 255.96,110.06 256.72,109.49 257.47,108.92 258.22,108.35 258.97,107.78 259.72,107.21 260.47,106.64 261.22,106.08 261.97,105.51 262.72,104.95 263.47,104.38 264.22,103.82 264.97,103.26 265.72,102.70 266.48,102.14 267.23,101.58 267.98,101.03 268.73,100.47 269.48,99.92 270.23,99.36 270.98,98.81 271.73,98.26 272.48,97.71 273.23,97.16 273.98,96.61 274.73,96.07 275.48,95.52 276.23,94.98 276.99,94.44 277.74,93.90 278.49,93.36 279.24,92.82 279.99,92.29 280.74,91.75 281.49,91.22 282.24,90.69 282.99,90.16 283.74,89.63 284.49,89.10 285.24,88.58 285.99,88.05 286.74,87.53 287.50,87.01 288.25,86.49 289.00,85.97 289.75,85.46 290.50,84.95 291.25,84.43 292.00,83.92 292.75,83.42 293.50,82.91 294.25,82.41 295.00,81.90 295.75,81.40 296.50,80.90 297.26,80.41 298.01,79.91 298.76,79.42 299.51,78.93 300.26,78.44 301.01,77.95 301.76,77.47 302.51,76.98 303.26,76.50 304.01,76.02 304.76,75.55 305.51,75.07 306.26,74.60 307.01,74.13 307.77,73.66 308.52,73.20 309.27,72.73 310.02,72.27 310.77,71.81 311.52,71.35 312.27,70.90 313.02,70.45 313.77,70.00 314.52,69.55 315.27,69.10 316.02,68.66 316.77,68.22 317.52,67.78 318.28,67.35 319.03,66.91 319.78,66.48 320.53,66.05 321.28,65.63 322.03,65.20 322.78,64.78 323.53,64.36 324.28,63.95 325.03,63.53 325.78,63.12 326.53,62.71 327.28,62.31 328.04,61.90 328.79,61.50 329.54,61.11 330.29,60.71 331.04,60.32 331.79,59.93 332.54,59.54 333.29,59.16 334.04,58.77 334.79,58.40 335.54,58.02 336.29,57.65 337.04,57.27 337.79,56.91 338.55,56.54 339.30,56.18 340.05,55.82 340.80,55.46 341.55,55.11 342.30,54.76 343.05,54.41 343.80,54.07 344.55,53.72 345.30,53.39 346.05,53.05 346.80,52.72 347.55,52.39 348.30,52.06 349.06,51.73 349.81,51.41 350.56,51.10 351.31,50.78 352.06,50.47 352.81,50.16 353.56,49.85 354.31,49.55 355.06,49.25 355.81,48.95 356.56,48.66 357.31,48.37 358.06,48.08 358.82,47.80 359.57,47.52 360.32,47.24 361.07,46.96 361.82,46.69 362.57,46.43 363.32,46.16 364.07,45.90 364.82,45.64 365.57,45.38 366.32,45.13 367.07,44.88 367.82,44.64 368.57,44.40 369.33,44.16 370.08,43.92 370.83,43.69 371.58,43.46 372.33,43.23 373.08,43.01 373.83,42.79 374.58,42.58 375.33,42.36 376.08,42.16 376.83,41.95 377.58,41.75 378.33,41.55 379.09,41.35 379.84,41.16 380.59,40.97 381.34,40.79 382.09,40.61 382.84,40.43 383.59,40.25 384.34,40.08 385.09,39.91 385.84,39.75 386.59,39.59 387.34,39.43 388.09,39.28 388.84,39.13 389.60,38.98 390.35,38.83 391.10,38.69 391.85,38.56 392.60,38.42 393.35,38.30 394.10,38.17 394.85,38.05 395.60,37.93 396.35,37.81 397.10,37.70 397.85,37.59 398.60,37.49 399.35,37.39 400.11,37.29 400.86,37.19 401.61,37.10 402.36,37.02 403.11,36.93 403.86,36.85 404.61,36.78 405.36,36.70 406.11,36.63 406.86,36.57 407.61,36.51 408.36,36.45 409.11,36.39 409.87,36.34 410.62,36.29 411.37,36.25 412.12,36.21 412.87,36.17 413.62,36.14 414.37,36.11 415.12,36.08 415.87,36.06 416.62,36.04 417.37,36.03 418.12,36.01 418.87,36.01 419.62,36.00 420.38,36.00 421.13,36.00 421.88,36.01 422.63,36.02 423.38,36.03 424.13,36.05 424.88,36.07 425.63,36.09 426.38,36.12 427.13,36.15 427.88,36.19 428.63,36.23 429.38,36.27 430.13,36.32 430.89,36.37 431.64,36.42 432.39,36.48 433.14,36.54 433.89,36.60 434.64,36.67 435.39,36.74 436.14,36.81 436.89,36.89 437.64,36.97 438.39,37.06 439.14,37.15 439.89,37.24 440.65,37.34 441.40,37.44 442.15,37.54 442.90,37.65 443.65,37.76 444.40,37.87 445.15,37.99 445.90,38.11 446.65,38.23 447.40,38.36 448.15,38.49 448.90,38.63 449.65,38.76 450.40,38.91 451.16,39.05 451.91,39.20 452.66,39.35 453.41,39.51 454.16,39.67 454.91,39.83 455.66,40.00 456.41,40.17 457.16,40.34 457.91,40.52 458.66,40.70 459.41,40.88 460.16,41.07 460.91,41.26 461.67,41.45 462.42,41.65 463.17,41.85 463.92,42.05 464.67,42.26 465.42,42.47 466.17,42.68 466.92,42.90 467.67,43.12 468.42,43.35 469.17,43.57 469.92,43.80 470.67,44.04 471.43,44.28 472.18,44.52 472.93,44.76 473.68,45.01 474.43,45.26 475.18,45.51 475.93,45.77 476.68,46.03 477.43,46.29 478.18,46.56 478.93,46.83 479.68,47.10 480.43,47.38 481.18,47.66 481.94,47.94 482.69,48.23 483.44,48.51 484.19,48.81 484.94,49.10 485.69,49.40 486.44,49.70 487.19,50.01 487.94,50.31 488.69,50.62 489.44,50.94 490.19,51.25 490.94,51.57 491.70,51.90 492.45,52.22 493.20,52.55 493.95,52.88 494.70,53.22 495.45,53.55 496.20,53.90 496.95,54.24 497.70,54.59 498.45,54.93 499.20,55.29 499.95,55.64 500.70,56.00 501.45,56.36 502.21,56.72 502.96,57.09 503.71,57.46 504.46,57.83 505.21,58.21 505.96,58.58 506.71,58.96 507.46,59.35 508.21,59.73 508.96,60.12 509.71,60.51 510.46,60.91 511.21,61.30 511.96,61.70 512.72,62.11 513.47,62.51 514.22,62.92 514.97,63.33 515.72,63.74 516.47,64.15 517.22,64.57 517.97,64.99 518.72,65.41 519.47,65.84 520.22,66.27 520.97,66.70 521.72,67.13 522.48,67.56 523.23,68.00 523.98,68.44 524.73,68.88 525.48,69.33 526.23,69.77 526.98,70.22 527.73,70.67 528.48,71.13 529.23,71.58 529.98,72.04 530.73,72.50 531.48,72.96 532.23,73.43 532.99,73.90 533.74,74.37 534.49,74.84 535.24,75.31 535.99,75.79 536.74,76.26 537.49,76.74 538.24,77.23 538.99,77.71 539.74,78.20 540.49,78.68 541.24,79.17 541.99,79.67 542.74,80.16 543.50,80.66 544.25,81.15 545.00,81.65 545.75,82.15 546.50,82.66 547.25,83.16 548.00,83.67 548.75,84.18 549.50,84.69 550.25,85.20 551.00,85.72 551.75,86.23 552.50,86.75 553.26,87.27 554.01,87.79 554.76,88.31 555.51,88.84 556.26,89.36 557.01,89.89 557.76,90.42 558.51,90.95 559.26,91.48 560.01,92.02 560.76,92.55 561.51,93.09 562.26,93.63 563.01,94.17 563.77,94.71 564.52,95.25 565.27,95.80 566.02,96.34 566.77,96.89 567.52,97.43 568.27,97.98 569.02,98.53 569.77,99.09 570.52,99.64 571.27,100.19 572.02,100.75 572.77,101.30 573.52,101.86 574.28,102.42 575.03,102.98 575.78,103.54 576.53,104.10 577.28,104.67 578.03,105.23 578.78,105.80 579.53,106.36 580.28,106.93 581.03,107.50 581.78,108.06 582.53,108.63 583.28,109.20 584.04,109.78 584.79,110.35 585.54,110.92 586.29,111.50 587.04,112.07 587.79,112.64 588.54,113.22 589.29,113.80 590.04,114.37 590.79,114.95 591.54,115.53 592.29,116.11 593.04,116.69 593.79,117.27 594.55,117.85 595.30,118.43 596.05,119.02 596.80,119.60 597.55,120.18 598.30,120.76 599.05,121.35 599.80,121.93 600.55,122.52 601.30,123.10 602.05,123.69 602.80,124.27 603.55,124.86 604.30,125.44 605.06,126.03 605.81,126.62 606.56,127.20 607.31,127.79 608.06,128.38 608.81,128.96 609.56,129.55 610.31,130.14 611.06,130.73 611.81,131.31 612.56,131.90 613.31,132.49 614.06,133.07 614.82,133.66 615.57,134.25 616.32,134.84 617.07,135.42 617.82,136.01 618.57,136.60 619.32,137.18 620.07,137.77 620.82,138.36 621.57,138.94 622.32,139.53 623.07,140.11 623.82,140.70 624.57,141.28 625.33,141.87 626.08,142.45 626.83,143.03 627.58,143.62 628.33,144.20 629.08,144.78 629.83,145.36 630.58,145.94 631.33,146.52 632.08,147.10 632.83,147.68 633.58,148.26 634.33,148.84 635.09,149.42 635.84,150.00 636.59,150.57 637.34,151.15 638.09,151.72 638.84,152.30 639.59,152.87 640.34,153.44 641.09,154.01 641.84,154.58 642.59,155.15 643.34,155.72 644.09,156.29 644.84,156.86 645.60,157.42 646.35,157.99 647.10,158.55 647.85,159.12 648.60,159.68 649.35,160.24 650.10,160.80 650.85,161.36 651.60,161.92 652.35,162.47 653.10,163.03 653.85,163.58 654.60,164.14 655.35,164.69 656.11,165.24 656.86,165.79 657.61,166.34 658.36,166.88 659.11,167.43 659.86,167.97 660.61,168.52 661.36,169.06 662.11,169.60 662.86,170.14 663.61,170.67 664.36,171.21 665.11,171.74 665.87,172.28 666.62,172.81 667.37,173.34 668.12,173.86 668.87,174.39 669.62,174.91 670.37,175.44 671.12,175.96 671.87,176.48 672.62,177.00 673.37,177.51 674.12,178.03 674.87,178.54 675.62,179.05 676.38,179.56 677.13,180.07 677.88,180.58 678.63,181.08 679.38,181.58 680.13,182.08 680.88,182.58 681.63,183.08 682.38,183.57 683.13,184.06 683.88,184.55 684.63,185.04 685.38,185.53 686.13,186.01 686.89,186.50 687.64,186.98 688.39,187.45 689.14,187.93 689.89,188.41 690.64,188.88 691.39,189.35 692.14,189.81 692.89,190.28 693.64,190.74 694.39,191.20 695.14,191.66 695.89,192.12 696.65,192.57 697.40,193.03 698.15,193.48 698.90,193.92 699.65,194.37 700.40,194.81 701.15,195.25 701.90,195.69 702.65,196.12 703.40,196.56 704.15,196.99 704.90,197.41 705.65,197.84 706.40,198.26 707.16,198.68 707.91,199.10 708.66,199.52 709.41,199.93 710.16,200.34 710.91,200.75 711.66,201.15 712.41,201.56 713.16,201.96 713.91,202.35 714.66,202.75 715.41,203.14 716.16,203.53 716.91,203.92 717.67,204.30 718.42,204.68 719.17,205.06 719.92,205.43 720.67,205.81 721.42,206.18 722.17,206.54 722.92,206.91 723.67,207.27 724.42,207.63 725.17,207.98 725.92,208.34 726.67,208.69 727.43,209.03 728.18,209.38 728.93,209.72 729.68,210.06 730.43,210.39 731.18,210.73 731.93,211.06 732.68,211.38 733.43,211.71 734.18,212.03 734.93,212.34 735.68,212.66 736.43,212.97 737.18,213.28 737.94,213.58 738.69,213.89 739.44,214.18 740.19,214.48 740.94,214.77 741.69,215.06 742.44,215.35 743.19,215.63 743.94,215.91 744.69,216.19 745.44,216.46 746.19,216.73 746.94,217.00 747.70,217.27 748.45,217.53 749.20,217.78 749.95,218.04 750.70,218.29 751.45,218.54 752.20,218.78 752.95,219.02 753.70,219.26 754.45,219.50 755.20,219.73 755.95,219.96 756.70,220.18 757.45,220.40 758.21,220.62 758.96,220.84 759.71,221.05 760.46,221.26 761.21,221.46 761.96,221.66 762.71,221.86 763.46,222.05 764.21,222.25 764.96,222.43 765.71,222.62 766.46,222.80 767.21,222.98 767.96,223.15 768.72,223.32 769.47,223.49 770.22,223.65 770.97,223.81 771.72,223.97 772.47,224.12 773.22,224.27 773.97,224.42 774.72,224.56 775.47,224.70 776.22,224.84 776.97,224.97 777.72,225.10 778.48,225.22 779.23,225.34 779.98,225.46 780.73,225.58 781.48,225.69 782.23,225.80 782.98,225.90 783.73,226.00 784.48,226.10 785.23,226.19 785.98,226.28 786.73,226.37 787.48,226.45 788.23,226.53 788.99,226.60 789.74,226.68 790.49,226.74 791.24,226.81 791.99,226.87 792.74,226.93 793.49,226.98 794.24,227.03 794.99,227.08 795.74,227.12 796.49,227.16 797.24,227.20 797.99,227.23 798.74,227.26 799.50,227.28 800.25,227.31 801.00,227.32 801.75,227.34 802.50,227.35 803.25,227.36 804.00,227.36" />
  <text x="420.0" y="22" text-anchor="middle" font-family="Arial, Helvetica, sans-serif" font-size="15" fill="#102a43">hamming window (time domain)</text>
  <text x="420.0" y="272" text-anchor="middle" font-family="Arial, Helvetica, sans-serif" font-size="12" fill="#334e68">normalized sample index</text>
  <text x="14" y="140.0" transform="rotate(-90 14,140.0)" text-anchor="middle" font-family="Arial, Helvetica, sans-serif" font-size="12" fill="#334e68">amplitude</text>
  <text x="36" y="262" font-family="Arial, Helvetica, sans-serif" font-size="11" fill="#486581">0</text>
  <text x="804" y="262" text-anchor="end" font-family="Arial, Helvetica, sans-serif" font-size="11" fill="#486581">1</text>
  <text x="30" y="40" text-anchor="end" font-family="Arial, Helvetica, sans-serif" font-size="11" fill="#486581">1.0</text>
  <text x="30" y="248" text-anchor="end" font-family="Arial, Helvetica, sans-serif" font-size="11" fill="#486581">0.0</text>
</svg>
