<svg xmlns="http://www.w3.org/2000/svg" width="840" height="280" viewBox="0 0 840 280">
  <rect x="0" y="0" width="840" height="280" fill="#ffffff" />
  <rect x="36" y="36" width="768" height="208" fill="#f7fbff" stroke="#c8d9e6" />
  <polyline fill="none" stroke="#005f73" stroke-width="2" points="36.00,36.00 36.75,40.51 37.50,52.85 38.25,64.04 39.00,70.75 39.75,76.29 40.50,80.40 41.26,84.09 42.01,87.08 42.76,89.84 43.51,92.20 44.26,94.42 45.01,96.36 45.76,98.21 46.51,99.87 47.26,101.46 48.01,102.93 48.76,104.31 49.51,105.60 50.26,106.83 51.01,107.98 51.77,109.09 52.52,110.14 53.27,111.15 54.02,112.11 54.77,113.04 55.52,113.92 56.27,114.78 57.02,115.59 57.77,116.39 58.52,117.15 59.27,117.90 60.02,118.63 60.77,119.32 61.52,120.00 62.28,120.65 63.03,121.29 63.78,121.91 64.53,122.51 65.28,123.10 66.03,123.67 66.78,124.23 67.53,124.77 68.28,125.30 69.03,125.82 69.78,126.33 70.53,126.83 71.28,127.31 72.04,127.80 72.79,128.26 73.54,128.72 74.29,129.16 75.04,129.61 75.79,130.03 76.54,130.46 77.29,130.87 78.04,131.28 78.79,131.68 79.54,132.07 80.29,132.46 81.04,132.84 81.79,133.21 82.55,133.58 83.30,133.94 84.05,134.30 84.80,134.65 85.55,135.00 86.30,135.34 87.05,135.67 87.80,136.00 88.55,136.33 89.30,136.65 90.05,136.97 90.80,137.28 91.55,137.59 92.30,137.89 93.06,138.19 93.81,138.48 94.56,138.78 95.31,139.06 96.06,139.36 96.81,139.63 97.56,139.91 98.31,140.19 99.06,140.46 99.81,140.72 100.56,140.99 101.31,141.25 102.06,141.51 102.82,141.77 103.57,142.02 104.32,142.27 105.07,142.52 105.82,142.76 106.57,143.01 107.32,143.24 108.07,143.49 108.82,143.72 109.57,143.95 110.32,144.18 111.07,144.41 111.82,144.63 112.57,144.86 113.33,145.08 114.08,145.30 114.83,145.51 115.58,145.73 116.33,145.94 117.08,146.15 117.83,146.36 118.58,146.57 119.33,146.77 120.08,146.98 120.83,147.18 121.58,147.38 122.33,147.58 123.09,147.78 123.84,147.97 124.59,148.17 125.34,148.36 126.09,148.55 126.84,148.73 127.59,148.92 128.34,149.11 129.09,149.29 129.84,149.47 130.59,149.66 131.34,149.83 132.09,150.02 132.84,150.19 133.60,150.37 134.35,150.54 135.10,150.72 135.85,150.88 136.60,151.06 137.35,151.22 138.10,151.39 138.85,151.56 139.60,151.73 140.35,151.89 141.10,152.05 141.85,152.21 142.60,152.38 143.35,152.53 144.11,152.70 144.86,152.85 145.61,153.01 146.36,153.16 147.11,153.32 147.86,153.47 148.61,153.63 149.36,153.77 150.11,153.93 150.86,154.07 151.61,154.22 152.36,154.37 153.11,154.52 153.87,154.66 154.62,154.81 155.37,154.95 156.12,155.10 156.87,155.24 157.62,155.38 158.37,155.52 159.12,155.66 159.87,155.80 160.62,155.94 161.37,156.07 162.12,156.21 162.87,156.34 163.62,156.48 164.38,156.61 165.13,156.75 165.88,156.88 166.63,157.01 167.38,157.14 168.13,157.28 168.88,157.40 169.63,157.53 170.38,157.66 171.13,157.79 171.88,157.91 172.63,158.04 173.38,158.16 174.13,158.29 174.89,158.41 175.64,158.54 176.39,158.66 177.14,158.79 177.89,158.90 178.64,159.03 179.39,159.14 180.14,159.27 180.89,159.39 181.64,159.51 182.39,159.62 183.14,159.74 183.89,159.86 184.65,159.97 185.40,160.09 186.15,160.21 186.90,160.32 187.65,160.43 188.40,160.54 189.15,160.66 189.90,160.77 190.65,160.88 191.40,160.99 192.15,161.11 192.90,161.21 193.65,161.33 194.40,161.43 195.16,161.55 195.91,161.65 196.66,161.76 197.41,161.87 198.16,161.98 198.91,162.08 199.66,162.19 200.41,162.29 201.16,162.40 201.91,162.50 202.66,162.61 203.41,162.71 204.16,162.82 204.91,162.91 205.67,163.02 206.42,163.12 207.17,163.22 207.92,163.32 208.67,163.43 209.42,163.52 210.17,163.63 210.92,163.72 211.67,163.82 212.42,163.92 213.17,164.02 213.92,164.11 214.67,164.22 215.43,164.31 216.18,164.41 216.93,164.50 217.68,164.60 218.43,164.69 219.18,164.79 219.93,164.88 220.68,164.98 221.43,165.07 222.18,165.17 222.93,165.26 223.68,165.36 224.43,165.45 225.18,165.54 225.94,165.63 226.69,165.72 227.44,165.81 228.19,165.91 228.94,165.99 229.69,166.09 230.44,166.17 231.19,166.27 231.94,166.35 232.69,166.45 233.44,166.53 234.19,166.62 234.94,166.71 235.70,166.80 236.45,166.88 237.20,166.97 237.95,167.06 238.70,167.15 239.45,167.23 240.20,167.32 240.95,167.40 241.70,167.49 242.45,167.57 243.20,167.66 243.95,167.74 244.70,167.83 245.45,167.91 246.21,168.00 246.96,168.08 247.71,168.16 248.46,168.24 249.21,168.33 249.96,168.41 250.71,168.49 251.46,168.57 252.21,168.66 252.96,168.74 253.71,168.82 254.46,168.90 255.21,168.98 255.96,169.06 256.72,169.14 257.47,169.22 258.22,169.30 258.97,169.38 259.72,169.46 260.47,169.53 261.22,169.62 261.97,169.69 262.72,169.77 263.47,169.85 264.22,169.93 264.97,170.00 265.72,170.08 266.48,170.16 267.23,170.24 267.98,170.31 268.73,170.39 269.48,170.46 270.23,170.54 270.98,170.61 271.73,170.69 272.48,170.76 273.23,170.84 273.98,170.91 274.73,170.99 275.48,171.06 276.23,171.14 276.99,171.21 277.74,171.29 278.49,171.36 279.24,171.44 279.99,171.51 280.74,171.58 281.49,171.65 282.24,171.73 282.99,171.80 283.74,171.87 284.49,171.94 285.24,172.02 285.99,172.08 286.74,172.16 287.50,172.23 288.25,172.30 289.00,172.37 289.75,172.44 290.50,172.51 291.25,172.58 292.00,172.65 292.75,172.72 293.50,172.79 294.25,172.86 295.00,172.93 295.75,173.00 296.50,173.07 297.26,173.14 298.01,173.20 298.76,173.28 299.51,173.34 300.26,173.41 301.01,173.48 301.76,173.55 302.51,173.61 303.26,173.69 304.01,173.75 304.76,173.82 305.51,173.88 306.26,173.95 307.01,174.02 307.77,174.09 308.52,174.15 309.27,174.22 310.02,174.28 310.77,174.35 311.52,174.41 312.27,174.49 313.02,174.55 313.77,174.62 314.52,174.68 315.27,174.75 316.02,174.81 316.77,174.88 317.52,174.94 318.28,175.01 319.03,175.07 319.78,175.13 320.53,175.19 321.28,175.26 322.03,175.32 322.78,175.39 323.53,175.45 324.28,175.52 325.03,175.58 325.78,175.64 326.53,175.70 327.28,175.77 328.04,175.83 328.79,175.90 329.54,175.95 330.29,176.02 331.04,176.08 331.79,176.14 332.54,176.20 333.29,176.27 334.04,176.33 334.79,176.39 335.54,176.45 336.29,176.52 337.04,176.57 337.79,176.64 338.55,176.70 339.30,176.76 340.05,176.82 340.80,176.88 341.55,176.94 342.30,177.00 343.05,177.06 343.80,177.12 344.55,177.18 345.30,177.24 346.05,177.30 346.80,177.36 347.55,177.42 348.30,177.48 349.06,177.54 349.81,177.60 350.56,177.66 351.31,177.72 352.06,177.78 352.81,177.84 353.56,177.89 354.31,177.96 355.06,178.01 355.81,178.07 356.56,178.13 357.31,178.19 358.06,178.24 358.82,178.31 359.57,178.36 360.32,178.42 361.07,178.48 361.82,178.54 362.57,178.59 363.32,178.65 364.07,178.71 364.82,178.77 365.57,178.82 366.32,178.88 367.07,178.94 367.82,179.00 368.57,179.05 369.33,179.11 370.08,179.16 370.83,179.22 371.58,179.28 372.33,179.34 373.08,179.39 373.83,179.45 374.58,179.50 375.33,179.56 376.08,179.62 376.83,179.67 377.58,179.73 378.33,179.79 379.09,179.84 379.84,179.90 380.59,179.95 381.34,180.01 382.09,180.06 382.84,180.12 383.59,180.17 384.34,180.23 385.09,180.28 385.84,180.34 386.59,180.39 387.34,180.45 388.09,180.50 388.84,180.56 389.60,180.61 390.35,180.67 391.10,180.72 391.85,180.78 392.60,180.83 393.35,180.89 394.10,180.94 394.85,180.99 395.60,181.04 396.35,181.10 397.10,181.15 397.85,181.21 398.60,181.26 399.35,181.32 400.11,181.37 400.86,181.42 401.61,181.47 402.36,181.53 403.11,181.58 403.86,181.64 404.61,181.69 405.36,181.74 406.11,181.79 406.86,181.85 407.61,181.90 408.36,181.96 409.11,182.01 409.87,182.06 410.62,182.11 411.37,182.17 412.12,182.22 412.87,182.27 413.62,182.32 414.37,182.38 415.12,182.43 415.87,182.48 416.62,182.53 417.37,182.59 418.12,182.64 418.87,182.69 419.62,182.74 420.38,182.80 421.13,182.84 421.88,182.90 422.63,182.95 423.38,183.00 424.13,183.05 424.88,183.11 425.63,183.15 426.38,183.21 427.13,183.26 427.88,183.31 428.63,183.36 429.38,183.42 430.13,183.46 430.89,183.52 431.64,183.57 432.39,183.62 433.14,183.67 433.89,183.72 434.64,183.77 435.39,183.83 436.14,183.87 436.89,183.93 437.64,183.97 438.39,184.03 439.14,184.08 439.89,184.13 440.65,184.18 441.40,184.23 442.15,184.28 442.90,184.33 443.65,184.38 444.40,184.44 445.15,184.48 445.90,184.54 446.65,184.58 447.40,184.64 448.15,184.68 448.90,184.74 449.65,184.78 450.40,184.84 451.16,184.88 451.91,184.94 452.66,184.98 453.41,185.04 454.16,185.09 454.91,185.14 455.66,185.19 456.41,185.24 457.16,185.29 457.91,185.34 458.66,185.39 459.41,185.44 460.16,185.49 460.91,185.54 461.67,185.58 462.42,185.64 463.17,185.68 463.92,185.74 464.67,185.78 465.42,185.84 466.17,185.88 466.92,185.94 467.67,185.98 468.42,186.04 469.17,186.08 469.92,186.13 470.67,186.18 471.43,186.23 472.18,186.28 472.93,186.33 473.68,186.38 474.43,186.43 475.18,186.48 475.93,186.53 476.68,186.58 477.43,186.63 478.18,186.67 478.93,186.73 479.68,186.77 480.43,186.83 481.18,186.87 481.94,186.92 482.69,186.97 483.44,187.02 484.19,187.07 484.94,187.12 485.69,187.17 486.44,187.22 487.19,187.27 487.94,187.32 488.69,187.36 489.44,187.42 490.19,187.46 490.94,187.51 491.70,187.56 492.45,187.61 493.20,187.66 493.95,187.71 494.70,187.76 495.45,187.81 496.20,187.85 496.95,187.91 497.70,187.95 498.45,188.01 499.20,188.05 499.95,188.10 500.70,188.15 501.45,188.20 502.21,188.25 502.96,188.30 503.71,188.34 504.46,188.40 505.21,188.44 505.96,188.50 506.71,188.54 507.46,188.59 508.21,188.64 508.96,188.69 509.71,188.74 510.46,188.79 511.21,188.84 511.96,188.89 512.72,188.93 513.47,188.99 514.22,189.03 514.97,189.08 515.72,189.13 516.47,189.18 517.22,189.23 517.97,189.28 518.72,189.33 519.47,189.38 520.22,189.43 520.97,189.48 521.72,189.52 522.48,189.58 523.23,189.62 523.98,189.67 524.73,189.72 525.48,189.77 526.23,189.82 526.98,189.87 527.73,189.92 528.48,189.97 529.23,190.02 529.98,190.07 530.73,190.12 531.48,190.17 532.23,190.21 532.99,190.27 533.74,190.31 534.49,190.37 535.24,190.41 535.99,190.46 536.74,190.51 537.49,190.56 538.24,190.61 538.99,190.66 539.74,190.71 540.49,190.76 541.24,190.81 541.99,190.86 542.74,190.91 543.50,190.96 544.25,191.01 545.00,191.06 545.75,191.11 546.50,191.16 547.25,191.21 548.00,191.26 548.75,191.31 549.50,191.36 550.25,191.41 551.00,191.46 551.75,191.51 552.50,191.56 553.26,191.61 554.01,191.66 554.76,191.71 555.51,191.76 556.26,191.81 557.01,191.87 557.76,191.91 558.51,191.97 559.26,192.01 560.01,192.07 560.76,192.11 561.51,192.17 562.26,192.22 563.01,192.27 563.77,192.32 564.52,192.37 565.27,192.42 566.02,192.48 566.77,192.52 567.52,192.58 568.27,192.62 569.02,192.68 569.77,192.73 570.52,192.78 571.27,192.83 572.02,192.89 572.77,192.93 573.52,192.99 574.28,193.04 575.03,193.09 575.78,193.14 576.53,193.20 577.28,193.24 578.03,193.30 578.78,193.35 579.53,193.40 580.28,193.45 581.03,193.51 581.78,193.56 582.53,193.61 583.28,193.66 584.04,193.72 584.79,193.77 585.54,193.82 586.29,193.87 587.04,193.93 587.79,193.98 588.54,194.04 589.29,194.09 590.04,194.14 590.79,194.19 591.54,194.25 592.29,194.30 593.04,194.36 593.79,194.41 594.55,194.46 595.30,194.51 596.05,194.57 596.80,194.62 597.55,194.68 598.30,194.73 599.05,194.79 599.80,194.84 600.55,194.90 601.30,194.95 602.05,195.01 602.80,195.06 603.55,195.12 604.30,195.17 605.06,195.23 605.81,195.28 606.56,195.34 607.31,195.39 608.06,195.45 608.81,195.50 609.56,195.56 610.31,195.61 611.06,195.67 611.81,195.72 612.56,195.78 613.31,195.84 614.06,195.90 614.82,195.95 615.57,196.01 616.32,196.06 617.07,196.12 617.82,196.18 618.57,196.24 619.32,196.29 620.07,196.35 620.82,196.41 621.57,196.47 622.32,196.52 623.07,196.58 623.82,196.64 624.57,196.70 625.33,196.76 626.08,196.82 626.83,196.87 627.58,196.94 628.33,196.99 629.08,197.05 629.83,197.11 630.58,197.17 631.33,197.23 632.08,197.29 632.83,197.35 633.58,197.41 634.33,197.47 635.09,197.53 635.84,197.59 636.59,197.66 637.34,197.71 638.09,197.78 638.84,197.84 639.59,197.90 640.34,197.96 641.09,198.03 641.84,198.08 642.59,198.15 643.34,198.21 644.09,198.27 644.84,198.33 645.60,198.40 646.35,198.46 647.10,198.53 647.85,198.59 648.60,198.66 649.35,198.72 650.10,198.78 650.85,198.85 651.60,198.91 652.35,198.98 653.10,199.04 653.85,199.11 654.60,199.18 655.35,199.24 656.11,199.31 656.86,199.37 657.61,199.44 658.36,199.50 659.11,199.58 659.86,199.64 660.61,199.71 661.36,199.78 662.11,199.85 662.86,199.91 663.61,199.98 664.36,200.05 665.11,200.12 665.87,200.19 666.62,200.26 667.37,200.33 668.12,200.40 668.87,200.47 669.62,200.54 670.37,200.61 671.12,200.69 671.87,200.76 672.62,200.83 673.37,200.90 674.12,200.98 674.87,201.05 675.62,201.13 676.38,201.20 677.13,201.27 677.88,201.34 678.63,201.42 679.38,201.49 680.13,201.57 680.88,201.65 681.63,201.73 682.38,201.80 683.13,201.88 683.88,201.95 684.63,202.04 685.38,202.11 686.13,202.19 686.89,202.27 687.64,202.35 688.39,202.43 689.14,202.51 689.89,202.59 690.64,202.68 691.39,202.75 692.14,202.84 692.89,202.92 693.64,203.01 694.39,203.09 695.14,203.17 695.89,203.25 696.65,203.34 697.40,203.43 698.15,203.52 698.90,203.60 699.65,203.69 700.40,203.77 701.15,203.87 701.90,203.95 702.65,204.04 703.40,204.13 704.15,204.22 704.90,204.31 705.65,204.41 706.40,204.50 707.16,204.59 707.91,204.68 708.66,204.78 709.41,204.87 710.16,204.97 710.91,205.06 711.66,205.17 712.41,205.26 713.16,205.36 713.91,205.46 714.66,205.56 715.41,205.66 716.16,205.76 716.91,205.86 717.67,205.97 718.42,206.07 719.17,206.17 719.92,206.28 720.67,206.39 721.42,206.49 722.17,206.60 722.92,206.71 723.67,206.82 724.42,206.93 725.17,207.04 725.92,207.15 726.67,207.27 727.43,207.38 728.18,207.50 728.93,207.61 729.68,207.73 730.43,207.85 731.18,207.97 731.93,208.09 732.68,208.22 733.43,208.34 734.18,208.47 734.93,208.59 735.68,208.72 736.43,208.85 737.18,208.98 737.94,209.11 738.69,209.24 739.44,209.37 740.19,209.51 740.94,209.65 741.69,209.79 742.44,209.93 743.19,210.07 743.94,210.21 744.69,210.36 745.44,210.51 746.19,210.66 746.94,210.81 747.70,210.96 748.45,211.11 749.20,211.28 749.95,211.43 750.70,211.60 751.45,211.75 752.20,211.92 752.95,212.09 753.70,212.26 754.45,212.43 755.20,212.61 755.95,212.78 756.70,212.97 757.45,213.15 758.21,213.34 758.96,213.52 759.71,213.72 760.46,213.91 761.21,214.12 761.96,214.31 762.71,214.52 763.46,214.73 764.21,214.95 764.96,215.16 765.71,215.38 766.46,215.61 767.21,215.84 767.96,216.07 768.72,216.32 769.47,216.56 770.22,216.81 770.97,217.06 771.72,217.33 772.47,217.59 773.22,217.87 773.97,218.15 774.72,218.44 775.47,218.73 776.22,219.03 776.97,219.34 777.72,219.66 778.48,219.99 779.23,220.33 779.98,220.68 780.73,221.04 781.48,221.41 782.23,221.80 782.98,222.19 783.73,222.61 784.48,223.03 785.23,223.48 785.98,223.94 786.73,224.42 787.48,224.92 788.23,225.45 788.99,226.00 789.74,226.58 790.49,227.18 791.24,227.83 791.99,228.51 792.74,229.26 793.49,230.03 794.24,230.87 794.99,231.77 795.74,232.76 796.49,233.83 797.24,235.02 797.99,236.34 798.74,237.85 799.50,239.59 800.25,241.64 801.00,244.00 801.75,244.00 802.50,244.00 803.25,244.00 804.00,244.00" />
  <text x="420.0" y="22" text-anchor="middle" font-family="Arial, Helvetica, sans-serif" font-size="15" fill="#102a43">hann_poisson_2p0 window (magnitude spectrum)</text>
  <text x="420.0" y="272" text-anchor="middle" font-family="Arial, Helvetica, sans-serif" font-size="12" fill="#334e68">normalized frequency</text>
  <text x="14" y="140.0" transform="rotate(-90 14,140.0)" text-anchor="middle" font-family="Arial, Helvetica, sans-serif" font-size="12" fill="#334e68">magnitude (dB)</text>
  <text x="36" y="262" font-family="Arial, Helvetica, sans-serif" font-size="11" fill="#486581">0</text>
  <text x="804" y="262" text-anchor="end" font-family="Arial, Helvetica, sans-serif" font-size="11" fill="#486581">1</text>
  <text x="30" y="40" text-anchor="end" font-family="Arial, Helvetica, sans-serif" font-size="11" fill="#486581">0.0</text>
  <text x="30" y="248" text-anchor="end" font-family="Arial, Helvetica, sans-serif" font-size="11" fill="#486581">-160.0</text>
</svg>
