<svg xmlns="http://www.w3.org/2000/svg" width="840" height="280" viewBox="0 0 840 280">
  <rect x="0" y="0" width="840" height="280" fill="#ffffff" />
  <rect x="36" y="36" width="768" height="208" fill="#f7fbff" stroke="#c8d9e6" />
  <polyline fill="none" stroke="#005f73" stroke-width="2" points="36.00,36.00 36.75,41.89 37.50,60.53 38.25,74.51 39.00,80.77 39.75,86.84 40.50,90.72 41.26,94.64 42.01,97.49 42.76,100.40 43.51,102.65 44.26,104.97 45.01,106.84 45.76,108.76 46.51,110.36 47.26,112.01 48.01,113.45 48.76,114.85 49.51,116.12 50.26,117.37 51.01,118.51 51.77,119.63 52.52,120.67 53.27,121.69 54.02,122.64 54.77,123.58 55.52,124.45 56.27,125.32 57.02,126.13 57.77,126.93 58.52,127.69 59.27,128.44 60.02,129.17 60.77,129.86 61.52,130.54 62.28,131.19 63.03,131.83 63.78,132.44 64.53,133.05 65.28,133.63 66.03,134.21 66.78,134.76 67.53,135.31 68.28,135.84 69.03,136.36 69.78,136.87 70.53,137.37 71.28,137.85 72.04,138.34 72.79,138.79 73.54,139.26 74.29,139.70 75.04,140.15 75.79,140.57 76.54,141.00 77.29,141.41 78.04,141.82 78.79,142.21 79.54,142.62 80.29,142.99 81.04,143.38 81.79,143.75 82.55,144.12 83.30,144.48 84.05,144.85 84.80,145.18 85.55,145.55 86.30,145.87 87.05,146.22 87.80,146.54 88.55,146.88 89.30,147.18 90.05,147.51 90.80,147.81 91.55,148.13 92.30,148.42 93.06,148.73 93.81,149.02 94.56,149.32 95.31,149.60 96.06,149.90 96.81,150.17 97.56,150.46 98.31,150.72 99.06,151.01 99.81,151.26 100.56,151.54 101.31,151.78 102.06,152.06 102.82,152.30 103.57,152.57 104.32,152.80 105.07,153.06 105.82,153.30 106.57,153.55 107.32,153.78 108.07,154.03 108.82,154.25 109.57,154.50 110.32,154.71 111.07,154.96 111.82,155.17 112.57,155.41 113.33,155.61 114.08,155.85 114.83,156.05 115.58,156.28 116.33,156.48 117.08,156.70 117.83,156.90 118.58,157.12 119.33,157.31 120.08,157.53 120.83,157.71 121.58,157.93 122.33,158.11 123.09,158.33 123.84,158.50 124.59,158.71 125.34,158.89 126.09,159.09 126.84,159.27 127.59,159.47 128.34,159.64 129.09,159.84 129.84,160.01 130.59,160.20 131.34,160.37 132.09,160.56 132.84,160.72 133.60,160.92 134.35,161.07 135.10,161.26 135.85,161.42 136.60,161.60 137.35,161.76 138.10,161.94 138.85,162.09 139.60,162.27 140.35,162.42 141.10,162.60 141.85,162.75 142.60,162.92 143.35,163.07 144.11,163.24 144.86,163.38 145.61,163.56 146.36,163.69 147.11,163.87 147.86,164.00 148.61,164.17 149.36,164.31 150.11,164.47 150.86,164.61 151.61,164.77 152.36,164.90 153.11,165.07 153.87,165.20 154.62,165.36 155.37,165.48 156.12,165.65 156.87,165.77 157.62,165.93 158.37,166.05 159.12,166.21 159.87,166.33 160.62,166.49 161.37,166.61 162.12,166.76 162.87,166.88 163.62,167.03 164.38,167.15 165.13,167.30 165.88,167.41 166.63,167.56 167.38,167.67 168.13,167.82 168.88,167.93 169.63,168.08 170.38,168.19 171.13,168.34 171.88,168.45 172.63,168.59 173.38,168.70 174.13,168.84 174.89,168.95 175.64,169.09 176.39,169.19 177.14,169.33 177.89,169.44 178.64,169.57 179.39,169.68 180.14,169.82 180.89,169.92 181.64,170.06 182.39,170.15 183.14,170.29 183.89,170.39 184.65,170.52 185.40,170.62 186.15,170.75 186.90,170.85 187.65,170.98 188.40,171.08 189.15,171.21 189.90,171.30 190.65,171.43 191.40,171.53 192.15,171.66 192.90,171.75 193.65,171.88 194.40,171.97 195.16,172.09 195.91,172.18 196.66,172.31 197.41,172.40 198.16,172.52 198.91,172.61 199.66,172.74 200.41,172.82 201.16,172.95 201.91,173.03 202.66,173.15 203.41,173.24 204.16,173.36 204.91,173.45 205.67,173.57 206.42,173.65 207.17,173.77 207.92,173.85 208.67,173.97 209.42,174.05 210.17,174.17 210.92,174.25 211.67,174.37 212.42,174.45 213.17,174.57 213.92,174.65 214.67,174.76 215.43,174.84 216.18,174.96 216.93,175.04 217.68,175.15 218.43,175.23 219.18,175.34 219.93,175.42 220.68,175.53 221.43,175.61 222.18,175.72 222.93,175.79 223.68,175.90 224.43,175.98 225.18,176.09 225.94,176.16 226.69,176.27 227.44,176.35 228.19,176.46 228.94,176.53 229.69,176.64 230.44,176.71 231.19,176.82 231.94,176.89 232.69,176.99 233.44,177.06 234.19,177.17 234.94,177.24 235.70,177.35 236.45,177.42 237.20,177.52 237.95,177.59 238.70,177.69 239.45,177.76 240.20,177.87 240.95,177.93 241.70,178.04 242.45,178.10 243.20,178.21 243.95,178.27 244.70,178.38 245.45,178.44 246.21,178.55 246.96,178.61 247.71,178.71 248.46,178.78 249.21,178.88 249.96,178.94 250.71,179.04 251.46,179.10 252.21,179.21 252.96,179.27 253.71,179.37 254.46,179.43 255.21,179.53 255.96,179.59 256.72,179.69 257.47,179.75 258.22,179.85 258.97,179.91 259.72,180.01 260.47,180.07 261.22,180.16 261.97,180.22 262.72,180.32 263.47,180.38 264.22,180.48 264.97,180.54 265.72,180.63 266.48,180.69 267.23,180.79 267.98,180.84 268.73,180.94 269.48,180.99 270.23,181.09 270.98,181.15 271.73,181.24 272.48,181.30 273.23,181.39 273.98,181.45 274.73,181.54 275.48,181.60 276.23,181.69 276.99,181.74 277.74,181.84 278.49,181.89 279.24,181.98 279.99,182.04 280.74,182.13 281.49,182.18 282.24,182.28 282.99,182.33 283.74,182.42 284.49,182.47 285.24,182.56 285.99,182.62 286.74,182.71 287.50,182.76 288.25,182.85 289.00,182.90 289.75,182.99 290.50,183.04 291.25,183.13 292.00,183.18 292.75,183.27 293.50,183.32 294.25,183.41 295.00,183.46 295.75,183.55 296.50,183.60 297.26,183.69 298.01,183.74 298.76,183.82 299.51,183.87 300.26,183.96 301.01,184.01 301.76,184.10 302.51,184.15 303.26,184.23 304.01,184.28 304.76,184.37 305.51,184.42 306.26,184.50 307.01,184.55 307.77,184.64 308.52,184.68 309.27,184.77 310.02,184.82 310.77,184.90 311.52,184.95 312.27,185.03 313.02,185.08 313.77,185.16 314.52,185.21 315.27,185.29 316.02,185.34 316.77,185.42 317.52,185.47 318.28,185.55 319.03,185.60 319.78,185.68 320.53,185.73 321.28,185.81 322.03,185.86 322.78,185.94 323.53,185.98 324.28,186.07 325.03,186.11 325.78,186.19 326.53,186.24 327.28,186.32 328.04,186.36 328.79,186.44 329.54,186.49 330.29,186.57 331.04,186.61 331.79,186.69 332.54,186.74 333.29,186.82 334.04,186.86 334.79,186.94 335.54,186.98 336.29,187.06 337.04,187.11 337.79,187.19 338.55,187.23 339.30,187.31 340.05,187.35 340.80,187.43 341.55,187.47 342.30,187.55 343.05,187.59 343.80,187.67 344.55,187.71 345.30,187.79 346.05,187.83 346.80,187.91 347.55,187.95 348.30,188.03 349.06,188.07 349.81,188.15 350.56,188.19 351.31,188.27 352.06,188.31 352.81,188.39 353.56,188.43 354.31,188.50 355.06,188.54 355.81,188.62 356.56,188.66 357.31,188.74 358.06,188.78 358.82,188.85 359.57,188.89 360.32,188.97 361.07,189.01 361.82,189.09 362.57,189.13 363.32,189.20 364.07,189.24 364.82,189.32 365.57,189.35 366.32,189.43 367.07,189.47 367.82,189.55 368.57,189.58 369.33,189.66 370.08,189.70 370.83,189.77 371.58,189.81 372.33,189.89 373.08,189.92 373.83,190.00 374.58,190.04 375.33,190.11 376.08,190.15 376.83,190.22 377.58,190.26 378.33,190.33 379.09,190.37 379.84,190.45 380.59,190.48 381.34,190.56 382.09,190.59 382.84,190.67 383.59,190.70 384.34,190.78 385.09,190.81 385.84,190.89 386.59,190.92 387.34,191.00 388.09,191.03 388.84,191.11 389.60,191.14 390.35,191.22 391.10,191.25 391.85,191.33 392.60,191.36 393.35,191.43 394.10,191.47 394.85,191.54 395.60,191.58 396.35,191.65 397.10,191.69 397.85,191.76 398.60,191.79 399.35,191.87 400.11,191.90 400.86,191.97 401.61,192.01 402.36,192.08 403.11,192.11 403.86,192.19 404.61,192.22 405.36,192.29 406.11,192.33 406.86,192.40 407.61,192.43 408.36,192.51 409.11,192.54 409.87,192.61 410.62,192.64 411.37,192.72 412.12,192.75 412.87,192.82 413.62,192.85 414.37,192.93 415.12,192.96 415.87,193.03 416.62,193.06 417.37,193.14 418.12,193.17 418.87,193.24 419.62,193.27 420.38,193.34 421.13,193.38 421.88,193.45 422.63,193.48 423.38,193.55 424.13,193.58 424.88,193.66 425.63,193.69 426.38,193.76 427.13,193.79 427.88,193.86 428.63,193.89 429.38,193.96 430.13,194.00 430.89,194.07 431.64,194.10 432.39,194.17 433.14,194.20 433.89,194.27 434.64,194.30 435.39,194.37 436.14,194.41 436.89,194.48 437.64,194.51 438.39,194.58 439.14,194.61 439.89,194.68 440.65,194.71 441.40,194.78 442.15,194.81 442.90,194.88 443.65,194.91 444.40,194.98 445.15,195.01 445.90,195.08 446.65,195.12 447.40,195.19 448.15,195.22 448.90,195.29 449.65,195.32 450.40,195.39 451.16,195.42 451.91,195.49 452.66,195.52 453.41,195.59 454.16,195.62 454.91,195.69 455.66,195.72 456.41,195.79 457.16,195.82 457.91,195.89 458.66,195.92 459.41,195.99 460.16,196.02 460.91,196.09 461.67,196.12 462.42,196.19 463.17,196.22 463.92,196.29 464.67,196.32 465.42,196.38 466.17,196.42 466.92,196.48 467.67,196.51 468.42,196.58 469.17,196.61 469.92,196.68 470.67,196.71 471.43,196.78 472.18,196.81 472.93,196.88 473.68,196.91 474.43,196.98 475.18,197.01 475.93,197.08 476.68,197.11 477.43,197.18 478.18,197.21 478.93,197.28 479.68,197.31 480.43,197.37 481.18,197.40 481.94,197.47 482.69,197.50 483.44,197.57 484.19,197.60 484.94,197.67 485.69,197.70 486.44,197.77 487.19,197.80 487.94,197.87 488.69,197.90 489.44,197.96 490.19,197.99 490.94,198.06 491.70,198.09 492.45,198.16 493.20,198.19 493.95,198.26 494.70,198.29 495.45,198.36 496.20,198.39 496.95,198.46 497.70,198.48 498.45,198.55 499.20,198.58 499.95,198.65 500.70,198.68 501.45,198.75 502.21,198.78 502.96,198.85 503.71,198.88 504.46,198.95 505.21,198.98 505.96,199.04 506.71,199.07 507.46,199.14 508.21,199.17 508.96,199.24 509.71,199.27 510.46,199.34 511.21,199.37 511.96,199.44 512.72,199.47 513.47,199.53 514.22,199.56 514.97,199.63 515.72,199.66 516.47,199.73 517.22,199.76 517.97,199.83 518.72,199.86 519.47,199.93 520.22,199.96 520.97,200.03 521.72,200.06 522.48,200.12 523.23,200.15 523.98,200.22 524.73,200.25 525.48,200.32 526.23,200.35 526.98,200.42 527.73,200.45 528.48,200.52 529.23,200.55 529.98,200.62 530.73,200.65 531.48,200.72 532.23,200.75 532.99,200.82 533.74,200.85 534.49,200.91 535.24,200.94 535.99,201.01 536.74,201.04 537.49,201.11 538.24,201.14 538.99,201.21 539.74,201.24 540.49,201.31 541.24,201.34 541.99,201.41 542.74,201.44 543.50,201.51 544.25,201.54 545.00,201.61 545.75,201.64 546.50,201.71 547.25,201.74 548.00,201.81 548.75,201.84 549.50,201.91 550.25,201.94 551.00,202.01 551.75,202.04 552.50,202.11 553.26,202.14 554.01,202.21 554.76,202.24 555.51,202.31 556.26,202.34 557.01,202.41 557.76,202.44 558.51,202.51 559.26,202.55 560.01,202.62 560.76,202.65 561.51,202.72 562.26,202.75 563.01,202.82 563.77,202.85 564.52,202.92 565.27,202.95 566.02,203.02 566.77,203.05 567.52,203.13 568.27,203.16 569.02,203.23 569.77,203.26 570.52,203.33 571.27,203.36 572.02,203.43 572.77,203.47 573.52,203.54 574.28,203.57 575.03,203.64 575.78,203.67 576.53,203.74 577.28,203.78 578.03,203.85 578.78,203.88 579.53,203.95 580.28,203.99 581.03,204.06 581.78,204.09 582.53,204.16 583.28,204.19 584.04,204.27 584.79,204.30 585.54,204.37 586.29,204.41 587.04,204.48 587.79,204.51 588.54,204.59 589.29,204.62 590.04,204.69 590.79,204.72 591.54,204.80 592.29,204.83 593.04,204.90 593.79,204.94 594.55,205.01 595.30,205.05 596.05,205.12 596.80,205.15 597.55,205.23 598.30,205.26 599.05,205.34 599.80,205.37 600.55,205.45 601.30,205.48 602.05,205.56 602.80,205.59 603.55,205.66 604.30,205.70 605.06,205.77 605.81,205.81 606.56,205.89 607.31,205.92 608.06,206.00 608.81,206.03 609.56,206.11 610.31,206.14 611.06,206.22 611.81,206.26 612.56,206.33 613.31,206.37 614.06,206.45 614.82,206.48 615.57,206.56 616.32,206.60 617.07,206.67 617.82,206.71 618.57,206.79 619.32,206.82 620.07,206.90 620.82,206.94 621.57,207.02 622.32,207.05 623.07,207.13 623.82,207.17 624.57,207.25 625.33,207.29 626.08,207.37 626.83,207.41 627.58,207.48 628.33,207.52 629.08,207.60 629.83,207.64 630.58,207.72 631.33,207.76 632.08,207.84 632.83,207.88 633.58,207.96 634.33,208.00 635.09,208.08 635.84,208.12 636.59,208.20 637.34,208.25 638.09,208.33 638.84,208.37 639.59,208.45 640.34,208.49 641.09,208.57 641.84,208.62 642.59,208.70 643.34,208.74 644.09,208.82 644.84,208.87 645.60,208.95 646.35,208.99 647.10,209.08 647.85,209.12 648.60,209.20 649.35,209.25 650.10,209.33 650.85,209.38 651.60,209.46 652.35,209.51 653.10,209.59 653.85,209.64 654.60,209.72 655.35,209.77 656.11,209.86 656.86,209.90 657.61,209.99 658.36,210.04 659.11,210.12 659.86,210.17 660.61,210.26 661.36,210.31 662.11,210.40 662.86,210.44 663.61,210.53 664.36,210.58 665.11,210.67 665.87,210.72 666.62,210.81 667.37,210.86 668.12,210.95 668.87,211.00 669.62,211.09 670.37,211.14 671.12,211.24 671.87,211.29 672.62,211.38 673.37,211.43 674.12,211.53 674.87,211.58 675.62,211.67 676.38,211.73 677.13,211.82 677.88,211.88 678.63,211.97 679.38,212.03 680.13,212.12 680.88,212.18 681.63,212.28 682.38,212.33 683.13,212.43 683.88,212.49 684.63,212.59 685.38,212.64 686.13,212.74 686.89,212.80 687.64,212.90 688.39,212.96 689.14,213.06 689.89,213.12 690.64,213.22 691.39,213.29 692.14,213.39 692.89,213.45 693.64,213.55 694.39,213.62 695.14,213.72 695.89,213.79 696.65,213.89 697.40,213.96 698.15,214.06 698.90,214.13 699.65,214.24 700.40,214.31 701.15,214.41 701.90,214.48 702.65,214.59 703.40,214.66 704.15,214.77 704.90,214.84 705.65,214.96 706.40,215.03 707.16,215.14 707.91,215.21 708.66,215.33 709.41,215.41 710.16,215.52 710.91,215.60 711.66,215.71 712.41,215.79 713.16,215.91 713.91,215.99 714.66,216.11 715.41,216.19 716.16,216.31 716.91,216.39 717.67,216.52 718.42,216.60 719.17,216.72 719.92,216.81 720.67,216.94 721.42,217.02 722.17,217.15 722.92,217.24 723.67,217.37 724.42,217.46 725.17,217.59 725.92,217.68 726.67,217.82 727.43,217.91 728.18,218.05 728.93,218.15 729.68,218.28 730.43,218.38 731.18,218.52 731.93,218.62 732.68,218.77 733.43,218.87 734.18,219.02 734.93,219.12 735.68,219.27 736.43,219.38 737.18,219.53 737.94,219.64 738.69,219.79 739.44,219.91 740.19,220.06 740.94,220.18 741.69,220.34 742.44,220.46 743.19,220.62 743.94,220.74 744.69,220.91 745.44,221.04 746.19,221.21 746.94,221.34 747.70,221.51 748.45,221.65 749.20,221.82 749.95,221.96 750.70,222.14 751.45,222.29 752.20,222.47 752.95,222.62 753.70,222.81 754.45,222.96 755.20,223.16 755.95,223.32 756.70,223.52 757.45,223.68 758.21,223.89 758.96,224.06 759.71,224.27 760.46,224.44 761.21,224.66 761.96,224.85 762.71,225.07 763.46,225.26 764.21,225.49 764.96,225.69 765.71,225.93 766.46,226.14 767.21,226.39 767.96,226.60 768.72,226.87 769.47,227.09 770.22,227.36 770.97,227.60 771.72,227.88 772.47,228.12 773.22,228.42 773.97,228.68 774.72,228.99 775.47,229.26 776.22,229.58 776.97,229.87 777.72,230.21 778.48,230.52 779.23,230.88 779.98,231.21 780.73,231.59 781.48,231.94 782.23,232.35 782.98,232.72 783.73,233.16 784.48,233.56 785.23,234.03 785.98,234.47 786.73,234.97 787.48,235.45 788.23,236.00 788.99,236.53 789.74,237.13 790.49,237.72 791.24,238.38 791.99,239.05 792.74,239.81 793.49,240.56 794.24,241.42 794.99,242.30 795.74,243.31 796.49,244.00 797.24,244.00 797.99,244.00 798.74,244.00 799.50,244.00 800.25,244.00 801.00,244.00 801.75,244.00 802.50,244.00 803.25,244.00 804.00,244.00" />
  <text x="420.0" y="22" text-anchor="middle" font-family="Arial, Helvetica, sans-serif" font-size="15" fill="#102a43">hann_poisson_1p0 window (magnitude spectrum)</text>
  <text x="420.0" y="272" text-anchor="middle" font-family="Arial, Helvetica, sans-serif" font-size="12" fill="#334e68">normalized frequency</text>
  <text x="14" y="140.0" transform="rotate(-90 14,140.0)" text-anchor="middle" font-family="Arial, Helvetica, sans-serif" font-size="12" fill="#334e68">magnitude (dB)</text>
  <text x="36" y="262" font-family="Arial, Helvetica, sans-serif" font-size="11" fill="#486581">0</text>
  <text x="804" y="262" text-anchor="end" font-family="Arial, Helvetica, sans-serif" font-size="11" fill="#486581">1</text>
  <text x="30" y="40" text-anchor="end" font-family="Arial, Helvetica, sans-serif" font-size="11" fill="#486581">0.0</text>
  <text x="30" y="248" text-anchor="end" font-family="Arial, Helvetica, sans-serif" font-size="11" fill="#486581">-160.0</text>
</svg>
