<svg xmlns="http://www.w3.org/2000/svg" width="840" height="280" viewBox="0 0 840 280">
  <rect x="0" y="0" width="840" height="280" fill="#ffffff" />
  <rect x="36" y="36" width="768" height="208" fill="#f7fbff" stroke="#c8d9e6" />
  <polyline fill="none" stroke="#005f73" stroke-width="2" points="36.00,244.00 36.75,244.00 37.50,244.00 38.25,243.99 39.00,243.98 39.75,243.97 40.50,243.96 41.26,243.94 42.01,243.92 42.76,243.90 43.51,243.88 44.26,243.85 45.01,243.83 45.76,243.80 46.51,243.76 47.26,243.73 48.01,243.69 48.76,243.65 49.51,243.61 50.26,243.56 51.01,243.52 51.77,243.47 52.52,243.41 53.27,243.36 54.02,243.30 54.77,243.24 55.52,243.18 56.27,243.11 57.02,243.04 57.77,242.97 58.52,242.90 59.27,242.83 60.02,242.75 60.77,242.67 61.52,242.58 62.28,242.50 63.03,242.41 63.78,242.32 64.53,242.23 65.28,242.13 66.03,242.03 66.78,241.93 67.53,241.83 68.28,241.72 69.03,241.61 69.78,241.50 70.53,241.39 71.28,241.27 72.04,241.15 72.79,241.03 73.54,240.90 74.29,240.78 75.04,240.65 75.79,240.51 76.54,240.38 77.29,240.24 78.04,240.10 78.79,239.96 79.54,239.81 80.29,239.66 81.04,239.51 81.79,239.36 82.55,239.20 83.30,239.05 84.05,238.88 84.80,238.72 85.55,238.55 86.30,238.38 87.05,238.21 87.80,238.04 88.55,237.86 89.30,237.68 90.05,237.50 90.80,237.31 91.55,237.12 92.30,236.93 93.06,236.74 93.81,236.54 94.56,236.34 95.31,236.14 96.06,235.94 96.81,235.73 97.56,235.52 98.31,235.31 99.06,235.10 99.81,234.88 100.56,234.66 101.31,234.44 102.06,234.21 102.82,233.98 103.57,233.75 104.32,233.52 105.07,233.28 105.82,233.04 106.57,232.80 107.32,232.56 108.07,232.31 108.82,232.06 109.57,231.81 110.32,231.56 111.07,231.30 111.82,231.04 112.57,230.78 113.33,230.51 114.08,230.25 114.83,229.98 115.58,229.70 116.33,229.43 117.08,229.15 117.83,228.87 118.58,228.59 119.33,228.30 120.08,228.01 120.83,227.72 121.58,227.43 122.33,227.13 123.09,226.83 123.84,226.53 124.59,226.23 125.34,225.92 126.09,225.61 126.84,225.30 127.59,224.98 128.34,224.67 129.09,224.35 129.84,224.03 130.59,223.70 131.34,223.37 132.09,223.04 132.84,222.71 133.60,222.38 134.35,222.04 135.10,221.70 135.85,221.36 136.60,221.01 137.35,220.67 138.10,220.32 138.85,219.96 139.60,219.61 140.35,219.25 141.10,218.89 141.85,218.53 142.60,218.17 143.35,217.80 144.11,217.43 144.86,217.06 145.61,216.68 146.36,216.31 147.11,215.93 147.86,215.55 148.61,215.16 149.36,214.78 150.11,214.39 150.86,214.00 151.61,213.60 152.36,213.21 153.11,212.81 153.87,212.41 154.62,212.01 155.37,211.60 156.12,211.19 156.87,210.78 157.62,210.37 158.37,209.96 159.12,209.54 159.87,209.12 160.62,208.70 161.37,208.28 162.12,207.85 162.87,207.42 163.62,206.99 164.38,206.56 165.13,206.13 165.88,205.69 166.63,205.25 167.38,204.81 168.13,204.36 168.88,203.92 169.63,203.47 170.38,203.02 171.13,202.57 171.88,202.12 172.63,201.66 173.38,201.20 174.13,200.74 174.89,200.28 175.64,199.81 176.39,199.35 177.14,198.88 177.89,198.41 178.64,197.94 179.39,197.46 180.14,196.98 180.89,196.51 181.64,196.03 182.39,195.54 183.14,195.06 183.89,194.57 184.65,194.08 185.40,193.59 186.15,193.10 186.90,192.61 187.65,192.11 188.40,191.61 189.15,191.11 189.90,190.61 190.65,190.11 191.40,189.60 192.15,189.10 192.90,188.59 193.65,188.08 194.40,187.57 195.16,187.05 195.91,186.54 196.66,186.02 197.41,185.50 198.16,184.98 198.91,184.46 199.66,183.93 200.41,183.41 201.16,182.88 201.91,182.35 202.66,181.82 203.41,181.29 204.16,180.75 204.91,180.22 205.67,179.68 206.42,179.14 207.17,178.60 207.92,178.06 208.67,177.52 209.42,176.97 210.17,176.43 210.92,175.88 211.67,175.33 212.42,174.78 213.17,174.23 213.92,173.68 214.67,173.12 215.43,172.57 216.18,172.01 216.93,171.45 217.68,170.89 218.43,170.33 219.18,169.77 219.93,169.21 220.68,168.64 221.43,168.08 222.18,167.51 222.93,166.94 223.68,166.37 224.43,165.80 225.18,165.23 225.94,164.66 226.69,164.08 227.44,163.51 228.19,162.93 228.94,162.36 229.69,161.78 230.44,161.20 231.19,160.62 231.94,160.04 232.69,159.46 233.44,158.87 234.19,158.29 234.94,157.70 235.70,157.12 236.45,156.53 237.20,155.94 237.95,155.36 238.70,154.77 239.45,154.18 240.20,153.59 240.95,153.00 241.70,152.40 242.45,151.81 243.20,151.22 243.95,150.62 244.70,150.03 245.45,149.43 246.21,148.84 246.96,148.24 247.71,147.64 248.46,147.04 249.21,146.45 249.96,145.85 250.71,145.25 251.46,144.65 252.21,144.05 252.96,143.45 253.71,142.84 254.46,142.24 255.21,141.64 255.96,141.04 256.72,140.43 257.47,139.83 258.22,139.23 258.97,138.62 259.72,138.02 260.47,137.41 261.22,136.81 261.97,136.20 262.72,135.60 263.47,134.99 264.22,134.39 264.97,133.78 265.72,133.18 266.48,132.57 267.23,131.96 267.98,131.36 268.73,130.75 269.48,130.15 270.23,129.54 270.98,128.93 271.73,128.33 272.48,127.72 273.23,127.11 273.98,126.51 274.73,125.90 275.48,125.30 276.23,124.69 276.99,124.09 277.74,123.48 278.49,122.88 279.24,122.27 279.99,121.67 280.74,121.06 281.49,120.46 282.24,119.86 282.99,119.25 283.74,118.65 284.49,118.05 285.24,117.45 285.99,116.84 286.74,116.24 287.50,115.64 288.25,115.04 289.00,114.44 289.75,113.84 290.50,113.24 291.25,112.65 292.00,112.05 292.75,111.45 293.50,110.86 294.25,110.26 295.00,109.66 295.75,109.07 296.50,108.48 297.26,107.88 298.01,107.29 298.76,106.70 299.51,106.11 300.26,105.52 301.01,104.93 301.76,104.35 302.51,103.76 303.26,103.17 304.01,102.59 304.76,102.00 305.51,101.42 306.26,100.84 307.01,100.26 307.77,99.68 308.52,99.10 309.27,98.52 310.02,97.94 310.77,97.37 311.52,96.79 312.27,96.22 313.02,95.65 313.77,95.08 314.52,94.51 315.27,93.94 316.02,93.37 316.77,92.80 317.52,92.24 318.28,91.68 319.03,91.11 319.78,90.55 320.53,89.99 321.28,89.44 322.03,88.88 322.78,88.32 323.53,87.77 324.28,87.22 325.03,86.67 325.78,86.12 326.53,85.57 327.28,85.03 328.04,84.48 328.79,83.94 329.54,83.40 330.29,82.86 331.04,82.32 331.79,81.79 332.54,81.25 333.29,80.72 334.04,80.19 334.79,79.66 335.54,79.13 336.29,78.61 337.04,78.09 337.79,77.56 338.55,77.04 339.30,76.53 340.05,76.01 340.80,75.50 341.55,74.99 342.30,74.48 343.05,73.97 343.80,73.46 344.55,72.96 345.30,72.46 346.05,71.96 346.80,71.46 347.55,70.97 348.30,70.47 349.06,69.98 349.81,69.49 350.56,69.01 351.31,68.52 352.06,68.04 352.81,67.56 353.56,67.08 354.31,66.61 355.06,66.14 355.81,65.66 356.56,65.20 357.31,64.73 358.06,64.27 358.82,63.81 359.57,63.35 360.32,62.89 361.07,62.44 361.82,61.99 362.57,61.54 363.32,61.09 364.07,60.65 364.82,60.21 365.57,59.77 366.32,59.34 367.07,58.90 367.82,58.47 368.57,58.05 369.33,57.62 370.08,57.20 370.83,56.78 371.58,56.36 372.33,55.95 373.08,55.54 373.83,55.13 374.58,54.72 375.33,54.32 376.08,53.92 376.83,53.52 377.58,53.13 378.33,52.74 379.09,52.35 379.84,51.96 380.59,51.58 381.34,51.20 382.09,50.83 382.84,50.45 383.59,50.08 384.34,49.72 385.09,49.35 385.84,48.99 386.59,48.63 387.34,48.28 388.09,47.92 388.84,47.58 389.60,47.23 390.35,46.89 391.10,46.55 391.85,46.21 392.60,45.88 393.35,45.55 394.10,45.22 394.85,44.90 395.60,44.58 396.35,44.26 397.10,43.95 397.85,43.64 398.60,43.33 399.35,43.03 400.11,42.73 400.86,42.43 401.61,42.14 402.36,41.85 403.11,41.56 403.86,41.28 404.61,41.00 405.36,40.72 406.11,40.45 406.86,40.18 407.61,39.92 408.36,39.65 409.11,39.40 409.87,39.14 410.62,38.89 411.37,38.64 412.12,38.40 412.87,38.16 413.62,37.92 414.37,37.69 415.12,37.46 415.87,37.23 416.62,37.01 417.37,36.79 418.12,36.57 418.87,36.36 419.62,36.15 420.38,36.05 421.13,36.26 421.88,36.47 422.63,36.68 423.38,36.90 424.13,37.12 424.88,37.34 425.63,37.57 426.38,37.80 427.13,38.04 427.88,38.28 428.63,38.52 429.38,38.77 430.13,39.01 430.89,39.27 431.64,39.52 432.39,39.79 433.14,40.05 433.89,40.32 434.64,40.59 435.39,40.86 436.14,41.14 436.89,41.42 437.64,41.71 438.39,41.99 439.14,42.29 439.89,42.58 440.65,42.88 441.40,43.18 442.15,43.49 442.90,43.79 443.65,44.11 444.40,44.42 445.15,44.74 445.90,45.06 446.65,45.39 447.40,45.71 448.15,46.04 448.90,46.38 449.65,46.72 450.40,47.06 451.16,47.40 451.91,47.75 452.66,48.10 453.41,48.45 454.16,48.81 454.91,49.17 455.66,49.53 456.41,49.90 457.16,50.27 457.91,50.64 458.66,51.01 459.41,51.39 460.16,51.77 460.91,52.16 461.67,52.54 462.42,52.93 463.17,53.33 463.92,53.72 464.67,54.12 465.42,54.52 466.17,54.93 466.92,55.33 467.67,55.74 468.42,56.16 469.17,56.57 469.92,56.99 470.67,57.41 471.43,57.83 472.18,58.26 472.93,58.69 473.68,59.12 474.43,59.55 475.18,59.99 475.93,60.43 476.68,60.87 477.43,61.32 478.18,61.76 478.93,62.21 479.68,62.67 480.43,63.12 481.18,63.58 481.94,64.04 482.69,64.50 483.44,64.96 484.19,65.43 484.94,65.90 485.69,66.37 486.44,66.85 487.19,67.32 487.94,67.80 488.69,68.28 489.44,68.76 490.19,69.25 490.94,69.74 491.70,70.23 492.45,70.72 493.20,71.21 493.95,71.71 494.70,72.21 495.45,72.71 496.20,73.21 496.95,73.72 497.70,74.22 498.45,74.73 499.20,75.24 499.95,75.75 500.70,76.27 501.45,76.79 502.21,77.30 502.96,77.82 503.71,78.35 504.46,78.87 505.21,79.40 505.96,79.92 506.71,80.45 507.46,80.99 508.21,81.52 508.96,82.05 509.71,82.59 510.46,83.13 511.21,83.67 511.96,84.21 512.72,84.75 513.47,85.30 514.22,85.85 514.97,86.39 515.72,86.94 516.47,87.49 517.22,88.05 517.97,88.60 518.72,89.16 519.47,89.71 520.22,90.27 520.97,90.83 521.72,91.39 522.48,91.96 523.23,92.52 523.98,93.09 524.73,93.65 525.48,94.22 526.23,94.79 526.98,95.36 527.73,95.93 528.48,96.51 529.23,97.08 529.98,97.65 530.73,98.23 531.48,98.81 532.23,99.39 532.99,99.97 533.74,100.55 534.49,101.13 535.24,101.71 535.99,102.29 536.74,102.88 537.49,103.46 538.24,104.05 538.99,104.64 539.74,105.23 540.49,105.82 541.24,106.41 541.99,107.00 542.74,107.59 543.50,108.18 544.25,108.77 545.00,109.37 545.75,109.96 546.50,110.56 547.25,111.15 548.00,111.75 548.75,112.35 549.50,112.94 550.25,113.54 551.00,114.14 551.75,114.74 552.50,115.34 553.26,115.94 554.01,116.54 554.76,117.14 555.51,117.75 556.26,118.35 557.01,118.95 557.76,119.55 558.51,120.16 559.26,120.76 560.01,121.37 560.76,121.97 561.51,122.57 562.26,123.18 563.01,123.78 563.77,124.39 564.52,124.99 565.27,125.60 566.02,126.21 566.77,126.81 567.52,127.42 568.27,128.02 569.02,128.63 569.77,129.24 570.52,129.84 571.27,130.45 572.02,131.05 572.77,131.66 573.52,132.27 574.28,132.87 575.03,133.48 575.78,134.08 576.53,134.69 577.28,135.30 578.03,135.90 578.78,136.51 579.53,137.11 580.28,137.72 581.03,138.32 581.78,138.92 582.53,139.53 583.28,140.13 584.04,140.74 584.79,141.34 585.54,141.94 586.29,142.54 587.04,143.14 587.79,143.75 588.54,144.35 589.29,144.95 590.04,145.55 590.79,146.15 591.54,146.74 592.29,147.34 593.04,147.94 593.79,148.54 594.55,149.13 595.30,149.73 596.05,150.33 596.80,150.92 597.55,151.51 598.30,152.11 599.05,152.70 599.80,153.29 600.55,153.88 601.30,154.47 602.05,155.06 602.80,155.65 603.55,156.24 604.30,156.83 605.06,157.41 605.81,158.00 606.56,158.58 607.31,159.16 608.06,159.75 608.81,160.33 609.56,160.91 610.31,161.49 611.06,162.07 611.81,162.64 612.56,163.22 613.31,163.80 614.06,164.37 614.82,164.94 615.57,165.52 616.32,166.09 617.07,166.66 617.82,167.23 618.57,167.79 619.32,168.36 620.07,168.92 620.82,169.49 621.57,170.05 622.32,170.61 623.07,171.17 623.82,171.73 624.57,172.29 625.33,172.85 626.08,173.40 626.83,173.95 627.58,174.51 628.33,175.06 629.08,175.61 629.83,176.15 630.58,176.70 631.33,177.25 632.08,177.79 632.83,178.33 633.58,178.87 634.33,179.41 635.09,179.95 635.84,180.49 636.59,181.02 637.34,181.55 638.09,182.08 638.84,182.61 639.59,183.14 640.34,183.67 641.09,184.19 641.84,184.72 642.59,185.24 643.34,185.76 644.09,186.28 644.84,186.79 645.60,187.31 646.35,187.82 647.10,188.33 647.85,188.84 648.60,189.35 649.35,189.86 650.10,190.36 650.85,190.86 651.60,191.36 652.35,191.86 653.10,192.36 653.85,192.85 654.60,193.35 655.35,193.84 656.11,194.33 656.86,194.82 657.61,195.30 658.36,195.78 659.11,196.27 659.86,196.75 660.61,197.22 661.36,197.70 662.11,198.17 662.86,198.64 663.61,199.11 664.36,199.58 665.11,200.05 665.87,200.51 666.62,200.97 667.37,201.43 668.12,201.89 668.87,202.34 669.62,202.80 670.37,203.25 671.12,203.70 671.87,204.14 672.62,204.59 673.37,205.03 674.12,205.47 674.87,205.91 675.62,206.34 676.38,206.78 677.13,207.21 677.88,207.64 678.63,208.06 679.38,208.49 680.13,208.91 680.88,209.33 681.63,209.75 682.38,210.16 683.13,210.58 683.88,210.99 684.63,211.40 685.38,211.80 686.13,212.21 686.89,212.61 687.64,213.01 688.39,213.41 689.14,213.80 689.89,214.19 690.64,214.58 691.39,214.97 692.14,215.35 692.89,215.74 693.64,216.12 694.39,216.50 695.14,216.87 695.89,217.24 696.65,217.61 697.40,217.98 698.15,218.35 698.90,218.71 699.65,219.07 700.40,219.43 701.15,219.79 701.90,220.14 702.65,220.49 703.40,220.84 704.15,221.19 704.90,221.53 705.65,221.87 706.40,222.21 707.16,222.54 707.91,222.88 708.66,223.21 709.41,223.54 710.16,223.86 710.91,224.19 711.66,224.51 712.41,224.83 713.16,225.14 713.91,225.45 714.66,225.76 715.41,226.07 716.16,226.38 716.91,226.68 717.67,226.98 718.42,227.28 719.17,227.57 719.92,227.87 720.67,228.16 721.42,228.44 722.17,228.73 722.92,229.01 723.67,229.29 724.42,229.57 725.17,229.84 725.92,230.11 726.67,230.38 727.43,230.65 728.18,230.91 728.93,231.17 729.68,231.43 730.43,231.68 731.18,231.94 731.93,232.19 732.68,232.44 733.43,232.68 734.18,232.92 734.93,233.16 735.68,233.40 736.43,233.64 737.18,233.87 737.94,234.10 738.69,234.32 739.44,234.55 740.19,234.77 740.94,234.99 741.69,235.20 742.44,235.42 743.19,235.63 743.94,235.84 744.69,236.04 745.44,236.24 746.19,236.44 746.94,236.64 747.70,236.84 748.45,237.03 749.20,237.22 749.95,237.40 750.70,237.59 751.45,237.77 752.20,237.95 752.95,238.12 753.70,238.30 754.45,238.47 755.20,238.64 755.95,238.80 756.70,238.96 757.45,239.12 758.21,239.28 758.96,239.44 759.71,239.59 760.46,239.74 761.21,239.89 761.96,240.03 762.71,240.17 763.46,240.31 764.21,240.45 764.96,240.58 765.71,240.71 766.46,240.84 767.21,240.97 767.96,241.09 768.72,241.21 769.47,241.33 770.22,241.44 770.97,241.56 771.72,241.67 772.47,241.77 773.22,241.88 773.97,241.98 774.72,242.08 775.47,242.18 776.22,242.27 776.97,242.37 777.72,242.46 778.48,242.54 779.23,242.63 779.98,242.71 780.73,242.79 781.48,242.86 782.23,242.94 782.98,243.01 783.73,243.08 784.48,243.15 785.23,243.21 785.98,243.27 786.73,243.33 787.48,243.39 788.23,243.44 788.99,243.49 789.74,243.54 790.49,243.59 791.24,243.63 791.99,243.67 792.74,243.71 793.49,243.75 794.24,243.78 794.99,243.81 795.74,243.84 796.49,243.87 797.24,243.89 797.99,243.91 798.74,243.93 799.50,243.95 800.25,243.96 801.00,243.98 801.75,243.99 802.50,243.99 803.25,244.00 804.00,244.00" />
  <text x="420.0" y="22" text-anchor="middle" font-family="Arial, Helvetica, sans-serif" font-size="15" fill="#102a43">hann_poisson_0p5 window (time domain)</text>
  <text x="420.0" y="272" text-anchor="middle" font-family="Arial, Helvetica, sans-serif" font-size="12" fill="#334e68">normalized sample index</text>
  <text x="14" y="140.0" transform="rotate(-90 14,140.0)" text-anchor="middle" font-family="Arial, Helvetica, sans-serif" font-size="12" fill="#334e68">amplitude</text>
  <text x="36" y="262" font-family="Arial, Helvetica, sans-serif" font-size="11" fill="#486581">0</text>
  <text x="804" y="262" text-anchor="end" font-family="Arial, Helvetica, sans-serif" font-size="11" fill="#486581">1</text>
  <text x="30" y="40" text-anchor="end" font-family="Arial, Helvetica, sans-serif" font-size="11" fill="#486581">1.0</text>
  <text x="30" y="248" text-anchor="end" font-family="Arial, Helvetica, sans-serif" font-size="11" fill="#486581">0.0</text>
</svg>
