<svg xmlns="http://www.w3.org/2000/svg" width="840" height="280" viewBox="0 0 840 280">
  <rect x="0" y="0" width="840" height="280" fill="#ffffff" />
  <rect x="36" y="36" width="768" height="208" fill="#f7fbff" stroke="#c8d9e6" />
  <polyline fill="none" stroke="#005f73" stroke-width="2" points="36.00,244.00 36.75,244.00 37.50,244.00 38.25,244.00 39.00,244.00 39.75,243.99 40.50,243.99 41.26,243.99 42.01,243.98 42.76,243.98 43.51,243.97 44.26,243.97 45.01,243.96 45.76,243.95 46.51,243.95 47.26,243.94 48.01,243.93 48.76,243.92 49.51,243.91 50.26,243.90 51.01,243.89 51.77,243.87 52.52,243.86 53.27,243.85 54.02,243.83 54.77,243.82 55.52,243.80 56.27,243.79 57.02,243.77 57.77,243.75 58.52,243.73 59.27,243.71 60.02,243.69 60.77,243.67 61.52,243.65 62.28,243.63 63.03,243.61 63.78,243.58 64.53,243.56 65.28,243.53 66.03,243.51 66.78,243.48 67.53,243.45 68.28,243.42 69.03,243.39 69.78,243.36 70.53,243.33 71.28,243.30 72.04,243.27 72.79,243.23 73.54,243.20 74.29,243.16 75.04,243.13 75.79,243.09 76.54,243.05 77.29,243.01 78.04,242.97 78.79,242.93 79.54,242.89 80.29,242.85 81.04,242.81 81.79,242.76 82.55,242.72 83.30,242.67 84.05,242.62 84.80,242.57 85.55,242.53 86.30,242.47 87.05,242.42 87.80,242.37 88.55,242.32 89.30,242.26 90.05,242.21 90.80,242.15 91.55,242.09 92.30,242.04 93.06,241.98 93.81,241.91 94.56,241.85 95.31,241.79 96.06,241.73 96.81,241.66 97.56,241.59 98.31,241.53 99.06,241.46 99.81,241.39 100.56,241.32 101.31,241.25 102.06,241.17 102.82,241.10 103.57,241.02 104.32,240.95 105.07,240.87 105.82,240.79 106.57,240.71 107.32,240.63 108.07,240.54 108.82,240.46 109.57,240.38 110.32,240.29 111.07,240.20 111.82,240.11 112.57,240.02 113.33,239.93 114.08,239.84 114.83,239.74 115.58,239.65 116.33,239.55 117.08,239.45 117.83,239.35 118.58,239.25 119.33,239.15 120.08,239.05 120.83,238.94 121.58,238.83 122.33,238.73 123.09,238.62 123.84,238.51 124.59,238.40 125.34,238.28 126.09,238.17 126.84,238.05 127.59,237.93 128.34,237.81 129.09,237.69 129.84,237.57 130.59,237.45 131.34,237.32 132.09,237.20 132.84,237.07 133.60,236.94 134.35,236.81 135.10,236.67 135.85,236.54 136.60,236.40 137.35,236.27 138.10,236.13 138.85,235.99 139.60,235.84 140.35,235.70 141.10,235.56 141.85,235.41 142.60,235.26 143.35,235.11 144.11,234.96 144.86,234.80 145.61,234.65 146.36,234.49 147.11,234.33 147.86,234.17 148.61,234.01 149.36,233.85 150.11,233.68 150.86,233.52 151.61,233.35 152.36,233.18 153.11,233.01 153.87,232.83 154.62,232.66 155.37,232.48 156.12,232.30 156.87,232.12 157.62,231.94 158.37,231.75 159.12,231.57 159.87,231.38 160.62,231.19 161.37,231.00 162.12,230.80 162.87,230.61 163.62,230.41 164.38,230.21 165.13,230.01 165.88,229.81 166.63,229.60 167.38,229.39 168.13,229.19 168.88,228.98 169.63,228.76 170.38,228.55 171.13,228.33 171.88,228.11 172.63,227.89 173.38,227.67 174.13,227.45 174.89,227.22 175.64,226.99 176.39,226.76 177.14,226.53 177.89,226.30 178.64,226.06 179.39,225.82 180.14,225.58 180.89,225.34 181.64,225.10 182.39,224.85 183.14,224.60 183.89,224.35 184.65,224.10 185.40,223.85 186.15,223.59 186.90,223.33 187.65,223.07 188.40,222.81 189.15,222.54 189.90,222.28 190.65,222.01 191.40,221.73 192.15,221.46 192.90,221.19 193.65,220.91 194.40,220.63 195.16,220.35 195.91,220.06 196.66,219.78 197.41,219.49 198.16,219.20 198.91,218.90 199.66,218.61 200.41,218.31 201.16,218.01 201.91,217.71 202.66,217.40 203.41,217.10 204.16,216.79 204.91,216.48 205.67,216.17 206.42,215.85 207.17,215.53 207.92,215.21 208.67,214.89 209.42,214.57 210.17,214.24 210.92,213.91 211.67,213.58 212.42,213.24 213.17,212.91 213.92,212.57 214.67,212.23 215.43,211.89 216.18,211.54 216.93,211.19 217.68,210.84 218.43,210.49 219.18,210.14 219.93,209.78 220.68,209.42 221.43,209.06 222.18,208.69 222.93,208.33 223.68,207.96 224.43,207.59 225.18,207.21 225.94,206.84 226.69,206.46 227.44,206.08 228.19,205.69 228.94,205.31 229.69,204.92 230.44,204.53 231.19,204.13 231.94,203.74 232.69,203.34 233.44,202.94 234.19,202.54 234.94,202.13 235.70,201.72 236.45,201.31 237.20,200.90 237.95,200.49 238.70,200.07 239.45,199.65 240.20,199.22 240.95,198.80 241.70,198.37 242.45,197.94 243.20,197.51 243.95,197.07 244.70,196.64 245.45,196.20 246.21,195.75 246.96,195.31 247.71,194.86 248.46,194.41 249.21,193.96 249.96,193.50 250.71,193.05 251.46,192.59 252.21,192.12 252.96,191.66 253.71,191.19 254.46,190.72 255.21,190.25 255.96,189.77 256.72,189.29 257.47,188.81 258.22,188.33 258.97,187.85 259.72,187.36 260.47,186.87 261.22,186.38 261.97,185.88 262.72,185.38 263.47,184.88 264.22,184.38 264.97,183.87 265.72,183.37 266.48,182.85 267.23,182.34 267.98,181.83 268.73,181.31 269.48,180.79 270.23,180.26 270.98,179.74 271.73,179.21 272.48,178.68 273.23,178.15 273.98,177.61 274.73,177.07 275.48,176.53 276.23,175.99 276.99,175.44 277.74,174.90 278.49,174.34 279.24,173.79 279.99,173.24 280.74,172.68 281.49,172.12 282.24,171.55 282.99,170.99 283.74,170.42 284.49,169.85 285.24,169.28 285.99,168.70 286.74,168.12 287.50,167.54 288.25,166.96 289.00,166.37 289.75,165.78 290.50,165.19 291.25,164.60 292.00,164.01 292.75,163.41 293.50,162.81 294.25,162.21 295.00,161.60 295.75,160.99 296.50,160.38 297.26,159.77 298.01,159.16 298.76,158.54 299.51,157.92 300.26,157.30 301.01,156.67 301.76,156.05 302.51,155.42 303.26,154.79 304.01,154.15 304.76,153.52 305.51,152.88 306.26,152.24 307.01,151.60 307.77,150.95 308.52,150.30 309.27,149.65 310.02,149.00 310.77,148.35 311.52,147.69 312.27,147.03 313.02,146.37 313.77,145.71 314.52,145.04 315.27,144.37 316.02,143.70 316.77,143.03 317.52,142.36 318.28,141.68 319.03,141.00 319.78,140.32 320.53,139.64 321.28,138.95 322.03,138.26 322.78,137.57 323.53,136.88 324.28,136.19 325.03,135.49 325.78,134.79 326.53,134.09 327.28,133.39 328.04,132.69 328.79,131.98 329.54,131.27 330.29,130.56 331.04,129.85 331.79,129.13 332.54,128.42 333.29,127.70 334.04,126.98 334.79,126.26 335.54,125.53 336.29,124.80 337.04,124.08 337.79,123.35 338.55,122.61 339.30,121.88 340.05,121.15 340.80,120.41 341.55,119.67 342.30,118.93 343.05,118.19 343.80,117.44 344.55,116.69 345.30,115.95 346.05,115.20 346.80,114.44 347.55,113.69 348.30,112.94 349.06,112.18 349.81,111.42 350.56,110.66 351.31,109.90 352.06,109.14 352.81,108.37 353.56,107.61 354.31,106.84 355.06,106.07 355.81,105.30 356.56,104.53 357.31,103.75 358.06,102.98 358.82,102.20 359.57,101.42 360.32,100.64 361.07,99.86 361.82,99.08 362.57,98.30 363.32,97.51 364.07,96.73 364.82,95.94 365.57,95.15 366.32,94.36 367.07,93.57 367.82,92.78 368.57,91.98 369.33,91.19 370.08,90.39 370.83,89.60 371.58,88.80 372.33,88.00 373.08,87.20 373.83,86.40 374.58,85.60 375.33,84.79 376.08,83.99 376.83,83.19 377.58,82.38 378.33,81.57 379.09,80.77 379.84,79.96 380.59,79.15 381.34,78.34 382.09,77.53 382.84,76.72 383.59,75.90 384.34,75.09 385.09,74.28 385.84,73.46 386.59,72.65 387.34,71.83 388.09,71.02 388.84,70.20 389.60,69.38 390.35,68.57 391.10,67.75 391.85,66.93 392.60,66.11 393.35,65.29 394.10,64.47 394.85,63.65 395.60,62.83 396.35,62.01 397.10,61.19 397.85,60.37 398.60,59.55 399.35,58.73 400.11,57.91 400.86,57.09 401.61,56.26 402.36,55.44 403.11,54.62 403.86,53.80 404.61,52.98 405.36,52.16 406.11,51.34 406.86,50.52 407.61,49.69 408.36,48.87 409.11,48.05 409.87,47.23 410.62,46.41 411.37,45.59 412.12,44.77 412.87,43.96 413.62,43.14 414.37,42.32 415.12,41.50 415.87,40.69 416.62,39.87 417.37,39.05 418.12,38.24 418.87,37.42 419.62,36.61 420.38,36.20 421.13,37.02 421.88,37.83 422.63,38.65 423.38,39.46 424.13,40.28 424.88,41.09 425.63,41.91 426.38,42.73 427.13,43.55 427.88,44.37 428.63,45.18 429.38,46.00 430.13,46.82 430.89,47.64 431.64,48.46 432.39,49.28 433.14,50.10 433.89,50.93 434.64,51.75 435.39,52.57 436.14,53.39 436.89,54.21 437.64,55.03 438.39,55.85 439.14,56.68 439.89,57.50 440.65,58.32 441.40,59.14 442.15,59.96 442.90,60.78 443.65,61.60 444.40,62.42 445.15,63.24 445.90,64.06 446.65,64.88 447.40,65.70 448.15,66.52 448.90,67.34 449.65,68.16 450.40,68.97 451.16,69.79 451.91,70.61 452.66,71.42 453.41,72.24 454.16,73.06 454.91,73.87 455.66,74.68 456.41,75.50 457.16,76.31 457.91,77.12 458.66,77.93 459.41,78.74 460.16,79.55 460.91,80.36 461.67,81.17 462.42,81.98 463.17,82.78 463.92,83.59 464.67,84.39 465.42,85.20 466.17,86.00 466.92,86.80 467.67,87.60 468.42,88.40 469.17,89.20 469.92,90.00 470.67,90.79 471.43,91.59 472.18,92.38 472.93,93.17 473.68,93.97 474.43,94.76 475.18,95.55 475.93,96.33 476.68,97.12 477.43,97.91 478.18,98.69 478.93,99.47 479.68,100.25 480.43,101.03 481.18,101.81 481.94,102.59 482.69,103.37 483.44,104.14 484.19,104.91 484.94,105.68 485.69,106.45 486.44,107.22 487.19,107.99 487.94,108.76 488.69,109.52 489.44,110.28 490.19,111.04 490.94,111.80 491.70,112.56 492.45,113.31 493.20,114.07 493.95,114.82 494.70,115.57 495.45,116.32 496.20,117.07 496.95,117.81 497.70,118.56 498.45,119.30 499.20,120.04 499.95,120.78 500.70,121.51 501.45,122.25 502.21,122.98 502.96,123.71 503.71,124.44 504.46,125.17 505.21,125.89 505.96,126.62 506.71,127.34 507.46,128.06 508.21,128.78 508.96,129.49 509.71,130.20 510.46,130.92 511.21,131.63 511.96,132.33 512.72,133.04 513.47,133.74 514.22,134.44 514.97,135.14 515.72,135.84 516.47,136.53 517.22,137.23 517.97,137.92 518.72,138.61 519.47,139.29 520.22,139.98 520.97,140.66 521.72,141.34 522.48,142.02 523.23,142.69 523.98,143.37 524.73,144.04 525.48,144.71 526.23,145.37 526.98,146.04 527.73,146.70 528.48,147.36 529.23,148.02 529.98,148.67 530.73,149.33 531.48,149.98 532.23,150.63 532.99,151.27 533.74,151.92 534.49,152.56 535.24,153.20 535.99,153.84 536.74,154.47 537.49,155.10 538.24,155.73 538.99,156.36 539.74,156.99 540.49,157.61 541.24,158.23 541.99,158.85 542.74,159.46 543.50,160.08 544.25,160.69 545.00,161.30 545.75,161.90 546.50,162.51 547.25,163.11 548.00,163.71 548.75,164.30 549.50,164.90 550.25,165.49 551.00,166.08 551.75,166.67 552.50,167.25 553.26,167.83 554.01,168.41 554.76,168.99 555.51,169.56 556.26,170.13 557.01,170.70 557.76,171.27 558.51,171.84 559.26,172.40 560.01,172.96 560.76,173.51 561.51,174.07 562.26,174.62 563.01,175.17 563.77,175.72 564.52,176.26 565.27,176.80 566.02,177.34 566.77,177.88 567.52,178.41 568.27,178.95 569.02,179.48 569.77,180.00 570.52,180.53 571.27,181.05 572.02,181.57 572.77,182.08 573.52,182.60 574.28,183.11 575.03,183.62 575.78,184.13 576.53,184.63 577.28,185.13 578.03,185.63 578.78,186.13 579.53,186.62 580.28,187.11 581.03,187.60 581.78,188.09 582.53,188.57 583.28,189.05 584.04,189.53 584.79,190.01 585.54,190.48 586.29,190.96 587.04,191.42 587.79,191.89 588.54,192.35 589.29,192.82 590.04,193.28 590.79,193.73 591.54,194.19 592.29,194.64 593.04,195.09 593.79,195.53 594.55,195.98 595.30,196.42 596.05,196.86 596.80,197.29 597.55,197.73 598.30,198.16 599.05,198.59 599.80,199.01 600.55,199.44 601.30,199.86 602.05,200.28 602.80,200.69 603.55,201.11 604.30,201.52 605.06,201.93 605.81,202.33 606.56,202.74 607.31,203.14 608.06,203.54 608.81,203.94 609.56,204.33 610.31,204.72 611.06,205.11 611.81,205.50 612.56,205.88 613.31,206.27 614.06,206.65 614.82,207.02 615.57,207.40 616.32,207.77 617.07,208.14 617.82,208.51 618.57,208.88 619.32,209.24 620.07,209.60 620.82,209.96 621.57,210.31 622.32,210.67 623.07,211.02 623.82,211.37 624.57,211.71 625.33,212.06 626.08,212.40 626.83,212.74 627.58,213.08 628.33,213.41 629.08,213.74 629.83,214.07 630.58,214.40 631.33,214.73 632.08,215.05 632.83,215.37 633.58,215.69 634.33,216.01 635.09,216.32 635.84,216.63 636.59,216.94 637.34,217.25 638.09,217.56 638.84,217.86 639.59,218.16 640.34,218.46 641.09,218.76 641.84,219.05 642.59,219.34 643.34,219.63 644.09,219.92 644.84,220.20 645.60,220.49 646.35,220.77 647.10,221.05 647.85,221.32 648.60,221.60 649.35,221.87 650.10,222.14 650.85,222.41 651.60,222.67 652.35,222.94 653.10,223.20 653.85,223.46 654.60,223.72 655.35,223.97 656.11,224.23 656.86,224.48 657.61,224.73 658.36,224.97 659.11,225.22 659.86,225.46 660.61,225.70 661.36,225.94 662.11,226.18 662.86,226.41 663.61,226.65 664.36,226.88 665.11,227.11 665.87,227.33 666.62,227.56 667.37,227.78 668.12,228.00 668.87,228.22 669.62,228.44 670.37,228.66 671.12,228.87 671.87,229.08 672.62,229.29 673.37,229.50 674.12,229.70 674.87,229.91 675.62,230.11 676.38,230.31 677.13,230.51 677.88,230.70 678.63,230.90 679.38,231.09 680.13,231.28 680.88,231.47 681.63,231.66 682.38,231.84 683.13,232.03 683.88,232.21 684.63,232.39 685.38,232.57 686.13,232.74 686.89,232.92 687.64,233.09 688.39,233.26 689.14,233.43 689.89,233.60 690.64,233.77 691.39,233.93 692.14,234.09 692.89,234.25 693.64,234.41 694.39,234.57 695.14,234.73 695.89,234.88 696.65,235.03 697.40,235.19 698.15,235.33 698.90,235.48 699.65,235.63 700.40,235.77 701.15,235.92 701.90,236.06 702.65,236.20 703.40,236.33 704.15,236.47 704.90,236.61 705.65,236.74 706.40,236.87 707.16,237.00 707.91,237.13 708.66,237.26 709.41,237.38 710.16,237.51 710.91,237.63 711.66,237.75 712.41,237.87 713.16,237.99 713.91,238.11 714.66,238.22 715.41,238.34 716.16,238.45 716.91,238.56 717.67,238.67 718.42,238.78 719.17,238.89 719.92,238.99 720.67,239.10 721.42,239.20 722.17,239.30 722.92,239.40 723.67,239.50 724.42,239.60 725.17,239.70 725.92,239.79 726.67,239.88 727.43,239.98 728.18,240.07 728.93,240.16 729.68,240.25 730.43,240.33 731.18,240.42 731.93,240.50 732.68,240.59 733.43,240.67 734.18,240.75 734.93,240.83 735.68,240.91 736.43,240.98 737.18,241.06 737.94,241.14 738.69,241.21 739.44,241.28 740.19,241.35 740.94,241.42 741.69,241.49 742.44,241.56 743.19,241.63 743.94,241.69 744.69,241.76 745.44,241.82 746.19,241.88 746.94,241.95 747.70,242.01 748.45,242.06 749.20,242.12 749.95,242.18 750.70,242.24 751.45,242.29 752.20,242.34 752.95,242.40 753.70,242.45 754.45,242.50 755.20,242.55 755.95,242.60 756.70,242.65 757.45,242.69 758.21,242.74 758.96,242.78 759.71,242.83 760.46,242.87 761.21,242.91 761.96,242.95 762.71,242.99 763.46,243.03 764.21,243.07 764.96,243.11 765.71,243.15 766.46,243.18 767.21,243.22 767.96,243.25 768.72,243.28 769.47,243.32 770.22,243.35 770.97,243.38 771.72,243.41 772.47,243.44 773.22,243.47 773.97,243.49 774.72,243.52 775.47,243.55 776.22,243.57 776.97,243.59 777.72,243.62 778.48,243.64 779.23,243.66 779.98,243.68 780.73,243.70 781.48,243.72 782.23,243.74 782.98,243.76 783.73,243.78 784.48,243.79 785.23,243.81 785.98,243.83 786.73,243.84 787.48,243.85 788.23,243.87 788.99,243.88 789.74,243.89 790.49,243.90 791.24,243.91 791.99,243.92 792.74,243.93 793.49,243.94 794.24,243.95 794.99,243.96 795.74,243.96 796.49,243.97 797.24,243.98 797.99,243.98 798.74,243.98 799.50,243.99 800.25,243.99 801.00,243.99 801.75,244.00 802.50,244.00 803.25,244.00 804.00,244.00" />
  <text x="420.0" y="22" text-anchor="middle" font-family="Arial, Helvetica, sans-serif" font-size="15" fill="#102a43">hann_poisson_2p0 window (time domain)</text>
  <text x="420.0" y="272" text-anchor="middle" font-family="Arial, Helvetica, sans-serif" font-size="12" fill="#334e68">normalized sample index</text>
  <text x="14" y="140.0" transform="rotate(-90 14,140.0)" text-anchor="middle" font-family="Arial, Helvetica, sans-serif" font-size="12" fill="#334e68">amplitude</text>
  <text x="36" y="262" font-family="Arial, Helvetica, sans-serif" font-size="11" fill="#486581">0</text>
  <text x="804" y="262" text-anchor="end" font-family="Arial, Helvetica, sans-serif" font-size="11" fill="#486581">1</text>
  <text x="30" y="40" text-anchor="end" font-family="Arial, Helvetica, sans-serif" font-size="11" fill="#486581">1.0</text>
  <text x="30" y="248" text-anchor="end" font-family="Arial, Helvetica, sans-serif" font-size="11" fill="#486581">0.0</text>
</svg>
