<svg xmlns="http://www.w3.org/2000/svg" width="840" height="280" viewBox="0 0 840 280">
  <rect x="0" y="0" width="840" height="280" fill="#ffffff" />
  <rect x="36" y="36" width="768" height="208" fill="#f7fbff" stroke="#c8d9e6" />
  <polyline fill="none" stroke="#005f73" stroke-width="2" points="36.00,36.00 36.75,42.77 37.50,68.36 38.25,84.23 39.00,89.77 39.75,96.33 40.50,99.90 41.26,104.06 42.01,106.73 42.76,109.79 43.51,111.92 44.26,114.35 45.01,116.12 45.76,118.14 46.51,119.65 47.26,121.38 48.01,122.79 48.76,124.17 49.51,125.46 50.26,126.70 51.01,127.85 51.77,128.96 52.52,130.00 53.27,131.02 54.02,131.97 54.77,132.91 55.52,133.78 56.27,134.65 57.02,135.46 57.77,136.27 58.52,137.02 59.27,137.78 60.02,138.52 60.77,139.17 61.52,139.89 62.28,140.50 63.03,141.18 63.78,141.76 64.53,142.40 65.28,142.96 66.03,143.56 66.78,144.09 67.53,144.66 68.28,145.17 69.03,145.71 69.78,146.20 70.53,146.71 71.28,147.18 72.04,147.70 72.79,148.11 73.54,148.62 74.29,149.01 75.04,149.50 75.79,149.89 76.54,150.35 77.29,150.73 78.04,151.17 78.79,151.53 79.54,151.97 80.29,152.32 81.04,152.73 81.79,153.07 82.55,153.47 83.30,153.80 84.05,154.21 84.80,154.50 85.55,154.90 86.30,155.19 87.05,155.58 87.80,155.85 88.55,156.23 89.30,156.50 90.05,156.86 90.80,157.13 91.55,157.48 92.30,157.74 93.06,158.08 93.81,158.34 94.56,158.67 95.31,158.92 96.06,159.26 96.81,159.48 97.56,159.82 98.31,160.03 99.06,160.36 99.81,160.57 100.56,160.89 101.31,161.10 102.06,161.41 102.82,161.62 103.57,161.92 104.32,162.12 105.07,162.42 105.82,162.61 106.57,162.90 107.32,163.10 108.07,163.39 108.82,163.56 109.57,163.86 110.32,164.03 111.07,164.31 111.82,164.48 112.57,164.76 113.33,164.93 114.08,165.20 114.83,165.36 115.58,165.63 116.33,165.79 117.08,166.05 117.83,166.21 118.58,166.47 119.33,166.63 120.08,166.89 120.83,167.03 121.58,167.29 122.33,167.43 123.09,167.68 123.84,167.82 124.59,168.07 125.34,168.20 126.09,168.45 126.84,168.58 127.59,168.82 128.34,168.96 129.09,169.19 129.84,169.32 130.59,169.55 131.34,169.68 132.09,169.92 132.84,170.04 133.60,170.27 134.35,170.39 135.10,170.62 135.85,170.73 136.60,170.96 137.35,171.07 138.10,171.30 138.85,171.41 139.60,171.63 140.35,171.74 141.10,171.95 141.85,172.06 142.60,172.28 143.35,172.38 144.11,172.60 144.86,172.70 145.61,172.92 146.36,173.01 147.11,173.22 147.86,173.32 148.61,173.53 149.36,173.62 150.11,173.83 150.86,173.92 151.61,174.13 152.36,174.22 153.11,174.42 153.87,174.51 154.62,174.71 155.37,174.80 156.12,175.01 156.87,175.08 157.62,175.29 158.37,175.36 159.12,175.57 159.87,175.64 160.62,175.84 161.37,175.92 162.12,176.12 162.87,176.19 163.62,176.38 164.38,176.46 165.13,176.65 165.88,176.73 166.63,176.91 167.38,176.99 168.13,177.18 168.88,177.25 169.63,177.44 170.38,177.51 171.13,177.70 171.88,177.76 172.63,177.95 173.38,178.01 174.13,178.20 174.89,178.26 175.64,178.44 176.39,178.51 177.14,178.69 177.89,178.75 178.64,178.93 179.39,178.99 180.14,179.18 180.89,179.23 181.64,179.41 182.39,179.47 183.14,179.65 183.89,179.70 184.65,179.88 185.40,179.93 186.15,180.11 186.90,180.16 187.65,180.34 188.40,180.39 189.15,180.56 189.90,180.62 190.65,180.79 191.40,180.84 192.15,181.01 192.90,181.06 193.65,181.23 194.40,181.28 195.16,181.45 195.91,181.50 196.66,181.67 197.41,181.71 198.16,181.88 198.91,181.93 199.66,182.09 200.41,182.14 201.16,182.30 201.91,182.35 202.66,182.51 203.41,182.56 204.16,182.72 204.91,182.76 205.67,182.93 206.42,182.96 207.17,183.13 207.92,183.17 208.67,183.33 209.42,183.37 210.17,183.53 210.92,183.57 211.67,183.73 212.42,183.77 213.17,183.92 213.92,183.96 214.67,184.12 215.43,184.16 216.18,184.32 216.93,184.35 217.68,184.51 218.43,184.54 219.18,184.70 219.93,184.73 220.68,184.89 221.43,184.92 222.18,185.07 222.93,185.11 223.68,185.26 224.43,185.29 225.18,185.44 225.94,185.48 226.69,185.63 227.44,185.66 228.19,185.81 228.94,185.84 229.69,185.99 230.44,186.02 231.19,186.17 231.94,186.20 232.69,186.35 233.44,186.38 234.19,186.53 234.94,186.55 235.70,186.70 236.45,186.73 237.20,186.88 237.95,186.90 238.70,187.05 239.45,187.08 240.20,187.23 240.95,187.25 241.70,187.40 242.45,187.42 243.20,187.57 243.95,187.59 244.70,187.74 245.45,187.76 246.21,187.90 246.96,187.92 247.71,188.07 248.46,188.09 249.21,188.23 249.96,188.26 250.71,188.40 251.46,188.42 252.21,188.56 252.96,188.58 253.71,188.73 254.46,188.74 255.21,188.89 255.96,188.90 256.72,189.05 257.47,189.06 258.22,189.21 258.97,189.22 259.72,189.36 260.47,189.38 261.22,189.52 261.97,189.54 262.72,189.68 263.47,189.69 264.22,189.84 264.97,189.85 265.72,189.99 266.48,190.00 267.23,190.14 267.98,190.16 268.73,190.30 269.48,190.31 270.23,190.45 270.98,190.46 271.73,190.60 272.48,190.61 273.23,190.75 273.98,190.76 274.73,190.90 275.48,190.91 276.23,191.05 276.99,191.06 277.74,191.20 278.49,191.20 279.24,191.34 279.99,191.35 280.74,191.49 281.49,191.50 282.24,191.63 282.99,191.64 283.74,191.78 284.49,191.79 285.24,191.92 285.99,191.93 286.74,192.06 287.50,192.07 288.25,192.21 289.00,192.21 289.75,192.35 290.50,192.36 291.25,192.49 292.00,192.50 292.75,192.63 293.50,192.64 294.25,192.77 295.00,192.78 295.75,192.91 296.50,192.91 297.26,193.04 298.01,193.05 298.76,193.18 299.51,193.19 300.26,193.32 301.01,193.32 301.76,193.46 302.51,193.46 303.26,193.59 304.01,193.60 304.76,193.73 305.51,193.73 306.26,193.86 307.01,193.86 307.77,193.99 308.52,194.00 309.27,194.13 310.02,194.13 310.77,194.26 311.52,194.26 312.27,194.39 313.02,194.39 313.77,194.52 314.52,194.52 315.27,194.65 316.02,194.65 316.77,194.78 317.52,194.78 318.28,194.91 319.03,194.91 319.78,195.04 320.53,195.04 321.28,195.17 322.03,195.17 322.78,195.29 323.53,195.30 324.28,195.42 325.03,195.42 325.78,195.55 326.53,195.55 327.28,195.68 328.04,195.67 328.79,195.80 329.54,195.80 330.29,195.93 331.04,195.93 331.79,196.05 332.54,196.05 333.29,196.17 334.04,196.17 334.79,196.30 335.54,196.30 336.29,196.42 337.04,196.42 337.79,196.55 338.55,196.54 339.30,196.67 340.05,196.66 340.80,196.79 341.55,196.78 342.30,196.91 343.05,196.91 343.80,197.03 344.55,197.03 345.30,197.15 346.05,197.15 346.80,197.27 347.55,197.27 348.30,197.39 349.06,197.38 349.81,197.51 350.56,197.50 351.31,197.63 352.06,197.62 352.81,197.74 353.56,197.74 354.31,197.86 355.06,197.86 355.81,197.98 356.56,197.97 357.31,198.10 358.06,198.09 358.82,198.21 359.57,198.21 360.32,198.33 361.07,198.32 361.82,198.45 362.57,198.44 363.32,198.56 364.07,198.55 364.82,198.68 365.57,198.67 366.32,198.79 367.07,198.78 367.82,198.90 368.57,198.90 369.33,199.02 370.08,199.01 370.83,199.13 371.58,199.12 372.33,199.25 373.08,199.24 373.83,199.36 374.58,199.35 375.33,199.47 376.08,199.46 376.83,199.58 377.58,199.57 378.33,199.69 379.09,199.68 379.84,199.80 380.59,199.80 381.34,199.91 382.09,199.91 382.84,200.02 383.59,200.02 384.34,200.14 385.09,200.13 385.84,200.25 386.59,200.24 387.34,200.36 388.09,200.35 388.84,200.47 389.60,200.46 390.35,200.57 391.10,200.57 391.85,200.68 392.60,200.67 393.35,200.79 394.10,200.78 394.85,200.90 395.60,200.89 396.35,201.01 397.10,201.00 397.85,201.12 398.60,201.11 399.35,201.22 400.11,201.21 400.86,201.33 401.61,201.32 402.36,201.44 403.11,201.43 403.86,201.54 404.61,201.53 405.36,201.65 406.11,201.64 406.86,201.76 407.61,201.75 408.36,201.86 409.11,201.85 409.87,201.97 410.62,201.96 411.37,202.07 412.12,202.06 412.87,202.18 413.62,202.17 414.37,202.28 415.12,202.27 415.87,202.39 416.62,202.38 417.37,202.49 418.12,202.48 418.87,202.60 419.62,202.59 420.38,202.70 421.13,202.69 421.88,202.81 422.63,202.79 423.38,202.91 424.13,202.90 424.88,203.01 425.63,203.00 426.38,203.12 427.13,203.10 427.88,203.22 428.63,203.21 429.38,203.32 430.13,203.31 430.89,203.42 431.64,203.41 432.39,203.53 433.14,203.51 433.89,203.63 434.64,203.62 435.39,203.73 436.14,203.72 436.89,203.83 437.64,203.82 438.39,203.94 439.14,203.92 439.89,204.04 440.65,204.02 441.40,204.14 442.15,204.13 442.90,204.24 443.65,204.23 444.40,204.34 445.15,204.33 445.90,204.44 446.65,204.43 447.40,204.54 448.15,204.53 448.90,204.64 449.65,204.63 450.40,204.74 451.16,204.73 451.91,204.84 452.66,204.83 453.41,204.94 454.16,204.93 454.91,205.04 455.66,205.03 456.41,205.15 457.16,205.13 457.91,205.25 458.66,205.23 459.41,205.35 460.16,205.33 460.91,205.45 461.67,205.43 462.42,205.54 463.17,205.53 463.92,205.64 464.67,205.63 465.42,205.74 466.17,205.73 466.92,205.84 467.67,205.83 468.42,205.94 469.17,205.93 469.92,206.04 470.67,206.03 471.43,206.14 472.18,206.12 472.93,206.24 473.68,206.22 474.43,206.34 475.18,206.32 475.93,206.44 476.68,206.42 477.43,206.53 478.18,206.52 478.93,206.63 479.68,206.62 480.43,206.73 481.18,206.72 481.94,206.83 482.69,206.82 483.44,206.93 484.19,206.91 484.94,207.03 485.69,207.01 486.44,207.13 487.19,207.11 487.94,207.22 488.69,207.21 489.44,207.32 490.19,207.31 490.94,207.42 491.70,207.41 492.45,207.52 493.20,207.50 493.95,207.62 494.70,207.60 495.45,207.72 496.20,207.70 496.95,207.81 497.70,207.80 498.45,207.91 499.20,207.90 499.95,208.01 500.70,207.99 501.45,208.11 502.21,208.09 502.96,208.21 503.71,208.19 504.46,208.31 505.21,208.29 505.96,208.40 506.71,208.39 507.46,208.50 508.21,208.48 508.96,208.60 509.71,208.58 510.46,208.70 511.21,208.68 511.96,208.79 512.72,208.78 513.47,208.89 514.22,208.88 514.97,208.99 515.72,208.98 516.47,209.09 517.22,209.07 517.97,209.19 518.72,209.17 519.47,209.29 520.22,209.27 520.97,209.38 521.72,209.37 522.48,209.48 523.23,209.47 523.98,209.58 524.73,209.57 525.48,209.68 526.23,209.66 526.98,209.78 527.73,209.76 528.48,209.88 529.23,209.86 529.98,209.98 530.73,209.96 531.48,210.07 532.23,210.06 532.99,210.17 533.74,210.16 534.49,210.27 535.24,210.26 535.99,210.37 536.74,210.36 537.49,210.47 538.24,210.46 538.99,210.57 539.74,210.55 540.49,210.67 541.24,210.65 541.99,210.77 542.74,210.75 543.50,210.87 544.25,210.85 545.00,210.97 545.75,210.95 546.50,211.07 547.25,211.05 548.00,211.17 548.75,211.15 549.50,211.27 550.25,211.25 551.00,211.37 551.75,211.35 552.50,211.47 553.26,211.45 554.01,211.57 554.76,211.56 555.51,211.67 556.26,211.66 557.01,211.77 557.76,211.76 558.51,211.87 559.26,211.86 560.01,211.97 560.76,211.96 561.51,212.08 562.26,212.06 563.01,212.18 563.77,212.16 564.52,212.28 565.27,212.27 566.02,212.38 566.77,212.37 567.52,212.48 568.27,212.47 569.02,212.59 569.77,212.57 570.52,212.69 571.27,212.68 572.02,212.79 572.77,212.78 573.52,212.89 574.28,212.88 575.03,213.00 575.78,212.99 576.53,213.10 577.28,213.09 578.03,213.21 578.78,213.19 579.53,213.31 580.28,213.30 581.03,213.42 581.78,213.40 582.53,213.52 583.28,213.51 584.04,213.63 584.79,213.61 585.54,213.73 586.29,213.72 587.04,213.84 587.79,213.82 588.54,213.94 589.29,213.93 590.04,214.05 590.79,214.04 591.54,214.16 592.29,214.14 593.04,214.26 593.79,214.25 594.55,214.37 595.30,214.36 596.05,214.48 596.80,214.47 597.55,214.59 598.30,214.58 599.05,214.69 599.80,214.68 600.55,214.80 601.30,214.79 602.05,214.91 602.80,214.90 603.55,215.02 604.30,215.01 605.06,215.13 605.81,215.12 606.56,215.24 607.31,215.23 608.06,215.35 608.81,215.34 609.56,215.47 610.31,215.46 611.06,215.58 611.81,215.57 612.56,215.69 613.31,215.68 614.06,215.80 614.82,215.79 615.57,215.92 616.32,215.91 617.07,216.03 617.82,216.02 618.57,216.14 619.32,216.14 620.07,216.26 620.82,216.25 621.57,216.37 622.32,216.37 623.07,216.49 623.82,216.48 624.57,216.61 625.33,216.60 626.08,216.73 626.83,216.72 627.58,216.84 628.33,216.84 629.08,216.96 629.83,216.96 630.58,217.08 631.33,217.07 632.08,217.20 632.83,217.19 633.58,217.32 634.33,217.31 635.09,217.44 635.84,217.44 636.59,217.56 637.34,217.56 638.09,217.69 638.84,217.68 639.59,217.81 640.34,217.80 641.09,217.93 641.84,217.93 642.59,218.06 643.34,218.05 644.09,218.18 644.84,218.18 645.60,218.31 646.35,218.31 647.10,218.43 647.85,218.43 648.60,218.56 649.35,218.56 650.10,218.69 650.85,218.69 651.60,218.82 652.35,218.82 653.10,218.95 653.85,218.95 654.60,219.08 655.35,219.08 656.11,219.21 656.86,219.22 657.61,219.35 658.36,219.35 659.11,219.48 659.86,219.48 660.61,219.62 661.36,219.62 662.11,219.75 662.86,219.76 663.61,219.89 664.36,219.89 665.11,220.03 665.87,220.03 666.62,220.17 667.37,220.17 668.12,220.31 668.87,220.32 669.62,220.45 670.37,220.46 671.12,220.59 671.87,220.60 672.62,220.74 673.37,220.75 674.12,220.89 674.87,220.89 675.62,221.03 676.38,221.04 677.13,221.18 677.88,221.19 678.63,221.33 679.38,221.34 680.13,221.48 680.88,221.49 681.63,221.63 682.38,221.65 683.13,221.79 683.88,221.80 684.63,221.94 685.38,221.96 686.13,222.10 686.89,222.11 687.64,222.26 688.39,222.27 689.14,222.42 689.89,222.44 690.64,222.58 691.39,222.60 692.14,222.75 692.89,222.76 693.64,222.91 694.39,222.93 695.14,223.08 695.89,223.10 696.65,223.25 697.40,223.27 698.15,223.42 698.90,223.44 699.65,223.60 700.40,223.62 701.15,223.77 701.90,223.80 702.65,223.95 703.40,223.98 704.15,224.13 704.90,224.16 705.65,224.31 706.40,224.34 707.16,224.50 707.91,224.53 708.66,224.69 709.41,224.72 710.16,224.88 710.91,224.91 711.66,225.07 712.41,225.10 713.16,225.27 713.91,225.30 714.66,225.47 715.41,225.50 716.16,225.67 716.91,225.71 717.67,225.87 718.42,225.91 719.17,226.08 719.92,226.12 720.67,226.29 721.42,226.34 722.17,226.51 722.92,226.55 723.67,226.73 724.42,226.77 725.17,226.95 725.92,227.00 726.67,227.18 727.43,227.23 728.18,227.41 728.93,227.46 729.68,227.64 730.43,227.70 731.18,227.88 731.93,227.94 732.68,228.13 733.43,228.18 734.18,228.37 734.93,228.43 735.68,228.63 736.43,228.69 737.18,228.89 737.94,228.95 738.69,229.15 739.44,229.22 740.19,229.42 740.94,229.49 741.69,229.70 742.44,229.77 743.19,229.98 743.94,230.06 744.69,230.27 745.44,230.35 746.19,230.57 746.94,230.65 747.70,230.87 748.45,230.96 749.20,231.18 749.95,231.28 750.70,231.50 751.45,231.60 752.20,231.83 752.95,231.93 753.70,232.17 754.45,232.28 755.20,232.52 755.95,232.63 756.70,232.88 757.45,232.99 758.21,233.25 758.96,233.37 759.71,233.63 760.46,233.76 761.21,234.02 761.96,234.16 762.71,234.43 763.46,234.57 764.21,234.85 764.96,235.00 765.71,235.29 766.46,235.45 767.21,235.75 767.96,235.92 768.72,236.22 769.47,236.40 770.22,236.72 770.97,236.91 771.72,237.24 772.47,237.44 773.22,237.78 773.97,237.99 774.72,238.34 775.47,238.57 776.22,238.94 776.97,239.19 777.72,239.57 778.48,239.83 779.23,240.24 779.98,240.52 780.73,240.95 781.48,241.26 782.23,241.71 782.98,242.04 783.73,242.51 784.48,242.88 785.23,243.38 785.98,243.78 786.73,244.00 787.48,244.00 788.23,244.00 788.99,244.00 789.74,244.00 790.49,244.00 791.24,244.00 791.99,244.00 792.74,244.00 793.49,244.00 794.24,244.00 794.99,244.00 795.74,244.00 796.49,244.00 797.24,244.00 797.99,244.00 798.74,244.00 799.50,244.00 800.25,244.00 801.00,244.00 801.75,244.00 802.50,244.00 803.25,244.00 804.00,244.00" />
  <text x="420.0" y="22" text-anchor="middle" font-family="Arial, Helvetica, sans-serif" font-size="15" fill="#102a43">hann_poisson_0p5 window (magnitude spectrum)</text>
  <text x="420.0" y="272" text-anchor="middle" font-family="Arial, Helvetica, sans-serif" font-size="12" fill="#334e68">normalized frequency</text>
  <text x="14" y="140.0" transform="rotate(-90 14,140.0)" text-anchor="middle" font-family="Arial, Helvetica, sans-serif" font-size="12" fill="#334e68">magnitude (dB)</text>
  <text x="36" y="262" font-family="Arial, Helvetica, sans-serif" font-size="11" fill="#486581">0</text>
  <text x="804" y="262" text-anchor="end" font-family="Arial, Helvetica, sans-serif" font-size="11" fill="#486581">1</text>
  <text x="30" y="40" text-anchor="end" font-family="Arial, Helvetica, sans-serif" font-size="11" fill="#486581">0.0</text>
  <text x="30" y="248" text-anchor="end" font-family="Arial, Helvetica, sans-serif" font-size="11" fill="#486581">-160.0</text>
</svg>
