<svg xmlns="http://www.w3.org/2000/svg" width="840" height="280" viewBox="0 0 840 280">
  <rect x="0" y="0" width="840" height="280" fill="#ffffff" />
  <rect x="36" y="36" width="768" height="208" fill="#f7fbff" stroke="#c8d9e6" />
  <polyline fill="none" stroke="#005f73" stroke-width="2" points="36.00,36.00 36.75,43.82 37.50,134.48 38.25,145.56 39.00,152.66 39.75,157.96 40.50,162.22 41.26,165.79 42.01,168.86 42.76,171.56 43.51,173.96 44.26,176.14 45.01,178.12 45.76,179.94 46.51,181.62 47.26,183.19 48.01,184.69 48.76,187.48 49.51,190.20 50.26,192.87 51.01,195.51 51.77,198.15 52.52,200.81 53.27,203.50 54.02,206.28 54.77,209.17 55.52,212.25 56.27,215.59 57.02,219.35 57.77,223.80 58.52,229.56 59.27,238.59 60.02,200.38 60.77,201.78 61.52,203.17 62.28,204.53 63.03,205.88 63.78,207.22 64.53,208.55 65.28,209.87 66.03,211.19 66.78,212.51 67.53,213.83 68.28,215.15 69.03,216.48 69.78,217.82 70.53,219.17 71.28,220.55 72.04,209.55 72.79,210.49 73.54,211.41 74.29,212.33 75.04,213.24 75.79,214.15 76.54,215.05 77.29,215.94 78.04,216.83 78.79,217.71 79.54,218.60 80.29,219.48 81.04,220.35 81.79,221.23 82.55,222.11 83.30,222.99 84.05,216.06 84.80,216.76 85.55,217.46 86.30,218.15 87.05,218.84 87.80,219.52 88.55,220.20 89.30,220.88 90.05,221.55 90.80,222.22 91.55,222.89 92.30,223.55 93.06,224.22 93.81,224.88 94.56,225.54 95.31,226.20 96.06,221.11 96.81,221.67 97.56,222.23 98.31,222.79 99.06,223.34 99.81,223.89 100.56,224.43 101.31,224.98 102.06,225.52 102.82,226.06 103.57,226.60 104.32,227.14 105.07,227.67 105.82,228.20 106.57,228.73 107.32,229.26 108.07,225.24 108.82,225.71 109.57,226.17 110.32,226.64 111.07,227.10 111.82,227.56 112.57,228.02 113.33,228.47 114.08,228.93 114.83,229.38 115.58,229.83 116.33,230.28 117.08,230.73 117.83,231.17 118.58,231.62 119.33,232.06 120.08,228.74 120.83,229.14 121.58,229.54 122.33,229.94 123.09,230.33 123.84,230.73 124.59,231.12 125.34,231.51 126.09,231.90 126.84,232.29 127.59,232.68 128.34,233.07 129.09,233.45 129.84,233.84 130.59,234.22 131.34,234.60 132.09,231.77 132.84,232.12 133.60,232.47 134.35,232.82 135.10,233.17 135.85,233.51 136.60,233.86 137.35,234.20 138.10,234.54 138.85,234.88 139.60,235.22 140.35,235.56 141.10,235.90 141.85,236.24 142.60,236.58 143.35,236.91 144.11,234.45 144.86,234.76 145.61,235.07 146.36,235.38 147.11,235.69 147.86,236.00 148.61,236.31 149.36,236.61 150.11,236.92 150.86,237.22 151.61,237.52 152.36,237.83 153.11,238.13 153.87,238.43 154.62,238.73 155.37,239.03 156.12,236.85 156.87,237.13 157.62,237.41 158.37,237.69 159.12,237.97 159.87,238.25 160.62,238.52 161.37,238.80 162.12,239.07 162.87,239.35 163.62,239.62 164.38,239.89 165.13,240.17 165.88,240.44 166.63,240.71 167.38,240.98 168.13,239.03 168.88,239.28 169.63,239.54 170.38,239.79 171.13,240.04 171.88,240.30 172.63,240.55 173.38,240.80 174.13,241.05 174.89,241.30 175.64,241.55 176.39,241.80 177.14,242.04 177.89,242.29 178.64,242.54 179.39,242.78 180.14,241.02 180.89,241.26 181.64,241.49 182.39,241.72 183.14,241.95 183.89,242.18 184.65,242.41 185.40,242.64 186.15,242.87 186.90,243.10 187.65,243.33 188.40,243.56 189.15,243.79 189.90,244.00 190.65,244.00 191.40,244.00 192.15,242.86 192.90,243.08 193.65,243.29 194.40,243.50 195.16,243.72 195.91,243.93 196.66,244.00 197.41,244.00 198.16,244.00 198.91,244.00 199.66,244.00 200.41,244.00 201.16,244.00 201.91,244.00 202.66,244.00 203.41,244.00 204.16,244.00 204.91,244.00 205.67,244.00 206.42,244.00 207.17,244.00 207.92,244.00 208.67,244.00 209.42,244.00 210.17,244.00 210.92,244.00 211.67,244.00 212.42,244.00 213.17,244.00 213.92,244.00 214.67,244.00 215.43,244.00 216.18,244.00 216.93,244.00 217.68,244.00 218.43,244.00 219.18,244.00 219.93,244.00 220.68,244.00 221.43,244.00 222.18,244.00 222.93,244.00 223.68,244.00 224.43,244.00 225.18,244.00 225.94,244.00 226.69,244.00 227.44,244.00 228.19,244.00 228.94,244.00 229.69,244.00 230.44,244.00 231.19,244.00 231.94,244.00 232.69,244.00 233.44,244.00 234.19,244.00 234.94,244.00 235.70,244.00 236.45,244.00 237.20,244.00 237.95,244.00 238.70,244.00 239.45,244.00 240.20,244.00 240.95,244.00 241.70,244.00 242.45,244.00 243.20,244.00 243.95,244.00 244.70,244.00 245.45,244.00 246.21,244.00 246.96,244.00 247.71,244.00 248.46,244.00 249.21,244.00 249.96,244.00 250.71,244.00 251.46,244.00 252.21,244.00 252.96,244.00 253.71,244.00 254.46,244.00 255.21,244.00 255.96,244.00 256.72,244.00 257.47,244.00 258.22,244.00 258.97,244.00 259.72,244.00 260.47,244.00 261.22,244.00 261.97,244.00 262.72,244.00 263.47,244.00 264.22,244.00 264.97,244.00 265.72,244.00 266.48,244.00 267.23,244.00 267.98,244.00 268.73,244.00 269.48,244.00 270.23,244.00 270.98,244.00 271.73,244.00 272.48,244.00 273.23,244.00 273.98,244.00 274.73,244.00 275.48,244.00 276.23,244.00 276.99,244.00 277.74,244.00 278.49,244.00 279.24,244.00 279.99,244.00 280.74,244.00 281.49,244.00 282.24,244.00 282.99,244.00 283.74,244.00 284.49,244.00 285.24,244.00 285.99,244.00 286.74,244.00 287.50,244.00 288.25,244.00 289.00,244.00 289.75,244.00 290.50,244.00 291.25,244.00 292.00,244.00 292.75,244.00 293.50,244.00 294.25,244.00 295.00,244.00 295.75,244.00 296.50,244.00 297.26,244.00 298.01,244.00 298.76,244.00 299.51,244.00 300.26,244.00 301.01,244.00 301.76,244.00 302.51,244.00 303.26,244.00 304.01,244.00 304.76,244.00 305.51,244.00 306.26,244.00 307.01,244.00 307.77,244.00 308.52,244.00 309.27,244.00 310.02,244.00 310.77,244.00 311.52,244.00 312.27,244.00 313.02,244.00 313.77,244.00 314.52,244.00 315.27,244.00 316.02,244.00 316.77,244.00 317.52,244.00 318.28,244.00 319.03,244.00 319.78,244.00 320.53,244.00 321.28,244.00 322.03,244.00 322.78,244.00 323.53,244.00 324.28,244.00 325.03,244.00 325.78,244.00 326.53,244.00 327.28,244.00 328.04,244.00 328.79,244.00 329.54,244.00 330.29,244.00 331.04,244.00 331.79,244.00 332.54,244.00 333.29,244.00 334.04,244.00 334.79,244.00 335.54,244.00 336.29,244.00 337.04,244.00 337.79,244.00 338.55,244.00 339.30,244.00 340.05,244.00 340.80,244.00 341.55,244.00 342.30,244.00 343.05,244.00 343.80,244.00 344.55,244.00 345.30,244.00 346.05,244.00 346.80,244.00 347.55,244.00 348.30,244.00 349.06,244.00 349.81,244.00 350.56,244.00 351.31,244.00 352.06,244.00 352.81,244.00 353.56,244.00 354.31,244.00 355.06,244.00 355.81,244.00 356.56,244.00 357.31,244.00 358.06,244.00 358.82,244.00 359.57,244.00 360.32,244.00 361.07,244.00 361.82,244.00 362.57,244.00 363.32,244.00 364.07,244.00 364.82,244.00 365.57,244.00 366.32,244.00 367.07,244.00 367.82,244.00 368.57,244.00 369.33,244.00 370.08,244.00 370.83,244.00 371.58,244.00 372.33,244.00 373.08,244.00 373.83,244.00 374.58,244.00 375.33,244.00 376.08,244.00 376.83,244.00 377.58,244.00 378.33,244.00 379.09,244.00 379.84,244.00 380.59,244.00 381.34,244.00 382.09,244.00 382.84,244.00 383.59,244.00 384.34,244.00 385.09,244.00 385.84,244.00 386.59,244.00 387.34,244.00 388.09,244.00 388.84,244.00 389.60,244.00 390.35,244.00 391.10,244.00 391.85,244.00 392.60,244.00 393.35,244.00 394.10,244.00 394.85,244.00 395.60,244.00 396.35,244.00 397.10,244.00 397.85,244.00 398.60,244.00 399.35,244.00 400.11,244.00 400.86,244.00 401.61,244.00 402.36,244.00 403.11,244.00 403.86,244.00 404.61,244.00 405.36,244.00 406.11,244.00 406.86,244.00 407.61,244.00 408.36,244.00 409.11,244.00 409.87,244.00 410.62,244.00 411.37,244.00 412.12,244.00 412.87,244.00 413.62,244.00 414.37,244.00 415.12,244.00 415.87,244.00 416.62,244.00 417.37,244.00 418.12,244.00 418.87,244.00 419.62,244.00 420.38,244.00 421.13,244.00 421.88,244.00 422.63,244.00 423.38,244.00 424.13,244.00 424.88,244.00 425.63,244.00 426.38,244.00 427.13,244.00 427.88,244.00 428.63,244.00 429.38,244.00 430.13,244.00 430.89,244.00 431.64,244.00 432.39,244.00 433.14,244.00 433.89,244.00 434.64,244.00 435.39,244.00 436.14,244.00 436.89,244.00 437.64,244.00 438.39,244.00 439.14,244.00 439.89,244.00 440.65,244.00 441.40,244.00 442.15,244.00 442.90,244.00 443.65,244.00 444.40,244.00 445.15,244.00 445.90,244.00 446.65,244.00 447.40,244.00 448.15,244.00 448.90,244.00 449.65,244.00 450.40,244.00 451.16,244.00 451.91,244.00 452.66,244.00 453.41,244.00 454.16,244.00 454.91,244.00 455.66,244.00 456.41,244.00 457.16,244.00 457.91,244.00 458.66,244.00 459.41,244.00 460.16,244.00 460.91,244.00 461.67,244.00 462.42,244.00 463.17,244.00 463.92,244.00 464.67,244.00 465.42,244.00 466.17,244.00 466.92,244.00 467.67,244.00 468.42,244.00 469.17,244.00 469.92,244.00 470.67,244.00 471.43,244.00 472.18,244.00 472.93,244.00 473.68,244.00 474.43,244.00 475.18,244.00 475.93,244.00 476.68,244.00 477.43,244.00 478.18,244.00 478.93,244.00 479.68,244.00 480.43,244.00 481.18,244.00 481.94,244.00 482.69,244.00 483.44,244.00 484.19,244.00 484.94,244.00 485.69,244.00 486.44,244.00 487.19,244.00 487.94,244.00 488.69,244.00 489.44,244.00 490.19,244.00 490.94,244.00 491.70,244.00 492.45,244.00 493.20,244.00 493.95,244.00 494.70,244.00 495.45,244.00 496.20,244.00 496.95,244.00 497.70,244.00 498.45,244.00 499.20,244.00 499.95,244.00 500.70,244.00 501.45,244.00 502.21,244.00 502.96,244.00 503.71,244.00 504.46,244.00 505.21,244.00 505.96,244.00 506.71,244.00 507.46,244.00 508.21,244.00 508.96,244.00 509.71,244.00 510.46,244.00 511.21,244.00 511.96,244.00 512.72,244.00 513.47,244.00 514.22,244.00 514.97,244.00 515.72,244.00 516.47,244.00 517.22,244.00 517.97,244.00 518.72,244.00 519.47,244.00 520.22,244.00 520.97,244.00 521.72,244.00 522.48,244.00 523.23,244.00 523.98,244.00 524.73,244.00 525.48,244.00 526.23,244.00 526.98,244.00 527.73,244.00 528.48,244.00 529.23,244.00 529.98,244.00 530.73,244.00 531.48,244.00 532.23,244.00 532.99,244.00 533.74,244.00 534.49,244.00 535.24,244.00 535.99,244.00 536.74,244.00 537.49,244.00 538.24,244.00 538.99,244.00 539.74,244.00 540.49,244.00 541.24,244.00 541.99,244.00 542.74,244.00 543.50,244.00 544.25,244.00 545.00,244.00 545.75,244.00 546.50,244.00 547.25,244.00 548.00,244.00 548.75,244.00 549.50,244.00 550.25,244.00 551.00,244.00 551.75,244.00 552.50,244.00 553.26,244.00 554.01,244.00 554.76,244.00 555.51,244.00 556.26,244.00 557.01,244.00 557.76,244.00 558.51,244.00 559.26,244.00 560.01,244.00 560.76,244.00 561.51,244.00 562.26,244.00 563.01,244.00 563.77,244.00 564.52,244.00 565.27,244.00 566.02,244.00 566.77,244.00 567.52,244.00 568.27,244.00 569.02,244.00 569.77,244.00 570.52,244.00 571.27,244.00 572.02,244.00 572.77,244.00 573.52,244.00 574.28,244.00 575.03,244.00 575.78,244.00 576.53,244.00 577.28,244.00 578.03,244.00 578.78,244.00 579.53,244.00 580.28,244.00 581.03,244.00 581.78,244.00 582.53,244.00 583.28,244.00 584.04,244.00 584.79,244.00 585.54,244.00 586.29,244.00 587.04,244.00 587.79,244.00 588.54,244.00 589.29,244.00 590.04,244.00 590.79,244.00 591.54,244.00 592.29,244.00 593.04,244.00 593.79,244.00 594.55,244.00 595.30,244.00 596.05,244.00 596.80,244.00 597.55,244.00 598.30,244.00 599.05,244.00 599.80,244.00 600.55,244.00 601.30,244.00 602.05,244.00 602.80,244.00 603.55,244.00 604.30,244.00 605.06,244.00 605.81,244.00 606.56,244.00 607.31,244.00 608.06,244.00 608.81,244.00 609.56,244.00 610.31,244.00 611.06,244.00 611.81,244.00 612.56,244.00 613.31,244.00 614.06,244.00 614.82,244.00 615.57,244.00 616.32,244.00 617.07,244.00 617.82,244.00 618.57,244.00 619.32,244.00 620.07,244.00 620.82,244.00 621.57,244.00 622.32,244.00 623.07,244.00 623.82,244.00 624.57,244.00 625.33,244.00 626.08,244.00 626.83,244.00 627.58,244.00 628.33,244.00 629.08,244.00 629.83,244.00 630.58,244.00 631.33,244.00 632.08,244.00 632.83,244.00 633.58,244.00 634.33,244.00 635.09,244.00 635.84,244.00 636.59,244.00 637.34,244.00 638.09,244.00 638.84,244.00 639.59,244.00 640.34,244.00 641.09,244.00 641.84,244.00 642.59,244.00 643.34,244.00 644.09,244.00 644.84,244.00 645.60,244.00 646.35,244.00 647.10,244.00 647.85,244.00 648.60,244.00 649.35,244.00 650.10,244.00 650.85,244.00 651.60,244.00 652.35,244.00 653.10,244.00 653.85,244.00 654.60,244.00 655.35,244.00 656.11,244.00 656.86,244.00 657.61,244.00 658.36,244.00 659.11,244.00 659.86,244.00 660.61,244.00 661.36,244.00 662.11,244.00 662.86,244.00 663.61,244.00 664.36,244.00 665.11,244.00 665.87,244.00 666.62,244.00 667.37,244.00 668.12,244.00 668.87,244.00 669.62,244.00 670.37,244.00 671.12,244.00 671.87,244.00 672.62,244.00 673.37,244.00 674.12,244.00 674.87,244.00 675.62,244.00 676.38,244.00 677.13,244.00 677.88,244.00 678.63,244.00 679.38,244.00 680.13,244.00 680.88,244.00 681.63,244.00 682.38,244.00 683.13,244.00 683.88,244.00 684.63,244.00 685.38,244.00 686.13,244.00 686.89,244.00 687.64,244.00 688.39,244.00 689.14,244.00 689.89,244.00 690.64,244.00 691.39,244.00 692.14,244.00 692.89,244.00 693.64,244.00 694.39,244.00 695.14,244.00 695.89,244.00 696.65,244.00 697.40,244.00 698.15,244.00 698.90,244.00 699.65,244.00 700.40,244.00 701.15,244.00 701.90,244.00 702.65,244.00 703.40,244.00 704.15,244.00 704.90,244.00 705.65,244.00 706.40,244.00 707.16,244.00 707.91,244.00 708.66,244.00 709.41,244.00 710.16,244.00 710.91,244.00 711.66,244.00 712.41,244.00 713.16,244.00 713.91,244.00 714.66,244.00 715.41,244.00 716.16,244.00 716.91,244.00 717.67,244.00 718.42,244.00 719.17,244.00 719.92,244.00 720.67,244.00 721.42,244.00 722.17,244.00 722.92,244.00 723.67,244.00 724.42,244.00 725.17,244.00 725.92,244.00 726.67,244.00 727.43,244.00 728.18,244.00 728.93,244.00 729.68,244.00 730.43,244.00 731.18,244.00 731.93,244.00 732.68,244.00 733.43,244.00 734.18,244.00 734.93,244.00 735.68,244.00 736.43,244.00 737.18,244.00 737.94,244.00 738.69,244.00 739.44,244.00 740.19,244.00 740.94,244.00 741.69,244.00 742.44,244.00 743.19,244.00 743.94,244.00 744.69,244.00 745.44,244.00 746.19,244.00 746.94,244.00 747.70,244.00 748.45,244.00 749.20,244.00 749.95,244.00 750.70,244.00 751.45,244.00 752.20,244.00 752.95,244.00 753.70,244.00 754.45,244.00 755.20,244.00 755.95,244.00 756.70,244.00 757.45,244.00 758.21,244.00 758.96,244.00 759.71,244.00 760.46,244.00 761.21,244.00 761.96,244.00 762.71,244.00 763.46,244.00 764.21,244.00 764.96,244.00 765.71,244.00 766.46,244.00 767.21,244.00 767.96,244.00 768.72,244.00 769.47,244.00 770.22,244.00 770.97,244.00 771.72,244.00 772.47,244.00 773.22,244.00 773.97,244.00 774.72,244.00 775.47,244.00 776.22,244.00 776.97,244.00 777.72,244.00 778.48,244.00 779.23,244.00 779.98,244.00 780.73,244.00 781.48,244.00 782.23,244.00 782.98,244.00 783.73,244.00 784.48,244.00 785.23,244.00 785.98,244.00 786.73,244.00 787.48,244.00 788.23,244.00 788.99,244.00 789.74,244.00 790.49,244.00 791.24,244.00 791.99,244.00 792.74,244.00 793.49,244.00 794.24,244.00 794.99,244.00 795.74,244.00 796.49,244.00 797.24,244.00 797.99,244.00 798.74,244.00 799.50,244.00 800.25,244.00 801.00,244.00 801.75,244.00 802.50,244.00 803.25,244.00 804.00,244.00" />
  <text x="420.0" y="22" text-anchor="middle" font-family="Arial, Helvetica, sans-serif" font-size="15" fill="#102a43">hann window (magnitude spectrum)</text>
  <text x="420.0" y="272" text-anchor="middle" font-family="Arial, Helvetica, sans-serif" font-size="12" fill="#334e68">normalized frequency</text>
  <text x="14" y="140.0" transform="rotate(-90 14,140.0)" text-anchor="middle" font-family="Arial, Helvetica, sans-serif" font-size="12" fill="#334e68">magnitude (dB)</text>
  <text x="36" y="262" font-family="Arial, Helvetica, sans-serif" font-size="11" fill="#486581">0</text>
  <text x="804" y="262" text-anchor="end" font-family="Arial, Helvetica, sans-serif" font-size="11" fill="#486581">1</text>
  <text x="30" y="40" text-anchor="end" font-family="Arial, Helvetica, sans-serif" font-size="11" fill="#486581">0.0</text>
  <text x="30" y="248" text-anchor="end" font-family="Arial, Helvetica, sans-serif" font-size="11" fill="#486581">-160.0</text>
</svg>
