<svg xmlns="http://www.w3.org/2000/svg" width="840" height="280" viewBox="0 0 840 280">
  <rect x="0" y="0" width="840" height="280" fill="#ffffff" />
  <rect x="36" y="36" width="768" height="208" fill="#f7fbff" stroke="#c8d9e6" />
  <polyline fill="none" stroke="#005f73" stroke-width="2" points="36.00,244.00 36.75,244.00 37.50,244.00 38.25,243.99 39.00,243.99 39.75,243.98 40.50,243.97 41.26,243.96 42.01,243.95 42.76,243.94 43.51,243.93 44.26,243.91 45.01,243.89 45.76,243.88 46.51,243.85 47.26,243.83 48.01,243.81 48.76,243.78 49.51,243.76 50.26,243.73 51.01,243.70 51.77,243.67 52.52,243.64 53.27,243.60 54.02,243.57 54.77,243.53 55.52,243.49 56.27,243.45 57.02,243.40 57.77,243.36 58.52,243.31 59.27,243.27 60.02,243.22 60.77,243.17 61.52,243.11 62.28,243.06 63.03,243.00 63.78,242.94 64.53,242.88 65.28,242.82 66.03,242.76 66.78,242.69 67.53,242.63 68.28,242.56 69.03,242.49 69.78,242.42 70.53,242.34 71.28,242.27 72.04,242.19 72.79,242.11 73.54,242.03 74.29,241.95 75.04,241.86 75.79,241.77 76.54,241.69 77.29,241.59 78.04,241.50 78.79,241.41 79.54,241.31 80.29,241.21 81.04,241.11 81.79,241.01 82.55,240.91 83.30,240.80 84.05,240.70 84.80,240.59 85.55,240.48 86.30,240.36 87.05,240.25 87.80,240.13 88.55,240.01 89.30,239.89 90.05,239.77 90.80,239.64 91.55,239.52 92.30,239.39 93.06,239.26 93.81,239.12 94.56,238.99 95.31,238.85 96.06,238.71 96.81,238.57 97.56,238.43 98.31,238.28 99.06,238.14 99.81,237.99 100.56,237.84 101.31,237.68 102.06,237.53 102.82,237.37 103.57,237.21 104.32,237.05 105.07,236.89 105.82,236.72 106.57,236.56 107.32,236.39 108.07,236.21 108.82,236.04 109.57,235.86 110.32,235.69 111.07,235.51 111.82,235.32 112.57,235.14 113.33,234.95 114.08,234.77 114.83,234.57 115.58,234.38 116.33,234.19 117.08,233.99 117.83,233.79 118.58,233.59 119.33,233.39 120.08,233.18 120.83,232.97 121.58,232.76 122.33,232.55 123.09,232.34 123.84,232.12 124.59,231.90 125.34,231.68 126.09,231.46 126.84,231.23 127.59,231.01 128.34,230.78 129.09,230.54 129.84,230.31 130.59,230.07 131.34,229.84 132.09,229.60 132.84,229.35 133.60,229.11 134.35,228.86 135.10,228.61 135.85,228.36 136.60,228.11 137.35,227.85 138.10,227.59 138.85,227.33 139.60,227.07 140.35,226.81 141.10,226.54 141.85,226.27 142.60,226.00 143.35,225.73 144.11,225.45 144.86,225.17 145.61,224.89 146.36,224.61 147.11,224.32 147.86,224.04 148.61,223.75 149.36,223.46 150.11,223.16 150.86,222.87 151.61,222.57 152.36,222.27 153.11,221.97 153.87,221.66 154.62,221.35 155.37,221.05 156.12,220.73 156.87,220.42 157.62,220.10 158.37,219.79 159.12,219.47 159.87,219.14 160.62,218.82 161.37,218.49 162.12,218.16 162.87,217.83 163.62,217.50 164.38,217.16 165.13,216.82 165.88,216.48 166.63,216.14 167.38,215.80 168.13,215.45 168.88,215.10 169.63,214.75 170.38,214.40 171.13,214.04 171.88,213.68 172.63,213.32 173.38,212.96 174.13,212.59 174.89,212.23 175.64,211.86 176.39,211.49 177.14,211.11 177.89,210.74 178.64,210.36 179.39,209.98 180.14,209.60 180.89,209.22 181.64,208.83 182.39,208.44 183.14,208.05 183.89,207.66 184.65,207.26 185.40,206.87 186.15,206.47 186.90,206.06 187.65,205.66 188.40,205.26 189.15,204.85 189.90,204.44 190.65,204.03 191.40,203.61 192.15,203.20 192.90,202.78 193.65,202.36 194.40,201.93 195.16,201.51 195.91,201.08 196.66,200.65 197.41,200.22 198.16,199.79 198.91,199.36 199.66,198.92 200.41,198.48 201.16,198.04 201.91,197.60 202.66,197.15 203.41,196.70 204.16,196.25 204.91,195.80 205.67,195.35 206.42,194.89 207.17,194.44 207.92,193.98 208.67,193.52 209.42,193.05 210.17,192.59 210.92,192.12 211.67,191.65 212.42,191.18 213.17,190.71 213.92,190.23 214.67,189.76 215.43,189.28 216.18,188.80 216.93,188.32 217.68,187.83 218.43,187.34 219.18,186.86 219.93,186.37 220.68,185.87 221.43,185.38 222.18,184.89 222.93,184.39 223.68,183.89 224.43,183.39 225.18,182.89 225.94,182.38 226.69,181.87 227.44,181.37 228.19,180.86 228.94,180.35 229.69,179.83 230.44,179.32 231.19,178.80 231.94,178.28 232.69,177.76 233.44,177.24 234.19,176.72 234.94,176.19 235.70,175.66 236.45,175.14 237.20,174.61 237.95,174.07 238.70,173.54 239.45,173.00 240.20,172.47 240.95,171.93 241.70,171.39 242.45,170.85 243.20,170.31 243.95,169.76 244.70,169.22 245.45,168.67 246.21,168.12 246.96,167.57 247.71,167.02 248.46,166.46 249.21,165.91 249.96,165.35 250.71,164.79 251.46,164.23 252.21,163.67 252.96,163.11 253.71,162.55 254.46,161.98 255.21,161.42 255.96,160.85 256.72,160.28 257.47,159.71 258.22,159.14 258.97,158.57 259.72,157.99 260.47,157.42 261.22,156.84 261.97,156.26 262.72,155.69 263.47,155.11 264.22,154.52 264.97,153.94 265.72,153.36 266.48,152.77 267.23,152.19 267.98,151.60 268.73,151.01 269.48,150.42 270.23,149.83 270.98,149.24 271.73,148.65 272.48,148.06 273.23,147.46 273.98,146.87 274.73,146.27 275.48,145.67 276.23,145.07 276.99,144.48 277.74,143.88 278.49,143.27 279.24,142.67 279.99,142.07 280.74,141.47 281.49,140.86 282.24,140.26 282.99,139.65 283.74,139.04 284.49,138.44 285.24,137.83 285.99,137.22 286.74,136.61 287.50,136.00 288.25,135.39 289.00,134.78 289.75,134.16 290.50,133.55 291.25,132.94 292.00,132.32 292.75,131.71 293.50,131.09 294.25,130.48 295.00,129.86 295.75,129.24 296.50,128.63 297.26,128.01 298.01,127.39 298.76,126.77 299.51,126.15 300.26,125.53 301.01,124.91 301.76,124.29 302.51,123.67 303.26,123.05 304.01,122.43 304.76,121.81 305.51,121.19 306.26,120.57 307.01,119.94 307.77,119.32 308.52,118.70 309.27,118.08 310.02,117.45 310.77,116.83 311.52,116.21 312.27,115.58 313.02,114.96 313.77,114.34 314.52,113.71 315.27,113.09 316.02,112.47 316.77,111.84 317.52,111.22 318.28,110.60 319.03,109.97 319.78,109.35 320.53,108.73 321.28,108.10 322.03,107.48 322.78,106.86 323.53,106.24 324.28,105.62 325.03,104.99 325.78,104.37 326.53,103.75 327.28,103.13 328.04,102.51 328.79,101.89 329.54,101.27 330.29,100.65 331.04,100.03 331.79,99.42 332.54,98.80 333.29,98.18 334.04,97.56 334.79,96.95 335.54,96.33 336.29,95.72 337.04,95.10 337.79,94.49 338.55,93.87 339.30,93.26 340.05,92.65 340.80,92.04 341.55,91.43 342.30,90.82 343.05,90.21 343.80,89.60 344.55,88.99 345.30,88.39 346.05,87.78 346.80,87.18 347.55,86.57 348.30,85.97 349.06,85.37 349.81,84.77 350.56,84.17 351.31,83.57 352.06,82.97 352.81,82.37 353.56,81.78 354.31,81.18 355.06,80.59 355.81,80.00 356.56,79.41 357.31,78.82 358.06,78.23 358.82,77.64 359.57,77.05 360.32,76.47 361.07,75.89 361.82,75.30 362.57,74.72 363.32,74.14 364.07,73.56 364.82,72.99 365.57,72.41 366.32,71.84 367.07,71.27 367.82,70.70 368.57,70.13 369.33,69.56 370.08,68.99 370.83,68.43 371.58,67.87 372.33,67.30 373.08,66.74 373.83,66.19 374.58,65.63 375.33,65.08 376.08,64.52 376.83,63.97 377.58,63.42 378.33,62.88 379.09,62.33 379.84,61.79 380.59,61.25 381.34,60.71 382.09,60.17 382.84,59.64 383.59,59.10 384.34,58.57 385.09,58.04 385.84,57.51 386.59,56.99 387.34,56.47 388.09,55.95 388.84,55.43 389.60,54.91 390.35,54.40 391.10,53.88 391.85,53.37 392.60,52.87 393.35,52.36 394.10,51.86 394.85,51.36 395.60,50.86 396.35,50.36 397.10,49.87 397.85,49.38 398.60,48.89 399.35,48.40 400.11,47.92 400.86,47.44 401.61,46.96 402.36,46.49 403.11,46.01 403.86,45.54 404.61,45.07 405.36,44.61 406.11,44.15 406.86,43.69 407.61,43.23 408.36,42.78 409.11,42.32 409.87,41.87 410.62,41.43 411.37,40.99 412.12,40.55 412.87,40.11 413.62,39.67 414.37,39.24 415.12,38.81 415.87,38.39 416.62,37.97 417.37,37.55 418.12,37.13 418.87,36.72 419.62,36.31 420.38,36.10 421.13,36.51 421.88,36.92 422.63,37.34 423.38,37.76 424.13,38.18 424.88,38.60 425.63,39.03 426.38,39.46 427.13,39.89 427.88,40.33 428.63,40.77 429.38,41.21 430.13,41.65 430.89,42.10 431.64,42.55 432.39,43.00 433.14,43.46 433.89,43.92 434.64,44.38 435.39,44.84 436.14,45.31 436.89,45.78 437.64,46.25 438.39,46.72 439.14,47.20 439.89,47.68 440.65,48.16 441.40,48.65 442.15,49.13 442.90,49.62 443.65,50.12 444.40,50.61 445.15,51.11 445.90,51.61 446.65,52.11 447.40,52.61 448.15,53.12 448.90,53.63 449.65,54.14 450.40,54.65 451.16,55.17 451.91,55.69 452.66,56.21 453.41,56.73 454.16,57.25 454.91,57.78 455.66,58.31 456.41,58.84 457.16,59.37 457.91,59.90 458.66,60.44 459.41,60.98 460.16,61.52 460.91,62.06 461.67,62.61 462.42,63.15 463.17,63.70 463.92,64.25 464.67,64.80 465.42,65.35 466.17,65.91 466.92,66.47 467.67,67.02 468.42,67.58 469.17,68.15 469.92,68.71 470.67,69.28 471.43,69.84 472.18,70.41 472.93,70.98 473.68,71.55 474.43,72.13 475.18,72.70 475.93,73.28 476.68,73.85 477.43,74.43 478.18,75.01 478.93,75.59 479.68,76.18 480.43,76.76 481.18,77.35 481.94,77.93 482.69,78.52 483.44,79.11 484.19,79.70 484.94,80.29 485.69,80.89 486.44,81.48 487.19,82.08 487.94,82.67 488.69,83.27 489.44,83.87 490.19,84.47 490.94,85.07 491.70,85.67 492.45,86.27 493.20,86.87 493.95,87.48 494.70,88.08 495.45,88.69 496.20,89.30 496.95,89.91 497.70,90.51 498.45,91.12 499.20,91.73 499.95,92.34 500.70,92.96 501.45,93.57 502.21,94.18 502.96,94.79 503.71,95.41 504.46,96.02 505.21,96.64 505.96,97.25 506.71,97.87 507.46,98.49 508.21,99.11 508.96,99.72 509.71,100.34 510.46,100.96 511.21,101.58 511.96,102.20 512.72,102.82 513.47,103.44 514.22,104.06 514.97,104.68 515.72,105.30 516.47,105.93 517.22,106.55 517.97,107.17 518.72,107.79 519.47,108.42 520.22,109.04 520.97,109.66 521.72,110.28 522.48,110.91 523.23,111.53 523.98,112.15 524.73,112.78 525.48,113.40 526.23,114.02 526.98,114.65 527.73,115.27 528.48,115.89 529.23,116.52 529.98,117.14 530.73,117.76 531.48,118.39 532.23,119.01 532.99,119.63 533.74,120.25 534.49,120.88 535.24,121.50 535.99,122.12 536.74,122.74 537.49,123.36 538.24,123.98 538.99,124.60 539.74,125.22 540.49,125.84 541.24,126.46 541.99,127.08 542.74,127.70 543.50,128.32 544.25,128.94 545.00,129.55 545.75,130.17 546.50,130.79 547.25,131.40 548.00,132.02 548.75,132.63 549.50,133.24 550.25,133.86 551.00,134.47 551.75,135.08 552.50,135.69 553.26,136.30 554.01,136.91 554.76,137.52 555.51,138.13 556.26,138.74 557.01,139.35 557.76,139.95 558.51,140.56 559.26,141.16 560.01,141.77 560.76,142.37 561.51,142.97 562.26,143.58 563.01,144.18 563.77,144.78 564.52,145.37 565.27,145.97 566.02,146.57 566.77,147.16 567.52,147.76 568.27,148.35 569.02,148.95 569.77,149.54 570.52,150.13 571.27,150.72 572.02,151.31 572.77,151.89 573.52,152.48 574.28,153.07 575.03,153.65 575.78,154.23 576.53,154.81 577.28,155.40 578.03,155.97 578.78,156.55 579.53,157.13 580.28,157.71 581.03,158.28 581.78,158.85 582.53,159.43 583.28,160.00 584.04,160.57 584.79,161.13 585.54,161.70 586.29,162.27 587.04,162.83 587.79,163.39 588.54,163.95 589.29,164.51 590.04,165.07 590.79,165.63 591.54,166.19 592.29,166.74 593.04,167.29 593.79,167.84 594.55,168.39 595.30,168.94 596.05,169.49 596.80,170.03 597.55,170.58 598.30,171.12 599.05,171.66 599.80,172.20 600.55,172.74 601.30,173.27 602.05,173.81 602.80,174.34 603.55,174.87 604.30,175.40 605.06,175.93 605.81,176.45 606.56,176.98 607.31,177.50 608.06,178.02 608.81,178.54 609.56,179.06 610.31,179.57 611.06,180.09 611.81,180.60 612.56,181.11 613.31,181.62 614.06,182.13 614.82,182.63 615.57,183.14 616.32,183.64 617.07,184.14 617.82,184.64 618.57,185.13 619.32,185.63 620.07,186.12 620.82,186.61 621.57,187.10 622.32,187.59 623.07,188.07 623.82,188.56 624.57,189.04 625.33,189.52 626.08,190.00 626.83,190.47 627.58,190.95 628.33,191.42 629.08,191.89 629.83,192.36 630.58,192.82 631.33,193.29 632.08,193.75 632.83,194.21 633.58,194.67 634.33,195.12 635.09,195.58 635.84,196.03 636.59,196.48 637.34,196.93 638.09,197.37 638.84,197.82 639.59,198.26 640.34,198.70 641.09,199.14 641.84,199.57 642.59,200.01 643.34,200.44 644.09,200.87 644.84,201.30 645.60,201.72 646.35,202.15 647.10,202.57 647.85,202.99 648.60,203.40 649.35,203.82 650.10,204.23 650.85,204.64 651.60,205.05 652.35,205.46 653.10,205.86 653.85,206.27 654.60,206.67 655.35,207.06 656.11,207.46 656.86,207.85 657.61,208.25 658.36,208.64 659.11,209.02 659.86,209.41 660.61,209.79 661.36,210.17 662.11,210.55 662.86,210.93 663.61,211.30 664.36,211.67 665.11,212.04 665.87,212.41 666.62,212.78 667.37,213.14 668.12,213.50 668.87,213.86 669.62,214.22 670.37,214.57 671.12,214.93 671.87,215.28 672.62,215.62 673.37,215.97 674.12,216.31 674.87,216.65 675.62,216.99 676.38,217.33 677.13,217.67 677.88,218.00 678.63,218.33 679.38,218.66 680.13,218.98 680.88,219.31 681.63,219.63 682.38,219.95 683.13,220.26 683.88,220.58 684.63,220.89 685.38,221.20 686.13,221.51 686.89,221.81 687.64,222.12 688.39,222.42 689.14,222.72 689.89,223.02 690.64,223.31 691.39,223.60 692.14,223.89 692.89,224.18 693.64,224.47 694.39,224.75 695.14,225.03 695.89,225.31 696.65,225.59 697.40,225.86 698.15,226.13 698.90,226.41 699.65,226.67 700.40,226.94 701.15,227.20 701.90,227.46 702.65,227.72 703.40,227.98 704.15,228.23 704.90,228.49 705.65,228.74 706.40,228.99 707.16,229.23 707.91,229.48 708.66,229.72 709.41,229.96 710.16,230.19 710.91,230.43 711.66,230.66 712.41,230.89 713.16,231.12 713.91,231.35 714.66,231.57 715.41,231.79 716.16,232.01 716.91,232.23 717.67,232.44 718.42,232.66 719.17,232.87 719.92,233.08 720.67,233.28 721.42,233.49 722.17,233.69 722.92,233.89 723.67,234.09 724.42,234.28 725.17,234.48 725.92,234.67 726.67,234.86 727.43,235.05 728.18,235.23 728.93,235.42 729.68,235.60 730.43,235.78 731.18,235.95 731.93,236.13 732.68,236.30 733.43,236.47 734.18,236.64 734.93,236.81 735.68,236.97 736.43,237.13 737.18,237.29 737.94,237.45 738.69,237.61 739.44,237.76 740.19,237.91 740.94,238.06 741.69,238.21 742.44,238.36 743.19,238.50 743.94,238.64 744.69,238.78 745.44,238.92 746.19,239.06 746.94,239.19 747.70,239.32 748.45,239.45 749.20,239.58 749.95,239.71 750.70,239.83 751.45,239.95 752.20,240.07 752.95,240.19 753.70,240.31 754.45,240.42 755.20,240.53 755.95,240.64 756.70,240.75 757.45,240.86 758.21,240.96 758.96,241.06 759.71,241.16 760.46,241.26 761.21,241.36 761.96,241.46 762.71,241.55 763.46,241.64 764.21,241.73 764.96,241.82 765.71,241.90 766.46,241.99 767.21,242.07 767.96,242.15 768.72,242.23 769.47,242.30 770.22,242.38 770.97,242.45 771.72,242.52 772.47,242.59 773.22,242.66 773.97,242.73 774.72,242.79 775.47,242.85 776.22,242.91 776.97,242.97 777.72,243.03 778.48,243.09 779.23,243.14 779.98,243.19 780.73,243.24 781.48,243.29 782.23,243.34 782.98,243.38 783.73,243.43 784.48,243.47 785.23,243.51 785.98,243.55 786.73,243.58 787.48,243.62 788.23,243.65 788.99,243.69 789.74,243.72 790.49,243.74 791.24,243.77 791.99,243.80 792.74,243.82 793.49,243.84 794.24,243.87 794.99,243.88 795.74,243.90 796.49,243.92 797.24,243.93 797.99,243.95 798.74,243.96 799.50,243.97 800.25,243.98 801.00,243.99 801.75,243.99 802.50,244.00 803.25,244.00 804.00,244.00" />
  <text x="420.0" y="22" text-anchor="middle" font-family="Arial, Helvetica, sans-serif" font-size="15" fill="#102a43">hann_poisson_1p0 window (time domain)</text>
  <text x="420.0" y="272" text-anchor="middle" font-family="Arial, Helvetica, sans-serif" font-size="12" fill="#334e68">normalized sample index</text>
  <text x="14" y="140.0" transform="rotate(-90 14,140.0)" text-anchor="middle" font-family="Arial, Helvetica, sans-serif" font-size="12" fill="#334e68">amplitude</text>
  <text x="36" y="262" font-family="Arial, Helvetica, sans-serif" font-size="11" fill="#486581">0</text>
  <text x="804" y="262" text-anchor="end" font-family="Arial, Helvetica, sans-serif" font-size="11" fill="#486581">1</text>
  <text x="30" y="40" text-anchor="end" font-family="Arial, Helvetica, sans-serif" font-size="11" fill="#486581">1.0</text>
  <text x="30" y="248" text-anchor="end" font-family="Arial, Helvetica, sans-serif" font-size="11" fill="#486581">0.0</text>
</svg>
