<svg xmlns="http://www.w3.org/2000/svg" width="840" height="280" viewBox="0 0 840 280">
  <rect x="0" y="0" width="840" height="280" fill="#ffffff" />
  <rect x="36" y="36" width="768" height="208" fill="#f7fbff" stroke="#c8d9e6" />
  <polyline fill="none" stroke="#005f73" stroke-width="2" points="36.00,36.00 36.75,39.74 37.50,51.53 38.25,73.74 39.00,115.03 39.75,182.16 40.50,219.46 41.26,188.96 42.01,191.75 42.76,199.09 43.51,213.48 44.26,217.29 45.01,207.05 45.76,203.72 46.51,202.30 47.26,201.75 48.01,201.42 48.76,201.70 49.51,202.13 50.26,202.67 51.01,203.26 51.77,203.90 52.52,204.56 53.27,205.24 54.02,205.92 54.77,206.60 55.52,207.28 56.27,207.95 57.02,208.62 57.77,209.27 58.52,209.92 59.27,210.55 60.02,211.60 60.77,212.24 61.52,212.87 62.28,213.48 63.03,214.09 63.78,214.68 64.53,215.27 65.28,215.84 66.03,216.40 66.78,216.95 67.53,217.49 68.28,218.03 69.03,218.55 69.78,219.06 70.53,219.57 71.28,220.07 72.04,221.48 72.79,221.99 73.54,222.50 74.29,222.99 75.04,223.48 75.79,223.96 76.54,224.44 77.29,224.91 78.04,225.37 78.79,225.83 79.54,226.28 80.29,226.73 81.04,227.17 81.79,227.60 82.55,228.03 83.30,228.46 84.05,230.53 84.80,230.99 85.55,231.44 86.30,231.89 87.05,232.34 87.80,232.79 88.55,233.23 89.30,233.67 90.05,234.11 90.80,234.54 91.55,234.98 92.30,235.40 93.06,235.83 93.81,236.26 94.56,236.68 95.31,237.10 96.06,240.65 96.81,241.16 97.56,241.67 98.31,242.19 99.06,242.70 99.81,243.22 100.56,243.75 101.31,244.00 102.06,244.00 102.82,244.00 103.57,244.00 104.32,244.00 105.07,244.00 105.82,244.00 106.57,244.00 107.32,244.00 108.07,244.00 108.82,244.00 109.57,244.00 110.32,244.00 111.07,244.00 111.82,244.00 112.57,244.00 113.33,244.00 114.08,244.00 114.83,244.00 115.58,244.00 116.33,244.00 117.08,244.00 117.83,244.00 118.58,244.00 119.33,244.00 120.08,244.00 120.83,244.00 121.58,244.00 122.33,244.00 123.09,244.00 123.84,244.00 124.59,244.00 125.34,244.00 126.09,244.00 126.84,244.00 127.59,244.00 128.34,244.00 129.09,244.00 129.84,244.00 130.59,244.00 131.34,244.00 132.09,244.00 132.84,244.00 133.60,244.00 134.35,244.00 135.10,244.00 135.85,244.00 136.60,244.00 137.35,244.00 138.10,244.00 138.85,244.00 139.60,244.00 140.35,244.00 141.10,244.00 141.85,244.00 142.60,244.00 143.35,244.00 144.11,242.98 144.86,242.98 145.61,242.98 146.36,242.98 147.11,242.98 147.86,242.99 148.61,242.99 149.36,243.00 150.11,243.00 150.86,243.01 151.61,243.02 152.36,243.03 153.11,243.04 153.87,243.05 154.62,243.06 155.37,243.07 156.12,241.07 156.87,241.10 157.62,241.12 158.37,241.14 159.12,241.17 159.87,241.19 160.62,241.21 161.37,241.24 162.12,241.26 162.87,241.28 163.62,241.31 164.38,241.33 165.13,241.36 165.88,241.38 166.63,241.41 167.38,241.43 168.13,239.88 168.88,239.91 169.63,239.94 170.38,239.98 171.13,240.01 171.88,240.04 172.63,240.07 173.38,240.10 174.13,240.13 174.89,240.16 175.64,240.20 176.39,240.23 177.14,240.26 177.89,240.29 178.64,240.32 179.39,240.35 180.14,239.08 180.89,239.12 181.64,239.15 182.39,239.19 183.14,239.22 183.89,239.26 184.65,239.29 185.40,239.33 186.15,239.36 186.90,239.40 187.65,239.43 188.40,239.47 189.15,239.50 189.90,239.53 190.65,239.57 191.40,239.60 192.15,238.53 192.90,238.57 193.65,238.60 194.40,238.64 195.16,238.68 195.91,238.71 196.66,238.75 197.41,238.78 198.16,238.82 198.91,238.85 199.66,238.89 200.41,238.93 201.16,238.96 201.91,239.00 202.66,239.03 203.41,239.07 204.16,238.14 204.91,238.18 205.67,238.22 206.42,238.25 207.17,238.29 207.92,238.32 208.67,238.36 209.42,238.40 210.17,238.43 210.92,238.47 211.67,238.50 212.42,238.54 213.17,238.57 213.92,238.61 214.67,238.64 215.43,238.68 216.18,237.87 216.93,237.91 217.68,237.94 218.43,237.98 219.18,238.01 219.93,238.05 220.68,238.08 221.43,238.12 222.18,238.15 222.93,238.19 223.68,238.22 224.43,238.26 225.18,238.29 225.94,238.32 226.69,238.36 227.44,238.39 228.19,237.68 228.94,237.72 229.69,237.75 230.44,237.79 231.19,237.82 231.94,237.86 232.69,237.89 233.44,237.92 234.19,237.96 234.94,237.99 235.70,238.02 236.45,238.06 237.20,238.09 237.95,238.12 238.70,238.15 239.45,238.19 240.20,237.56 240.95,237.59 241.70,237.63 242.45,237.66 243.20,237.69 243.95,237.73 244.70,237.76 245.45,237.79 246.21,237.82 246.96,237.86 247.71,237.89 248.46,237.92 249.21,237.95 249.96,237.98 250.71,238.02 251.46,238.05 252.21,237.49 252.96,237.52 253.71,237.55 254.46,237.59 255.21,237.62 255.96,237.65 256.72,237.68 257.47,237.71 258.22,237.74 258.97,237.77 259.72,237.80 260.47,237.83 261.22,237.86 261.97,237.90 262.72,237.93 263.47,237.96 264.22,237.46 264.97,237.49 265.72,237.52 266.48,237.55 267.23,237.58 267.98,237.61 268.73,237.64 269.48,237.67 270.23,237.70 270.98,237.73 271.73,237.76 272.48,237.79 273.23,237.82 273.98,237.85 274.73,237.88 275.48,237.91 276.23,237.46 276.99,237.49 277.74,237.52 278.49,237.55 279.24,237.58 279.99,237.61 280.74,237.64 281.49,237.67 282.24,237.70 282.99,237.72 283.74,237.75 284.49,237.78 285.24,237.81 285.99,237.84 286.74,237.86 287.50,237.89 288.25,237.50 289.00,237.53 289.75,237.55 290.50,237.58 291.25,237.61 292.00,237.64 292.75,237.67 293.50,237.69 294.25,237.72 295.00,237.75 295.75,237.77 296.50,237.80 297.26,237.83 298.01,237.86 298.76,237.88 299.51,237.91 300.26,237.56 301.01,237.59 301.76,237.61 302.51,237.64 303.26,237.67 304.01,237.69 304.76,237.72 305.51,237.74 306.26,237.77 307.01,237.80 307.77,237.82 308.52,237.85 309.27,237.87 310.02,237.90 310.77,237.93 311.52,237.95 312.27,237.64 313.02,237.67 313.77,237.69 314.52,237.72 315.27,237.74 316.02,237.77 316.77,237.79 317.52,237.82 318.28,237.84 319.03,237.87 319.78,237.89 320.53,237.92 321.28,237.94 322.03,237.97 322.78,237.99 323.53,238.02 324.28,237.75 325.03,237.77 325.78,237.79 326.53,237.82 327.28,237.84 328.04,237.87 328.79,237.89 329.54,237.92 330.29,237.94 331.04,237.96 331.79,237.99 332.54,238.01 333.29,238.03 334.04,238.06 334.79,238.08 335.54,238.10 336.29,237.87 337.04,237.89 337.79,237.92 338.55,237.94 339.30,237.96 340.05,237.99 340.80,238.01 341.55,238.03 342.30,238.05 343.05,238.08 343.80,238.10 344.55,238.12 345.30,238.14 346.05,238.17 346.80,238.19 347.55,238.21 348.30,238.01 349.06,238.03 349.81,238.05 350.56,238.08 351.31,238.10 352.06,238.12 352.81,238.14 353.56,238.17 354.31,238.19 355.06,238.21 355.81,238.23 356.56,238.25 357.31,238.27 358.06,238.30 358.82,238.32 359.57,238.34 360.32,238.17 361.07,238.19 361.82,238.21 362.57,238.23 363.32,238.25 364.07,238.28 364.82,238.30 365.57,238.32 366.32,238.34 367.07,238.36 367.82,238.38 368.57,238.40 369.33,238.42 370.08,238.44 370.83,238.46 371.58,238.48 372.33,238.34 373.08,238.36 373.83,238.39 374.58,238.41 375.33,238.43 376.08,238.45 376.83,238.47 377.58,238.49 378.33,238.51 379.09,238.53 379.84,238.55 380.59,238.57 381.34,238.59 382.09,238.61 382.84,238.63 383.59,238.65 384.34,238.54 385.09,238.56 385.84,238.58 386.59,238.59 387.34,238.61 388.09,238.63 388.84,238.65 389.60,238.67 390.35,238.69 391.10,238.71 391.85,238.73 392.60,238.75 393.35,238.77 394.10,238.79 394.85,238.81 395.60,238.82 396.35,238.74 397.10,238.76 397.85,238.78 398.60,238.80 399.35,238.82 400.11,238.84 400.86,238.86 401.61,238.87 402.36,238.89 403.11,238.91 403.86,238.93 404.61,238.95 405.36,238.97 406.11,238.98 406.86,239.00 407.61,239.02 408.36,238.97 409.11,238.99 409.87,239.00 410.62,239.02 411.37,239.04 412.12,239.06 412.87,239.08 413.62,239.09 414.37,239.11 415.12,239.13 415.87,239.15 416.62,239.16 417.37,239.18 418.12,239.20 418.87,239.21 419.62,239.23 420.38,239.21 421.13,239.23 421.88,239.24 422.63,239.26 423.38,239.28 424.13,239.29 424.88,239.31 425.63,239.33 426.38,239.34 427.13,239.36 427.88,239.38 428.63,239.39 429.38,239.41 430.13,239.43 430.89,239.44 431.64,239.46 432.39,239.47 433.14,239.48 433.89,239.50 434.64,239.51 435.39,239.53 436.14,239.55 436.89,239.56 437.64,239.58 438.39,239.60 439.14,239.61 439.89,239.63 440.65,239.64 441.40,239.66 442.15,239.68 442.90,239.69 443.65,239.71 444.40,239.74 445.15,239.75 445.90,239.77 446.65,239.79 447.40,239.80 448.15,239.82 448.90,239.83 449.65,239.85 450.40,239.86 451.16,239.88 451.91,239.89 452.66,239.91 453.41,239.92 454.16,239.94 454.91,239.95 455.66,239.97 456.41,240.03 457.16,240.04 457.91,240.06 458.66,240.07 459.41,240.09 460.16,240.10 460.91,240.12 461.67,240.13 462.42,240.15 463.17,240.16 463.92,240.18 464.67,240.19 465.42,240.21 466.17,240.22 466.92,240.24 467.67,240.25 468.42,240.34 469.17,240.35 469.92,240.37 470.67,240.38 471.43,240.40 472.18,240.41 472.93,240.42 473.68,240.44 474.43,240.45 475.18,240.47 475.93,240.48 476.68,240.49 477.43,240.51 478.18,240.52 478.93,240.54 479.68,240.55 480.43,240.67 481.18,240.68 481.94,240.69 482.69,240.71 483.44,240.72 484.19,240.73 484.94,240.75 485.69,240.76 486.44,240.78 487.19,240.79 487.94,240.80 488.69,240.82 489.44,240.83 490.19,240.84 490.94,240.86 491.70,240.87 492.45,241.01 493.20,241.03 493.95,241.04 494.70,241.05 495.45,241.07 496.20,241.08 496.95,241.09 497.70,241.10 498.45,241.12 499.20,241.13 499.95,241.14 500.70,241.16 501.45,241.17 502.21,241.18 502.96,241.19 503.71,241.21 504.46,241.38 505.21,241.39 505.96,241.41 506.71,241.42 507.46,241.43 508.21,241.44 508.96,241.46 509.71,241.47 510.46,241.48 511.21,241.49 511.96,241.51 512.72,241.52 513.47,241.53 514.22,241.54 514.97,241.55 515.72,241.57 516.47,241.77 517.22,241.78 517.97,241.79 518.72,241.81 519.47,241.82 520.22,241.83 520.97,241.84 521.72,241.85 522.48,241.87 523.23,241.88 523.98,241.89 524.73,241.90 525.48,241.91 526.23,241.92 526.98,241.94 527.73,241.95 528.48,242.18 529.23,242.20 529.98,242.21 530.73,242.22 531.48,242.23 532.23,242.24 532.99,242.25 533.74,242.26 534.49,242.27 535.24,242.29 535.99,242.30 536.74,242.31 537.49,242.32 538.24,242.33 538.99,242.34 539.74,242.35 540.49,242.62 541.24,242.63 541.99,242.64 542.74,242.65 543.50,242.67 544.25,242.68 545.00,242.69 545.75,242.70 546.50,242.71 547.25,242.72 548.00,242.73 548.75,242.74 549.50,242.75 550.25,242.76 551.00,242.77 551.75,242.78 552.50,243.09 553.26,243.10 554.01,243.11 554.76,243.12 555.51,243.13 556.26,243.14 557.01,243.15 557.76,243.16 558.51,243.17 559.26,243.18 560.01,243.19 560.76,243.20 561.51,243.21 562.26,243.22 563.01,243.23 563.77,243.24 564.52,243.58 565.27,243.59 566.02,243.60 566.77,243.61 567.52,243.62 568.27,243.63 569.02,243.64 569.77,243.65 570.52,243.66 571.27,243.67 572.02,243.68 572.77,243.69 573.52,243.70 574.28,243.71 575.03,243.71 575.78,243.72 576.53,244.00 577.28,244.00 578.03,244.00 578.78,244.00 579.53,244.00 580.28,244.00 581.03,244.00 581.78,244.00 582.53,244.00 583.28,244.00 584.04,244.00 584.79,244.00 585.54,244.00 586.29,244.00 587.04,244.00 587.79,244.00 588.54,244.00 589.29,244.00 590.04,244.00 590.79,244.00 591.54,244.00 592.29,244.00 593.04,244.00 593.79,244.00 594.55,244.00 595.30,244.00 596.05,244.00 596.80,244.00 597.55,244.00 598.30,244.00 599.05,244.00 599.80,244.00 600.55,244.00 601.30,244.00 602.05,244.00 602.80,244.00 603.55,244.00 604.30,244.00 605.06,244.00 605.81,244.00 606.56,244.00 607.31,244.00 608.06,244.00 608.81,244.00 609.56,244.00 610.31,244.00 611.06,244.00 611.81,244.00 612.56,244.00 613.31,244.00 614.06,244.00 614.82,244.00 615.57,244.00 616.32,244.00 617.07,244.00 617.82,244.00 618.57,244.00 619.32,244.00 620.07,244.00 620.82,244.00 621.57,244.00 622.32,244.00 623.07,244.00 623.82,244.00 624.57,244.00 625.33,244.00 626.08,244.00 626.83,244.00 627.58,244.00 628.33,244.00 629.08,244.00 629.83,244.00 630.58,244.00 631.33,244.00 632.08,244.00 632.83,244.00 633.58,244.00 634.33,244.00 635.09,244.00 635.84,244.00 636.59,244.00 637.34,244.00 638.09,244.00 638.84,244.00 639.59,244.00 640.34,244.00 641.09,244.00 641.84,244.00 642.59,244.00 643.34,244.00 644.09,244.00 644.84,244.00 645.60,244.00 646.35,244.00 647.10,244.00 647.85,244.00 648.60,244.00 649.35,244.00 650.10,244.00 650.85,244.00 651.60,244.00 652.35,244.00 653.10,244.00 653.85,244.00 654.60,244.00 655.35,244.00 656.11,244.00 656.86,244.00 657.61,244.00 658.36,244.00 659.11,244.00 659.86,244.00 660.61,244.00 661.36,244.00 662.11,244.00 662.86,244.00 663.61,244.00 664.36,244.00 665.11,244.00 665.87,244.00 666.62,244.00 667.37,244.00 668.12,244.00 668.87,244.00 669.62,244.00 670.37,244.00 671.12,244.00 671.87,244.00 672.62,244.00 673.37,244.00 674.12,244.00 674.87,244.00 675.62,244.00 676.38,244.00 677.13,244.00 677.88,244.00 678.63,244.00 679.38,244.00 680.13,244.00 680.88,244.00 681.63,244.00 682.38,244.00 683.13,244.00 683.88,244.00 684.63,244.00 685.38,244.00 686.13,244.00 686.89,244.00 687.64,244.00 688.39,244.00 689.14,244.00 689.89,244.00 690.64,244.00 691.39,244.00 692.14,244.00 692.89,244.00 693.64,244.00 694.39,244.00 695.14,244.00 695.89,244.00 696.65,244.00 697.40,244.00 698.15,244.00 698.90,244.00 699.65,244.00 700.40,244.00 701.15,244.00 701.90,244.00 702.65,244.00 703.40,244.00 704.15,244.00 704.90,244.00 705.65,244.00 706.40,244.00 707.16,244.00 707.91,244.00 708.66,244.00 709.41,244.00 710.16,244.00 710.91,244.00 711.66,244.00 712.41,244.00 713.16,244.00 713.91,244.00 714.66,244.00 715.41,244.00 716.16,244.00 716.91,244.00 717.67,244.00 718.42,244.00 719.17,244.00 719.92,244.00 720.67,244.00 721.42,244.00 722.17,244.00 722.92,244.00 723.67,244.00 724.42,244.00 725.17,244.00 725.92,244.00 726.67,244.00 727.43,244.00 728.18,244.00 728.93,244.00 729.68,244.00 730.43,244.00 731.18,244.00 731.93,244.00 732.68,244.00 733.43,244.00 734.18,244.00 734.93,244.00 735.68,244.00 736.43,244.00 737.18,244.00 737.94,244.00 738.69,244.00 739.44,244.00 740.19,244.00 740.94,244.00 741.69,244.00 742.44,244.00 743.19,244.00 743.94,244.00 744.69,244.00 745.44,244.00 746.19,244.00 746.94,244.00 747.70,244.00 748.45,244.00 749.20,244.00 749.95,244.00 750.70,244.00 751.45,244.00 752.20,244.00 752.95,244.00 753.70,244.00 754.45,244.00 755.20,244.00 755.95,244.00 756.70,244.00 757.45,244.00 758.21,244.00 758.96,244.00 759.71,244.00 760.46,244.00 761.21,244.00 761.96,244.00 762.71,244.00 763.46,244.00 764.21,244.00 764.96,244.00 765.71,244.00 766.46,244.00 767.21,244.00 767.96,244.00 768.72,244.00 769.47,244.00 770.22,244.00 770.97,244.00 771.72,244.00 772.47,244.00 773.22,244.00 773.97,244.00 774.72,244.00 775.47,244.00 776.22,244.00 776.97,244.00 777.72,244.00 778.48,244.00 779.23,244.00 779.98,244.00 780.73,244.00 781.48,244.00 782.23,244.00 782.98,244.00 783.73,244.00 784.48,244.00 785.23,244.00 785.98,244.00 786.73,244.00 787.48,244.00 788.23,244.00 788.99,244.00 789.74,244.00 790.49,244.00 791.24,244.00 791.99,244.00 792.74,244.00 793.49,244.00 794.24,244.00 794.99,244.00 795.74,244.00 796.49,244.00 797.24,244.00 797.99,244.00 798.74,244.00 799.50,244.00 800.25,244.00 801.00,244.00 801.75,244.00 802.50,244.00 803.25,244.00 804.00,244.00" />
  <text x="420.0" y="22" text-anchor="middle" font-family="Arial, Helvetica, sans-serif" font-size="15" fill="#102a43">kaiser window (magnitude spectrum)</text>
  <text x="420.0" y="272" text-anchor="middle" font-family="Arial, Helvetica, sans-serif" font-size="12" fill="#334e68">normalized frequency</text>
  <text x="14" y="140.0" transform="rotate(-90 14,140.0)" text-anchor="middle" font-family="Arial, Helvetica, sans-serif" font-size="12" fill="#334e68">magnitude (dB)</text>
  <text x="36" y="262" font-family="Arial, Helvetica, sans-serif" font-size="11" fill="#486581">0</text>
  <text x="804" y="262" text-anchor="end" font-family="Arial, Helvetica, sans-serif" font-size="11" fill="#486581">1</text>
  <text x="30" y="40" text-anchor="end" font-family="Arial, Helvetica, sans-serif" font-size="11" fill="#486581">0.0</text>
  <text x="30" y="248" text-anchor="end" font-family="Arial, Helvetica, sans-serif" font-size="11" fill="#486581">-160.0</text>
</svg>
