<svg xmlns="http://www.w3.org/2000/svg" width="840" height="280" viewBox="0 0 840 280">
  <rect x="0" y="0" width="840" height="280" fill="#ffffff" />
  <rect x="36" y="36" width="768" height="208" fill="#f7fbff" stroke="#c8d9e6" />
  <polyline fill="none" stroke="#005f73" stroke-width="2" points="36.00,244.00 36.75,244.00 37.50,244.00 38.25,244.00 39.00,244.00 39.75,244.00 40.50,244.00 41.26,244.00 42.01,243.99 42.76,243.99 43.51,243.99 44.26,243.99 45.01,243.99 45.76,243.99 46.51,243.99 47.26,243.99 48.01,243.99 48.76,243.99 49.51,243.99 50.26,243.98 51.01,243.98 51.77,243.98 52.52,243.98 53.27,243.98 54.02,243.98 54.77,243.98 55.52,243.97 56.27,243.97 57.02,243.97 57.77,243.97 58.52,243.97 59.27,243.96 60.02,243.96 60.77,243.96 61.52,243.96 62.28,243.95 63.03,243.95 63.78,243.95 64.53,243.94 65.28,243.94 66.03,243.94 66.78,243.93 67.53,243.93 68.28,243.92 69.03,243.92 69.78,243.91 70.53,243.91 71.28,243.90 72.04,243.90 72.79,243.89 73.54,243.89 74.29,243.88 75.04,243.88 75.79,243.87 76.54,243.86 77.29,243.86 78.04,243.85 78.79,243.84 79.54,243.83 80.29,243.83 81.04,243.82 81.79,243.81 82.55,243.80 83.30,243.79 84.05,243.78 84.80,243.77 85.55,243.76 86.30,243.75 87.05,243.74 87.80,243.72 88.55,243.71 89.30,243.70 90.05,243.69 90.80,243.67 91.55,243.66 92.30,243.64 93.06,243.63 93.81,243.61 94.56,243.60 95.31,243.58 96.06,243.56 96.81,243.54 97.56,243.53 98.31,243.51 99.06,243.49 99.81,243.47 100.56,243.45 101.31,243.43 102.06,243.40 102.82,243.38 103.57,243.36 104.32,243.33 105.07,243.31 105.82,243.28 106.57,243.25 107.32,243.23 108.07,243.20 108.82,243.17 109.57,243.14 110.32,243.11 111.07,243.08 111.82,243.05 112.57,243.01 113.33,242.98 114.08,242.94 114.83,242.91 115.58,242.87 116.33,242.83 117.08,242.79 117.83,242.75 118.58,242.71 119.33,242.67 120.08,242.62 120.83,242.58 121.58,242.53 122.33,242.48 123.09,242.44 123.84,242.39 124.59,242.34 125.34,242.28 126.09,242.23 126.84,242.17 127.59,242.12 128.34,242.06 129.09,242.00 129.84,241.94 130.59,241.88 131.34,241.81 132.09,241.75 132.84,241.68 133.60,241.61 134.35,241.54 135.10,241.47 135.85,241.40 136.60,241.33 137.35,241.25 138.10,241.17 138.85,241.09 139.60,241.01 140.35,240.92 141.10,240.84 141.85,240.75 142.60,240.66 143.35,240.57 144.11,240.48 144.86,240.38 145.61,240.28 146.36,240.19 147.11,240.08 147.86,239.98 148.61,239.87 149.36,239.77 150.11,239.66 150.86,239.54 151.61,239.43 152.36,239.31 153.11,239.19 153.87,239.07 154.62,238.95 155.37,238.82 156.12,238.69 156.87,238.56 157.62,238.42 158.37,238.29 159.12,238.15 159.87,238.00 160.62,237.86 161.37,237.71 162.12,237.56 162.87,237.41 163.62,237.25 164.38,237.09 165.13,236.93 165.88,236.77 166.63,236.60 167.38,236.43 168.13,236.25 168.88,236.08 169.63,235.90 170.38,235.71 171.13,235.53 171.88,235.34 172.63,235.15 173.38,234.95 174.13,234.75 174.89,234.55 175.64,234.34 176.39,234.13 177.14,233.92 177.89,233.70 178.64,233.48 179.39,233.26 180.14,233.03 180.89,232.80 181.64,232.57 182.39,232.33 183.14,232.09 183.89,231.84 184.65,231.59 185.40,231.34 186.15,231.08 186.90,230.82 187.65,230.56 188.40,230.29 189.15,230.02 189.90,229.74 190.65,229.46 191.40,229.17 192.15,228.89 192.90,228.59 193.65,228.30 194.40,227.99 195.16,227.69 195.91,227.38 196.66,227.06 197.41,226.74 198.16,226.42 198.91,226.09 199.66,225.76 200.41,225.43 201.16,225.09 201.91,224.74 202.66,224.39 203.41,224.04 204.16,223.68 204.91,223.31 205.67,222.94 206.42,222.57 207.17,222.19 207.92,221.81 208.67,221.42 209.42,221.03 210.17,220.64 210.92,220.23 211.67,219.83 212.42,219.42 213.17,219.00 213.92,218.58 214.67,218.15 215.43,217.72 216.18,217.29 216.93,216.85 217.68,216.40 218.43,215.95 219.18,215.49 219.93,215.03 220.68,214.57 221.43,214.10 222.18,213.62 222.93,213.14 223.68,212.65 224.43,212.16 225.18,211.67 225.94,211.16 226.69,210.66 227.44,210.15 228.19,209.63 228.94,209.11 229.69,208.58 230.44,208.05 231.19,207.51 231.94,206.97 232.69,206.42 233.44,205.86 234.19,205.31 234.94,204.74 235.70,204.17 236.45,203.60 237.20,203.02 237.95,202.43 238.70,201.84 239.45,201.25 240.20,200.65 240.95,200.04 241.70,199.43 242.45,198.82 243.20,198.20 243.95,197.57 244.70,196.94 245.45,196.30 246.21,195.66 246.96,195.01 247.71,194.36 248.46,193.70 249.21,193.04 249.96,192.38 250.71,191.70 251.46,191.03 252.21,190.34 252.96,189.66 253.71,188.96 254.46,188.27 255.21,187.57 255.96,186.86 256.72,186.15 257.47,185.43 258.22,184.71 258.97,183.98 259.72,183.25 260.47,182.52 261.22,181.78 261.97,181.03 262.72,180.28 263.47,179.53 264.22,178.77 264.97,178.00 265.72,177.24 266.48,176.46 267.23,175.69 267.98,174.91 268.73,174.12 269.48,173.33 270.23,172.54 270.98,171.74 271.73,170.94 272.48,170.13 273.23,169.32 273.98,168.51 274.73,167.69 275.48,166.87 276.23,166.04 276.99,165.21 277.74,164.38 278.49,163.54 279.24,162.70 279.99,161.85 280.74,161.01 281.49,160.15 282.24,159.30 282.99,158.44 283.74,157.58 284.49,156.71 285.24,155.85 285.99,154.98 286.74,154.10 287.50,153.22 288.25,152.34 289.00,151.46 289.75,150.58 290.50,149.69 291.25,148.80 292.00,147.90 292.75,147.01 293.50,146.11 294.25,145.21 295.00,144.31 295.75,143.40 296.50,142.50 297.26,141.59 298.01,140.68 298.76,139.76 299.51,138.85 300.26,137.93 301.01,137.02 301.76,136.10 302.51,135.18 303.26,134.25 304.01,133.33 304.76,132.41 305.51,131.48 306.26,130.55 307.01,129.63 307.77,128.70 308.52,127.77 309.27,126.84 310.02,125.91 310.77,124.98 311.52,124.05 312.27,123.12 313.02,122.19 313.77,121.26 314.52,120.32 315.27,119.39 316.02,118.46 316.77,117.53 317.52,116.60 318.28,115.67 319.03,114.74 319.78,113.81 320.53,112.89 321.28,111.96 322.03,111.03 322.78,110.11 323.53,109.19 324.28,108.26 325.03,107.34 325.78,106.43 326.53,105.51 327.28,104.59 328.04,103.68 328.79,102.77 329.54,101.86 330.29,100.95 331.04,100.04 331.79,99.14 332.54,98.24 333.29,97.34 334.04,96.45 334.79,95.55 335.54,94.66 336.29,93.78 337.04,92.89 337.79,92.01 338.55,91.14 339.30,90.26 340.05,89.39 340.80,88.52 341.55,87.66 342.30,86.80 343.05,85.95 343.80,85.10 344.55,84.25 345.30,83.41 346.05,82.57 346.80,81.73 347.55,80.90 348.30,80.08 349.06,79.26 349.81,78.44 350.56,77.63 351.31,76.83 352.06,76.03 352.81,75.23 353.56,74.44 354.31,73.66 355.06,72.88 355.81,72.11 356.56,71.34 357.31,70.58 358.06,69.83 358.82,69.08 359.57,68.34 360.32,67.60 361.07,66.87 361.82,66.15 362.57,65.43 363.32,64.72 364.07,64.01 364.82,63.32 365.57,62.63 366.32,61.94 367.07,61.27 367.82,60.60 368.57,59.94 369.33,59.28 370.08,58.64 370.83,58.00 371.58,57.37 372.33,56.75 373.08,56.13 373.83,55.52 374.58,54.92 375.33,54.33 376.08,53.75 376.83,53.17 377.58,52.60 378.33,52.05 379.09,51.50 379.84,50.95 380.59,50.42 381.34,49.90 382.09,49.38 382.84,48.87 383.59,48.38 384.34,47.89 385.09,47.41 385.84,46.94 386.59,46.48 387.34,46.02 388.09,45.58 388.84,45.15 389.60,44.72 390.35,44.31 391.10,43.90 391.85,43.51 392.60,43.12 393.35,42.74 394.10,42.38 394.85,42.02 395.60,41.67 396.35,41.34 397.10,41.01 397.85,40.69 398.60,40.38 399.35,40.09 400.11,39.80 400.86,39.52 401.61,39.26 402.36,39.00 403.11,38.76 403.86,38.52 404.61,38.29 405.36,38.08 406.11,37.88 406.86,37.68 407.61,37.50 408.36,37.32 409.11,37.16 409.87,37.01 410.62,36.87 411.37,36.74 412.12,36.62 412.87,36.51 413.62,36.41 414.37,36.32 415.12,36.24 415.87,36.18 416.62,36.12 417.37,36.08 418.12,36.04 418.87,36.02 419.62,36.00 420.38,36.00 421.13,36.01 421.88,36.03 422.63,36.06 423.38,36.10 424.13,36.15 424.88,36.21 425.63,36.28 426.38,36.36 427.13,36.46 427.88,36.56 428.63,36.68 429.38,36.80 430.13,36.94 430.89,37.09 431.64,37.24 432.39,37.41 433.14,37.59 433.89,37.78 434.64,37.98 435.39,38.19 436.14,38.41 436.89,38.64 437.64,38.88 438.39,39.13 439.14,39.39 439.89,39.66 440.65,39.94 441.40,40.23 442.15,40.54 442.90,40.85 443.65,41.17 444.40,41.50 445.15,41.85 445.90,42.20 446.65,42.56 447.40,42.93 448.15,43.31 448.90,43.70 449.65,44.10 450.40,44.51 451.16,44.93 451.91,45.36 452.66,45.80 453.41,46.25 454.16,46.70 454.91,47.17 455.66,47.65 456.41,48.13 457.16,48.62 457.91,49.13 458.66,49.64 459.41,50.16 460.16,50.69 460.91,51.22 461.67,51.77 462.42,52.32 463.17,52.89 463.92,53.46 464.67,54.04 465.42,54.63 466.17,55.22 466.92,55.82 467.67,56.44 468.42,57.06 469.17,57.68 469.92,58.32 470.67,58.96 471.43,59.61 472.18,60.27 472.93,60.93 473.68,61.61 474.43,62.28 475.18,62.97 475.93,63.66 476.68,64.36 477.43,65.07 478.18,65.79 478.93,66.51 479.68,67.23 480.43,67.97 481.18,68.71 481.94,69.45 482.69,70.20 483.44,70.96 484.19,71.73 484.94,72.50 485.69,73.27 486.44,74.05 487.19,74.84 487.94,75.63 488.69,76.43 489.44,77.23 490.19,78.04 490.94,78.85 491.70,79.67 492.45,80.49 493.20,81.32 493.95,82.15 494.70,82.99 495.45,83.83 496.20,84.67 496.95,85.52 497.70,86.37 498.45,87.23 499.20,88.09 499.95,88.96 500.70,89.83 501.45,90.70 502.21,91.57 502.96,92.45 503.71,93.33 504.46,94.22 505.21,95.11 505.96,96.00 506.71,96.89 507.46,97.79 508.21,98.69 508.96,99.59 509.71,100.50 510.46,101.40 511.21,102.31 511.96,103.22 512.72,104.14 513.47,105.05 514.22,105.97 514.97,106.88 515.72,107.80 516.47,108.73 517.22,109.65 517.97,110.57 518.72,111.50 519.47,112.42 520.22,113.35 520.97,114.28 521.72,115.21 522.48,116.14 523.23,117.07 523.98,118.00 524.73,118.93 525.48,119.86 526.23,120.79 526.98,121.72 527.73,122.65 528.48,123.58 529.23,124.51 529.98,125.45 530.73,126.38 531.48,127.31 532.23,128.23 532.99,129.16 533.74,130.09 534.49,131.02 535.24,131.94 535.99,132.87 536.74,133.79 537.49,134.71 538.24,135.64 538.99,136.56 539.74,137.47 540.49,138.39 541.24,139.31 541.99,140.22 542.74,141.13 543.50,142.04 544.25,142.95 545.00,143.86 545.75,144.76 546.50,145.66 547.25,146.56 548.00,147.46 548.75,148.35 549.50,149.24 550.25,150.13 551.00,151.02 551.75,151.90 552.50,152.78 553.26,153.66 554.01,154.54 554.76,155.41 555.51,156.28 556.26,157.15 557.01,158.01 557.76,158.87 558.51,159.73 559.26,160.58 560.01,161.43 560.76,162.28 561.51,163.12 562.26,163.96 563.01,164.79 563.77,165.63 564.52,166.45 565.27,167.28 566.02,168.10 566.77,168.91 567.52,169.73 568.27,170.54 569.02,171.34 569.77,172.14 570.52,172.94 571.27,173.73 572.02,174.52 572.77,175.30 573.52,176.08 574.28,176.85 575.03,177.62 575.78,178.39 576.53,179.15 577.28,179.90 578.03,180.66 578.78,181.40 579.53,182.15 580.28,182.88 581.03,183.62 581.78,184.35 582.53,185.07 583.28,185.79 584.04,186.50 584.79,187.21 585.54,187.92 586.29,188.62 587.04,189.31 587.79,190.00 588.54,190.69 589.29,191.37 590.04,192.04 590.79,192.71 591.54,193.37 592.29,194.03 593.04,194.69 593.79,195.34 594.55,195.98 595.30,196.62 596.05,197.25 596.80,197.88 597.55,198.51 598.30,199.13 599.05,199.74 599.80,200.35 600.55,200.95 601.30,201.55 602.05,202.14 602.80,202.73 603.55,203.31 604.30,203.89 605.06,204.46 605.81,205.02 606.56,205.59 607.31,206.14 608.06,206.69 608.81,207.24 609.56,207.78 610.31,208.31 611.06,208.84 611.81,209.37 612.56,209.89 613.31,210.40 614.06,210.91 614.82,211.42 615.57,211.92 616.32,212.41 617.07,212.90 617.82,213.38 618.57,213.86 619.32,214.33 620.07,214.80 620.82,215.27 621.57,215.72 622.32,216.18 623.07,216.62 623.82,217.07 624.57,217.51 625.33,217.94 626.08,218.37 626.83,218.79 627.58,219.21 628.33,219.62 629.08,220.03 629.83,220.44 630.58,220.83 631.33,221.23 632.08,221.62 632.83,222.00 633.58,222.38 634.33,222.76 635.09,223.13 635.84,223.50 636.59,223.86 637.34,224.21 638.09,224.57 638.84,224.91 639.59,225.26 640.34,225.59 641.09,225.93 641.84,226.26 642.59,226.58 643.34,226.90 644.09,227.22 644.84,227.53 645.60,227.84 646.35,228.15 647.10,228.44 647.85,228.74 648.60,229.03 649.35,229.32 650.10,229.60 650.85,229.88 651.60,230.15 652.35,230.42 653.10,230.69 653.85,230.95 654.60,231.21 655.35,231.47 656.11,231.72 656.86,231.97 657.61,232.21 658.36,232.45 659.11,232.69 659.86,232.92 660.61,233.15 661.36,233.37 662.11,233.59 662.86,233.81 663.61,234.03 664.36,234.24 665.11,234.45 665.87,234.65 666.62,234.85 667.37,235.05 668.12,235.24 668.87,235.43 669.62,235.62 670.37,235.81 671.12,235.99 671.87,236.17 672.62,236.34 673.37,236.51 674.12,236.68 674.87,236.85 675.62,237.01 676.38,237.17 677.13,237.33 677.88,237.49 678.63,237.64 679.38,237.79 680.13,237.93 680.88,238.08 681.63,238.22 682.38,238.36 683.13,238.49 683.88,238.62 684.63,238.75 685.38,238.88 686.13,239.01 686.89,239.13 687.64,239.25 688.39,239.37 689.14,239.49 689.89,239.60 690.64,239.71 691.39,239.82 692.14,239.93 692.89,240.03 693.64,240.13 694.39,240.24 695.14,240.33 695.89,240.43 696.65,240.52 697.40,240.62 698.15,240.71 698.90,240.80 699.65,240.88 700.40,240.97 701.15,241.05 701.90,241.13 702.65,241.21 703.40,241.29 704.15,241.36 704.90,241.44 705.65,241.51 706.40,241.58 707.16,241.65 707.91,241.72 708.66,241.78 709.41,241.85 710.16,241.91 710.91,241.97 711.66,242.03 712.41,242.09 713.16,242.15 713.91,242.20 714.66,242.26 715.41,242.31 716.16,242.36 716.91,242.41 717.67,242.46 718.42,242.51 719.17,242.56 719.92,242.60 720.67,242.64 721.42,242.69 722.17,242.73 722.92,242.77 723.67,242.81 724.42,242.85 725.17,242.89 725.92,242.92 726.67,242.96 727.43,243.00 728.18,243.03 728.93,243.06 729.68,243.09 730.43,243.13 731.18,243.16 731.93,243.18 732.68,243.21 733.43,243.24 734.18,243.27 734.93,243.29 735.68,243.32 736.43,243.34 737.18,243.37 737.94,243.39 738.69,243.41 739.44,243.44 740.19,243.46 740.94,243.48 741.69,243.50 742.44,243.52 743.19,243.54 743.94,243.55 744.69,243.57 745.44,243.59 746.19,243.60 746.94,243.62 747.70,243.64 748.45,243.65 749.20,243.66 749.95,243.68 750.70,243.69 751.45,243.71 752.20,243.72 752.95,243.73 753.70,243.74 754.45,243.75 755.20,243.76 755.95,243.77 756.70,243.78 757.45,243.79 758.21,243.80 758.96,243.81 759.71,243.82 760.46,243.83 761.21,243.84 761.96,243.84 762.71,243.85 763.46,243.86 764.21,243.87 764.96,243.87 765.71,243.88 766.46,243.89 767.21,243.89 767.96,243.90 768.72,243.90 769.47,243.91 770.22,243.91 770.97,243.92 771.72,243.92 772.47,243.93 773.22,243.93 773.97,243.93 774.72,243.94 775.47,243.94 776.22,243.94 776.97,243.95 777.72,243.95 778.48,243.95 779.23,243.96 779.98,243.96 780.73,243.96 781.48,243.96 782.23,243.97 782.98,243.97 783.73,243.97 784.48,243.97 785.23,243.98 785.98,243.98 786.73,243.98 787.48,243.98 788.23,243.98 788.99,243.98 789.74,243.98 790.49,243.99 791.24,243.99 791.99,243.99 792.74,243.99 793.49,243.99 794.24,243.99 794.99,243.99 795.74,243.99 796.49,243.99 797.24,243.99 797.99,243.99 798.74,244.00 799.50,244.00 800.25,244.00 801.00,244.00 801.75,244.00 802.50,244.00 803.25,244.00 804.00,244.00" />
  <text x="420.0" y="22" text-anchor="middle" font-family="Arial, Helvetica, sans-serif" font-size="15" fill="#102a43">kaiser window (time domain)</text>
  <text x="420.0" y="272" text-anchor="middle" font-family="Arial, Helvetica, sans-serif" font-size="12" fill="#334e68">normalized sample index</text>
  <text x="14" y="140.0" transform="rotate(-90 14,140.0)" text-anchor="middle" font-family="Arial, Helvetica, sans-serif" font-size="12" fill="#334e68">amplitude</text>
  <text x="36" y="262" font-family="Arial, Helvetica, sans-serif" font-size="11" fill="#486581">0</text>
  <text x="804" y="262" text-anchor="end" font-family="Arial, Helvetica, sans-serif" font-size="11" fill="#486581">1</text>
  <text x="30" y="40" text-anchor="end" font-family="Arial, Helvetica, sans-serif" font-size="11" fill="#486581">1.0</text>
  <text x="30" y="248" text-anchor="end" font-family="Arial, Helvetica, sans-serif" font-size="11" fill="#486581">0.0</text>
</svg>
