<svg xmlns="http://www.w3.org/2000/svg" width="840" height="280" viewBox="0 0 840 280">
  <rect x="0" y="0" width="840" height="280" fill="#ffffff" />
  <rect x="36" y="36" width="768" height="208" fill="#f7fbff" stroke="#c8d9e6" />
  <polyline fill="none" stroke="#005f73" stroke-width="2" points="36.00,36.00 36.75,46.83 37.50,70.33 38.25,80.18 39.00,86.91 39.75,92.05 40.50,96.22 41.26,99.74 42.01,102.78 42.76,105.45 43.51,107.84 44.26,110.00 45.01,111.97 45.76,113.78 46.51,115.46 47.26,117.02 48.01,118.48 48.76,119.85 49.51,121.14 50.26,122.37 51.01,123.53 51.77,124.63 52.52,125.68 53.27,126.68 54.02,127.64 54.77,128.57 55.52,129.45 56.27,130.30 57.02,131.12 57.77,131.92 58.52,132.68 59.27,133.42 60.02,134.15 60.77,134.85 61.52,135.52 62.28,136.17 63.03,136.81 63.78,137.42 64.53,138.03 65.28,138.61 66.03,139.18 66.78,139.74 67.53,140.28 68.28,140.81 69.03,141.33 69.78,141.84 70.53,142.33 71.28,142.82 72.04,143.32 72.79,143.78 73.54,144.23 74.29,144.68 75.04,145.12 75.79,145.54 76.54,145.96 77.29,146.38 78.04,146.78 78.79,147.18 79.54,147.57 80.29,147.95 81.04,148.33 81.79,148.70 82.55,149.07 83.30,149.43 84.05,149.82 84.80,150.17 85.55,150.51 86.30,150.85 87.05,151.18 87.80,151.51 88.55,151.83 89.30,152.15 90.05,152.46 90.80,152.77 91.55,153.07 92.30,153.37 93.06,153.67 93.81,153.96 94.56,154.25 95.31,154.54 96.06,154.87 96.81,155.15 97.56,155.42 98.31,155.69 99.06,155.96 99.81,156.22 100.56,156.48 101.31,156.74 102.06,157.00 102.82,157.25 103.57,157.50 104.32,157.74 105.07,157.99 105.82,158.23 106.57,158.47 107.32,158.70 108.07,159.00 108.82,159.23 109.57,159.46 110.32,159.68 111.07,159.91 111.82,160.13 112.57,160.35 113.33,160.56 114.08,160.78 114.83,160.99 115.58,161.20 116.33,161.41 117.08,161.61 117.83,161.82 118.58,162.02 119.33,162.22 120.08,162.50 120.83,162.69 121.58,162.89 122.33,163.08 123.09,163.27 123.84,163.46 124.59,163.65 125.34,163.83 126.09,164.02 126.84,164.20 127.59,164.38 128.34,164.56 129.09,164.74 129.84,164.91 130.59,165.09 131.34,165.26 132.09,165.53 132.84,165.70 133.60,165.87 134.35,166.04 135.10,166.20 135.85,166.37 136.60,166.53 137.35,166.69 138.10,166.86 138.85,167.02 139.60,167.17 140.35,167.33 141.10,167.49 141.85,167.64 142.60,167.80 143.35,167.95 144.11,168.21 144.86,168.36 145.61,168.51 146.36,168.66 147.11,168.80 147.86,168.95 148.61,169.10 149.36,169.24 150.11,169.38 150.86,169.52 151.61,169.66 152.36,169.80 153.11,169.94 153.87,170.08 154.62,170.22 155.37,170.35 156.12,170.61 156.87,170.75 157.62,170.88 158.37,171.01 159.12,171.14 159.87,171.27 160.62,171.40 161.37,171.53 162.12,171.66 162.87,171.79 163.62,171.91 164.38,172.04 165.13,172.16 165.88,172.29 166.63,172.41 167.38,172.53 168.13,172.79 168.88,172.91 169.63,173.03 170.38,173.15 171.13,173.27 171.88,173.38 172.63,173.50 173.38,173.62 174.13,173.73 174.89,173.85 175.64,173.96 176.39,174.07 177.14,174.19 177.89,174.30 178.64,174.41 179.39,174.52 180.14,174.78 180.89,174.89 181.64,175.00 182.39,175.11 183.14,175.21 183.89,175.32 184.65,175.43 185.40,175.53 186.15,175.64 186.90,175.74 187.65,175.84 188.40,175.95 189.15,176.05 189.90,176.15 190.65,176.25 191.40,176.35 192.15,176.62 192.90,176.72 193.65,176.82 194.40,176.92 195.16,177.01 195.91,177.11 196.66,177.21 197.41,177.30 198.16,177.40 198.91,177.49 199.66,177.59 200.41,177.68 201.16,177.78 201.91,177.87 202.66,177.96 203.41,178.05 204.16,178.33 204.91,178.42 205.67,178.51 206.42,178.60 207.17,178.69 207.92,178.78 208.67,178.86 209.42,178.95 210.17,179.04 210.92,179.13 211.67,179.21 212.42,179.30 213.17,179.39 213.92,179.47 214.67,179.56 215.43,179.64 216.18,179.92 216.93,180.01 217.68,180.09 218.43,180.17 219.18,180.25 219.93,180.33 220.68,180.42 221.43,180.50 222.18,180.58 222.93,180.66 223.68,180.74 224.43,180.82 225.18,180.89 225.94,180.97 226.69,181.05 227.44,181.13 228.19,181.42 228.94,181.50 229.69,181.57 230.44,181.65 231.19,181.72 231.94,181.80 232.69,181.87 233.44,181.95 234.19,182.02 234.94,182.10 235.70,182.17 236.45,182.24 237.20,182.31 237.95,182.39 238.70,182.46 239.45,182.53 240.20,182.83 240.95,182.90 241.70,182.97 242.45,183.04 243.20,183.11 243.95,183.18 244.70,183.25 245.45,183.32 246.21,183.39 246.96,183.45 247.71,183.52 248.46,183.59 249.21,183.66 249.96,183.72 250.71,183.79 251.46,183.86 252.21,184.17 252.96,184.23 253.71,184.30 254.46,184.36 255.21,184.43 255.96,184.49 256.72,184.55 257.47,184.62 258.22,184.68 258.97,184.74 259.72,184.81 260.47,184.87 261.22,184.93 261.97,184.99 262.72,185.06 263.47,185.12 264.22,185.44 264.97,185.50 265.72,185.56 266.48,185.62 267.23,185.68 267.98,185.74 268.73,185.80 269.48,185.86 270.23,185.91 270.98,185.97 271.73,186.03 272.48,186.09 273.23,186.15 273.98,186.20 274.73,186.26 275.48,186.32 276.23,186.65 276.99,186.71 277.74,186.76 278.49,186.82 279.24,186.87 279.99,186.93 280.74,186.98 281.49,187.04 282.24,187.09 282.99,187.14 283.74,187.20 284.49,187.25 285.24,187.30 285.99,187.36 286.74,187.41 287.50,187.46 288.25,187.81 289.00,187.86 289.75,187.91 290.50,187.96 291.25,188.02 292.00,188.07 292.75,188.12 293.50,188.17 294.25,188.22 295.00,188.27 295.75,188.32 296.50,188.37 297.26,188.41 298.01,188.46 298.76,188.51 299.51,188.56 300.26,188.92 301.01,188.97 301.76,189.02 302.51,189.06 303.26,189.11 304.01,189.16 304.76,189.20 305.51,189.25 306.26,189.30 307.01,189.34 307.77,189.39 308.52,189.44 309.27,189.48 310.02,189.53 310.77,189.57 311.52,189.62 312.27,189.99 313.02,190.04 313.77,190.08 314.52,190.12 315.27,190.17 316.02,190.21 316.77,190.25 317.52,190.30 318.28,190.34 319.03,190.38 319.78,190.42 320.53,190.47 321.28,190.51 322.03,190.55 322.78,190.59 323.53,190.63 324.28,191.02 325.03,191.07 325.78,191.11 326.53,191.15 327.28,191.19 328.04,191.22 328.79,191.26 329.54,191.30 330.29,191.34 331.04,191.38 331.79,191.42 332.54,191.46 333.29,191.50 334.04,191.54 334.79,191.58 335.54,191.61 336.29,192.02 337.04,192.06 337.79,192.10 338.55,192.13 339.30,192.17 340.05,192.21 340.80,192.24 341.55,192.28 342.30,192.31 343.05,192.35 343.80,192.39 344.55,192.42 345.30,192.46 346.05,192.49 346.80,192.53 347.55,192.56 348.30,192.99 349.06,193.02 349.81,193.06 350.56,193.09 351.31,193.12 352.06,193.16 352.81,193.19 353.56,193.22 354.31,193.26 355.06,193.29 355.81,193.32 356.56,193.36 357.31,193.39 358.06,193.42 358.82,193.45 359.57,193.49 360.32,193.93 361.07,193.96 361.82,193.99 362.57,194.02 363.32,194.05 364.07,194.08 364.82,194.11 365.57,194.14 366.32,194.17 367.07,194.20 367.82,194.23 368.57,194.26 369.33,194.29 370.08,194.32 370.83,194.35 371.58,194.38 372.33,194.84 373.08,194.87 373.83,194.90 374.58,194.93 375.33,194.95 376.08,194.98 376.83,195.01 377.58,195.04 378.33,195.06 379.09,195.09 379.84,195.12 380.59,195.14 381.34,195.17 382.09,195.20 382.84,195.23 383.59,195.25 384.34,195.73 385.09,195.76 385.84,195.78 386.59,195.81 387.34,195.83 388.09,195.86 388.84,195.88 389.60,195.91 390.35,195.93 391.10,195.96 391.85,195.98 392.60,196.01 393.35,196.03 394.10,196.05 394.85,196.08 395.60,196.10 396.35,196.60 397.10,196.63 397.85,196.65 398.60,196.67 399.35,196.69 400.11,196.72 400.86,196.74 401.61,196.76 402.36,196.78 403.11,196.80 403.86,196.83 404.61,196.85 405.36,196.87 406.11,196.89 406.86,196.91 407.61,196.93 408.36,197.46 409.11,197.48 409.87,197.50 410.62,197.52 411.37,197.54 412.12,197.56 412.87,197.58 413.62,197.60 414.37,197.61 415.12,197.63 415.87,197.65 416.62,197.67 417.37,197.69 418.12,197.71 418.87,197.73 419.62,197.75 420.38,198.29 421.13,198.31 421.88,198.33 422.63,198.35 423.38,198.36 424.13,198.38 424.88,198.40 425.63,198.42 426.38,198.43 427.13,198.45 427.88,198.47 428.63,198.48 429.38,198.50 430.13,198.52 430.89,198.53 431.64,198.55 432.39,199.12 433.14,199.13 433.89,199.15 434.64,199.16 435.39,199.18 436.14,199.19 436.89,199.21 437.64,199.22 438.39,199.24 439.14,199.25 439.89,199.26 440.65,199.28 441.40,199.29 442.15,199.31 442.90,199.32 443.65,199.34 444.40,199.93 445.15,199.94 445.90,199.96 446.65,199.97 447.40,199.98 448.15,199.99 448.90,200.00 449.65,200.02 450.40,200.03 451.16,200.04 451.91,200.05 452.66,200.06 453.41,200.08 454.16,200.09 454.91,200.10 455.66,200.11 456.41,200.73 457.16,200.74 457.91,200.75 458.66,200.76 459.41,200.77 460.16,200.78 460.91,200.79 461.67,200.80 462.42,200.81 463.17,200.82 463.92,200.83 464.67,200.84 465.42,200.85 466.17,200.86 466.92,200.87 467.67,200.88 468.42,201.53 469.17,201.54 469.92,201.54 470.67,201.55 471.43,201.56 472.18,201.56 472.93,201.57 473.68,201.58 474.43,201.59 475.18,201.59 475.93,201.60 476.68,201.61 477.43,201.61 478.18,201.62 478.93,201.63 479.68,201.64 480.43,202.32 481.18,202.32 481.94,202.33 482.69,202.33 483.44,202.34 484.19,202.34 484.94,202.35 485.69,202.35 486.44,202.36 487.19,202.36 487.94,202.36 488.69,202.37 489.44,202.37 490.19,202.38 490.94,202.38 491.70,202.39 492.45,203.10 493.20,203.10 493.95,203.11 494.70,203.11 495.45,203.11 496.20,203.11 496.95,203.12 497.70,203.12 498.45,203.12 499.20,203.12 499.95,203.12 500.70,203.13 501.45,203.13 502.21,203.13 502.96,203.13 503.71,203.14 504.46,203.88 505.21,203.88 505.96,203.88 506.71,203.88 507.46,203.88 508.21,203.88 508.96,203.88 509.71,203.88 510.46,203.88 511.21,203.88 511.96,203.88 512.72,203.88 513.47,203.88 514.22,203.88 514.97,203.88 515.72,203.88 516.47,204.67 517.22,204.66 517.97,204.66 518.72,204.66 519.47,204.66 520.22,204.65 520.97,204.65 521.72,204.65 522.48,204.65 523.23,204.64 523.98,204.64 524.73,204.64 525.48,204.63 526.23,204.63 526.98,204.63 527.73,204.63 528.48,205.45 529.23,205.45 529.98,205.44 530.73,205.44 531.48,205.43 532.23,205.43 532.99,205.42 533.74,205.41 534.49,205.41 535.24,205.40 535.99,205.40 536.74,205.39 537.49,205.39 538.24,205.38 538.99,205.38 539.74,205.37 540.49,206.24 541.24,206.23 541.99,206.23 542.74,206.22 543.50,206.21 544.25,206.20 545.00,206.19 545.75,206.19 546.50,206.18 547.25,206.17 548.00,206.16 548.75,206.15 549.50,206.15 550.25,206.14 551.00,206.13 551.75,206.12 552.50,207.04 553.26,207.03 554.01,207.02 554.76,207.01 555.51,206.99 556.26,206.98 557.01,206.97 557.76,206.96 558.51,206.95 559.26,206.94 560.01,206.93 560.76,206.92 561.51,206.91 562.26,206.90 563.01,206.89 563.77,206.88 564.52,207.84 565.27,207.83 566.02,207.82 566.77,207.80 567.52,207.79 568.27,207.78 569.02,207.76 569.77,207.75 570.52,207.74 571.27,207.72 572.02,207.71 572.77,207.70 573.52,207.68 574.28,207.67 575.03,207.66 575.78,207.64 576.53,208.66 577.28,208.65 578.03,208.63 578.78,208.61 579.53,208.60 580.28,208.58 581.03,208.56 581.78,208.55 582.53,208.53 583.28,208.51 584.04,208.50 584.79,208.48 585.54,208.47 586.29,208.45 587.04,208.43 587.79,208.42 588.54,209.50 589.29,209.48 590.04,209.46 590.79,209.44 591.54,209.42 592.29,209.40 593.04,209.38 593.79,209.36 594.55,209.34 595.30,209.32 596.05,209.30 596.80,209.28 597.55,209.26 598.30,209.24 599.05,209.23 599.80,209.21 600.55,210.36 601.30,210.33 602.05,210.31 602.80,210.29 603.55,210.26 604.30,210.24 605.06,210.22 605.81,210.19 606.56,210.17 607.31,210.15 608.06,210.13 608.81,210.10 609.56,210.08 610.31,210.06 611.06,210.04 611.81,210.01 612.56,211.24 613.31,211.21 614.06,211.18 614.82,211.16 615.57,211.13 616.32,211.10 617.07,211.08 617.82,211.05 618.57,211.02 619.32,211.00 620.07,210.97 620.82,210.94 621.57,210.92 622.32,210.89 623.07,210.87 623.82,210.84 624.57,212.15 625.33,212.12 626.08,212.09 626.83,212.06 627.58,212.02 628.33,211.99 629.08,211.96 629.83,211.93 630.58,211.90 631.33,211.87 632.08,211.84 632.83,211.81 633.58,211.78 634.33,211.75 635.09,211.72 635.84,211.69 636.59,213.10 637.34,213.06 638.09,213.03 638.84,212.99 639.59,212.95 640.34,212.92 641.09,212.88 641.84,212.85 642.59,212.82 643.34,212.78 644.09,212.75 644.84,212.71 645.60,212.68 646.35,212.65 647.10,212.61 647.85,212.58 648.60,214.09 649.35,214.05 650.10,214.01 650.85,213.97 651.60,213.93 652.35,213.89 653.10,213.85 653.85,213.81 654.60,213.77 655.35,213.73 656.11,213.69 656.86,213.65 657.61,213.61 658.36,213.58 659.11,213.54 659.86,213.50 660.61,215.13 661.36,215.09 662.11,215.04 662.86,215.00 663.61,214.95 664.36,214.91 665.11,214.86 665.87,214.82 666.62,214.77 667.37,214.73 668.12,214.68 668.87,214.64 669.62,214.60 670.37,214.55 671.12,214.51 671.87,214.47 672.62,216.25 673.37,216.19 674.12,216.14 674.87,216.09 675.62,216.04 676.38,215.99 677.13,215.94 677.88,215.88 678.63,215.83 679.38,215.78 680.13,215.73 680.88,215.68 681.63,215.64 682.38,215.59 683.13,215.54 683.88,215.49 684.63,217.44 685.38,217.38 686.13,217.32 686.89,217.26 687.64,217.20 688.39,217.14 689.14,217.08 689.89,217.03 690.64,216.97 691.39,216.91 692.14,216.86 692.89,216.80 693.64,216.74 694.39,216.69 695.14,216.63 695.89,216.58 696.65,218.73 697.40,218.66 698.15,218.59 698.90,218.52 699.65,218.46 700.40,218.39 701.15,218.32 701.90,218.26 702.65,218.19 703.40,218.13 704.15,218.06 704.90,218.00 705.65,217.94 706.40,217.87 707.16,217.81 707.91,217.75 708.66,220.15 709.41,220.07 710.16,219.99 710.91,219.91 711.66,219.83 712.41,219.76 713.16,219.68 713.91,219.60 714.66,219.53 715.41,219.45 716.16,219.38 716.91,219.31 717.67,219.23 718.42,219.16 719.17,219.09 719.92,219.02 720.67,221.73 721.42,221.63 722.17,221.54 722.92,221.45 723.67,221.36 724.42,221.27 725.17,221.18 725.92,221.10 726.67,221.01 727.43,220.92 728.18,220.84 728.93,220.75 729.68,220.67 730.43,220.58 731.18,220.50 731.93,220.42 732.68,223.52 733.43,223.41 734.18,223.31 734.93,223.20 735.68,223.09 736.43,222.99 737.18,222.88 737.94,222.78 738.69,222.68 739.44,222.57 740.19,222.47 740.94,222.37 741.69,222.28 742.44,222.18 743.19,222.08 743.94,221.99 744.69,225.62 745.44,225.49 746.19,225.36 746.94,225.23 747.70,225.10 748.45,224.97 749.20,224.84 749.95,224.72 750.70,224.60 751.45,224.48 752.20,224.36 752.95,224.24 753.70,224.12 754.45,224.00 755.20,223.89 755.95,223.77 756.70,228.16 757.45,227.99 758.21,227.82 758.96,227.66 759.71,227.50 760.46,227.34 761.21,227.18 761.96,227.03 762.71,226.88 763.46,226.73 764.21,226.58 764.96,226.43 765.71,226.29 766.46,226.15 767.21,226.01 767.96,225.87 768.72,231.39 769.47,231.16 770.22,230.94 770.97,230.72 771.72,230.51 772.47,230.30 773.22,230.10 773.97,229.90 774.72,229.70 775.47,229.51 776.22,229.32 776.97,229.13 777.72,228.95 778.48,228.77 779.23,228.59 779.98,228.41 780.73,235.88 781.48,235.54 782.23,235.22 782.98,234.90 783.73,234.59 784.48,234.29 785.23,234.00 785.98,233.72 786.73,233.44 787.48,233.17 788.23,232.91 788.99,232.65 789.74,232.40 790.49,232.15 791.24,231.91 791.99,231.67 792.74,243.38 793.49,242.74 794.24,242.13 794.99,241.55 795.74,241.00 796.49,240.48 797.24,239.98 797.99,239.50 798.74,239.04 799.50,238.60 800.25,238.17 801.00,237.76 801.75,237.37 802.50,236.98 803.25,236.61 804.00,244.00" />
  <text x="420.0" y="22" text-anchor="middle" font-family="Arial, Helvetica, sans-serif" font-size="15" fill="#102a43">lanczos window (magnitude spectrum)</text>
  <text x="420.0" y="272" text-anchor="middle" font-family="Arial, Helvetica, sans-serif" font-size="12" fill="#334e68">normalized frequency</text>
  <text x="14" y="140.0" transform="rotate(-90 14,140.0)" text-anchor="middle" font-family="Arial, Helvetica, sans-serif" font-size="12" fill="#334e68">magnitude (dB)</text>
  <text x="36" y="262" font-family="Arial, Helvetica, sans-serif" font-size="11" fill="#486581">0</text>
  <text x="804" y="262" text-anchor="end" font-family="Arial, Helvetica, sans-serif" font-size="11" fill="#486581">1</text>
  <text x="30" y="40" text-anchor="end" font-family="Arial, Helvetica, sans-serif" font-size="11" fill="#486581">0.0</text>
  <text x="30" y="248" text-anchor="end" font-family="Arial, Helvetica, sans-serif" font-size="11" fill="#486581">-160.0</text>
</svg>
