<svg xmlns="http://www.w3.org/2000/svg" width="840" height="280" viewBox="0 0 840 280">
  <rect x="0" y="0" width="840" height="280" fill="#ffffff" />
  <rect x="36" y="36" width="768" height="208" fill="#f7fbff" stroke="#c8d9e6" />
  <polyline fill="none" stroke="#005f73" stroke-width="2" points="36.00,244.00 36.75,243.59 37.50,243.18 38.25,242.77 39.00,242.36 39.75,241.95 40.50,241.53 41.26,241.12 42.01,240.70 42.76,240.28 43.51,239.86 44.26,239.43 45.01,239.01 45.76,238.58 46.51,238.16 47.26,237.73 48.01,237.30 48.76,236.87 49.51,236.43 50.26,236.00 51.01,235.56 51.77,235.12 52.52,234.68 53.27,234.24 54.02,233.80 54.77,233.36 55.52,232.91 56.27,232.47 57.02,232.02 57.77,231.57 58.52,231.12 59.27,230.67 60.02,230.22 60.77,229.76 61.52,229.30 62.28,228.85 63.03,228.39 63.78,227.93 64.53,227.47 65.28,227.00 66.03,226.54 66.78,226.07 67.53,225.61 68.28,225.14 69.03,224.67 69.78,224.20 70.53,223.73 71.28,223.26 72.04,222.78 72.79,222.31 73.54,221.83 74.29,221.35 75.04,220.87 75.79,220.39 76.54,219.91 77.29,219.43 78.04,218.94 78.79,218.46 79.54,217.97 80.29,217.48 81.04,216.99 81.79,216.50 82.55,216.01 83.30,215.52 84.05,215.03 84.80,214.53 85.55,214.04 86.30,213.54 87.05,213.04 87.80,212.55 88.55,212.05 89.30,211.54 90.05,211.04 90.80,210.54 91.55,210.04 92.30,209.53 93.06,209.02 93.81,208.52 94.56,208.01 95.31,207.50 96.06,206.99 96.81,206.48 97.56,205.97 98.31,205.45 99.06,204.94 99.81,204.43 100.56,203.91 101.31,203.39 102.06,202.88 102.82,202.36 103.57,201.84 104.32,201.32 105.07,200.80 105.82,200.27 106.57,199.75 107.32,199.23 108.07,198.70 108.82,198.18 109.57,197.65 110.32,197.13 111.07,196.60 111.82,196.07 112.57,195.54 113.33,195.01 114.08,194.48 114.83,193.95 115.58,193.42 116.33,192.88 117.08,192.35 117.83,191.81 118.58,191.28 119.33,190.74 120.08,190.21 120.83,189.67 121.58,189.13 122.33,188.59 123.09,188.06 123.84,187.52 124.59,186.98 125.34,186.44 126.09,185.89 126.84,185.35 127.59,184.81 128.34,184.27 129.09,183.72 129.84,183.18 130.59,182.63 131.34,182.09 132.09,181.54 132.84,181.00 133.60,180.45 134.35,179.90 135.10,179.36 135.85,178.81 136.60,178.26 137.35,177.71 138.10,177.16 138.85,176.61 139.60,176.06 140.35,175.51 141.10,174.96 141.85,174.41 142.60,173.86 143.35,173.31 144.11,172.75 144.86,172.20 145.61,171.65 146.36,171.10 147.11,170.54 147.86,169.99 148.61,169.43 149.36,168.88 150.11,168.33 150.86,167.77 151.61,167.22 152.36,166.66 153.11,166.11 153.87,165.55 154.62,165.00 155.37,164.44 156.12,163.88 156.87,163.33 157.62,162.77 158.37,162.21 159.12,161.66 159.87,161.10 160.62,160.54 161.37,159.99 162.12,159.43 162.87,158.87 163.62,158.32 164.38,157.76 165.13,157.20 165.88,156.65 166.63,156.09 167.38,155.53 168.13,154.98 168.88,154.42 169.63,153.86 170.38,153.31 171.13,152.75 171.88,152.19 172.63,151.64 173.38,151.08 174.13,150.52 174.89,149.97 175.64,149.41 176.39,148.85 177.14,148.30 177.89,147.74 178.64,147.19 179.39,146.63 180.14,146.08 180.89,145.52 181.64,144.97 182.39,144.41 183.14,143.86 183.89,143.31 184.65,142.75 185.40,142.20 186.15,141.65 186.90,141.09 187.65,140.54 188.40,139.99 189.15,139.44 189.90,138.89 190.65,138.34 191.40,137.79 192.15,137.24 192.90,136.69 193.65,136.14 194.40,135.59 195.16,135.04 195.91,134.49 196.66,133.95 197.41,133.40 198.16,132.85 198.91,132.31 199.66,131.76 200.41,131.22 201.16,130.67 201.91,130.13 202.66,129.58 203.41,129.04 204.16,128.50 204.91,127.96 205.67,127.42 206.42,126.88 207.17,126.34 207.92,125.80 208.67,125.26 209.42,124.72 210.17,124.18 210.92,123.65 211.67,123.11 212.42,122.58 213.17,122.04 213.92,121.51 214.67,120.97 215.43,120.44 216.18,119.91 216.93,119.38 217.68,118.85 218.43,118.32 219.18,117.79 219.93,117.26 220.68,116.74 221.43,116.21 222.18,115.69 222.93,115.16 223.68,114.64 224.43,114.12 225.18,113.60 225.94,113.07 226.69,112.56 227.44,112.04 228.19,111.52 228.94,111.00 229.69,110.49 230.44,109.97 231.19,109.46 231.94,108.94 232.69,108.43 233.44,107.92 234.19,107.41 234.94,106.90 235.70,106.39 236.45,105.89 237.20,105.38 237.95,104.88 238.70,104.37 239.45,103.87 240.20,103.37 240.95,102.87 241.70,102.37 242.45,101.87 243.20,101.37 243.95,100.88 244.70,100.38 245.45,99.89 246.21,99.40 246.96,98.91 247.71,98.42 248.46,97.93 249.21,97.44 249.96,96.96 250.71,96.47 251.46,95.99 252.21,95.51 252.96,95.03 253.71,94.55 254.46,94.07 255.21,93.59 255.96,93.12 256.72,92.64 257.47,92.17 258.22,91.70 258.97,91.23 259.72,90.76 260.47,90.29 261.22,89.82 261.97,89.36 262.72,88.90 263.47,88.43 264.22,87.97 264.97,87.52 265.72,87.06 266.48,86.60 267.23,86.15 267.98,85.70 268.73,85.24 269.48,84.79 270.23,84.35 270.98,83.90 271.73,83.45 272.48,83.01 273.23,82.57 273.98,82.13 274.73,81.69 275.48,81.25 276.23,80.82 276.99,80.38 277.74,79.95 278.49,79.52 279.24,79.09 279.99,78.66 280.74,78.24 281.49,77.81 282.24,77.39 282.99,76.97 283.74,76.55 284.49,76.13 285.24,75.72 285.99,75.30 286.74,74.89 287.50,74.48 288.25,74.07 289.00,73.66 289.75,73.26 290.50,72.85 291.25,72.45 292.00,72.05 292.75,71.65 293.50,71.26 294.25,70.86 295.00,70.47 295.75,70.08 296.50,69.69 297.26,69.30 298.01,68.92 298.76,68.53 299.51,68.15 300.26,67.77 301.01,67.40 301.76,67.02 302.51,66.65 303.26,66.27 304.01,65.90 304.76,65.54 305.51,65.17 306.26,64.81 307.01,64.44 307.77,64.08 308.52,63.73 309.27,63.37 310.02,63.02 310.77,62.66 311.52,62.31 312.27,61.96 313.02,61.62 313.77,61.27 314.52,60.93 315.27,60.59 316.02,60.25 316.77,59.92 317.52,59.58 318.28,59.25 319.03,58.92 319.78,58.60 320.53,58.27 321.28,57.95 322.03,57.63 322.78,57.31 323.53,56.99 324.28,56.68 325.03,56.36 325.78,56.05 326.53,55.74 327.28,55.44 328.04,55.13 328.79,54.83 329.54,54.53 330.29,54.23 331.04,53.94 331.79,53.65 332.54,53.36 333.29,53.07 334.04,52.78 334.79,52.50 335.54,52.22 336.29,51.94 337.04,51.66 337.79,51.38 338.55,51.11 339.30,50.84 340.05,50.57 340.80,50.31 341.55,50.04 342.30,49.78 343.05,49.52 343.80,49.26 344.55,49.01 345.30,48.76 346.05,48.51 346.80,48.26 347.55,48.02 348.30,47.77 349.06,47.53 349.81,47.29 350.56,47.06 351.31,46.82 352.06,46.59 352.81,46.37 353.56,46.14 354.31,45.91 355.06,45.69 355.81,45.47 356.56,45.26 357.31,45.04 358.06,44.83 358.82,44.62 359.57,44.41 360.32,44.21 361.07,44.01 361.82,43.81 362.57,43.61 363.32,43.42 364.07,43.22 364.82,43.03 365.57,42.85 366.32,42.66 367.07,42.48 367.82,42.30 368.57,42.12 369.33,41.95 370.08,41.77 370.83,41.60 371.58,41.43 372.33,41.27 373.08,41.11 373.83,40.95 374.58,40.79 375.33,40.63 376.08,40.48 376.83,40.33 377.58,40.18 378.33,40.04 379.09,39.89 379.84,39.75 380.59,39.62 381.34,39.48 382.09,39.35 382.84,39.22 383.59,39.09 384.34,38.97 385.09,38.84 385.84,38.72 386.59,38.61 387.34,38.49 388.09,38.38 388.84,38.27 389.60,38.16 390.35,38.06 391.10,37.96 391.85,37.86 392.60,37.76 393.35,37.67 394.10,37.57 394.85,37.48 395.60,37.40 396.35,37.31 397.10,37.23 397.85,37.15 398.60,37.08 399.35,37.00 400.11,36.93 400.86,36.87 401.61,36.80 402.36,36.74 403.11,36.68 403.86,36.62 404.61,36.56 405.36,36.51 406.11,36.46 406.86,36.41 407.61,36.37 408.36,36.32 409.11,36.28 409.87,36.25 410.62,36.21 411.37,36.18 412.12,36.15 412.87,36.12 413.62,36.10 414.37,36.08 415.12,36.06 415.87,36.04 416.62,36.03 417.37,36.02 418.12,36.01 418.87,36.00 419.62,36.00 420.38,36.00 421.13,36.00 421.88,36.01 422.63,36.01 423.38,36.02 424.13,36.04 424.88,36.05 425.63,36.07 426.38,36.09 427.13,36.11 427.88,36.14 428.63,36.17 429.38,36.20 430.13,36.23 430.89,36.27 431.64,36.30 432.39,36.34 433.14,36.39 433.89,36.43 434.64,36.48 435.39,36.54 436.14,36.59 436.89,36.65 437.64,36.71 438.39,36.77 439.14,36.83 439.89,36.90 440.65,36.97 441.40,37.04 442.15,37.12 442.90,37.19 443.65,37.27 444.40,37.36 445.15,37.44 445.90,37.53 446.65,37.62 447.40,37.71 448.15,37.81 448.90,37.91 449.65,38.01 450.40,38.11 451.16,38.22 451.91,38.32 452.66,38.44 453.41,38.55 454.16,38.66 454.91,38.78 455.66,38.90 456.41,39.03 457.16,39.15 457.91,39.28 458.66,39.41 459.41,39.55 460.16,39.68 460.91,39.82 461.67,39.97 462.42,40.11 463.17,40.26 463.92,40.40 464.67,40.56 465.42,40.71 466.17,40.87 466.92,41.03 467.67,41.19 468.42,41.35 469.17,41.52 469.92,41.69 470.67,41.86 471.43,42.03 472.18,42.21 472.93,42.39 473.68,42.57 474.43,42.75 475.18,42.94 475.93,43.13 476.68,43.32 477.43,43.51 478.18,43.71 478.93,43.91 479.68,44.11 480.43,44.31 481.18,44.52 481.94,44.73 482.69,44.94 483.44,45.15 484.19,45.37 484.94,45.58 485.69,45.80 486.44,46.03 487.19,46.25 487.94,46.48 488.69,46.71 489.44,46.94 490.19,47.18 490.94,47.41 491.70,47.65 492.45,47.89 493.20,48.14 493.95,48.38 494.70,48.63 495.45,48.88 496.20,49.14 496.95,49.39 497.70,49.65 498.45,49.91 499.20,50.17 499.95,50.44 500.70,50.71 501.45,50.97 502.21,51.25 502.96,51.52 503.71,51.80 504.46,52.08 505.21,52.36 505.96,52.64 506.71,52.92 507.46,53.21 508.21,53.50 508.96,53.79 509.71,54.09 510.46,54.38 511.21,54.68 511.96,54.98 512.72,55.29 513.47,55.59 514.22,55.90 514.97,56.21 515.72,56.52 516.47,56.83 517.22,57.15 517.97,57.47 518.72,57.79 519.47,58.11 520.22,58.43 520.97,58.76 521.72,59.09 522.48,59.42 523.23,59.75 523.98,60.09 524.73,60.42 525.48,60.76 526.23,61.10 526.98,61.45 527.73,61.79 528.48,62.14 529.23,62.49 529.98,62.84 530.73,63.19 531.48,63.55 532.23,63.90 532.99,64.26 533.74,64.63 534.49,64.99 535.24,65.35 535.99,65.72 536.74,66.09 537.49,66.46 538.24,66.83 538.99,67.21 539.74,67.58 540.49,67.96 541.24,68.34 541.99,68.73 542.74,69.11 543.50,69.50 544.25,69.88 545.00,70.27 545.75,70.67 546.50,71.06 547.25,71.46 548.00,71.85 548.75,72.25 549.50,72.65 550.25,73.06 551.00,73.46 551.75,73.87 552.50,74.27 553.26,74.68 554.01,75.09 554.76,75.51 555.51,75.92 556.26,76.34 557.01,76.76 557.76,77.18 558.51,77.60 559.26,78.02 560.01,78.45 560.76,78.87 561.51,79.30 562.26,79.73 563.01,80.17 563.77,80.60 564.52,81.03 565.27,81.47 566.02,81.91 566.77,82.35 567.52,82.79 568.27,83.23 569.02,83.68 569.77,84.12 570.52,84.57 571.27,85.02 572.02,85.47 572.77,85.92 573.52,86.38 574.28,86.83 575.03,87.29 575.78,87.75 576.53,88.20 577.28,88.67 578.03,89.13 578.78,89.59 579.53,90.06 580.28,90.52 581.03,90.99 581.78,91.46 582.53,91.93 583.28,92.40 584.04,92.88 584.79,93.35 585.54,93.83 586.29,94.31 587.04,94.79 587.79,95.27 588.54,95.75 589.29,96.23 590.04,96.71 590.79,97.20 591.54,97.69 592.29,98.17 593.04,98.66 593.79,99.15 594.55,99.64 595.30,100.14 596.05,100.63 596.80,101.13 597.55,101.62 598.30,102.12 599.05,102.62 599.80,103.12 600.55,103.62 601.30,104.12 602.05,104.62 602.80,105.13 603.55,105.63 604.30,106.14 605.06,106.65 605.81,107.16 606.56,107.67 607.31,108.18 608.06,108.69 608.81,109.20 609.56,109.71 610.31,110.23 611.06,110.74 611.81,111.26 612.56,111.78 613.31,112.30 614.06,112.81 614.82,113.33 615.57,113.86 616.32,114.38 617.07,114.90 617.82,115.42 618.57,115.95 619.32,116.47 620.07,117.00 620.82,117.53 621.57,118.06 622.32,118.58 623.07,119.11 623.82,119.64 624.57,120.18 625.33,120.71 626.08,121.24 626.83,121.77 627.58,122.31 628.33,122.84 629.08,123.38 629.83,123.91 630.58,124.45 631.33,124.99 632.08,125.53 632.83,126.07 633.58,126.61 634.33,127.15 635.09,127.69 635.84,128.23 636.59,128.77 637.34,129.31 638.09,129.86 638.84,130.40 639.59,130.94 640.34,131.49 641.09,132.03 641.84,132.58 642.59,133.12 643.34,133.67 644.09,134.22 644.84,134.77 645.60,135.31 646.35,135.86 647.10,136.41 647.85,136.96 648.60,137.51 649.35,138.06 650.10,138.61 650.85,139.16 651.60,139.71 652.35,140.27 653.10,140.82 653.85,141.37 654.60,141.92 655.35,142.48 656.11,143.03 656.86,143.58 657.61,144.14 658.36,144.69 659.11,145.25 659.86,145.80 660.61,146.36 661.36,146.91 662.11,147.47 662.86,148.02 663.61,148.58 664.36,149.13 665.11,149.69 665.87,150.24 666.62,150.80 667.37,151.36 668.12,151.91 668.87,152.47 669.62,153.03 670.37,153.58 671.12,154.14 671.87,154.70 672.62,155.25 673.37,155.81 674.12,156.37 674.87,156.93 675.62,157.48 676.38,158.04 677.13,158.60 677.88,159.15 678.63,159.71 679.38,160.27 680.13,160.82 680.88,161.38 681.63,161.94 682.38,162.49 683.13,163.05 683.88,163.61 684.63,164.16 685.38,164.72 686.13,165.27 686.89,165.83 687.64,166.38 688.39,166.94 689.14,167.49 689.89,168.05 690.64,168.60 691.39,169.16 692.14,169.71 692.89,170.27 693.64,170.82 694.39,171.37 695.14,171.93 695.89,172.48 696.65,173.03 697.40,173.58 698.15,174.13 698.90,174.69 699.65,175.24 700.40,175.79 701.15,176.34 701.90,176.89 702.65,177.44 703.40,177.99 704.15,178.53 704.90,179.08 705.65,179.63 706.40,180.18 707.16,180.72 707.91,181.27 708.66,181.82 709.41,182.36 710.16,182.91 710.91,183.45 711.66,184.00 712.41,184.54 713.16,185.08 713.91,185.62 714.66,186.17 715.41,186.71 716.16,187.25 716.91,187.79 717.67,188.33 718.42,188.86 719.17,189.40 719.92,189.94 720.67,190.48 721.42,191.01 722.17,191.55 722.92,192.08 723.67,192.62 724.42,193.15 725.17,193.68 725.92,194.21 726.67,194.74 727.43,195.28 728.18,195.80 728.93,196.33 729.68,196.86 730.43,197.39 731.18,197.92 731.93,198.44 732.68,198.97 733.43,199.49 734.18,200.01 734.93,200.54 735.68,201.06 736.43,201.58 737.18,202.10 737.94,202.62 738.69,203.13 739.44,203.65 740.19,204.17 740.94,204.68 741.69,205.20 742.44,205.71 743.19,206.22 743.94,206.73 744.69,207.25 745.44,207.75 746.19,208.26 746.94,208.77 747.70,209.28 748.45,209.78 749.20,210.29 749.95,210.79 750.70,211.29 751.45,211.79 752.20,212.30 752.95,212.79 753.70,213.29 754.45,213.79 755.20,214.29 755.95,214.78 756.70,215.27 757.45,215.77 758.21,216.26 758.96,216.75 759.71,217.24 760.46,217.73 761.21,218.21 761.96,218.70 762.71,219.18 763.46,219.67 764.21,220.15 764.96,220.63 765.71,221.11 766.46,221.59 767.21,222.07 767.96,222.54 768.72,223.02 769.47,223.49 770.22,223.96 770.97,224.44 771.72,224.91 772.47,225.37 773.22,225.84 773.97,226.31 774.72,226.77 775.47,227.24 776.22,227.70 776.97,228.16 777.72,228.62 778.48,229.08 779.23,229.53 779.98,229.99 780.73,230.44 781.48,230.89 782.23,231.35 782.98,231.80 783.73,232.24 784.48,232.69 785.23,233.14 785.98,233.58 786.73,234.02 787.48,234.46 788.23,234.90 788.99,235.34 789.74,235.78 790.49,236.22 791.24,236.65 791.99,237.08 792.74,237.51 793.49,237.94 794.24,238.37 794.99,238.80 795.74,239.22 796.49,239.65 797.24,240.07 797.99,240.49 798.74,240.91 799.50,241.32 800.25,241.74 801.00,242.15 801.75,242.57 802.50,242.98 803.25,243.39 804.00,244.00" />
  <text x="420.0" y="22" text-anchor="middle" font-family="Arial, Helvetica, sans-serif" font-size="15" fill="#102a43">lanczos window (time domain)</text>
  <text x="420.0" y="272" text-anchor="middle" font-family="Arial, Helvetica, sans-serif" font-size="12" fill="#334e68">normalized sample index</text>
  <text x="14" y="140.0" transform="rotate(-90 14,140.0)" text-anchor="middle" font-family="Arial, Helvetica, sans-serif" font-size="12" fill="#334e68">amplitude</text>
  <text x="36" y="262" font-family="Arial, Helvetica, sans-serif" font-size="11" fill="#486581">0</text>
  <text x="804" y="262" text-anchor="end" font-family="Arial, Helvetica, sans-serif" font-size="11" fill="#486581">1</text>
  <text x="30" y="40" text-anchor="end" font-family="Arial, Helvetica, sans-serif" font-size="11" fill="#486581">1.0</text>
  <text x="30" y="248" text-anchor="end" font-family="Arial, Helvetica, sans-serif" font-size="11" fill="#486581">0.0</text>
</svg>
