<svg xmlns="http://www.w3.org/2000/svg" width="840" height="280" viewBox="0 0 840 280">
  <rect x="0" y="0" width="840" height="280" fill="#ffffff" />
  <rect x="36" y="36" width="768" height="208" fill="#f7fbff" stroke="#c8d9e6" />
  <polyline fill="none" stroke="#005f73" stroke-width="2" points="36.00,244.00 36.75,244.00 37.50,244.00 38.25,244.00 39.00,244.00 39.75,244.00 40.50,244.00 41.26,244.00 42.01,243.99 42.76,243.99 43.51,243.99 44.26,243.99 45.01,243.99 45.76,243.98 46.51,243.98 47.26,243.98 48.01,243.98 48.76,243.97 49.51,243.97 50.26,243.96 51.01,243.96 51.77,243.96 52.52,243.95 53.27,243.95 54.02,243.94 54.77,243.94 55.52,243.93 56.27,243.93 57.02,243.92 57.77,243.91 58.52,243.91 59.27,243.90 60.02,243.89 60.77,243.89 61.52,243.88 62.28,243.87 63.03,243.86 63.78,243.85 64.53,243.84 65.28,243.83 66.03,243.82 66.78,243.81 67.53,243.80 68.28,243.79 69.03,243.78 69.78,243.77 70.53,243.76 71.28,243.74 72.04,243.73 72.79,243.72 73.54,243.70 74.29,243.69 75.04,243.67 75.79,243.66 76.54,243.64 77.29,243.63 78.04,243.61 78.79,243.59 79.54,243.57 80.29,243.55 81.04,243.53 81.79,243.51 82.55,243.49 83.30,243.47 84.05,243.45 84.80,243.43 85.55,243.40 86.30,243.38 87.05,243.36 87.80,243.33 88.55,243.30 89.30,243.28 90.05,243.25 90.80,243.22 91.55,243.19 92.30,243.16 93.06,243.13 93.81,243.10 94.56,243.06 95.31,243.03 96.06,243.00 96.81,242.96 97.56,242.92 98.31,242.89 99.06,242.85 99.81,242.81 100.56,242.77 101.31,242.73 102.06,242.68 102.82,242.64 103.57,242.59 104.32,242.55 105.07,242.50 105.82,242.45 106.57,242.40 107.32,242.35 108.07,242.30 108.82,242.25 109.57,242.19 110.32,242.13 111.07,242.08 111.82,242.02 112.57,241.96 113.33,241.90 114.08,241.83 114.83,241.77 115.58,241.70 116.33,241.64 117.08,241.57 117.83,241.50 118.58,241.42 119.33,241.35 120.08,241.27 120.83,241.20 121.58,241.12 122.33,241.04 123.09,240.96 123.84,240.87 124.59,240.79 125.34,240.70 126.09,240.61 126.84,240.52 127.59,240.42 128.34,240.33 129.09,240.23 129.84,240.13 130.59,240.03 131.34,239.93 132.09,239.83 132.84,239.72 133.60,239.61 134.35,239.50 135.10,239.38 135.85,239.27 136.60,239.15 137.35,239.03 138.10,238.91 138.85,238.78 139.60,238.66 140.35,238.53 141.10,238.40 141.85,238.26 142.60,238.13 143.35,237.99 144.11,237.84 144.86,237.70 145.61,237.55 146.36,237.40 147.11,237.25 147.86,237.10 148.61,236.94 149.36,236.78 150.11,236.62 150.86,236.45 151.61,236.29 152.36,236.12 153.11,235.94 153.87,235.76 154.62,235.59 155.37,235.40 156.12,235.22 156.87,235.03 157.62,234.84 158.37,234.64 159.12,234.45 159.87,234.25 160.62,234.04 161.37,233.84 162.12,233.63 162.87,233.41 163.62,233.20 164.38,232.98 165.13,232.75 165.88,232.53 166.63,232.30 167.38,232.06 168.13,231.83 168.88,231.59 169.63,231.34 170.38,231.10 171.13,230.85 171.88,230.59 172.63,230.34 173.38,230.07 174.13,229.81 174.89,229.54 175.64,229.27 176.39,228.99 177.14,228.71 177.89,228.43 178.64,228.14 179.39,227.85 180.14,227.56 180.89,227.26 181.64,226.96 182.39,226.65 183.14,226.34 183.89,226.03 184.65,225.71 185.40,225.39 186.15,225.06 186.90,224.73 187.65,224.40 188.40,224.06 189.15,223.72 189.90,223.37 190.65,223.02 191.40,222.67 192.15,222.31 192.90,221.95 193.65,221.58 194.40,221.21 195.16,220.83 195.91,220.45 196.66,220.07 197.41,219.68 198.16,219.29 198.91,218.89 199.66,218.49 200.41,218.09 201.16,217.68 201.91,217.26 202.66,216.84 203.41,216.42 204.16,215.99 204.91,215.56 205.67,215.12 206.42,214.68 207.17,214.24 207.92,213.79 208.67,213.33 209.42,212.87 210.17,212.41 210.92,211.94 211.67,211.47 212.42,210.99 213.17,210.51 213.92,210.03 214.67,209.54 215.43,209.04 216.18,208.54 216.93,208.04 217.68,207.53 218.43,207.02 219.18,206.50 219.93,205.97 220.68,205.45 221.43,204.92 222.18,204.38 222.93,203.84 223.68,203.29 224.43,202.75 225.18,202.19 225.94,201.63 226.69,201.07 227.44,200.50 228.19,199.93 228.94,199.35 229.69,198.77 230.44,198.18 231.19,197.59 231.94,197.00 232.69,196.40 233.44,195.80 234.19,195.19 234.94,194.57 235.70,193.96 236.45,193.34 237.20,192.71 237.95,192.08 238.70,191.45 239.45,190.81 240.20,190.16 240.95,189.51 241.70,188.86 242.45,188.21 243.20,187.55 243.95,186.88 244.70,186.21 245.45,185.54 246.21,184.86 246.96,184.18 247.71,183.49 248.46,182.80 249.21,182.11 249.96,181.41 250.71,180.71 251.46,180.01 252.21,179.30 252.96,178.58 253.71,177.86 254.46,177.14 255.21,176.42 255.96,175.69 256.72,174.96 257.47,174.22 258.22,173.48 258.97,172.73 259.72,171.99 260.47,171.24 261.22,170.48 261.97,169.72 262.72,168.96 263.47,168.20 264.22,167.43 264.97,166.66 265.72,165.88 266.48,165.10 267.23,164.32 267.98,163.54 268.73,162.75 269.48,161.96 270.23,161.16 270.98,160.37 271.73,159.57 272.48,158.77 273.23,157.96 273.98,157.15 274.73,156.34 275.48,155.53 276.23,154.71 276.99,153.89 277.74,153.07 278.49,152.25 279.24,151.42 279.99,150.59 280.74,149.76 281.49,148.93 282.24,148.10 282.99,147.26 283.74,146.42 284.49,145.58 285.24,144.74 285.99,143.89 286.74,143.05 287.50,142.20 288.25,141.35 289.00,140.50 289.75,139.64 290.50,138.79 291.25,137.93 292.00,137.08 292.75,136.22 293.50,135.36 294.25,134.50 295.00,133.64 295.75,132.77 296.50,131.91 297.26,131.04 298.01,130.18 298.76,129.31 299.51,128.45 300.26,127.58 301.01,126.71 301.76,125.84 302.51,124.98 303.26,124.11 304.01,123.24 304.76,122.37 305.51,121.50 306.26,120.63 307.01,119.77 307.77,118.90 308.52,118.03 309.27,117.16 310.02,116.29 310.77,115.43 311.52,114.56 312.27,113.70 313.02,112.83 313.77,111.97 314.52,111.10 315.27,110.24 316.02,109.38 316.77,108.52 317.52,107.66 318.28,106.81 319.03,105.95 319.78,105.10 320.53,104.25 321.28,103.40 322.03,102.55 322.78,101.70 323.53,100.85 324.28,100.01 325.03,99.17 325.78,98.33 326.53,97.49 327.28,96.66 328.04,95.83 328.79,95.00 329.54,94.17 330.29,93.35 331.04,92.53 331.79,91.71 332.54,90.89 333.29,90.08 334.04,89.27 334.79,88.46 335.54,87.66 336.29,86.86 337.04,86.06 337.79,85.27 338.55,84.48 339.30,83.70 340.05,82.92 340.80,82.14 341.55,81.36 342.30,80.59 343.05,79.83 343.80,79.07 344.55,78.31 345.30,77.56 346.05,76.81 346.80,76.06 347.55,75.32 348.30,74.59 349.06,73.86 349.81,73.13 350.56,72.41 351.31,71.70 352.06,70.99 352.81,70.28 353.56,69.58 354.31,68.89 355.06,68.20 355.81,67.52 356.56,66.84 357.31,66.16 358.06,65.50 358.82,64.84 359.57,64.18 360.32,63.53 361.07,62.89 361.82,62.25 362.57,61.62 363.32,60.99 364.07,60.38 364.82,59.76 365.57,59.16 366.32,58.56 367.07,57.97 367.82,57.38 368.57,56.80 369.33,56.23 370.08,55.66 370.83,55.10 371.58,54.55 372.33,54.00 373.08,53.47 373.83,52.93 374.58,52.41 375.33,51.89 376.08,51.38 376.83,50.88 377.58,50.39 378.33,49.90 379.09,49.42 379.84,48.95 380.59,48.49 381.34,48.03 382.09,47.58 382.84,47.14 383.59,46.71 384.34,46.28 385.09,45.87 385.84,45.46 386.59,45.06 387.34,44.67 388.09,44.28 388.84,43.90 389.60,43.54 390.35,43.18 391.10,42.83 391.85,42.48 392.60,42.15 393.35,41.82 394.10,41.51 394.85,41.20 395.60,40.90 396.35,40.61 397.10,40.32 397.85,40.05 398.60,39.78 399.35,39.53 400.11,39.28 400.86,39.04 401.61,38.81 402.36,38.59 403.11,38.38 403.86,38.17 404.61,37.98 405.36,37.79 406.11,37.62 406.86,37.45 407.61,37.29 408.36,37.14 409.11,37.00 409.87,36.87 410.62,36.75 411.37,36.64 412.12,36.53 412.87,36.44 413.62,36.35 414.37,36.28 415.12,36.21 415.87,36.15 416.62,36.10 417.37,36.06 418.12,36.03 418.87,36.01 419.62,36.00 420.38,36.00 421.13,36.01 421.88,36.02 422.63,36.05 423.38,36.08 424.13,36.13 424.88,36.18 425.63,36.24 426.38,36.31 427.13,36.39 427.88,36.48 428.63,36.58 429.38,36.69 430.13,36.81 430.89,36.94 431.64,37.07 432.39,37.22 433.14,37.37 433.89,37.53 434.64,37.70 435.39,37.89 436.14,38.07 436.89,38.27 437.64,38.48 438.39,38.70 439.14,38.92 439.89,39.16 440.65,39.40 441.40,39.65 442.15,39.92 442.90,40.18 443.65,40.46 444.40,40.75 445.15,41.05 445.90,41.35 446.65,41.66 447.40,41.99 448.15,42.32 448.90,42.65 449.65,43.00 450.40,43.36 451.16,43.72 451.91,44.09 452.66,44.47 453.41,44.86 454.16,45.26 454.91,45.66 455.66,46.07 456.41,46.50 457.16,46.92 457.91,47.36 458.66,47.81 459.41,48.26 460.16,48.72 460.91,49.19 461.67,49.66 462.42,50.14 463.17,50.64 463.92,51.13 464.67,51.64 465.42,52.15 466.17,52.67 466.92,53.20 467.67,53.73 468.42,54.28 469.17,54.82 469.92,55.38 470.67,55.94 471.43,56.51 472.18,57.09 472.93,57.67 473.68,58.26 474.43,58.86 475.18,59.46 475.93,60.07 476.68,60.68 477.43,61.31 478.18,61.93 478.93,62.57 479.68,63.21 480.43,63.86 481.18,64.51 481.94,65.17 482.69,65.83 483.44,66.50 484.19,67.18 484.94,67.86 485.69,68.54 486.44,69.24 487.19,69.93 487.94,70.63 488.69,71.34 489.44,72.06 490.19,72.77 490.94,73.50 491.70,74.22 492.45,74.96 493.20,75.69 493.95,76.43 494.70,77.18 495.45,77.93 496.20,78.69 496.95,79.45 497.70,80.21 498.45,80.98 499.20,81.75 499.95,82.53 500.70,83.31 501.45,84.09 502.21,84.88 502.96,85.67 503.71,86.46 504.46,87.26 505.21,88.06 505.96,88.87 506.71,89.67 507.46,90.49 508.21,91.30 508.96,92.12 509.71,92.94 510.46,93.76 511.21,94.58 511.96,95.41 512.72,96.24 513.47,97.08 514.22,97.91 514.97,98.75 515.72,99.59 516.47,100.43 517.22,101.28 517.97,102.12 518.72,102.97 519.47,103.82 520.22,104.67 520.97,105.53 521.72,106.38 522.48,107.24 523.23,108.09 523.98,108.95 524.73,109.81 525.48,110.67 526.23,111.54 526.98,112.40 527.73,113.26 528.48,114.13 529.23,114.99 529.98,115.86 530.73,116.73 531.48,117.59 532.23,118.46 532.99,119.33 533.74,120.20 534.49,121.07 535.24,121.94 535.99,122.81 536.74,123.67 537.49,124.54 538.24,125.41 538.99,126.28 539.74,127.15 540.49,128.01 541.24,128.88 541.99,129.75 542.74,130.61 543.50,131.48 544.25,132.34 545.00,133.20 545.75,134.07 546.50,134.93 547.25,135.79 548.00,136.65 548.75,137.50 549.50,138.36 550.25,139.22 551.00,140.07 551.75,140.92 552.50,141.77 553.26,142.62 554.01,143.47 554.76,144.31 555.51,145.16 556.26,146.00 557.01,146.84 557.76,147.68 558.51,148.51 559.26,149.35 560.01,150.18 560.76,151.01 561.51,151.84 562.26,152.66 563.01,153.48 563.77,154.30 564.52,155.12 565.27,155.94 566.02,156.75 566.77,157.56 567.52,158.36 568.27,159.17 569.02,159.97 569.77,160.77 570.52,161.56 571.27,162.35 572.02,163.14 572.77,163.93 573.52,164.71 574.28,165.49 575.03,166.27 575.78,167.04 576.53,167.81 577.28,168.58 578.03,169.34 578.78,170.10 579.53,170.86 580.28,171.61 581.03,172.36 581.78,173.11 582.53,173.85 583.28,174.59 584.04,175.32 584.79,176.05 585.54,176.78 586.29,177.50 587.04,178.22 587.79,178.94 588.54,179.65 589.29,180.36 590.04,181.06 590.79,181.76 591.54,182.46 592.29,183.15 593.04,183.84 593.79,184.52 594.55,185.20 595.30,185.88 596.05,186.55 596.80,187.21 597.55,187.88 598.30,188.54 599.05,189.19 599.80,189.84 600.55,190.48 601.30,191.13 602.05,191.76 602.80,192.40 603.55,193.02 604.30,193.65 605.06,194.27 605.81,194.88 606.56,195.49 607.31,196.10 608.06,196.70 608.81,197.30 609.56,197.89 610.31,198.48 611.06,199.06 611.81,199.64 612.56,200.22 613.31,200.79 614.06,201.35 614.82,201.91 615.57,202.47 616.32,203.02 617.07,203.57 617.82,204.11 618.57,204.65 619.32,205.18 620.07,205.71 620.82,206.24 621.57,206.76 622.32,207.27 623.07,207.78 623.82,208.29 624.57,208.79 625.33,209.29 626.08,209.78 626.83,210.27 627.58,210.75 628.33,211.23 629.08,211.71 629.83,212.18 630.58,212.64 631.33,213.10 632.08,213.56 632.83,214.01 633.58,214.46 634.33,214.90 635.09,215.34 635.84,215.78 636.59,216.21 637.34,216.63 638.09,217.05 638.84,217.47 639.59,217.88 640.34,218.29 641.09,218.69 641.84,219.09 642.59,219.49 643.34,219.88 644.09,220.26 644.84,220.64 645.60,221.02 646.35,221.40 647.10,221.76 647.85,222.13 648.60,222.49 649.35,222.85 650.10,223.20 650.85,223.55 651.60,223.89 652.35,224.23 653.10,224.57 653.85,224.90 654.60,225.23 655.35,225.55 656.11,225.87 656.86,226.19 657.61,226.50 658.36,226.81 659.11,227.11 659.86,227.41 660.61,227.71 661.36,228.00 662.11,228.29 662.86,228.57 663.61,228.85 664.36,229.13 665.11,229.41 665.87,229.68 666.62,229.94 667.37,230.21 668.12,230.46 668.87,230.72 669.62,230.97 670.37,231.22 671.12,231.47 671.87,231.71 672.62,231.95 673.37,232.18 674.12,232.41 674.87,232.64 675.62,232.86 676.38,233.09 677.13,233.30 677.88,233.52 678.63,233.73 679.38,233.94 680.13,234.14 680.88,234.35 681.63,234.55 682.38,234.74 683.13,234.93 683.88,235.12 684.63,235.31 685.38,235.49 686.13,235.68 686.89,235.85 687.64,236.03 688.39,236.20 689.14,236.37 689.89,236.54 690.64,236.70 691.39,236.86 692.14,237.02 692.89,237.18 693.64,237.33 694.39,237.48 695.14,237.63 695.89,237.77 696.65,237.92 697.40,238.06 698.15,238.19 698.90,238.33 699.65,238.46 700.40,238.59 701.15,238.72 701.90,238.85 702.65,238.97 703.40,239.09 704.15,239.21 704.90,239.33 705.65,239.44 706.40,239.55 707.16,239.66 707.91,239.77 708.66,239.88 709.41,239.98 710.16,240.08 710.91,240.18 711.66,240.28 712.41,240.38 713.16,240.47 713.91,240.56 714.66,240.65 715.41,240.74 716.16,240.83 716.91,240.91 717.67,241.00 718.42,241.08 719.17,241.16 719.92,241.24 720.67,241.31 721.42,241.39 722.17,241.46 722.92,241.53 723.67,241.60 724.42,241.67 725.17,241.74 725.92,241.80 726.67,241.86 727.43,241.93 728.18,241.99 728.93,242.05 729.68,242.11 730.43,242.16 731.18,242.22 731.93,242.27 732.68,242.33 733.43,242.38 734.18,242.43 734.93,242.48 735.68,242.52 736.43,242.57 737.18,242.62 737.94,242.66 738.69,242.70 739.44,242.75 740.19,242.79 740.94,242.83 741.69,242.87 742.44,242.91 743.19,242.94 743.94,242.98 744.69,243.01 745.44,243.05 746.19,243.08 746.94,243.11 747.70,243.15 748.45,243.18 749.20,243.21 749.95,243.24 750.70,243.26 751.45,243.29 752.20,243.32 752.95,243.34 753.70,243.37 754.45,243.39 755.20,243.42 755.95,243.44 756.70,243.46 757.45,243.48 758.21,243.50 758.96,243.52 759.71,243.54 760.46,243.56 761.21,243.58 761.96,243.60 762.71,243.62 763.46,243.63 764.21,243.65 764.96,243.67 765.71,243.68 766.46,243.70 767.21,243.71 767.96,243.73 768.72,243.74 769.47,243.75 770.22,243.76 770.97,243.78 771.72,243.79 772.47,243.80 773.22,243.81 773.97,243.82 774.72,243.83 775.47,243.84 776.22,243.85 776.97,243.86 777.72,243.87 778.48,243.87 779.23,243.88 779.98,243.89 780.73,243.90 781.48,243.90 782.23,243.91 782.98,243.92 783.73,243.92 784.48,243.93 785.23,243.93 785.98,243.94 786.73,243.95 787.48,243.95 788.23,243.95 788.99,243.96 789.74,243.96 790.49,243.97 791.24,243.97 791.99,243.97 792.74,243.98 793.49,243.98 794.24,243.98 794.99,243.99 795.74,243.99 796.49,243.99 797.24,243.99 797.99,243.99 798.74,243.99 799.50,244.00 800.25,244.00 801.00,244.00 801.75,244.00 802.50,244.00 803.25,244.00 804.00,244.00" />
  <text x="420.0" y="22" text-anchor="middle" font-family="Arial, Helvetica, sans-serif" font-size="15" fill="#102a43">nuttall window (time domain)</text>
  <text x="420.0" y="272" text-anchor="middle" font-family="Arial, Helvetica, sans-serif" font-size="12" fill="#334e68">normalized sample index</text>
  <text x="14" y="140.0" transform="rotate(-90 14,140.0)" text-anchor="middle" font-family="Arial, Helvetica, sans-serif" font-size="12" fill="#334e68">amplitude</text>
  <text x="36" y="262" font-family="Arial, Helvetica, sans-serif" font-size="11" fill="#486581">0</text>
  <text x="804" y="262" text-anchor="end" font-family="Arial, Helvetica, sans-serif" font-size="11" fill="#486581">1</text>
  <text x="30" y="40" text-anchor="end" font-family="Arial, Helvetica, sans-serif" font-size="11" fill="#486581">1.0</text>
  <text x="30" y="248" text-anchor="end" font-family="Arial, Helvetica, sans-serif" font-size="11" fill="#486581">0.0</text>
</svg>
