<svg xmlns="http://www.w3.org/2000/svg" width="840" height="280" viewBox="0 0 840 280">
  <rect x="0" y="0" width="840" height="280" fill="#ffffff" />
  <rect x="36" y="36" width="768" height="208" fill="#f7fbff" stroke="#c8d9e6" />
  <polyline fill="none" stroke="#005f73" stroke-width="2" points="36.00,244.00 36.75,244.00 37.50,244.00 38.25,244.00 39.00,244.00 39.75,244.00 40.50,244.00 41.26,244.00 42.01,244.00 42.76,244.00 43.51,244.00 44.26,244.00 45.01,243.99 45.76,243.99 46.51,243.99 47.26,243.99 48.01,243.99 48.76,243.98 49.51,243.98 50.26,243.98 51.01,243.98 51.77,243.97 52.52,243.97 53.27,243.96 54.02,243.96 54.77,243.95 55.52,243.95 56.27,243.94 57.02,243.93 57.77,243.92 58.52,243.92 59.27,243.91 60.02,243.90 60.77,243.89 61.52,243.88 62.28,243.87 63.03,243.86 63.78,243.84 64.53,243.83 65.28,243.82 66.03,243.80 66.78,243.79 67.53,243.77 68.28,243.75 69.03,243.74 69.78,243.72 70.53,243.70 71.28,243.68 72.04,243.66 72.79,243.63 73.54,243.61 74.29,243.59 75.04,243.56 75.79,243.54 76.54,243.51 77.29,243.48 78.04,243.45 78.79,243.43 79.54,243.39 80.29,243.36 81.04,243.33 81.79,243.30 82.55,243.26 83.30,243.22 84.05,243.19 84.80,243.15 85.55,243.11 86.30,243.07 87.05,243.02 87.80,242.98 88.55,242.94 89.30,242.89 90.05,242.84 90.80,242.79 91.55,242.74 92.30,242.69 93.06,242.64 93.81,242.58 94.56,242.53 95.31,242.47 96.06,242.41 96.81,242.35 97.56,242.29 98.31,242.23 99.06,242.16 99.81,242.09 100.56,242.03 101.31,241.96 102.06,241.88 102.82,241.81 103.57,241.74 104.32,241.66 105.07,241.58 105.82,241.50 106.57,241.42 107.32,241.34 108.07,241.25 108.82,241.17 109.57,241.08 110.32,240.99 111.07,240.90 111.82,240.80 112.57,240.71 113.33,240.61 114.08,240.51 114.83,240.41 115.58,240.30 116.33,240.20 117.08,240.09 117.83,239.98 118.58,239.87 119.33,239.75 120.08,239.64 120.83,239.52 121.58,239.40 122.33,239.28 123.09,239.16 123.84,239.03 124.59,238.90 125.34,238.77 126.09,238.64 126.84,238.50 127.59,238.36 128.34,238.22 129.09,238.08 129.84,237.94 130.59,237.79 131.34,237.64 132.09,237.49 132.84,237.34 133.60,237.18 134.35,237.02 135.10,236.86 135.85,236.70 136.60,236.53 137.35,236.36 138.10,236.19 138.85,236.02 139.60,235.84 140.35,235.66 141.10,235.48 141.85,235.30 142.60,235.11 143.35,234.92 144.11,234.73 144.86,234.54 145.61,234.34 146.36,234.14 147.11,233.94 147.86,233.73 148.61,233.52 149.36,233.31 150.11,233.10 150.86,232.88 151.61,232.66 152.36,232.44 153.11,232.22 153.87,231.99 154.62,231.76 155.37,231.52 156.12,231.29 156.87,231.05 157.62,230.80 158.37,230.56 159.12,230.31 159.87,230.06 160.62,229.80 161.37,229.54 162.12,229.28 162.87,229.02 163.62,228.75 164.38,228.48 165.13,228.21 165.88,227.93 166.63,227.65 167.38,227.36 168.13,227.08 168.88,226.79 169.63,226.49 170.38,226.20 171.13,225.90 171.88,225.59 172.63,225.29 173.38,224.98 174.13,224.66 174.89,224.35 175.64,224.03 176.39,223.70 177.14,223.38 177.89,223.04 178.64,222.71 179.39,222.37 180.14,222.03 180.89,221.69 181.64,221.34 182.39,220.98 183.14,220.63 183.89,220.27 184.65,219.91 185.40,219.54 186.15,219.17 186.90,218.79 187.65,218.42 188.40,218.03 189.15,217.65 189.90,217.26 190.65,216.87 191.40,216.47 192.15,216.07 192.90,215.66 193.65,215.25 194.40,214.84 195.16,214.42 195.91,214.00 196.66,213.58 197.41,213.15 198.16,212.72 198.91,212.28 199.66,211.84 200.41,211.40 201.16,210.95 201.91,210.50 202.66,210.04 203.41,209.58 204.16,209.11 204.91,208.64 205.67,208.17 206.42,207.69 207.17,207.21 207.92,206.72 208.67,206.23 209.42,205.74 210.17,205.24 210.92,204.74 211.67,204.23 212.42,203.72 213.17,203.20 213.92,202.68 214.67,202.15 215.43,201.62 216.18,201.09 216.93,200.55 217.68,200.01 218.43,199.46 219.18,198.91 219.93,198.35 220.68,197.79 221.43,197.23 222.18,196.65 222.93,196.08 223.68,195.50 224.43,194.92 225.18,194.33 225.94,193.73 226.69,193.13 227.44,192.53 228.19,191.92 228.94,191.31 229.69,190.69 230.44,190.07 231.19,189.45 231.94,188.81 232.69,188.18 233.44,187.54 234.19,186.89 234.94,186.25 235.70,185.59 236.45,184.94 237.20,184.27 237.95,183.61 238.70,182.94 239.45,182.27 240.20,181.59 240.95,180.91 241.70,180.22 242.45,179.53 243.20,178.84 243.95,178.15 244.70,177.45 245.45,176.74 246.21,176.04 246.96,175.33 247.71,174.61 248.46,173.90 249.21,173.18 249.96,172.45 250.71,171.73 251.46,171.00 252.21,170.26 252.96,169.53 253.71,168.79 254.46,168.05 255.21,167.31 255.96,166.56 256.72,165.81 257.47,165.06 258.22,164.30 258.97,163.55 259.72,162.79 260.47,162.02 261.22,161.26 261.97,160.49 262.72,159.72 263.47,158.95 264.22,158.18 264.97,157.40 265.72,156.63 266.48,155.85 267.23,155.07 267.98,154.28 268.73,153.50 269.48,152.71 270.23,151.92 270.98,151.13 271.73,150.34 272.48,149.55 273.23,148.75 273.98,147.96 274.73,147.16 275.48,146.36 276.23,145.56 276.99,144.76 277.74,143.96 278.49,143.16 279.24,142.35 279.99,141.55 280.74,140.74 281.49,139.93 282.24,139.13 282.99,138.32 283.74,137.51 284.49,136.70 285.24,135.89 285.99,135.08 286.74,134.27 287.50,133.46 288.25,132.64 289.00,131.83 289.75,131.02 290.50,130.21 291.25,129.39 292.00,128.58 292.75,127.77 293.50,126.95 294.25,126.14 295.00,125.33 295.75,124.52 296.50,123.70 297.26,122.89 298.01,122.08 298.76,121.27 299.51,120.46 300.26,119.65 301.01,118.84 301.76,118.03 302.51,117.22 303.26,116.42 304.01,115.61 304.76,114.81 305.51,114.00 306.26,113.20 307.01,112.39 307.77,111.59 308.52,110.79 309.27,109.99 310.02,109.20 310.77,108.40 311.52,107.61 312.27,106.81 313.02,106.02 313.77,105.23 314.52,104.44 315.27,103.65 316.02,102.87 316.77,102.08 317.52,101.30 318.28,100.52 319.03,99.74 319.78,98.97 320.53,98.19 321.28,97.42 322.03,96.65 322.78,95.89 323.53,95.12 324.28,94.36 325.03,93.60 325.78,92.84 326.53,92.08 327.28,91.33 328.04,90.58 328.79,89.83 329.54,89.09 330.29,88.35 331.04,87.61 331.79,86.87 332.54,86.14 333.29,85.41 334.04,84.68 334.79,83.95 335.54,83.23 336.29,82.52 337.04,81.80 337.79,81.09 338.55,80.38 339.30,79.68 340.05,78.98 340.80,78.28 341.55,77.59 342.30,76.90 343.05,76.21 343.80,75.53 344.55,74.85 345.30,74.17 346.05,73.50 346.80,72.84 347.55,72.17 348.30,71.52 349.06,70.86 349.81,70.21 350.56,69.56 351.31,68.92 352.06,68.29 352.81,67.65 353.56,67.03 354.31,66.40 355.06,65.78 355.81,65.17 356.56,64.56 357.31,63.95 358.06,63.35 358.82,62.76 359.57,62.17 360.32,61.59 361.07,61.01 361.82,60.43 362.57,59.86 363.32,59.30 364.07,58.74 364.82,58.18 365.57,57.64 366.32,57.09 367.07,56.56 367.82,56.02 368.57,55.50 369.33,54.98 370.08,54.46 370.83,53.95 371.58,53.45 372.33,52.95 373.08,52.46 373.83,51.98 374.58,51.50 375.33,51.03 376.08,50.56 376.83,50.10 377.58,49.65 378.33,49.20 379.09,48.76 379.84,48.32 380.59,47.89 381.34,47.47 382.09,47.06 382.84,46.65 383.59,46.25 384.34,45.85 385.09,45.46 385.84,45.08 386.59,44.71 387.34,44.34 388.09,43.98 388.84,43.63 389.60,43.28 390.35,42.94 391.10,42.61 391.85,42.29 392.60,41.97 393.35,41.67 394.10,41.36 394.85,41.07 395.60,40.78 396.35,40.51 397.10,40.24 397.85,39.97 398.60,39.72 399.35,39.47 400.11,39.23 400.86,39.00 401.61,38.78 402.36,38.56 403.11,38.36 403.86,38.16 404.61,37.97 405.36,37.79 406.11,37.61 406.86,37.45 407.61,37.29 408.36,37.15 409.11,37.01 409.87,36.88 410.62,36.76 411.37,36.64 412.12,36.54 412.87,36.44 413.62,36.36 414.37,36.28 415.12,36.21 415.87,36.16 416.62,36.11 417.37,36.07 418.12,36.04 418.87,36.01 419.62,36.00 420.38,36.00 421.13,36.01 421.88,36.02 422.63,36.05 423.38,36.09 424.13,36.13 424.88,36.18 425.63,36.25 426.38,36.32 427.13,36.40 427.88,36.49 428.63,36.59 429.38,36.70 430.13,36.81 430.89,36.94 431.64,37.08 432.39,37.22 433.14,37.37 433.89,37.53 434.64,37.70 435.39,37.88 436.14,38.06 436.89,38.26 437.64,38.46 438.39,38.67 439.14,38.89 439.89,39.12 440.65,39.35 441.40,39.59 442.15,39.84 442.90,40.10 443.65,40.37 444.40,40.64 445.15,40.93 445.90,41.22 446.65,41.51 447.40,41.82 448.15,42.13 448.90,42.45 449.65,42.78 450.40,43.11 451.16,43.46 451.91,43.80 452.66,44.16 453.41,44.52 454.16,44.89 454.91,45.27 455.66,45.66 456.41,46.05 457.16,46.45 457.91,46.85 458.66,47.26 459.41,47.68 460.16,48.11 460.91,48.54 461.67,48.98 462.42,49.42 463.17,49.87 463.92,50.33 464.67,50.79 465.42,51.26 466.17,51.74 466.92,52.22 467.67,52.71 468.42,53.20 469.17,53.70 469.92,54.21 470.67,54.72 471.43,55.24 472.18,55.76 472.93,56.29 473.68,56.82 474.43,57.36 475.18,57.91 475.93,58.46 476.68,59.02 477.43,59.58 478.18,60.15 478.93,60.72 479.68,61.29 480.43,61.88 481.18,62.46 481.94,63.06 482.69,63.65 483.44,64.26 484.19,64.86 484.94,65.48 485.69,66.09 486.44,66.71 487.19,67.34 487.94,67.97 488.69,68.60 489.44,69.24 490.19,69.89 490.94,70.54 491.70,71.19 492.45,71.84 493.20,72.50 493.95,73.17 494.70,73.84 495.45,74.51 496.20,75.19 496.95,75.87 497.70,76.55 498.45,77.24 499.20,77.93 499.95,78.63 500.70,79.33 501.45,80.03 502.21,80.74 502.96,81.44 503.71,82.16 504.46,82.87 505.21,83.59 505.96,84.32 506.71,85.04 507.46,85.77 508.21,86.50 508.96,87.24 509.71,87.98 510.46,88.72 511.21,89.46 511.96,90.21 512.72,90.95 513.47,91.71 514.22,92.46 514.97,93.22 515.72,93.98 516.47,94.74 517.22,95.50 517.97,96.27 518.72,97.04 519.47,97.81 520.22,98.58 520.97,99.36 521.72,100.13 522.48,100.91 523.23,101.69 523.98,102.48 524.73,103.26 525.48,104.05 526.23,104.83 526.98,105.62 527.73,106.42 528.48,107.21 529.23,108.00 529.98,108.80 530.73,109.60 531.48,110.39 532.23,111.19 532.99,111.99 533.74,112.80 534.49,113.60 535.24,114.40 535.99,115.21 536.74,116.01 537.49,116.82 538.24,117.63 538.99,118.44 539.74,119.25 540.49,120.05 541.24,120.86 541.99,121.68 542.74,122.49 543.50,123.30 544.25,124.11 545.00,124.92 545.75,125.74 546.50,126.55 547.25,127.36 548.00,128.17 548.75,128.99 549.50,129.80 550.25,130.61 551.00,131.42 551.75,132.24 552.50,133.05 553.26,133.86 554.01,134.67 554.76,135.48 555.51,136.29 556.26,137.10 557.01,137.91 557.76,138.72 558.51,139.53 559.26,140.34 560.01,141.14 560.76,141.95 561.51,142.75 562.26,143.56 563.01,144.36 563.77,145.16 564.52,145.96 565.27,146.76 566.02,147.56 566.77,148.36 567.52,149.15 568.27,149.95 569.02,150.74 569.77,151.53 570.52,152.32 571.27,153.10 572.02,153.89 572.77,154.67 573.52,155.46 574.28,156.24 575.03,157.02 575.78,157.79 576.53,158.57 577.28,159.34 578.03,160.11 578.78,160.88 579.53,161.64 580.28,162.40 581.03,163.17 581.78,163.92 582.53,164.68 583.28,165.43 584.04,166.18 584.79,166.93 585.54,167.68 586.29,168.42 587.04,169.16 587.79,169.90 588.54,170.63 589.29,171.36 590.04,172.09 590.79,172.81 591.54,173.54 592.29,174.25 593.04,174.97 593.79,175.68 594.55,176.39 595.30,177.09 596.05,177.80 596.80,178.49 597.55,179.19 598.30,179.88 599.05,180.57 599.80,181.25 600.55,181.93 601.30,182.60 602.05,183.27 602.80,183.94 603.55,184.61 604.30,185.26 605.06,185.92 605.81,186.57 606.56,187.22 607.31,187.86 608.06,188.50 608.81,189.13 609.56,189.76 610.31,190.38 611.06,191.00 611.81,191.62 612.56,192.23 613.31,192.83 614.06,193.43 614.82,194.03 615.57,194.62 616.32,195.21 617.07,195.79 617.82,196.37 618.57,196.94 619.32,197.51 620.07,198.07 620.82,198.63 621.57,199.19 622.32,199.74 623.07,200.28 623.82,200.82 624.57,201.36 625.33,201.89 626.08,202.42 626.83,202.94 627.58,203.46 628.33,203.97 629.08,204.48 629.83,204.99 630.58,205.49 631.33,205.99 632.08,206.48 632.83,206.97 633.58,207.45 634.33,207.93 635.09,208.41 635.84,208.88 636.59,209.35 637.34,209.81 638.09,210.27 638.84,210.72 639.59,211.17 640.34,211.62 641.09,212.06 641.84,212.50 642.59,212.94 643.34,213.37 644.09,213.79 644.84,214.22 645.60,214.63 646.35,215.05 647.10,215.46 647.85,215.87 648.60,216.27 649.35,216.67 650.10,217.06 650.85,217.45 651.60,217.84 652.35,218.23 653.10,218.61 653.85,218.98 654.60,219.35 655.35,219.72 656.11,220.09 656.86,220.45 657.61,220.81 658.36,221.16 659.11,221.51 659.86,221.86 660.61,222.20 661.36,222.54 662.11,222.88 662.86,223.21 663.61,223.54 664.36,223.86 665.11,224.19 665.87,224.51 666.62,224.82 667.37,225.13 668.12,225.44 668.87,225.75 669.62,226.05 670.37,226.35 671.12,226.64 671.87,226.93 672.62,227.22 673.37,227.51 674.12,227.79 674.87,228.07 675.62,228.34 676.38,228.62 677.13,228.88 677.88,229.15 678.63,229.41 679.38,229.67 680.13,229.93 680.88,230.18 681.63,230.43 682.38,230.68 683.13,230.93 683.88,231.17 684.63,231.40 685.38,231.64 686.13,231.87 686.89,232.10 687.64,232.33 688.39,232.55 689.14,232.77 689.89,232.99 690.64,233.21 691.39,233.42 692.14,233.63 692.89,233.84 693.64,234.04 694.39,234.24 695.14,234.44 695.89,234.63 696.65,234.83 697.40,235.02 698.15,235.21 698.90,235.39 699.65,235.57 700.40,235.75 701.15,235.93 701.90,236.11 702.65,236.28 703.40,236.45 704.15,236.61 704.90,236.78 705.65,236.94 706.40,237.10 707.16,237.26 707.91,237.41 708.66,237.57 709.41,237.72 710.16,237.86 710.91,238.01 711.66,238.15 712.41,238.29 713.16,238.43 713.91,238.57 714.66,238.70 715.41,238.83 716.16,238.96 716.91,239.09 717.67,239.22 718.42,239.34 719.17,239.46 719.92,239.58 720.67,239.70 721.42,239.81 722.17,239.92 722.92,240.04 723.67,240.14 724.42,240.25 725.17,240.36 725.92,240.46 726.67,240.56 727.43,240.66 728.18,240.75 728.93,240.85 729.68,240.94 730.43,241.03 731.18,241.12 731.93,241.21 732.68,241.30 733.43,241.38 734.18,241.46 734.93,241.54 735.68,241.62 736.43,241.70 737.18,241.77 737.94,241.85 738.69,241.92 739.44,241.99 740.19,242.06 740.94,242.13 741.69,242.19 742.44,242.26 743.19,242.32 743.94,242.38 744.69,242.44 745.44,242.50 746.19,242.56 746.94,242.61 747.70,242.66 748.45,242.72 749.20,242.77 749.95,242.82 750.70,242.87 751.45,242.91 752.20,242.96 752.95,243.00 753.70,243.05 754.45,243.09 755.20,243.13 755.95,243.17 756.70,243.21 757.45,243.24 758.21,243.28 758.96,243.31 759.71,243.35 760.46,243.38 761.21,243.41 761.96,243.44 762.71,243.47 763.46,243.50 764.21,243.52 764.96,243.55 765.71,243.58 766.46,243.60 767.21,243.62 767.96,243.65 768.72,243.67 769.47,243.69 770.22,243.71 770.97,243.73 771.72,243.74 772.47,243.76 773.22,243.78 773.97,243.79 774.72,243.81 775.47,243.82 776.22,243.84 776.97,243.85 777.72,243.86 778.48,243.87 779.23,243.88 779.98,243.89 780.73,243.90 781.48,243.91 782.23,243.92 782.98,243.93 783.73,243.94 784.48,243.94 785.23,243.95 785.98,243.95 786.73,243.96 787.48,243.96 788.23,243.97 788.99,243.97 789.74,243.98 790.49,243.98 791.24,243.98 791.99,243.99 792.74,243.99 793.49,243.99 794.24,243.99 794.99,243.99 795.74,244.00 796.49,244.00 797.24,244.00 797.99,244.00 798.74,244.00 799.50,244.00 800.25,244.00 801.00,244.00 801.75,244.00 802.50,244.00 803.25,244.00 804.00,244.00" />
  <text x="420.0" y="22" text-anchor="middle" font-family="Arial, Helvetica, sans-serif" font-size="15" fill="#102a43">parzen window (time domain)</text>
  <text x="420.0" y="272" text-anchor="middle" font-family="Arial, Helvetica, sans-serif" font-size="12" fill="#334e68">normalized sample index</text>
  <text x="14" y="140.0" transform="rotate(-90 14,140.0)" text-anchor="middle" font-family="Arial, Helvetica, sans-serif" font-size="12" fill="#334e68">amplitude</text>
  <text x="36" y="262" font-family="Arial, Helvetica, sans-serif" font-size="11" fill="#486581">0</text>
  <text x="804" y="262" text-anchor="end" font-family="Arial, Helvetica, sans-serif" font-size="11" fill="#486581">1</text>
  <text x="30" y="40" text-anchor="end" font-family="Arial, Helvetica, sans-serif" font-size="11" fill="#486581">1.0</text>
  <text x="30" y="248" text-anchor="end" font-family="Arial, Helvetica, sans-serif" font-size="11" fill="#486581">0.0</text>
</svg>
