<svg xmlns="http://www.w3.org/2000/svg" width="840" height="280" viewBox="0 0 840 280">
  <rect x="0" y="0" width="840" height="280" fill="#ffffff" />
  <rect x="36" y="36" width="768" height="208" fill="#f7fbff" stroke="#c8d9e6" />
  <polyline fill="none" stroke="#005f73" stroke-width="2" points="36.00,244.00 36.75,243.36 37.50,242.72 38.25,242.08 39.00,241.45 39.75,240.81 40.50,240.17 41.26,239.53 42.01,238.89 42.76,238.25 43.51,237.62 44.26,236.98 45.01,236.34 45.76,235.70 46.51,235.06 47.26,234.43 48.01,233.79 48.76,233.15 49.51,232.51 50.26,231.88 51.01,231.24 51.77,230.60 52.52,229.96 53.27,229.33 54.02,228.69 54.77,228.05 55.52,227.42 56.27,226.78 57.02,226.15 57.77,225.51 58.52,224.87 59.27,224.24 60.02,223.60 60.77,222.97 61.52,222.33 62.28,221.70 63.03,221.06 63.78,220.43 64.53,219.79 65.28,219.16 66.03,218.53 66.78,217.89 67.53,217.26 68.28,216.63 69.03,215.99 69.78,215.36 70.53,214.73 71.28,214.10 72.04,213.47 72.79,212.83 73.54,212.20 74.29,211.57 75.04,210.94 75.79,210.31 76.54,209.68 77.29,209.05 78.04,208.42 78.79,207.79 79.54,207.17 80.29,206.54 81.04,205.91 81.79,205.28 82.55,204.65 83.30,204.03 84.05,203.40 84.80,202.78 85.55,202.15 86.30,201.52 87.05,200.90 87.80,200.28 88.55,199.65 89.30,199.03 90.05,198.41 90.80,197.78 91.55,197.16 92.30,196.54 93.06,195.92 93.81,195.30 94.56,194.68 95.31,194.06 96.06,193.44 96.81,192.82 97.56,192.20 98.31,191.58 99.06,190.96 99.81,190.35 100.56,189.73 101.31,189.11 102.06,188.50 102.82,187.88 103.57,187.27 104.32,186.65 105.07,186.04 105.82,185.43 106.57,184.82 107.32,184.20 108.07,183.59 108.82,182.98 109.57,182.37 110.32,181.76 111.07,181.15 111.82,180.54 112.57,179.94 113.33,179.33 114.08,178.72 114.83,178.12 115.58,177.51 116.33,176.91 117.08,176.30 117.83,175.70 118.58,175.10 119.33,174.50 120.08,173.89 120.83,173.29 121.58,172.69 122.33,172.09 123.09,171.50 123.84,170.90 124.59,170.30 125.34,169.70 126.09,169.11 126.84,168.51 127.59,167.92 128.34,167.32 129.09,166.73 129.84,166.14 130.59,165.55 131.34,164.96 132.09,164.36 132.84,163.78 133.60,163.19 134.35,162.60 135.10,162.01 135.85,161.43 136.60,160.84 137.35,160.26 138.10,159.67 138.85,159.09 139.60,158.51 140.35,157.92 141.10,157.34 141.85,156.76 142.60,156.18 143.35,155.61 144.11,155.03 144.86,154.45 145.61,153.88 146.36,153.30 147.11,152.73 147.86,152.15 148.61,151.58 149.36,151.01 150.11,150.44 150.86,149.87 151.61,149.30 152.36,148.73 153.11,148.16 153.87,147.60 154.62,147.03 155.37,146.47 156.12,145.91 156.87,145.34 157.62,144.78 158.37,144.22 159.12,143.66 159.87,143.10 160.62,142.54 161.37,141.99 162.12,141.43 162.87,140.88 163.62,140.32 164.38,139.77 165.13,139.22 165.88,138.67 166.63,138.12 167.38,137.57 168.13,137.02 168.88,136.47 169.63,135.93 170.38,135.38 171.13,134.84 171.88,134.29 172.63,133.75 173.38,133.21 174.13,132.67 174.89,132.13 175.64,131.60 176.39,131.06 177.14,130.52 177.89,129.99 178.64,129.46 179.39,128.92 180.14,128.39 180.89,127.86 181.64,127.33 182.39,126.80 183.14,126.28 183.89,125.75 184.65,125.23 185.40,124.70 186.15,124.18 186.90,123.66 187.65,123.14 188.40,122.62 189.15,122.10 189.90,121.59 190.65,121.07 191.40,120.56 192.15,120.04 192.90,119.53 193.65,119.02 194.40,118.51 195.16,118.00 195.91,117.49 196.66,116.99 197.41,116.48 198.16,115.98 198.91,115.48 199.66,114.97 200.41,114.47 201.16,113.98 201.91,113.48 202.66,112.98 203.41,112.49 204.16,111.99 204.91,111.50 205.67,111.01 206.42,110.52 207.17,110.03 207.92,109.54 208.67,109.05 209.42,108.57 210.17,108.09 210.92,107.60 211.67,107.12 212.42,106.64 213.17,106.16 213.92,105.68 214.67,105.21 215.43,104.73 216.18,104.26 216.93,103.79 217.68,103.32 218.43,102.85 219.18,102.38 219.93,101.91 220.68,101.45 221.43,100.98 222.18,100.52 222.93,100.06 223.68,99.60 224.43,99.14 225.18,98.68 225.94,98.23 226.69,97.77 227.44,97.32 228.19,96.87 228.94,96.41 229.69,95.97 230.44,95.52 231.19,95.07 231.94,94.63 232.69,94.18 233.44,93.74 234.19,93.30 234.94,92.86 235.70,92.42 236.45,91.99 237.20,91.55 237.95,91.12 238.70,90.69 239.45,90.25 240.20,89.83 240.95,89.40 241.70,88.97 242.45,88.55 243.20,88.12 243.95,87.70 244.70,87.28 245.45,86.86 246.21,86.44 246.96,86.03 247.71,85.61 248.46,85.20 249.21,84.79 249.96,84.38 250.71,83.97 251.46,83.56 252.21,83.16 252.96,82.75 253.71,82.35 254.46,81.95 255.21,81.55 255.96,81.15 256.72,80.76 257.47,80.36 258.22,79.97 258.97,79.58 259.72,79.19 260.47,78.80 261.22,78.41 261.97,78.02 262.72,77.64 263.47,77.26 264.22,76.88 264.97,76.50 265.72,76.12 266.48,75.74 267.23,75.37 267.98,75.00 268.73,74.62 269.48,74.25 270.23,73.89 270.98,73.52 271.73,73.15 272.48,72.79 273.23,72.43 273.98,72.07 274.73,71.71 275.48,71.35 276.23,71.00 276.99,70.65 277.74,70.29 278.49,69.94 279.24,69.59 279.99,69.25 280.74,68.90 281.49,68.56 282.24,68.22 282.99,67.88 283.74,67.54 284.49,67.20 285.24,66.86 285.99,66.53 286.74,66.20 287.50,65.87 288.25,65.54 289.00,65.21 289.75,64.89 290.50,64.56 291.25,64.24 292.00,63.92 292.75,63.60 293.50,63.28 294.25,62.97 295.00,62.66 295.75,62.34 296.50,62.03 297.26,61.73 298.01,61.42 298.76,61.11 299.51,60.81 300.26,60.51 301.01,60.21 301.76,59.91 302.51,59.61 303.26,59.32 304.01,59.03 304.76,58.74 305.51,58.45 306.26,58.16 307.01,57.87 307.77,57.59 308.52,57.31 309.27,57.03 310.02,56.75 310.77,56.47 311.52,56.19 312.27,55.92 313.02,55.65 313.77,55.38 314.52,55.11 315.27,54.84 316.02,54.58 316.77,54.32 317.52,54.06 318.28,53.80 319.03,53.54 319.78,53.28 320.53,53.03 321.28,52.78 322.03,52.53 322.78,52.28 323.53,52.03 324.28,51.79 325.03,51.54 325.78,51.30 326.53,51.06 327.28,50.83 328.04,50.59 328.79,50.36 329.54,50.12 330.29,49.89 331.04,49.67 331.79,49.44 332.54,49.21 333.29,48.99 334.04,48.77 334.79,48.55 335.54,48.33 336.29,48.12 337.04,47.90 337.79,47.69 338.55,47.48 339.30,47.27 340.05,47.07 340.80,46.86 341.55,46.66 342.30,46.46 343.05,46.26 343.80,46.06 344.55,45.87 345.30,45.67 346.05,45.48 346.80,45.29 347.55,45.10 348.30,44.92 349.06,44.73 349.81,44.55 350.56,44.37 351.31,44.19 352.06,44.02 352.81,43.84 353.56,43.67 354.31,43.50 355.06,43.33 355.81,43.16 356.56,43.00 357.31,42.83 358.06,42.67 358.82,42.51 359.57,42.36 360.32,42.20 361.07,42.05 361.82,41.90 362.57,41.75 363.32,41.60 364.07,41.45 364.82,41.31 365.57,41.16 366.32,41.02 367.07,40.89 367.82,40.75 368.57,40.61 369.33,40.48 370.08,40.35 370.83,40.22 371.58,40.09 372.33,39.97 373.08,39.85 373.83,39.73 374.58,39.61 375.33,39.49 376.08,39.37 376.83,39.26 377.58,39.15 378.33,39.04 379.09,38.93 379.84,38.82 380.59,38.72 381.34,38.62 382.09,38.52 382.84,38.42 383.59,38.32 384.34,38.23 385.09,38.14 385.84,38.05 386.59,37.96 387.34,37.87 388.09,37.79 388.84,37.71 389.60,37.62 390.35,37.55 391.10,37.47 391.85,37.39 392.60,37.32 393.35,37.25 394.10,37.18 394.85,37.12 395.60,37.05 396.35,36.99 397.10,36.93 397.85,36.87 398.60,36.81 399.35,36.75 400.11,36.70 400.86,36.65 401.61,36.60 402.36,36.55 403.11,36.51 403.86,36.46 404.61,36.42 405.36,36.38 406.11,36.34 406.86,36.31 407.61,36.27 408.36,36.24 409.11,36.21 409.87,36.19 410.62,36.16 411.37,36.14 412.12,36.11 412.87,36.09 413.62,36.08 414.37,36.06 415.12,36.04 415.87,36.03 416.62,36.02 417.37,36.01 418.12,36.01 418.87,36.00 419.62,36.00 420.38,36.00 421.13,36.00 421.88,36.00 422.63,36.01 423.38,36.02 424.13,36.03 424.88,36.04 425.63,36.05 426.38,36.07 427.13,36.08 427.88,36.10 428.63,36.12 429.38,36.15 430.13,36.17 430.89,36.20 431.64,36.23 432.39,36.26 433.14,36.29 433.89,36.33 434.64,36.36 435.39,36.40 436.14,36.44 436.89,36.48 437.64,36.53 438.39,36.58 439.14,36.62 439.89,36.67 440.65,36.73 441.40,36.78 442.15,36.84 442.90,36.90 443.65,36.96 444.40,37.02 445.15,37.08 445.90,37.15 446.65,37.22 447.40,37.29 448.15,37.36 448.90,37.43 449.65,37.51 450.40,37.59 451.16,37.67 451.91,37.75 452.66,37.83 453.41,37.92 454.16,38.00 454.91,38.09 455.66,38.18 456.41,38.28 457.16,38.37 457.91,38.47 458.66,38.57 459.41,38.67 460.16,38.77 460.91,38.88 461.67,38.98 462.42,39.09 463.17,39.20 463.92,39.32 464.67,39.43 465.42,39.55 466.17,39.67 466.92,39.79 467.67,39.91 468.42,40.03 469.17,40.16 469.92,40.29 470.67,40.42 471.43,40.55 472.18,40.68 472.93,40.82 473.68,40.95 474.43,41.09 475.18,41.24 475.93,41.38 476.68,41.52 477.43,41.67 478.18,41.82 478.93,41.97 479.68,42.12 480.43,42.28 481.18,42.44 481.94,42.59 482.69,42.75 483.44,42.92 484.19,43.08 484.94,43.25 485.69,43.41 486.44,43.58 487.19,43.76 487.94,43.93 488.69,44.11 489.44,44.28 490.19,44.46 490.94,44.64 491.70,44.83 492.45,45.01 493.20,45.20 493.95,45.39 494.70,45.58 495.45,45.77 496.20,45.96 496.95,46.16 497.70,46.36 498.45,46.56 499.20,46.76 499.95,46.96 500.70,47.17 501.45,47.38 502.21,47.59 502.96,47.80 503.71,48.01 504.46,48.22 505.21,48.44 505.96,48.66 506.71,48.88 507.46,49.10 508.21,49.33 508.96,49.55 509.71,49.78 510.46,50.01 511.21,50.24 511.96,50.47 512.72,50.71 513.47,50.94 514.22,51.18 514.97,51.42 515.72,51.67 516.47,51.91 517.22,52.16 517.97,52.40 518.72,52.65 519.47,52.90 520.22,53.16 520.97,53.41 521.72,53.67 522.48,53.93 523.23,54.19 523.98,54.45 524.73,54.71 525.48,54.98 526.23,55.25 526.98,55.51 527.73,55.79 528.48,56.06 529.23,56.33 529.98,56.61 530.73,56.89 531.48,57.17 532.23,57.45 532.99,57.73 533.74,58.02 534.49,58.30 535.24,58.59 535.99,58.88 536.74,59.17 537.49,59.47 538.24,59.76 538.99,60.06 539.74,60.36 540.49,60.66 541.24,60.96 541.99,61.27 542.74,61.57 543.50,61.88 544.25,62.19 545.00,62.50 545.75,62.81 546.50,63.13 547.25,63.44 548.00,63.76 548.75,64.08 549.50,64.40 550.25,64.72 551.00,65.05 551.75,65.37 552.50,65.70 553.26,66.03 554.01,66.36 554.76,66.70 555.51,67.03 556.26,67.37 557.01,67.71 557.76,68.05 558.51,68.39 559.26,68.73 560.01,69.07 560.76,69.42 561.51,69.77 562.26,70.12 563.01,70.47 563.77,70.82 564.52,71.18 565.27,71.53 566.02,71.89 566.77,72.25 567.52,72.61 568.27,72.97 569.02,73.34 569.77,73.70 570.52,74.07 571.27,74.44 572.02,74.81 572.77,75.18 573.52,75.56 574.28,75.93 575.03,76.31 575.78,76.69 576.53,77.07 577.28,77.45 578.03,77.83 578.78,78.22 579.53,78.60 580.28,78.99 581.03,79.38 581.78,79.77 582.53,80.16 583.28,80.56 584.04,80.95 584.79,81.35 585.54,81.75 586.29,82.15 587.04,82.55 587.79,82.95 588.54,83.36 589.29,83.77 590.04,84.17 590.79,84.58 591.54,84.99 592.29,85.41 593.04,85.82 593.79,86.24 594.55,86.65 595.30,87.07 596.05,87.49 596.80,87.91 597.55,88.33 598.30,88.76 599.05,89.18 599.80,89.61 600.55,90.04 601.30,90.47 602.05,90.90 602.80,91.33 603.55,91.77 604.30,92.20 605.06,92.64 605.81,93.08 606.56,93.52 607.31,93.96 608.06,94.40 608.81,94.85 609.56,95.29 610.31,95.74 611.06,96.19 611.81,96.64 612.56,97.09 613.31,97.54 614.06,98.00 614.82,98.45 615.57,98.91 616.32,99.37 617.07,99.83 617.82,100.29 618.57,100.75 619.32,101.21 620.07,101.68 620.82,102.15 621.57,102.61 622.32,103.08 623.07,103.55 623.82,104.02 624.57,104.50 625.33,104.97 626.08,105.45 626.83,105.92 627.58,106.40 628.33,106.88 629.08,107.36 629.83,107.84 630.58,108.33 631.33,108.81 632.08,109.30 632.83,109.78 633.58,110.27 634.33,110.76 635.09,111.25 635.84,111.75 636.59,112.24 637.34,112.73 638.09,113.23 638.84,113.73 639.59,114.23 640.34,114.72 641.09,115.23 641.84,115.73 642.59,116.23 643.34,116.73 644.09,117.24 644.84,117.75 645.60,118.26 646.35,118.76 647.10,119.27 647.85,119.79 648.60,120.30 649.35,120.81 650.10,121.33 650.85,121.84 651.60,122.36 652.35,122.88 653.10,123.40 653.85,123.92 654.60,124.44 655.35,124.97 656.11,125.49 656.86,126.01 657.61,126.54 658.36,127.07 659.11,127.60 659.86,128.13 660.61,128.66 661.36,129.19 662.11,129.72 662.86,130.26 663.61,130.79 664.36,131.33 665.11,131.86 665.87,132.40 666.62,132.94 667.37,133.48 668.12,134.02 668.87,134.57 669.62,135.11 670.37,135.65 671.12,136.20 671.87,136.75 672.62,137.29 673.37,137.84 674.12,138.39 674.87,138.94 675.62,139.49 676.38,140.05 677.13,140.60 677.88,141.15 678.63,141.71 679.38,142.27 680.13,142.82 680.88,143.38 681.63,143.94 682.38,144.50 683.13,145.06 683.88,145.62 684.63,146.19 685.38,146.75 686.13,147.32 686.89,147.88 687.64,148.45 688.39,149.02 689.14,149.58 689.89,150.15 690.64,150.72 691.39,151.29 692.14,151.87 692.89,152.44 693.64,153.01 694.39,153.59 695.14,154.16 695.89,154.74 696.65,155.32 697.40,155.89 698.15,156.47 698.90,157.05 699.65,157.63 700.40,158.21 701.15,158.80 701.90,159.38 702.65,159.96 703.40,160.55 704.15,161.13 704.90,161.72 705.65,162.31 706.40,162.89 707.16,163.48 707.91,164.07 708.66,164.66 709.41,165.25 710.16,165.84 710.91,166.43 711.66,167.03 712.41,167.62 713.16,168.21 713.91,168.81 714.66,169.40 715.41,170.00 716.16,170.60 716.91,171.20 717.67,171.79 718.42,172.39 719.17,172.99 719.92,173.59 720.67,174.19 721.42,174.80 722.17,175.40 722.92,176.00 723.67,176.61 724.42,177.21 725.17,177.81 725.92,178.42 726.67,179.03 727.43,179.63 728.18,180.24 728.93,180.85 729.68,181.46 730.43,182.07 731.18,182.68 731.93,183.29 732.68,183.90 733.43,184.51 734.18,185.12 734.93,185.73 735.68,186.35 736.43,186.96 737.18,187.57 737.94,188.19 738.69,188.81 739.44,189.42 740.19,190.04 740.94,190.65 741.69,191.27 742.44,191.89 743.19,192.51 743.94,193.13 744.69,193.75 745.44,194.37 746.19,194.99 746.94,195.61 747.70,196.23 748.45,196.85 749.20,197.47 749.95,198.09 750.70,198.72 751.45,199.34 752.20,199.96 752.95,200.59 753.70,201.21 754.45,201.84 755.20,202.46 755.95,203.09 756.70,203.71 757.45,204.34 758.21,204.97 758.96,205.60 759.71,206.22 760.46,206.85 761.21,207.48 761.96,208.11 762.71,208.74 763.46,209.37 764.21,210.00 764.96,210.63 765.71,211.26 766.46,211.89 767.21,212.52 767.96,213.15 768.72,213.78 769.47,214.41 770.22,215.04 770.97,215.68 771.72,216.31 772.47,216.94 773.22,217.58 773.97,218.21 774.72,218.84 775.47,219.48 776.22,220.11 776.97,220.75 777.72,221.38 778.48,222.01 779.23,222.65 779.98,223.28 780.73,223.92 781.48,224.56 782.23,225.19 782.98,225.83 783.73,226.46 784.48,227.10 785.23,227.74 785.98,228.37 786.73,229.01 787.48,229.65 788.23,230.28 788.99,230.92 789.74,231.56 790.49,232.20 791.24,232.83 791.99,233.47 792.74,234.11 793.49,234.75 794.24,235.38 794.99,236.02 795.74,236.66 796.49,237.30 797.24,237.94 797.99,238.57 798.74,239.21 799.50,239.85 800.25,240.49 801.00,241.13 801.75,241.77 802.50,242.40 803.25,243.04 804.00,244.00" />
  <text x="420.0" y="22" text-anchor="middle" font-family="Arial, Helvetica, sans-serif" font-size="15" fill="#102a43">sine window (time domain)</text>
  <text x="420.0" y="272" text-anchor="middle" font-family="Arial, Helvetica, sans-serif" font-size="12" fill="#334e68">normalized sample index</text>
  <text x="14" y="140.0" transform="rotate(-90 14,140.0)" text-anchor="middle" font-family="Arial, Helvetica, sans-serif" font-size="12" fill="#334e68">amplitude</text>
  <text x="36" y="262" font-family="Arial, Helvetica, sans-serif" font-size="11" fill="#486581">0</text>
  <text x="804" y="262" text-anchor="end" font-family="Arial, Helvetica, sans-serif" font-size="11" fill="#486581">1</text>
  <text x="30" y="40" text-anchor="end" font-family="Arial, Helvetica, sans-serif" font-size="11" fill="#486581">1.0</text>
  <text x="30" y="248" text-anchor="end" font-family="Arial, Helvetica, sans-serif" font-size="11" fill="#486581">0.0</text>
</svg>
