<svg xmlns="http://www.w3.org/2000/svg" width="840" height="280" viewBox="0 0 840 280">
  <rect x="0" y="0" width="840" height="280" fill="#ffffff" />
  <rect x="36" y="36" width="768" height="208" fill="#f7fbff" stroke="#c8d9e6" />
  <polyline fill="none" stroke="#005f73" stroke-width="2" points="36.00,36.00 36.75,48.39 37.50,66.57 38.25,76.13 39.00,82.77 39.75,87.88 40.50,92.03 41.26,95.53 42.01,98.56 42.76,101.23 43.51,103.61 44.26,105.77 45.01,107.74 45.76,109.55 46.51,111.23 47.26,112.79 48.01,114.27 48.76,115.64 49.51,116.93 50.26,118.15 51.01,119.31 51.77,120.41 52.52,121.46 53.27,122.46 54.02,123.42 54.77,124.34 55.52,125.23 56.27,126.08 57.02,126.90 57.77,127.69 58.52,128.45 59.27,129.19 60.02,129.93 60.77,130.63 61.52,131.30 62.28,131.95 63.03,132.59 63.78,133.20 64.53,133.80 65.28,134.39 66.03,134.96 66.78,135.51 67.53,136.06 68.28,136.59 69.03,137.10 69.78,137.61 70.53,138.11 71.28,138.59 72.04,139.10 72.79,139.56 73.54,140.01 74.29,140.46 75.04,140.90 75.79,141.32 76.54,141.74 77.29,142.16 78.04,142.56 78.79,142.96 79.54,143.35 80.29,143.73 81.04,144.11 81.79,144.48 82.55,144.84 83.30,145.20 84.05,145.60 84.80,145.95 85.55,146.29 86.30,146.63 87.05,146.96 87.80,147.29 88.55,147.61 89.30,147.93 90.05,148.24 90.80,148.55 91.55,148.85 92.30,149.15 93.06,149.45 93.81,149.74 94.56,150.03 95.31,150.31 96.06,150.65 96.81,150.93 97.56,151.20 98.31,151.47 99.06,151.74 99.81,152.00 100.56,152.26 101.31,152.52 102.06,152.78 102.82,153.03 103.57,153.28 104.32,153.52 105.07,153.76 105.82,154.01 106.57,154.24 107.32,154.48 108.07,154.78 108.82,155.01 109.57,155.24 110.32,155.46 111.07,155.69 111.82,155.91 112.57,156.13 113.33,156.34 114.08,156.56 114.83,156.77 115.58,156.98 116.33,157.18 117.08,157.39 117.83,157.59 118.58,157.80 119.33,158.00 120.08,158.28 120.83,158.47 121.58,158.67 122.33,158.86 123.09,159.05 123.84,159.24 124.59,159.43 125.34,159.61 126.09,159.80 126.84,159.98 127.59,160.16 128.34,160.34 129.09,160.52 129.84,160.69 130.59,160.87 131.34,161.04 132.09,161.31 132.84,161.48 133.60,161.65 134.35,161.82 135.10,161.98 135.85,162.15 136.60,162.31 137.35,162.47 138.10,162.63 138.85,162.79 139.60,162.95 140.35,163.11 141.10,163.27 141.85,163.42 142.60,163.58 143.35,163.73 144.11,163.99 144.86,164.14 145.61,164.29 146.36,164.44 147.11,164.58 147.86,164.73 148.61,164.87 149.36,165.02 150.11,165.16 150.86,165.30 151.61,165.44 152.36,165.58 153.11,165.72 153.87,165.86 154.62,166.00 155.37,166.13 156.12,166.39 156.87,166.53 157.62,166.66 158.37,166.79 159.12,166.92 159.87,167.05 160.62,167.18 161.37,167.31 162.12,167.44 162.87,167.56 163.62,167.69 164.38,167.82 165.13,167.94 165.88,168.06 166.63,168.19 167.38,168.31 168.13,168.57 168.88,168.69 169.63,168.81 170.38,168.93 171.13,169.05 171.88,169.16 172.63,169.28 173.38,169.40 174.13,169.51 174.89,169.63 175.64,169.74 176.39,169.85 177.14,169.97 177.89,170.08 178.64,170.19 179.39,170.30 180.14,170.56 180.89,170.67 181.64,170.78 182.39,170.89 183.14,170.99 183.89,171.10 184.65,171.21 185.40,171.31 186.15,171.42 186.90,171.52 187.65,171.62 188.40,171.73 189.15,171.83 189.90,171.93 190.65,172.03 191.40,172.13 192.15,172.40 192.90,172.50 193.65,172.60 194.40,172.70 195.16,172.79 195.91,172.89 196.66,172.99 197.41,173.08 198.16,173.18 198.91,173.27 199.66,173.37 200.41,173.46 201.16,173.56 201.91,173.65 202.66,173.74 203.41,173.83 204.16,174.11 204.91,174.20 205.67,174.29 206.42,174.38 207.17,174.47 207.92,174.56 208.67,174.64 209.42,174.73 210.17,174.82 210.92,174.91 211.67,174.99 212.42,175.08 213.17,175.17 213.92,175.25 214.67,175.34 215.43,175.42 216.18,175.70 216.93,175.79 217.68,175.87 218.43,175.95 219.18,176.03 219.93,176.11 220.68,176.20 221.43,176.28 222.18,176.36 222.93,176.44 223.68,176.52 224.43,176.59 225.18,176.67 225.94,176.75 226.69,176.83 227.44,176.91 228.19,177.20 228.94,177.28 229.69,177.35 230.44,177.43 231.19,177.50 231.94,177.58 232.69,177.65 233.44,177.73 234.19,177.80 234.94,177.87 235.70,177.95 236.45,178.02 237.20,178.09 237.95,178.17 238.70,178.24 239.45,178.31 240.20,178.61 240.95,178.68 241.70,178.75 242.45,178.82 243.20,178.89 243.95,178.96 244.70,179.03 245.45,179.10 246.21,179.17 246.96,179.23 247.71,179.30 248.46,179.37 249.21,179.44 249.96,179.50 250.71,179.57 251.46,179.64 252.21,179.95 252.96,180.01 253.71,180.08 254.46,180.14 255.21,180.21 255.96,180.27 256.72,180.33 257.47,180.40 258.22,180.46 258.97,180.52 259.72,180.59 260.47,180.65 261.22,180.71 261.97,180.77 262.72,180.83 263.47,180.90 264.22,181.22 264.97,181.28 265.72,181.34 266.48,181.40 267.23,181.46 267.98,181.52 268.73,181.58 269.48,181.63 270.23,181.69 270.98,181.75 271.73,181.81 272.48,181.87 273.23,181.92 273.98,181.98 274.73,182.04 275.48,182.10 276.23,182.43 276.99,182.49 277.74,182.54 278.49,182.60 279.24,182.65 279.99,182.71 280.74,182.76 281.49,182.82 282.24,182.87 282.99,182.92 283.74,182.98 284.49,183.03 285.24,183.08 285.99,183.14 286.74,183.19 287.50,183.24 288.25,183.59 289.00,183.64 289.75,183.69 290.50,183.74 291.25,183.80 292.00,183.85 292.75,183.90 293.50,183.95 294.25,184.00 295.00,184.05 295.75,184.10 296.50,184.14 297.26,184.19 298.01,184.24 298.76,184.29 299.51,184.34 300.26,184.70 301.01,184.75 301.76,184.80 302.51,184.84 303.26,184.89 304.01,184.94 304.76,184.98 305.51,185.03 306.26,185.08 307.01,185.12 307.77,185.17 308.52,185.21 309.27,185.26 310.02,185.31 310.77,185.35 311.52,185.40 312.27,185.77 313.02,185.82 313.77,185.86 314.52,185.90 315.27,185.95 316.02,185.99 316.77,186.03 317.52,186.08 318.28,186.12 319.03,186.16 319.78,186.20 320.53,186.25 321.28,186.29 322.03,186.33 322.78,186.37 323.53,186.41 324.28,186.81 325.03,186.85 325.78,186.89 326.53,186.93 327.28,186.97 328.04,187.00 328.79,187.04 329.54,187.08 330.29,187.12 331.04,187.16 331.79,187.20 332.54,187.24 333.29,187.28 334.04,187.32 334.79,187.36 335.54,187.39 336.29,187.80 337.04,187.84 337.79,187.88 338.55,187.91 339.30,187.95 340.05,187.99 340.80,188.02 341.55,188.06 342.30,188.09 343.05,188.13 343.80,188.17 344.55,188.20 345.30,188.24 346.05,188.27 346.80,188.31 347.55,188.34 348.30,188.77 349.06,188.80 349.81,188.84 350.56,188.87 351.31,188.90 352.06,188.94 352.81,188.97 353.56,189.00 354.31,189.04 355.06,189.07 355.81,189.10 356.56,189.14 357.31,189.17 358.06,189.20 358.82,189.23 359.57,189.26 360.32,189.71 361.07,189.74 361.82,189.77 362.57,189.80 363.32,189.83 364.07,189.86 364.82,189.89 365.57,189.92 366.32,189.95 367.07,189.98 367.82,190.01 368.57,190.04 369.33,190.07 370.08,190.10 370.83,190.13 371.58,190.16 372.33,190.62 373.08,190.65 373.83,190.68 374.58,190.71 375.33,190.73 376.08,190.76 376.83,190.79 377.58,190.82 378.33,190.84 379.09,190.87 379.84,190.90 380.59,190.92 381.34,190.95 382.09,190.98 382.84,191.00 383.59,191.03 384.34,191.51 385.09,191.54 385.84,191.56 386.59,191.59 387.34,191.61 388.09,191.64 388.84,191.66 389.60,191.69 390.35,191.71 391.10,191.74 391.85,191.76 392.60,191.79 393.35,191.81 394.10,191.83 394.85,191.86 395.60,191.88 396.35,192.38 397.10,192.41 397.85,192.43 398.60,192.45 399.35,192.47 400.11,192.50 400.86,192.52 401.61,192.54 402.36,192.56 403.11,192.58 403.86,192.61 404.61,192.63 405.36,192.65 406.11,192.67 406.86,192.69 407.61,192.71 408.36,193.24 409.11,193.26 409.87,193.28 410.62,193.30 411.37,193.32 412.12,193.34 412.87,193.36 413.62,193.38 414.37,193.39 415.12,193.41 415.87,193.43 416.62,193.45 417.37,193.47 418.12,193.49 418.87,193.51 419.62,193.53 420.38,194.08 421.13,194.09 421.88,194.11 422.63,194.13 423.38,194.14 424.13,194.16 424.88,194.18 425.63,194.19 426.38,194.21 427.13,194.23 427.88,194.25 428.63,194.26 429.38,194.28 430.13,194.30 430.89,194.31 431.64,194.33 432.39,194.90 433.14,194.91 433.89,194.93 434.64,194.94 435.39,194.96 436.14,194.97 436.89,194.99 437.64,195.00 438.39,195.02 439.14,195.03 439.89,195.04 440.65,195.06 441.40,195.07 442.15,195.09 442.90,195.10 443.65,195.12 444.40,195.71 445.15,195.72 445.90,195.74 446.65,195.75 447.40,195.76 448.15,195.77 448.90,195.78 449.65,195.80 450.40,195.81 451.16,195.82 451.91,195.83 452.66,195.84 453.41,195.86 454.16,195.87 454.91,195.88 455.66,195.89 456.41,196.51 457.16,196.52 457.91,196.53 458.66,196.54 459.41,196.55 460.16,196.56 460.91,196.57 461.67,196.58 462.42,196.59 463.17,196.60 463.92,196.61 464.67,196.62 465.42,196.63 466.17,196.64 466.92,196.65 467.67,196.66 468.42,197.31 469.17,197.32 469.92,197.32 470.67,197.33 471.43,197.34 472.18,197.34 472.93,197.35 473.68,197.36 474.43,197.37 475.18,197.37 475.93,197.38 476.68,197.39 477.43,197.39 478.18,197.40 478.93,197.41 479.68,197.42 480.43,198.10 481.18,198.10 481.94,198.11 482.69,198.11 483.44,198.12 484.19,198.12 484.94,198.13 485.69,198.13 486.44,198.14 487.19,198.14 487.94,198.14 488.69,198.15 489.44,198.15 490.19,198.16 490.94,198.16 491.70,198.17 492.45,198.88 493.20,198.88 493.95,198.89 494.70,198.89 495.45,198.89 496.20,198.89 496.95,198.90 497.70,198.90 498.45,198.90 499.20,198.90 499.95,198.90 500.70,198.91 501.45,198.91 502.21,198.91 502.96,198.91 503.71,198.92 504.46,199.66 505.21,199.66 505.96,199.66 506.71,199.66 507.46,199.66 508.21,199.66 508.96,199.66 509.71,199.66 510.46,199.66 511.21,199.66 511.96,199.66 512.72,199.66 513.47,199.66 514.22,199.66 514.97,199.66 515.72,199.66 516.47,200.45 517.22,200.44 517.97,200.44 518.72,200.44 519.47,200.44 520.22,200.43 520.97,200.43 521.72,200.43 522.48,200.43 523.23,200.42 523.98,200.42 524.73,200.42 525.48,200.41 526.23,200.41 526.98,200.41 527.73,200.41 528.48,201.23 529.23,201.23 529.98,201.22 530.73,201.22 531.48,201.21 532.23,201.21 532.99,201.20 533.74,201.19 534.49,201.19 535.24,201.18 535.99,201.18 536.74,201.17 537.49,201.17 538.24,201.16 538.99,201.16 539.74,201.15 540.49,202.02 541.24,202.01 541.99,202.01 542.74,202.00 543.50,201.99 544.25,201.98 545.00,201.97 545.75,201.97 546.50,201.96 547.25,201.95 548.00,201.94 548.75,201.93 549.50,201.93 550.25,201.92 551.00,201.91 551.75,201.90 552.50,202.82 553.26,202.81 554.01,202.80 554.76,202.79 555.51,202.77 556.26,202.76 557.01,202.75 557.76,202.74 558.51,202.73 559.26,202.72 560.01,202.71 560.76,202.70 561.51,202.69 562.26,202.68 563.01,202.67 563.77,202.66 564.52,203.62 565.27,203.61 566.02,203.60 566.77,203.58 567.52,203.57 568.27,203.56 569.02,203.54 569.77,203.53 570.52,203.52 571.27,203.50 572.02,203.49 572.77,203.48 573.52,203.46 574.28,203.45 575.03,203.44 575.78,203.42 576.53,204.44 577.28,204.43 578.03,204.41 578.78,204.39 579.53,204.38 580.28,204.36 581.03,204.34 581.78,204.33 582.53,204.31 583.28,204.29 584.04,204.28 584.79,204.26 585.54,204.25 586.29,204.23 587.04,204.21 587.79,204.20 588.54,205.28 589.29,205.26 590.04,205.24 590.79,205.22 591.54,205.20 592.29,205.18 593.04,205.16 593.79,205.14 594.55,205.12 595.30,205.10 596.05,205.08 596.80,205.06 597.55,205.04 598.30,205.02 599.05,205.00 599.80,204.99 600.55,206.14 601.30,206.11 602.05,206.09 602.80,206.07 603.55,206.04 604.30,206.02 605.06,206.00 605.81,205.97 606.56,205.95 607.31,205.93 608.06,205.90 608.81,205.88 609.56,205.86 610.31,205.84 611.06,205.81 611.81,205.79 612.56,207.02 613.31,206.99 614.06,206.96 614.82,206.94 615.57,206.91 616.32,206.88 617.07,206.86 617.82,206.83 618.57,206.80 619.32,206.78 620.07,206.75 620.82,206.72 621.57,206.70 622.32,206.67 623.07,206.65 623.82,206.62 624.57,207.93 625.33,207.90 626.08,207.87 626.83,207.84 627.58,207.80 628.33,207.77 629.08,207.74 629.83,207.71 630.58,207.68 631.33,207.65 632.08,207.62 632.83,207.59 633.58,207.56 634.33,207.53 635.09,207.50 635.84,207.47 636.59,208.88 637.34,208.84 638.09,208.81 638.84,208.77 639.59,208.73 640.34,208.70 641.09,208.66 641.84,208.63 642.59,208.60 643.34,208.56 644.09,208.53 644.84,208.49 645.60,208.46 646.35,208.42 647.10,208.39 647.85,208.36 648.60,209.87 649.35,209.83 650.10,209.79 650.85,209.75 651.60,209.71 652.35,209.67 653.10,209.63 653.85,209.59 654.60,209.55 655.35,209.51 656.11,209.47 656.86,209.43 657.61,209.39 658.36,209.36 659.11,209.32 659.86,209.28 660.61,210.91 661.36,210.87 662.11,210.82 662.86,210.78 663.61,210.73 664.36,210.69 665.11,210.64 665.87,210.60 666.62,210.55 667.37,210.51 668.12,210.46 668.87,210.42 669.62,210.38 670.37,210.33 671.12,210.29 671.87,210.25 672.62,212.03 673.37,211.97 674.12,211.92 674.87,211.87 675.62,211.82 676.38,211.77 677.13,211.71 677.88,211.66 678.63,211.61 679.38,211.56 680.13,211.51 680.88,211.46 681.63,211.41 682.38,211.37 683.13,211.32 683.88,211.27 684.63,213.22 685.38,213.16 686.13,213.10 686.89,213.04 687.64,212.98 688.39,212.92 689.14,212.86 689.89,212.81 690.64,212.75 691.39,212.69 692.14,212.63 692.89,212.58 693.64,212.52 694.39,212.47 695.14,212.41 695.89,212.36 696.65,214.51 697.40,214.44 698.15,214.37 698.90,214.30 699.65,214.24 700.40,214.17 701.15,214.10 701.90,214.04 702.65,213.97 703.40,213.91 704.15,213.84 704.90,213.78 705.65,213.71 706.40,213.65 707.16,213.59 707.91,213.53 708.66,215.93 709.41,215.85 710.16,215.77 710.91,215.69 711.66,215.61 712.41,215.54 713.16,215.46 713.91,215.38 714.66,215.31 715.41,215.23 716.16,215.16 716.91,215.09 717.67,215.01 718.42,214.94 719.17,214.87 719.92,214.80 720.67,217.51 721.42,217.41 722.17,217.32 722.92,217.23 723.67,217.14 724.42,217.05 725.17,216.96 725.92,216.87 726.67,216.79 727.43,216.70 728.18,216.62 728.93,216.53 729.68,216.45 730.43,216.36 731.18,216.28 731.93,216.20 732.68,219.30 733.43,219.19 734.18,219.09 734.93,218.98 735.68,218.87 736.43,218.77 737.18,218.66 737.94,218.56 738.69,218.45 739.44,218.35 740.19,218.25 740.94,218.15 741.69,218.05 742.44,217.96 743.19,217.86 743.94,217.76 744.69,221.40 745.44,221.27 746.19,221.14 746.94,221.00 747.70,220.88 748.45,220.75 749.20,220.62 749.95,220.50 750.70,220.37 751.45,220.25 752.20,220.13 752.95,220.01 753.70,219.90 754.45,219.78 755.20,219.66 755.95,219.55 756.70,223.94 757.45,223.77 758.21,223.60 758.96,223.44 759.71,223.28 760.46,223.12 761.21,222.96 761.96,222.81 762.71,222.65 763.46,222.50 764.21,222.36 764.96,222.21 765.71,222.07 766.46,221.92 767.21,221.78 767.96,221.64 768.72,227.17 769.47,226.94 770.22,226.72 770.97,226.50 771.72,226.29 772.47,226.08 773.22,225.88 773.97,225.68 774.72,225.48 775.47,225.28 776.22,225.09 776.97,224.91 777.72,224.72 778.48,224.54 779.23,224.36 779.98,224.19 780.73,231.66 781.48,231.32 782.23,231.00 782.98,230.68 783.73,230.37 784.48,230.07 785.23,229.78 785.98,229.50 786.73,229.22 787.48,228.95 788.23,228.68 788.99,228.42 789.74,228.17 790.49,227.93 791.24,227.68 791.99,227.45 792.74,239.16 793.49,238.52 794.24,237.91 794.99,237.33 795.74,236.78 796.49,236.25 797.24,235.75 797.99,235.27 798.74,234.81 799.50,234.37 800.25,233.94 801.00,233.53 801.75,233.14 802.50,232.75 803.25,232.38 804.00,244.00" />
  <text x="420.0" y="22" text-anchor="middle" font-family="Arial, Helvetica, sans-serif" font-size="15" fill="#102a43">sine window (magnitude spectrum)</text>
  <text x="420.0" y="272" text-anchor="middle" font-family="Arial, Helvetica, sans-serif" font-size="12" fill="#334e68">normalized frequency</text>
  <text x="14" y="140.0" transform="rotate(-90 14,140.0)" text-anchor="middle" font-family="Arial, Helvetica, sans-serif" font-size="12" fill="#334e68">magnitude (dB)</text>
  <text x="36" y="262" font-family="Arial, Helvetica, sans-serif" font-size="11" fill="#486581">0</text>
  <text x="804" y="262" text-anchor="end" font-family="Arial, Helvetica, sans-serif" font-size="11" fill="#486581">1</text>
  <text x="30" y="40" text-anchor="end" font-family="Arial, Helvetica, sans-serif" font-size="11" fill="#486581">0.0</text>
  <text x="30" y="248" text-anchor="end" font-family="Arial, Helvetica, sans-serif" font-size="11" fill="#486581">-160.0</text>
</svg>
