<svg xmlns="http://www.w3.org/2000/svg" width="840" height="280" viewBox="0 0 840 280">
  <rect x="0" y="0" width="840" height="280" fill="#ffffff" />
  <rect x="36" y="36" width="768" height="208" fill="#f7fbff" stroke="#c8d9e6" />
  <polyline fill="none" stroke="#005f73" stroke-width="2" points="36.00,36.00 36.75,46.21 37.50,244.00 38.25,71.02 39.00,244.00 39.75,82.56 40.50,244.00 41.26,90.15 42.01,244.00 42.76,95.83 43.51,244.00 44.26,100.36 45.01,244.00 45.76,104.14 46.51,244.00 47.26,107.37 48.01,184.74 48.76,110.23 49.51,186.71 50.26,112.74 51.01,188.45 51.77,115.00 52.52,189.99 53.27,117.05 54.02,191.37 54.77,118.94 55.52,192.63 56.27,120.67 57.02,193.77 57.77,122.29 58.52,194.83 59.27,123.80 60.02,184.75 60.77,125.25 61.52,185.77 62.28,126.58 63.03,186.72 63.78,127.84 64.53,187.62 65.28,129.03 66.03,188.46 66.78,130.16 67.53,189.25 68.28,131.24 69.03,190.00 69.78,132.27 70.53,190.71 71.28,133.25 72.04,184.77 72.79,134.26 73.54,185.46 74.29,135.16 75.04,186.11 75.79,136.03 76.54,186.74 77.29,136.87 78.04,187.34 78.79,137.68 79.54,187.92 80.29,138.46 81.04,188.47 81.79,139.22 82.55,189.00 83.30,139.95 84.05,184.79 84.80,140.74 85.55,185.31 86.30,141.43 87.05,185.81 87.80,142.10 88.55,186.30 89.30,142.75 90.05,186.76 90.80,143.38 91.55,187.22 92.30,143.99 93.06,187.66 93.81,144.59 94.56,188.08 95.31,145.18 96.06,184.82 96.81,145.85 97.56,185.24 98.31,146.40 99.06,185.64 99.81,146.95 100.56,186.04 101.31,147.48 102.06,186.42 102.82,148.00 103.57,186.79 104.32,148.50 105.07,187.16 105.82,149.00 106.57,187.51 107.32,149.49 108.07,184.86 108.82,150.09 109.57,185.21 110.32,150.55 111.07,185.55 111.82,151.01 112.57,185.88 113.33,151.46 114.08,186.20 114.83,151.90 115.58,186.52 116.33,152.34 117.08,186.83 117.83,152.76 118.58,187.14 119.33,153.18 120.08,184.90 120.83,153.73 121.58,185.20 122.33,154.14 123.09,185.50 123.84,154.53 124.59,185.78 125.34,154.93 126.09,186.06 126.84,155.31 127.59,186.34 128.34,155.69 129.09,186.61 129.84,156.06 130.59,186.88 131.34,156.43 132.09,184.96 132.84,156.96 133.60,185.22 134.35,157.31 135.10,185.47 135.85,157.66 136.60,185.73 137.35,158.01 138.10,185.98 138.85,158.35 139.60,186.22 140.35,158.69 141.10,186.46 141.85,159.02 142.60,186.70 143.35,159.35 144.11,185.01 144.86,159.86 145.61,185.25 146.36,160.18 147.11,185.48 147.86,160.50 148.61,185.70 149.36,160.81 150.11,185.92 150.86,161.12 151.61,186.14 152.36,161.42 153.11,186.36 153.87,161.73 154.62,186.57 155.37,162.02 156.12,185.08 156.87,162.53 157.62,185.29 158.37,162.82 159.12,185.50 159.87,163.11 160.62,185.70 161.37,163.39 162.12,185.90 162.87,163.67 163.62,186.10 164.38,163.95 165.13,186.30 165.88,164.23 166.63,186.49 167.38,164.50 168.13,185.15 168.88,165.01 169.63,185.34 170.38,165.28 171.13,185.53 171.88,165.54 172.63,185.72 173.38,165.80 174.13,185.90 174.89,166.06 175.64,186.08 176.39,166.32 177.14,186.26 177.89,166.58 178.64,186.44 179.39,166.83 180.14,185.23 180.89,167.34 181.64,185.41 182.39,167.59 183.14,185.58 183.89,167.84 184.65,185.75 185.40,168.08 186.15,185.92 186.90,168.33 187.65,186.09 188.40,168.57 189.15,186.25 189.90,168.80 190.65,186.42 191.40,169.04 192.15,185.32 192.90,169.56 193.65,185.48 194.40,169.80 195.16,185.64 195.91,170.03 196.66,185.80 197.41,170.26 198.16,185.96 198.91,170.49 199.66,186.11 200.41,170.71 201.16,186.27 201.91,170.94 202.66,186.42 203.41,171.16 204.16,185.42 204.91,171.70 205.67,185.57 206.42,171.92 207.17,185.72 207.92,172.14 208.67,185.86 209.42,172.35 210.17,186.01 210.92,172.57 211.67,186.15 212.42,172.78 213.17,186.30 213.92,173.00 214.67,186.44 215.43,173.21 216.18,185.52 216.93,173.77 217.68,185.66 218.43,173.98 219.18,185.80 219.93,174.18 220.68,185.94 221.43,174.39 222.18,186.07 222.93,174.60 223.68,186.21 224.43,174.80 225.18,186.34 225.94,175.00 226.69,186.48 227.44,175.20 228.19,185.63 228.94,175.79 229.69,185.76 230.44,175.99 231.19,185.89 231.94,176.19 232.69,186.02 233.44,176.39 234.19,186.15 234.94,176.58 235.70,186.28 236.45,176.78 237.20,186.40 237.95,176.97 238.70,186.53 239.45,177.17 240.20,185.75 240.95,177.78 241.70,185.87 242.45,177.97 243.20,186.00 243.95,178.16 244.70,186.12 245.45,178.36 246.21,186.24 246.96,178.55 247.71,186.36 248.46,178.74 249.21,186.48 249.96,178.92 250.71,186.60 251.46,179.11 252.21,185.88 252.96,179.76 253.71,185.99 254.46,179.95 255.21,186.11 255.96,180.13 256.72,186.23 257.47,180.32 258.22,186.34 258.97,180.50 259.72,186.45 260.47,180.69 261.22,186.57 261.97,180.87 262.72,186.68 263.47,181.05 264.22,186.01 264.97,181.74 265.72,186.12 266.48,181.92 267.23,186.23 267.98,182.10 268.73,186.34 269.48,182.29 270.23,186.45 270.98,182.47 271.73,186.56 272.48,182.65 273.23,186.67 273.98,182.83 274.73,186.77 275.48,183.01 276.23,186.16 276.99,183.74 277.74,186.26 278.49,183.92 279.24,186.37 279.99,184.10 280.74,186.47 281.49,184.28 282.24,186.57 282.99,184.46 283.74,186.68 284.49,184.64 285.24,186.78 285.99,184.81 286.74,186.88 287.50,184.99 288.25,186.31 289.00,185.77 289.75,186.41 290.50,185.95 291.25,186.51 292.00,186.13 292.75,186.61 293.50,186.31 294.25,186.71 295.00,186.49 295.75,186.81 296.50,186.67 297.26,186.90 298.01,186.84 298.76,187.00 299.51,187.02 300.26,186.47 301.01,187.87 301.76,186.57 302.51,188.05 303.26,186.66 304.01,188.23 304.76,186.76 305.51,188.41 306.26,186.85 307.01,188.59 307.77,186.95 308.52,188.76 309.27,187.04 310.02,188.94 310.77,187.13 311.52,189.12 312.27,186.64 313.02,190.04 313.77,186.73 314.52,190.23 315.27,186.82 316.02,190.41 316.77,186.92 317.52,190.59 318.28,187.01 319.03,190.77 319.78,187.10 320.53,190.95 321.28,187.19 322.03,191.14 322.78,187.28 323.53,191.32 324.28,186.82 325.03,192.33 325.78,186.91 326.53,192.52 327.28,187.00 328.04,192.71 328.79,187.09 329.54,192.89 330.29,187.17 331.04,193.08 331.79,187.26 332.54,193.27 333.29,187.35 334.04,193.46 334.79,187.43 335.54,193.65 336.29,187.01 337.04,194.78 337.79,187.10 338.55,194.97 339.30,187.18 340.05,195.17 340.80,187.27 341.55,195.36 342.30,187.35 343.05,195.56 343.80,187.43 344.55,195.76 345.30,187.52 346.05,195.96 346.80,187.60 347.55,196.15 348.30,187.21 349.06,197.44 349.81,187.29 350.56,197.64 351.31,187.38 352.06,197.85 352.81,187.46 353.56,198.06 354.31,187.54 355.06,198.27 355.81,187.62 356.56,198.48 357.31,187.70 358.06,198.70 358.82,187.78 359.57,198.91 360.32,187.42 361.07,200.40 361.82,187.50 362.57,200.63 363.32,187.58 364.07,200.86 364.82,187.66 365.57,201.09 366.32,187.74 367.07,201.32 367.82,187.82 368.57,201.56 369.33,187.89 370.08,201.79 370.83,187.97 371.58,202.03 372.33,187.64 373.08,203.82 373.83,187.72 374.58,204.08 375.33,187.80 376.08,204.34 376.83,187.87 377.58,204.61 378.33,187.95 379.09,204.88 379.84,188.03 380.59,205.15 381.34,188.10 382.09,205.42 382.84,188.18 383.59,205.70 384.34,187.88 385.09,207.97 385.84,187.95 386.59,208.29 387.34,188.03 388.09,208.61 388.84,188.10 389.60,208.94 390.35,188.17 391.10,209.28 391.85,188.25 392.60,209.62 393.35,188.32 394.10,209.96 394.85,188.39 395.60,210.31 396.35,188.12 397.10,213.48 397.85,188.20 398.60,213.93 399.35,188.27 400.11,214.38 400.86,188.34 401.61,214.85 402.36,188.41 403.11,215.33 403.86,188.48 404.61,215.82 405.36,188.55 406.11,216.33 406.86,188.62 407.61,216.86 408.36,188.38 409.11,222.42 409.87,188.45 410.62,223.26 411.37,188.52 412.12,224.15 412.87,188.59 413.62,225.11 414.37,188.66 415.12,226.14 415.87,188.73 416.62,227.26 417.37,188.80 418.12,228.49 418.87,188.87 419.62,229.85 420.38,188.65 421.13,244.00 421.88,188.72 422.63,244.00 423.38,188.79 424.13,242.74 424.88,188.86 425.63,239.31 426.38,188.92 427.13,236.71 427.88,188.99 428.63,234.62 429.38,189.06 430.13,232.87 430.89,189.13 431.64,231.38 432.39,188.93 433.14,223.03 433.89,189.00 434.64,222.44 435.39,189.07 436.14,221.88 436.89,189.14 437.64,221.36 438.39,189.20 439.14,220.87 439.89,189.27 440.65,220.40 441.40,189.33 442.15,219.96 442.90,189.40 443.65,219.54 444.40,189.23 445.15,216.28 445.90,189.30 446.65,216.00 447.40,189.36 448.15,215.74 448.90,189.43 449.65,215.48 450.40,189.50 451.16,215.23 451.91,189.56 452.66,214.99 453.41,189.63 454.16,214.76 454.91,189.69 455.66,214.53 456.41,189.55 457.16,212.61 457.91,189.61 458.66,212.44 459.41,189.68 460.16,212.28 460.91,189.74 461.67,212.12 462.42,189.80 463.17,211.96 463.92,189.87 464.67,211.81 465.42,189.93 466.17,211.66 466.92,189.99 467.67,211.52 468.42,189.88 469.17,210.23 469.92,189.94 470.67,210.12 471.43,190.00 472.18,210.01 472.93,190.07 473.68,209.90 474.43,190.13 475.18,209.79 475.93,190.19 476.68,209.68 477.43,190.25 478.18,209.58 478.93,190.32 479.68,209.48 480.43,190.22 481.18,208.57 481.94,190.29 482.69,208.49 483.44,190.35 484.19,208.41 484.94,190.41 485.69,208.33 486.44,190.47 487.19,208.25 487.94,190.53 488.69,208.17 489.44,190.60 490.19,208.10 490.94,190.66 491.70,208.02 492.45,190.59 493.20,207.36 493.95,190.65 494.70,207.30 495.45,190.71 496.20,207.24 496.95,190.77 497.70,207.18 498.45,190.83 499.20,207.12 499.95,190.89 500.70,207.06 501.45,190.95 502.21,207.01 502.96,191.02 503.71,206.95 504.46,190.97 505.21,206.48 505.96,191.03 506.71,206.43 507.46,191.09 508.21,206.38 508.96,191.15 509.71,206.34 510.46,191.21 511.21,206.29 511.96,191.27 512.72,206.25 513.47,191.33 514.22,206.20 514.97,191.39 515.72,206.16 516.47,191.38 517.22,205.83 517.97,191.44 518.72,205.79 519.47,191.50 520.22,205.76 520.97,191.56 521.72,205.72 522.48,191.62 523.23,205.69 523.98,191.68 524.73,205.65 525.48,191.74 526.23,205.62 526.98,191.80 527.73,205.58 528.48,191.80 529.23,205.37 529.98,191.86 530.73,205.34 531.48,191.92 532.23,205.31 532.99,191.98 533.74,205.29 534.49,192.04 535.24,205.26 535.99,192.10 536.74,205.23 537.49,192.16 538.24,205.20 538.99,192.22 539.74,205.17 540.49,192.25 541.24,205.07 541.99,192.31 542.74,205.04 543.50,192.37 544.25,205.02 545.00,192.43 545.75,205.00 546.50,192.49 547.25,204.98 548.00,192.55 548.75,204.95 549.50,192.61 550.25,204.93 551.00,192.67 551.75,204.91 552.50,192.73 553.26,204.89 554.01,192.79 554.76,204.87 555.51,192.85 556.26,204.85 557.01,192.91 557.76,204.83 558.51,192.97 559.26,204.82 560.01,193.03 560.76,204.80 561.51,193.09 562.26,204.78 563.01,193.14 563.77,204.76 564.52,193.23 565.27,204.83 566.02,193.29 566.77,204.81 567.52,193.35 568.27,204.80 569.02,193.41 569.77,204.78 570.52,193.47 571.27,204.77 572.02,193.53 572.77,204.75 573.52,193.59 574.28,204.74 575.03,193.65 575.78,204.72 576.53,193.77 577.28,204.86 578.03,193.83 578.78,204.85 579.53,193.89 580.28,204.84 581.03,193.95 581.78,204.83 582.53,194.01 583.28,204.82 584.04,194.07 584.79,204.80 585.54,194.13 586.29,204.79 587.04,194.19 587.79,204.78 588.54,194.34 589.29,204.99 590.04,194.40 590.79,204.98 591.54,194.46 592.29,204.97 593.04,194.52 593.79,204.96 594.55,194.58 595.30,204.95 596.05,194.64 596.80,204.94 597.55,194.70 598.30,204.94 599.05,194.76 599.80,204.93 600.55,194.94 601.30,205.21 602.05,195.00 602.80,205.20 603.55,195.07 604.30,205.19 605.06,195.13 605.81,205.19 606.56,195.19 607.31,205.18 608.06,195.25 608.81,205.17 609.56,195.31 610.31,205.16 611.06,195.38 611.81,205.16 612.56,195.59 613.31,205.51 614.06,195.65 614.82,205.51 615.57,195.72 616.32,205.50 617.07,195.78 617.82,205.49 618.57,195.84 619.32,205.49 620.07,195.91 620.82,205.48 621.57,195.97 622.32,205.48 623.07,196.03 623.82,205.47 624.57,196.28 625.33,205.90 626.08,196.35 626.83,205.90 627.58,196.41 628.33,205.89 629.08,196.48 629.83,205.89 630.58,196.54 631.33,205.88 632.08,196.61 632.83,205.88 633.58,196.67 634.33,205.87 635.09,196.74 635.84,205.87 636.59,197.03 637.34,206.38 638.09,197.10 638.84,206.37 639.59,197.17 640.34,206.37 641.09,197.23 641.84,206.36 642.59,197.30 643.34,206.36 644.09,197.37 644.84,206.36 645.60,197.43 646.35,206.35 647.10,197.50 647.85,206.35 648.60,197.84 649.35,206.94 650.10,197.91 650.85,206.94 651.60,197.98 652.35,206.93 653.10,198.05 653.85,206.93 654.60,198.12 655.35,206.93 656.11,198.19 656.86,206.93 657.61,198.26 658.36,206.92 659.11,198.33 659.86,206.92 660.61,198.72 661.36,207.60 662.11,198.79 662.86,207.60 663.61,198.86 664.36,207.60 665.11,198.94 665.87,207.59 666.62,199.01 667.37,207.59 668.12,199.08 668.87,207.59 669.62,199.16 670.37,207.59 671.12,199.23 671.87,207.58 672.62,199.67 673.37,208.37 674.12,199.75 674.87,208.37 675.62,199.83 676.38,208.36 677.13,199.91 677.88,208.36 678.63,199.98 679.38,208.36 680.13,200.06 680.88,208.36 681.63,200.14 682.38,208.36 683.13,200.22 683.88,208.35 684.63,200.73 685.38,209.25 686.13,200.81 686.89,209.25 687.64,200.89 688.39,209.25 689.14,200.98 689.89,209.25 690.64,201.06 691.39,209.25 692.14,201.14 692.89,209.25 693.64,201.23 694.39,209.24 695.14,201.31 695.89,209.24 696.65,201.90 697.40,210.27 698.15,201.99 698.90,210.27 699.65,202.08 700.40,210.27 701.15,202.17 701.90,210.27 702.65,202.26 703.40,210.27 704.15,202.35 704.90,210.27 705.65,202.44 706.40,210.27 707.16,202.53 707.91,210.26 708.66,203.22 709.41,211.46 710.16,203.31 710.91,211.46 711.66,203.41 712.41,211.45 713.16,203.51 713.91,211.45 714.66,203.61 715.41,211.45 716.16,203.71 716.91,211.45 717.67,203.81 718.42,211.45 719.17,203.91 719.92,211.45 720.67,204.71 721.42,212.84 722.17,204.82 722.92,212.84 723.67,204.93 724.42,212.83 725.17,205.04 725.92,212.83 726.67,205.16 727.43,212.83 728.18,205.27 728.93,212.83 729.68,205.38 730.43,212.83 731.18,205.50 731.93,212.83 732.68,206.45 733.43,214.47 734.18,206.57 734.93,214.47 735.68,206.70 736.43,214.47 737.18,206.83 737.94,214.47 738.69,206.96 739.44,214.47 740.19,207.09 740.94,214.47 741.69,207.22 742.44,214.46 743.19,207.35 743.94,214.46 744.69,208.50 745.44,216.44 746.19,208.65 746.94,216.44 747.70,208.80 748.45,216.44 749.20,208.95 749.95,216.44 750.70,209.11 751.45,216.43 752.20,209.26 752.95,216.43 753.70,209.42 754.45,216.43 755.20,209.58 755.95,216.43 756.70,211.03 757.45,218.88 758.21,211.21 758.96,218.88 759.71,211.40 760.46,218.88 761.21,211.59 761.96,218.88 762.71,211.78 763.46,218.88 764.21,211.98 764.96,218.88 765.71,212.17 766.46,218.88 767.21,212.38 767.96,218.88 768.72,214.30 769.47,222.07 770.22,214.54 770.97,222.07 771.72,214.79 772.47,222.07 773.22,215.05 773.97,222.07 774.72,215.31 775.47,222.07 776.22,215.57 776.97,222.07 777.72,215.84 778.48,222.07 779.23,216.12 779.98,222.07 780.73,218.93 781.48,226.61 782.23,219.30 782.98,226.61 783.73,219.68 784.48,226.61 785.23,220.07 785.98,226.61 786.73,220.47 787.48,226.61 788.23,220.89 788.99,226.61 789.74,221.33 790.49,226.61 791.24,221.78 791.99,226.61 792.74,226.94 793.49,234.42 794.24,227.69 794.99,234.42 795.74,228.50 796.49,234.42 797.24,229.37 797.99,234.42 798.74,230.31 799.50,234.41 800.25,231.33 801.00,234.41 801.75,232.46 802.50,234.41 803.25,233.72 804.00,244.00" />
  <text x="420.0" y="22" text-anchor="middle" font-family="Arial, Helvetica, sans-serif" font-size="15" fill="#102a43">triangular window (magnitude spectrum)</text>
  <text x="420.0" y="272" text-anchor="middle" font-family="Arial, Helvetica, sans-serif" font-size="12" fill="#334e68">normalized frequency</text>
  <text x="14" y="140.0" transform="rotate(-90 14,140.0)" text-anchor="middle" font-family="Arial, Helvetica, sans-serif" font-size="12" fill="#334e68">magnitude (dB)</text>
  <text x="36" y="262" font-family="Arial, Helvetica, sans-serif" font-size="11" fill="#486581">0</text>
  <text x="804" y="262" text-anchor="end" font-family="Arial, Helvetica, sans-serif" font-size="11" fill="#486581">1</text>
  <text x="30" y="40" text-anchor="end" font-family="Arial, Helvetica, sans-serif" font-size="11" fill="#486581">0.0</text>
  <text x="30" y="248" text-anchor="end" font-family="Arial, Helvetica, sans-serif" font-size="11" fill="#486581">-160.0</text>
</svg>
