<svg xmlns="http://www.w3.org/2000/svg" width="840" height="280" viewBox="0 0 840 280">
  <rect x="0" y="0" width="840" height="280" fill="#ffffff" />
  <rect x="36" y="36" width="768" height="208" fill="#f7fbff" stroke="#c8d9e6" />
  <polyline fill="none" stroke="#005f73" stroke-width="2" points="36.00,243.80 36.75,243.39 37.50,242.98 38.25,242.58 39.00,242.17 39.75,241.77 40.50,241.36 41.26,240.95 42.01,240.55 42.76,240.14 43.51,239.74 44.26,239.33 45.01,238.92 45.76,238.52 46.51,238.11 47.26,237.71 48.01,237.30 48.76,236.89 49.51,236.49 50.26,236.08 51.01,235.68 51.77,235.27 52.52,234.86 53.27,234.46 54.02,234.05 54.77,233.65 55.52,233.24 56.27,232.83 57.02,232.43 57.77,232.02 58.52,231.62 59.27,231.21 60.02,230.80 60.77,230.40 61.52,229.99 62.28,229.59 63.03,229.18 63.78,228.77 64.53,228.37 65.28,227.96 66.03,227.55 66.78,227.15 67.53,226.74 68.28,226.34 69.03,225.93 69.78,225.52 70.53,225.12 71.28,224.71 72.04,224.31 72.79,223.90 73.54,223.49 74.29,223.09 75.04,222.68 75.79,222.28 76.54,221.87 77.29,221.46 78.04,221.06 78.79,220.65 79.54,220.25 80.29,219.84 81.04,219.43 81.79,219.03 82.55,218.62 83.30,218.22 84.05,217.81 84.80,217.40 85.55,217.00 86.30,216.59 87.05,216.19 87.80,215.78 88.55,215.37 89.30,214.97 90.05,214.56 90.80,214.16 91.55,213.75 92.30,213.34 93.06,212.94 93.81,212.53 94.56,212.12 95.31,211.72 96.06,211.31 96.81,210.91 97.56,210.50 98.31,210.09 99.06,209.69 99.81,209.28 100.56,208.88 101.31,208.47 102.06,208.06 102.82,207.66 103.57,207.25 104.32,206.85 105.07,206.44 105.82,206.03 106.57,205.63 107.32,205.22 108.07,204.82 108.82,204.41 109.57,204.00 110.32,203.60 111.07,203.19 111.82,202.79 112.57,202.38 113.33,201.97 114.08,201.57 114.83,201.16 115.58,200.76 116.33,200.35 117.08,199.94 117.83,199.54 118.58,199.13 119.33,198.73 120.08,198.32 120.83,197.91 121.58,197.51 122.33,197.10 123.09,196.69 123.84,196.29 124.59,195.88 125.34,195.48 126.09,195.07 126.84,194.66 127.59,194.26 128.34,193.85 129.09,193.45 129.84,193.04 130.59,192.63 131.34,192.23 132.09,191.82 132.84,191.42 133.60,191.01 134.35,190.60 135.10,190.20 135.85,189.79 136.60,189.39 137.35,188.98 138.10,188.57 138.85,188.17 139.60,187.76 140.35,187.36 141.10,186.95 141.85,186.54 142.60,186.14 143.35,185.73 144.11,185.33 144.86,184.92 145.61,184.51 146.36,184.11 147.11,183.70 147.86,183.30 148.61,182.89 149.36,182.48 150.11,182.08 150.86,181.67 151.61,181.27 152.36,180.86 153.11,180.45 153.87,180.05 154.62,179.64 155.37,179.23 156.12,178.83 156.87,178.42 157.62,178.02 158.37,177.61 159.12,177.20 159.87,176.80 160.62,176.39 161.37,175.99 162.12,175.58 162.87,175.17 163.62,174.77 164.38,174.36 165.13,173.96 165.88,173.55 166.63,173.14 167.38,172.74 168.13,172.33 168.88,171.93 169.63,171.52 170.38,171.11 171.13,170.71 171.88,170.30 172.63,169.90 173.38,169.49 174.13,169.08 174.89,168.68 175.64,168.27 176.39,167.87 177.14,167.46 177.89,167.05 178.64,166.65 179.39,166.24 180.14,165.84 180.89,165.43 181.64,165.02 182.39,164.62 183.14,164.21 183.89,163.80 184.65,163.40 185.40,162.99 186.15,162.59 186.90,162.18 187.65,161.77 188.40,161.37 189.15,160.96 189.90,160.56 190.65,160.15 191.40,159.74 192.15,159.34 192.90,158.93 193.65,158.53 194.40,158.12 195.16,157.71 195.91,157.31 196.66,156.90 197.41,156.50 198.16,156.09 198.91,155.68 199.66,155.28 200.41,154.87 201.16,154.47 201.91,154.06 202.66,153.65 203.41,153.25 204.16,152.84 204.91,152.44 205.67,152.03 206.42,151.62 207.17,151.22 207.92,150.81 208.67,150.41 209.42,150.00 210.17,149.59 210.92,149.19 211.67,148.78 212.42,148.37 213.17,147.97 213.92,147.56 214.67,147.16 215.43,146.75 216.18,146.34 216.93,145.94 217.68,145.53 218.43,145.13 219.18,144.72 219.93,144.31 220.68,143.91 221.43,143.50 222.18,143.10 222.93,142.69 223.68,142.28 224.43,141.88 225.18,141.47 225.94,141.07 226.69,140.66 227.44,140.25 228.19,139.85 228.94,139.44 229.69,139.04 230.44,138.63 231.19,138.22 231.94,137.82 232.69,137.41 233.44,137.01 234.19,136.60 234.94,136.19 235.70,135.79 236.45,135.38 237.20,134.98 237.95,134.57 238.70,134.16 239.45,133.76 240.20,133.35 240.95,132.94 241.70,132.54 242.45,132.13 243.20,131.73 243.95,131.32 244.70,130.91 245.45,130.51 246.21,130.10 246.96,129.70 247.71,129.29 248.46,128.88 249.21,128.48 249.96,128.07 250.71,127.67 251.46,127.26 252.21,126.85 252.96,126.45 253.71,126.04 254.46,125.64 255.21,125.23 255.96,124.82 256.72,124.42 257.47,124.01 258.22,123.61 258.97,123.20 259.72,122.79 260.47,122.39 261.22,121.98 261.97,121.58 262.72,121.17 263.47,120.76 264.22,120.36 264.97,119.95 265.72,119.55 266.48,119.14 267.23,118.73 267.98,118.33 268.73,117.92 269.48,117.51 270.23,117.11 270.98,116.70 271.73,116.30 272.48,115.89 273.23,115.48 273.98,115.08 274.73,114.67 275.48,114.27 276.23,113.86 276.99,113.45 277.74,113.05 278.49,112.64 279.24,112.24 279.99,111.83 280.74,111.42 281.49,111.02 282.24,110.61 282.99,110.21 283.74,109.80 284.49,109.39 285.24,108.99 285.99,108.58 286.74,108.18 287.50,107.77 288.25,107.36 289.00,106.96 289.75,106.55 290.50,106.15 291.25,105.74 292.00,105.33 292.75,104.93 293.50,104.52 294.25,104.12 295.00,103.71 295.75,103.30 296.50,102.90 297.26,102.49 298.01,102.08 298.76,101.68 299.51,101.27 300.26,100.87 301.01,100.46 301.76,100.05 302.51,99.65 303.26,99.24 304.01,98.84 304.76,98.43 305.51,98.02 306.26,97.62 307.01,97.21 307.77,96.81 308.52,96.40 309.27,95.99 310.02,95.59 310.77,95.18 311.52,94.78 312.27,94.37 313.02,93.96 313.77,93.56 314.52,93.15 315.27,92.75 316.02,92.34 316.77,91.93 317.52,91.53 318.28,91.12 319.03,90.72 319.78,90.31 320.53,89.90 321.28,89.50 322.03,89.09 322.78,88.69 323.53,88.28 324.28,87.87 325.03,87.47 325.78,87.06 326.53,86.65 327.28,86.25 328.04,85.84 328.79,85.44 329.54,85.03 330.29,84.62 331.04,84.22 331.79,83.81 332.54,83.41 333.29,83.00 334.04,82.59 334.79,82.19 335.54,81.78 336.29,81.38 337.04,80.97 337.79,80.56 338.55,80.16 339.30,79.75 340.05,79.35 340.80,78.94 341.55,78.53 342.30,78.13 343.05,77.72 343.80,77.32 344.55,76.91 345.30,76.50 346.05,76.10 346.80,75.69 347.55,75.29 348.30,74.88 349.06,74.47 349.81,74.07 350.56,73.66 351.31,73.26 352.06,72.85 352.81,72.44 353.56,72.04 354.31,71.63 355.06,71.22 355.81,70.82 356.56,70.41 357.31,70.01 358.06,69.60 358.82,69.19 359.57,68.79 360.32,68.38 361.07,67.98 361.82,67.57 362.57,67.16 363.32,66.76 364.07,66.35 364.82,65.95 365.57,65.54 366.32,65.13 367.07,64.73 367.82,64.32 368.57,63.92 369.33,63.51 370.08,63.10 370.83,62.70 371.58,62.29 372.33,61.89 373.08,61.48 373.83,61.07 374.58,60.67 375.33,60.26 376.08,59.86 376.83,59.45 377.58,59.04 378.33,58.64 379.09,58.23 379.84,57.83 380.59,57.42 381.34,57.01 382.09,56.61 382.84,56.20 383.59,55.80 384.34,55.39 385.09,54.98 385.84,54.58 386.59,54.17 387.34,53.76 388.09,53.36 388.84,52.95 389.60,52.55 390.35,52.14 391.10,51.73 391.85,51.33 392.60,50.92 393.35,50.52 394.10,50.11 394.85,49.70 395.60,49.30 396.35,48.89 397.10,48.49 397.85,48.08 398.60,47.67 399.35,47.27 400.11,46.86 400.86,46.46 401.61,46.05 402.36,45.64 403.11,45.24 403.86,44.83 404.61,44.43 405.36,44.02 406.11,43.61 406.86,43.21 407.61,42.80 408.36,42.40 409.11,41.99 409.87,41.58 410.62,41.18 411.37,40.77 412.12,40.37 412.87,39.96 413.62,39.55 414.37,39.15 415.12,38.74 415.87,38.33 416.62,37.93 417.37,37.52 418.12,37.12 418.87,36.71 419.62,36.30 420.38,36.10 421.13,36.51 421.88,36.91 422.63,37.32 423.38,37.73 424.13,38.13 424.88,38.54 425.63,38.94 426.38,39.35 427.13,39.76 427.88,40.16 428.63,40.57 429.38,40.97 430.13,41.38 430.89,41.79 431.64,42.19 432.39,42.60 433.14,43.00 433.89,43.41 434.64,43.82 435.39,44.22 436.14,44.63 436.89,45.03 437.64,45.44 438.39,45.85 439.14,46.25 439.89,46.66 440.65,47.06 441.40,47.47 442.15,47.88 442.90,48.28 443.65,48.69 444.40,49.10 445.15,49.50 445.90,49.91 446.65,50.31 447.40,50.72 448.15,51.13 448.90,51.53 449.65,51.94 450.40,52.34 451.16,52.75 451.91,53.16 452.66,53.56 453.41,53.97 454.16,54.37 454.91,54.78 455.66,55.19 456.41,55.59 457.16,56.00 457.91,56.40 458.66,56.81 459.41,57.22 460.16,57.62 460.91,58.03 461.67,58.43 462.42,58.84 463.17,59.25 463.92,59.65 464.67,60.06 465.42,60.46 466.17,60.87 466.92,61.28 467.67,61.68 468.42,62.09 469.17,62.49 469.92,62.90 470.67,63.31 471.43,63.71 472.18,64.12 472.93,64.53 473.68,64.93 474.43,65.34 475.18,65.74 475.93,66.15 476.68,66.56 477.43,66.96 478.18,67.37 478.93,67.77 479.68,68.18 480.43,68.59 481.18,68.99 481.94,69.40 482.69,69.80 483.44,70.21 484.19,70.62 484.94,71.02 485.69,71.43 486.44,71.83 487.19,72.24 487.94,72.65 488.69,73.05 489.44,73.46 490.19,73.86 490.94,74.27 491.70,74.68 492.45,75.08 493.20,75.49 493.95,75.89 494.70,76.30 495.45,76.71 496.20,77.11 496.95,77.52 497.70,77.92 498.45,78.33 499.20,78.74 499.95,79.14 500.70,79.55 501.45,79.96 502.21,80.36 502.96,80.77 503.71,81.17 504.46,81.58 505.21,81.99 505.96,82.39 506.71,82.80 507.46,83.20 508.21,83.61 508.96,84.02 509.71,84.42 510.46,84.83 511.21,85.23 511.96,85.64 512.72,86.05 513.47,86.45 514.22,86.86 514.97,87.26 515.72,87.67 516.47,88.08 517.22,88.48 517.97,88.89 518.72,89.29 519.47,89.70 520.22,90.11 520.97,90.51 521.72,90.92 522.48,91.32 523.23,91.73 523.98,92.14 524.73,92.54 525.48,92.95 526.23,93.35 526.98,93.76 527.73,94.17 528.48,94.57 529.23,94.98 529.98,95.39 530.73,95.79 531.48,96.20 532.23,96.60 532.99,97.01 533.74,97.42 534.49,97.82 535.24,98.23 535.99,98.63 536.74,99.04 537.49,99.45 538.24,99.85 538.99,100.26 539.74,100.66 540.49,101.07 541.24,101.48 541.99,101.88 542.74,102.29 543.50,102.69 544.25,103.10 545.00,103.51 545.75,103.91 546.50,104.32 547.25,104.72 548.00,105.13 548.75,105.54 549.50,105.94 550.25,106.35 551.00,106.75 551.75,107.16 552.50,107.57 553.26,107.97 554.01,108.38 554.76,108.78 555.51,109.19 556.26,109.60 557.01,110.00 557.76,110.41 558.51,110.82 559.26,111.22 560.01,111.63 560.76,112.03 561.51,112.44 562.26,112.85 563.01,113.25 563.77,113.66 564.52,114.06 565.27,114.47 566.02,114.88 566.77,115.28 567.52,115.69 568.27,116.09 569.02,116.50 569.77,116.91 570.52,117.31 571.27,117.72 572.02,118.12 572.77,118.53 573.52,118.94 574.28,119.34 575.03,119.75 575.78,120.15 576.53,120.56 577.28,120.97 578.03,121.37 578.78,121.78 579.53,122.18 580.28,122.59 581.03,123.00 581.78,123.40 582.53,123.81 583.28,124.21 584.04,124.62 584.79,125.03 585.54,125.43 586.29,125.84 587.04,126.24 587.79,126.65 588.54,127.06 589.29,127.46 590.04,127.87 590.79,128.28 591.54,128.68 592.29,129.09 593.04,129.49 593.79,129.90 594.55,130.31 595.30,130.71 596.05,131.12 596.80,131.52 597.55,131.93 598.30,132.34 599.05,132.74 599.80,133.15 600.55,133.55 601.30,133.96 602.05,134.37 602.80,134.77 603.55,135.18 604.30,135.58 605.06,135.99 605.81,136.40 606.56,136.80 607.31,137.21 608.06,137.61 608.81,138.02 609.56,138.43 610.31,138.83 611.06,139.24 611.81,139.64 612.56,140.05 613.31,140.46 614.06,140.86 614.82,141.27 615.57,141.67 616.32,142.08 617.07,142.49 617.82,142.89 618.57,143.30 619.32,143.71 620.07,144.11 620.82,144.52 621.57,144.92 622.32,145.33 623.07,145.74 623.82,146.14 624.57,146.55 625.33,146.95 626.08,147.36 626.83,147.77 627.58,148.17 628.33,148.58 629.08,148.98 629.83,149.39 630.58,149.80 631.33,150.20 632.08,150.61 632.83,151.01 633.58,151.42 634.33,151.83 635.09,152.23 635.84,152.64 636.59,153.04 637.34,153.45 638.09,153.86 638.84,154.26 639.59,154.67 640.34,155.07 641.09,155.48 641.84,155.89 642.59,156.29 643.34,156.70 644.09,157.10 644.84,157.51 645.60,157.92 646.35,158.32 647.10,158.73 647.85,159.14 648.60,159.54 649.35,159.95 650.10,160.35 650.85,160.76 651.60,161.17 652.35,161.57 653.10,161.98 653.85,162.38 654.60,162.79 655.35,163.20 656.11,163.60 656.86,164.01 657.61,164.41 658.36,164.82 659.11,165.23 659.86,165.63 660.61,166.04 661.36,166.44 662.11,166.85 662.86,167.26 663.61,167.66 664.36,168.07 665.11,168.47 665.87,168.88 666.62,169.29 667.37,169.69 668.12,170.10 668.87,170.50 669.62,170.91 670.37,171.32 671.12,171.72 671.87,172.13 672.62,172.53 673.37,172.94 674.12,173.35 674.87,173.75 675.62,174.16 676.38,174.57 677.13,174.97 677.88,175.38 678.63,175.78 679.38,176.19 680.13,176.60 680.88,177.00 681.63,177.41 682.38,177.81 683.13,178.22 683.88,178.63 684.63,179.03 685.38,179.44 686.13,179.84 686.89,180.25 687.64,180.66 688.39,181.06 689.14,181.47 689.89,181.87 690.64,182.28 691.39,182.69 692.14,183.09 692.89,183.50 693.64,183.90 694.39,184.31 695.14,184.72 695.89,185.12 696.65,185.53 697.40,185.93 698.15,186.34 698.90,186.75 699.65,187.15 700.40,187.56 701.15,187.96 701.90,188.37 702.65,188.78 703.40,189.18 704.15,189.59 704.90,190.00 705.65,190.40 706.40,190.81 707.16,191.21 707.91,191.62 708.66,192.03 709.41,192.43 710.16,192.84 710.91,193.24 711.66,193.65 712.41,194.06 713.16,194.46 713.91,194.87 714.66,195.27 715.41,195.68 716.16,196.09 716.91,196.49 717.67,196.90 718.42,197.30 719.17,197.71 719.92,198.12 720.67,198.52 721.42,198.93 722.17,199.33 722.92,199.74 723.67,200.15 724.42,200.55 725.17,200.96 725.92,201.36 726.67,201.77 727.43,202.18 728.18,202.58 728.93,202.99 729.68,203.39 730.43,203.80 731.18,204.21 731.93,204.61 732.68,205.02 733.43,205.43 734.18,205.83 734.93,206.24 735.68,206.64 736.43,207.05 737.18,207.46 737.94,207.86 738.69,208.27 739.44,208.67 740.19,209.08 740.94,209.49 741.69,209.89 742.44,210.30 743.19,210.70 743.94,211.11 744.69,211.52 745.44,211.92 746.19,212.33 746.94,212.73 747.70,213.14 748.45,213.55 749.20,213.95 749.95,214.36 750.70,214.76 751.45,215.17 752.20,215.58 752.95,215.98 753.70,216.39 754.45,216.79 755.20,217.20 755.95,217.61 756.70,218.01 757.45,218.42 758.21,218.82 758.96,219.23 759.71,219.64 760.46,220.04 761.21,220.45 761.96,220.86 762.71,221.26 763.46,221.67 764.21,222.07 764.96,222.48 765.71,222.89 766.46,223.29 767.21,223.70 767.96,224.10 768.72,224.51 769.47,224.92 770.22,225.32 770.97,225.73 771.72,226.13 772.47,226.54 773.22,226.95 773.97,227.35 774.72,227.76 775.47,228.16 776.22,228.57 776.97,228.98 777.72,229.38 778.48,229.79 779.23,230.19 779.98,230.60 780.73,231.01 781.48,231.41 782.23,231.82 782.98,232.22 783.73,232.63 784.48,233.04 785.23,233.44 785.98,233.85 786.73,234.25 787.48,234.66 788.23,235.07 788.99,235.47 789.74,235.88 790.49,236.29 791.24,236.69 791.99,237.10 792.74,237.50 793.49,237.91 794.24,238.32 794.99,238.72 795.74,239.13 796.49,239.53 797.24,239.94 797.99,240.35 798.74,240.75 799.50,241.16 800.25,241.56 801.00,241.97 801.75,242.38 802.50,242.78 803.25,243.19 804.00,243.80" />
  <text x="420.0" y="22" text-anchor="middle" font-family="Arial, Helvetica, sans-serif" font-size="15" fill="#102a43">triangular window (time domain)</text>
  <text x="420.0" y="272" text-anchor="middle" font-family="Arial, Helvetica, sans-serif" font-size="12" fill="#334e68">normalized sample index</text>
  <text x="14" y="140.0" transform="rotate(-90 14,140.0)" text-anchor="middle" font-family="Arial, Helvetica, sans-serif" font-size="12" fill="#334e68">amplitude</text>
  <text x="36" y="262" font-family="Arial, Helvetica, sans-serif" font-size="11" fill="#486581">0</text>
  <text x="804" y="262" text-anchor="end" font-family="Arial, Helvetica, sans-serif" font-size="11" fill="#486581">1</text>
  <text x="30" y="40" text-anchor="end" font-family="Arial, Helvetica, sans-serif" font-size="11" fill="#486581">1.0</text>
  <text x="30" y="248" text-anchor="end" font-family="Arial, Helvetica, sans-serif" font-size="11" fill="#486581">0.0</text>
</svg>
