<svg xmlns="http://www.w3.org/2000/svg" width="840" height="280" viewBox="0 0 840 280">
  <rect x="0" y="0" width="840" height="280" fill="#ffffff" />
  <rect x="36" y="36" width="768" height="208" fill="#f7fbff" stroke="#c8d9e6" />
  <polyline fill="none" stroke="#005f73" stroke-width="2" points="36.00,244.00 36.75,243.99 37.50,243.97 38.25,243.93 39.00,243.87 39.75,243.80 40.50,243.72 41.26,243.62 42.01,243.50 42.76,243.37 43.51,243.22 44.26,243.05 45.01,242.87 45.76,242.68 46.51,242.47 47.26,242.24 48.01,242.00 48.76,241.74 49.51,241.47 50.26,241.18 51.01,240.88 51.77,240.56 52.52,240.23 53.27,239.88 54.02,239.52 54.77,239.14 55.52,238.75 56.27,238.34 57.02,237.91 57.77,237.48 58.52,237.02 59.27,236.56 60.02,236.08 60.77,235.58 61.52,235.07 62.28,234.54 63.03,234.01 63.78,233.45 64.53,232.88 65.28,232.30 66.03,231.71 66.78,231.10 67.53,230.48 68.28,229.84 69.03,229.19 69.78,228.53 70.53,227.85 71.28,227.16 72.04,226.46 72.79,225.74 73.54,225.01 74.29,224.27 75.04,223.51 75.79,222.75 76.54,221.97 77.29,221.18 78.04,220.37 78.79,219.55 79.54,218.73 80.29,217.89 81.04,217.03 81.79,216.17 82.55,215.30 83.30,214.41 84.05,213.51 84.80,212.60 85.55,211.68 86.30,210.75 87.05,209.81 87.80,208.86 88.55,207.90 89.30,206.92 90.05,205.94 90.80,204.95 91.55,203.95 92.30,202.94 93.06,201.91 93.81,200.88 94.56,199.84 95.31,198.80 96.06,197.74 96.81,196.67 97.56,195.60 98.31,194.51 99.06,193.42 99.81,192.32 100.56,191.21 101.31,190.10 102.06,188.98 102.82,187.85 103.57,186.71 104.32,185.57 105.07,184.41 105.82,183.26 106.57,182.09 107.32,180.92 108.07,179.74 108.82,178.56 109.57,177.37 110.32,176.18 111.07,174.98 111.82,173.77 112.57,172.56 113.33,171.35 114.08,170.13 114.83,168.90 115.58,167.67 116.33,166.44 117.08,165.20 117.83,163.96 118.58,162.72 119.33,161.47 120.08,160.22 120.83,158.97 121.58,157.71 122.33,156.45 123.09,155.19 123.84,153.92 124.59,152.66 125.34,151.39 126.09,150.12 126.84,148.85 127.59,147.57 128.34,146.30 129.09,145.03 129.84,143.75 130.59,142.47 131.34,141.20 132.09,139.92 132.84,138.64 133.60,137.37 134.35,136.09 135.10,134.81 135.85,133.54 136.60,132.27 137.35,130.99 138.10,129.72 138.85,128.45 139.60,127.18 140.35,125.92 141.10,124.65 141.85,123.39 142.60,122.13 143.35,120.88 144.11,119.62 144.86,118.37 145.61,117.12 146.36,115.88 147.11,114.64 147.86,113.40 148.61,112.17 149.36,110.94 150.11,109.72 150.86,108.50 151.61,107.29 152.36,106.08 153.11,104.87 153.87,103.67 154.62,102.48 155.37,101.29 156.12,100.11 156.87,98.93 157.62,97.76 158.37,96.60 159.12,95.44 159.87,94.29 160.62,93.15 161.37,92.01 162.12,90.88 162.87,89.76 163.62,88.65 164.38,87.54 165.13,86.44 165.88,85.35 166.63,84.27 167.38,83.19 168.13,82.13 168.88,81.07 169.63,80.03 170.38,78.99 171.13,77.96 171.88,76.94 172.63,75.93 173.38,74.93 174.13,73.93 174.89,72.95 175.64,71.98 176.39,71.02 177.14,70.07 177.89,69.13 178.64,68.20 179.39,67.28 180.14,66.38 180.89,65.48 181.64,64.59 182.39,63.72 183.14,62.86 183.89,62.01 184.65,61.17 185.40,60.34 186.15,59.53 186.90,58.73 187.65,57.93 188.40,57.16 189.15,56.39 189.90,55.64 190.65,54.90 191.40,54.17 192.15,53.46 192.90,52.75 193.65,52.07 194.40,51.39 195.16,50.73 195.91,50.08 196.66,49.45 197.41,48.82 198.16,48.22 198.91,47.62 199.66,47.04 200.41,46.48 201.16,45.93 201.91,45.39 202.66,44.87 203.41,44.36 204.16,43.86 204.91,43.38 205.67,42.92 206.42,42.47 207.17,42.03 207.92,41.61 208.67,41.20 209.42,40.81 210.17,40.44 210.92,40.07 211.67,39.73 212.42,39.40 213.17,39.08 213.92,38.78 214.67,38.49 215.43,38.22 216.18,37.97 216.93,37.73 217.68,37.51 218.43,37.30 219.18,37.10 219.93,36.93 220.68,36.76 221.43,36.62 222.18,36.49 222.93,36.37 223.68,36.27 224.43,36.19 225.18,36.12 225.94,36.06 226.69,36.03 227.44,36.01 228.19,36.00 228.94,36.00 229.69,36.00 230.44,36.00 231.19,36.00 231.94,36.00 232.69,36.00 233.44,36.00 234.19,36.00 234.94,36.00 235.70,36.00 236.45,36.00 237.20,36.00 237.95,36.00 238.70,36.00 239.45,36.00 240.20,36.00 240.95,36.00 241.70,36.00 242.45,36.00 243.20,36.00 243.95,36.00 244.70,36.00 245.45,36.00 246.21,36.00 246.96,36.00 247.71,36.00 248.46,36.00 249.21,36.00 249.96,36.00 250.71,36.00 251.46,36.00 252.21,36.00 252.96,36.00 253.71,36.00 254.46,36.00 255.21,36.00 255.96,36.00 256.72,36.00 257.47,36.00 258.22,36.00 258.97,36.00 259.72,36.00 260.47,36.00 261.22,36.00 261.97,36.00 262.72,36.00 263.47,36.00 264.22,36.00 264.97,36.00 265.72,36.00 266.48,36.00 267.23,36.00 267.98,36.00 268.73,36.00 269.48,36.00 270.23,36.00 270.98,36.00 271.73,36.00 272.48,36.00 273.23,36.00 273.98,36.00 274.73,36.00 275.48,36.00 276.23,36.00 276.99,36.00 277.74,36.00 278.49,36.00 279.24,36.00 279.99,36.00 280.74,36.00 281.49,36.00 282.24,36.00 282.99,36.00 283.74,36.00 284.49,36.00 285.24,36.00 285.99,36.00 286.74,36.00 287.50,36.00 288.25,36.00 289.00,36.00 289.75,36.00 290.50,36.00 291.25,36.00 292.00,36.00 292.75,36.00 293.50,36.00 294.25,36.00 295.00,36.00 295.75,36.00 296.50,36.00 297.26,36.00 298.01,36.00 298.76,36.00 299.51,36.00 300.26,36.00 301.01,36.00 301.76,36.00 302.51,36.00 303.26,36.00 304.01,36.00 304.76,36.00 305.51,36.00 306.26,36.00 307.01,36.00 307.77,36.00 308.52,36.00 309.27,36.00 310.02,36.00 310.77,36.00 311.52,36.00 312.27,36.00 313.02,36.00 313.77,36.00 314.52,36.00 315.27,36.00 316.02,36.00 316.77,36.00 317.52,36.00 318.28,36.00 319.03,36.00 319.78,36.00 320.53,36.00 321.28,36.00 322.03,36.00 322.78,36.00 323.53,36.00 324.28,36.00 325.03,36.00 325.78,36.00 326.53,36.00 327.28,36.00 328.04,36.00 328.79,36.00 329.54,36.00 330.29,36.00 331.04,36.00 331.79,36.00 332.54,36.00 333.29,36.00 334.04,36.00 334.79,36.00 335.54,36.00 336.29,36.00 337.04,36.00 337.79,36.00 338.55,36.00 339.30,36.00 340.05,36.00 340.80,36.00 341.55,36.00 342.30,36.00 343.05,36.00 343.80,36.00 344.55,36.00 345.30,36.00 346.05,36.00 346.80,36.00 347.55,36.00 348.30,36.00 349.06,36.00 349.81,36.00 350.56,36.00 351.31,36.00 352.06,36.00 352.81,36.00 353.56,36.00 354.31,36.00 355.06,36.00 355.81,36.00 356.56,36.00 357.31,36.00 358.06,36.00 358.82,36.00 359.57,36.00 360.32,36.00 361.07,36.00 361.82,36.00 362.57,36.00 363.32,36.00 364.07,36.00 364.82,36.00 365.57,36.00 366.32,36.00 367.07,36.00 367.82,36.00 368.57,36.00 369.33,36.00 370.08,36.00 370.83,36.00 371.58,36.00 372.33,36.00 373.08,36.00 373.83,36.00 374.58,36.00 375.33,36.00 376.08,36.00 376.83,36.00 377.58,36.00 378.33,36.00 379.09,36.00 379.84,36.00 380.59,36.00 381.34,36.00 382.09,36.00 382.84,36.00 383.59,36.00 384.34,36.00 385.09,36.00 385.84,36.00 386.59,36.00 387.34,36.00 388.09,36.00 388.84,36.00 389.60,36.00 390.35,36.00 391.10,36.00 391.85,36.00 392.60,36.00 393.35,36.00 394.10,36.00 394.85,36.00 395.60,36.00 396.35,36.00 397.10,36.00 397.85,36.00 398.60,36.00 399.35,36.00 400.11,36.00 400.86,36.00 401.61,36.00 402.36,36.00 403.11,36.00 403.86,36.00 404.61,36.00 405.36,36.00 406.11,36.00 406.86,36.00 407.61,36.00 408.36,36.00 409.11,36.00 409.87,36.00 410.62,36.00 411.37,36.00 412.12,36.00 412.87,36.00 413.62,36.00 414.37,36.00 415.12,36.00 415.87,36.00 416.62,36.00 417.37,36.00 418.12,36.00 418.87,36.00 419.62,36.00 420.38,36.00 421.13,36.00 421.88,36.00 422.63,36.00 423.38,36.00 424.13,36.00 424.88,36.00 425.63,36.00 426.38,36.00 427.13,36.00 427.88,36.00 428.63,36.00 429.38,36.00 430.13,36.00 430.89,36.00 431.64,36.00 432.39,36.00 433.14,36.00 433.89,36.00 434.64,36.00 435.39,36.00 436.14,36.00 436.89,36.00 437.64,36.00 438.39,36.00 439.14,36.00 439.89,36.00 440.65,36.00 441.40,36.00 442.15,36.00 442.90,36.00 443.65,36.00 444.40,36.00 445.15,36.00 445.90,36.00 446.65,36.00 447.40,36.00 448.15,36.00 448.90,36.00 449.65,36.00 450.40,36.00 451.16,36.00 451.91,36.00 452.66,36.00 453.41,36.00 454.16,36.00 454.91,36.00 455.66,36.00 456.41,36.00 457.16,36.00 457.91,36.00 458.66,36.00 459.41,36.00 460.16,36.00 460.91,36.00 461.67,36.00 462.42,36.00 463.17,36.00 463.92,36.00 464.67,36.00 465.42,36.00 466.17,36.00 466.92,36.00 467.67,36.00 468.42,36.00 469.17,36.00 469.92,36.00 470.67,36.00 471.43,36.00 472.18,36.00 472.93,36.00 473.68,36.00 474.43,36.00 475.18,36.00 475.93,36.00 476.68,36.00 477.43,36.00 478.18,36.00 478.93,36.00 479.68,36.00 480.43,36.00 481.18,36.00 481.94,36.00 482.69,36.00 483.44,36.00 484.19,36.00 484.94,36.00 485.69,36.00 486.44,36.00 487.19,36.00 487.94,36.00 488.69,36.00 489.44,36.00 490.19,36.00 490.94,36.00 491.70,36.00 492.45,36.00 493.20,36.00 493.95,36.00 494.70,36.00 495.45,36.00 496.20,36.00 496.95,36.00 497.70,36.00 498.45,36.00 499.20,36.00 499.95,36.00 500.70,36.00 501.45,36.00 502.21,36.00 502.96,36.00 503.71,36.00 504.46,36.00 505.21,36.00 505.96,36.00 506.71,36.00 507.46,36.00 508.21,36.00 508.96,36.00 509.71,36.00 510.46,36.00 511.21,36.00 511.96,36.00 512.72,36.00 513.47,36.00 514.22,36.00 514.97,36.00 515.72,36.00 516.47,36.00 517.22,36.00 517.97,36.00 518.72,36.00 519.47,36.00 520.22,36.00 520.97,36.00 521.72,36.00 522.48,36.00 523.23,36.00 523.98,36.00 524.73,36.00 525.48,36.00 526.23,36.00 526.98,36.00 527.73,36.00 528.48,36.00 529.23,36.00 529.98,36.00 530.73,36.00 531.48,36.00 532.23,36.00 532.99,36.00 533.74,36.00 534.49,36.00 535.24,36.00 535.99,36.00 536.74,36.00 537.49,36.00 538.24,36.00 538.99,36.00 539.74,36.00 540.49,36.00 541.24,36.00 541.99,36.00 542.74,36.00 543.50,36.00 544.25,36.00 545.00,36.00 545.75,36.00 546.50,36.00 547.25,36.00 548.00,36.00 548.75,36.00 549.50,36.00 550.25,36.00 551.00,36.00 551.75,36.00 552.50,36.00 553.26,36.00 554.01,36.00 554.76,36.00 555.51,36.00 556.26,36.00 557.01,36.00 557.76,36.00 558.51,36.00 559.26,36.00 560.01,36.00 560.76,36.00 561.51,36.00 562.26,36.00 563.01,36.00 563.77,36.00 564.52,36.00 565.27,36.00 566.02,36.00 566.77,36.00 567.52,36.00 568.27,36.00 569.02,36.00 569.77,36.00 570.52,36.00 571.27,36.00 572.02,36.00 572.77,36.00 573.52,36.00 574.28,36.00 575.03,36.00 575.78,36.00 576.53,36.00 577.28,36.00 578.03,36.00 578.78,36.00 579.53,36.00 580.28,36.00 581.03,36.00 581.78,36.00 582.53,36.00 583.28,36.00 584.04,36.00 584.79,36.00 585.54,36.00 586.29,36.00 587.04,36.00 587.79,36.00 588.54,36.00 589.29,36.00 590.04,36.00 590.79,36.00 591.54,36.00 592.29,36.00 593.04,36.00 593.79,36.00 594.55,36.00 595.30,36.00 596.05,36.00 596.80,36.00 597.55,36.00 598.30,36.00 599.05,36.00 599.80,36.00 600.55,36.00 601.30,36.00 602.05,36.00 602.80,36.00 603.55,36.00 604.30,36.00 605.06,36.00 605.81,36.00 606.56,36.00 607.31,36.00 608.06,36.00 608.81,36.00 609.56,36.00 610.31,36.00 611.06,36.00 611.81,36.00 612.56,36.00 613.31,36.01 614.06,36.04 614.82,36.09 615.57,36.15 616.32,36.23 617.07,36.32 617.82,36.43 618.57,36.55 619.32,36.69 620.07,36.84 620.82,37.01 621.57,37.20 622.32,37.40 623.07,37.62 623.82,37.85 624.57,38.09 625.33,38.36 626.08,38.64 626.83,38.93 627.58,39.24 628.33,39.56 629.08,39.90 629.83,40.25 630.58,40.62 631.33,41.01 632.08,41.41 632.83,41.82 633.58,42.25 634.33,42.69 635.09,43.15 635.84,43.62 636.59,44.11 637.34,44.61 638.09,45.13 638.84,45.66 639.59,46.20 640.34,46.76 641.09,47.33 641.84,47.92 642.59,48.52 643.34,49.13 644.09,49.76 644.84,50.40 645.60,51.06 646.35,51.73 647.10,52.41 647.85,53.10 648.60,53.81 649.35,54.53 650.10,55.27 650.85,56.01 651.60,56.77 652.35,57.54 653.10,58.33 653.85,59.12 654.60,59.93 655.35,60.75 656.11,61.59 656.86,62.43 657.61,63.29 658.36,64.16 659.11,65.04 659.86,65.93 660.61,66.83 661.36,67.74 662.11,68.67 662.86,69.60 663.61,70.54 664.36,71.50 665.11,72.47 665.87,73.44 666.62,74.43 667.37,75.42 668.12,76.43 668.87,77.45 669.62,78.47 670.37,79.50 671.12,80.55 671.87,81.60 672.62,82.66 673.37,83.73 674.12,84.81 674.87,85.90 675.62,86.99 676.38,88.09 677.13,89.20 677.88,90.32 678.63,91.45 679.38,92.58 680.13,93.72 680.88,94.87 681.63,96.02 682.38,97.18 683.13,98.35 683.88,99.52 684.63,100.70 685.38,101.88 686.13,103.08 686.89,104.27 687.64,105.47 688.39,106.68 689.14,107.89 689.89,109.11 690.64,110.33 691.39,111.56 692.14,112.79 692.89,114.02 693.64,115.26 694.39,116.50 695.14,117.75 695.89,119.00 696.65,120.25 697.40,121.50 698.15,122.76 698.90,124.02 699.65,125.29 700.40,126.55 701.15,127.82 701.90,129.09 702.65,130.36 703.40,131.63 704.15,132.90 704.90,134.18 705.65,135.45 706.40,136.73 707.16,138.00 707.91,139.28 708.66,140.56 709.41,141.84 710.16,143.11 710.91,144.39 711.66,145.66 712.41,146.94 713.16,148.21 713.91,149.48 714.66,150.75 715.41,152.02 716.16,153.29 716.91,154.56 717.67,155.82 718.42,157.08 719.17,158.34 719.92,159.59 720.67,160.85 721.42,162.10 722.17,163.34 722.92,164.58 723.67,165.82 724.42,167.06 725.17,168.29 725.92,169.52 726.67,170.74 727.43,171.96 728.18,173.17 728.93,174.38 729.68,175.58 730.43,176.78 731.18,177.97 731.93,179.15 732.68,180.33 733.43,181.51 734.18,182.67 734.93,183.84 735.68,184.99 736.43,186.14 737.18,187.28 737.94,188.41 738.69,189.54 739.44,190.66 740.19,191.77 740.94,192.87 741.69,193.97 742.44,195.06 743.19,196.14 743.94,197.21 744.69,198.27 745.44,199.32 746.19,200.37 746.94,201.40 747.70,202.43 748.45,203.44 749.20,204.45 749.95,205.45 750.70,206.43 751.45,207.41 752.20,208.38 752.95,209.34 753.70,210.28 754.45,211.22 755.20,212.14 755.95,213.06 756.70,213.96 757.45,214.85 758.21,215.73 758.96,216.60 759.71,217.46 760.46,218.31 761.21,219.14 761.96,219.96 762.71,220.77 763.46,221.57 764.21,222.36 764.96,223.13 765.71,223.89 766.46,224.64 767.21,225.38 767.96,226.10 768.72,226.81 769.47,227.51 770.22,228.19 770.97,228.86 771.72,229.52 772.47,230.16 773.22,230.79 773.97,231.41 774.72,232.01 775.47,232.60 776.22,233.17 776.97,233.73 777.72,234.28 778.48,234.81 779.23,235.33 779.98,235.83 780.73,236.32 781.48,236.79 782.23,237.25 782.98,237.70 783.73,238.13 784.48,238.54 785.23,238.94 785.98,239.33 786.73,239.70 787.48,240.06 788.23,240.40 788.99,240.72 789.74,241.03 790.49,241.33 791.24,241.61 791.99,241.87 792.74,242.12 793.49,242.36 794.24,242.57 794.99,242.78 795.74,242.97 796.49,243.14 797.24,243.29 797.99,243.43 798.74,243.56 799.50,243.67 800.25,243.76 801.00,243.84 801.75,243.90 802.50,243.95 803.25,243.98 804.00,244.00" />
  <text x="420.0" y="22" text-anchor="middle" font-family="Arial, Helvetica, sans-serif" font-size="15" fill="#102a43">tukey window (time domain)</text>
  <text x="420.0" y="272" text-anchor="middle" font-family="Arial, Helvetica, sans-serif" font-size="12" fill="#334e68">normalized sample index</text>
  <text x="14" y="140.0" transform="rotate(-90 14,140.0)" text-anchor="middle" font-family="Arial, Helvetica, sans-serif" font-size="12" fill="#334e68">amplitude</text>
  <text x="36" y="262" font-family="Arial, Helvetica, sans-serif" font-size="11" fill="#486581">0</text>
  <text x="804" y="262" text-anchor="end" font-family="Arial, Helvetica, sans-serif" font-size="11" fill="#486581">1</text>
  <text x="30" y="40" text-anchor="end" font-family="Arial, Helvetica, sans-serif" font-size="11" fill="#486581">1.0</text>
  <text x="30" y="248" text-anchor="end" font-family="Arial, Helvetica, sans-serif" font-size="11" fill="#486581">0.0</text>
</svg>
