<svg xmlns="http://www.w3.org/2000/svg" width="840" height="280" viewBox="0 0 840 280">
  <rect x="0" y="0" width="840" height="280" fill="#ffffff" />
  <rect x="36" y="36" width="768" height="208" fill="#f7fbff" stroke="#c8d9e6" />
  <polyline fill="none" stroke="#005f73" stroke-width="2" points="36.00,36.00 36.75,58.39 37.50,59.79 38.25,62.20 39.00,65.79 39.75,70.86 40.50,78.08 41.26,89.55 42.01,134.48 42.76,99.45 43.51,99.78 44.26,107.34 45.01,167.53 45.76,113.75 46.51,112.60 47.26,119.31 48.01,152.70 48.76,123.78 49.51,121.54 50.26,127.25 51.01,185.75 51.77,130.45 52.52,128.10 53.27,133.39 54.02,174.67 54.77,136.87 55.52,134.14 56.27,139.31 57.02,209.83 57.77,141.67 58.52,138.92 59.27,143.95 60.02,168.91 60.77,147.38 61.52,143.79 62.28,148.50 63.03,196.43 63.78,149.75 64.53,146.61 65.28,150.95 66.03,179.77 66.78,154.45 67.53,150.85 68.28,155.42 69.03,207.08 69.78,156.51 70.53,153.25 71.28,157.58 72.04,178.17 72.79,161.56 73.54,157.24 74.29,161.53 75.04,203.88 75.79,161.82 76.54,158.32 77.29,162.12 78.04,185.46 78.79,166.34 79.54,162.13 80.29,166.38 81.04,211.01 81.79,166.68 82.55,163.14 83.30,167.00 84.05,184.70 84.80,171.91 85.55,166.99 86.30,171.01 87.05,209.52 87.80,170.63 88.55,166.90 89.30,170.29 90.05,190.20 90.80,175.47 91.55,170.71 92.30,174.73 93.06,214.92 93.81,174.43 94.56,170.69 95.31,174.16 96.06,189.77 96.81,180.19 97.56,174.69 98.31,178.49 99.06,214.06 99.81,177.55 100.56,173.64 101.31,176.71 102.06,194.18 102.82,182.97 103.57,177.68 104.32,181.50 105.07,218.41 105.82,180.67 106.57,176.78 107.32,179.93 108.07,193.90 108.82,187.18 109.57,181.08 110.32,184.69 111.07,217.86 111.82,183.25 112.57,179.20 113.33,181.98 114.08,197.59 114.83,189.42 115.58,183.56 116.33,187.21 117.08,221.51 117.83,185.91 118.58,181.88 119.33,184.74 120.08,197.40 120.83,193.30 121.58,186.56 122.33,190.00 123.09,221.14 123.84,188.09 124.59,183.93 125.34,186.44 126.09,200.56 126.84,195.14 127.59,188.68 128.34,192.16 129.09,224.28 129.84,190.41 130.59,186.26 131.34,188.86 132.09,200.42 132.84,198.83 133.60,191.39 134.35,194.65 135.10,224.02 135.85,192.30 136.60,188.03 137.35,190.30 138.10,203.20 138.85,200.34 139.60,193.22 140.35,196.54 141.10,226.78 141.85,194.35 142.60,190.10 143.35,192.46 144.11,203.10 144.86,203.94 145.61,195.71 146.36,198.80 147.11,226.61 147.86,196.02 148.61,191.65 149.36,193.70 150.11,205.56 150.86,205.18 151.61,197.32 152.36,200.47 153.11,229.07 153.87,197.86 154.62,193.51 155.37,195.65 156.12,205.49 156.87,208.78 157.62,199.64 158.37,202.56 159.12,228.95 159.87,199.36 160.62,194.89 161.37,196.74 162.12,207.71 162.87,209.76 163.62,201.06 164.38,204.05 165.13,231.17 165.88,201.03 166.63,196.58 167.38,198.51 168.13,207.66 168.88,213.44 169.63,203.25 170.38,205.99 171.13,231.09 171.88,202.38 172.63,197.82 173.38,199.48 174.13,209.68 174.89,214.20 175.64,204.53 176.39,207.34 177.14,233.12 177.89,203.91 178.64,199.37 179.39,201.11 180.14,209.65 180.89,218.04 181.64,206.61 182.39,209.16 183.14,233.08 183.89,205.14 184.65,200.50 185.40,201.97 186.15,211.49 186.90,218.56 187.65,207.76 188.40,210.38 189.15,234.94 189.90,206.55 190.65,201.93 191.40,203.48 192.15,211.48 192.90,222.71 193.65,209.76 194.40,212.11 195.16,234.93 195.91,207.69 196.66,202.96 197.41,204.26 198.16,213.18 198.91,222.97 199.66,210.79 200.41,213.22 201.16,236.66 201.91,208.99 202.66,204.29 203.41,205.66 204.16,213.17 204.91,227.59 205.67,212.73 206.42,214.87 207.17,236.67 207.92,210.05 208.67,205.25 209.42,206.38 210.17,214.75 210.92,227.55 211.67,213.67 212.42,215.89 213.17,238.28 213.92,211.27 214.67,206.49 215.43,207.69 216.18,214.75 216.93,232.95 217.68,215.56 218.43,217.47 219.18,238.32 219.93,212.25 220.68,207.37 221.43,208.35 222.18,216.23 222.93,232.48 223.68,216.41 224.43,218.42 225.18,239.82 225.94,213.39 226.69,208.53 227.44,209.58 228.19,216.24 228.94,239.28 229.69,218.27 230.44,219.94 231.19,239.88 231.94,214.32 232.69,209.36 233.44,210.18 234.19,217.61 234.94,238.11 235.70,219.04 236.45,220.81 237.20,241.30 237.95,215.39 238.70,210.46 239.45,211.34 240.20,217.63 240.95,244.00 241.70,220.88 242.45,222.28 243.20,241.38 243.95,216.27 244.70,211.23 245.45,211.91 246.21,218.93 246.96,244.00 247.71,221.57 248.46,223.09 249.21,242.72 249.96,217.28 250.71,212.26 251.46,213.00 252.21,218.95 252.96,244.00 253.71,223.41 254.46,224.52 255.21,242.81 255.96,218.11 256.72,212.99 257.47,213.53 258.22,220.18 258.97,244.00 259.72,224.03 260.47,225.27 261.22,244.00 261.97,219.07 262.72,213.98 263.47,214.57 264.22,220.21 264.97,244.00 265.72,225.87 266.48,226.66 267.23,244.00 267.98,219.85 268.73,214.67 269.48,215.07 270.23,221.36 270.98,244.00 271.73,226.43 272.48,227.36 273.23,244.00 273.98,220.77 274.73,215.60 275.48,216.06 276.23,221.40 276.99,244.00 277.74,228.27 278.49,228.73 279.24,244.00 279.99,221.52 280.74,216.26 281.49,216.53 282.24,222.49 282.99,244.00 283.74,228.77 284.49,229.37 285.24,244.00 285.99,222.39 286.74,217.15 287.50,217.47 288.25,222.54 289.00,244.00 289.75,230.64 290.50,230.72 291.25,244.00 292.00,223.11 292.75,217.77 293.50,217.91 294.25,223.58 295.00,244.00 295.75,231.08 296.50,231.32 297.26,244.00 298.01,223.94 298.76,218.62 299.51,218.81 300.26,223.63 301.01,244.00 301.76,232.99 302.51,232.65 303.26,244.00 304.01,224.64 304.76,219.23 305.51,219.24 306.26,224.62 307.01,244.00 307.77,233.37 308.52,233.21 309.27,244.00 310.02,225.43 310.77,220.04 311.52,220.10 312.27,224.67 313.02,243.15 313.77,235.33 314.52,234.52 315.27,244.00 316.02,226.11 316.77,220.62 317.52,220.51 318.28,225.62 319.03,244.00 319.78,235.65 320.53,235.04 321.28,244.00 322.03,226.87 322.78,221.40 323.53,221.33 324.28,225.68 325.03,242.45 325.78,237.67 326.53,236.34 327.28,244.00 328.04,227.53 328.79,221.96 329.54,221.73 330.29,226.59 331.04,244.00 331.79,237.93 332.54,236.82 333.29,244.00 334.04,228.26 334.79,222.70 335.54,222.52 336.29,226.65 337.04,242.04 337.79,240.04 338.55,238.11 339.30,244.00 340.05,228.90 340.80,223.25 341.55,222.90 342.30,227.52 343.05,243.51 343.80,240.24 344.55,238.55 345.30,244.00 346.05,229.61 346.80,223.97 347.55,223.66 348.30,227.59 349.06,241.83 349.81,242.45 350.56,239.84 351.31,244.00 352.06,230.23 352.81,224.50 353.56,224.03 354.31,228.42 355.06,243.16 355.81,242.58 356.56,240.25 357.31,244.00 358.06,230.91 358.82,225.19 359.57,224.76 360.32,228.50 361.07,241.76 361.82,244.00 362.57,241.54 363.32,244.00 364.07,231.53 364.82,225.70 365.57,225.12 366.32,229.30 367.07,242.98 367.82,244.00 368.57,241.92 369.33,244.00 370.08,232.18 370.83,226.37 371.58,225.83 372.33,229.38 373.08,241.80 373.83,244.00 374.58,243.20 375.33,244.00 376.08,232.79 376.83,226.88 377.58,226.18 378.33,230.15 379.09,242.93 379.84,244.00 380.59,243.55 381.34,244.00 382.09,233.43 382.84,227.53 383.59,226.87 384.34,230.23 385.09,241.91 385.84,244.00 386.59,244.00 387.34,244.00 388.09,234.03 388.84,228.02 389.60,227.21 390.35,230.98 391.10,242.97 391.85,244.00 392.60,244.00 393.35,244.00 394.10,234.64 394.85,228.65 395.60,227.87 396.35,231.07 397.10,242.09 397.85,244.00 398.60,244.00 399.35,244.00 400.11,235.24 400.86,229.13 401.61,228.21 402.36,231.79 403.11,243.08 403.86,244.00 404.61,244.00 405.36,244.00 406.11,235.84 406.86,229.74 407.61,228.85 408.36,231.88 409.11,242.32 409.87,244.00 410.62,244.00 411.37,244.00 412.12,236.43 412.87,230.22 413.62,229.19 414.37,232.58 415.12,243.25 415.87,244.00 416.62,244.00 417.37,244.00 418.12,237.01 418.87,230.82 419.62,229.81 420.38,232.68 421.13,242.58 421.88,244.00 422.63,244.00 423.38,244.00 424.13,237.60 424.88,231.29 425.63,230.14 426.38,233.35 427.13,243.46 427.88,244.00 428.63,244.00 429.38,244.00 430.13,238.17 430.89,231.87 431.64,230.74 432.39,233.46 433.14,242.87 433.89,244.00 434.64,244.00 435.39,244.00 436.14,238.76 436.89,232.34 437.64,231.07 438.39,234.11 439.14,243.71 439.89,244.00 440.65,244.00 441.40,244.00 442.15,239.32 442.90,232.90 443.65,231.66 444.40,234.22 445.15,243.19 445.90,244.00 446.65,244.00 447.40,244.00 448.15,239.91 448.90,233.37 449.65,231.99 450.40,234.85 451.16,243.99 451.91,244.00 452.66,244.00 453.41,244.00 454.16,240.46 454.91,233.92 455.66,232.56 456.41,234.97 457.16,243.53 457.91,244.00 458.66,244.00 459.41,244.00 460.16,241.06 460.91,234.39 461.67,232.89 462.42,235.58 463.17,244.00 463.92,244.00 464.67,244.00 465.42,244.00 466.17,241.60 466.92,234.93 467.67,233.45 468.42,235.71 469.17,243.89 469.92,244.00 470.67,244.00 471.43,244.00 472.18,242.21 472.93,235.40 473.68,233.78 474.43,236.31 475.18,244.00 475.93,244.00 476.68,244.00 477.43,244.00 478.18,242.74 478.93,235.93 479.68,234.32 480.43,236.44 481.18,244.00 481.94,244.00 482.69,244.00 483.44,244.00 484.19,243.35 484.94,236.41 485.69,234.66 486.44,237.02 487.19,244.00 487.94,244.00 488.69,244.00 489.44,244.00 490.19,243.88 490.94,236.92 491.70,235.19 492.45,237.16 493.20,244.00 493.95,244.00 494.70,244.00 495.45,244.00 496.20,244.00 496.95,237.40 497.70,235.52 498.45,237.73 499.20,244.00 499.95,244.00 500.70,244.00 501.45,244.00 502.21,244.00 502.96,237.91 503.71,236.05 504.46,237.88 505.21,244.00 505.96,244.00 506.71,244.00 507.46,244.00 508.21,244.00 508.96,238.40 509.71,236.39 510.46,238.43 511.21,244.00 511.96,244.00 512.72,244.00 513.47,244.00 514.22,244.00 514.97,238.90 515.72,236.90 516.47,238.59 517.22,244.00 517.97,244.00 518.72,244.00 519.47,244.00 520.22,244.00 520.97,239.40 521.72,237.25 522.48,239.13 523.23,244.00 523.98,244.00 524.73,244.00 525.48,244.00 526.23,244.00 526.98,239.90 527.73,237.76 528.48,239.30 529.23,244.00 529.98,244.00 530.73,244.00 531.48,244.00 532.23,244.00 532.99,240.40 533.74,238.11 534.49,239.82 535.24,244.00 535.99,244.00 536.74,244.00 537.49,244.00 538.24,244.00 538.99,240.90 539.74,238.61 540.49,240.00 541.24,244.00 541.99,244.00 542.74,244.00 543.50,244.00 544.25,244.00 545.00,241.41 545.75,238.97 546.50,240.52 547.25,244.00 548.00,244.00 548.75,244.00 549.50,244.00 550.25,244.00 551.00,241.91 551.75,239.46 552.50,240.71 553.26,244.00 554.01,244.00 554.76,244.00 555.51,244.00 556.26,244.00 557.01,242.44 557.76,239.83 558.51,241.22 559.26,244.00 560.01,244.00 560.76,244.00 561.51,244.00 562.26,244.00 563.01,242.93 563.77,240.32 564.52,241.41 565.27,244.00 566.02,244.00 566.77,244.00 567.52,244.00 568.27,244.00 569.02,243.48 569.77,240.70 570.52,241.92 571.27,244.00 572.02,244.00 572.77,244.00 573.52,244.00 574.28,244.00 575.03,243.98 575.78,241.19 576.53,242.13 577.28,244.00 578.03,244.00 578.78,244.00 579.53,244.00 580.28,244.00 581.03,244.00 581.78,241.58 582.53,242.62 583.28,244.00 584.04,244.00 584.79,244.00 585.54,244.00 586.29,244.00 587.04,244.00 587.79,242.07 588.54,242.85 589.29,244.00 590.04,244.00 590.79,244.00 591.54,244.00 592.29,244.00 593.04,244.00 593.79,242.48 594.55,243.34 595.30,244.00 596.05,244.00 596.80,244.00 597.55,244.00 598.30,244.00 599.05,244.00 599.80,242.97 600.55,243.57 601.30,244.00 602.05,244.00 602.80,244.00 603.55,244.00 604.30,244.00 605.06,244.00 605.81,243.40 606.56,244.00 607.31,244.00 608.06,244.00 608.81,244.00 609.56,244.00 610.31,244.00 611.06,244.00 611.81,243.89 612.56,244.00 613.31,244.00 614.06,244.00 614.82,244.00 615.57,244.00 616.32,244.00 617.07,244.00 617.82,244.00 618.57,244.00 619.32,244.00 620.07,244.00 620.82,244.00 621.57,244.00 622.32,244.00 623.07,244.00 623.82,244.00 624.57,244.00 625.33,244.00 626.08,244.00 626.83,244.00 627.58,244.00 628.33,244.00 629.08,244.00 629.83,244.00 630.58,244.00 631.33,244.00 632.08,244.00 632.83,244.00 633.58,244.00 634.33,244.00 635.09,244.00 635.84,244.00 636.59,244.00 637.34,244.00 638.09,244.00 638.84,244.00 639.59,244.00 640.34,244.00 641.09,244.00 641.84,244.00 642.59,244.00 643.34,244.00 644.09,244.00 644.84,244.00 645.60,244.00 646.35,244.00 647.10,244.00 647.85,244.00 648.60,244.00 649.35,244.00 650.10,244.00 650.85,244.00 651.60,244.00 652.35,244.00 653.10,244.00 653.85,244.00 654.60,244.00 655.35,244.00 656.11,244.00 656.86,244.00 657.61,244.00 658.36,244.00 659.11,244.00 659.86,244.00 660.61,244.00 661.36,244.00 662.11,244.00 662.86,244.00 663.61,244.00 664.36,244.00 665.11,244.00 665.87,244.00 666.62,244.00 667.37,244.00 668.12,244.00 668.87,244.00 669.62,244.00 670.37,244.00 671.12,244.00 671.87,244.00 672.62,244.00 673.37,244.00 674.12,244.00 674.87,244.00 675.62,244.00 676.38,244.00 677.13,244.00 677.88,244.00 678.63,244.00 679.38,244.00 680.13,244.00 680.88,244.00 681.63,244.00 682.38,244.00 683.13,244.00 683.88,244.00 684.63,244.00 685.38,244.00 686.13,244.00 686.89,244.00 687.64,244.00 688.39,244.00 689.14,244.00 689.89,244.00 690.64,244.00 691.39,244.00 692.14,244.00 692.89,244.00 693.64,244.00 694.39,244.00 695.14,244.00 695.89,244.00 696.65,244.00 697.40,244.00 698.15,244.00 698.90,244.00 699.65,244.00 700.40,244.00 701.15,244.00 701.90,244.00 702.65,244.00 703.40,244.00 704.15,244.00 704.90,244.00 705.65,244.00 706.40,244.00 707.16,244.00 707.91,244.00 708.66,244.00 709.41,244.00 710.16,244.00 710.91,244.00 711.66,244.00 712.41,244.00 713.16,244.00 713.91,244.00 714.66,244.00 715.41,244.00 716.16,244.00 716.91,244.00 717.67,244.00 718.42,244.00 719.17,244.00 719.92,244.00 720.67,244.00 721.42,244.00 722.17,244.00 722.92,244.00 723.67,244.00 724.42,244.00 725.17,244.00 725.92,244.00 726.67,244.00 727.43,244.00 728.18,244.00 728.93,244.00 729.68,244.00 730.43,244.00 731.18,244.00 731.93,244.00 732.68,244.00 733.43,244.00 734.18,244.00 734.93,244.00 735.68,244.00 736.43,244.00 737.18,244.00 737.94,244.00 738.69,244.00 739.44,244.00 740.19,244.00 740.94,244.00 741.69,244.00 742.44,244.00 743.19,244.00 743.94,244.00 744.69,244.00 745.44,244.00 746.19,244.00 746.94,244.00 747.70,244.00 748.45,244.00 749.20,244.00 749.95,244.00 750.70,244.00 751.45,244.00 752.20,244.00 752.95,244.00 753.70,244.00 754.45,244.00 755.20,244.00 755.95,244.00 756.70,244.00 757.45,244.00 758.21,244.00 758.96,244.00 759.71,244.00 760.46,244.00 761.21,244.00 761.96,244.00 762.71,244.00 763.46,244.00 764.21,244.00 764.96,244.00 765.71,244.00 766.46,244.00 767.21,244.00 767.96,244.00 768.72,244.00 769.47,244.00 770.22,244.00 770.97,244.00 771.72,244.00 772.47,244.00 773.22,244.00 773.97,244.00 774.72,244.00 775.47,244.00 776.22,244.00 776.97,244.00 777.72,244.00 778.48,244.00 779.23,244.00 779.98,244.00 780.73,244.00 781.48,244.00 782.23,244.00 782.98,244.00 783.73,244.00 784.48,244.00 785.23,244.00 785.98,244.00 786.73,244.00 787.48,244.00 788.23,244.00 788.99,244.00 789.74,244.00 790.49,244.00 791.24,244.00 791.99,244.00 792.74,244.00 793.49,244.00 794.24,244.00 794.99,244.00 795.74,244.00 796.49,244.00 797.24,244.00 797.99,244.00 798.74,244.00 799.50,244.00 800.25,244.00 801.00,244.00 801.75,244.00 802.50,244.00 803.25,244.00 804.00,244.00" />
  <text x="420.0" y="22" text-anchor="middle" font-family="Arial, Helvetica, sans-serif" font-size="15" fill="#102a43">tukey_0p25 window (magnitude spectrum)</text>
  <text x="420.0" y="272" text-anchor="middle" font-family="Arial, Helvetica, sans-serif" font-size="12" fill="#334e68">normalized frequency</text>
  <text x="14" y="140.0" transform="rotate(-90 14,140.0)" text-anchor="middle" font-family="Arial, Helvetica, sans-serif" font-size="12" fill="#334e68">magnitude (dB)</text>
  <text x="36" y="262" font-family="Arial, Helvetica, sans-serif" font-size="11" fill="#486581">0</text>
  <text x="804" y="262" text-anchor="end" font-family="Arial, Helvetica, sans-serif" font-size="11" fill="#486581">1</text>
  <text x="30" y="40" text-anchor="end" font-family="Arial, Helvetica, sans-serif" font-size="11" fill="#486581">0.0</text>
  <text x="30" y="248" text-anchor="end" font-family="Arial, Helvetica, sans-serif" font-size="11" fill="#486581">-160.0</text>
</svg>
