<svg xmlns="http://www.w3.org/2000/svg" width="840" height="280" viewBox="0 0 840 280">
  <rect x="0" y="0" width="840" height="280" fill="#ffffff" />
  <rect x="36" y="36" width="768" height="208" fill="#f7fbff" stroke="#c8d9e6" />
  <polyline fill="none" stroke="#005f73" stroke-width="2" points="36.00,36.00 36.75,44.50 37.50,72.98 38.25,85.49 39.00,94.30 39.75,101.47 40.50,108.58 41.26,115.47 42.01,124.05 42.76,134.58 43.51,173.82 44.26,142.68 45.01,137.36 45.76,137.10 46.51,137.25 47.26,139.54 48.01,142.38 48.76,145.66 49.51,151.96 50.26,159.96 51.01,193.13 51.77,164.56 52.52,158.00 53.27,156.39 54.02,155.68 54.77,156.77 55.52,158.44 56.27,161.76 57.02,166.38 57.77,175.12 58.52,229.42 59.27,177.14 60.02,171.93 60.77,167.78 61.52,168.19 62.28,167.57 63.03,170.12 63.78,171.81 64.53,177.71 65.28,183.79 66.03,208.81 66.78,187.91 67.53,179.56 68.28,177.86 69.03,176.01 69.78,176.91 70.53,177.57 71.28,180.83 72.04,183.54 72.79,196.05 73.54,211.30 74.29,191.62 75.04,188.74 75.79,183.58 76.54,184.09 77.29,182.69 78.04,185.33 78.79,186.22 79.54,192.45 80.29,197.28 81.04,217.98 81.79,202.07 82.55,192.40 83.30,191.05 84.05,187.95 84.80,190.19 85.55,189.08 86.30,193.93 87.05,195.06 87.80,208.68 88.55,220.08 89.30,202.25 90.05,200.13 90.80,194.19 91.55,194.99 92.30,193.01 93.06,195.92 93.81,196.19 94.56,202.93 95.31,206.66 96.06,218.74 96.81,214.69 97.56,200.68 98.31,201.38 99.06,196.96 99.81,199.51 100.56,197.86 101.31,203.09 102.06,203.51 102.82,218.43 103.57,226.47 104.32,210.12 105.07,208.82 105.82,202.15 106.57,203.33 107.32,200.83 108.07,204.78 108.82,203.24 109.57,212.41 110.32,212.63 111.07,224.73 111.82,223.15 112.57,207.77 113.33,208.98 114.08,204.00 114.83,206.90 115.58,204.76 116.33,210.42 117.08,210.17 117.83,226.54 118.58,231.48 119.33,216.33 120.08,216.99 120.83,207.91 121.58,210.76 122.33,206.64 123.09,211.45 123.84,209.38 124.59,219.23 125.34,218.44 126.09,229.54 126.84,230.34 127.59,213.54 128.34,215.28 129.09,209.76 129.84,213.05 130.59,210.43 131.34,216.55 132.09,215.00 132.84,238.55 133.60,232.33 134.35,220.23 135.10,223.01 135.85,213.22 136.60,216.49 137.35,211.89 138.10,217.11 138.85,214.53 139.60,225.07 140.35,223.30 141.10,233.55 141.85,236.71 142.60,218.39 143.35,220.68 144.11,214.16 144.86,219.00 145.61,214.78 146.36,222.80 147.11,219.67 147.86,244.00 148.61,236.16 149.36,224.63 150.11,228.25 150.86,217.75 151.61,221.47 152.36,216.40 153.11,222.04 153.87,218.95 154.62,230.23 155.37,227.46 156.12,234.50 156.87,244.00 157.62,221.87 158.37,226.26 159.12,218.39 159.87,223.64 160.62,218.96 161.37,227.49 162.12,223.73 162.87,244.00 163.62,239.46 164.38,228.44 165.13,232.93 165.88,221.71 166.63,225.87 167.38,220.35 168.13,227.21 168.88,222.34 169.63,236.63 170.38,230.18 171.13,237.70 171.88,244.00 172.63,225.56 173.38,230.52 174.13,222.12 174.89,227.78 175.64,222.65 176.39,231.70 177.14,227.30 177.89,244.00 178.64,242.36 179.39,231.81 180.14,238.60 180.89,224.70 181.64,230.58 182.39,223.43 183.14,231.16 183.89,225.79 184.65,240.96 185.40,233.43 186.15,240.55 186.90,244.00 187.65,228.85 188.40,234.37 189.15,225.45 189.90,231.53 190.65,225.95 191.40,235.54 192.15,229.94 192.90,244.00 193.65,243.11 194.40,233.88 195.16,242.56 195.91,227.86 196.66,234.19 197.41,226.59 198.16,234.76 198.91,228.89 199.66,244.00 200.41,236.35 201.16,243.10 201.91,244.00 202.66,231.82 203.41,237.91 204.16,228.03 204.91,235.73 205.67,228.53 206.42,240.23 207.17,232.84 207.92,244.00 208.67,244.00 209.42,236.63 210.17,244.00 210.92,230.72 211.67,237.52 212.42,229.45 213.17,238.08 213.92,231.71 214.67,244.00 215.43,239.00 216.18,243.85 216.93,244.00 217.68,233.92 218.43,242.18 219.18,230.78 219.93,238.91 220.68,231.25 221.43,243.54 222.18,235.49 222.93,244.00 223.68,244.00 224.43,239.14 225.18,244.00 225.94,233.34 226.69,240.60 227.44,232.08 228.19,242.09 228.94,233.87 229.69,244.00 230.44,240.69 231.19,244.00 231.94,244.00 232.69,236.41 233.44,244.00 234.19,233.30 234.94,241.87 235.70,233.76 236.45,244.00 237.20,237.91 237.95,244.00 238.70,244.00 239.45,241.45 240.20,244.00 240.95,235.31 241.70,244.00 242.45,234.12 243.20,244.00 243.95,236.25 244.70,244.00 245.45,242.94 246.21,244.00 246.96,244.00 247.71,238.71 248.46,244.00 249.21,235.63 249.96,244.00 250.71,236.07 251.46,244.00 252.21,239.68 252.96,244.00 253.71,244.00 254.46,242.83 255.21,244.00 255.96,237.55 256.72,244.00 257.47,236.37 258.22,244.00 258.97,238.46 259.72,244.00 260.47,244.00 261.22,244.00 261.97,244.00 262.72,240.84 263.47,244.00 264.22,237.43 264.97,244.00 265.72,237.88 266.48,244.00 267.23,241.78 267.98,244.00 268.73,244.00 269.48,244.00 270.23,244.00 270.98,239.64 271.73,244.00 272.48,238.47 273.23,244.00 273.98,240.52 274.73,244.00 275.48,244.00 276.23,244.00 276.99,244.00 277.74,242.33 278.49,244.00 279.24,239.47 279.99,244.00 280.74,239.90 281.49,244.00 282.24,243.74 282.99,244.00 283.74,244.00 284.49,244.00 285.24,244.00 285.99,241.60 286.74,244.00 287.50,240.43 288.25,244.00 289.00,242.09 289.75,244.00 290.50,244.00 291.25,244.00 292.00,244.00 292.75,244.00 293.50,244.00 294.25,241.38 295.00,244.00 295.75,241.79 296.50,244.00 297.26,244.00 298.01,244.00 298.76,244.00 299.51,244.00 300.26,244.00 301.01,243.06 301.76,244.00 302.51,241.96 303.26,244.00 304.01,243.92 304.76,244.00 305.51,244.00 306.26,244.00 307.01,244.00 307.77,244.00 308.52,244.00 309.27,243.18 310.02,244.00 310.77,243.58 311.52,244.00 312.27,244.00 313.02,244.00 313.77,244.00 314.52,244.00 315.27,244.00 316.02,244.00 316.77,244.00 317.52,243.71 318.28,244.00 319.03,244.00 319.78,244.00 320.53,244.00 321.28,244.00 322.03,244.00 322.78,244.00 323.53,244.00 324.28,244.00 325.03,244.00 325.78,244.00 326.53,244.00 327.28,244.00 328.04,244.00 328.79,244.00 329.54,244.00 330.29,244.00 331.04,244.00 331.79,244.00 332.54,244.00 333.29,244.00 334.04,244.00 334.79,244.00 335.54,244.00 336.29,244.00 337.04,244.00 337.79,244.00 338.55,244.00 339.30,244.00 340.05,244.00 340.80,244.00 341.55,244.00 342.30,244.00 343.05,244.00 343.80,244.00 344.55,244.00 345.30,244.00 346.05,244.00 346.80,244.00 347.55,244.00 348.30,244.00 349.06,244.00 349.81,244.00 350.56,244.00 351.31,244.00 352.06,244.00 352.81,244.00 353.56,244.00 354.31,244.00 355.06,244.00 355.81,244.00 356.56,244.00 357.31,244.00 358.06,244.00 358.82,244.00 359.57,244.00 360.32,244.00 361.07,244.00 361.82,244.00 362.57,244.00 363.32,244.00 364.07,244.00 364.82,244.00 365.57,244.00 366.32,244.00 367.07,244.00 367.82,244.00 368.57,244.00 369.33,244.00 370.08,244.00 370.83,244.00 371.58,244.00 372.33,244.00 373.08,244.00 373.83,244.00 374.58,244.00 375.33,244.00 376.08,244.00 376.83,244.00 377.58,244.00 378.33,244.00 379.09,244.00 379.84,244.00 380.59,244.00 381.34,244.00 382.09,244.00 382.84,244.00 383.59,244.00 384.34,244.00 385.09,244.00 385.84,244.00 386.59,244.00 387.34,244.00 388.09,244.00 388.84,244.00 389.60,244.00 390.35,244.00 391.10,244.00 391.85,244.00 392.60,244.00 393.35,244.00 394.10,244.00 394.85,244.00 395.60,244.00 396.35,244.00 397.10,244.00 397.85,244.00 398.60,244.00 399.35,244.00 400.11,244.00 400.86,244.00 401.61,244.00 402.36,244.00 403.11,244.00 403.86,244.00 404.61,244.00 405.36,244.00 406.11,244.00 406.86,244.00 407.61,244.00 408.36,244.00 409.11,244.00 409.87,244.00 410.62,244.00 411.37,244.00 412.12,244.00 412.87,244.00 413.62,244.00 414.37,244.00 415.12,244.00 415.87,244.00 416.62,244.00 417.37,244.00 418.12,244.00 418.87,244.00 419.62,244.00 420.38,244.00 421.13,244.00 421.88,244.00 422.63,244.00 423.38,244.00 424.13,244.00 424.88,244.00 425.63,244.00 426.38,244.00 427.13,244.00 427.88,244.00 428.63,244.00 429.38,244.00 430.13,244.00 430.89,244.00 431.64,244.00 432.39,244.00 433.14,244.00 433.89,244.00 434.64,244.00 435.39,244.00 436.14,244.00 436.89,244.00 437.64,244.00 438.39,244.00 439.14,244.00 439.89,244.00 440.65,244.00 441.40,244.00 442.15,244.00 442.90,244.00 443.65,244.00 444.40,244.00 445.15,244.00 445.90,244.00 446.65,244.00 447.40,244.00 448.15,244.00 448.90,244.00 449.65,244.00 450.40,244.00 451.16,244.00 451.91,244.00 452.66,244.00 453.41,244.00 454.16,244.00 454.91,244.00 455.66,244.00 456.41,244.00 457.16,244.00 457.91,244.00 458.66,244.00 459.41,244.00 460.16,244.00 460.91,244.00 461.67,244.00 462.42,244.00 463.17,244.00 463.92,244.00 464.67,244.00 465.42,244.00 466.17,244.00 466.92,244.00 467.67,244.00 468.42,244.00 469.17,244.00 469.92,244.00 470.67,244.00 471.43,244.00 472.18,244.00 472.93,244.00 473.68,244.00 474.43,244.00 475.18,244.00 475.93,244.00 476.68,244.00 477.43,244.00 478.18,244.00 478.93,244.00 479.68,244.00 480.43,244.00 481.18,244.00 481.94,244.00 482.69,244.00 483.44,244.00 484.19,244.00 484.94,244.00 485.69,244.00 486.44,244.00 487.19,244.00 487.94,244.00 488.69,244.00 489.44,244.00 490.19,244.00 490.94,244.00 491.70,244.00 492.45,244.00 493.20,244.00 493.95,244.00 494.70,244.00 495.45,244.00 496.20,244.00 496.95,244.00 497.70,244.00 498.45,244.00 499.20,244.00 499.95,244.00 500.70,244.00 501.45,244.00 502.21,244.00 502.96,244.00 503.71,244.00 504.46,244.00 505.21,244.00 505.96,244.00 506.71,244.00 507.46,244.00 508.21,244.00 508.96,244.00 509.71,244.00 510.46,244.00 511.21,244.00 511.96,244.00 512.72,244.00 513.47,244.00 514.22,244.00 514.97,244.00 515.72,244.00 516.47,244.00 517.22,244.00 517.97,244.00 518.72,244.00 519.47,244.00 520.22,244.00 520.97,244.00 521.72,244.00 522.48,244.00 523.23,244.00 523.98,244.00 524.73,244.00 525.48,244.00 526.23,244.00 526.98,244.00 527.73,244.00 528.48,244.00 529.23,244.00 529.98,244.00 530.73,244.00 531.48,244.00 532.23,244.00 532.99,244.00 533.74,244.00 534.49,244.00 535.24,244.00 535.99,244.00 536.74,244.00 537.49,244.00 538.24,244.00 538.99,244.00 539.74,244.00 540.49,244.00 541.24,244.00 541.99,244.00 542.74,244.00 543.50,244.00 544.25,244.00 545.00,244.00 545.75,244.00 546.50,244.00 547.25,244.00 548.00,244.00 548.75,244.00 549.50,244.00 550.25,244.00 551.00,244.00 551.75,244.00 552.50,244.00 553.26,244.00 554.01,244.00 554.76,244.00 555.51,244.00 556.26,244.00 557.01,244.00 557.76,244.00 558.51,244.00 559.26,244.00 560.01,244.00 560.76,244.00 561.51,244.00 562.26,244.00 563.01,244.00 563.77,244.00 564.52,244.00 565.27,244.00 566.02,244.00 566.77,244.00 567.52,244.00 568.27,244.00 569.02,244.00 569.77,244.00 570.52,244.00 571.27,244.00 572.02,244.00 572.77,244.00 573.52,244.00 574.28,244.00 575.03,244.00 575.78,244.00 576.53,244.00 577.28,244.00 578.03,244.00 578.78,244.00 579.53,244.00 580.28,244.00 581.03,244.00 581.78,244.00 582.53,244.00 583.28,244.00 584.04,244.00 584.79,244.00 585.54,244.00 586.29,244.00 587.04,244.00 587.79,244.00 588.54,244.00 589.29,244.00 590.04,244.00 590.79,244.00 591.54,244.00 592.29,244.00 593.04,244.00 593.79,244.00 594.55,244.00 595.30,244.00 596.05,244.00 596.80,244.00 597.55,244.00 598.30,244.00 599.05,244.00 599.80,244.00 600.55,244.00 601.30,244.00 602.05,244.00 602.80,244.00 603.55,244.00 604.30,244.00 605.06,244.00 605.81,244.00 606.56,244.00 607.31,244.00 608.06,244.00 608.81,244.00 609.56,244.00 610.31,244.00 611.06,244.00 611.81,244.00 612.56,244.00 613.31,244.00 614.06,244.00 614.82,244.00 615.57,244.00 616.32,244.00 617.07,244.00 617.82,244.00 618.57,244.00 619.32,244.00 620.07,244.00 620.82,244.00 621.57,244.00 622.32,244.00 623.07,244.00 623.82,244.00 624.57,244.00 625.33,244.00 626.08,244.00 626.83,244.00 627.58,244.00 628.33,244.00 629.08,244.00 629.83,244.00 630.58,244.00 631.33,244.00 632.08,244.00 632.83,244.00 633.58,244.00 634.33,244.00 635.09,244.00 635.84,244.00 636.59,244.00 637.34,244.00 638.09,244.00 638.84,244.00 639.59,244.00 640.34,244.00 641.09,244.00 641.84,244.00 642.59,244.00 643.34,244.00 644.09,244.00 644.84,244.00 645.60,244.00 646.35,244.00 647.10,244.00 647.85,244.00 648.60,244.00 649.35,244.00 650.10,244.00 650.85,244.00 651.60,244.00 652.35,244.00 653.10,244.00 653.85,244.00 654.60,244.00 655.35,244.00 656.11,244.00 656.86,244.00 657.61,244.00 658.36,244.00 659.11,244.00 659.86,244.00 660.61,244.00 661.36,244.00 662.11,244.00 662.86,244.00 663.61,244.00 664.36,244.00 665.11,244.00 665.87,244.00 666.62,244.00 667.37,244.00 668.12,244.00 668.87,244.00 669.62,244.00 670.37,244.00 671.12,244.00 671.87,244.00 672.62,244.00 673.37,244.00 674.12,244.00 674.87,244.00 675.62,244.00 676.38,244.00 677.13,244.00 677.88,244.00 678.63,244.00 679.38,244.00 680.13,244.00 680.88,244.00 681.63,244.00 682.38,244.00 683.13,244.00 683.88,244.00 684.63,244.00 685.38,244.00 686.13,244.00 686.89,244.00 687.64,244.00 688.39,244.00 689.14,244.00 689.89,244.00 690.64,244.00 691.39,244.00 692.14,244.00 692.89,244.00 693.64,244.00 694.39,244.00 695.14,244.00 695.89,244.00 696.65,244.00 697.40,244.00 698.15,244.00 698.90,244.00 699.65,244.00 700.40,244.00 701.15,244.00 701.90,244.00 702.65,244.00 703.40,244.00 704.15,244.00 704.90,244.00 705.65,244.00 706.40,244.00 707.16,244.00 707.91,244.00 708.66,244.00 709.41,244.00 710.16,244.00 710.91,244.00 711.66,244.00 712.41,244.00 713.16,244.00 713.91,244.00 714.66,244.00 715.41,244.00 716.16,244.00 716.91,244.00 717.67,244.00 718.42,244.00 719.17,244.00 719.92,244.00 720.67,244.00 721.42,244.00 722.17,244.00 722.92,244.00 723.67,244.00 724.42,244.00 725.17,244.00 725.92,244.00 726.67,244.00 727.43,244.00 728.18,244.00 728.93,244.00 729.68,244.00 730.43,244.00 731.18,244.00 731.93,244.00 732.68,244.00 733.43,244.00 734.18,244.00 734.93,244.00 735.68,244.00 736.43,244.00 737.18,244.00 737.94,244.00 738.69,244.00 739.44,244.00 740.19,244.00 740.94,244.00 741.69,244.00 742.44,244.00 743.19,244.00 743.94,244.00 744.69,244.00 745.44,244.00 746.19,244.00 746.94,244.00 747.70,244.00 748.45,244.00 749.20,244.00 749.95,244.00 750.70,244.00 751.45,244.00 752.20,244.00 752.95,244.00 753.70,244.00 754.45,244.00 755.20,244.00 755.95,244.00 756.70,244.00 757.45,244.00 758.21,244.00 758.96,244.00 759.71,244.00 760.46,244.00 761.21,244.00 761.96,244.00 762.71,244.00 763.46,244.00 764.21,244.00 764.96,244.00 765.71,244.00 766.46,244.00 767.21,244.00 767.96,244.00 768.72,244.00 769.47,244.00 770.22,244.00 770.97,244.00 771.72,244.00 772.47,244.00 773.22,244.00 773.97,244.00 774.72,244.00 775.47,244.00 776.22,244.00 776.97,244.00 777.72,244.00 778.48,244.00 779.23,244.00 779.98,244.00 780.73,244.00 781.48,244.00 782.23,244.00 782.98,244.00 783.73,244.00 784.48,244.00 785.23,244.00 785.98,244.00 786.73,244.00 787.48,244.00 788.23,244.00 788.99,244.00 789.74,244.00 790.49,244.00 791.24,244.00 791.99,244.00 792.74,244.00 793.49,244.00 794.24,244.00 794.99,244.00 795.74,244.00 796.49,244.00 797.24,244.00 797.99,244.00 798.74,244.00 799.50,244.00 800.25,244.00 801.00,244.00 801.75,244.00 802.50,244.00 803.25,244.00 804.00,244.00" />
  <text x="420.0" y="22" text-anchor="middle" font-family="Arial, Helvetica, sans-serif" font-size="15" fill="#102a43">tukey_0p9 window (magnitude spectrum)</text>
  <text x="420.0" y="272" text-anchor="middle" font-family="Arial, Helvetica, sans-serif" font-size="12" fill="#334e68">normalized frequency</text>
  <text x="14" y="140.0" transform="rotate(-90 14,140.0)" text-anchor="middle" font-family="Arial, Helvetica, sans-serif" font-size="12" fill="#334e68">magnitude (dB)</text>
  <text x="36" y="262" font-family="Arial, Helvetica, sans-serif" font-size="11" fill="#486581">0</text>
  <text x="804" y="262" text-anchor="end" font-family="Arial, Helvetica, sans-serif" font-size="11" fill="#486581">1</text>
  <text x="30" y="40" text-anchor="end" font-family="Arial, Helvetica, sans-serif" font-size="11" fill="#486581">0.0</text>
  <text x="30" y="248" text-anchor="end" font-family="Arial, Helvetica, sans-serif" font-size="11" fill="#486581">-160.0</text>
</svg>
