<svg xmlns="http://www.w3.org/2000/svg" width="840" height="280" viewBox="0 0 840 280">
  <rect x="0" y="0" width="840" height="280" fill="#ffffff" />
  <rect x="36" y="36" width="768" height="208" fill="#f7fbff" stroke="#c8d9e6" />
  <polyline fill="none" stroke="#005f73" stroke-width="2" points="36.00,244.00 36.75,243.97 37.50,243.87 38.25,243.72 39.00,243.50 39.75,243.22 40.50,242.87 41.26,242.47 42.01,242.00 42.76,241.47 43.51,240.88 44.26,240.23 45.01,239.52 45.76,238.75 46.51,237.91 47.26,237.02 48.01,236.08 48.76,235.07 49.51,234.01 50.26,232.88 51.01,231.71 51.77,230.48 52.52,229.19 53.27,227.85 54.02,226.46 54.77,225.01 55.52,223.51 56.27,221.97 57.02,220.37 57.77,218.73 58.52,217.03 59.27,215.30 60.02,213.51 60.77,211.68 61.52,209.81 62.28,207.90 63.03,205.94 63.78,203.95 64.53,201.91 65.28,199.84 66.03,197.74 66.78,195.60 67.53,193.42 68.28,191.21 69.03,188.98 69.78,186.71 70.53,184.41 71.28,182.09 72.04,179.74 72.79,177.37 73.54,174.98 74.29,172.56 75.04,170.13 75.79,167.67 76.54,165.20 77.29,162.72 78.04,160.22 78.79,157.71 79.54,155.19 80.29,152.66 81.04,150.12 81.79,147.57 82.55,145.03 83.30,142.47 84.05,139.92 84.80,137.37 85.55,134.81 86.30,132.27 87.05,129.72 87.80,127.18 88.55,124.65 89.30,122.13 90.05,119.62 90.80,117.12 91.55,114.64 92.30,112.17 93.06,109.72 93.81,107.29 94.56,104.87 95.31,102.48 96.06,100.11 96.81,97.76 97.56,95.44 98.31,93.15 99.06,90.88 99.81,88.65 100.56,86.44 101.31,84.27 102.06,82.13 102.82,80.03 103.57,77.96 104.32,75.93 105.07,73.93 105.82,71.98 106.57,70.07 107.32,68.20 108.07,66.38 108.82,64.59 109.57,62.86 110.32,61.17 111.07,59.53 111.82,57.93 112.57,56.39 113.33,54.90 114.08,53.46 114.83,52.07 115.58,50.73 116.33,49.45 117.08,48.22 117.83,47.04 118.58,45.93 119.33,44.87 120.08,43.86 120.83,42.92 121.58,42.03 122.33,41.20 123.09,40.44 123.84,39.73 124.59,39.08 125.34,38.49 126.09,37.97 126.84,37.51 127.59,37.10 128.34,36.76 129.09,36.49 129.84,36.27 130.59,36.12 131.34,36.03 132.09,36.00 132.84,36.00 133.60,36.00 134.35,36.00 135.10,36.00 135.85,36.00 136.60,36.00 137.35,36.00 138.10,36.00 138.85,36.00 139.60,36.00 140.35,36.00 141.10,36.00 141.85,36.00 142.60,36.00 143.35,36.00 144.11,36.00 144.86,36.00 145.61,36.00 146.36,36.00 147.11,36.00 147.86,36.00 148.61,36.00 149.36,36.00 150.11,36.00 150.86,36.00 151.61,36.00 152.36,36.00 153.11,36.00 153.87,36.00 154.62,36.00 155.37,36.00 156.12,36.00 156.87,36.00 157.62,36.00 158.37,36.00 159.12,36.00 159.87,36.00 160.62,36.00 161.37,36.00 162.12,36.00 162.87,36.00 163.62,36.00 164.38,36.00 165.13,36.00 165.88,36.00 166.63,36.00 167.38,36.00 168.13,36.00 168.88,36.00 169.63,36.00 170.38,36.00 171.13,36.00 171.88,36.00 172.63,36.00 173.38,36.00 174.13,36.00 174.89,36.00 175.64,36.00 176.39,36.00 177.14,36.00 177.89,36.00 178.64,36.00 179.39,36.00 180.14,36.00 180.89,36.00 181.64,36.00 182.39,36.00 183.14,36.00 183.89,36.00 184.65,36.00 185.40,36.00 186.15,36.00 186.90,36.00 187.65,36.00 188.40,36.00 189.15,36.00 189.90,36.00 190.65,36.00 191.40,36.00 192.15,36.00 192.90,36.00 193.65,36.00 194.40,36.00 195.16,36.00 195.91,36.00 196.66,36.00 197.41,36.00 198.16,36.00 198.91,36.00 199.66,36.00 200.41,36.00 201.16,36.00 201.91,36.00 202.66,36.00 203.41,36.00 204.16,36.00 204.91,36.00 205.67,36.00 206.42,36.00 207.17,36.00 207.92,36.00 208.67,36.00 209.42,36.00 210.17,36.00 210.92,36.00 211.67,36.00 212.42,36.00 213.17,36.00 213.92,36.00 214.67,36.00 215.43,36.00 216.18,36.00 216.93,36.00 217.68,36.00 218.43,36.00 219.18,36.00 219.93,36.00 220.68,36.00 221.43,36.00 222.18,36.00 222.93,36.00 223.68,36.00 224.43,36.00 225.18,36.00 225.94,36.00 226.69,36.00 227.44,36.00 228.19,36.00 228.94,36.00 229.69,36.00 230.44,36.00 231.19,36.00 231.94,36.00 232.69,36.00 233.44,36.00 234.19,36.00 234.94,36.00 235.70,36.00 236.45,36.00 237.20,36.00 237.95,36.00 238.70,36.00 239.45,36.00 240.20,36.00 240.95,36.00 241.70,36.00 242.45,36.00 243.20,36.00 243.95,36.00 244.70,36.00 245.45,36.00 246.21,36.00 246.96,36.00 247.71,36.00 248.46,36.00 249.21,36.00 249.96,36.00 250.71,36.00 251.46,36.00 252.21,36.00 252.96,36.00 253.71,36.00 254.46,36.00 255.21,36.00 255.96,36.00 256.72,36.00 257.47,36.00 258.22,36.00 258.97,36.00 259.72,36.00 260.47,36.00 261.22,36.00 261.97,36.00 262.72,36.00 263.47,36.00 264.22,36.00 264.97,36.00 265.72,36.00 266.48,36.00 267.23,36.00 267.98,36.00 268.73,36.00 269.48,36.00 270.23,36.00 270.98,36.00 271.73,36.00 272.48,36.00 273.23,36.00 273.98,36.00 274.73,36.00 275.48,36.00 276.23,36.00 276.99,36.00 277.74,36.00 278.49,36.00 279.24,36.00 279.99,36.00 280.74,36.00 281.49,36.00 282.24,36.00 282.99,36.00 283.74,36.00 284.49,36.00 285.24,36.00 285.99,36.00 286.74,36.00 287.50,36.00 288.25,36.00 289.00,36.00 289.75,36.00 290.50,36.00 291.25,36.00 292.00,36.00 292.75,36.00 293.50,36.00 294.25,36.00 295.00,36.00 295.75,36.00 296.50,36.00 297.26,36.00 298.01,36.00 298.76,36.00 299.51,36.00 300.26,36.00 301.01,36.00 301.76,36.00 302.51,36.00 303.26,36.00 304.01,36.00 304.76,36.00 305.51,36.00 306.26,36.00 307.01,36.00 307.77,36.00 308.52,36.00 309.27,36.00 310.02,36.00 310.77,36.00 311.52,36.00 312.27,36.00 313.02,36.00 313.77,36.00 314.52,36.00 315.27,36.00 316.02,36.00 316.77,36.00 317.52,36.00 318.28,36.00 319.03,36.00 319.78,36.00 320.53,36.00 321.28,36.00 322.03,36.00 322.78,36.00 323.53,36.00 324.28,36.00 325.03,36.00 325.78,36.00 326.53,36.00 327.28,36.00 328.04,36.00 328.79,36.00 329.54,36.00 330.29,36.00 331.04,36.00 331.79,36.00 332.54,36.00 333.29,36.00 334.04,36.00 334.79,36.00 335.54,36.00 336.29,36.00 337.04,36.00 337.79,36.00 338.55,36.00 339.30,36.00 340.05,36.00 340.80,36.00 341.55,36.00 342.30,36.00 343.05,36.00 343.80,36.00 344.55,36.00 345.30,36.00 346.05,36.00 346.80,36.00 347.55,36.00 348.30,36.00 349.06,36.00 349.81,36.00 350.56,36.00 351.31,36.00 352.06,36.00 352.81,36.00 353.56,36.00 354.31,36.00 355.06,36.00 355.81,36.00 356.56,36.00 357.31,36.00 358.06,36.00 358.82,36.00 359.57,36.00 360.32,36.00 361.07,36.00 361.82,36.00 362.57,36.00 363.32,36.00 364.07,36.00 364.82,36.00 365.57,36.00 366.32,36.00 367.07,36.00 367.82,36.00 368.57,36.00 369.33,36.00 370.08,36.00 370.83,36.00 371.58,36.00 372.33,36.00 373.08,36.00 373.83,36.00 374.58,36.00 375.33,36.00 376.08,36.00 376.83,36.00 377.58,36.00 378.33,36.00 379.09,36.00 379.84,36.00 380.59,36.00 381.34,36.00 382.09,36.00 382.84,36.00 383.59,36.00 384.34,36.00 385.09,36.00 385.84,36.00 386.59,36.00 387.34,36.00 388.09,36.00 388.84,36.00 389.60,36.00 390.35,36.00 391.10,36.00 391.85,36.00 392.60,36.00 393.35,36.00 394.10,36.00 394.85,36.00 395.60,36.00 396.35,36.00 397.10,36.00 397.85,36.00 398.60,36.00 399.35,36.00 400.11,36.00 400.86,36.00 401.61,36.00 402.36,36.00 403.11,36.00 403.86,36.00 404.61,36.00 405.36,36.00 406.11,36.00 406.86,36.00 407.61,36.00 408.36,36.00 409.11,36.00 409.87,36.00 410.62,36.00 411.37,36.00 412.12,36.00 412.87,36.00 413.62,36.00 414.37,36.00 415.12,36.00 415.87,36.00 416.62,36.00 417.37,36.00 418.12,36.00 418.87,36.00 419.62,36.00 420.38,36.00 421.13,36.00 421.88,36.00 422.63,36.00 423.38,36.00 424.13,36.00 424.88,36.00 425.63,36.00 426.38,36.00 427.13,36.00 427.88,36.00 428.63,36.00 429.38,36.00 430.13,36.00 430.89,36.00 431.64,36.00 432.39,36.00 433.14,36.00 433.89,36.00 434.64,36.00 435.39,36.00 436.14,36.00 436.89,36.00 437.64,36.00 438.39,36.00 439.14,36.00 439.89,36.00 440.65,36.00 441.40,36.00 442.15,36.00 442.90,36.00 443.65,36.00 444.40,36.00 445.15,36.00 445.90,36.00 446.65,36.00 447.40,36.00 448.15,36.00 448.90,36.00 449.65,36.00 450.40,36.00 451.16,36.00 451.91,36.00 452.66,36.00 453.41,36.00 454.16,36.00 454.91,36.00 455.66,36.00 456.41,36.00 457.16,36.00 457.91,36.00 458.66,36.00 459.41,36.00 460.16,36.00 460.91,36.00 461.67,36.00 462.42,36.00 463.17,36.00 463.92,36.00 464.67,36.00 465.42,36.00 466.17,36.00 466.92,36.00 467.67,36.00 468.42,36.00 469.17,36.00 469.92,36.00 470.67,36.00 471.43,36.00 472.18,36.00 472.93,36.00 473.68,36.00 474.43,36.00 475.18,36.00 475.93,36.00 476.68,36.00 477.43,36.00 478.18,36.00 478.93,36.00 479.68,36.00 480.43,36.00 481.18,36.00 481.94,36.00 482.69,36.00 483.44,36.00 484.19,36.00 484.94,36.00 485.69,36.00 486.44,36.00 487.19,36.00 487.94,36.00 488.69,36.00 489.44,36.00 490.19,36.00 490.94,36.00 491.70,36.00 492.45,36.00 493.20,36.00 493.95,36.00 494.70,36.00 495.45,36.00 496.20,36.00 496.95,36.00 497.70,36.00 498.45,36.00 499.20,36.00 499.95,36.00 500.70,36.00 501.45,36.00 502.21,36.00 502.96,36.00 503.71,36.00 504.46,36.00 505.21,36.00 505.96,36.00 506.71,36.00 507.46,36.00 508.21,36.00 508.96,36.00 509.71,36.00 510.46,36.00 511.21,36.00 511.96,36.00 512.72,36.00 513.47,36.00 514.22,36.00 514.97,36.00 515.72,36.00 516.47,36.00 517.22,36.00 517.97,36.00 518.72,36.00 519.47,36.00 520.22,36.00 520.97,36.00 521.72,36.00 522.48,36.00 523.23,36.00 523.98,36.00 524.73,36.00 525.48,36.00 526.23,36.00 526.98,36.00 527.73,36.00 528.48,36.00 529.23,36.00 529.98,36.00 530.73,36.00 531.48,36.00 532.23,36.00 532.99,36.00 533.74,36.00 534.49,36.00 535.24,36.00 535.99,36.00 536.74,36.00 537.49,36.00 538.24,36.00 538.99,36.00 539.74,36.00 540.49,36.00 541.24,36.00 541.99,36.00 542.74,36.00 543.50,36.00 544.25,36.00 545.00,36.00 545.75,36.00 546.50,36.00 547.25,36.00 548.00,36.00 548.75,36.00 549.50,36.00 550.25,36.00 551.00,36.00 551.75,36.00 552.50,36.00 553.26,36.00 554.01,36.00 554.76,36.00 555.51,36.00 556.26,36.00 557.01,36.00 557.76,36.00 558.51,36.00 559.26,36.00 560.01,36.00 560.76,36.00 561.51,36.00 562.26,36.00 563.01,36.00 563.77,36.00 564.52,36.00 565.27,36.00 566.02,36.00 566.77,36.00 567.52,36.00 568.27,36.00 569.02,36.00 569.77,36.00 570.52,36.00 571.27,36.00 572.02,36.00 572.77,36.00 573.52,36.00 574.28,36.00 575.03,36.00 575.78,36.00 576.53,36.00 577.28,36.00 578.03,36.00 578.78,36.00 579.53,36.00 580.28,36.00 581.03,36.00 581.78,36.00 582.53,36.00 583.28,36.00 584.04,36.00 584.79,36.00 585.54,36.00 586.29,36.00 587.04,36.00 587.79,36.00 588.54,36.00 589.29,36.00 590.04,36.00 590.79,36.00 591.54,36.00 592.29,36.00 593.04,36.00 593.79,36.00 594.55,36.00 595.30,36.00 596.05,36.00 596.80,36.00 597.55,36.00 598.30,36.00 599.05,36.00 599.80,36.00 600.55,36.00 601.30,36.00 602.05,36.00 602.80,36.00 603.55,36.00 604.30,36.00 605.06,36.00 605.81,36.00 606.56,36.00 607.31,36.00 608.06,36.00 608.81,36.00 609.56,36.00 610.31,36.00 611.06,36.00 611.81,36.00 612.56,36.00 613.31,36.00 614.06,36.00 614.82,36.00 615.57,36.00 616.32,36.00 617.07,36.00 617.82,36.00 618.57,36.00 619.32,36.00 620.07,36.00 620.82,36.00 621.57,36.00 622.32,36.00 623.07,36.00 623.82,36.00 624.57,36.00 625.33,36.00 626.08,36.00 626.83,36.00 627.58,36.00 628.33,36.00 629.08,36.00 629.83,36.00 630.58,36.00 631.33,36.00 632.08,36.00 632.83,36.00 633.58,36.00 634.33,36.00 635.09,36.00 635.84,36.00 636.59,36.00 637.34,36.00 638.09,36.00 638.84,36.00 639.59,36.00 640.34,36.00 641.09,36.00 641.84,36.00 642.59,36.00 643.34,36.00 644.09,36.00 644.84,36.00 645.60,36.00 646.35,36.00 647.10,36.00 647.85,36.00 648.60,36.00 649.35,36.00 650.10,36.00 650.85,36.00 651.60,36.00 652.35,36.00 653.10,36.00 653.85,36.00 654.60,36.00 655.35,36.00 656.11,36.00 656.86,36.00 657.61,36.00 658.36,36.00 659.11,36.00 659.86,36.00 660.61,36.00 661.36,36.00 662.11,36.00 662.86,36.00 663.61,36.00 664.36,36.00 665.11,36.00 665.87,36.00 666.62,36.00 667.37,36.00 668.12,36.00 668.87,36.00 669.62,36.00 670.37,36.00 671.12,36.00 671.87,36.00 672.62,36.00 673.37,36.00 674.12,36.00 674.87,36.00 675.62,36.00 676.38,36.00 677.13,36.00 677.88,36.00 678.63,36.00 679.38,36.00 680.13,36.00 680.88,36.00 681.63,36.00 682.38,36.00 683.13,36.00 683.88,36.00 684.63,36.00 685.38,36.00 686.13,36.00 686.89,36.00 687.64,36.00 688.39,36.00 689.14,36.00 689.89,36.00 690.64,36.00 691.39,36.00 692.14,36.00 692.89,36.00 693.64,36.00 694.39,36.00 695.14,36.00 695.89,36.00 696.65,36.00 697.40,36.00 698.15,36.00 698.90,36.00 699.65,36.00 700.40,36.00 701.15,36.00 701.90,36.00 702.65,36.00 703.40,36.00 704.15,36.00 704.90,36.00 705.65,36.00 706.40,36.00 707.16,36.00 707.91,36.00 708.66,36.01 709.41,36.06 710.16,36.19 710.91,36.37 711.66,36.62 712.41,36.93 713.16,37.30 713.91,37.73 714.66,38.22 715.41,38.78 716.16,39.40 716.91,40.07 717.67,40.81 718.42,41.61 719.17,42.47 719.92,43.38 720.67,44.36 721.42,45.39 722.17,46.48 722.92,47.62 723.67,48.82 724.42,50.08 725.17,51.39 725.92,52.75 726.67,54.17 727.43,55.64 728.18,57.16 728.93,58.73 729.68,60.34 730.43,62.01 731.18,63.72 731.93,65.48 732.68,67.28 733.43,69.13 734.18,71.02 734.93,72.95 735.68,74.93 736.43,76.94 737.18,78.99 737.94,81.07 738.69,83.19 739.44,85.35 740.19,87.54 740.94,89.76 741.69,92.01 742.44,94.29 743.19,96.60 743.94,98.93 744.69,101.29 745.44,103.67 746.19,106.08 746.94,108.50 747.70,110.94 748.45,113.40 749.20,115.88 749.95,118.37 750.70,120.88 751.45,123.39 752.20,125.92 752.95,128.45 753.70,130.99 754.45,133.54 755.20,136.09 755.95,138.64 756.70,141.20 757.45,143.75 758.21,146.30 758.96,148.85 759.71,151.39 760.46,153.92 761.21,156.45 761.96,158.97 762.71,161.47 763.46,163.96 764.21,166.44 764.96,168.90 765.71,171.35 766.46,173.77 767.21,176.18 767.96,178.56 768.72,180.92 769.47,183.26 770.22,185.57 770.97,187.85 771.72,190.10 772.47,192.32 773.22,194.51 773.97,196.67 774.72,198.80 775.47,200.88 776.22,202.94 776.97,204.95 777.72,206.92 778.48,208.86 779.23,210.75 779.98,212.60 780.73,214.41 781.48,216.17 782.23,217.89 782.98,219.55 783.73,221.18 784.48,222.75 785.23,224.27 785.98,225.74 786.73,227.16 787.48,228.53 788.23,229.84 788.99,231.10 789.74,232.30 790.49,233.45 791.24,234.54 791.99,235.58 792.74,236.56 793.49,237.48 794.24,238.34 794.99,239.14 795.74,239.88 796.49,240.56 797.24,241.18 797.99,241.74 798.74,242.24 799.50,242.68 800.25,243.05 801.00,243.37 801.75,243.62 802.50,243.80 803.25,243.93 804.00,244.00" />
  <text x="420.0" y="22" text-anchor="middle" font-family="Arial, Helvetica, sans-serif" font-size="15" fill="#102a43">tukey_0p25 window (time domain)</text>
  <text x="420.0" y="272" text-anchor="middle" font-family="Arial, Helvetica, sans-serif" font-size="12" fill="#334e68">normalized sample index</text>
  <text x="14" y="140.0" transform="rotate(-90 14,140.0)" text-anchor="middle" font-family="Arial, Helvetica, sans-serif" font-size="12" fill="#334e68">amplitude</text>
  <text x="36" y="262" font-family="Arial, Helvetica, sans-serif" font-size="11" fill="#486581">0</text>
  <text x="804" y="262" text-anchor="end" font-family="Arial, Helvetica, sans-serif" font-size="11" fill="#486581">1</text>
  <text x="30" y="40" text-anchor="end" font-family="Arial, Helvetica, sans-serif" font-size="11" fill="#486581">1.0</text>
  <text x="30" y="248" text-anchor="end" font-family="Arial, Helvetica, sans-serif" font-size="11" fill="#486581">0.0</text>
</svg>
