<svg xmlns="http://www.w3.org/2000/svg" width="840" height="280" viewBox="0 0 840 280">
  <rect x="0" y="0" width="840" height="280" fill="#ffffff" />
  <rect x="36" y="36" width="768" height="208" fill="#f7fbff" stroke="#c8d9e6" />
  <polyline fill="none" stroke="#005f73" stroke-width="2" points="36.00,36.00 36.75,46.01 37.50,61.80 38.25,83.49 39.00,151.33 39.75,102.68 40.50,104.95 41.26,114.49 42.01,162.22 42.76,122.85 43.51,122.90 44.26,129.59 45.01,177.33 45.76,135.99 46.51,133.99 47.26,140.80 48.01,178.16 48.76,145.09 49.51,142.57 50.26,148.94 51.01,194.76 51.77,151.65 52.52,149.80 53.27,154.87 54.02,199.77 54.77,158.02 55.52,155.19 56.27,160.63 57.02,218.62 57.77,162.82 58.52,160.18 59.27,165.15 60.02,193.88 60.77,167.95 61.52,163.89 62.28,170.16 63.03,205.15 63.78,170.43 64.53,168.63 65.28,172.47 66.03,204.68 66.78,175.13 67.53,171.19 68.28,176.89 69.03,215.75 69.78,177.28 70.53,174.96 71.28,178.95 72.04,203.05 72.79,181.69 73.54,176.71 74.29,183.44 75.04,212.52 75.79,182.19 76.54,180.83 77.29,183.82 78.04,210.32 78.79,186.64 79.54,181.86 80.29,188.11 81.04,219.63 81.79,187.16 82.55,185.36 83.30,188.57 84.05,209.55 84.80,191.63 85.55,185.86 86.30,193.22 87.05,218.12 87.80,190.72 88.55,189.93 89.30,192.18 90.05,215.04 90.80,195.38 91.55,189.86 92.30,196.77 93.06,223.50 93.81,194.64 94.56,193.44 95.31,195.94 96.06,214.60 96.81,199.45 97.56,192.97 98.31,201.03 99.06,222.63 99.81,197.40 100.56,197.21 101.31,198.78 102.06,219.01 102.82,202.45 103.57,196.25 104.32,203.86 105.07,226.96 105.82,200.64 106.57,200.07 107.32,201.90 108.07,218.73 108.82,205.94 109.57,198.77 110.32,207.59 111.07,226.40 111.82,202.87 112.57,203.31 113.33,204.22 114.08,222.41 114.83,208.43 115.58,201.55 116.33,209.93 117.08,230.03 117.83,205.63 118.58,205.71 119.33,206.89 120.08,222.22 120.83,211.50 121.58,203.66 122.33,213.29 123.09,229.64 123.84,207.48 124.59,208.57 125.34,208.85 126.09,225.38 126.84,213.62 127.59,206.07 128.34,215.25 129.09,232.76 129.84,209.90 130.59,210.63 131.34,211.18 132.09,225.24 132.84,216.39 133.60,207.88 134.35,218.35 135.10,232.49 135.85,211.48 136.60,213.21 137.35,212.86 138.10,228.02 138.85,218.22 139.60,210.01 140.35,220.03 141.10,235.23 141.85,213.63 142.60,215.01 143.35,214.94 144.11,227.92 144.86,220.77 145.61,211.59 146.36,222.95 147.11,235.02 147.86,214.99 148.61,217.38 149.36,216.40 150.11,230.38 150.86,222.37 151.61,213.51 152.36,224.39 153.11,237.47 153.87,216.92 154.62,218.96 155.37,218.28 156.12,230.31 156.87,224.74 157.62,214.90 158.37,227.18 159.12,237.32 159.87,218.11 160.62,221.16 161.37,219.57 162.12,232.53 162.87,226.16 163.62,216.63 164.38,228.43 165.13,239.52 165.88,219.88 166.63,222.58 167.38,221.28 168.13,232.48 168.88,228.39 169.63,217.88 170.38,231.14 171.13,239.41 171.88,220.93 172.63,224.64 173.38,222.43 174.13,234.49 174.89,229.66 175.64,219.47 176.39,232.22 177.14,241.42 177.89,222.55 178.64,225.91 179.39,224.00 180.14,234.46 180.89,231.78 181.64,220.59 182.39,234.87 183.14,241.34 183.89,223.50 184.65,227.86 185.40,225.04 186.15,236.31 186.90,232.91 187.65,222.05 188.40,235.81 189.15,243.18 189.90,224.99 190.65,229.02 191.40,226.49 192.15,236.29 192.90,234.94 193.65,223.07 194.40,238.44 195.16,243.12 195.91,225.84 196.66,230.88 197.41,227.44 198.16,237.99 198.91,235.97 199.66,224.43 200.41,239.25 201.16,244.00 201.91,227.24 202.66,231.92 203.41,228.79 204.16,237.98 204.91,237.92 205.67,225.36 206.42,241.89 207.17,244.00 207.92,228.01 208.67,233.71 209.42,229.66 210.17,239.56 210.92,238.85 211.67,226.64 212.42,242.57 213.17,244.00 213.92,229.31 214.67,234.67 215.43,230.92 216.18,239.56 216.93,240.74 217.68,227.49 218.43,244.00 219.18,244.00 219.93,230.02 220.68,236.39 221.43,231.72 222.18,241.03 222.93,241.58 223.68,228.69 224.43,244.00 225.18,244.00 225.94,231.24 226.69,237.26 227.44,232.90 228.19,241.04 228.94,243.43 229.69,229.48 230.44,244.00 231.19,244.00 231.94,231.89 232.69,238.93 233.44,233.64 234.19,242.42 234.94,244.00 235.70,230.60 236.45,244.00 237.20,244.00 237.95,233.05 238.70,239.74 239.45,234.76 240.20,242.43 240.95,244.00 241.70,231.33 242.45,244.00 243.20,244.00 243.95,233.65 244.70,241.36 245.45,235.45 246.21,243.73 246.96,244.00 247.71,232.40 248.46,244.00 249.21,244.00 249.96,234.74 250.71,242.10 251.46,236.51 252.21,243.75 252.96,244.00 253.71,233.08 254.46,244.00 255.21,244.00 255.96,235.30 256.72,243.68 257.47,237.15 258.22,244.00 258.97,244.00 259.72,234.09 260.47,244.00 261.22,244.00 261.97,236.33 262.72,244.00 263.47,238.16 264.22,244.00 264.97,244.00 265.72,234.73 266.48,244.00 267.23,244.00 267.98,236.85 268.73,244.00 269.48,238.76 270.23,244.00 270.98,244.00 271.73,235.69 272.48,244.00 273.23,244.00 273.98,237.84 274.73,244.00 275.48,239.72 276.23,244.00 276.99,244.00 277.74,236.30 278.49,244.00 279.24,244.00 279.99,238.33 280.74,244.00 281.49,240.29 282.24,244.00 282.99,244.00 283.74,237.21 284.49,244.00 285.24,244.00 285.99,239.26 286.74,244.00 287.50,241.20 288.25,244.00 289.00,244.00 289.75,237.78 290.50,244.00 291.25,244.00 292.00,239.72 292.75,244.00 293.50,241.75 294.25,244.00 295.00,244.00 295.75,238.65 296.50,244.00 297.26,244.00 298.01,240.62 298.76,244.00 299.51,242.62 300.26,244.00 301.01,244.00 301.76,239.19 302.51,244.00 303.26,244.00 304.01,241.05 304.76,244.00 305.51,243.13 306.26,244.00 307.01,244.00 307.77,240.03 308.52,244.00 309.27,244.00 310.02,241.91 310.77,244.00 311.52,243.97 312.27,244.00 313.02,244.00 313.77,240.54 314.52,244.00 315.27,244.00 316.02,242.32 316.77,244.00 317.52,244.00 318.28,244.00 319.03,244.00 319.78,241.34 320.53,244.00 321.28,244.00 322.03,243.14 322.78,244.00 323.53,244.00 324.28,244.00 325.03,244.00 325.78,241.83 326.53,244.00 327.28,244.00 328.04,243.54 328.79,244.00 329.54,244.00 330.29,244.00 331.04,244.00 331.79,242.60 332.54,244.00 333.29,244.00 334.04,244.00 334.79,244.00 335.54,244.00 336.29,244.00 337.04,244.00 337.79,243.07 338.55,244.00 339.30,244.00 340.05,244.00 340.80,244.00 341.55,244.00 342.30,244.00 343.05,244.00 343.80,243.81 344.55,244.00 345.30,244.00 346.05,244.00 346.80,244.00 347.55,244.00 348.30,244.00 349.06,244.00 349.81,244.00 350.56,244.00 351.31,244.00 352.06,244.00 352.81,244.00 353.56,244.00 354.31,244.00 355.06,244.00 355.81,244.00 356.56,244.00 357.31,244.00 358.06,244.00 358.82,244.00 359.57,244.00 360.32,244.00 361.07,244.00 361.82,244.00 362.57,244.00 363.32,244.00 364.07,244.00 364.82,244.00 365.57,244.00 366.32,244.00 367.07,244.00 367.82,244.00 368.57,244.00 369.33,244.00 370.08,244.00 370.83,244.00 371.58,244.00 372.33,244.00 373.08,244.00 373.83,244.00 374.58,244.00 375.33,244.00 376.08,244.00 376.83,244.00 377.58,244.00 378.33,244.00 379.09,244.00 379.84,244.00 380.59,244.00 381.34,244.00 382.09,244.00 382.84,244.00 383.59,244.00 384.34,244.00 385.09,244.00 385.84,244.00 386.59,244.00 387.34,244.00 388.09,244.00 388.84,244.00 389.60,244.00 390.35,244.00 391.10,244.00 391.85,244.00 392.60,244.00 393.35,244.00 394.10,244.00 394.85,244.00 395.60,244.00 396.35,244.00 397.10,244.00 397.85,244.00 398.60,244.00 399.35,244.00 400.11,244.00 400.86,244.00 401.61,244.00 402.36,244.00 403.11,244.00 403.86,244.00 404.61,244.00 405.36,244.00 406.11,244.00 406.86,244.00 407.61,244.00 408.36,244.00 409.11,244.00 409.87,244.00 410.62,244.00 411.37,244.00 412.12,244.00 412.87,244.00 413.62,244.00 414.37,244.00 415.12,244.00 415.87,244.00 416.62,244.00 417.37,244.00 418.12,244.00 418.87,244.00 419.62,244.00 420.38,244.00 421.13,244.00 421.88,244.00 422.63,244.00 423.38,244.00 424.13,244.00 424.88,244.00 425.63,244.00 426.38,244.00 427.13,244.00 427.88,244.00 428.63,244.00 429.38,244.00 430.13,244.00 430.89,244.00 431.64,244.00 432.39,244.00 433.14,244.00 433.89,244.00 434.64,244.00 435.39,244.00 436.14,244.00 436.89,244.00 437.64,244.00 438.39,244.00 439.14,244.00 439.89,244.00 440.65,244.00 441.40,244.00 442.15,244.00 442.90,244.00 443.65,244.00 444.40,244.00 445.15,244.00 445.90,244.00 446.65,244.00 447.40,244.00 448.15,244.00 448.90,244.00 449.65,244.00 450.40,244.00 451.16,244.00 451.91,244.00 452.66,244.00 453.41,244.00 454.16,244.00 454.91,244.00 455.66,244.00 456.41,244.00 457.16,244.00 457.91,244.00 458.66,244.00 459.41,244.00 460.16,244.00 460.91,244.00 461.67,244.00 462.42,244.00 463.17,244.00 463.92,244.00 464.67,244.00 465.42,244.00 466.17,244.00 466.92,244.00 467.67,244.00 468.42,244.00 469.17,244.00 469.92,244.00 470.67,244.00 471.43,244.00 472.18,244.00 472.93,244.00 473.68,244.00 474.43,244.00 475.18,244.00 475.93,244.00 476.68,244.00 477.43,244.00 478.18,244.00 478.93,244.00 479.68,244.00 480.43,244.00 481.18,244.00 481.94,244.00 482.69,244.00 483.44,244.00 484.19,244.00 484.94,244.00 485.69,244.00 486.44,244.00 487.19,244.00 487.94,244.00 488.69,244.00 489.44,244.00 490.19,244.00 490.94,244.00 491.70,244.00 492.45,244.00 493.20,244.00 493.95,244.00 494.70,244.00 495.45,244.00 496.20,244.00 496.95,244.00 497.70,244.00 498.45,244.00 499.20,244.00 499.95,244.00 500.70,244.00 501.45,244.00 502.21,244.00 502.96,244.00 503.71,244.00 504.46,244.00 505.21,244.00 505.96,244.00 506.71,244.00 507.46,244.00 508.21,244.00 508.96,244.00 509.71,244.00 510.46,244.00 511.21,244.00 511.96,244.00 512.72,244.00 513.47,244.00 514.22,244.00 514.97,244.00 515.72,244.00 516.47,244.00 517.22,244.00 517.97,244.00 518.72,244.00 519.47,244.00 520.22,244.00 520.97,244.00 521.72,244.00 522.48,244.00 523.23,244.00 523.98,244.00 524.73,244.00 525.48,244.00 526.23,244.00 526.98,244.00 527.73,244.00 528.48,244.00 529.23,244.00 529.98,244.00 530.73,244.00 531.48,244.00 532.23,244.00 532.99,244.00 533.74,244.00 534.49,244.00 535.24,244.00 535.99,244.00 536.74,244.00 537.49,244.00 538.24,244.00 538.99,244.00 539.74,244.00 540.49,244.00 541.24,244.00 541.99,244.00 542.74,244.00 543.50,244.00 544.25,244.00 545.00,244.00 545.75,244.00 546.50,244.00 547.25,244.00 548.00,244.00 548.75,244.00 549.50,244.00 550.25,244.00 551.00,244.00 551.75,244.00 552.50,244.00 553.26,244.00 554.01,244.00 554.76,244.00 555.51,244.00 556.26,244.00 557.01,244.00 557.76,244.00 558.51,244.00 559.26,244.00 560.01,244.00 560.76,244.00 561.51,244.00 562.26,244.00 563.01,244.00 563.77,244.00 564.52,244.00 565.27,244.00 566.02,244.00 566.77,244.00 567.52,244.00 568.27,244.00 569.02,244.00 569.77,244.00 570.52,244.00 571.27,244.00 572.02,244.00 572.77,244.00 573.52,244.00 574.28,244.00 575.03,244.00 575.78,244.00 576.53,244.00 577.28,244.00 578.03,244.00 578.78,244.00 579.53,244.00 580.28,244.00 581.03,244.00 581.78,244.00 582.53,244.00 583.28,244.00 584.04,244.00 584.79,244.00 585.54,244.00 586.29,244.00 587.04,244.00 587.79,244.00 588.54,244.00 589.29,244.00 590.04,244.00 590.79,244.00 591.54,244.00 592.29,244.00 593.04,244.00 593.79,244.00 594.55,244.00 595.30,244.00 596.05,244.00 596.80,244.00 597.55,244.00 598.30,244.00 599.05,244.00 599.80,244.00 600.55,244.00 601.30,244.00 602.05,244.00 602.80,244.00 603.55,244.00 604.30,244.00 605.06,244.00 605.81,244.00 606.56,244.00 607.31,244.00 608.06,244.00 608.81,244.00 609.56,244.00 610.31,244.00 611.06,244.00 611.81,244.00 612.56,244.00 613.31,244.00 614.06,244.00 614.82,244.00 615.57,244.00 616.32,244.00 617.07,244.00 617.82,244.00 618.57,244.00 619.32,244.00 620.07,244.00 620.82,244.00 621.57,244.00 622.32,244.00 623.07,244.00 623.82,244.00 624.57,244.00 625.33,244.00 626.08,244.00 626.83,244.00 627.58,244.00 628.33,244.00 629.08,244.00 629.83,244.00 630.58,244.00 631.33,244.00 632.08,244.00 632.83,244.00 633.58,244.00 634.33,244.00 635.09,244.00 635.84,244.00 636.59,244.00 637.34,244.00 638.09,244.00 638.84,244.00 639.59,244.00 640.34,244.00 641.09,244.00 641.84,244.00 642.59,244.00 643.34,244.00 644.09,244.00 644.84,244.00 645.60,244.00 646.35,244.00 647.10,244.00 647.85,244.00 648.60,244.00 649.35,244.00 650.10,244.00 650.85,244.00 651.60,244.00 652.35,244.00 653.10,244.00 653.85,244.00 654.60,244.00 655.35,244.00 656.11,244.00 656.86,244.00 657.61,244.00 658.36,244.00 659.11,244.00 659.86,244.00 660.61,244.00 661.36,244.00 662.11,244.00 662.86,244.00 663.61,244.00 664.36,244.00 665.11,244.00 665.87,244.00 666.62,244.00 667.37,244.00 668.12,244.00 668.87,244.00 669.62,244.00 670.37,244.00 671.12,244.00 671.87,244.00 672.62,244.00 673.37,244.00 674.12,244.00 674.87,244.00 675.62,244.00 676.38,244.00 677.13,244.00 677.88,244.00 678.63,244.00 679.38,244.00 680.13,244.00 680.88,244.00 681.63,244.00 682.38,244.00 683.13,244.00 683.88,244.00 684.63,244.00 685.38,244.00 686.13,244.00 686.89,244.00 687.64,244.00 688.39,244.00 689.14,244.00 689.89,244.00 690.64,244.00 691.39,244.00 692.14,244.00 692.89,244.00 693.64,244.00 694.39,244.00 695.14,244.00 695.89,244.00 696.65,244.00 697.40,244.00 698.15,244.00 698.90,244.00 699.65,244.00 700.40,244.00 701.15,244.00 701.90,244.00 702.65,244.00 703.40,244.00 704.15,244.00 704.90,244.00 705.65,244.00 706.40,244.00 707.16,244.00 707.91,244.00 708.66,244.00 709.41,244.00 710.16,244.00 710.91,244.00 711.66,244.00 712.41,244.00 713.16,244.00 713.91,244.00 714.66,244.00 715.41,244.00 716.16,244.00 716.91,244.00 717.67,244.00 718.42,244.00 719.17,244.00 719.92,244.00 720.67,244.00 721.42,244.00 722.17,244.00 722.92,244.00 723.67,244.00 724.42,244.00 725.17,244.00 725.92,244.00 726.67,244.00 727.43,244.00 728.18,244.00 728.93,244.00 729.68,244.00 730.43,244.00 731.18,244.00 731.93,244.00 732.68,244.00 733.43,244.00 734.18,244.00 734.93,244.00 735.68,244.00 736.43,244.00 737.18,244.00 737.94,244.00 738.69,244.00 739.44,244.00 740.19,244.00 740.94,244.00 741.69,244.00 742.44,244.00 743.19,244.00 743.94,244.00 744.69,244.00 745.44,244.00 746.19,244.00 746.94,244.00 747.70,244.00 748.45,244.00 749.20,244.00 749.95,244.00 750.70,244.00 751.45,244.00 752.20,244.00 752.95,244.00 753.70,244.00 754.45,244.00 755.20,244.00 755.95,244.00 756.70,244.00 757.45,244.00 758.21,244.00 758.96,244.00 759.71,244.00 760.46,244.00 761.21,244.00 761.96,244.00 762.71,244.00 763.46,244.00 764.21,244.00 764.96,244.00 765.71,244.00 766.46,244.00 767.21,244.00 767.96,244.00 768.72,244.00 769.47,244.00 770.22,244.00 770.97,244.00 771.72,244.00 772.47,244.00 773.22,244.00 773.97,244.00 774.72,244.00 775.47,244.00 776.22,244.00 776.97,244.00 777.72,244.00 778.48,244.00 779.23,244.00 779.98,244.00 780.73,244.00 781.48,244.00 782.23,244.00 782.98,244.00 783.73,244.00 784.48,244.00 785.23,244.00 785.98,244.00 786.73,244.00 787.48,244.00 788.23,244.00 788.99,244.00 789.74,244.00 790.49,244.00 791.24,244.00 791.99,244.00 792.74,244.00 793.49,244.00 794.24,244.00 794.99,244.00 795.74,244.00 796.49,244.00 797.24,244.00 797.99,244.00 798.74,244.00 799.50,244.00 800.25,244.00 801.00,244.00 801.75,244.00 802.50,244.00 803.25,244.00 804.00,244.00" />
  <text x="420.0" y="22" text-anchor="middle" font-family="Arial, Helvetica, sans-serif" font-size="15" fill="#102a43">tukey_0p75 window (magnitude spectrum)</text>
  <text x="420.0" y="272" text-anchor="middle" font-family="Arial, Helvetica, sans-serif" font-size="12" fill="#334e68">normalized frequency</text>
  <text x="14" y="140.0" transform="rotate(-90 14,140.0)" text-anchor="middle" font-family="Arial, Helvetica, sans-serif" font-size="12" fill="#334e68">magnitude (dB)</text>
  <text x="36" y="262" font-family="Arial, Helvetica, sans-serif" font-size="11" fill="#486581">0</text>
  <text x="804" y="262" text-anchor="end" font-family="Arial, Helvetica, sans-serif" font-size="11" fill="#486581">1</text>
  <text x="30" y="40" text-anchor="end" font-family="Arial, Helvetica, sans-serif" font-size="11" fill="#486581">0.0</text>
  <text x="30" y="248" text-anchor="end" font-family="Arial, Helvetica, sans-serif" font-size="11" fill="#486581">-160.0</text>
</svg>
