<svg xmlns="http://www.w3.org/2000/svg" width="840" height="280" viewBox="0 0 840 280">
  <rect x="0" y="0" width="840" height="280" fill="#ffffff" />
  <rect x="36" y="36" width="768" height="208" fill="#f7fbff" stroke="#c8d9e6" />
  <polyline fill="none" stroke="#005f73" stroke-width="2" points="36.00,244.00 36.75,244.00 37.50,243.99 38.25,243.98 39.00,243.96 39.75,243.94 40.50,243.91 41.26,243.88 42.01,243.85 42.76,243.80 43.51,243.76 44.26,243.71 45.01,243.65 45.76,243.59 46.51,243.53 47.26,243.46 48.01,243.38 48.76,243.30 49.51,243.22 50.26,243.13 51.01,243.03 51.77,242.93 52.52,242.83 53.27,242.72 54.02,242.61 54.77,242.49 55.52,242.37 56.27,242.24 57.02,242.11 57.77,241.97 58.52,241.83 59.27,241.68 60.02,241.53 60.77,241.38 61.52,241.22 62.28,241.05 63.03,240.88 63.78,240.71 64.53,240.53 65.28,240.34 66.03,240.15 66.78,239.96 67.53,239.76 68.28,239.56 69.03,239.35 69.78,239.14 70.53,238.92 71.28,238.70 72.04,238.48 72.79,238.24 73.54,238.01 74.29,237.77 75.04,237.53 75.79,237.28 76.54,237.02 77.29,236.77 78.04,236.50 78.79,236.24 79.54,235.97 80.29,235.69 81.04,235.41 81.79,235.13 82.55,234.84 83.30,234.54 84.05,234.25 84.80,233.94 85.55,233.64 86.30,233.33 87.05,233.01 87.80,232.69 88.55,232.37 89.30,232.04 90.05,231.71 90.80,231.37 91.55,231.03 92.30,230.69 93.06,230.34 93.81,229.98 94.56,229.62 95.31,229.26 96.06,228.90 96.81,228.53 97.56,228.15 98.31,227.77 99.06,227.39 99.81,227.00 100.56,226.61 101.31,226.22 102.06,225.82 102.82,225.42 103.57,225.01 104.32,224.60 105.07,224.19 105.82,223.77 106.57,223.34 107.32,222.92 108.07,222.49 108.82,222.05 109.57,221.62 110.32,221.18 111.07,220.73 111.82,220.28 112.57,219.83 113.33,219.37 114.08,218.91 114.83,218.45 115.58,217.98 116.33,217.51 117.08,217.03 117.83,216.56 118.58,216.07 119.33,215.59 120.08,215.10 120.83,214.61 121.58,214.11 122.33,213.61 123.09,213.11 123.84,212.60 124.59,212.09 125.34,211.58 126.09,211.06 126.84,210.54 127.59,210.02 128.34,209.49 129.09,208.97 129.84,208.43 130.59,207.90 131.34,207.36 132.09,206.82 132.84,206.27 133.60,205.72 134.35,205.17 135.10,204.62 135.85,204.06 136.60,203.50 137.35,202.94 138.10,202.37 138.85,201.80 139.60,201.23 140.35,200.65 141.10,200.08 141.85,199.50 142.60,198.91 143.35,198.33 144.11,197.74 144.86,197.15 145.61,196.55 146.36,195.96 147.11,195.36 147.86,194.75 148.61,194.15 149.36,193.54 150.11,192.93 150.86,192.32 151.61,191.71 152.36,191.09 153.11,190.47 153.87,189.85 154.62,189.23 155.37,188.60 156.12,187.97 156.87,187.34 157.62,186.71 158.37,186.07 159.12,185.44 159.87,184.80 160.62,184.16 161.37,183.51 162.12,182.87 162.87,182.22 163.62,181.57 164.38,180.92 165.13,180.27 165.88,179.61 166.63,178.96 167.38,178.30 168.13,177.64 168.88,176.97 169.63,176.31 170.38,175.65 171.13,174.98 171.88,174.31 172.63,173.64 173.38,172.97 174.13,172.29 174.89,171.62 175.64,170.94 176.39,170.26 177.14,169.58 177.89,168.90 178.64,168.22 179.39,167.54 180.14,166.85 180.89,166.17 181.64,165.48 182.39,164.79 183.14,164.10 183.89,163.41 184.65,162.72 185.40,162.03 186.15,161.33 186.90,160.64 187.65,159.94 188.40,159.25 189.15,158.55 189.90,157.85 190.65,157.15 191.40,156.45 192.15,155.75 192.90,155.05 193.65,154.35 194.40,153.64 195.16,152.94 195.91,152.24 196.66,151.53 197.41,150.83 198.16,150.12 198.91,149.41 199.66,148.71 200.41,148.00 201.16,147.29 201.91,146.58 202.66,145.88 203.41,145.17 204.16,144.46 204.91,143.75 205.67,143.04 206.42,142.33 207.17,141.62 207.92,140.91 208.67,140.20 209.42,139.49 210.17,138.79 210.92,138.08 211.67,137.37 212.42,136.66 213.17,135.95 213.92,135.24 214.67,134.53 215.43,133.82 216.18,133.12 216.93,132.41 217.68,131.70 218.43,130.99 219.18,130.29 219.93,129.58 220.68,128.88 221.43,128.17 222.18,127.47 222.93,126.76 223.68,126.06 224.43,125.36 225.18,124.65 225.94,123.95 226.69,123.25 227.44,122.55 228.19,121.85 228.94,121.16 229.69,120.46 230.44,119.76 231.19,119.07 231.94,118.37 232.69,117.68 233.44,116.99 234.19,116.30 234.94,115.60 235.70,114.92 236.45,114.23 237.20,113.54 237.95,112.86 238.70,112.17 239.45,111.49 240.20,110.81 240.95,110.13 241.70,109.45 242.45,108.77 243.20,108.10 243.95,107.42 244.70,106.75 245.45,106.08 246.21,105.41 246.96,104.74 247.71,104.07 248.46,103.41 249.21,102.74 249.96,102.08 250.71,101.42 251.46,100.76 252.21,100.11 252.96,99.45 253.71,98.80 254.46,98.15 255.21,97.50 255.96,96.86 256.72,96.21 257.47,95.57 258.22,94.93 258.97,94.29 259.72,93.66 260.47,93.02 261.22,92.39 261.97,91.76 262.72,91.13 263.47,90.51 264.22,89.88 264.97,89.26 265.72,88.65 266.48,88.03 267.23,87.42 267.98,86.81 268.73,86.20 269.48,85.59 270.23,84.99 270.98,84.39 271.73,83.79 272.48,83.19 273.23,82.60 273.98,82.01 274.73,81.42 275.48,80.84 276.23,80.26 276.99,79.68 277.74,79.10 278.49,78.53 279.24,77.96 279.99,77.39 280.74,76.82 281.49,76.26 282.24,75.70 282.99,75.15 283.74,74.59 284.49,74.04 285.24,73.50 285.99,72.95 286.74,72.41 287.50,71.87 288.25,71.34 289.00,70.81 289.75,70.28 290.50,69.76 291.25,69.24 292.00,68.72 292.75,68.20 293.50,67.69 294.25,67.18 295.00,66.68 295.75,66.18 296.50,65.68 297.26,65.18 298.01,64.69 298.76,64.21 299.51,63.72 300.26,63.24 301.01,62.76 301.76,62.29 302.51,61.82 303.26,61.36 304.01,60.89 304.76,60.43 305.51,59.98 306.26,59.53 307.01,59.08 307.77,58.64 308.52,58.20 309.27,57.76 310.02,57.33 310.77,56.90 311.52,56.48 312.27,56.05 313.02,55.64 313.77,55.22 314.52,54.82 315.27,54.41 316.02,54.01 316.77,53.61 317.52,53.22 318.28,52.83 319.03,52.45 319.78,52.07 320.53,51.69 321.28,51.32 322.03,50.95 322.78,50.58 323.53,50.22 324.28,49.87 325.03,49.52 325.78,49.17 326.53,48.82 327.28,48.49 328.04,48.15 328.79,47.82 329.54,47.49 330.29,47.17 331.04,46.85 331.79,46.54 332.54,46.23 333.29,45.93 334.04,45.63 334.79,45.33 335.54,45.04 336.29,44.75 337.04,44.47 337.79,44.19 338.55,43.92 339.30,43.65 340.05,43.38 340.80,43.12 341.55,42.87 342.30,42.62 343.05,42.37 343.80,42.13 344.55,41.89 345.30,41.66 346.05,41.43 346.80,41.20 347.55,40.98 348.30,40.77 349.06,40.56 349.81,40.35 350.56,40.15 351.31,39.96 352.06,39.77 352.81,39.58 353.56,39.40 354.31,39.22 355.06,39.05 355.81,38.88 356.56,38.72 357.31,38.56 358.06,38.40 358.82,38.25 359.57,38.11 360.32,37.97 361.07,37.83 361.82,37.70 362.57,37.58 363.32,37.46 364.07,37.34 364.82,37.23 365.57,37.12 366.32,37.02 367.07,36.93 367.82,36.83 368.57,36.75 369.33,36.66 370.08,36.59 370.83,36.51 371.58,36.45 372.33,36.38 373.08,36.32 373.83,36.27 374.58,36.22 375.33,36.18 376.08,36.14 376.83,36.10 377.58,36.08 378.33,36.05 379.09,36.03 379.84,36.02 380.59,36.01 381.34,36.00 382.09,36.00 382.84,36.00 383.59,36.00 384.34,36.00 385.09,36.00 385.84,36.00 386.59,36.00 387.34,36.00 388.09,36.00 388.84,36.00 389.60,36.00 390.35,36.00 391.10,36.00 391.85,36.00 392.60,36.00 393.35,36.00 394.10,36.00 394.85,36.00 395.60,36.00 396.35,36.00 397.10,36.00 397.85,36.00 398.60,36.00 399.35,36.00 400.11,36.00 400.86,36.00 401.61,36.00 402.36,36.00 403.11,36.00 403.86,36.00 404.61,36.00 405.36,36.00 406.11,36.00 406.86,36.00 407.61,36.00 408.36,36.00 409.11,36.00 409.87,36.00 410.62,36.00 411.37,36.00 412.12,36.00 412.87,36.00 413.62,36.00 414.37,36.00 415.12,36.00 415.87,36.00 416.62,36.00 417.37,36.00 418.12,36.00 418.87,36.00 419.62,36.00 420.38,36.00 421.13,36.00 421.88,36.00 422.63,36.00 423.38,36.00 424.13,36.00 424.88,36.00 425.63,36.00 426.38,36.00 427.13,36.00 427.88,36.00 428.63,36.00 429.38,36.00 430.13,36.00 430.89,36.00 431.64,36.00 432.39,36.00 433.14,36.00 433.89,36.00 434.64,36.00 435.39,36.00 436.14,36.00 436.89,36.00 437.64,36.00 438.39,36.00 439.14,36.00 439.89,36.00 440.65,36.00 441.40,36.00 442.15,36.00 442.90,36.00 443.65,36.00 444.40,36.00 445.15,36.00 445.90,36.00 446.65,36.00 447.40,36.00 448.15,36.00 448.90,36.00 449.65,36.00 450.40,36.00 451.16,36.00 451.91,36.00 452.66,36.00 453.41,36.00 454.16,36.00 454.91,36.00 455.66,36.00 456.41,36.00 457.16,36.00 457.91,36.00 458.66,36.00 459.41,36.00 460.16,36.01 460.91,36.02 461.67,36.04 462.42,36.06 463.17,36.09 463.92,36.12 464.67,36.16 465.42,36.20 466.17,36.25 466.92,36.30 467.67,36.35 468.42,36.41 469.17,36.48 469.92,36.55 470.67,36.62 471.43,36.70 472.18,36.79 472.93,36.88 473.68,36.97 474.43,37.07 475.18,37.18 475.93,37.29 476.68,37.40 477.43,37.52 478.18,37.64 478.93,37.77 479.68,37.90 480.43,38.04 481.18,38.18 481.94,38.33 482.69,38.48 483.44,38.64 484.19,38.80 484.94,38.96 485.69,39.13 486.44,39.31 487.19,39.49 487.94,39.67 488.69,39.86 489.44,40.06 490.19,40.25 490.94,40.46 491.70,40.66 492.45,40.88 493.20,41.09 493.95,41.32 494.70,41.54 495.45,41.77 496.20,42.01 496.95,42.25 497.70,42.49 498.45,42.74 499.20,42.99 499.95,43.25 500.70,43.52 501.45,43.78 502.21,44.05 502.96,44.33 503.71,44.61 504.46,44.89 505.21,45.18 505.96,45.48 506.71,45.78 507.46,46.08 508.21,46.39 508.96,46.70 509.71,47.01 510.46,47.33 511.21,47.66 511.96,47.98 512.72,48.32 513.47,48.65 514.22,49.00 514.97,49.34 515.72,49.69 516.47,50.04 517.22,50.40 517.97,50.76 518.72,51.13 519.47,51.50 520.22,51.88 520.97,52.26 521.72,52.64 522.48,53.02 523.23,53.42 523.98,53.81 524.73,54.21 525.48,54.61 526.23,55.02 526.98,55.43 527.73,55.85 528.48,56.26 529.23,56.69 529.98,57.11 530.73,57.54 531.48,57.98 532.23,58.42 532.99,58.86 533.74,59.30 534.49,59.75 535.24,60.21 535.99,60.66 536.74,61.12 537.49,61.59 538.24,62.06 538.99,62.53 539.74,63.00 540.49,63.48 541.24,63.96 541.99,64.45 542.74,64.94 543.50,65.43 544.25,65.93 545.00,66.43 545.75,66.93 546.50,67.44 547.25,67.95 548.00,68.46 548.75,68.98 549.50,69.50 550.25,70.02 551.00,70.54 551.75,71.07 552.50,71.61 553.26,72.14 554.01,72.68 554.76,73.22 555.51,73.77 556.26,74.32 557.01,74.87 557.76,75.42 558.51,75.98 559.26,76.54 560.01,77.11 560.76,77.67 561.51,78.24 562.26,78.81 563.01,79.39 563.77,79.97 564.52,80.55 565.27,81.13 566.02,81.72 566.77,82.31 567.52,82.90 568.27,83.49 569.02,84.09 569.77,84.69 570.52,85.29 571.27,85.90 572.02,86.50 572.77,87.11 573.52,87.72 574.28,88.34 575.03,88.96 575.78,89.57 576.53,90.20 577.28,90.82 578.03,91.45 578.78,92.07 579.53,92.71 580.28,93.34 581.03,93.97 581.78,94.61 582.53,95.25 583.28,95.89 584.04,96.53 584.79,97.18 585.54,97.83 586.29,98.48 587.04,99.13 587.79,99.78 588.54,100.44 589.29,101.09 590.04,101.75 590.79,102.41 591.54,103.08 592.29,103.74 593.04,104.40 593.79,105.07 594.55,105.74 595.30,106.41 596.05,107.08 596.80,107.76 597.55,108.43 598.30,109.11 599.05,109.79 599.80,110.47 600.55,111.15 601.30,111.83 602.05,112.51 602.80,113.20 603.55,113.88 604.30,114.57 605.06,115.26 605.81,115.95 606.56,116.64 607.31,117.33 608.06,118.03 608.81,118.72 609.56,119.41 610.31,120.11 611.06,120.81 611.81,121.50 612.56,122.20 613.31,122.90 614.06,123.60 614.82,124.30 615.57,125.00 616.32,125.71 617.07,126.41 617.82,127.11 618.57,127.82 619.32,128.52 620.07,129.23 620.82,129.93 621.57,130.64 622.32,131.35 623.07,132.05 623.82,132.76 624.57,133.47 625.33,134.18 626.08,134.89 626.83,135.59 627.58,136.30 628.33,137.01 629.08,137.72 629.83,138.43 630.58,139.14 631.33,139.85 632.08,140.56 632.83,141.27 633.58,141.98 634.33,142.69 635.09,143.40 635.84,144.10 636.59,144.81 637.34,145.52 638.09,146.23 638.84,146.94 639.59,147.65 640.34,148.35 641.09,149.06 641.84,149.77 642.59,150.47 643.34,151.18 644.09,151.88 644.84,152.59 645.60,153.29 646.35,153.99 647.10,154.70 647.85,155.40 648.60,156.10 649.35,156.80 650.10,157.50 650.85,158.20 651.60,158.90 652.35,159.59 653.10,160.29 653.85,160.99 654.60,161.68 655.35,162.37 656.11,163.07 656.86,163.76 657.61,164.45 658.36,165.14 659.11,165.82 659.86,166.51 660.61,167.20 661.36,167.88 662.11,168.56 662.86,169.24 663.61,169.92 664.36,170.60 665.11,171.28 665.87,171.96 666.62,172.63 667.37,173.30 668.12,173.97 668.87,174.64 669.62,175.31 670.37,175.98 671.12,176.64 671.87,177.31 672.62,177.97 673.37,178.63 674.12,179.28 674.87,179.94 675.62,180.59 676.38,181.25 677.13,181.90 677.88,182.55 678.63,183.19 679.38,183.84 680.13,184.48 680.88,185.12 681.63,185.76 682.38,186.39 683.13,187.03 683.88,187.66 684.63,188.29 685.38,188.91 686.13,189.54 686.89,190.16 687.64,190.78 688.39,191.40 689.14,192.02 689.89,192.63 690.64,193.24 691.39,193.85 692.14,194.45 692.89,195.06 693.64,195.66 694.39,196.25 695.14,196.85 695.89,197.44 696.65,198.03 697.40,198.62 698.15,199.20 698.90,199.79 699.65,200.37 700.40,200.94 701.15,201.51 701.90,202.09 702.65,202.65 703.40,203.22 704.15,203.78 704.90,204.34 705.65,204.89 706.40,205.45 707.16,206.00 707.91,206.54 708.66,207.09 709.41,207.63 710.16,208.17 710.91,208.70 711.66,209.23 712.41,209.76 713.16,210.28 713.91,210.80 714.66,211.32 715.41,211.84 716.16,212.35 716.91,212.86 717.67,213.36 718.42,213.86 719.17,214.36 719.92,214.85 720.67,215.34 721.42,215.83 722.17,216.31 722.92,216.80 723.67,217.27 724.42,217.74 725.17,218.21 725.92,218.68 726.67,219.14 727.43,219.60 728.18,220.05 728.93,220.51 729.68,220.95 730.43,221.40 731.18,221.84 731.93,222.27 732.68,222.70 733.43,223.13 734.18,223.56 734.93,223.98 735.68,224.39 736.43,224.81 737.18,225.21 737.94,225.62 738.69,226.02 739.44,226.42 740.19,226.81 740.94,227.20 741.69,227.58 742.44,227.96 743.19,228.34 743.94,228.71 744.69,229.08 745.44,229.44 746.19,229.80 746.94,230.16 747.70,230.51 748.45,230.86 749.20,231.20 749.95,231.54 750.70,231.87 751.45,232.21 752.20,232.53 752.95,232.85 753.70,233.17 754.45,233.48 755.20,233.79 755.95,234.10 756.70,234.40 757.45,234.69 758.21,234.98 758.96,235.27 759.71,235.55 760.46,235.83 761.21,236.10 761.96,236.37 762.71,236.64 763.46,236.90 764.21,237.15 764.96,237.40 765.71,237.65 766.46,237.89 767.21,238.13 767.96,238.36 768.72,238.59 769.47,238.81 770.22,239.03 770.97,239.25 771.72,239.46 772.47,239.66 773.22,239.86 773.97,240.06 774.72,240.25 775.47,240.43 776.22,240.62 776.97,240.79 777.72,240.97 778.48,241.13 779.23,241.30 779.98,241.45 780.73,241.61 781.48,241.76 782.23,241.90 782.98,242.04 783.73,242.18 784.48,242.31 785.23,242.43 785.98,242.55 786.73,242.67 787.48,242.78 788.23,242.88 788.99,242.98 789.74,243.08 790.49,243.17 791.24,243.26 791.99,243.34 792.74,243.42 793.49,243.49 794.24,243.56 794.99,243.62 795.74,243.68 796.49,243.73 797.24,243.78 797.99,243.83 798.74,243.86 799.50,243.90 800.25,243.93 801.00,243.95 801.75,243.97 802.50,243.98 803.25,243.99 804.00,244.00" />
  <text x="420.0" y="22" text-anchor="middle" font-family="Arial, Helvetica, sans-serif" font-size="15" fill="#102a43">tukey_0p9 window (time domain)</text>
  <text x="420.0" y="272" text-anchor="middle" font-family="Arial, Helvetica, sans-serif" font-size="12" fill="#334e68">normalized sample index</text>
  <text x="14" y="140.0" transform="rotate(-90 14,140.0)" text-anchor="middle" font-family="Arial, Helvetica, sans-serif" font-size="12" fill="#334e68">amplitude</text>
  <text x="36" y="262" font-family="Arial, Helvetica, sans-serif" font-size="11" fill="#486581">0</text>
  <text x="804" y="262" text-anchor="end" font-family="Arial, Helvetica, sans-serif" font-size="11" fill="#486581">1</text>
  <text x="30" y="40" text-anchor="end" font-family="Arial, Helvetica, sans-serif" font-size="11" fill="#486581">1.0</text>
  <text x="30" y="248" text-anchor="end" font-family="Arial, Helvetica, sans-serif" font-size="11" fill="#486581">0.0</text>
</svg>
