<svg xmlns="http://www.w3.org/2000/svg" width="840" height="280" viewBox="0 0 840 280">
  <rect x="0" y="0" width="840" height="280" fill="#ffffff" />
  <rect x="36" y="36" width="768" height="208" fill="#f7fbff" stroke="#c8d9e6" />
  <polyline fill="none" stroke="#005f73" stroke-width="2" points="36.00,36.00 36.75,50.24 37.50,56.22 38.25,68.46 39.00,134.48 39.75,90.30 40.50,157.96 41.26,102.91 42.01,152.66 42.76,111.54 43.51,170.37 44.26,118.88 45.01,162.22 45.76,124.23 46.51,178.20 47.26,129.63 48.01,168.91 48.76,133.95 49.51,186.85 50.26,137.26 51.01,179.77 51.77,141.08 52.52,197.49 53.27,143.83 54.02,190.56 54.77,146.94 55.52,208.96 56.27,149.35 57.02,203.65 57.77,151.92 58.52,226.32 59.27,154.11 60.02,184.69 60.77,156.82 61.52,199.89 62.28,157.78 63.03,190.20 63.78,160.63 64.53,205.29 65.28,161.51 66.03,195.51 66.78,164.04 67.53,210.57 68.28,164.89 69.03,200.80 69.78,167.12 70.53,215.93 71.28,167.97 72.04,193.88 72.79,170.53 73.54,208.17 74.29,170.29 75.04,197.57 75.79,173.12 76.54,211.80 77.29,172.91 78.04,201.16 78.79,175.51 79.54,215.36 80.29,175.36 81.04,204.68 81.79,177.73 82.55,218.88 83.30,177.64 84.05,200.39 84.80,180.42 85.55,214.23 86.30,179.29 87.05,203.17 87.80,182.37 88.55,216.98 89.30,181.32 90.05,205.88 90.80,184.20 91.55,219.67 92.30,183.24 93.06,208.55 93.81,185.93 94.56,222.33 95.31,185.06 96.06,205.44 96.81,188.20 97.56,219.02 98.31,186.31 99.06,207.66 99.81,189.75 100.56,221.23 101.31,187.96 102.06,209.85 102.82,191.23 103.57,223.40 104.32,189.54 105.07,211.99 105.82,192.64 106.57,225.54 107.32,191.06 108.07,209.56 108.82,194.64 109.57,222.99 110.32,192.05 111.07,211.42 111.82,195.92 112.57,224.83 113.33,193.45 114.08,213.25 114.83,197.15 115.58,226.65 116.33,194.79 117.08,215.05 117.83,198.34 118.58,228.45 119.33,196.10 120.08,213.05 120.83,200.15 121.58,226.37 122.33,196.89 123.09,214.65 123.84,201.24 124.59,227.96 125.34,198.11 126.09,216.21 126.84,202.29 127.59,229.53 128.34,199.28 129.09,217.76 129.84,203.31 130.59,231.07 131.34,200.43 132.09,216.08 132.84,204.98 133.60,229.33 134.35,201.09 135.10,217.47 135.85,205.93 136.60,230.73 137.35,202.16 138.10,218.85 138.85,206.84 139.60,232.10 140.35,203.20 141.10,220.21 141.85,207.73 142.60,233.46 143.35,204.22 144.11,218.75 144.86,209.31 145.61,231.97 146.36,204.78 147.11,219.99 147.86,210.14 148.61,233.21 149.36,205.74 150.11,221.21 150.86,210.94 151.61,234.43 152.36,206.68 153.11,222.42 153.87,211.73 154.62,235.65 155.37,207.59 156.12,221.14 156.87,213.23 157.62,234.34 158.37,208.07 159.12,222.25 159.87,213.96 160.62,235.46 161.37,208.94 162.12,223.35 162.87,214.68 163.62,236.57 164.38,209.80 165.13,224.45 165.88,215.38 166.63,237.66 167.38,210.63 168.13,223.30 168.88,216.82 169.63,236.51 170.38,211.04 171.13,224.32 171.88,217.48 172.63,237.53 173.38,211.84 174.13,225.32 174.89,218.12 175.64,238.53 176.39,212.62 177.14,226.31 177.89,218.75 178.64,239.53 179.39,213.39 180.14,225.28 180.89,220.16 181.64,238.51 182.39,213.75 183.14,226.21 183.89,220.75 184.65,239.44 185.40,214.48 186.15,227.13 186.90,221.33 187.65,240.36 188.40,215.21 189.15,228.04 189.90,221.90 190.65,241.28 191.40,215.92 192.15,227.10 192.90,223.27 193.65,240.36 194.40,216.23 195.16,227.96 195.91,223.80 196.66,241.22 197.41,216.91 198.16,228.81 198.91,224.33 199.66,242.08 200.41,217.58 201.16,229.65 201.91,224.85 202.66,242.93 203.41,218.25 204.16,228.79 204.91,226.20 205.67,242.09 206.42,218.53 207.17,229.59 207.92,226.68 208.67,242.89 209.42,219.16 210.17,230.37 210.92,227.16 211.67,243.69 212.42,219.79 213.17,231.15 213.92,227.63 214.67,244.00 215.43,220.41 216.18,230.37 216.93,228.97 217.68,243.72 218.43,220.66 219.18,231.11 219.93,229.41 220.68,244.00 221.43,221.25 222.18,231.84 222.93,229.85 223.68,244.00 224.43,221.84 225.18,232.57 225.94,230.28 226.69,244.00 227.44,222.42 228.19,231.85 228.94,231.61 229.69,244.00 230.44,222.65 231.19,232.54 231.94,232.01 232.69,244.00 233.44,223.21 234.19,233.22 234.94,232.41 235.70,244.00 236.45,223.76 237.20,233.90 237.95,232.80 238.70,244.00 239.45,224.31 240.20,233.24 240.95,234.14 241.70,244.00 242.45,224.52 243.20,233.89 243.95,234.51 244.70,244.00 245.45,225.05 246.21,234.53 246.96,234.87 247.71,244.00 248.46,225.57 249.21,235.17 249.96,235.23 250.71,244.00 251.46,226.09 252.21,234.55 252.96,236.56 253.71,244.00 254.46,226.28 255.21,235.16 255.96,236.90 256.72,244.00 257.47,226.78 258.22,235.77 258.97,237.24 259.72,244.00 260.47,227.28 261.22,236.37 261.97,237.56 262.72,244.00 263.47,227.77 264.22,235.79 264.97,238.91 265.72,244.00 266.48,227.94 267.23,236.37 267.98,239.22 268.73,244.00 269.48,228.42 270.23,236.95 270.98,239.52 271.73,244.00 272.48,228.89 273.23,237.52 273.98,239.82 274.73,244.00 275.48,229.36 276.23,236.98 276.99,241.18 277.74,244.00 278.49,229.52 279.24,237.52 279.99,241.46 280.74,244.00 281.49,229.97 282.24,238.07 282.99,241.74 283.74,244.00 284.49,230.42 285.24,238.61 285.99,242.01 286.74,244.00 287.50,230.87 288.25,238.10 289.00,243.40 289.75,244.00 290.50,231.02 291.25,238.62 292.00,243.65 292.75,244.00 293.50,231.45 294.25,239.14 295.00,243.90 295.75,244.00 296.50,231.88 297.26,239.66 298.01,244.00 298.76,244.00 299.51,232.31 300.26,239.18 301.01,244.00 301.76,244.00 302.51,232.45 303.26,239.68 304.01,244.00 304.76,244.00 305.51,232.87 306.26,240.17 307.01,244.00 307.77,244.00 308.52,233.28 309.27,240.66 310.02,244.00 310.77,244.00 311.52,233.68 312.27,240.22 313.02,244.00 313.77,244.00 314.52,233.82 315.27,240.69 316.02,244.00 316.77,244.00 317.52,234.22 318.28,241.16 319.03,244.00 319.78,244.00 320.53,234.61 321.28,241.63 322.03,244.00 322.78,244.00 323.53,235.00 324.28,241.21 325.03,244.00 325.78,244.00 326.53,235.13 327.28,241.66 328.04,244.00 328.79,244.00 329.54,235.52 330.29,242.11 331.04,244.00 331.79,244.00 332.54,235.89 333.29,242.56 334.04,244.00 334.79,244.00 335.54,236.27 336.29,242.16 337.04,244.00 337.79,244.00 338.55,236.40 339.30,242.60 340.05,244.00 340.80,244.00 341.55,236.76 342.30,243.03 343.05,244.00 343.80,244.00 344.55,237.13 345.30,243.46 346.05,244.00 346.80,244.00 347.55,237.49 348.30,243.08 349.06,244.00 349.81,244.00 350.56,237.61 351.31,243.50 352.06,244.00 352.81,244.00 353.56,237.97 354.31,243.91 355.06,244.00 355.81,244.00 356.56,238.32 357.31,244.00 358.06,244.00 358.82,244.00 359.57,238.67 360.32,243.97 361.07,244.00 361.82,244.00 362.57,238.79 363.32,244.00 364.07,244.00 364.82,244.00 365.57,239.13 366.32,244.00 367.07,244.00 367.82,244.00 368.57,239.47 369.33,244.00 370.08,244.00 370.83,244.00 371.58,239.80 372.33,244.00 373.08,244.00 373.83,244.00 374.58,239.92 375.33,244.00 376.08,244.00 376.83,244.00 377.58,240.25 378.33,244.00 379.09,244.00 379.84,244.00 380.59,240.58 381.34,244.00 382.09,244.00 382.84,244.00 383.59,240.91 384.34,244.00 385.09,244.00 385.84,244.00 386.59,241.02 387.34,244.00 388.09,244.00 388.84,244.00 389.60,241.34 390.35,244.00 391.10,244.00 391.85,244.00 392.60,241.66 393.35,244.00 394.10,244.00 394.85,244.00 395.60,241.98 396.35,244.00 397.10,244.00 397.85,244.00 398.60,242.09 399.35,244.00 400.11,244.00 400.86,244.00 401.61,242.40 402.36,244.00 403.11,244.00 403.86,244.00 404.61,242.71 405.36,244.00 406.11,244.00 406.86,244.00 407.61,243.02 408.36,244.00 409.11,244.00 409.87,244.00 410.62,243.14 411.37,244.00 412.12,244.00 412.87,244.00 413.62,243.44 414.37,244.00 415.12,244.00 415.87,244.00 416.62,243.73 417.37,244.00 418.12,244.00 418.87,244.00 419.62,244.00 420.38,244.00 421.13,244.00 421.88,244.00 422.63,244.00 423.38,244.00 424.13,244.00 424.88,244.00 425.63,244.00 426.38,244.00 427.13,244.00 427.88,244.00 428.63,244.00 429.38,244.00 430.13,244.00 430.89,244.00 431.64,244.00 432.39,244.00 433.14,244.00 433.89,244.00 434.64,244.00 435.39,244.00 436.14,244.00 436.89,244.00 437.64,244.00 438.39,244.00 439.14,244.00 439.89,244.00 440.65,244.00 441.40,244.00 442.15,244.00 442.90,244.00 443.65,244.00 444.40,244.00 445.15,244.00 445.90,244.00 446.65,244.00 447.40,244.00 448.15,244.00 448.90,244.00 449.65,244.00 450.40,244.00 451.16,244.00 451.91,244.00 452.66,244.00 453.41,244.00 454.16,244.00 454.91,244.00 455.66,244.00 456.41,244.00 457.16,244.00 457.91,244.00 458.66,244.00 459.41,244.00 460.16,244.00 460.91,244.00 461.67,244.00 462.42,244.00 463.17,244.00 463.92,244.00 464.67,244.00 465.42,244.00 466.17,244.00 466.92,244.00 467.67,244.00 468.42,244.00 469.17,244.00 469.92,244.00 470.67,244.00 471.43,244.00 472.18,244.00 472.93,244.00 473.68,244.00 474.43,244.00 475.18,244.00 475.93,244.00 476.68,244.00 477.43,244.00 478.18,244.00 478.93,244.00 479.68,244.00 480.43,244.00 481.18,244.00 481.94,244.00 482.69,244.00 483.44,244.00 484.19,244.00 484.94,244.00 485.69,244.00 486.44,244.00 487.19,244.00 487.94,244.00 488.69,244.00 489.44,244.00 490.19,244.00 490.94,244.00 491.70,244.00 492.45,244.00 493.20,244.00 493.95,244.00 494.70,244.00 495.45,244.00 496.20,244.00 496.95,244.00 497.70,244.00 498.45,244.00 499.20,244.00 499.95,244.00 500.70,244.00 501.45,244.00 502.21,244.00 502.96,244.00 503.71,244.00 504.46,244.00 505.21,244.00 505.96,244.00 506.71,244.00 507.46,244.00 508.21,244.00 508.96,244.00 509.71,244.00 510.46,244.00 511.21,244.00 511.96,244.00 512.72,244.00 513.47,244.00 514.22,244.00 514.97,244.00 515.72,244.00 516.47,244.00 517.22,244.00 517.97,244.00 518.72,244.00 519.47,244.00 520.22,244.00 520.97,244.00 521.72,244.00 522.48,244.00 523.23,244.00 523.98,244.00 524.73,244.00 525.48,244.00 526.23,244.00 526.98,244.00 527.73,244.00 528.48,244.00 529.23,244.00 529.98,244.00 530.73,244.00 531.48,244.00 532.23,244.00 532.99,244.00 533.74,244.00 534.49,244.00 535.24,244.00 535.99,244.00 536.74,244.00 537.49,244.00 538.24,244.00 538.99,244.00 539.74,244.00 540.49,244.00 541.24,244.00 541.99,244.00 542.74,244.00 543.50,244.00 544.25,244.00 545.00,244.00 545.75,244.00 546.50,244.00 547.25,244.00 548.00,244.00 548.75,244.00 549.50,244.00 550.25,244.00 551.00,244.00 551.75,244.00 552.50,244.00 553.26,244.00 554.01,244.00 554.76,244.00 555.51,244.00 556.26,244.00 557.01,244.00 557.76,244.00 558.51,244.00 559.26,244.00 560.01,244.00 560.76,244.00 561.51,244.00 562.26,244.00 563.01,244.00 563.77,244.00 564.52,244.00 565.27,244.00 566.02,244.00 566.77,244.00 567.52,244.00 568.27,244.00 569.02,244.00 569.77,244.00 570.52,244.00 571.27,244.00 572.02,244.00 572.77,244.00 573.52,244.00 574.28,244.00 575.03,244.00 575.78,244.00 576.53,244.00 577.28,244.00 578.03,244.00 578.78,244.00 579.53,244.00 580.28,244.00 581.03,244.00 581.78,244.00 582.53,244.00 583.28,244.00 584.04,244.00 584.79,244.00 585.54,244.00 586.29,244.00 587.04,244.00 587.79,244.00 588.54,244.00 589.29,244.00 590.04,244.00 590.79,244.00 591.54,244.00 592.29,244.00 593.04,244.00 593.79,244.00 594.55,244.00 595.30,244.00 596.05,244.00 596.80,244.00 597.55,244.00 598.30,244.00 599.05,244.00 599.80,244.00 600.55,244.00 601.30,244.00 602.05,244.00 602.80,244.00 603.55,244.00 604.30,244.00 605.06,244.00 605.81,244.00 606.56,244.00 607.31,244.00 608.06,244.00 608.81,244.00 609.56,244.00 610.31,244.00 611.06,244.00 611.81,244.00 612.56,244.00 613.31,244.00 614.06,244.00 614.82,244.00 615.57,244.00 616.32,244.00 617.07,244.00 617.82,244.00 618.57,244.00 619.32,244.00 620.07,244.00 620.82,244.00 621.57,244.00 622.32,244.00 623.07,244.00 623.82,244.00 624.57,244.00 625.33,244.00 626.08,244.00 626.83,244.00 627.58,244.00 628.33,244.00 629.08,244.00 629.83,244.00 630.58,244.00 631.33,244.00 632.08,244.00 632.83,244.00 633.58,244.00 634.33,244.00 635.09,244.00 635.84,244.00 636.59,244.00 637.34,244.00 638.09,244.00 638.84,244.00 639.59,244.00 640.34,244.00 641.09,244.00 641.84,244.00 642.59,244.00 643.34,244.00 644.09,244.00 644.84,244.00 645.60,244.00 646.35,244.00 647.10,244.00 647.85,244.00 648.60,244.00 649.35,244.00 650.10,244.00 650.85,244.00 651.60,244.00 652.35,244.00 653.10,244.00 653.85,244.00 654.60,244.00 655.35,244.00 656.11,244.00 656.86,244.00 657.61,244.00 658.36,244.00 659.11,244.00 659.86,244.00 660.61,244.00 661.36,244.00 662.11,244.00 662.86,244.00 663.61,244.00 664.36,244.00 665.11,244.00 665.87,244.00 666.62,244.00 667.37,244.00 668.12,244.00 668.87,244.00 669.62,244.00 670.37,244.00 671.12,244.00 671.87,244.00 672.62,244.00 673.37,244.00 674.12,244.00 674.87,244.00 675.62,244.00 676.38,244.00 677.13,244.00 677.88,244.00 678.63,244.00 679.38,244.00 680.13,244.00 680.88,244.00 681.63,244.00 682.38,244.00 683.13,244.00 683.88,244.00 684.63,244.00 685.38,244.00 686.13,244.00 686.89,244.00 687.64,244.00 688.39,244.00 689.14,244.00 689.89,244.00 690.64,244.00 691.39,244.00 692.14,244.00 692.89,244.00 693.64,244.00 694.39,244.00 695.14,244.00 695.89,244.00 696.65,244.00 697.40,244.00 698.15,244.00 698.90,244.00 699.65,244.00 700.40,244.00 701.15,244.00 701.90,244.00 702.65,244.00 703.40,244.00 704.15,244.00 704.90,244.00 705.65,244.00 706.40,244.00 707.16,244.00 707.91,244.00 708.66,244.00 709.41,244.00 710.16,244.00 710.91,244.00 711.66,244.00 712.41,244.00 713.16,244.00 713.91,244.00 714.66,244.00 715.41,244.00 716.16,244.00 716.91,244.00 717.67,244.00 718.42,244.00 719.17,244.00 719.92,244.00 720.67,244.00 721.42,244.00 722.17,244.00 722.92,244.00 723.67,244.00 724.42,244.00 725.17,244.00 725.92,244.00 726.67,244.00 727.43,244.00 728.18,244.00 728.93,244.00 729.68,244.00 730.43,244.00 731.18,244.00 731.93,244.00 732.68,244.00 733.43,244.00 734.18,244.00 734.93,244.00 735.68,244.00 736.43,244.00 737.18,244.00 737.94,244.00 738.69,244.00 739.44,244.00 740.19,244.00 740.94,244.00 741.69,244.00 742.44,244.00 743.19,244.00 743.94,244.00 744.69,244.00 745.44,244.00 746.19,244.00 746.94,244.00 747.70,244.00 748.45,244.00 749.20,244.00 749.95,244.00 750.70,244.00 751.45,244.00 752.20,244.00 752.95,244.00 753.70,244.00 754.45,244.00 755.20,244.00 755.95,244.00 756.70,244.00 757.45,244.00 758.21,244.00 758.96,244.00 759.71,244.00 760.46,244.00 761.21,244.00 761.96,244.00 762.71,244.00 763.46,244.00 764.21,244.00 764.96,244.00 765.71,244.00 766.46,244.00 767.21,244.00 767.96,244.00 768.72,244.00 769.47,244.00 770.22,244.00 770.97,244.00 771.72,244.00 772.47,244.00 773.22,244.00 773.97,244.00 774.72,244.00 775.47,244.00 776.22,244.00 776.97,244.00 777.72,244.00 778.48,244.00 779.23,244.00 779.98,244.00 780.73,244.00 781.48,244.00 782.23,244.00 782.98,244.00 783.73,244.00 784.48,244.00 785.23,244.00 785.98,244.00 786.73,244.00 787.48,244.00 788.23,244.00 788.99,244.00 789.74,244.00 790.49,244.00 791.24,244.00 791.99,244.00 792.74,244.00 793.49,244.00 794.24,244.00 794.99,244.00 795.74,244.00 796.49,244.00 797.24,244.00 797.99,244.00 798.74,244.00 799.50,244.00 800.25,244.00 801.00,244.00 801.75,244.00 802.50,244.00 803.25,244.00 804.00,244.00" />
  <text x="420.0" y="22" text-anchor="middle" font-family="Arial, Helvetica, sans-serif" font-size="15" fill="#102a43">tukey window (magnitude spectrum)</text>
  <text x="420.0" y="272" text-anchor="middle" font-family="Arial, Helvetica, sans-serif" font-size="12" fill="#334e68">normalized frequency</text>
  <text x="14" y="140.0" transform="rotate(-90 14,140.0)" text-anchor="middle" font-family="Arial, Helvetica, sans-serif" font-size="12" fill="#334e68">magnitude (dB)</text>
  <text x="36" y="262" font-family="Arial, Helvetica, sans-serif" font-size="11" fill="#486581">0</text>
  <text x="804" y="262" text-anchor="end" font-family="Arial, Helvetica, sans-serif" font-size="11" fill="#486581">1</text>
  <text x="30" y="40" text-anchor="end" font-family="Arial, Helvetica, sans-serif" font-size="11" fill="#486581">0.0</text>
  <text x="30" y="248" text-anchor="end" font-family="Arial, Helvetica, sans-serif" font-size="11" fill="#486581">-160.0</text>
</svg>
