<svg xmlns="http://www.w3.org/2000/svg" width="840" height="280" viewBox="0 0 840 280">
  <rect x="0" y="0" width="840" height="280" fill="#ffffff" />
  <rect x="36" y="36" width="768" height="208" fill="#f7fbff" stroke="#c8d9e6" />
  <polyline fill="none" stroke="#005f73" stroke-width="2" points="36.00,36.00 36.75,69.21 37.50,69.43 38.25,69.80 39.00,70.33 39.75,71.01 40.50,71.86 41.26,72.87 42.01,74.07 42.76,75.46 43.51,77.07 44.26,78.91 45.01,81.02 45.76,83.44 46.51,86.24 47.26,89.51 48.01,92.73 48.76,97.29 49.51,103.25 50.26,112.25 51.01,140.30 51.77,118.88 52.52,112.80 53.27,110.72 54.02,110.44 54.77,111.37 55.52,113.38 56.27,116.60 57.02,121.55 57.77,130.10 58.52,209.35 59.27,132.51 60.02,126.19 60.77,123.64 61.52,122.81 62.28,123.18 63.03,124.61 63.78,127.20 64.53,131.35 65.28,138.45 66.03,158.47 66.78,145.24 67.53,137.32 68.28,134.07 69.03,132.82 69.78,132.90 70.53,134.14 71.28,136.65 72.04,141.24 72.79,149.22 73.54,192.19 74.29,149.86 75.04,143.28 75.79,140.26 76.54,138.97 77.29,138.88 78.04,139.87 78.79,141.99 79.54,145.62 80.29,151.95 81.04,168.04 81.79,160.80 82.55,151.58 83.30,147.78 84.05,147.00 84.80,146.52 85.55,147.31 86.30,149.43 87.05,153.41 87.80,161.16 88.55,201.18 89.30,161.20 90.05,154.43 90.80,151.19 91.55,149.69 92.30,149.38 93.06,150.14 93.81,152.00 94.56,155.31 95.31,161.10 96.06,168.94 96.81,180.97 97.56,164.27 98.31,159.03 99.06,156.68 99.81,155.97 100.56,156.57 101.31,158.53 102.06,162.36 102.82,170.00 103.57,207.62 104.32,169.62 105.07,162.74 105.82,159.38 106.57,157.74 107.32,157.29 108.07,157.30 108.82,158.77 109.57,161.48 110.32,166.08 111.07,174.99 111.82,194.53 112.57,172.74 113.33,166.94 114.08,164.33 114.83,163.44 115.58,163.90 116.33,165.75 117.08,169.47 117.83,177.04 118.58,212.64 119.33,176.32 120.08,169.20 120.83,165.69 121.58,163.87 122.33,163.21 123.09,163.54 123.84,164.88 124.59,167.40 125.34,171.71 126.09,179.83 126.84,214.45 127.59,179.96 128.34,173.56 129.09,170.69 129.84,169.65 130.59,169.99 131.34,171.74 132.09,175.75 132.84,183.27 133.60,213.58 134.35,181.72 135.10,174.73 135.85,171.15 136.60,169.25 137.35,168.51 138.10,168.75 138.85,169.97 139.60,172.35 140.35,176.40 141.10,183.85 141.85,216.02 142.60,186.36 143.35,179.29 144.11,177.30 144.86,175.77 145.61,175.80 146.36,177.33 147.11,180.82 147.86,188.32 148.61,217.38 149.36,186.49 150.11,179.47 150.86,175.83 151.61,173.87 152.36,173.06 153.11,173.22 153.87,174.34 154.62,176.58 155.37,180.40 156.12,184.81 156.87,198.02 157.62,197.18 158.37,186.33 159.12,182.18 159.87,180.48 160.62,180.40 161.37,181.85 162.12,185.28 162.87,192.75 163.62,220.64 164.38,190.65 165.13,183.61 165.88,179.93 166.63,177.91 167.38,177.04 168.13,176.66 168.88,177.52 169.63,179.40 170.38,182.59 171.13,188.02 171.88,199.64 172.63,203.71 173.38,191.08 174.13,186.56 174.89,184.69 175.64,184.50 176.39,185.87 177.14,189.25 177.89,196.70 178.64,223.50 179.39,194.35 180.14,187.18 180.89,183.40 181.64,181.26 182.39,180.24 183.14,180.14 183.89,180.93 184.65,182.70 185.40,185.74 186.15,190.86 186.90,201.25 187.65,210.58 188.40,195.48 189.15,190.56 189.90,188.51 190.65,188.22 191.40,189.51 192.15,193.29 192.90,200.72 193.65,224.38 194.40,197.58 195.16,190.50 195.91,186.69 196.66,184.51 197.41,183.43 198.16,183.28 198.91,184.00 199.66,185.67 200.41,188.57 201.16,193.40 201.91,202.82 202.66,218.52 203.41,199.63 204.16,195.84 204.91,193.05 205.67,192.36 206.42,193.41 207.17,196.58 207.92,204.00 208.67,226.80 209.42,200.61 210.17,193.52 210.92,189.67 211.67,187.45 212.42,186.34 213.17,186.13 213.92,186.78 214.67,188.37 215.43,191.13 216.18,194.15 216.93,201.18 217.68,222.26 218.43,207.08 219.18,199.37 219.93,196.34 220.68,195.52 221.43,196.49 222.18,199.61 222.93,207.03 223.68,229.00 224.43,203.38 225.18,196.28 225.94,192.41 226.69,190.15 227.44,188.99 228.19,188.36 228.94,188.82 229.69,190.15 230.44,192.51 231.19,196.35 231.94,202.92 232.69,220.00 233.44,211.36 234.19,202.72 234.94,199.42 235.70,198.47 236.45,199.36 237.20,202.43 237.95,209.84 238.70,231.01 239.45,205.94 240.20,198.79 240.95,194.83 241.70,192.47 242.45,191.19 243.20,190.78 243.95,191.19 244.70,192.44 245.45,194.70 246.21,198.37 246.96,204.55 247.71,219.08 248.46,215.69 249.21,205.91 249.96,202.32 250.71,201.23 251.46,202.04 252.21,205.59 252.96,212.98 253.71,231.90 254.46,208.30 255.21,201.17 255.96,197.19 256.72,194.79 257.47,193.47 258.22,193.02 258.97,193.38 259.72,194.57 260.47,196.74 261.22,200.25 261.97,206.08 262.72,218.82 263.47,220.19 264.22,211.43 264.97,206.44 265.72,204.77 266.48,205.25 267.23,208.07 267.98,215.46 268.73,233.72 269.48,210.53 270.23,203.40 270.98,199.39 271.73,196.96 272.48,195.61 273.23,195.12 273.98,195.42 274.73,196.55 275.48,198.63 276.23,200.88 276.99,205.70 277.74,214.54 278.49,241.09 279.24,214.60 279.99,209.12 280.74,207.26 281.49,207.64 282.24,210.41 282.99,217.79 283.74,235.43 284.49,212.62 285.24,205.48 285.99,201.45 286.74,198.99 287.50,197.60 288.25,196.79 289.00,196.94 289.75,197.86 290.50,199.66 291.25,202.57 292.00,207.17 292.75,215.39 293.50,244.00 294.25,217.72 295.00,211.69 295.75,209.64 296.50,209.91 297.26,212.63 298.01,220.00 298.76,237.05 299.51,214.59 300.26,207.47 301.01,203.36 301.76,200.80 302.51,199.30 303.26,198.64 304.01,198.75 304.76,199.62 305.51,201.35 306.26,204.15 307.01,208.57 307.77,216.25 308.52,243.32 309.27,220.83 310.02,214.17 310.77,211.90 311.52,212.07 312.27,215.37 313.02,222.68 313.77,238.07 314.52,216.52 315.27,209.34 316.02,205.20 316.77,202.62 317.52,201.09 318.28,200.39 319.03,200.46 319.78,201.29 320.53,202.95 321.28,205.65 322.03,209.89 322.78,217.12 323.53,237.87 324.28,229.09 325.03,218.53 325.78,215.27 326.53,214.98 327.28,217.37 328.04,224.67 328.79,239.64 329.54,218.30 330.29,211.11 331.04,206.95 331.79,204.34 332.54,202.78 333.29,202.05 334.04,202.08 334.79,202.86 335.54,204.46 336.29,206.22 337.04,209.89 337.79,215.76 338.55,227.72 339.30,233.16 340.05,220.96 340.80,217.39 341.55,216.96 342.30,219.29 343.05,226.56 343.80,241.16 344.55,220.01 345.30,212.80 346.05,208.62 346.80,205.98 347.55,204.39 348.30,203.42 349.06,203.31 349.81,203.92 350.56,205.31 351.31,207.61 352.06,211.15 352.81,216.78 353.56,227.73 354.31,237.65 355.06,223.33 355.81,219.43 356.56,218.86 357.31,221.11 358.06,228.35 358.82,242.67 359.57,221.64 360.32,214.51 361.07,210.23 361.82,207.49 362.57,205.80 363.32,204.93 364.07,204.79 364.82,205.36 365.57,206.70 366.32,208.93 367.07,212.36 367.82,217.76 368.57,227.91 369.33,242.88 370.08,225.64 370.83,221.39 371.58,220.68 372.33,223.58 373.08,230.67 373.83,244.00 374.58,223.37 375.33,216.07 376.08,211.76 376.83,209.00 377.58,207.27 378.33,206.37 379.09,206.20 379.84,206.74 380.59,208.03 381.34,210.19 382.09,213.53 382.84,218.73 383.59,228.22 384.34,244.00 385.09,231.14 385.84,224.85 386.59,223.43 387.34,225.24 388.09,232.25 388.84,244.00 389.60,224.90 390.35,217.56 391.10,213.23 391.85,210.43 392.60,208.68 393.35,207.76 394.10,207.55 394.85,208.05 395.60,209.30 396.35,210.73 397.10,213.70 397.85,218.19 398.60,225.66 399.35,244.00 400.11,233.60 400.86,226.71 401.61,225.10 402.36,226.81 403.11,233.74 403.86,244.00 404.61,226.38 405.36,219.00 406.11,214.64 406.86,211.81 407.61,210.04 408.36,208.93 409.11,208.61 409.87,208.98 410.62,210.05 411.37,211.92 412.12,214.81 412.87,219.19 413.62,226.36 414.37,244.00 415.12,236.02 415.87,228.48 416.62,226.69 417.37,228.30 418.12,235.13 418.87,244.00 419.62,227.82 420.38,220.58 421.13,216.09 421.88,213.16 422.63,211.28 423.38,210.22 424.13,209.87 424.88,210.20 425.63,211.24 426.38,213.07 427.13,215.90 427.88,220.16 428.63,227.08 429.38,243.28 430.13,238.38 430.89,230.17 431.64,228.19 432.39,230.49 433.14,236.97 433.89,244.00 434.64,229.53 435.39,221.94 436.14,217.41 436.89,214.45 437.64,212.54 438.39,211.46 439.14,211.08 439.89,211.39 440.65,212.39 441.40,214.18 442.15,216.95 442.90,221.12 443.65,227.82 444.40,237.06 445.15,244.00 445.90,233.87 446.65,230.80 447.40,231.79 448.15,238.10 448.90,244.00 449.65,230.95 450.40,223.27 451.16,218.69 451.91,215.70 452.66,213.76 453.41,212.65 454.16,212.25 454.91,212.53 455.66,213.50 456.41,214.71 457.16,217.22 457.91,220.95 458.66,226.71 459.41,237.47 460.16,244.00 460.91,235.40 461.67,232.12 462.42,232.98 463.17,239.10 463.92,244.00 464.67,232.35 465.42,224.56 466.17,219.93 466.92,216.90 467.67,214.94 468.42,213.72 469.17,213.21 469.92,213.37 470.67,214.20 471.43,215.77 472.18,218.24 472.93,221.92 473.68,227.58 474.43,237.99 475.18,244.00 475.93,236.79 476.68,233.32 477.43,234.07 478.18,239.97 478.93,244.00 479.68,233.74 480.43,226.12 481.18,221.32 481.94,218.16 482.69,216.09 483.44,214.84 484.19,214.31 484.94,214.45 485.69,215.26 486.44,216.80 487.19,219.24 487.94,222.87 488.69,228.46 489.44,238.64 490.19,244.00 490.94,238.04 491.70,234.42 492.45,235.82 493.20,241.09 493.95,244.00 494.70,235.66 495.45,227.38 496.20,222.51 496.95,219.31 497.70,217.20 498.45,215.93 499.20,215.38 499.95,215.49 500.70,216.28 501.45,217.81 502.21,220.22 502.96,223.82 503.71,229.35 504.46,236.34 505.21,244.00 505.96,241.78 506.71,236.65 507.46,236.64 508.21,241.63 508.96,244.00 509.71,237.13 510.46,228.62 511.21,223.67 511.96,220.42 512.72,218.28 513.47,216.99 514.22,216.41 514.97,216.51 515.72,217.29 516.47,218.35 517.22,220.57 517.97,223.88 518.72,228.86 519.47,237.28 520.22,244.00 520.97,242.62 521.72,237.45 522.48,237.34 523.23,242.04 523.98,244.00 524.73,238.64 525.48,229.86 526.23,224.81 526.98,221.51 527.73,219.33 528.48,218.00 529.23,217.32 529.98,217.31 530.73,217.96 531.48,219.33 532.23,221.54 532.99,224.84 533.74,229.83 534.49,238.31 535.24,244.00 535.99,243.23 536.74,238.10 537.49,237.91 538.24,242.32 538.99,244.00 539.74,240.21 540.49,231.55 541.24,226.22 541.99,222.74 542.74,220.44 543.50,219.00 544.25,218.31 545.00,218.28 545.75,218.92 546.50,220.29 547.25,222.49 548.00,225.81 548.75,230.83 549.50,239.44 550.25,244.00 551.00,243.62 551.75,238.60 552.50,238.96 553.26,242.59 554.01,244.00 554.76,242.81 555.51,232.82 556.26,227.34 557.01,223.79 557.76,221.45 558.51,219.99 559.26,219.27 560.01,219.23 560.76,219.87 561.51,221.23 562.26,223.44 563.01,226.78 563.77,231.87 564.52,238.35 565.27,244.00 566.02,244.00 566.77,240.07 567.52,239.21 568.27,242.56 569.02,244.00 569.77,244.00 570.52,234.10 571.27,228.45 572.02,224.82 572.77,222.43 573.52,220.94 574.28,220.21 575.03,220.16 575.78,220.80 576.53,221.79 577.28,223.86 578.03,227.00 578.78,231.74 579.53,239.70 580.28,244.00 581.03,244.00 581.78,240.19 582.53,239.35 583.28,242.42 584.04,244.00 584.79,244.00 585.54,235.41 586.29,229.55 587.04,225.83 587.79,223.39 588.54,221.93 589.29,221.08 590.04,220.94 590.79,221.47 591.54,222.72 592.29,224.81 593.04,228.00 593.79,232.86 594.55,241.21 595.30,244.00 596.05,244.00 596.80,240.18 597.55,239.37 598.30,242.20 599.05,244.00 599.80,244.00 600.55,237.50 601.30,231.09 602.05,227.11 602.80,224.50 603.55,222.85 604.30,221.99 605.06,221.84 605.81,222.37 606.56,223.64 607.31,225.77 608.06,229.03 608.81,234.05 609.56,242.92 610.31,244.00 611.06,244.00 611.81,240.05 612.56,239.64 613.31,241.80 614.06,244.00 614.82,244.00 615.57,238.98 616.32,232.23 617.07,228.12 617.82,225.44 618.57,223.76 619.32,222.88 620.07,222.72 620.82,223.26 621.57,224.55 622.32,226.73 623.07,230.08 623.82,235.31 624.57,242.56 625.33,244.00 626.08,244.00 626.83,240.57 627.58,239.40 628.33,241.38 629.08,244.00 629.83,244.00 630.58,240.55 631.33,233.38 632.08,229.11 632.83,226.36 633.58,224.64 634.33,223.75 635.09,223.59 635.84,224.14 636.59,225.15 637.34,227.22 638.09,230.45 638.84,235.51 639.59,244.00 640.34,244.00 641.09,244.00 641.84,240.13 642.59,239.07 643.34,240.90 644.09,244.00 644.84,244.00 645.60,242.24 646.35,234.55 647.10,230.10 647.85,227.27 648.60,225.63 649.35,224.62 650.10,224.36 650.85,224.82 651.60,226.06 652.35,228.21 653.10,231.57 653.85,236.93 654.60,244.00 655.35,244.00 656.11,243.94 656.86,239.62 657.61,238.68 658.36,240.38 659.11,244.00 659.86,244.00 660.61,244.00 661.36,236.44 662.11,231.51 662.86,228.42 663.61,226.50 664.36,225.47 665.11,225.21 665.87,225.69 666.62,226.97 667.37,229.21 668.12,232.74 668.87,238.50 669.62,244.00 670.37,244.00 671.12,242.85 671.87,239.05 672.62,238.37 673.37,239.62 674.12,244.00 674.87,244.00 675.62,244.00 676.38,237.75 677.13,232.54 677.88,229.33 678.63,227.35 679.38,226.30 680.13,226.04 680.88,226.56 681.63,227.89 682.38,230.23 683.13,233.97 683.88,240.27 684.63,244.00 685.38,244.00 686.13,242.75 686.89,238.86 687.64,237.83 688.39,239.00 689.14,243.09 689.89,244.00 690.64,244.00 691.39,239.14 692.14,233.58 692.89,230.23 693.64,228.19 694.39,227.12 695.14,226.87 695.89,227.41 696.65,228.53 697.40,230.82 698.15,234.54 698.90,240.88 699.65,244.00 700.40,244.00 701.15,241.53 701.90,238.13 702.65,237.24 703.40,238.36 704.15,242.07 704.90,244.00 705.65,244.00 706.40,240.61 707.16,234.63 707.91,231.13 708.66,229.21 709.41,227.99 710.16,227.64 710.91,228.11 711.66,229.46 712.41,231.89 713.16,235.91 713.91,243.06 714.66,244.00 715.41,244.00 716.16,240.35 716.91,237.39 717.67,236.62 718.42,237.69 719.17,241.08 719.92,244.00 720.67,244.00 721.42,243.44 722.17,236.34 722.92,232.40 723.67,230.05 724.42,228.80 725.17,228.45 725.92,228.96 726.67,230.40 727.43,233.01 728.18,237.40 728.93,244.00 729.68,244.00 730.43,244.00 731.18,239.23 731.93,236.62 732.68,236.00 733.43,236.79 734.18,239.57 734.93,244.00 735.68,244.00 736.43,244.00 737.18,237.51 737.94,233.32 738.69,230.87 739.44,229.59 740.19,229.25 740.94,229.82 741.69,231.37 742.44,234.19 743.19,239.06 743.94,244.00 744.69,244.00 745.44,244.00 746.19,238.67 746.94,236.07 747.70,235.31 748.45,236.08 749.20,238.67 749.95,244.00 750.70,244.00 751.45,244.00 752.20,238.74 752.95,234.25 753.70,231.69 754.45,230.37 755.20,230.05 755.95,230.67 756.70,232.04 757.45,234.88 758.21,239.92 758.96,244.00 759.71,244.00 760.46,242.49 761.21,237.54 761.96,235.25 762.71,234.60 763.46,235.36 764.21,237.78 764.96,242.93 765.71,244.00 766.46,244.00 767.21,240.04 767.96,235.19 768.72,232.78 769.47,231.26 770.22,230.82 770.97,231.37 771.72,233.03 772.47,236.16 773.22,241.93 773.97,244.00 774.72,244.00 775.47,240.73 776.22,236.46 776.97,234.43 777.72,233.87 778.48,234.63 779.23,236.90 779.98,241.57 780.73,244.00 781.48,244.00 782.23,242.51 782.98,236.70 783.73,233.61 784.48,232.03 785.23,231.60 785.98,232.23 786.73,234.05 787.48,237.54 788.23,244.00 788.99,244.00 789.74,244.00 790.49,239.14 791.24,235.42 791.99,233.60 792.74,233.12 793.49,233.70 794.24,235.62 794.99,239.52 795.74,244.00 796.49,244.00 797.24,244.00 797.99,237.73 798.74,234.43 799.50,232.79 800.25,232.37 801.00,233.08 801.75,235.10 802.50,239.04 803.25,244.00 804.00,244.00" />
  <text x="420.0" y="22" text-anchor="middle" font-family="Arial, Helvetica, sans-serif" font-size="15" fill="#102a43">tukey_0p1 window (magnitude spectrum)</text>
  <text x="420.0" y="272" text-anchor="middle" font-family="Arial, Helvetica, sans-serif" font-size="12" fill="#334e68">normalized frequency</text>
  <text x="14" y="140.0" transform="rotate(-90 14,140.0)" text-anchor="middle" font-family="Arial, Helvetica, sans-serif" font-size="12" fill="#334e68">magnitude (dB)</text>
  <text x="36" y="262" font-family="Arial, Helvetica, sans-serif" font-size="11" fill="#486581">0</text>
  <text x="804" y="262" text-anchor="end" font-family="Arial, Helvetica, sans-serif" font-size="11" fill="#486581">1</text>
  <text x="30" y="40" text-anchor="end" font-family="Arial, Helvetica, sans-serif" font-size="11" fill="#486581">0.0</text>
  <text x="30" y="248" text-anchor="end" font-family="Arial, Helvetica, sans-serif" font-size="11" fill="#486581">-160.0</text>
</svg>
