<svg xmlns="http://www.w3.org/2000/svg" width="840" height="280" viewBox="0 0 840 280">
  <rect x="0" y="0" width="840" height="280" fill="#ffffff" />
  <rect x="36" y="36" width="768" height="208" fill="#f7fbff" stroke="#c8d9e6" />
  <polyline fill="none" stroke="#005f73" stroke-width="2" points="36.00,244.00 36.75,243.80 37.50,243.22 38.25,242.24 39.00,240.88 39.75,239.14 40.50,237.02 41.26,234.54 42.01,231.71 42.76,228.53 43.51,225.01 44.26,221.18 45.01,217.03 45.76,212.60 46.51,207.90 47.26,202.94 48.01,197.74 48.76,192.32 49.51,186.71 50.26,180.92 51.01,174.98 51.77,168.90 52.52,162.72 53.27,156.45 54.02,150.12 54.77,143.75 55.52,137.37 56.27,130.99 57.02,124.65 57.77,118.37 58.52,112.17 59.27,106.08 60.02,100.11 60.77,94.29 61.52,88.65 62.28,83.19 63.03,77.96 63.78,72.95 64.53,68.20 65.28,63.72 66.03,59.53 66.78,55.64 67.53,52.07 68.28,48.82 69.03,45.93 69.78,43.38 70.53,41.20 71.28,39.40 72.04,37.97 72.79,36.93 73.54,36.27 74.29,36.01 75.04,36.00 75.79,36.00 76.54,36.00 77.29,36.00 78.04,36.00 78.79,36.00 79.54,36.00 80.29,36.00 81.04,36.00 81.79,36.00 82.55,36.00 83.30,36.00 84.05,36.00 84.80,36.00 85.55,36.00 86.30,36.00 87.05,36.00 87.80,36.00 88.55,36.00 89.30,36.00 90.05,36.00 90.80,36.00 91.55,36.00 92.30,36.00 93.06,36.00 93.81,36.00 94.56,36.00 95.31,36.00 96.06,36.00 96.81,36.00 97.56,36.00 98.31,36.00 99.06,36.00 99.81,36.00 100.56,36.00 101.31,36.00 102.06,36.00 102.82,36.00 103.57,36.00 104.32,36.00 105.07,36.00 105.82,36.00 106.57,36.00 107.32,36.00 108.07,36.00 108.82,36.00 109.57,36.00 110.32,36.00 111.07,36.00 111.82,36.00 112.57,36.00 113.33,36.00 114.08,36.00 114.83,36.00 115.58,36.00 116.33,36.00 117.08,36.00 117.83,36.00 118.58,36.00 119.33,36.00 120.08,36.00 120.83,36.00 121.58,36.00 122.33,36.00 123.09,36.00 123.84,36.00 124.59,36.00 125.34,36.00 126.09,36.00 126.84,36.00 127.59,36.00 128.34,36.00 129.09,36.00 129.84,36.00 130.59,36.00 131.34,36.00 132.09,36.00 132.84,36.00 133.60,36.00 134.35,36.00 135.10,36.00 135.85,36.00 136.60,36.00 137.35,36.00 138.10,36.00 138.85,36.00 139.60,36.00 140.35,36.00 141.10,36.00 141.85,36.00 142.60,36.00 143.35,36.00 144.11,36.00 144.86,36.00 145.61,36.00 146.36,36.00 147.11,36.00 147.86,36.00 148.61,36.00 149.36,36.00 150.11,36.00 150.86,36.00 151.61,36.00 152.36,36.00 153.11,36.00 153.87,36.00 154.62,36.00 155.37,36.00 156.12,36.00 156.87,36.00 157.62,36.00 158.37,36.00 159.12,36.00 159.87,36.00 160.62,36.00 161.37,36.00 162.12,36.00 162.87,36.00 163.62,36.00 164.38,36.00 165.13,36.00 165.88,36.00 166.63,36.00 167.38,36.00 168.13,36.00 168.88,36.00 169.63,36.00 170.38,36.00 171.13,36.00 171.88,36.00 172.63,36.00 173.38,36.00 174.13,36.00 174.89,36.00 175.64,36.00 176.39,36.00 177.14,36.00 177.89,36.00 178.64,36.00 179.39,36.00 180.14,36.00 180.89,36.00 181.64,36.00 182.39,36.00 183.14,36.00 183.89,36.00 184.65,36.00 185.40,36.00 186.15,36.00 186.90,36.00 187.65,36.00 188.40,36.00 189.15,36.00 189.90,36.00 190.65,36.00 191.40,36.00 192.15,36.00 192.90,36.00 193.65,36.00 194.40,36.00 195.16,36.00 195.91,36.00 196.66,36.00 197.41,36.00 198.16,36.00 198.91,36.00 199.66,36.00 200.41,36.00 201.16,36.00 201.91,36.00 202.66,36.00 203.41,36.00 204.16,36.00 204.91,36.00 205.67,36.00 206.42,36.00 207.17,36.00 207.92,36.00 208.67,36.00 209.42,36.00 210.17,36.00 210.92,36.00 211.67,36.00 212.42,36.00 213.17,36.00 213.92,36.00 214.67,36.00 215.43,36.00 216.18,36.00 216.93,36.00 217.68,36.00 218.43,36.00 219.18,36.00 219.93,36.00 220.68,36.00 221.43,36.00 222.18,36.00 222.93,36.00 223.68,36.00 224.43,36.00 225.18,36.00 225.94,36.00 226.69,36.00 227.44,36.00 228.19,36.00 228.94,36.00 229.69,36.00 230.44,36.00 231.19,36.00 231.94,36.00 232.69,36.00 233.44,36.00 234.19,36.00 234.94,36.00 235.70,36.00 236.45,36.00 237.20,36.00 237.95,36.00 238.70,36.00 239.45,36.00 240.20,36.00 240.95,36.00 241.70,36.00 242.45,36.00 243.20,36.00 243.95,36.00 244.70,36.00 245.45,36.00 246.21,36.00 246.96,36.00 247.71,36.00 248.46,36.00 249.21,36.00 249.96,36.00 250.71,36.00 251.46,36.00 252.21,36.00 252.96,36.00 253.71,36.00 254.46,36.00 255.21,36.00 255.96,36.00 256.72,36.00 257.47,36.00 258.22,36.00 258.97,36.00 259.72,36.00 260.47,36.00 261.22,36.00 261.97,36.00 262.72,36.00 263.47,36.00 264.22,36.00 264.97,36.00 265.72,36.00 266.48,36.00 267.23,36.00 267.98,36.00 268.73,36.00 269.48,36.00 270.23,36.00 270.98,36.00 271.73,36.00 272.48,36.00 273.23,36.00 273.98,36.00 274.73,36.00 275.48,36.00 276.23,36.00 276.99,36.00 277.74,36.00 278.49,36.00 279.24,36.00 279.99,36.00 280.74,36.00 281.49,36.00 282.24,36.00 282.99,36.00 283.74,36.00 284.49,36.00 285.24,36.00 285.99,36.00 286.74,36.00 287.50,36.00 288.25,36.00 289.00,36.00 289.75,36.00 290.50,36.00 291.25,36.00 292.00,36.00 292.75,36.00 293.50,36.00 294.25,36.00 295.00,36.00 295.75,36.00 296.50,36.00 297.26,36.00 298.01,36.00 298.76,36.00 299.51,36.00 300.26,36.00 301.01,36.00 301.76,36.00 302.51,36.00 303.26,36.00 304.01,36.00 304.76,36.00 305.51,36.00 306.26,36.00 307.01,36.00 307.77,36.00 308.52,36.00 309.27,36.00 310.02,36.00 310.77,36.00 311.52,36.00 312.27,36.00 313.02,36.00 313.77,36.00 314.52,36.00 315.27,36.00 316.02,36.00 316.77,36.00 317.52,36.00 318.28,36.00 319.03,36.00 319.78,36.00 320.53,36.00 321.28,36.00 322.03,36.00 322.78,36.00 323.53,36.00 324.28,36.00 325.03,36.00 325.78,36.00 326.53,36.00 327.28,36.00 328.04,36.00 328.79,36.00 329.54,36.00 330.29,36.00 331.04,36.00 331.79,36.00 332.54,36.00 333.29,36.00 334.04,36.00 334.79,36.00 335.54,36.00 336.29,36.00 337.04,36.00 337.79,36.00 338.55,36.00 339.30,36.00 340.05,36.00 340.80,36.00 341.55,36.00 342.30,36.00 343.05,36.00 343.80,36.00 344.55,36.00 345.30,36.00 346.05,36.00 346.80,36.00 347.55,36.00 348.30,36.00 349.06,36.00 349.81,36.00 350.56,36.00 351.31,36.00 352.06,36.00 352.81,36.00 353.56,36.00 354.31,36.00 355.06,36.00 355.81,36.00 356.56,36.00 357.31,36.00 358.06,36.00 358.82,36.00 359.57,36.00 360.32,36.00 361.07,36.00 361.82,36.00 362.57,36.00 363.32,36.00 364.07,36.00 364.82,36.00 365.57,36.00 366.32,36.00 367.07,36.00 367.82,36.00 368.57,36.00 369.33,36.00 370.08,36.00 370.83,36.00 371.58,36.00 372.33,36.00 373.08,36.00 373.83,36.00 374.58,36.00 375.33,36.00 376.08,36.00 376.83,36.00 377.58,36.00 378.33,36.00 379.09,36.00 379.84,36.00 380.59,36.00 381.34,36.00 382.09,36.00 382.84,36.00 383.59,36.00 384.34,36.00 385.09,36.00 385.84,36.00 386.59,36.00 387.34,36.00 388.09,36.00 388.84,36.00 389.60,36.00 390.35,36.00 391.10,36.00 391.85,36.00 392.60,36.00 393.35,36.00 394.10,36.00 394.85,36.00 395.60,36.00 396.35,36.00 397.10,36.00 397.85,36.00 398.60,36.00 399.35,36.00 400.11,36.00 400.86,36.00 401.61,36.00 402.36,36.00 403.11,36.00 403.86,36.00 404.61,36.00 405.36,36.00 406.11,36.00 406.86,36.00 407.61,36.00 408.36,36.00 409.11,36.00 409.87,36.00 410.62,36.00 411.37,36.00 412.12,36.00 412.87,36.00 413.62,36.00 414.37,36.00 415.12,36.00 415.87,36.00 416.62,36.00 417.37,36.00 418.12,36.00 418.87,36.00 419.62,36.00 420.38,36.00 421.13,36.00 421.88,36.00 422.63,36.00 423.38,36.00 424.13,36.00 424.88,36.00 425.63,36.00 426.38,36.00 427.13,36.00 427.88,36.00 428.63,36.00 429.38,36.00 430.13,36.00 430.89,36.00 431.64,36.00 432.39,36.00 433.14,36.00 433.89,36.00 434.64,36.00 435.39,36.00 436.14,36.00 436.89,36.00 437.64,36.00 438.39,36.00 439.14,36.00 439.89,36.00 440.65,36.00 441.40,36.00 442.15,36.00 442.90,36.00 443.65,36.00 444.40,36.00 445.15,36.00 445.90,36.00 446.65,36.00 447.40,36.00 448.15,36.00 448.90,36.00 449.65,36.00 450.40,36.00 451.16,36.00 451.91,36.00 452.66,36.00 453.41,36.00 454.16,36.00 454.91,36.00 455.66,36.00 456.41,36.00 457.16,36.00 457.91,36.00 458.66,36.00 459.41,36.00 460.16,36.00 460.91,36.00 461.67,36.00 462.42,36.00 463.17,36.00 463.92,36.00 464.67,36.00 465.42,36.00 466.17,36.00 466.92,36.00 467.67,36.00 468.42,36.00 469.17,36.00 469.92,36.00 470.67,36.00 471.43,36.00 472.18,36.00 472.93,36.00 473.68,36.00 474.43,36.00 475.18,36.00 475.93,36.00 476.68,36.00 477.43,36.00 478.18,36.00 478.93,36.00 479.68,36.00 480.43,36.00 481.18,36.00 481.94,36.00 482.69,36.00 483.44,36.00 484.19,36.00 484.94,36.00 485.69,36.00 486.44,36.00 487.19,36.00 487.94,36.00 488.69,36.00 489.44,36.00 490.19,36.00 490.94,36.00 491.70,36.00 492.45,36.00 493.20,36.00 493.95,36.00 494.70,36.00 495.45,36.00 496.20,36.00 496.95,36.00 497.70,36.00 498.45,36.00 499.20,36.00 499.95,36.00 500.70,36.00 501.45,36.00 502.21,36.00 502.96,36.00 503.71,36.00 504.46,36.00 505.21,36.00 505.96,36.00 506.71,36.00 507.46,36.00 508.21,36.00 508.96,36.00 509.71,36.00 510.46,36.00 511.21,36.00 511.96,36.00 512.72,36.00 513.47,36.00 514.22,36.00 514.97,36.00 515.72,36.00 516.47,36.00 517.22,36.00 517.97,36.00 518.72,36.00 519.47,36.00 520.22,36.00 520.97,36.00 521.72,36.00 522.48,36.00 523.23,36.00 523.98,36.00 524.73,36.00 525.48,36.00 526.23,36.00 526.98,36.00 527.73,36.00 528.48,36.00 529.23,36.00 529.98,36.00 530.73,36.00 531.48,36.00 532.23,36.00 532.99,36.00 533.74,36.00 534.49,36.00 535.24,36.00 535.99,36.00 536.74,36.00 537.49,36.00 538.24,36.00 538.99,36.00 539.74,36.00 540.49,36.00 541.24,36.00 541.99,36.00 542.74,36.00 543.50,36.00 544.25,36.00 545.00,36.00 545.75,36.00 546.50,36.00 547.25,36.00 548.00,36.00 548.75,36.00 549.50,36.00 550.25,36.00 551.00,36.00 551.75,36.00 552.50,36.00 553.26,36.00 554.01,36.00 554.76,36.00 555.51,36.00 556.26,36.00 557.01,36.00 557.76,36.00 558.51,36.00 559.26,36.00 560.01,36.00 560.76,36.00 561.51,36.00 562.26,36.00 563.01,36.00 563.77,36.00 564.52,36.00 565.27,36.00 566.02,36.00 566.77,36.00 567.52,36.00 568.27,36.00 569.02,36.00 569.77,36.00 570.52,36.00 571.27,36.00 572.02,36.00 572.77,36.00 573.52,36.00 574.28,36.00 575.03,36.00 575.78,36.00 576.53,36.00 577.28,36.00 578.03,36.00 578.78,36.00 579.53,36.00 580.28,36.00 581.03,36.00 581.78,36.00 582.53,36.00 583.28,36.00 584.04,36.00 584.79,36.00 585.54,36.00 586.29,36.00 587.04,36.00 587.79,36.00 588.54,36.00 589.29,36.00 590.04,36.00 590.79,36.00 591.54,36.00 592.29,36.00 593.04,36.00 593.79,36.00 594.55,36.00 595.30,36.00 596.05,36.00 596.80,36.00 597.55,36.00 598.30,36.00 599.05,36.00 599.80,36.00 600.55,36.00 601.30,36.00 602.05,36.00 602.80,36.00 603.55,36.00 604.30,36.00 605.06,36.00 605.81,36.00 606.56,36.00 607.31,36.00 608.06,36.00 608.81,36.00 609.56,36.00 610.31,36.00 611.06,36.00 611.81,36.00 612.56,36.00 613.31,36.00 614.06,36.00 614.82,36.00 615.57,36.00 616.32,36.00 617.07,36.00 617.82,36.00 618.57,36.00 619.32,36.00 620.07,36.00 620.82,36.00 621.57,36.00 622.32,36.00 623.07,36.00 623.82,36.00 624.57,36.00 625.33,36.00 626.08,36.00 626.83,36.00 627.58,36.00 628.33,36.00 629.08,36.00 629.83,36.00 630.58,36.00 631.33,36.00 632.08,36.00 632.83,36.00 633.58,36.00 634.33,36.00 635.09,36.00 635.84,36.00 636.59,36.00 637.34,36.00 638.09,36.00 638.84,36.00 639.59,36.00 640.34,36.00 641.09,36.00 641.84,36.00 642.59,36.00 643.34,36.00 644.09,36.00 644.84,36.00 645.60,36.00 646.35,36.00 647.10,36.00 647.85,36.00 648.60,36.00 649.35,36.00 650.10,36.00 650.85,36.00 651.60,36.00 652.35,36.00 653.10,36.00 653.85,36.00 654.60,36.00 655.35,36.00 656.11,36.00 656.86,36.00 657.61,36.00 658.36,36.00 659.11,36.00 659.86,36.00 660.61,36.00 661.36,36.00 662.11,36.00 662.86,36.00 663.61,36.00 664.36,36.00 665.11,36.00 665.87,36.00 666.62,36.00 667.37,36.00 668.12,36.00 668.87,36.00 669.62,36.00 670.37,36.00 671.12,36.00 671.87,36.00 672.62,36.00 673.37,36.00 674.12,36.00 674.87,36.00 675.62,36.00 676.38,36.00 677.13,36.00 677.88,36.00 678.63,36.00 679.38,36.00 680.13,36.00 680.88,36.00 681.63,36.00 682.38,36.00 683.13,36.00 683.88,36.00 684.63,36.00 685.38,36.00 686.13,36.00 686.89,36.00 687.64,36.00 688.39,36.00 689.14,36.00 689.89,36.00 690.64,36.00 691.39,36.00 692.14,36.00 692.89,36.00 693.64,36.00 694.39,36.00 695.14,36.00 695.89,36.00 696.65,36.00 697.40,36.00 698.15,36.00 698.90,36.00 699.65,36.00 700.40,36.00 701.15,36.00 701.90,36.00 702.65,36.00 703.40,36.00 704.15,36.00 704.90,36.00 705.65,36.00 706.40,36.00 707.16,36.00 707.91,36.00 708.66,36.00 709.41,36.00 710.16,36.00 710.91,36.00 711.66,36.00 712.41,36.00 713.16,36.00 713.91,36.00 714.66,36.00 715.41,36.00 716.16,36.00 716.91,36.00 717.67,36.00 718.42,36.00 719.17,36.00 719.92,36.00 720.67,36.00 721.42,36.00 722.17,36.00 722.92,36.00 723.67,36.00 724.42,36.00 725.17,36.00 725.92,36.00 726.67,36.00 727.43,36.00 728.18,36.00 728.93,36.00 729.68,36.00 730.43,36.00 731.18,36.00 731.93,36.00 732.68,36.00 733.43,36.00 734.18,36.00 734.93,36.00 735.68,36.00 736.43,36.00 737.18,36.00 737.94,36.00 738.69,36.00 739.44,36.00 740.19,36.00 740.94,36.00 741.69,36.00 742.44,36.00 743.19,36.00 743.94,36.00 744.69,36.00 745.44,36.00 746.19,36.00 746.94,36.00 747.70,36.00 748.45,36.00 749.20,36.00 749.95,36.00 750.70,36.00 751.45,36.00 752.20,36.00 752.95,36.00 753.70,36.00 754.45,36.00 755.20,36.00 755.95,36.00 756.70,36.00 757.45,36.00 758.21,36.00 758.96,36.00 759.71,36.00 760.46,36.00 761.21,36.00 761.96,36.00 762.71,36.00 763.46,36.00 764.21,36.00 764.96,36.00 765.71,36.00 766.46,36.09 767.21,36.55 767.96,37.40 768.72,38.64 769.47,40.25 770.22,42.25 770.97,44.61 771.72,47.33 772.47,50.40 773.22,53.81 773.97,57.54 774.72,61.59 775.47,65.93 776.22,70.54 776.97,75.42 777.72,80.55 778.48,85.90 779.23,91.45 779.98,97.18 780.73,103.08 781.48,109.11 782.23,115.26 782.98,121.50 783.73,127.82 784.48,134.18 785.23,140.56 785.98,146.94 786.73,153.29 787.48,159.59 788.23,165.82 788.99,171.96 789.74,177.97 790.49,183.84 791.24,189.54 791.99,195.06 792.74,200.37 793.49,205.45 794.24,210.28 794.99,214.85 795.74,219.14 796.49,223.13 797.24,226.81 797.99,230.16 798.74,233.17 799.50,235.83 800.25,238.13 801.00,240.06 801.75,241.61 802.50,242.78 803.25,243.56 804.00,244.00" />
  <text x="420.0" y="22" text-anchor="middle" font-family="Arial, Helvetica, sans-serif" font-size="15" fill="#102a43">tukey_0p1 window (time domain)</text>
  <text x="420.0" y="272" text-anchor="middle" font-family="Arial, Helvetica, sans-serif" font-size="12" fill="#334e68">normalized sample index</text>
  <text x="14" y="140.0" transform="rotate(-90 14,140.0)" text-anchor="middle" font-family="Arial, Helvetica, sans-serif" font-size="12" fill="#334e68">amplitude</text>
  <text x="36" y="262" font-family="Arial, Helvetica, sans-serif" font-size="11" fill="#486581">0</text>
  <text x="804" y="262" text-anchor="end" font-family="Arial, Helvetica, sans-serif" font-size="11" fill="#486581">1</text>
  <text x="30" y="40" text-anchor="end" font-family="Arial, Helvetica, sans-serif" font-size="11" fill="#486581">1.0</text>
  <text x="30" y="248" text-anchor="end" font-family="Arial, Helvetica, sans-serif" font-size="11" fill="#486581">0.0</text>
</svg>
