<svg xmlns="http://www.w3.org/2000/svg" width="840" height="280" viewBox="0 0 840 280">
  <rect x="0" y="0" width="840" height="280" fill="#ffffff" />
  <rect x="36" y="36" width="768" height="208" fill="#f7fbff" stroke="#c8d9e6" />
  <polyline fill="none" stroke="#005f73" stroke-width="2" points="36.00,244.00 36.75,244.00 37.50,243.99 38.25,243.97 39.00,243.94 39.75,243.91 40.50,243.87 41.26,243.83 42.01,243.78 42.76,243.72 43.51,243.65 44.26,243.58 45.01,243.50 45.76,243.41 46.51,243.32 47.26,243.22 48.01,243.11 48.76,242.99 49.51,242.87 50.26,242.74 51.01,242.61 51.77,242.47 52.52,242.32 53.27,242.16 54.02,242.00 54.77,241.83 55.52,241.65 56.27,241.47 57.02,241.28 57.77,241.08 58.52,240.88 59.27,240.67 60.02,240.45 60.77,240.23 61.52,240.00 62.28,239.76 63.03,239.52 63.78,239.27 64.53,239.01 65.28,238.75 66.03,238.48 66.78,238.20 67.53,237.91 68.28,237.62 69.03,237.33 69.78,237.02 70.53,236.71 71.28,236.40 72.04,236.08 72.79,235.75 73.54,235.41 74.29,235.07 75.04,234.72 75.79,234.37 76.54,234.01 77.29,233.64 78.04,233.26 78.79,232.88 79.54,232.50 80.29,232.11 81.04,231.71 81.79,231.30 82.55,230.89 83.30,230.48 84.05,230.05 84.80,229.62 85.55,229.19 86.30,228.75 87.05,228.30 87.80,227.85 88.55,227.39 89.30,226.93 90.05,226.46 90.80,225.98 91.55,225.50 92.30,225.01 93.06,224.52 93.81,224.02 94.56,223.51 95.31,223.00 96.06,222.49 96.81,221.97 97.56,221.44 98.31,220.91 99.06,220.37 99.81,219.83 100.56,219.28 101.31,218.73 102.06,218.17 102.82,217.60 103.57,217.03 104.32,216.46 105.07,215.88 105.82,215.30 106.57,214.71 107.32,214.11 108.07,213.51 108.82,212.91 109.57,212.30 110.32,211.68 111.07,211.06 111.82,210.44 112.57,209.81 113.33,209.18 114.08,208.54 114.83,207.90 115.58,207.25 116.33,206.60 117.08,205.94 117.83,205.28 118.58,204.62 119.33,203.95 120.08,203.27 120.83,202.60 121.58,201.91 122.33,201.23 123.09,200.54 123.84,199.84 124.59,199.15 125.34,198.44 126.09,197.74 126.84,197.03 127.59,196.31 128.34,195.60 129.09,194.88 129.84,194.15 130.59,193.42 131.34,192.69 132.09,191.95 132.84,191.21 133.60,190.47 134.35,189.73 135.10,188.98 135.85,188.22 136.60,187.47 137.35,186.71 138.10,185.95 138.85,185.18 139.60,184.41 140.35,183.64 141.10,182.87 141.85,182.09 142.60,181.31 143.35,180.53 144.11,179.74 144.86,178.96 145.61,178.17 146.36,177.37 147.11,176.58 147.86,175.78 148.61,174.98 149.36,174.17 150.11,173.37 150.86,172.56 151.61,171.75 152.36,170.94 153.11,170.13 153.87,169.31 154.62,168.49 155.37,167.67 156.12,166.85 156.87,166.03 157.62,165.20 158.37,164.38 159.12,163.55 159.87,162.72 160.62,161.89 161.37,161.06 162.12,160.22 162.87,159.39 163.62,158.55 164.38,157.71 165.13,156.87 165.88,156.03 166.63,155.19 167.38,154.35 168.13,153.50 168.88,152.66 169.63,151.81 170.38,150.97 171.13,150.12 171.88,149.27 172.63,148.42 173.38,147.57 174.13,146.73 174.89,145.88 175.64,145.03 176.39,144.18 177.14,143.32 177.89,142.47 178.64,141.62 179.39,140.77 180.14,139.92 180.89,139.07 181.64,138.22 182.39,137.37 183.14,136.52 183.89,135.67 184.65,134.81 185.40,133.96 186.15,133.12 186.90,132.27 187.65,131.42 188.40,130.57 189.15,129.72 189.90,128.88 190.65,128.03 191.40,127.18 192.15,126.34 192.90,125.50 193.65,124.65 194.40,123.81 195.16,122.97 195.91,122.13 196.66,121.29 197.41,120.46 198.16,119.62 198.91,118.79 199.66,117.96 200.41,117.12 201.16,116.30 201.91,115.47 202.66,114.64 203.41,113.82 204.16,112.99 204.91,112.17 205.67,111.35 206.42,110.54 207.17,109.72 207.92,108.91 208.67,108.10 209.42,107.29 210.17,106.48 210.92,105.67 211.67,104.87 212.42,104.07 213.17,103.27 213.92,102.48 214.67,101.69 215.43,100.90 216.18,100.11 216.93,99.32 217.68,98.54 218.43,97.76 219.18,96.99 219.93,96.21 220.68,95.44 221.43,94.67 222.18,93.91 222.93,93.15 223.68,92.39 224.43,91.63 225.18,90.88 225.94,90.13 226.69,89.39 227.44,88.65 228.19,87.91 228.94,87.17 229.69,86.44 230.44,85.71 231.19,84.99 231.94,84.27 232.69,83.55 233.44,82.84 234.19,82.13 234.94,81.42 235.70,80.72 236.45,80.03 237.20,79.33 237.95,78.64 238.70,77.96 239.45,77.28 240.20,76.60 240.95,75.93 241.70,75.26 242.45,74.59 243.20,73.93 243.95,73.28 244.70,72.63 245.45,71.98 246.21,71.34 246.96,70.70 247.71,70.07 248.46,69.44 249.21,68.82 249.96,68.20 250.71,67.59 251.46,66.98 252.21,66.38 252.96,65.78 253.71,65.18 254.46,64.59 255.21,64.01 255.96,63.43 256.72,62.86 257.47,62.29 258.22,61.73 258.97,61.17 259.72,60.62 260.47,60.07 261.22,59.53 261.97,58.99 262.72,58.46 263.47,57.93 264.22,57.41 264.97,56.90 265.72,56.39 266.48,55.89 267.23,55.39 267.98,54.90 268.73,54.41 269.48,53.93 270.23,53.46 270.98,52.99 271.73,52.52 272.48,52.07 273.23,51.61 273.98,51.17 274.73,50.73 275.48,50.29 276.23,49.87 276.99,49.45 277.74,49.03 278.49,48.62 279.24,48.22 279.99,47.82 280.74,47.43 281.49,47.04 282.24,46.67 282.99,46.29 283.74,45.93 284.49,45.57 285.24,45.21 285.99,44.87 286.74,44.53 287.50,44.19 288.25,43.86 289.00,43.54 289.75,43.23 290.50,42.92 291.25,42.62 292.00,42.32 292.75,42.03 293.50,41.75 294.25,41.47 295.00,41.20 295.75,40.94 296.50,40.69 297.26,40.44 298.01,40.19 298.76,39.96 299.51,39.73 300.26,39.51 301.01,39.29 301.76,39.08 302.51,38.88 303.26,38.68 304.01,38.49 304.76,38.31 305.51,38.14 306.26,37.97 307.01,37.81 307.77,37.65 308.52,37.51 309.27,37.36 310.02,37.23 310.77,37.10 311.52,36.98 312.27,36.87 313.02,36.76 313.77,36.66 314.52,36.57 315.27,36.49 316.02,36.41 316.77,36.34 317.52,36.27 318.28,36.21 319.03,36.16 319.78,36.12 320.53,36.08 321.28,36.05 322.03,36.03 322.78,36.01 323.53,36.00 324.28,36.00 325.03,36.00 325.78,36.00 326.53,36.00 327.28,36.00 328.04,36.00 328.79,36.00 329.54,36.00 330.29,36.00 331.04,36.00 331.79,36.00 332.54,36.00 333.29,36.00 334.04,36.00 334.79,36.00 335.54,36.00 336.29,36.00 337.04,36.00 337.79,36.00 338.55,36.00 339.30,36.00 340.05,36.00 340.80,36.00 341.55,36.00 342.30,36.00 343.05,36.00 343.80,36.00 344.55,36.00 345.30,36.00 346.05,36.00 346.80,36.00 347.55,36.00 348.30,36.00 349.06,36.00 349.81,36.00 350.56,36.00 351.31,36.00 352.06,36.00 352.81,36.00 353.56,36.00 354.31,36.00 355.06,36.00 355.81,36.00 356.56,36.00 357.31,36.00 358.06,36.00 358.82,36.00 359.57,36.00 360.32,36.00 361.07,36.00 361.82,36.00 362.57,36.00 363.32,36.00 364.07,36.00 364.82,36.00 365.57,36.00 366.32,36.00 367.07,36.00 367.82,36.00 368.57,36.00 369.33,36.00 370.08,36.00 370.83,36.00 371.58,36.00 372.33,36.00 373.08,36.00 373.83,36.00 374.58,36.00 375.33,36.00 376.08,36.00 376.83,36.00 377.58,36.00 378.33,36.00 379.09,36.00 379.84,36.00 380.59,36.00 381.34,36.00 382.09,36.00 382.84,36.00 383.59,36.00 384.34,36.00 385.09,36.00 385.84,36.00 386.59,36.00 387.34,36.00 388.09,36.00 388.84,36.00 389.60,36.00 390.35,36.00 391.10,36.00 391.85,36.00 392.60,36.00 393.35,36.00 394.10,36.00 394.85,36.00 395.60,36.00 396.35,36.00 397.10,36.00 397.85,36.00 398.60,36.00 399.35,36.00 400.11,36.00 400.86,36.00 401.61,36.00 402.36,36.00 403.11,36.00 403.86,36.00 404.61,36.00 405.36,36.00 406.11,36.00 406.86,36.00 407.61,36.00 408.36,36.00 409.11,36.00 409.87,36.00 410.62,36.00 411.37,36.00 412.12,36.00 412.87,36.00 413.62,36.00 414.37,36.00 415.12,36.00 415.87,36.00 416.62,36.00 417.37,36.00 418.12,36.00 418.87,36.00 419.62,36.00 420.38,36.00 421.13,36.00 421.88,36.00 422.63,36.00 423.38,36.00 424.13,36.00 424.88,36.00 425.63,36.00 426.38,36.00 427.13,36.00 427.88,36.00 428.63,36.00 429.38,36.00 430.13,36.00 430.89,36.00 431.64,36.00 432.39,36.00 433.14,36.00 433.89,36.00 434.64,36.00 435.39,36.00 436.14,36.00 436.89,36.00 437.64,36.00 438.39,36.00 439.14,36.00 439.89,36.00 440.65,36.00 441.40,36.00 442.15,36.00 442.90,36.00 443.65,36.00 444.40,36.00 445.15,36.00 445.90,36.00 446.65,36.00 447.40,36.00 448.15,36.00 448.90,36.00 449.65,36.00 450.40,36.00 451.16,36.00 451.91,36.00 452.66,36.00 453.41,36.00 454.16,36.00 454.91,36.00 455.66,36.00 456.41,36.00 457.16,36.00 457.91,36.00 458.66,36.00 459.41,36.00 460.16,36.00 460.91,36.00 461.67,36.00 462.42,36.00 463.17,36.00 463.92,36.00 464.67,36.00 465.42,36.00 466.17,36.00 466.92,36.00 467.67,36.00 468.42,36.00 469.17,36.00 469.92,36.00 470.67,36.00 471.43,36.00 472.18,36.00 472.93,36.00 473.68,36.00 474.43,36.00 475.18,36.00 475.93,36.00 476.68,36.00 477.43,36.00 478.18,36.00 478.93,36.00 479.68,36.00 480.43,36.00 481.18,36.00 481.94,36.00 482.69,36.00 483.44,36.00 484.19,36.00 484.94,36.00 485.69,36.00 486.44,36.00 487.19,36.00 487.94,36.00 488.69,36.00 489.44,36.00 490.19,36.00 490.94,36.00 491.70,36.00 492.45,36.00 493.20,36.00 493.95,36.00 494.70,36.00 495.45,36.00 496.20,36.00 496.95,36.00 497.70,36.00 498.45,36.00 499.20,36.00 499.95,36.00 500.70,36.00 501.45,36.00 502.21,36.00 502.96,36.00 503.71,36.00 504.46,36.00 505.21,36.00 505.96,36.00 506.71,36.00 507.46,36.00 508.21,36.00 508.96,36.00 509.71,36.00 510.46,36.00 511.21,36.00 511.96,36.00 512.72,36.00 513.47,36.00 514.22,36.00 514.97,36.00 515.72,36.00 516.47,36.00 517.22,36.01 517.97,36.02 518.72,36.04 519.47,36.06 520.22,36.10 520.97,36.14 521.72,36.19 522.48,36.24 523.23,36.30 523.98,36.37 524.73,36.45 525.48,36.53 526.23,36.62 526.98,36.71 527.73,36.82 528.48,36.93 529.23,37.04 529.98,37.17 530.73,37.30 531.48,37.43 532.23,37.58 532.99,37.73 533.74,37.89 534.49,38.05 535.24,38.22 535.99,38.40 536.74,38.59 537.49,38.78 538.24,38.98 538.99,39.18 539.74,39.40 540.49,39.62 541.24,39.84 541.99,40.07 542.74,40.31 543.50,40.56 544.25,40.81 545.00,41.07 545.75,41.34 546.50,41.61 547.25,41.89 548.00,42.18 548.75,42.47 549.50,42.77 550.25,43.07 551.00,43.38 551.75,43.70 552.50,44.03 553.26,44.36 554.01,44.70 554.76,45.04 555.51,45.39 556.26,45.75 557.01,46.11 557.76,46.48 558.51,46.85 559.26,47.24 560.01,47.62 560.76,48.02 561.51,48.42 562.26,48.82 563.01,49.24 563.77,49.66 564.52,50.08 565.27,50.51 566.02,50.95 566.77,51.39 567.52,51.84 568.27,52.29 569.02,52.75 569.77,53.22 570.52,53.69 571.27,54.17 572.02,54.65 572.77,55.14 573.52,55.64 574.28,56.14 575.03,56.64 575.78,57.16 576.53,57.67 577.28,58.20 578.03,58.73 578.78,59.26 579.53,59.80 580.28,60.34 581.03,60.89 581.78,61.45 582.53,62.01 583.28,62.57 584.04,63.15 584.79,63.72 585.54,64.30 586.29,64.89 587.04,65.48 587.79,66.08 588.54,66.68 589.29,67.28 590.04,67.89 590.79,68.51 591.54,69.13 592.29,69.76 593.04,70.39 593.79,71.02 594.55,71.66 595.30,72.30 596.05,72.95 596.80,73.61 597.55,74.26 598.30,74.93 599.05,75.59 599.80,76.26 600.55,76.94 601.30,77.62 602.05,78.30 602.80,78.99 603.55,79.68 604.30,80.37 605.06,81.07 605.81,81.78 606.56,82.48 607.31,83.19 608.06,83.91 608.81,84.63 609.56,85.35 610.31,86.08 611.06,86.81 611.81,87.54 612.56,88.28 613.31,89.02 614.06,89.76 614.82,90.51 615.57,91.26 616.32,92.01 617.07,92.77 617.82,93.53 618.57,94.29 619.32,95.06 620.07,95.83 620.82,96.60 621.57,97.37 622.32,98.15 623.07,98.93 623.82,99.72 624.57,100.50 625.33,101.29 626.08,102.08 626.83,102.88 627.58,103.67 628.33,104.47 629.08,105.27 629.83,106.08 630.58,106.88 631.33,107.69 632.08,108.50 632.83,109.31 633.58,110.13 634.33,110.94 635.09,111.76 635.84,112.58 636.59,113.40 637.34,114.23 638.09,115.05 638.84,115.88 639.59,116.71 640.34,117.54 641.09,118.37 641.84,119.21 642.59,120.04 643.34,120.88 644.09,121.71 644.84,122.55 645.60,123.39 646.35,124.23 647.10,125.07 647.85,125.92 648.60,126.76 649.35,127.61 650.10,128.45 650.85,129.30 651.60,130.15 652.35,130.99 653.10,131.84 653.85,132.69 654.60,133.54 655.35,134.39 656.11,135.24 656.86,136.09 657.61,136.94 658.36,137.79 659.11,138.64 659.86,139.49 660.61,140.35 661.36,141.20 662.11,142.05 662.86,142.90 663.61,143.75 664.36,144.60 665.11,145.45 665.87,146.30 666.62,147.15 667.37,148.00 668.12,148.85 668.87,149.70 669.62,150.54 670.37,151.39 671.12,152.24 671.87,153.08 672.62,153.92 673.37,154.77 674.12,155.61 674.87,156.45 675.62,157.29 676.38,158.13 677.13,158.97 677.88,159.80 678.63,160.64 679.38,161.47 680.13,162.30 680.88,163.13 681.63,163.96 682.38,164.79 683.13,165.62 683.88,166.44 684.63,167.26 685.38,168.08 686.13,168.90 686.89,169.72 687.64,170.53 688.39,171.35 689.14,172.16 689.89,172.97 690.64,173.77 691.39,174.58 692.14,175.38 692.89,176.18 693.64,176.97 694.39,177.77 695.14,178.56 695.89,179.35 696.65,180.14 697.40,180.92 698.15,181.70 698.90,182.48 699.65,183.26 700.40,184.03 701.15,184.80 701.90,185.57 702.65,186.33 703.40,187.09 704.15,187.85 704.90,188.60 705.65,189.35 706.40,190.10 707.16,190.84 707.91,191.58 708.66,192.32 709.41,193.06 710.16,193.79 710.91,194.51 711.66,195.24 712.41,195.96 713.16,196.67 713.91,197.38 714.66,198.09 715.41,198.80 716.16,199.50 716.91,200.19 717.67,200.88 718.42,201.57 719.17,202.26 719.92,202.94 720.67,203.61 721.42,204.28 722.17,204.95 722.92,205.61 723.67,206.27 724.42,206.92 725.17,207.57 725.92,208.22 726.67,208.86 727.43,209.49 728.18,210.13 728.93,210.75 729.68,211.37 730.43,211.99 731.18,212.60 731.93,213.21 732.68,213.81 733.43,214.41 734.18,215.00 734.93,215.59 735.68,216.17 736.43,216.75 737.18,217.32 737.94,217.89 738.69,218.45 739.44,219.00 740.19,219.55 740.94,220.10 741.69,220.64 742.44,221.18 743.19,221.70 743.94,222.23 744.69,222.75 745.44,223.26 746.19,223.77 746.94,224.27 747.70,224.76 748.45,225.26 749.20,225.74 749.95,226.22 750.70,226.69 751.45,227.16 752.20,227.62 752.95,228.08 753.70,228.53 754.45,228.97 755.20,229.41 755.95,229.84 756.70,230.27 757.45,230.69 758.21,231.10 758.96,231.51 759.71,231.91 760.46,232.30 761.21,232.69 761.96,233.08 762.71,233.45 763.46,233.82 764.21,234.19 764.96,234.54 765.71,234.90 766.46,235.24 767.21,235.58 767.96,235.91 768.72,236.24 769.47,236.56 770.22,236.87 770.97,237.18 771.72,237.48 772.47,237.77 773.22,238.06 773.97,238.34 774.72,238.61 775.47,238.88 776.22,239.14 776.97,239.39 777.72,239.64 778.48,239.88 779.23,240.11 779.98,240.34 780.73,240.56 781.48,240.78 782.23,240.98 782.98,241.18 783.73,241.38 784.48,241.56 785.23,241.74 785.98,241.92 786.73,242.08 787.48,242.24 788.23,242.39 788.99,242.54 789.74,242.68 790.49,242.81 791.24,242.93 791.99,243.05 792.74,243.16 793.49,243.27 794.24,243.37 794.99,243.46 795.74,243.54 796.49,243.62 797.24,243.69 797.99,243.75 798.74,243.80 799.50,243.85 800.25,243.89 801.00,243.93 801.75,243.96 802.50,243.98 803.25,243.99 804.00,244.00" />
  <text x="420.0" y="22" text-anchor="middle" font-family="Arial, Helvetica, sans-serif" font-size="15" fill="#102a43">tukey_0p75 window (time domain)</text>
  <text x="420.0" y="272" text-anchor="middle" font-family="Arial, Helvetica, sans-serif" font-size="12" fill="#334e68">normalized sample index</text>
  <text x="14" y="140.0" transform="rotate(-90 14,140.0)" text-anchor="middle" font-family="Arial, Helvetica, sans-serif" font-size="12" fill="#334e68">amplitude</text>
  <text x="36" y="262" font-family="Arial, Helvetica, sans-serif" font-size="11" fill="#486581">0</text>
  <text x="804" y="262" text-anchor="end" font-family="Arial, Helvetica, sans-serif" font-size="11" fill="#486581">1</text>
  <text x="30" y="40" text-anchor="end" font-family="Arial, Helvetica, sans-serif" font-size="11" fill="#486581">1.0</text>
  <text x="30" y="248" text-anchor="end" font-family="Arial, Helvetica, sans-serif" font-size="11" fill="#486581">0.0</text>
</svg>
