<svg xmlns="http://www.w3.org/2000/svg" width="840" height="280" viewBox="0 0 840 280">
  <rect x="0" y="0" width="840" height="280" fill="#ffffff" />
  <rect x="36" y="36" width="768" height="208" fill="#f7fbff" stroke="#c8d9e6" />
  <polyline fill="none" stroke="#005f73" stroke-width="2" points="36.00,36.00 36.75,49.43 37.50,65.08 38.25,74.24 39.00,80.74 39.75,85.78 40.50,89.89 41.26,93.38 42.01,96.39 42.76,99.05 43.51,101.43 44.26,103.58 45.01,105.55 45.76,107.36 46.51,109.03 47.26,110.59 48.01,112.08 48.76,113.44 49.51,114.73 50.26,115.95 51.01,117.11 51.77,118.21 52.52,119.26 53.27,120.26 54.02,121.22 54.77,122.14 55.52,123.02 56.27,123.87 57.02,124.69 57.77,125.49 58.52,126.25 59.27,126.99 60.02,127.74 60.77,128.43 61.52,129.10 62.28,129.75 63.03,130.39 63.78,131.00 64.53,131.60 65.28,132.19 66.03,132.76 66.78,133.31 67.53,133.86 68.28,134.38 69.03,134.90 69.78,135.41 70.53,135.90 71.28,136.39 72.04,136.90 72.79,137.36 73.54,137.81 74.29,138.26 75.04,138.69 75.79,139.12 76.54,139.54 77.29,139.95 78.04,140.36 78.79,140.75 79.54,141.15 80.29,141.53 81.04,141.91 81.79,142.28 82.55,142.64 83.30,143.00 84.05,143.40 84.80,143.75 85.55,144.09 86.30,144.43 87.05,144.76 87.80,145.08 88.55,145.41 89.30,145.72 90.05,146.04 90.80,146.34 91.55,146.65 92.30,146.95 93.06,147.24 93.81,147.54 94.56,147.83 95.31,148.11 96.06,148.45 96.81,148.73 97.56,149.00 98.31,149.27 99.06,149.54 99.81,149.80 100.56,150.06 101.31,150.32 102.06,150.57 102.82,150.82 103.57,151.07 104.32,151.32 105.07,151.56 105.82,151.80 106.57,152.04 107.32,152.28 108.07,152.58 108.82,152.81 109.57,153.04 110.32,153.26 111.07,153.49 111.82,153.71 112.57,153.92 113.33,154.14 114.08,154.35 114.83,154.56 115.58,154.77 116.33,154.98 117.08,155.19 117.83,155.39 118.58,155.59 119.33,155.79 120.08,156.08 120.83,156.27 121.58,156.47 122.33,156.66 123.09,156.85 123.84,157.04 124.59,157.23 125.34,157.41 126.09,157.59 126.84,157.78 127.59,157.96 128.34,158.14 129.09,158.31 129.84,158.49 130.59,158.67 131.34,158.84 132.09,159.11 132.84,159.28 133.60,159.45 134.35,159.62 135.10,159.78 135.85,159.95 136.60,160.11 137.35,160.27 138.10,160.43 138.85,160.59 139.60,160.75 140.35,160.91 141.10,161.06 141.85,161.22 142.60,161.37 143.35,161.53 144.11,161.79 144.86,161.94 145.61,162.09 146.36,162.24 147.11,162.38 147.86,162.53 148.61,162.67 149.36,162.82 150.11,162.96 150.86,163.10 151.61,163.24 152.36,163.38 153.11,163.52 153.87,163.66 154.62,163.79 155.37,163.93 156.12,164.19 156.87,164.33 157.62,164.46 158.37,164.59 159.12,164.72 159.87,164.85 160.62,164.98 161.37,165.11 162.12,165.24 162.87,165.36 163.62,165.49 164.38,165.61 165.13,165.74 165.88,165.86 166.63,165.98 167.38,166.11 168.13,166.37 168.88,166.49 169.63,166.61 170.38,166.73 171.13,166.85 171.88,166.96 172.63,167.08 173.38,167.19 174.13,167.31 174.89,167.42 175.64,167.54 176.39,167.65 177.14,167.76 177.89,167.87 178.64,167.99 179.39,168.10 180.14,168.36 180.89,168.47 181.64,168.58 182.39,168.69 183.14,168.79 183.89,168.90 184.65,169.00 185.40,169.11 186.15,169.21 186.90,169.32 187.65,169.42 188.40,169.52 189.15,169.63 189.90,169.73 190.65,169.83 191.40,169.93 192.15,170.20 192.90,170.30 193.65,170.40 194.40,170.50 195.16,170.59 195.91,170.69 196.66,170.79 197.41,170.88 198.16,170.98 198.91,171.07 199.66,171.17 200.41,171.26 201.16,171.35 201.91,171.45 202.66,171.54 203.41,171.63 204.16,171.91 204.91,172.00 205.67,172.09 206.42,172.18 207.17,172.27 207.92,172.35 208.67,172.44 209.42,172.53 210.17,172.62 210.92,172.70 211.67,172.79 212.42,172.88 213.17,172.96 213.92,173.05 214.67,173.13 215.43,173.22 216.18,173.50 216.93,173.59 217.68,173.67 218.43,173.75 219.18,173.83 219.93,173.91 220.68,173.99 221.43,174.07 222.18,174.15 222.93,174.23 223.68,174.31 224.43,174.39 225.18,174.47 225.94,174.55 226.69,174.63 227.44,174.71 228.19,175.00 228.94,175.08 229.69,175.15 230.44,175.23 231.19,175.30 231.94,175.38 232.69,175.45 233.44,175.53 234.19,175.60 234.94,175.67 235.70,175.75 236.45,175.82 237.20,175.89 237.95,175.96 238.70,176.04 239.45,176.11 240.20,176.41 240.95,176.48 241.70,176.55 242.45,176.62 243.20,176.69 243.95,176.76 244.70,176.83 245.45,176.90 246.21,176.96 246.96,177.03 247.71,177.10 248.46,177.17 249.21,177.23 249.96,177.30 250.71,177.37 251.46,177.43 252.21,177.75 252.96,177.81 253.71,177.88 254.46,177.94 255.21,178.01 255.96,178.07 256.72,178.13 257.47,178.20 258.22,178.26 258.97,178.32 259.72,178.38 260.47,178.45 261.22,178.51 261.97,178.57 262.72,178.63 263.47,178.69 264.22,179.02 264.97,179.08 265.72,179.14 266.48,179.20 267.23,179.26 267.98,179.32 268.73,179.37 269.48,179.43 270.23,179.49 270.98,179.55 271.73,179.61 272.48,179.67 273.23,179.72 273.98,179.78 274.73,179.84 275.48,179.89 276.23,180.23 276.99,180.29 277.74,180.34 278.49,180.40 279.24,180.45 279.99,180.51 280.74,180.56 281.49,180.61 282.24,180.67 282.99,180.72 283.74,180.78 284.49,180.83 285.24,180.88 285.99,180.93 286.74,180.99 287.50,181.04 288.25,181.39 289.00,181.44 289.75,181.49 290.50,181.54 291.25,181.59 292.00,181.64 292.75,181.69 293.50,181.74 294.25,181.79 295.00,181.84 295.75,181.89 296.50,181.94 297.26,181.99 298.01,182.04 298.76,182.09 299.51,182.14 300.26,182.50 301.01,182.55 301.76,182.60 302.51,182.64 303.26,182.69 304.01,182.74 304.76,182.78 305.51,182.83 306.26,182.88 307.01,182.92 307.77,182.97 308.52,183.01 309.27,183.06 310.02,183.10 310.77,183.15 311.52,183.19 312.27,183.57 313.02,183.62 313.77,183.66 314.52,183.70 315.27,183.75 316.02,183.79 316.77,183.83 317.52,183.87 318.28,183.92 319.03,183.96 319.78,184.00 320.53,184.04 321.28,184.09 322.03,184.13 322.78,184.17 323.53,184.21 324.28,184.60 325.03,184.64 325.78,184.68 326.53,184.72 327.28,184.76 328.04,184.80 328.79,184.84 329.54,184.88 330.29,184.92 331.04,184.96 331.79,185.00 332.54,185.04 333.29,185.08 334.04,185.12 334.79,185.15 335.54,185.19 336.29,185.60 337.04,185.64 337.79,185.68 338.55,185.71 339.30,185.75 340.05,185.78 340.80,185.82 341.55,185.86 342.30,185.89 343.05,185.93 343.80,185.96 344.55,186.00 345.30,186.04 346.05,186.07 346.80,186.11 347.55,186.14 348.30,186.57 349.06,186.60 349.81,186.64 350.56,186.67 351.31,186.70 352.06,186.74 352.81,186.77 353.56,186.80 354.31,186.83 355.06,186.87 355.81,186.90 356.56,186.93 357.31,186.97 358.06,187.00 358.82,187.03 359.57,187.06 360.32,187.51 361.07,187.54 361.82,187.57 362.57,187.60 363.32,187.63 364.07,187.66 364.82,187.69 365.57,187.72 366.32,187.75 367.07,187.78 367.82,187.81 368.57,187.84 369.33,187.87 370.08,187.90 370.83,187.93 371.58,187.96 372.33,188.42 373.08,188.45 373.83,188.48 374.58,188.50 375.33,188.53 376.08,188.56 376.83,188.59 377.58,188.61 378.33,188.64 379.09,188.67 379.84,188.70 380.59,188.72 381.34,188.75 382.09,188.78 382.84,188.80 383.59,188.83 384.34,189.31 385.09,189.34 385.84,189.36 386.59,189.39 387.34,189.41 388.09,189.44 388.84,189.46 389.60,189.49 390.35,189.51 391.10,189.53 391.85,189.56 392.60,189.58 393.35,189.61 394.10,189.63 394.85,189.66 395.60,189.68 396.35,190.18 397.10,190.21 397.85,190.23 398.60,190.25 399.35,190.27 400.11,190.29 400.86,190.32 401.61,190.34 402.36,190.36 403.11,190.38 403.86,190.40 404.61,190.43 405.36,190.45 406.11,190.47 406.86,190.49 407.61,190.51 408.36,191.04 409.11,191.06 409.87,191.08 410.62,191.10 411.37,191.11 412.12,191.13 412.87,191.15 413.62,191.17 414.37,191.19 415.12,191.21 415.87,191.23 416.62,191.25 417.37,191.27 418.12,191.29 418.87,191.31 419.62,191.33 420.38,191.87 421.13,191.89 421.88,191.91 422.63,191.93 423.38,191.94 424.13,191.96 424.88,191.98 425.63,191.99 426.38,192.01 427.13,192.03 427.88,192.04 428.63,192.06 429.38,192.08 430.13,192.09 430.89,192.11 431.64,192.13 432.39,192.70 433.14,192.71 433.89,192.73 434.64,192.74 435.39,192.76 436.14,192.77 436.89,192.79 437.64,192.80 438.39,192.81 439.14,192.83 439.89,192.84 440.65,192.86 441.40,192.87 442.15,192.89 442.90,192.90 443.65,192.91 444.40,193.51 445.15,193.52 445.90,193.53 446.65,193.55 447.40,193.56 448.15,193.57 448.90,193.58 449.65,193.59 450.40,193.61 451.16,193.62 451.91,193.63 452.66,193.64 453.41,193.65 454.16,193.67 454.91,193.68 455.66,193.69 456.41,194.31 457.16,194.32 457.91,194.33 458.66,194.34 459.41,194.35 460.16,194.36 460.91,194.37 461.67,194.38 462.42,194.39 463.17,194.40 463.92,194.41 464.67,194.42 465.42,194.43 466.17,194.44 466.92,194.45 467.67,194.46 468.42,195.11 469.17,195.11 469.92,195.12 470.67,195.13 471.43,195.14 472.18,195.14 472.93,195.15 473.68,195.16 474.43,195.16 475.18,195.17 475.93,195.18 476.68,195.19 477.43,195.19 478.18,195.20 478.93,195.21 479.68,195.21 480.43,195.90 481.18,195.90 481.94,195.91 482.69,195.91 483.44,195.91 484.19,195.92 484.94,195.92 485.69,195.93 486.44,195.93 487.19,195.94 487.94,195.94 488.69,195.95 489.44,195.95 490.19,195.96 490.94,195.96 491.70,195.97 492.45,196.68 493.20,196.68 493.95,196.68 494.70,196.69 495.45,196.69 496.20,196.69 496.95,196.69 497.70,196.70 498.45,196.70 499.20,196.70 499.95,196.70 500.70,196.71 501.45,196.71 502.21,196.71 502.96,196.71 503.71,196.71 504.46,197.46 505.21,197.46 505.96,197.46 506.71,197.46 507.46,197.46 508.21,197.46 508.96,197.46 509.71,197.46 510.46,197.46 511.21,197.46 511.96,197.46 512.72,197.46 513.47,197.46 514.22,197.46 514.97,197.46 515.72,197.46 516.47,198.25 517.22,198.24 517.97,198.24 518.72,198.24 519.47,198.23 520.22,198.23 520.97,198.23 521.72,198.23 522.48,198.22 523.23,198.22 523.98,198.22 524.73,198.22 525.48,198.21 526.23,198.21 526.98,198.21 527.73,198.20 528.48,199.03 529.23,199.03 529.98,199.02 530.73,199.01 531.48,199.01 532.23,199.00 532.99,199.00 533.74,198.99 534.49,198.99 535.24,198.98 535.99,198.98 536.74,198.97 537.49,198.97 538.24,198.96 538.99,198.96 539.74,198.95 540.49,199.82 541.24,199.81 541.99,199.80 542.74,199.80 543.50,199.79 544.25,199.78 545.00,199.77 545.75,199.76 546.50,199.76 547.25,199.75 548.00,199.74 548.75,199.73 549.50,199.72 550.25,199.72 551.00,199.71 551.75,199.70 552.50,200.62 553.26,200.61 554.01,200.59 554.76,200.58 555.51,200.57 556.26,200.56 557.01,200.55 557.76,200.54 558.51,200.53 559.26,200.52 560.01,200.51 560.76,200.50 561.51,200.49 562.26,200.48 563.01,200.47 563.77,200.46 564.52,201.42 565.27,201.41 566.02,201.40 566.77,201.38 567.52,201.37 568.27,201.35 569.02,201.34 569.77,201.33 570.52,201.31 571.27,201.30 572.02,201.29 572.77,201.27 573.52,201.26 574.28,201.25 575.03,201.23 575.78,201.22 576.53,202.24 577.28,202.23 578.03,202.21 578.78,202.19 579.53,202.18 580.28,202.16 581.03,202.14 581.78,202.13 582.53,202.11 583.28,202.09 584.04,202.08 584.79,202.06 585.54,202.04 586.29,202.03 587.04,202.01 587.79,202.00 588.54,203.08 589.29,203.06 590.04,203.04 590.79,203.02 591.54,203.00 592.29,202.98 593.04,202.96 593.79,202.94 594.55,202.92 595.30,202.90 596.05,202.88 596.80,202.86 597.55,202.84 598.30,202.82 599.05,202.80 599.80,202.78 600.55,203.93 601.30,203.91 602.05,203.89 602.80,203.86 603.55,203.84 604.30,203.82 605.06,203.79 605.81,203.77 606.56,203.75 607.31,203.73 608.06,203.70 608.81,203.68 609.56,203.66 610.31,203.63 611.06,203.61 611.81,203.59 612.56,204.82 613.31,204.79 614.06,204.76 614.82,204.73 615.57,204.71 616.32,204.68 617.07,204.65 617.82,204.63 618.57,204.60 619.32,204.57 620.07,204.55 620.82,204.52 621.57,204.50 622.32,204.47 623.07,204.44 623.82,204.42 624.57,205.73 625.33,205.70 626.08,205.66 626.83,205.63 627.58,205.60 628.33,205.57 629.08,205.54 629.83,205.51 630.58,205.48 631.33,205.45 632.08,205.42 632.83,205.39 633.58,205.36 634.33,205.33 635.09,205.30 635.84,205.27 636.59,206.68 637.34,206.64 638.09,206.60 638.84,206.57 639.59,206.53 640.34,206.50 641.09,206.46 641.84,206.43 642.59,206.39 643.34,206.36 644.09,206.32 644.84,206.29 645.60,206.26 646.35,206.22 647.10,206.19 647.85,206.15 648.60,207.67 649.35,207.63 650.10,207.59 650.85,207.55 651.60,207.51 652.35,207.47 653.10,207.43 653.85,207.39 654.60,207.35 655.35,207.31 656.11,207.27 656.86,207.23 657.61,207.19 658.36,207.15 659.11,207.11 659.86,207.08 660.61,208.71 661.36,208.67 662.11,208.62 662.86,208.58 663.61,208.53 664.36,208.48 665.11,208.44 665.87,208.39 666.62,208.35 667.37,208.31 668.12,208.26 668.87,208.22 669.62,208.17 670.37,208.13 671.12,208.09 671.87,208.04 672.62,209.82 673.37,209.77 674.12,209.72 674.87,209.67 675.62,209.62 676.38,209.56 677.13,209.51 677.88,209.46 678.63,209.41 679.38,209.36 680.13,209.31 680.88,209.26 681.63,209.21 682.38,209.16 683.13,209.11 683.88,209.07 684.63,211.02 685.38,210.96 686.13,210.90 686.89,210.84 687.64,210.78 688.39,210.72 689.14,210.66 689.89,210.60 690.64,210.55 691.39,210.49 692.14,210.43 692.89,210.38 693.64,210.32 694.39,210.26 695.14,210.21 695.89,210.15 696.65,212.31 697.40,212.24 698.15,212.17 698.90,212.10 699.65,212.03 700.40,211.97 701.15,211.90 701.90,211.84 702.65,211.77 703.40,211.70 704.15,211.64 704.90,211.58 705.65,211.51 706.40,211.45 707.16,211.39 707.91,211.32 708.66,213.72 709.41,213.64 710.16,213.57 710.91,213.49 711.66,213.41 712.41,213.33 713.16,213.26 713.91,213.18 714.66,213.11 715.41,213.03 716.16,212.96 716.91,212.88 717.67,212.81 718.42,212.74 719.17,212.67 719.92,212.59 720.67,215.30 721.42,215.21 722.17,215.12 722.92,215.03 723.67,214.94 724.42,214.85 725.17,214.76 725.92,214.67 726.67,214.59 727.43,214.50 728.18,214.41 728.93,214.33 729.68,214.24 730.43,214.16 731.18,214.08 731.93,213.99 732.68,217.10 733.43,216.99 734.18,216.88 734.93,216.78 735.68,216.67 736.43,216.56 737.18,216.46 737.94,216.35 738.69,216.25 739.44,216.15 740.19,216.05 740.94,215.95 741.69,215.85 742.44,215.75 743.19,215.66 743.94,215.56 744.69,219.20 745.44,219.07 746.19,218.93 746.94,218.80 747.70,218.67 748.45,218.55 749.20,218.42 749.95,218.30 750.70,218.17 751.45,218.05 752.20,217.93 752.95,217.81 753.70,217.69 754.45,217.58 755.20,217.46 755.95,217.35 756.70,221.73 757.45,221.57 758.21,221.40 758.96,221.24 759.71,221.07 760.46,220.92 761.21,220.76 761.96,220.60 762.71,220.45 763.46,220.30 764.21,220.15 764.96,220.01 765.71,219.86 766.46,219.72 767.21,219.58 767.96,219.44 768.72,224.96 769.47,224.74 770.22,224.52 770.97,224.30 771.72,224.09 772.47,223.88 773.22,223.67 773.97,223.47 774.72,223.28 775.47,223.08 776.22,222.89 776.97,222.70 777.72,222.52 778.48,222.34 779.23,222.16 779.98,221.98 780.73,229.46 781.48,229.12 782.23,228.79 782.98,228.48 783.73,228.17 784.48,227.87 785.23,227.58 785.98,227.29 786.73,227.01 787.48,226.74 788.23,226.48 788.99,226.22 789.74,225.97 790.49,225.72 791.24,225.48 791.99,225.24 792.74,236.96 793.49,236.31 794.24,235.70 794.99,235.12 795.74,234.57 796.49,234.05 797.24,233.55 797.99,233.07 798.74,232.61 799.50,232.16 800.25,231.74 801.00,231.33 801.75,230.93 802.50,230.55 803.25,230.18 804.00,244.00" />
  <text x="420.0" y="22" text-anchor="middle" font-family="Arial, Helvetica, sans-serif" font-size="15" fill="#102a43">welch window (magnitude spectrum)</text>
  <text x="420.0" y="272" text-anchor="middle" font-family="Arial, Helvetica, sans-serif" font-size="12" fill="#334e68">normalized frequency</text>
  <text x="14" y="140.0" transform="rotate(-90 14,140.0)" text-anchor="middle" font-family="Arial, Helvetica, sans-serif" font-size="12" fill="#334e68">magnitude (dB)</text>
  <text x="36" y="262" font-family="Arial, Helvetica, sans-serif" font-size="11" fill="#486581">0</text>
  <text x="804" y="262" text-anchor="end" font-family="Arial, Helvetica, sans-serif" font-size="11" fill="#486581">1</text>
  <text x="30" y="40" text-anchor="end" font-family="Arial, Helvetica, sans-serif" font-size="11" fill="#486581">0.0</text>
  <text x="30" y="248" text-anchor="end" font-family="Arial, Helvetica, sans-serif" font-size="11" fill="#486581">-160.0</text>
</svg>
