<svg xmlns="http://www.w3.org/2000/svg" width="840" height="280" viewBox="0 0 840 280">
  <rect x="0" y="0" width="840" height="280" fill="#ffffff" />
  <rect x="36" y="36" width="768" height="208" fill="#f7fbff" stroke="#c8d9e6" />
  <polyline fill="none" stroke="#005f73" stroke-width="2" points="36.00,244.00 36.75,243.19 37.50,242.38 38.25,241.57 39.00,240.76 39.75,239.96 40.50,239.15 41.26,238.35 42.01,237.55 42.76,236.75 43.51,235.95 44.26,235.15 45.01,234.36 45.76,233.57 46.51,232.78 47.26,231.99 48.01,231.20 48.76,230.41 49.51,229.63 50.26,228.84 51.01,228.06 51.77,227.28 52.52,226.50 53.27,225.72 54.02,224.95 54.77,224.17 55.52,223.40 56.27,222.63 57.02,221.86 57.77,221.09 58.52,220.33 59.27,219.56 60.02,218.80 60.77,218.04 61.52,217.28 62.28,216.52 63.03,215.77 63.78,215.01 64.53,214.26 65.28,213.51 66.03,212.75 66.78,212.01 67.53,211.26 68.28,210.51 69.03,209.77 69.78,209.03 70.53,208.29 71.28,207.55 72.04,206.81 72.79,206.08 73.54,205.34 74.29,204.61 75.04,203.88 75.79,203.15 76.54,202.42 77.29,201.69 78.04,200.97 78.79,200.25 79.54,199.52 80.29,198.80 81.04,198.09 81.79,197.37 82.55,196.65 83.30,195.94 84.05,195.23 84.80,194.52 85.55,193.81 86.30,193.10 87.05,192.40 87.80,191.69 88.55,190.99 89.30,190.29 90.05,189.59 90.80,188.89 91.55,188.19 92.30,187.50 93.06,186.81 93.81,186.12 94.56,185.43 95.31,184.74 96.06,184.05 96.81,183.37 97.56,182.68 98.31,182.00 99.06,181.32 99.81,180.64 100.56,179.97 101.31,179.29 102.06,178.62 102.82,177.94 103.57,177.27 104.32,176.60 105.07,175.94 105.82,175.27 106.57,174.61 107.32,173.94 108.07,173.28 108.82,172.62 109.57,171.96 110.32,171.31 111.07,170.65 111.82,170.00 112.57,169.35 113.33,168.70 114.08,168.05 114.83,167.40 115.58,166.76 116.33,166.11 117.08,165.47 117.83,164.83 118.58,164.19 119.33,163.55 120.08,162.92 120.83,162.28 121.58,161.65 122.33,161.02 123.09,160.39 123.84,159.76 124.59,159.14 125.34,158.51 126.09,157.89 126.84,157.27 127.59,156.65 128.34,156.03 129.09,155.41 129.84,154.80 130.59,154.18 131.34,153.57 132.09,152.96 132.84,152.35 133.60,151.75 134.35,151.14 135.10,150.54 135.85,149.93 136.60,149.33 137.35,148.73 138.10,148.14 138.85,147.54 139.60,146.95 140.35,146.35 141.10,145.76 141.85,145.17 142.60,144.58 143.35,144.00 144.11,143.41 144.86,142.83 145.61,142.25 146.36,141.67 147.11,141.09 147.86,140.51 148.61,139.94 149.36,139.36 150.11,138.79 150.86,138.22 151.61,137.65 152.36,137.08 153.11,136.52 153.87,135.95 154.62,135.39 155.37,134.83 156.12,134.27 156.87,133.71 157.62,133.15 158.37,132.60 159.12,132.05 159.87,131.49 160.62,130.94 161.37,130.40 162.12,129.85 162.87,129.30 163.62,128.76 164.38,128.22 165.13,127.68 165.88,127.14 166.63,126.60 167.38,126.07 168.13,125.53 168.88,125.00 169.63,124.47 170.38,123.94 171.13,123.41 171.88,122.89 172.63,122.36 173.38,121.84 174.13,121.32 174.89,120.80 175.64,120.28 176.39,119.76 177.14,119.25 177.89,118.73 178.64,118.22 179.39,117.71 180.14,117.20 180.89,116.70 181.64,116.19 182.39,115.69 183.14,115.18 183.89,114.68 184.65,114.18 185.40,113.69 186.15,113.19 186.90,112.70 187.65,112.20 188.40,111.71 189.15,111.22 189.90,110.73 190.65,110.25 191.40,109.76 192.15,109.28 192.90,108.80 193.65,108.32 194.40,107.84 195.16,107.36 195.91,106.89 196.66,106.41 197.41,105.94 198.16,105.47 198.91,105.00 199.66,104.53 200.41,104.07 201.16,103.60 201.91,103.14 202.66,102.68 203.41,102.22 204.16,101.76 204.91,101.31 205.67,100.85 206.42,100.40 207.17,99.95 207.92,99.50 208.67,99.05 209.42,98.60 210.17,98.16 210.92,97.71 211.67,97.27 212.42,96.83 213.17,96.39 213.92,95.95 214.67,95.52 215.43,95.08 216.18,94.65 216.93,94.22 217.68,93.79 218.43,93.36 219.18,92.94 219.93,92.51 220.68,92.09 221.43,91.67 222.18,91.25 222.93,90.83 223.68,90.42 224.43,90.00 225.18,89.59 225.94,89.18 226.69,88.76 227.44,88.36 228.19,87.95 228.94,87.54 229.69,87.14 230.44,86.74 231.19,86.34 231.94,85.94 232.69,85.54 233.44,85.14 234.19,84.75 234.94,84.36 235.70,83.97 236.45,83.58 237.20,83.19 237.95,82.80 238.70,82.42 239.45,82.03 240.20,81.65 240.95,81.27 241.70,80.89 242.45,80.52 243.20,80.14 243.95,79.77 244.70,79.40 245.45,79.03 246.21,78.66 246.96,78.29 247.71,77.92 248.46,77.56 249.21,77.20 249.96,76.84 250.71,76.48 251.46,76.12 252.21,75.76 252.96,75.41 253.71,75.05 254.46,74.70 255.21,74.35 255.96,74.01 256.72,73.66 257.47,73.31 258.22,72.97 258.97,72.63 259.72,72.29 260.47,71.95 261.22,71.61 261.97,71.28 262.72,70.94 263.47,70.61 264.22,70.28 264.97,69.95 265.72,69.62 266.48,69.30 267.23,68.97 267.98,68.65 268.73,68.33 269.48,68.01 270.23,67.69 270.98,67.37 271.73,67.06 272.48,66.75 273.23,66.43 273.98,66.12 274.73,65.81 275.48,65.51 276.23,65.20 276.99,64.90 277.74,64.60 278.49,64.30 279.24,64.00 279.99,63.70 280.74,63.40 281.49,63.11 282.24,62.82 282.99,62.53 283.74,62.24 284.49,61.95 285.24,61.66 285.99,61.38 286.74,61.09 287.50,60.81 288.25,60.53 289.00,60.25 289.75,59.98 290.50,59.70 291.25,59.43 292.00,59.16 292.75,58.89 293.50,58.62 294.25,58.35 295.00,58.08 295.75,57.82 296.50,57.56 297.26,57.30 298.01,57.04 298.76,56.78 299.51,56.52 300.26,56.27 301.01,56.02 301.76,55.76 302.51,55.51 303.26,55.27 304.01,55.02 304.76,54.77 305.51,54.53 306.26,54.29 307.01,54.05 307.77,53.81 308.52,53.57 309.27,53.34 310.02,53.10 310.77,52.87 311.52,52.64 312.27,52.41 313.02,52.18 313.77,51.96 314.52,51.73 315.27,51.51 316.02,51.29 316.77,51.07 317.52,50.85 318.28,50.64 319.03,50.42 319.78,50.21 320.53,50.00 321.28,49.79 322.03,49.58 322.78,49.37 323.53,49.17 324.28,48.96 325.03,48.76 325.78,48.56 326.53,48.36 327.28,48.16 328.04,47.97 328.79,47.77 329.54,47.58 330.29,47.39 331.04,47.20 331.79,47.01 332.54,46.83 333.29,46.64 334.04,46.46 334.79,46.28 335.54,46.10 336.29,45.92 337.04,45.74 337.79,45.57 338.55,45.39 339.30,45.22 340.05,45.05 340.80,44.88 341.55,44.71 342.30,44.55 343.05,44.39 343.80,44.22 344.55,44.06 345.30,43.90 346.05,43.75 346.80,43.59 347.55,43.43 348.30,43.28 349.06,43.13 349.81,42.98 350.56,42.83 351.31,42.69 352.06,42.54 352.81,42.40 353.56,42.26 354.31,42.12 355.06,41.98 355.81,41.84 356.56,41.70 357.31,41.57 358.06,41.44 358.82,41.31 359.57,41.18 360.32,41.05 361.07,40.93 361.82,40.80 362.57,40.68 363.32,40.56 364.07,40.44 364.82,40.32 365.57,40.20 366.32,40.09 367.07,39.98 367.82,39.86 368.57,39.75 369.33,39.65 370.08,39.54 370.83,39.43 371.58,39.33 372.33,39.23 373.08,39.13 373.83,39.03 374.58,38.93 375.33,38.84 376.08,38.74 376.83,38.65 377.58,38.56 378.33,38.47 379.09,38.38 379.84,38.29 380.59,38.21 381.34,38.13 382.09,38.05 382.84,37.97 383.59,37.89 384.34,37.81 385.09,37.74 385.84,37.66 386.59,37.59 387.34,37.52 388.09,37.45 388.84,37.38 389.60,37.32 390.35,37.25 391.10,37.19 391.85,37.13 392.60,37.07 393.35,37.02 394.10,36.96 394.85,36.90 395.60,36.85 396.35,36.80 397.10,36.75 397.85,36.70 398.60,36.66 399.35,36.61 400.11,36.57 400.86,36.53 401.61,36.49 402.36,36.45 403.11,36.41 403.86,36.38 404.61,36.34 405.36,36.31 406.11,36.28 406.86,36.25 407.61,36.22 408.36,36.20 409.11,36.17 409.87,36.15 410.62,36.13 411.37,36.11 412.12,36.09 412.87,36.08 413.62,36.06 414.37,36.05 415.12,36.04 415.87,36.03 416.62,36.02 417.37,36.01 418.12,36.01 418.87,36.00 419.62,36.00 420.38,36.00 421.13,36.00 421.88,36.00 422.63,36.01 423.38,36.01 424.13,36.02 424.88,36.03 425.63,36.04 426.38,36.05 427.13,36.07 427.88,36.08 428.63,36.10 429.38,36.12 430.13,36.14 430.89,36.16 431.64,36.18 432.39,36.21 433.14,36.24 433.89,36.26 434.64,36.29 435.39,36.33 436.14,36.36 436.89,36.39 437.64,36.43 438.39,36.47 439.14,36.51 439.89,36.55 440.65,36.59 441.40,36.63 442.15,36.68 442.90,36.73 443.65,36.78 444.40,36.83 445.15,36.88 445.90,36.93 446.65,36.99 447.40,37.04 448.15,37.10 448.90,37.16 449.65,37.22 450.40,37.29 451.16,37.35 451.91,37.42 452.66,37.49 453.41,37.56 454.16,37.63 454.91,37.70 455.66,37.77 456.41,37.85 457.16,37.93 457.91,38.01 458.66,38.09 459.41,38.17 460.16,38.25 460.91,38.34 461.67,38.42 462.42,38.51 463.17,38.60 463.92,38.69 464.67,38.79 465.42,38.88 466.17,38.98 466.92,39.08 467.67,39.18 468.42,39.28 469.17,39.38 469.92,39.49 470.67,39.59 471.43,39.70 472.18,39.81 472.93,39.92 473.68,40.03 474.43,40.15 475.18,40.26 475.93,40.38 476.68,40.50 477.43,40.62 478.18,40.74 478.93,40.86 479.68,40.99 480.43,41.11 481.18,41.24 481.94,41.37 482.69,41.50 483.44,41.64 484.19,41.77 484.94,41.91 485.69,42.05 486.44,42.19 487.19,42.33 487.94,42.47 488.69,42.61 489.44,42.76 490.19,42.91 490.94,43.06 491.70,43.21 492.45,43.36 493.20,43.51 493.95,43.67 494.70,43.82 495.45,43.98 496.20,44.14 496.95,44.30 497.70,44.47 498.45,44.63 499.20,44.80 499.95,44.97 500.70,45.14 501.45,45.31 502.21,45.48 502.96,45.65 503.71,45.83 504.46,46.01 505.21,46.19 505.96,46.37 506.71,46.55 507.46,46.73 508.21,46.92 508.96,47.11 509.71,47.29 510.46,47.48 511.21,47.68 511.96,47.87 512.72,48.06 513.47,48.26 514.22,48.46 514.97,48.66 515.72,48.86 516.47,49.06 517.22,49.27 517.97,49.47 518.72,49.68 519.47,49.89 520.22,50.10 520.97,50.31 521.72,50.53 522.48,50.74 523.23,50.96 523.98,51.18 524.73,51.40 525.48,51.62 526.23,51.85 526.98,52.07 527.73,52.30 528.48,52.53 529.23,52.76 529.98,52.99 530.73,53.22 531.48,53.46 532.23,53.69 532.99,53.93 533.74,54.17 534.49,54.41 535.24,54.65 535.99,54.90 536.74,55.14 537.49,55.39 538.24,55.64 538.99,55.89 539.74,56.14 540.49,56.40 541.24,56.65 541.99,56.91 542.74,57.17 543.50,57.43 544.25,57.69 545.00,57.95 545.75,58.22 546.50,58.48 547.25,58.75 548.00,59.02 548.75,59.29 549.50,59.56 550.25,59.84 551.00,60.12 551.75,60.39 552.50,60.67 553.26,60.95 554.01,61.24 554.76,61.52 555.51,61.80 556.26,62.09 557.01,62.38 557.76,62.67 558.51,62.96 559.26,63.26 560.01,63.55 560.76,63.85 561.51,64.15 562.26,64.45 563.01,64.75 563.77,65.05 564.52,65.35 565.27,65.66 566.02,65.97 566.77,66.28 567.52,66.59 568.27,66.90 569.02,67.22 569.77,67.53 570.52,67.85 571.27,68.17 572.02,68.49 572.77,68.81 573.52,69.13 574.28,69.46 575.03,69.79 575.78,70.11 576.53,70.44 577.28,70.78 578.03,71.11 578.78,71.44 579.53,71.78 580.28,72.12 581.03,72.46 581.78,72.80 582.53,73.14 583.28,73.49 584.04,73.83 584.79,74.18 585.54,74.53 586.29,74.88 587.04,75.23 587.79,75.58 588.54,75.94 589.29,76.30 590.04,76.66 590.79,77.02 591.54,77.38 592.29,77.74 593.04,78.11 593.79,78.47 594.55,78.84 595.30,79.21 596.05,79.58 596.80,79.95 597.55,80.33 598.30,80.71 599.05,81.08 599.80,81.46 600.55,81.84 601.30,82.23 602.05,82.61 602.80,83.00 603.55,83.38 604.30,83.77 605.06,84.16 605.81,84.55 606.56,84.95 607.31,85.34 608.06,85.74 608.81,86.14 609.56,86.54 610.31,86.94 611.06,87.34 611.81,87.75 612.56,88.15 613.31,88.56 614.06,88.97 614.82,89.38 615.57,89.79 616.32,90.21 617.07,90.62 617.82,91.04 618.57,91.46 619.32,91.88 620.07,92.30 620.82,92.73 621.57,93.15 622.32,93.58 623.07,94.01 623.82,94.44 624.57,94.87 625.33,95.30 626.08,95.74 626.83,96.17 627.58,96.61 628.33,97.05 629.08,97.49 629.83,97.93 630.58,98.38 631.33,98.83 632.08,99.27 632.83,99.72 633.58,100.17 634.33,100.62 635.09,101.08 635.84,101.53 636.59,101.99 637.34,102.45 638.09,102.91 638.84,103.37 639.59,103.84 640.34,104.30 641.09,104.77 641.84,105.24 642.59,105.71 643.34,106.18 644.09,106.65 644.84,107.12 645.60,107.60 646.35,108.08 647.10,108.56 647.85,109.04 648.60,109.52 649.35,110.00 650.10,110.49 650.85,110.98 651.60,111.47 652.35,111.96 653.10,112.45 653.85,112.94 654.60,113.44 655.35,113.93 656.11,114.43 656.86,114.93 657.61,115.43 658.36,115.94 659.11,116.44 659.86,116.95 660.61,117.46 661.36,117.97 662.11,118.48 662.86,118.99 663.61,119.50 664.36,120.02 665.11,120.54 665.87,121.06 666.62,121.58 667.37,122.10 668.12,122.62 668.87,123.15 669.62,123.68 670.37,124.20 671.12,124.73 671.87,125.27 672.62,125.80 673.37,126.33 674.12,126.87 674.87,127.41 675.62,127.95 676.38,128.49 677.13,129.03 677.88,129.58 678.63,130.12 679.38,130.67 680.13,131.22 680.88,131.77 681.63,132.32 682.38,132.88 683.13,133.43 683.88,133.99 684.63,134.55 685.38,135.11 686.13,135.67 686.89,136.23 687.64,136.80 688.39,137.37 689.14,137.93 689.89,138.50 690.64,139.08 691.39,139.65 692.14,140.22 692.89,140.80 693.64,141.38 694.39,141.96 695.14,142.54 695.89,143.12 696.65,143.70 697.40,144.29 698.15,144.88 698.90,145.47 699.65,146.06 700.40,146.65 701.15,147.24 701.90,147.84 702.65,148.43 703.40,149.03 704.15,149.63 704.90,150.23 705.65,150.84 706.40,151.44 707.16,152.05 707.91,152.66 708.66,153.27 709.41,153.88 710.16,154.49 710.91,155.11 711.66,155.72 712.41,156.34 713.16,156.96 713.91,157.58 714.66,158.20 715.41,158.82 716.16,159.45 716.91,160.08 717.67,160.71 718.42,161.34 719.17,161.97 719.92,162.60 720.67,163.24 721.42,163.87 722.17,164.51 722.92,165.15 723.67,165.79 724.42,166.43 725.17,167.08 725.92,167.73 726.67,168.37 727.43,169.02 728.18,169.67 728.93,170.33 729.68,170.98 730.43,171.64 731.18,172.29 731.93,172.95 732.68,173.61 733.43,174.27 734.18,174.94 734.93,175.60 735.68,176.27 736.43,176.94 737.18,177.61 737.94,178.28 738.69,178.95 739.44,179.63 740.19,180.30 740.94,180.98 741.69,181.66 742.44,182.34 743.19,183.02 743.94,183.71 744.69,184.39 745.44,185.08 746.19,185.77 746.94,186.46 747.70,187.15 748.45,187.85 749.20,188.54 749.95,189.24 750.70,189.94 751.45,190.64 752.20,191.34 752.95,192.04 753.70,192.75 754.45,193.45 755.20,194.16 755.95,194.87 756.70,195.58 757.45,196.30 758.21,197.01 758.96,197.73 759.71,198.44 760.46,199.16 761.21,199.88 761.96,200.61 762.71,201.33 763.46,202.06 764.21,202.78 764.96,203.51 765.71,204.24 766.46,204.97 767.21,205.71 767.96,206.44 768.72,207.18 769.47,207.92 770.22,208.66 770.97,209.40 771.72,210.14 772.47,210.89 773.22,211.63 773.97,212.38 774.72,213.13 775.47,213.88 776.22,214.63 776.97,215.39 777.72,216.14 778.48,216.90 779.23,217.66 779.98,218.42 780.73,219.18 781.48,219.95 782.23,220.71 782.98,221.48 783.73,222.25 784.48,223.02 785.23,223.79 785.98,224.56 786.73,225.34 787.48,226.11 788.23,226.89 788.99,227.67 789.74,228.45 790.49,229.23 791.24,230.02 791.99,230.80 792.74,231.59 793.49,232.38 794.24,233.17 794.99,233.96 795.74,234.76 796.49,235.55 797.24,236.35 797.99,237.15 798.74,237.95 799.50,238.75 800.25,239.55 801.00,240.36 801.75,241.16 802.50,241.97 803.25,242.78 804.00,244.00" />
  <text x="420.0" y="22" text-anchor="middle" font-family="Arial, Helvetica, sans-serif" font-size="15" fill="#102a43">welch window (time domain)</text>
  <text x="420.0" y="272" text-anchor="middle" font-family="Arial, Helvetica, sans-serif" font-size="12" fill="#334e68">normalized sample index</text>
  <text x="14" y="140.0" transform="rotate(-90 14,140.0)" text-anchor="middle" font-family="Arial, Helvetica, sans-serif" font-size="12" fill="#334e68">amplitude</text>
  <text x="36" y="262" font-family="Arial, Helvetica, sans-serif" font-size="11" fill="#486581">0</text>
  <text x="804" y="262" text-anchor="end" font-family="Arial, Helvetica, sans-serif" font-size="11" fill="#486581">1</text>
  <text x="30" y="40" text-anchor="end" font-family="Arial, Helvetica, sans-serif" font-size="11" fill="#486581">1.0</text>
  <text x="30" y="248" text-anchor="end" font-family="Arial, Helvetica, sans-serif" font-size="11" fill="#486581">0.0</text>
</svg>
